<svg xmlns="http://www.w3.org/2000/svg" xmlns:xlink="http://www.w3.org/1999/xlink" contentStyleType="text/css" data-diagram-type="CLASS" height="601px" preserveAspectRatio="none" style="width:1620px;height:601px;background:#FFFFFF;" version="1.1" viewBox="0 0 1620 601" width="1620px" zoomAndPan="magnify"><?plantuml 1.2026.6?><defs/><g><g class="title" data-source-line="327"><text fill="#000000" font-family="sans-serif" font-size="14" font-weight="700" lengthAdjust="spacing" textLength="361.8262" x="618.5869" y="23.5352">Protocol and generic driver ToolDefinition models</text></g><!--cluster MCP--><g class="cluster" data-qualified-name="MCP" data-source-line="332" id="ent0001"><path d="M16.5,65.9883 L48.7676,65.9883 A3.75,3.75 0 0 1 51.2676,68.4883 L58.2676,88.4766 L349.5,88.4766 A2.5,2.5 0 0 1 352,90.9766 L352,438.9883 A2.5,2.5 0 0 1 349.5,441.4883 L16.5,441.4883 A2.5,2.5 0 0 1 14,438.9883 L14,68.4883 A2.5,2.5 0 0 1 16.5,65.9883" fill="none" style="stroke:#000000;stroke-width:1.5;"/><line style="stroke:#000000;stroke-width:1.5;" x1="14" x2="58.2676" y1="88.4766" y2="88.4766"/><text fill="#000000" font-family="sans-serif" font-size="14" font-weight="700" lengthAdjust="spacing" textLength="31.2676" x="18" y="81.5234">MCP</text></g><!--cluster Qwen Code--><g class="cluster" data-qualified-name="Qwen Code" data-source-line="350" id="ent0005"><path d="M362.5,65.9883 L445.5176,65.9883 A3.75,3.75 0 0 1 448.0176,68.4883 L455.0176,88.4766 L721.5,88.4766 A2.5,2.5 0 0 1 724,90.9766 L724,590.9883 A2.5,2.5 0 0 1 721.5,593.4883 L362.5,593.4883 A2.5,2.5 0 0 1 360,590.9883 L360,68.4883 A2.5,2.5 0 0 1 362.5,65.9883" fill="none" style="stroke:#000000;stroke-width:1.5;"/><line style="stroke:#000000;stroke-width:1.5;" x1="360" x2="455.0176" y1="88.4766" y2="88.4766"/><text fill="#000000" font-family="sans-serif" font-size="14" font-weight="700" lengthAdjust="spacing" textLength="82.0176" x="364" y="81.5234">Qwen Code</text></g><!--cluster Coze Studio--><g class="cluster" data-qualified-name="Coze Studio" data-source-line="368" id="ent0011"><path d="M734.5,41.4883 L821.1406,41.4883 A3.75,3.75 0 0 1 823.6406,43.9883 L830.6406,63.9766 L1317.5,63.9766 A2.5,2.5 0 0 1 1320,66.4766 L1320,413.9883 A2.5,2.5 0 0 1 1317.5,416.4883 L734.5,416.4883 A2.5,2.5 0 0 1 732,413.9883 L732,43.9883 A2.5,2.5 0 0 1 734.5,41.4883" fill="none" style="stroke:#000000;stroke-width:1.5;"/><line style="stroke:#000000;stroke-width:1.5;" x1="732" x2="830.6406" y1="63.9766" y2="63.9766"/><text fill="#000000" font-family="sans-serif" font-size="14" font-weight="700" lengthAdjust="spacing" textLength="85.6406" x="736" y="57.0234">Coze Studio</text></g><!--cluster Continue--><g class="cluster" data-qualified-name="Continue" data-source-line="391" id="ent0017"><path d="M1330.5,57.9883 L1396.4277,57.9883 A3.75,3.75 0 0 1 1398.9277,60.4883 L1405.9277,80.4766 L1595.5,80.4766 A2.5,2.5 0 0 1 1598,82.9766 L1598,405.9883 A2.5,2.5 0 0 1 1595.5,408.4883 L1330.5,408.4883 A2.5,2.5 0 0 1 1328,405.9883 L1328,60.4883 A2.5,2.5 0 0 1 1330.5,57.9883" fill="none" style="stroke:#000000;stroke-width:1.5;"/><line style="stroke:#000000;stroke-width:1.5;" x1="1328" x2="1405.9277" y1="80.4766" y2="80.4766"/><text fill="#000000" font-family="sans-serif" font-size="14" font-weight="700" lengthAdjust="spacing" textLength="64.9277" x="1332" y="73.5234">Continue</text></g><!--class McpTool--><g class="entity" data-qualified-name="MCP.McpTool" data-source-line="333" id="ent0002"><rect fill="#F1F1F1" height="179.9063" rx="2.5" ry="2.5" style="stroke:#181818;stroke-width:0.5;" width="264.8818" x="50.5" y="253.4883"/><ellipse cx="149.6211" cy="269.4883" fill="#ADD1B2" rx="11" ry="11" style="stroke:#181818;stroke-width:1;"/><path d="M152.0942,275.6313 Q151.5132,275.9302 150.874,276.0796 Q150.2349,276.229 149.5293,276.229 Q147.0225,276.229 145.7026,274.5771 Q144.3828,272.9253 144.3828,269.8042 Q144.3828,266.6748 145.7026,265.0229 Q147.0225,263.3711 149.5293,263.3711 Q150.2349,263.3711 150.8823,263.5205 Q151.5298,263.6699 152.0942,263.9688 L152.0942,266.6914 Q151.4634,266.1104 150.8699,265.8406 Q150.2764,265.5708 149.6455,265.5708 Q148.3008,265.5708 147.616,266.6375 Q146.9312,267.7041 146.9312,269.8042 Q146.9312,271.896 147.616,272.9626 Q148.3008,274.0293 149.6455,274.0293 Q150.2764,274.0293 150.8699,273.7595 Q151.4634,273.4897 152.0942,272.9087 Z " fill="#000000"/><text fill="#000000" font-family="sans-serif" font-size="14" lengthAdjust="spacing" textLength="58.1396" x="170.1211" y="274.7793">McpTool</text><line style="stroke:#181818;stroke-width:0.5;" x1="51.5" x2="314.3818" y1="285.4883" y2="285.4883"/><text fill="#000000" font-family="sans-serif" font-size="14" lengthAdjust="spacing" textLength="96.8447" x="56.5" y="303.0234">+name: string</text><text fill="#000000" font-family="sans-serif" font-size="14" lengthAdjust="spacing" textLength="126.0205" x="56.5" y="319.5117">+title: string [0..1]</text><text fill="#000000" font-family="sans-serif" font-size="14" lengthAdjust="spacing" textLength="175.7314" x="56.5" y="336">+description: string [0..1]</text><text fill="#000000" font-family="sans-serif" font-size="14" lengthAdjust="spacing" textLength="188.2412" x="56.5" y="352.4883">+inputSchema: JsonSchema</text><text fill="#000000" font-family="sans-serif" font-size="14" lengthAdjust="spacing" textLength="238.1299" x="56.5" y="368.9766">+outputSchema: JsonSchema [0..1]</text><text fill="#000000" font-family="sans-serif" font-size="14" lengthAdjust="spacing" textLength="252.8818" x="56.5" y="385.4648">+annotations: ToolAnnotations [0..1]</text><text fill="#000000" font-family="sans-serif" font-size="14" lengthAdjust="spacing" textLength="251.084" x="56.5" y="401.9531">+execution.taskSupport: enum [0..1]</text><text fill="#000000" font-family="sans-serif" font-size="14" lengthAdjust="spacing" textLength="142.8027" x="56.5" y="418.4414">+_meta: object [0..1]</text><line style="stroke:#181818;stroke-width:0.5;" x1="51.5" x2="314.3818" y1="425.3945" y2="425.3945"/></g><!--class McpServer--><g class="entity" data-qualified-name="MCP.McpServer" data-source-line="343" id="ent0003"><rect fill="#F1F1F1" height="80.9766" rx="2.5" ry="2.5" style="stroke:#181818;stroke-width:0.5;" width="321.0391" x="22.5" y="92.9883"/><ellipse cx="143.8276" cy="108.9883" fill="#B4A7E5" rx="11" ry="11" style="stroke:#181818;stroke-width:1;"/><path d="M140.2554,105.2534 L140.2554,103.0952 L147.6348,103.0952 L147.6348,105.2534 L145.1694,105.2534 L145.1694,113.3301 L147.6348,113.3301 L147.6348,115.4883 L140.2554,115.4883 L140.2554,113.3301 L142.7207,113.3301 L142.7207,105.2534 Z " fill="#000000"/><text fill="#000000" font-family="sans-serif" font-size="14" font-style="italic" lengthAdjust="spacing" textLength="69.8838" x="164.3276" y="114.2793">McpServer</text><line style="stroke:#181818;stroke-width:0.5;" x1="23.5" x2="342.5391" y1="124.9883" y2="124.9883"/><line style="stroke:#181818;stroke-width:0.5;" x1="23.5" x2="342.5391" y1="132.9883" y2="132.9883"/><text fill="#000000" font-family="sans-serif" font-size="14" lengthAdjust="spacing" textLength="157.4248" x="28.5" y="150.5234">+tools_list(): McpTool[]</text><text fill="#000000" font-family="sans-serif" font-size="14" lengthAdjust="spacing" textLength="309.0391" x="28.5" y="167.0117">+tools_call(name, arguments): CallToolResult</text></g><!--class QwenToolsConfig--><g class="entity" data-qualified-name="Qwen Code.QwenToolsConfig" data-source-line="351" id="ent0006"><rect fill="#F1F1F1" height="80.9766" rx="2.5" ry="2.5" style="stroke:#181818;stroke-width:0.5;" width="205.0674" x="439.5" y="92.9883"/><ellipse cx="478.252" cy="108.9883" fill="#ADD1B2" rx="11" ry="11" style="stroke:#181818;stroke-width:1;"/><path d="M480.7251,115.1313 Q480.1441,115.4302 479.5049,115.5796 Q478.8658,115.729 478.1602,115.729 Q475.6534,115.729 474.3335,114.0771 Q473.0137,112.4253 473.0137,109.3042 Q473.0137,106.1748 474.3335,104.5229 Q475.6534,102.8711 478.1602,102.8711 Q478.8658,102.8711 479.5132,103.0205 Q480.1607,103.1699 480.7251,103.4688 L480.7251,106.1914 Q480.0943,105.6104 479.5008,105.3406 Q478.9073,105.0708 478.2764,105.0708 Q476.9317,105.0708 476.2469,106.1375 Q475.5621,107.2041 475.5621,109.3042 Q475.5621,111.396 476.2469,112.4626 Q476.9317,113.5293 478.2764,113.5293 Q478.9073,113.5293 479.5008,113.2595 Q480.0943,112.9897 480.7251,112.4087 Z " fill="#000000"/><text fill="#000000" font-family="sans-serif" font-size="14" lengthAdjust="spacing" textLength="120.2852" x="497.5302" y="114.2793">QwenToolsConfig</text><line style="stroke:#181818;stroke-width:0.5;" x1="440.5" x2="643.5674" y1="124.9883" y2="124.9883"/><text fill="#000000" font-family="sans-serif" font-size="14" lengthAdjust="spacing" textLength="193.0674" x="445.5" y="142.5234">+discoveryCommand: string</text><text fill="#000000" font-family="sans-serif" font-size="14" lengthAdjust="spacing" textLength="152.209" x="445.5" y="159.0117">+callCommand: string</text><line style="stroke:#181818;stroke-width:0.5;" x1="440.5" x2="643.5674" y1="165.9648" y2="165.9648"/></g><!--class QwenFunctionDeclaration--><g class="entity" data-qualified-name="Qwen Code.QwenFunctionDeclaration" data-source-line="355" id="ent0007"><rect fill="#F1F1F1" height="97.4648" rx="2.5" ry="2.5" style="stroke:#181818;stroke-width:0.5;" width="206.043" x="439" y="488.4883"/><ellipse cx="454" cy="504.4883" fill="#ADD1B2" rx="11" ry="11" style="stroke:#181818;stroke-width:1;"/><path d="M456.4731,510.6313 Q455.8921,510.9302 455.2529,511.0796 Q454.6138,511.229 453.9082,511.229 Q451.4014,511.229 450.0815,509.5771 Q448.7617,507.9253 448.7617,504.8042 Q448.7617,501.6748 450.0815,500.0229 Q451.4014,498.3711 453.9082,498.3711 Q454.6138,498.3711 455.2612,498.5205 Q455.9087,498.6699 456.4731,498.9688 L456.4731,501.6914 Q455.8423,501.1104 455.2488,500.8406 Q454.6553,500.5708 454.0244,500.5708 Q452.6797,500.5708 451.9949,501.6375 Q451.3101,502.7041 451.3101,504.8042 Q451.3101,506.896 451.9949,507.9626 Q452.6797,509.0293 454.0244,509.0293 Q454.6553,509.0293 455.2488,508.7595 Q455.8423,508.4897 456.4731,507.9087 Z " fill="#000000"/><text fill="#000000" font-family="sans-serif" font-size="14" lengthAdjust="spacing" textLength="174.043" x="468" y="509.7793">QwenFunctionDeclaration</text><line style="stroke:#181818;stroke-width:0.5;" x1="440" x2="644.043" y1="520.4883" y2="520.4883"/><text fill="#000000" font-family="sans-serif" font-size="14" lengthAdjust="spacing" textLength="96.8447" x="445" y="538.0234">+name: string</text><text fill="#000000" font-family="sans-serif" font-size="14" lengthAdjust="spacing" textLength="135.6318" x="445" y="554.5117">+description: string</text><text fill="#000000" font-family="sans-serif" font-size="14" lengthAdjust="spacing" textLength="177.543" x="445" y="571">+parameters: JsonSchema</text><line style="stroke:#181818;stroke-width:0.5;" x1="440" x2="644.043" y1="577.9531" y2="577.9531"/></g><!--class QwenCommandDriver--><g class="entity" data-qualified-name="Qwen Code.QwenCommandDriver" data-source-line="360" id="ent0008"><rect fill="#F1F1F1" height="80.9766" rx="2.5" ry="2.5" style="stroke:#181818;stroke-width:0.5;" width="347.9248" x="368" y="302.9883"/><ellipse cx="463.2896" cy="318.9883" fill="#ADD1B2" rx="11" ry="11" style="stroke:#181818;stroke-width:1;"/><path d="M465.7627,325.1313 Q465.1816,325.4302 464.5425,325.5796 Q463.9033,325.729 463.1978,325.729 Q460.6909,325.729 459.3711,324.0771 Q458.0513,322.4253 458.0513,319.3042 Q458.0513,316.1748 459.3711,314.5229 Q460.6909,312.8711 463.1978,312.8711 Q463.9033,312.8711 464.5508,313.0205 Q465.1982,313.1699 465.7627,313.4688 L465.7627,316.1914 Q465.1318,315.6104 464.5383,315.3406 Q463.9448,315.0708 463.314,315.0708 Q461.9692,315.0708 461.2844,316.1375 Q460.5996,317.2041 460.5996,319.3042 Q460.5996,321.396 461.2844,322.4626 Q461.9692,323.5293 463.314,323.5293 Q463.9448,323.5293 464.5383,323.2595 Q465.1318,322.9897 465.7627,322.4087 Z " fill="#000000"/><text fill="#000000" font-family="sans-serif" font-size="14" lengthAdjust="spacing" textLength="148.8457" x="483.7896" y="324.2793">QwenCommandDriver</text><line style="stroke:#181818;stroke-width:0.5;" x1="369" x2="714.9248" y1="334.9883" y2="334.9883"/><line style="stroke:#181818;stroke-width:0.5;" x1="369" x2="714.9248" y1="342.9883" y2="342.9883"/><text fill="#000000" font-family="sans-serif" font-size="14" lengthAdjust="spacing" textLength="297.7734" x="374" y="360.5234">+discover(command): FunctionDeclaration[]</text><text fill="#000000" font-family="sans-serif" font-size="14" lengthAdjust="spacing" textLength="335.9248" x="374" y="377.0117">+call(command, toolName, jsonStdin): JsonResult</text></g><!--class CozePluginManifest--><g class="entity" data-qualified-name="Coze Studio.CozePluginManifest" data-source-line="369" id="ent0012"><rect fill="#F1F1F1" height="130.4414" rx="2.5" ry="2.5" style="stroke:#181818;stroke-width:0.5;" width="210.7822" x="1100.5" y="68.4883"/><ellipse cx="1135.699" cy="84.4883" fill="#ADD1B2" rx="11" ry="11" style="stroke:#181818;stroke-width:1;"/><path d="M1138.1722,90.6313 Q1137.5911,90.9302 1136.952,91.0796 Q1136.3128,91.229 1135.6072,91.229 Q1133.1004,91.229 1131.7806,89.5771 Q1130.4607,87.9253 1130.4607,84.8042 Q1130.4607,81.6748 1131.7806,80.0229 Q1133.1004,78.3711 1135.6072,78.3711 Q1136.3128,78.3711 1136.9603,78.5205 Q1137.6077,78.6699 1138.1722,78.9688 L1138.1722,81.6914 Q1137.5413,81.1104 1136.9478,80.8406 Q1136.3543,80.5708 1135.7234,80.5708 Q1134.3787,80.5708 1133.6939,81.6375 Q1133.0091,82.7041 1133.0091,84.8042 Q1133.0091,86.896 1133.6939,87.9626 Q1134.3787,89.0293 1135.7234,89.0293 Q1136.3543,89.0293 1136.9478,88.7595 Q1137.5413,88.4897 1138.1722,87.9087 Z " fill="#000000"/><text fill="#000000" font-family="sans-serif" font-size="14" lengthAdjust="spacing" textLength="133.8955" x="1154.1877" y="89.7793">CozePluginManifest</text><line style="stroke:#181818;stroke-width:0.5;" x1="1101.5" x2="1310.2822" y1="100.4883" y2="100.4883"/><text fill="#000000" font-family="sans-serif" font-size="14" lengthAdjust="spacing" textLength="162.3057" x="1106.5" y="118.0234">+schemaVersion: string</text><text fill="#000000" font-family="sans-serif" font-size="14" lengthAdjust="spacing" textLength="159.9951" x="1106.5" y="134.5117">+nameForModel: string</text><text fill="#000000" font-family="sans-serif" font-size="14" lengthAdjust="spacing" textLength="198.7822" x="1106.5" y="151">+descriptionForModel: string</text><text fill="#000000" font-family="sans-serif" font-size="14" lengthAdjust="spacing" textLength="127.5039" x="1106.5" y="167.4883">+auth: AuthConfig</text><text fill="#000000" font-family="sans-serif" font-size="14" lengthAdjust="spacing" textLength="128.6592" x="1106.5" y="183.9766">+api.type: openapi</text><line style="stroke:#181818;stroke-width:0.5;" x1="1101.5" x2="1310.2822" y1="190.9297" y2="190.9297"/></g><!--class OpenApiOperation--><g class="entity" data-qualified-name="Coze Studio.OpenApiOperation" data-source-line="376" id="ent0013"><rect fill="#F1F1F1" height="130.4414" rx="2.5" ry="2.5" style="stroke:#181818;stroke-width:0.5;" width="243.1709" x="900.5" y="278.4883"/><ellipse cx="954.7295" cy="294.4883" fill="#ADD1B2" rx="11" ry="11" style="stroke:#181818;stroke-width:1;"/><path d="M957.2026,300.6313 Q956.6216,300.9302 955.9824,301.0796 Q955.3433,301.229 954.6377,301.229 Q952.1309,301.229 950.811,299.5771 Q949.4912,297.9253 949.4912,294.8042 Q949.4912,291.6748 950.811,290.0229 Q952.1309,288.3711 954.6377,288.3711 Q955.3433,288.3711 955.9907,288.5205 Q956.6382,288.6699 957.2026,288.9688 L957.2026,291.6914 Q956.5718,291.1104 955.9783,290.8406 Q955.3848,290.5708 954.7539,290.5708 Q953.4092,290.5708 952.7244,291.6375 Q952.0396,292.7041 952.0396,294.8042 Q952.0396,296.896 952.7244,297.9626 Q953.4092,299.0293 954.7539,299.0293 Q955.3848,299.0293 955.9783,298.7595 Q956.5718,298.4897 957.2026,297.9087 Z " fill="#000000"/><text fill="#000000" font-family="sans-serif" font-size="14" lengthAdjust="spacing" textLength="126.2119" x="975.2295" y="299.7793">OpenApiOperation</text><line style="stroke:#181818;stroke-width:0.5;" x1="901.5" x2="1142.6709" y1="310.4883" y2="310.4883"/><text fill="#000000" font-family="sans-serif" font-size="14" lengthAdjust="spacing" textLength="137.6416" x="906.5" y="328.0234">+operationId: string</text><text fill="#000000" font-family="sans-serif" font-size="14" lengthAdjust="spacing" textLength="122.2949" x="906.5" y="344.5117">+summary: string</text><text fill="#000000" font-family="sans-serif" font-size="14" lengthAdjust="spacing" textLength="135.6318" x="906.5" y="361">+description: string</text><text fill="#000000" font-family="sans-serif" font-size="14" lengthAdjust="spacing" textLength="174.4326" x="906.5" y="377.4883">+parameters: Parameter[]</text><text fill="#000000" font-family="sans-serif" font-size="14" lengthAdjust="spacing" textLength="231.1709" x="906.5" y="393.9766">+requestBody: RequestBody [0..1]</text><line style="stroke:#181818;stroke-width:0.5;" x1="901.5" x2="1142.6709" y1="400.9297" y2="400.9297"/></g><!--class CozeHttpExecutor--><g class="entity" data-qualified-name="Coze Studio.CozeHttpExecutor" data-source-line="383" id="ent0014"><rect fill="#F1F1F1" height="80.9766" rx="2.5" ry="2.5" style="stroke:#181818;stroke-width:0.5;" width="341.998" x="740" y="92.9883"/><ellipse cx="845.2085" cy="108.9883" fill="#ADD1B2" rx="11" ry="11" style="stroke:#181818;stroke-width:1;"/><path d="M847.6816,115.1313 Q847.1006,115.4302 846.4614,115.5796 Q845.8223,115.729 845.1167,115.729 Q842.6099,115.729 841.29,114.0771 Q839.9702,112.4253 839.9702,109.3042 Q839.9702,106.1748 841.29,104.5229 Q842.6099,102.8711 845.1167,102.8711 Q845.8223,102.8711 846.4697,103.0205 Q847.1172,103.1699 847.6816,103.4688 L847.6816,106.1914 Q847.0508,105.6104 846.4573,105.3406 Q845.8638,105.0708 845.2329,105.0708 Q843.8882,105.0708 843.2034,106.1375 Q842.5186,107.2041 842.5186,109.3042 Q842.5186,111.396 843.2034,112.4626 Q843.8882,113.5293 845.2329,113.5293 Q845.8638,113.5293 846.4573,113.2595 Q847.0508,112.9897 847.6816,112.4087 Z " fill="#000000"/><text fill="#000000" font-family="sans-serif" font-size="14" lengthAdjust="spacing" textLength="123.0811" x="865.7085" y="114.2793">CozeHttpExecutor</text><line style="stroke:#181818;stroke-width:0.5;" x1="741" x2="1080.998" y1="124.9883" y2="124.9883"/><line style="stroke:#181818;stroke-width:0.5;" x1="741" x2="1080.998" y1="132.9883" y2="132.9883"/><text fill="#000000" font-family="sans-serif" font-size="14" lengthAdjust="spacing" textLength="219.2969" x="746" y="150.5234">+compile(operation): ModelTool</text><text fill="#000000" font-family="sans-serif" font-size="14" lengthAdjust="spacing" textLength="329.998" x="746" y="167.0117">+invoke(method, url, headers, body): ToolResult</text></g><!--class ContinueToolDescriptor--><g class="entity" data-qualified-name="Continue.ContinueToolDescriptor" data-source-line="392" id="ent0018"><rect fill="#F1F1F1" height="113.9531" rx="2.5" ry="2.5" style="stroke:#181818;stroke-width:0.5;" width="194.2783" x="1336" y="286.4883"/><ellipse cx="1351" cy="302.4883" fill="#ADD1B2" rx="11" ry="11" style="stroke:#181818;stroke-width:1;"/><path d="M1353.4731,308.6313 Q1352.8921,308.9302 1352.2529,309.0796 Q1351.6138,309.229 1350.9082,309.229 Q1348.4014,309.229 1347.0815,307.5771 Q1345.7617,305.9253 1345.7617,302.8042 Q1345.7617,299.6748 1347.0815,298.0229 Q1348.4014,296.3711 1350.9082,296.3711 Q1351.6138,296.3711 1352.2612,296.5205 Q1352.9087,296.6699 1353.4731,296.9688 L1353.4731,299.6914 Q1352.8423,299.1104 1352.2488,298.8406 Q1351.6553,298.5708 1351.0244,298.5708 Q1349.6797,298.5708 1348.9949,299.6375 Q1348.3101,300.7041 1348.3101,302.8042 Q1348.3101,304.896 1348.9949,305.9626 Q1349.6797,307.0293 1351.0244,307.0293 Q1351.6553,307.0293 1352.2488,306.7595 Q1352.8423,306.4897 1353.4731,305.9087 Z " fill="#000000"/><text fill="#000000" font-family="sans-serif" font-size="14" lengthAdjust="spacing" textLength="162.2783" x="1365" y="307.7793">ContinueToolDescriptor</text><line style="stroke:#181818;stroke-width:0.5;" x1="1337" x2="1529.2783" y1="318.4883" y2="318.4883"/><text fill="#000000" font-family="sans-serif" font-size="14" lengthAdjust="spacing" textLength="96.8447" x="1342" y="336.0234">+name: string</text><text fill="#000000" font-family="sans-serif" font-size="14" lengthAdjust="spacing" textLength="135.6318" x="1342" y="352.5117">+description: string</text><text fill="#000000" font-family="sans-serif" font-size="14" lengthAdjust="spacing" textLength="177.543" x="1342" y="369">+parameters: JsonSchema</text><text fill="#000000" font-family="sans-serif" font-size="14" lengthAdjust="spacing" textLength="118.1182" x="1342" y="385.4883">+uri: string [0..1]</text><line style="stroke:#181818;stroke-width:0.5;" x1="1337" x2="1529.2783" y1="392.4414" y2="392.4414"/></g><!--class ContinueToolDispatcher--><g class="entity" data-qualified-name="Continue.ContinueToolDispatcher" data-source-line="398" id="ent0019"><rect fill="#F1F1F1" height="97.4648" rx="2.5" ry="2.5" style="stroke:#181818;stroke-width:0.5;" width="254.2178" x="1336" y="84.9883"/><ellipse cx="1377.0314" cy="100.9883" fill="#ADD1B2" rx="11" ry="11" style="stroke:#181818;stroke-width:1;"/><path d="M1379.5046,107.1313 Q1378.9235,107.4302 1378.2844,107.5796 Q1377.6452,107.729 1376.9396,107.729 Q1374.4328,107.729 1373.113,106.0771 Q1371.7932,104.4253 1371.7932,101.3042 Q1371.7932,98.1748 1373.113,96.5229 Q1374.4328,94.8711 1376.9396,94.8711 Q1377.6452,94.8711 1378.2927,95.0205 Q1378.9401,95.1699 1379.5046,95.4688 L1379.5046,98.1914 Q1378.8737,97.6104 1378.2802,97.3406 Q1377.6867,97.0708 1377.0559,97.0708 Q1375.7111,97.0708 1375.0263,98.1375 Q1374.3415,99.2041 1374.3415,101.3042 Q1374.3415,103.396 1375.0263,104.4626 Q1375.7111,105.5293 1377.0559,105.5293 Q1377.6867,105.5293 1378.2802,105.2595 Q1378.8737,104.9897 1379.5046,104.4087 Z " fill="#000000"/><text fill="#000000" font-family="sans-serif" font-size="14" lengthAdjust="spacing" textLength="164.3701" x="1396.8162" y="106.2793">ContinueToolDispatcher</text><line style="stroke:#181818;stroke-width:0.5;" x1="1337" x2="1589.2178" y1="116.9883" y2="116.9883"/><line style="stroke:#181818;stroke-width:0.5;" x1="1337" x2="1589.2178" y1="124.9883" y2="124.9883"/><text fill="#000000" font-family="sans-serif" font-size="14" lengthAdjust="spacing" textLength="242.2178" x="1342" y="142.5234">+callBuiltIn(name, args): ToolResult</text><text fill="#000000" font-family="sans-serif" font-size="14" lengthAdjust="spacing" textLength="208.6396" x="1342" y="159.0117">+callMcp(uri, args): ToolResult</text><text fill="#000000" font-family="sans-serif" font-size="14" lengthAdjust="spacing" textLength="210.1709" x="1342" y="175.5">+callHttp(uri, args): ToolResult</text></g><g class="link" data-entity-1="ent0003" data-entity-2="ent0002" data-link-type="dependency" id="lnk4"><polygon fill="#181818" points="183,253.4655,187,244.4655,183,248.4655,179,244.4655,183,253.4655" style="stroke:#181818;stroke-width:1;stroke-linejoin:miter;stroke-miterlimit:10;"/><path d="M183,174.1011 C183,196.6142 183,220.7639 183,248.4655" fill="none" style="stroke:#181818;stroke-width:1;"/><text fill="#000000" font-family="sans-serif" font-size="13" lengthAdjust="spacing" textLength="60.5122" x="185" y="231.0566">publishes</text></g><g class="link" data-entity-1="ent0006" data-entity-2="ent0008" data-link-type="dependency" id="lnk9"><polygon fill="#181818" points="542,302.6693,546,293.6693,542,297.6693,538,293.6693,542,302.6693" style="stroke:#181818;stroke-width:1;stroke-linejoin:miter;stroke-miterlimit:10;"/><path d="M542,174.1011 C542,210.9943 542,260.7098 542,297.6693" fill="none" style="stroke:#181818;stroke-width:1;"/><text fill="#000000" font-family="sans-serif" font-size="13" lengthAdjust="spacing" textLength="66.6123" x="544" y="231.0566">configures</text></g><g class="link" data-entity-1="ent0008" data-entity-2="ent0007" data-link-type="dependency" id="lnk10"><polygon fill="#181818" points="542,488.2281,546,479.2281,542,483.2281,538,479.2281,542,488.2281" style="stroke:#181818;stroke-width:1;stroke-linejoin:miter;stroke-miterlimit:10;"/><path d="M542,384.1672 C542,414.404 542,451.1592 542,483.2281" fill="none" style="stroke:#181818;stroke-width:1;"/><text fill="#000000" font-family="sans-serif" font-size="13" lengthAdjust="spacing" textLength="59.1284" x="544" y="466.0566">discovers</text></g><g class="link" data-entity-1="ent0012" data-entity-2="ent0013" data-link-type="aggregation" id="lnk15"><polygon fill="none" points="1149.2926,198.5924,1142.3211,200.436,1141.3417,207.5803,1148.3131,205.7366,1149.2926,198.5924" style="stroke:#181818;stroke-width:1;stroke-linejoin:miter;stroke-miterlimit:10;"/><path d="M1141.3417,207.5803 C1118.956,232.8859 1101.2353,252.918 1078.8369,278.2378" fill="none" style="stroke:#181818;stroke-width:1;"/></g><g class="link" data-entity-1="ent0014" data-entity-2="ent0013" data-link-type="dependency" id="lnk16"><polygon fill="#181818" points="987.8439,278.484,987.1355,268.6606,985.4898,274.0728,980.0776,272.4271,987.8439,278.484" style="stroke:#181818;stroke-width:1;stroke-linejoin:miter;stroke-miterlimit:10;"/><path d="M932.1395,174.1011 C947.8649,203.5685 967.3039,239.9946 985.4898,274.0728" fill="none" style="stroke:#181818;stroke-width:1;"/><text fill="#000000" font-family="sans-serif" font-size="13" lengthAdjust="spacing" textLength="143.9204" x="966" y="231.0566">compiles and executes</text></g><g class="link" data-entity-1="ent0019" data-entity-2="ent0018" data-link-type="dependency" id="lnk20"><polygon fill="#181818" points="1441.128,286.1341,1446.3718,277.7973,1441.8418,281.1853,1438.4538,276.6552,1441.128,286.1341" style="stroke:#181818;stroke-width:1;stroke-linejoin:miter;stroke-miterlimit:10;"/><path d="M1456.1174,182.2077 C1451.6543,213.1519 1446.5329,248.6601 1441.8418,281.1853" fill="none" style="stroke:#181818;stroke-width:1;"/><text fill="#000000" font-family="sans-serif" font-size="13" lengthAdjust="spacing" textLength="167.7178" x="1452" y="231.0566">dispatches by name or URI</text></g><?plantuml-src hLPDRzj64BthLqnpgOoQacqW5nuAE5A3g80Rnt9x2G9ZjHoH6vExpEvIZbBeltTcbvH4YUwXw45VCyEPsVVUpEgdsegy4b2AhMayk0gzq6BqConDOoK2RbI6Mc8ATxDxSBB0IanlhcxU9jVNoStRQRHCl8D7OyhBy7whjV72AwFT9GYTmKoK9JiUy5k3pa-6qdzxGPr8ao7KGZwB7DrK6ejJP-NKqxCkl2SMS-MytNB5kNBIRD1Ynib3fRvfeJT6XaO6Iqhp0nFdcqmPM55HrDaqCvLGUbgNJKuVqkZrj3GYUug6IMv26OTseoI6bgPgN-MfyBwcc5UgQQzqWn2E5OyaMs3uD1yU7-yl6UM8sQfHfK-KXaovMdXPmCeAJMWxplvnnIqWXM4XDihO50JagD4g2PbL104exT7M5YctBn0oTDAgsXiRybkY6ntWTvGDzmuloXSiWHfjmjr1OPm7aOcQqeIYStGgrs1HEADJJkeGXCMGdaWncbZp1AN3KcbAlgPQ3A7A6ni0IYGzxAdjsfhlMo1tx3K9y6SGK9cClF8bmhqrtiYMs9EpCMXpN2kjGkyLwQPq8_UiT2sig42MmhbRxwrQqJ4NrCHI_K2uEWfnXSZCYz8vh4NfyCZ3pUI4ZyvcfgGUNmhbSJHgTGblYACtyFS8OXMuatNG7ri0Vj6Y8hO93aeTBU4udGa-Nqqcrr-Yf-D4CPu3VkgeySimOYdyJgZ7xz59P0rwUnd4OHRJq-7i1Uw5CF72FI-RkZRMfu2wgNfnJxmXKZ2hhoZzmREZLn3SMf3g2P8bwzDse0HYdqeQtV55sY7s-SknasTXpE2H_ctULAYzezZ3xd1DwTjAX_n9ykkUW1JgPaKrI9UZtH5VdsYrm8maSimQ6_afDmi2xHhDsWModPcg8k7rcUGUpnsxNjBtZPQCunp95cN_kZG6110TGOd8atT2VBzOsymyJiN96SOoUWd5WQOwz0FkRUHbcC0_0WbVkQhFbBw87VG8E4MFQJZl9zrFFp420m7TOqEOfT2Tey_cZBOsBCFMFkQJpVTXITy9hTQyY5euuXNr5-KvGva9UM_i7Q-FLuaP3X2DBrAufVS8GMkjrSHlQsBPrAZfLu-nZsIxhHLzz7LXEiFYH6-k8RJizZzevhxxtj5iuztxpcIKxk7mep_21om_q5NsMzW9PYyiKacjIXpl--LPPcXO2jt6sfXd75Ffmf2S6al_2GeK6JLr2IkgTn7NK4zD0zoP93c3gutiTSOAEeELTHSwTU7kYAiDJsKKh-E-Xg8jtYxxw_9_d5xoDLQTx_hTS0_jrNyORHxMT_pFOA4FkzATOje6qbuSKxL_ZM4mNm-Av0msnC2_WbUw_yz21Aosm8toNV_dmsAq-mS0?></g></svg>