<svg xmlns="http://www.w3.org/2000/svg" xmlns:xlink="http://www.w3.org/1999/xlink" contentStyleType="text/css" data-diagram-type="CLASS" height="804px" preserveAspectRatio="none" style="width:848px;height:804px;background:#FFFFFF;" version="1.1" viewBox="0 0 848 804" width="848px" zoomAndPan="magnify"><?plantuml 1.2026.6?><defs/><g><g class="title" data-source-line="266"><text fill="#000000" font-family="sans-serif" font-size="14" font-weight="700" lengthAdjust="spacing" textLength="331.1191" x="254.9404" y="23.5352">Separated metadata and host callback models</text></g><!--cluster Cline--><g class="cluster" data-qualified-name="Cline" data-source-line="275" id="ent0001"><rect fill="none" height="241.5" rx="2.5" ry="2.5" style="stroke:#000000;stroke-width:1.5;" width="278" x="14" y="49.9883"/><text fill="#000000" font-family="sans-serif" font-size="14" font-weight="700" lengthAdjust="spacing" textLength="36.4766" x="134.7617" y="65.5234">Cline</text></g><!--cluster Grok Build--><g class="cluster" data-qualified-name="Grok Build" data-source-line="287" id="ent0005"><rect fill="none" height="242" rx="2.5" ry="2.5" style="stroke:#000000;stroke-width:1.5;" width="540" x="300" y="41.4883"/><text fill="#000000" font-family="sans-serif" font-size="14" font-weight="700" lengthAdjust="spacing" textLength="75.6123" x="532.1938" y="57.0234">Grok Build</text></g><!--cluster Anthropic API and Managed Agents--><g class="cluster" data-qualified-name="Anthropic API and Managed Agents" data-source-line="302" id="ent0011"><rect fill="none" height="342" rx="2.5" ry="2.5" style="stroke:#000000;stroke-width:1.5;" width="271" x="26" y="310.4883"/><text fill="#000000" font-family="sans-serif" font-size="14" font-weight="700" lengthAdjust="spacing" textLength="255.2607" x="33.8696" y="326.0234">Anthropic API and Managed Agents</text></g><!--cluster Codex--><g class="cluster" data-qualified-name="Codex" data-source-line="318" id="ent0015"><rect fill="none" height="453" rx="2.5" ry="2.5" style="stroke:#000000;stroke-width:1.5;" width="350" x="305" y="343.4883"/><text fill="#000000" font-family="sans-serif" font-size="14" font-weight="700" lengthAdjust="spacing" textLength="44.666" x="457.667" y="359.0234">Codex</text></g><!--class ClineAgentToolDefinition--><g class="entity" data-qualified-name="Cline.ClineAgentToolDefinition" data-source-line="276" id="ent0002"><rect fill="#F1F1F1" height="97.4648" rx="2.5" ry="2.5" style="stroke:#181818;stroke-width:0.5;" width="203.2676" x="72.5" y="76.9883"/><ellipse cx="87.5" cy="92.9883" fill="#ADD1B2" rx="11" ry="11" style="stroke:#181818;stroke-width:1;"/><path d="M89.9731,99.1313 Q89.3921,99.4302 88.7529,99.5796 Q88.1138,99.729 87.4082,99.729 Q84.9014,99.729 83.5815,98.0771 Q82.2617,96.4253 82.2617,93.3042 Q82.2617,90.1748 83.5815,88.5229 Q84.9014,86.8711 87.4082,86.8711 Q88.1138,86.8711 88.7612,87.0205 Q89.4087,87.1699 89.9731,87.4688 L89.9731,90.1914 Q89.3423,89.6104 88.7488,89.3406 Q88.1553,89.0708 87.5244,89.0708 Q86.1797,89.0708 85.4949,90.1375 Q84.8101,91.2041 84.8101,93.3042 Q84.8101,95.396 85.4949,96.4626 Q86.1797,97.5293 87.5244,97.5293 Q88.1553,97.5293 88.7488,97.2595 Q89.3423,96.9897 89.9731,96.4087 Z " fill="#000000"/><text fill="#000000" font-family="sans-serif" font-size="14" lengthAdjust="spacing" textLength="171.2676" x="101.5" y="98.2793">ClineAgentToolDefinition</text><line style="stroke:#181818;stroke-width:0.5;" x1="73.5" x2="274.7676" y1="108.9883" y2="108.9883"/><text fill="#000000" font-family="sans-serif" font-size="14" lengthAdjust="spacing" textLength="96.8447" x="78.5" y="126.5234">+name: string</text><text fill="#000000" font-family="sans-serif" font-size="14" lengthAdjust="spacing" textLength="135.6318" x="78.5" y="143.0117">+description: string</text><text fill="#000000" font-family="sans-serif" font-size="14" lengthAdjust="spacing" textLength="188.2412" x="78.5" y="159.5">+inputSchema: JsonSchema</text><line style="stroke:#181818;stroke-width:0.5;" x1="73.5" x2="274.7676" y1="166.4531" y2="166.4531"/></g><!--class ClineAgentTool--><g class="entity" data-qualified-name="Cline.ClineAgentTool" data-source-line="281" id="ent0003"><rect fill="#F1F1F1" height="64.4883" rx="2.5" ry="2.5" style="stroke:#181818;stroke-width:0.5;" width="261.6826" x="22" y="219.4883"/><ellipse cx="96.3511" cy="235.4883" fill="#ADD1B2" rx="11" ry="11" style="stroke:#181818;stroke-width:1;"/><path d="M98.8242,241.6313 Q98.2432,241.9302 97.604,242.0796 Q96.9648,242.229 96.2593,242.229 Q93.7524,242.229 92.4326,240.5771 Q91.1128,238.9253 91.1128,235.8042 Q91.1128,232.6748 92.4326,231.0229 Q93.7524,229.3711 96.2593,229.3711 Q96.9648,229.3711 97.6123,229.5205 Q98.2598,229.6699 98.8242,229.9688 L98.8242,232.6914 Q98.1934,232.1104 97.5999,231.8406 Q97.0063,231.5708 96.3755,231.5708 Q95.0308,231.5708 94.3459,232.6375 Q93.6611,233.7041 93.6611,235.8042 Q93.6611,237.896 94.3459,238.9626 Q95.0308,240.0293 96.3755,240.0293 Q97.0063,240.0293 97.5999,239.7595 Q98.1934,239.4897 98.8242,238.9087 Z " fill="#000000"/><text fill="#000000" font-family="sans-serif" font-size="14" lengthAdjust="spacing" textLength="104.4805" x="116.8511" y="240.7793">ClineAgentTool</text><line style="stroke:#181818;stroke-width:0.5;" x1="23" x2="282.6826" y1="251.4883" y2="251.4883"/><line style="stroke:#181818;stroke-width:0.5;" x1="23" x2="282.6826" y1="259.4883" y2="259.4883"/><text fill="#000000" font-family="sans-serif" font-size="14" lengthAdjust="spacing" textLength="249.6826" x="28" y="277.0234">+execute(input, context): ToolResult</text></g><!--class GrokToolMetadata--><g class="entity" data-qualified-name="Grok Build.GrokToolMetadata" data-source-line="288" id="ent0006"><rect fill="#F1F1F1" height="113.9531" rx="2.5" ry="2.5" style="stroke:#181818;stroke-width:0.5;" width="243.5127" x="588" y="68.4883"/><ellipse cx="642.9746" cy="84.4883" fill="#B4A7E5" rx="11" ry="11" style="stroke:#181818;stroke-width:1;"/><path d="M639.4023,80.7534 L639.4023,78.5952 L646.7817,78.5952 L646.7817,80.7534 L644.3164,80.7534 L644.3164,88.8301 L646.7817,88.8301 L646.7817,90.9883 L639.4023,90.9883 L639.4023,88.8301 L641.8677,88.8301 L641.8677,80.7534 Z " fill="#000000"/><text fill="#000000" font-family="sans-serif" font-size="14" font-style="italic" lengthAdjust="spacing" textLength="125.0635" x="663.4746" y="89.7793">GrokToolMetadata</text><line style="stroke:#181818;stroke-width:0.5;" x1="589" x2="830.5127" y1="100.4883" y2="100.4883"/><line style="stroke:#181818;stroke-width:0.5;" x1="589" x2="830.5127" y1="108.4883" y2="108.4883"/><text fill="#000000" font-family="sans-serif" font-size="14" lengthAdjust="spacing" textLength="105.9502" x="594" y="126.0234">+name(): string</text><text fill="#000000" font-family="sans-serif" font-size="14" lengthAdjust="spacing" textLength="155.5039" x="594" y="142.5117">+displayName(): string</text><text fill="#000000" font-family="sans-serif" font-size="14" lengthAdjust="spacing" textLength="144.7373" x="594" y="159">+description(): string</text><text fill="#000000" font-family="sans-serif" font-size="14" lengthAdjust="spacing" textLength="231.5127" x="594" y="175.4883">+parameterSchema(): JsonSchema</text></g><!--class GrokRuntimeTool--><g class="entity" data-qualified-name="Grok Build.GrokRuntimeTool" data-source-line="294" id="ent0007"><rect fill="#F1F1F1" height="64.4883" rx="2.5" ry="2.5" style="stroke:#181818;stroke-width:0.5;" width="261.6826" x="308" y="93.4883"/><ellipse cx="375.0366" cy="109.4883" fill="#B4A7E5" rx="11" ry="11" style="stroke:#181818;stroke-width:1;"/><path d="M371.4644,105.7534 L371.4644,103.5952 L378.8438,103.5952 L378.8438,105.7534 L376.3784,105.7534 L376.3784,113.8301 L378.8438,113.8301 L378.8438,115.9883 L371.4644,115.9883 L371.4644,113.8301 L373.9297,113.8301 L373.9297,105.7534 Z " fill="#000000"/><text fill="#000000" font-family="sans-serif" font-size="14" font-style="italic" lengthAdjust="spacing" textLength="119.1094" x="395.5366" y="114.7793">GrokRuntimeTool</text><line style="stroke:#181818;stroke-width:0.5;" x1="309" x2="568.6826" y1="125.4883" y2="125.4883"/><line style="stroke:#181818;stroke-width:0.5;" x1="309" x2="568.6826" y1="133.4883" y2="133.4883"/><text fill="#000000" font-family="sans-serif" font-size="14" lengthAdjust="spacing" textLength="249.6826" x="314" y="151.0234">+execute(input, context): ToolResult</text></g><!--class RegisteredGrokTool--><g class="entity" data-qualified-name="Grok Build.RegisteredGrokTool" data-source-line="297" id="ent0008"><rect fill="#F1F1F1" height="48" rx="2.5" ry="2.5" style="stroke:#181818;stroke-width:0.5;" width="166.668" x="396.5" y="227.4883"/><ellipse cx="411.5" cy="243.4883" fill="#ADD1B2" rx="11" ry="11" style="stroke:#181818;stroke-width:1;"/><path d="M413.9731,249.6313 Q413.3921,249.9302 412.7529,250.0796 Q412.1138,250.229 411.4082,250.229 Q408.9014,250.229 407.5815,248.5771 Q406.2617,246.9253 406.2617,243.8042 Q406.2617,240.6748 407.5815,239.0229 Q408.9014,237.3711 411.4082,237.3711 Q412.1138,237.3711 412.7612,237.5205 Q413.4087,237.6699 413.9731,237.9688 L413.9731,240.6914 Q413.3423,240.1104 412.7488,239.8406 Q412.1553,239.5708 411.5244,239.5708 Q410.1797,239.5708 409.4949,240.6375 Q408.8101,241.7041 408.8101,243.8042 Q408.8101,245.896 409.4949,246.9626 Q410.1797,248.0293 411.5244,248.0293 Q412.1553,248.0293 412.7488,247.7595 Q413.3423,247.4897 413.9731,246.9087 Z " fill="#000000"/><text fill="#000000" font-family="sans-serif" font-size="14" lengthAdjust="spacing" textLength="134.668" x="425.5" y="248.7793">RegisteredGrokTool</text><line style="stroke:#181818;stroke-width:0.5;" x1="397.5" x2="562.168" y1="259.4883" y2="259.4883"/><line style="stroke:#181818;stroke-width:0.5;" x1="397.5" x2="562.168" y1="267.4883" y2="267.4883"/></g><!--class AnthropicClientToolContract--><g class="entity" data-qualified-name="Anthropic API and Managed Agents.AnthropicClientToolContract" data-source-line="303" id="ent0012"><rect fill="#F1F1F1" height="163.418" rx="2.5" ry="2.5" style="stroke:#181818;stroke-width:0.5;" width="237.8184" x="34" y="337.4883"/><ellipse cx="54.1781" cy="353.4883" fill="#ADD1B2" rx="11" ry="11" style="stroke:#181818;stroke-width:1;"/><path d="M56.6512,359.6313 Q56.0702,359.9302 55.431,360.0796 Q54.7918,360.229 54.0863,360.229 Q51.5794,360.229 50.2596,358.5771 Q48.9398,356.9253 48.9398,353.8042 Q48.9398,350.6748 50.2596,349.0229 Q51.5794,347.3711 54.0863,347.3711 Q54.7918,347.3711 55.4393,347.5205 Q56.0868,347.6699 56.6512,347.9688 L56.6512,350.6914 Q56.0204,350.1104 55.4269,349.8406 Q54.8333,349.5708 54.2025,349.5708 Q52.8578,349.5708 52.1729,350.6375 Q51.4881,351.7041 51.4881,353.8042 Q51.4881,355.896 52.1729,356.9626 Q52.8578,358.0293 54.2025,358.0293 Q54.8333,358.0293 55.4269,357.7595 Q56.0204,357.4897 56.6512,356.9087 Z " fill="#000000"/><text fill="#000000" font-family="sans-serif" font-size="14" lengthAdjust="spacing" textLength="194.3115" x="69.3288" y="358.7793">AnthropicClientToolContract</text><line style="stroke:#181818;stroke-width:0.5;" x1="35" x2="270.8184" y1="369.4883" y2="369.4883"/><text fill="#000000" font-family="sans-serif" font-size="14" lengthAdjust="spacing" textLength="225.8184" x="40" y="387.0234">+type: custom [Managed Agents]</text><text fill="#000000" font-family="sans-serif" font-size="14" lengthAdjust="spacing" textLength="96.8447" x="40" y="403.5117">+name: string</text><text fill="#000000" font-family="sans-serif" font-size="14" lengthAdjust="spacing" textLength="135.6318" x="40" y="420">+description: string</text><text fill="#000000" font-family="sans-serif" font-size="14" lengthAdjust="spacing" textLength="194.8379" x="40" y="436.4883">+input_schema: JsonSchema</text><text fill="#000000" font-family="sans-serif" font-size="14" lengthAdjust="spacing" textLength="148.9209" x="40" y="452.9766">+strict: boolean [0..1]</text><text fill="#000000" font-family="sans-serif" font-size="14" lengthAdjust="spacing" textLength="207.3066" x="40" y="469.4648">+defer_loading: boolean [0..1]</text><text fill="#000000" font-family="sans-serif" font-size="14" lengthAdjust="spacing" textLength="218.5244" x="40" y="485.9531">+input_examples: object[] [0..1]</text><line style="stroke:#181818;stroke-width:0.5;" x1="35" x2="270.8184" y1="492.9063" y2="492.9063"/></g><!--class AnthropicClientExecutor--><g class="entity" data-qualified-name="Anthropic API and Managed Agents.AnthropicClientExecutor" data-source-line="312" id="ent0013"><rect fill="#F1F1F1" height="64.4883" rx="2.5" ry="2.5" style="stroke:#181818;stroke-width:0.5;" width="209.8389" x="56" y="580.4883"/><ellipse cx="76.538" cy="596.4883" fill="#B4A7E5" rx="11" ry="11" style="stroke:#181818;stroke-width:1;"/><path d="M72.9657,592.7534 L72.9657,590.5952 L80.3451,590.5952 L80.3451,592.7534 L77.8798,592.7534 L77.8798,600.8301 L80.3451,600.8301 L80.3451,602.9883 L72.9657,602.9883 L72.9657,600.8301 L75.4311,600.8301 L75.4311,592.7534 Z " fill="#000000"/><text fill="#000000" font-family="sans-serif" font-size="14" font-style="italic" lengthAdjust="spacing" textLength="165.5322" x="91.7687" y="601.7793">AnthropicClientExecutor</text><line style="stroke:#181818;stroke-width:0.5;" x1="57" x2="264.8389" y1="612.4883" y2="612.4883"/><line style="stroke:#181818;stroke-width:0.5;" x1="57" x2="264.8389" y1="620.4883" y2="620.4883"/><text fill="#000000" font-family="sans-serif" font-size="14" lengthAdjust="spacing" textLength="197.8389" x="62" y="638.0234">+handle(toolUse): ToolResult</text></g><!--class DynamicToolFunctionSpec--><g class="entity" data-qualified-name="Codex.DynamicToolFunctionSpec" data-source-line="319" id="ent0016"><rect fill="#F1F1F1" height="113.9531" rx="2.5" ry="2.5" style="stroke:#181818;stroke-width:0.5;" width="210.5547" x="374.5" y="555.4883"/><ellipse cx="389.5" cy="571.4883" fill="#ADD1B2" rx="11" ry="11" style="stroke:#181818;stroke-width:1;"/><path d="M391.9731,577.6313 Q391.3921,577.9302 390.7529,578.0796 Q390.1138,578.229 389.4082,578.229 Q386.9014,578.229 385.5815,576.5771 Q384.2617,574.9253 384.2617,571.8042 Q384.2617,568.6748 385.5815,567.0229 Q386.9014,565.3711 389.4082,565.3711 Q390.1138,565.3711 390.7612,565.5205 Q391.4087,565.6699 391.9731,565.9688 L391.9731,568.6914 Q391.3423,568.1104 390.7488,567.8406 Q390.1553,567.5708 389.5244,567.5708 Q388.1797,567.5708 387.4949,568.6375 Q386.8101,569.7041 386.8101,571.8042 Q386.8101,573.896 387.4949,574.9626 Q388.1797,576.0293 389.5244,576.0293 Q390.1553,576.0293 390.7488,575.7595 Q391.3423,575.4897 391.9731,574.9087 Z " fill="#000000"/><text fill="#000000" font-family="sans-serif" font-size="14" lengthAdjust="spacing" textLength="178.5547" x="403.5" y="576.7793">DynamicToolFunctionSpec</text><line style="stroke:#181818;stroke-width:0.5;" x1="375.5" x2="584.0547" y1="587.4883" y2="587.4883"/><text fill="#000000" font-family="sans-serif" font-size="14" lengthAdjust="spacing" textLength="96.8447" x="380.5" y="605.0234">+name: string</text><text fill="#000000" font-family="sans-serif" font-size="14" lengthAdjust="spacing" textLength="135.6318" x="380.5" y="621.5117">+description: string</text><text fill="#000000" font-family="sans-serif" font-size="14" lengthAdjust="spacing" textLength="188.2412" x="380.5" y="638">+inputSchema: JsonSchema</text><text fill="#000000" font-family="sans-serif" font-size="14" lengthAdjust="spacing" textLength="163.625" x="380.5" y="654.4883">+deferLoading: boolean</text><line style="stroke:#181818;stroke-width:0.5;" x1="375.5" x2="584.0547" y1="661.4414" y2="661.4414"/></g><!--class DynamicToolNamespace--><g class="entity" data-qualified-name="Codex.DynamicToolNamespace" data-source-line="325" id="ent0017"><rect fill="#F1F1F1" height="97.4648" rx="2.5" ry="2.5" style="stroke:#181818;stroke-width:0.5;" width="253.2676" x="353.5" y="370.4883"/><ellipse cx="393.2794" cy="386.4883" fill="#ADD1B2" rx="11" ry="11" style="stroke:#181818;stroke-width:1;"/><path d="M395.7526,392.6313 Q395.1715,392.9302 394.5324,393.0796 Q393.8932,393.229 393.1876,393.229 Q390.6808,393.229 389.361,391.5771 Q388.0412,389.9253 388.0412,386.8042 Q388.0412,383.6748 389.361,382.0229 Q390.6808,380.3711 393.1876,380.3711 Q393.8932,380.3711 394.5407,380.5205 Q395.1881,380.6699 395.7526,380.9688 L395.7526,383.6914 Q395.1217,383.1104 394.5282,382.8406 Q393.9347,382.5708 393.3039,382.5708 Q391.9591,382.5708 391.2743,383.6375 Q390.5895,384.7041 390.5895,386.8042 Q390.5895,388.896 391.2743,389.9626 Q391.9591,391.0293 393.3039,391.0293 Q393.9347,391.0293 394.5282,390.7595 Q395.1217,390.4897 395.7526,389.9087 Z " fill="#000000"/><text fill="#000000" font-family="sans-serif" font-size="14" lengthAdjust="spacing" textLength="166.2021" x="412.786" y="391.7793">DynamicToolNamespace</text><line style="stroke:#181818;stroke-width:0.5;" x1="354.5" x2="605.7676" y1="402.4883" y2="402.4883"/><text fill="#000000" font-family="sans-serif" font-size="14" lengthAdjust="spacing" textLength="96.8447" x="359.5" y="420.0234">+name: string</text><text fill="#000000" font-family="sans-serif" font-size="14" lengthAdjust="spacing" textLength="135.6318" x="359.5" y="436.5117">+description: string</text><text fill="#000000" font-family="sans-serif" font-size="14" lengthAdjust="spacing" textLength="241.2676" x="359.5" y="453">+tools: DynamicToolFunctionSpec[]</text><line style="stroke:#181818;stroke-width:0.5;" x1="354.5" x2="605.7676" y1="459.9531" y2="459.9531"/></g><!--class AppServerToolCallback--><g class="entity" data-qualified-name="Codex.AppServerToolCallback" data-source-line="330" id="ent0018"><rect fill="#F1F1F1" height="64.4883" rx="2.5" ry="2.5" style="stroke:#181818;stroke-width:0.5;" width="333.9248" x="313" y="724.4883"/><ellipse cx="397.3965" cy="740.4883" fill="#B4A7E5" rx="11" ry="11" style="stroke:#181818;stroke-width:1;"/><path d="M393.8242,736.7534 L393.8242,734.5952 L401.2036,734.5952 L401.2036,736.7534 L398.7383,736.7534 L398.7383,744.8301 L401.2036,744.8301 L401.2036,746.9883 L393.8242,746.9883 L393.8242,744.8301 L396.2896,744.8301 L396.2896,736.7534 Z " fill="#000000"/><text fill="#000000" font-family="sans-serif" font-size="14" font-style="italic" lengthAdjust="spacing" textLength="156.6318" x="417.8965" y="745.7793">AppServerToolCallback</text><line style="stroke:#181818;stroke-width:0.5;" x1="314" x2="645.9248" y1="756.4883" y2="756.4883"/><line style="stroke:#181818;stroke-width:0.5;" x1="314" x2="645.9248" y1="764.4883" y2="764.4883"/><text fill="#000000" font-family="sans-serif" font-size="14" lengthAdjust="spacing" textLength="321.9248" x="319" y="782.0234">+handle(item_tool_call): DynamicToolResponse</text></g><g class="link" data-entity-1="ent0002" data-entity-2="ent0003" data-link-type="extension" id="lnk4"><polygon fill="none" points="165.9409,174.0753,157.0196,190.8207,168.8511,192.8244,165.9409,174.0753" style="stroke:#181818;stroke-width:1;stroke-linejoin:miter;stroke-miterlimit:10;"/><path d="M162.9353,191.8226 C160.3675,206.9848 160.5991,205.6171 158.2805,219.3079" fill="none" style="stroke:#181818;stroke-width:1;"/></g><g class="link" data-entity-1="ent0006" data-entity-2="ent0008" data-link-type="extension" id="lnk9"><polygon fill="none" points="606.1028,182.5024,587.4114,185.7631,593.1061,196.3258,606.1028,182.5024" style="stroke:#181818;stroke-width:1;stroke-linejoin:miter;stroke-miterlimit:10;"/><path d="M590.2587,191.0445 C560.8542,206.8973 546.3165,214.735 522.7437,227.4438" fill="none" style="stroke:#181818;stroke-width:1;stroke-dasharray:7,7;"/></g><g class="link" data-entity-1="ent0007" data-entity-2="ent0008" data-link-type="extension" id="lnk10"><polygon fill="none" points="449.346,157.7787,449.3001,176.7523,460.6934,172.9852,449.346,157.7787" style="stroke:#181818;stroke-width:1;stroke-linejoin:miter;stroke-miterlimit:10;"/><path d="M454.9968,174.8687 C462.161,196.5361 465.8879,207.8078 472.3753,227.4282" fill="none" style="stroke:#181818;stroke-width:1;stroke-dasharray:7,7;"/></g><g class="link" data-entity-1="ent0012" data-entity-2="ent0013" data-link-type="dependency" id="lnk14"><polygon fill="#181818" points="155.3167,580.2766,157.8314,570.7542,154.52,575.3405,149.9336,572.029,155.3167,580.2766" style="stroke:#181818;stroke-width:1;stroke-linejoin:miter;stroke-miterlimit:10;"/><path d="M148.8271,500.628 C148.7989,512.9835 149.12,525.5833 150,537.4883 C151.0436,551.6071 152.396,562.1822 154.52,575.3405" fill="none" style="stroke:#181818;stroke-width:1;stroke-dasharray:7,7;"/><text fill="#000000" font-family="sans-serif" font-size="13" lengthAdjust="spacing" textLength="147.418" x="152" y="533.0566">tool_use routed to host</text></g><g class="link" data-entity-1="ent0017" data-entity-2="ent0016" data-link-type="aggregation" id="lnk19"><polygon fill="none" points="480,467.8178,476,473.8178,480,479.8178,484,473.8178,480,467.8178" style="stroke:#181818;stroke-width:1;stroke-linejoin:miter;stroke-miterlimit:10;"/><path d="M480,479.8178 C480,506.4058 480,527.6357 480,555.4387" fill="none" style="stroke:#181818;stroke-width:1;"/></g><g class="link" data-entity-1="ent0016" data-entity-2="ent0018" data-link-type="dependency" id="lnk20"><polygon fill="#181818" points="480,724.2819,484,715.2819,480,719.2819,476,715.2819,480,724.2819" style="stroke:#181818;stroke-width:1;stroke-linejoin:miter;stroke-miterlimit:10;"/><path d="M480,669.6104 C480,688.2158 480,703.2483 480,719.2819" fill="none" style="stroke:#181818;stroke-width:1;stroke-dasharray:7,7;"/><text fill="#000000" font-family="sans-serif" font-size="13" lengthAdjust="spacing" textLength="151.3853" x="482" y="702.0566">invocation sent to client</text></g><?plantuml-src hLNRRkCs47ttLqptfLaqikLRB1kB06dI5blijaNSFWL1G9DZYmr52YILnEtkltT8MOriomjqqHV1vbnuvfoPuJUbPPk2WM9RKtbm1NgcMUzRM9hASWHyaW8rnmLm9JK2DqKXFV3fnIITJ4Ks74zvoeTyF4vNew6Op5ONsMescGzd72-6atDmud5GClx8DkW6BcSMnS1PFg3_slUzWwlmutTZr0skfPPU6WrCYzVpVXUQZJMFoQgIIZIGCYRMytGuPkbyDCSfdwq93cQJ-MG-4gDnDil6CpRAn3cyC9d4U4_P7OJlGwXRCC_wriNRWqym9BRINXOOlSZO2UPA-zoQKdBuIEHjS0U-JatvFEJUbsun69IA-RMnHPyhLWdi4_Q1CDmDK0-AEZQ9pBX1Z3q7nZawHob7wUWYIMV9SDQ9WHk1BmqNu-5qE9zIuJnBru8976SO91bcw_aqc-1QJEVpSKhonB34ka5fZJVSg2YEs6fMIFuGCGHARkg38CUFbUP1f6M9F23vTUNGFX705URiIHgxWElOAe76duXcSAKYJ0t3iBQcW1sjv_2SIuKj1gz-UnyZhsCzbfgIcewfg1Cmo8tpuTORT7AZmI9pHY_0vUOPV4vCiy11gN0NnbQgrWwSbqg1HXH1OS0Nv9KtbYX4JIZeutC4WOvRMGQ3T22rm1Bfe-Eb7-AG94QhBUHIq35GfOyEEE6W2nduPvCGYLMXgKEbY9LmPkqMj0cv0sQ7fBINd7h9Iq_mbbWoI_7YbQCG5qgDDQneVA0WFfJhULC68bR6Us9HI8jHZ9vxb3faAMXEcNDNtbkv8kxUSr9A_eMGjbne38Lvbde3QwOSjYpXAXgDIejheuW3KiUtxRj9NlejuGvtCxrHRGTDC1sMC9ws3YqZakXmalPwkmpm9ZR96_Yx1pNakckwja5m0VYEEf3wt55XUbEVD6B9s08j0rrS-INFYUa5_4mTKlycu-SJrpMNr6s1Pp5360_jySM_NK1mkaLNAR_BSXBkkqz9Sc3jVMuL7cVY-x2wwkebNM7NZAOvM8BxnwODMfMVlJseNT9OiUqlNQPNMWvDKG-Q3LiJ4in7zEpZkQq7zUiugfc-nOrqb1D5Ko2PZcfzzwdVF-tQXd7AiqtoyKBPNytjnllNbqJR2NPDDLd6VLEotvPXnrOkJDtTVghxhslF1zVLdsGDdjmlQCQDGjfKTsc_FxnlKgxHFYZ312NhTgcJumiBMz0jmAp-f3czktzrsXVveFeVchsugpmdxXIUXHNwXyCkaRz4Nxz_UVA2HVtoLWxhDI_2OWjBRq_8-0wqrJhn5FslMw9X-iC1qNjjtG8Ifj2LWSt_ZYA-iOjJPTrr25QMo_3YsiXqypxioqLRkuYlzqDuGDxkfIVnIgDfxTU9EyimjC9E8DeFsPCWgjs9Ra7udmndSK4wweAWDO_z4DG-kKkJk_gTlRToa_laycXj78I-1j03fvFBBpLdxtY578LtaTCxrT17O3kv-0S0?></g></svg>