<svg xmlns="http://www.w3.org/2000/svg" xmlns:xlink="http://www.w3.org/1999/xlink" contentStyleType="text/css" data-diagram-type="DESCRIPTION" height="194px" preserveAspectRatio="none" style="width:1733px;height:194px;" version="1.1" viewBox="0 0 1733 194" width="1733px" zoomAndPan="magnify"><?plantuml 1.2026.6?><defs/><g><g class="title" data-source-line="12"><text fill="#000000" font-family="'PingFang SC'" font-size="22" font-weight="700" lengthAdjust="spacing" textLength="315.91" x="707.545" y="38.32">Extension Command &#35774;&#35745;&#30446;&#26631;</text></g><!--cluster ?????--><g class="cluster" data-qualified-name="....." data-source-line="15" id="ent0002"><path d="M21.5,108.8 L92.5,108.8 A3.75,3.75 0 0 1 95,111.3 L102,134.4 L537.5,134.4 A2.5,2.5 0 0 1 540,136.9 L540,184.3 A2.5,2.5 0 0 1 537.5,186.8 L21.5,186.8 A2.5,2.5 0 0 1 19,184.3 L19,111.3 A2.5,2.5 0 0 1 21.5,108.8" fill="#FFFFFF" style="stroke:#000000;stroke-width:1;"/><line style="stroke:#000000;stroke-width:1;" x1="19" x2="102" y1="134.4" y2="134.4"/><text fill="#000000" font-family="'PingFang SC'" font-size="14" font-weight="700" lengthAdjust="spacing" textLength="70" x="23" y="125.64">&#24320;&#21457;&#32773;&#20307;&#39564;</text></g><!--cluster ?????--><g class="cluster" data-qualified-name="....." data-source-line="21" id="ent0007"><path d="M550.5,108.8 L621.5,108.8 A3.75,3.75 0 0 1 624,111.3 L631,134.4 L905.5,134.4 A2.5,2.5 0 0 1 908,136.9 L908,184.3 A2.5,2.5 0 0 1 905.5,186.8 L550.5,186.8 A2.5,2.5 0 0 1 548,184.3 L548,111.3 A2.5,2.5 0 0 1 550.5,108.8" fill="#FFFFFF" style="stroke:#000000;stroke-width:1;"/><line style="stroke:#000000;stroke-width:1;" x1="548" x2="631" y1="134.4" y2="134.4"/><text fill="#000000" font-family="'PingFang SC'" font-size="14" font-weight="700" lengthAdjust="spacing" textLength="70" x="552" y="125.64">&#36816;&#34892;&#26102;&#27835;&#29702;</text></g><!--cluster ????--><g class="cluster" data-qualified-name="...." data-source-line="27" id="ent0012"><path d="M918.5,108.8 L975.5,108.8 A3.75,3.75 0 0 1 978,111.3 L985,134.4 L1315.5,134.4 A2.5,2.5 0 0 1 1318,136.9 L1318,184.3 A2.5,2.5 0 0 1 1315.5,186.8 L918.5,186.8 A2.5,2.5 0 0 1 916,184.3 L916,111.3 A2.5,2.5 0 0 1 918.5,108.8" fill="#FFFFFF" style="stroke:#000000;stroke-width:1;"/><line style="stroke:#000000;stroke-width:1;" x1="916" x2="985" y1="134.4" y2="134.4"/><text fill="#000000" font-family="'PingFang SC'" font-size="14" font-weight="700" lengthAdjust="spacing" textLength="56" x="920" y="125.64">&#29992;&#25143;&#20307;&#39564;</text></g><!--cluster ?????--><g class="cluster" data-qualified-name="....." data-source-line="33" id="ent0017"><path d="M1328.5,108.8 L1399.5,108.8 A3.75,3.75 0 0 1 1402,111.3 L1409,134.4 L1722.5,134.4 A2.5,2.5 0 0 1 1725,136.9 L1725,184.3 A2.5,2.5 0 0 1 1722.5,186.8 L1328.5,186.8 A2.5,2.5 0 0 1 1326,184.3 L1326,111.3 A2.5,2.5 0 0 1 1328.5,108.8" fill="#FFFFFF" style="stroke:#000000;stroke-width:1;"/><line style="stroke:#000000;stroke-width:1;" x1="1326" x2="1409" y1="134.4" y2="134.4"/><text fill="#000000" font-family="'PingFang SC'" font-size="14" font-weight="700" lengthAdjust="spacing" textLength="70" x="1330" y="125.64">&#26550;&#26500;&#19968;&#33268;&#24615;</text></g><!--entity Root--><g class="entity" data-qualified-name="Root" data-source-line="14" id="ent0001"><rect fill="#FFFFFF" height="39.6" rx="2.5" ry="2.5" style="stroke:#000000;stroke-width:1;" width="154.3259" x="792" y="60.8"/><text fill="#000000" font-family="'PingFang SC'" font-size="14" lengthAdjust="spacing" textLength="134.3259" x="802" y="85.64">Extension Command</text></g><!--entity registerCommand--><g class="entity" data-qualified-name="......registerCommand" data-source-line="16" id="ent0003"><rect fill="#FFFFFF" height="39.6" rx="2.5" ry="2.5" style="stroke:#000000;stroke-width:1;" width="135.9859" x="396" y="138.8"/><text fill="#000000" font-family="'PingFang SC'" font-size="14" lengthAdjust="spacing" textLength="115.9859" x="406" y="163.64">registerCommand</text></g><!--entity ????--><g class="entity" data-qualified-name=".........." data-source-line="17" id="ent0004"><rect fill="#FFFFFF" height="39.6" rx="2.5" ry="2.5" style="stroke:#000000;stroke-width:1;" width="76" x="302" y="138.8"/><text fill="#000000" font-family="'PingFang SC'" font-size="14" lengthAdjust="spacing" textLength="56" x="312" y="163.64">&#21442;&#25968;&#34917;&#20840;</text></g><!--entity AsyncHandler--><g class="entity" data-qualified-name="......AsyncHandler" data-source-line="18" id="ent0005"><rect fill="#FFFFFF" height="39.6" rx="2.5" ry="2.5" style="stroke:#000000;stroke-width:1;" width="102.8408" x="180.5" y="138.8"/><text fill="#000000" font-family="'PingFang SC'" font-size="14" lengthAdjust="spacing" textLength="82.8408" x="190.5" y="163.64">&#24322;&#27493; Handler</text></g><!--entity NoSourceInfo--><g class="entity" data-qualified-name="......NoSourceInfo" data-source-line="19" id="ent0006"><rect fill="#FFFFFF" height="39.6" rx="2.5" ry="2.5" style="stroke:#000000;stroke-width:1;" width="134.9849" x="27.5" y="138.8"/><text fill="#000000" font-family="'PingFang SC'" font-size="14" lengthAdjust="spacing" textLength="114.9849" x="37.5" y="163.64">&#19981;&#25552;&#20379; sourceInfo</text></g><!--entity ???--><g class="entity" data-qualified-name="........." data-source-line="22" id="ent0008"><rect fill="#FFFFFF" height="39.6" rx="2.5" ry="2.5" style="stroke:#000000;stroke-width:1;" width="62" x="838" y="138.8"/><text fill="#000000" font-family="'PingFang SC'" font-size="14" lengthAdjust="spacing" textLength="42" x="848" y="163.64">&#25152;&#26377;&#26435;</text></g><!--entity ????--><g class="entity" data-qualified-name=".........." data-source-line="23" id="ent0009"><rect fill="#FFFFFF" height="39.6" rx="2.5" ry="2.5" style="stroke:#000000;stroke-width:1;" width="76" x="744" y="138.8"/><text fill="#000000" font-family="'PingFang SC'" font-size="14" lengthAdjust="spacing" textLength="56" x="754" y="163.64">&#20914;&#31361;&#26816;&#27979;</text></g><!--entity ????--><g class="entity" data-qualified-name=".........." data-source-line="24" id="ent0010"><rect fill="#FFFFFF" height="39.6" rx="2.5" ry="2.5" style="stroke:#000000;stroke-width:1;" width="76" x="650" y="138.8"/><text fill="#000000" font-family="'PingFang SC'" font-size="14" lengthAdjust="spacing" textLength="56" x="660" y="163.64">&#21407;&#23376;&#27880;&#20876;</text></g><!--entity ????--><g class="entity" data-qualified-name=".........." data-source-line="25" id="ent0011"><rect fill="#FFFFFF" height="39.6" rx="2.5" ry="2.5" style="stroke:#000000;stroke-width:1;" width="76" x="556" y="138.8"/><text fill="#000000" font-family="'PingFang SC'" font-size="14" lengthAdjust="spacing" textLength="56" x="566" y="163.64">&#21368;&#36733;&#28165;&#29702;</text></g><!--entity ????--><g class="entity" data-qualified-name="........." data-source-line="28" id="ent0013"><rect fill="#FFFFFF" height="39.6" rx="2.5" ry="2.5" style="stroke:#000000;stroke-width:1;" width="76" x="1234" y="138.8"/><text fill="#000000" font-family="'PingFang SC'" font-size="14" lengthAdjust="spacing" textLength="56" x="1244" y="163.64">&#32479;&#19968;&#24110;&#21161;</text></g><!--entity ????--><g class="entity" data-qualified-name="........." data-source-line="29" id="ent0014"><rect fill="#FFFFFF" height="39.6" rx="2.5" ry="2.5" style="stroke:#000000;stroke-width:1;" width="76" x="1140" y="138.8"/><text fill="#000000" font-family="'PingFang SC'" font-size="14" lengthAdjust="spacing" textLength="56" x="1150" y="163.64">&#21517;&#31216;&#34917;&#20840;</text></g><!--entity ??????--><g class="entity" data-qualified-name="..........." data-source-line="30" id="ent0015"><rect fill="#FFFFFF" height="39.6" rx="2.5" ry="2.5" style="stroke:#000000;stroke-width:1;" width="104" x="1018" y="138.8"/><text fill="#000000" font-family="'PingFang SC'" font-size="14" lengthAdjust="spacing" textLength="84" x="1028" y="163.64">&#21442;&#25968;&#34917;&#20840;&#20307;&#39564;</text></g><!--entity ????--><g class="entity" data-qualified-name="........." data-source-line="31" id="ent0016"><rect fill="#FFFFFF" height="39.6" rx="2.5" ry="2.5" style="stroke:#000000;stroke-width:1;" width="76" x="924" y="138.8"/><text fill="#000000" font-family="'PingFang SC'" font-size="14" lengthAdjust="spacing" textLength="56" x="934" y="163.64">&#38169;&#35823;&#38548;&#31163;</text></g><!--entity ???????--><g class="entity" data-qualified-name="............." data-source-line="34" id="ent0018"><rect fill="#FFFFFF" height="39.6" rx="2.5" ry="2.5" style="stroke:#000000;stroke-width:1;" width="118" x="1599" y="138.8"/><text fill="#000000" font-family="'PingFang SC'" font-size="14" lengthAdjust="spacing" textLength="98" x="1609" y="163.64">&#20869;&#32622;&#19982;&#25193;&#23637;&#32479;&#19968;</text></g><!--entity SingleDispatcher--><g class="entity" data-qualified-name="......SingleDispatcher" data-source-line="35" id="ent0019"><rect fill="#FFFFFF" height="39.6" rx="2.5" ry="2.5" style="stroke:#000000;stroke-width:1;" width="122.6187" x="1457.5" y="138.8"/><text fill="#000000" font-family="'PingFang SC'" font-size="14" lengthAdjust="spacing" textLength="102.6187" x="1467.5" y="163.64">&#21333;&#19968; Dispatcher</text></g><!--entity ????RPC--><g class="entity" data-qualified-name="..........RPC" data-source-line="36" id="ent0020"><rect fill="#FFFFFF" height="39.6" rx="2.5" ry="2.5" style="stroke:#000000;stroke-width:1;" width="104.6678" x="1334.5" y="138.8"/><text fill="#000000" font-family="'PingFang SC'" font-size="14" lengthAdjust="spacing" textLength="84.6678" x="1344.5" y="163.64">&#21518;&#32493;&#25903;&#25345;RPC</text></g><g class="link" data-entity-1="ent0001" data-entity-2="ent0003" data-link-type="dependency" id="lnk21"><polygon fill="#000000" points="488.438,138.6594,498.0917,136.7087,492.5143,135.7639,493.4591,130.1865,488.438,138.6594" style="stroke:#000000;stroke-width:1;stroke-linejoin:miter;stroke-miterlimit:10;"/><path d="M791.8251,84.1032 C710.5729,87.2567 588.3938,94.2742 544,108.8 C523.8766,115.3844 507.6375,125.0219 492.5143,135.7639" fill="none" style="stroke:#000000;stroke-width:1;"/></g><g class="link" data-entity-1="ent0001" data-entity-2="ent0004" data-link-type="dependency" id="lnk22"><polygon fill="#000000" points="352.8315,138.5278,361.5017,133.8556,355.8904,134.5726,355.1735,128.9614,352.8315,138.5278" style="stroke:#000000;stroke-width:1;stroke-linejoin:miter;stroke-miterlimit:10;"/><path d="M791.8578,83.0338 C664.9887,85.5215 422.7162,92.3725 387,108.8 C373.078,115.2033 364.2344,123.784 355.8904,134.5726" fill="none" style="stroke:#000000;stroke-width:1;"/></g><g class="link" data-entity-1="ent0001" data-entity-2="ent0005" data-link-type="dependency" id="lnk23"><polygon fill="#000000" points="249.524,138.6662,258.7735,135.2829,253.1174,135.1895,253.2108,129.5334,249.524,138.6662" style="stroke:#000000;stroke-width:1;stroke-linejoin:miter;stroke-miterlimit:10;"/><path d="M791.9998,82.7599 C645.7807,84.9703 338.4102,91.6147 293,108.8 C276.3571,115.0985 264.3673,124.3051 253.1174,135.1895" fill="none" style="stroke:#000000;stroke-width:1;"/></g><g class="link" data-entity-1="ent0001" data-entity-2="ent0006" data-link-type="dependency" id="lnk24"><polygon fill="#000000" points="117.9751,138.5873,127.5723,136.3753,121.9713,135.5823,122.7643,129.9813,117.9751,138.5873" style="stroke:#000000;stroke-width:1;stroke-linejoin:miter;stroke-miterlimit:10;"/><path d="M791.8309,82.5194 C622.7006,84.4232 229.7956,90.7491 172,108.8 C152.1866,114.9882 136.4842,124.6691 121.9713,135.5823" fill="none" style="stroke:#000000;stroke-width:1;"/></g><g class="link" data-entity-1="ent0001" data-entity-2="ent0008" data-link-type="dependency" id="lnk25"><polygon fill="#000000" points="869,138.6281,873,129.6281,869,133.6281,865,129.6281,869,138.6281" style="stroke:#000000;stroke-width:1;stroke-linejoin:miter;stroke-miterlimit:10;"/><path d="M869,100.978 C869,112.499 869,122.1082 869,133.6281" fill="none" style="stroke:#000000;stroke-width:1;"/></g><g class="link" data-entity-1="ent0001" data-entity-2="ent0009" data-link-type="dependency" id="lnk26"><polygon fill="#000000" points="798.5401,138.7215,807.5598,134.7662,801.909,135.0268,801.6484,129.376,798.5401,138.7215" style="stroke:#000000;stroke-width:1;stroke-linejoin:miter;stroke-miterlimit:10;"/><path d="M839.2058,100.87 C835.6825,103.4268 832.2041,106.1013 829,108.8 C818.1811,117.9125 810.5466,125.5539 801.909,135.0268" fill="none" style="stroke:#000000;stroke-width:1;"/></g><g class="link" data-entity-1="ent0001" data-entity-2="ent0010" data-link-type="dependency" id="lnk27"><polygon fill="#000000" points="701.5829,138.7504,710.3542,134.2711,704.7285,134.8638,704.1358,129.2381,701.5829,138.7504" style="stroke:#000000;stroke-width:1;stroke-linejoin:miter;stroke-miterlimit:10;"/><path d="M791.7731,89.1283 C772.4163,93.1396 752.2619,99.313 735,108.8 C721.7772,116.0671 713.1728,124.4306 704.7285,134.8638" fill="none" style="stroke:#000000;stroke-width:1;"/></g><g class="link" data-entity-1="ent0001" data-entity-2="ent0011" data-link-type="dependency" id="lnk28"><polygon fill="#000000" points="607.3704,138.3446,616.0948,133.7744,610.4755,134.4256,609.8243,128.8063,607.3704,138.3446" style="stroke:#000000;stroke-width:1;stroke-linejoin:miter;stroke-miterlimit:10;"/><path d="M791.8797,85.3792 C736.3384,88.9904 666.8236,95.9397 641,108.8 C627.4939,115.5261 618.849,123.8571 610.4755,134.4256" fill="none" style="stroke:#000000;stroke-width:1;"/></g><g class="link" data-entity-1="ent0001" data-entity-2="ent0013" data-link-type="dependency" id="lnk29"><polygon fill="#000000" points="1259.122,138.6274,1256.7558,129.067,1256.0531,134.6801,1250.4401,133.9773,1259.122,138.6274" style="stroke:#000000;stroke-width:1;stroke-linejoin:miter;stroke-miterlimit:10;"/><path d="M946.0088,81.2786 C1035.5835,81.772 1177.2842,86.2802 1225,108.8 C1238.8581,115.3404 1247.6927,123.9267 1256.0531,134.6801" fill="none" style="stroke:#000000;stroke-width:1;"/></g><g class="link" data-entity-1="ent0001" data-entity-2="ent0014" data-link-type="dependency" id="lnk30"><polygon fill="#000000" points="1165.057,138.7629,1162.6572,129.2109,1161.9742,134.8263,1156.3587,134.1433,1165.057,138.7629" style="stroke:#000000;stroke-width:1;stroke-linejoin:miter;stroke-miterlimit:10;"/><path d="M946.2059,83.9098 C1011.5516,86.7557 1099.4668,93.3939 1131,108.8 C1144.7686,115.5269 1153.5907,124.121 1161.9742,134.8263" fill="none" style="stroke:#000000;stroke-width:1;"/></g><g class="link" data-entity-1="ent0001" data-entity-2="ent0015" data-link-type="dependency" id="lnk31"><polygon fill="#000000" points="1051.3336,138.7792,1047.4282,129.7377,1047.6576,135.3899,1042.0054,135.6193,1051.3336,138.7792" style="stroke:#000000;stroke-width:1;stroke-linejoin:miter;stroke-miterlimit:10;"/><path d="M946.2964,89.8035 C967.2866,93.8041 989.57,99.8035 1009,108.8 C1024.7781,116.1056 1036.3521,124.9663 1047.6576,135.3899" fill="none" style="stroke:#000000;stroke-width:1;"/></g><g class="link" data-entity-1="ent0001" data-entity-2="ent0016" data-link-type="dependency" id="lnk32"><polygon fill="#000000" points="944.3538,138.655,940.9603,129.4093,940.8732,135.0654,935.217,134.9783,944.3538,138.655" style="stroke:#000000;stroke-width:1;stroke-linejoin:miter;stroke-miterlimit:10;"/><path d="M900.9982,100.8092 C904.791,103.3764 908.5398,106.07 912,108.8 C923.4501,117.834 931.6714,125.5756 940.8732,135.0654" fill="none" style="stroke:#000000;stroke-width:1;"/></g><g class="link" data-entity-1="ent0001" data-entity-2="ent0018" data-link-type="dependency" id="lnk33"><polygon fill="#000000" points="1638.0897,138.5911,1633.8776,129.6884,1634.3,135.3295,1628.659,135.7518,1638.0897,138.5911" style="stroke:#000000;stroke-width:1;stroke-linejoin:miter;stroke-miterlimit:10;"/><path d="M946.2963,82.1713 C1119.9461,83.3676 1530.4713,88.3487 1590,108.8 C1608.0279,114.9936 1621.622,124.4177 1634.3,135.3295" fill="none" style="stroke:#000000;stroke-width:1;"/></g><g class="link" data-entity-1="ent0001" data-entity-2="ent0019" data-link-type="dependency" id="lnk34"><polygon fill="#000000" points="1498.386,138.6471,1494.0246,129.8166,1494.542,135.4497,1488.9088,135.967,1498.386,138.6471" style="stroke:#000000;stroke-width:1;stroke-linejoin:miter;stroke-miterlimit:10;"/><path d="M946.1544,83.0024 C1093.1054,85.6422 1402.6967,93.0112 1449,108.8 C1467.3931,115.0718 1481.4479,124.5584 1494.542,135.4497" fill="none" style="stroke:#000000;stroke-width:1;"/></g><g class="link" data-entity-1="ent0001" data-entity-2="ent0020" data-link-type="dependency" id="lnk35"><polygon fill="#000000" points="1368.0685,138.7358,1364.0486,129.7446,1364.3498,135.3935,1358.7009,135.6946,1368.0685,138.7358" style="stroke:#000000;stroke-width:1;stroke-linejoin:miter;stroke-miterlimit:10;"/><path d="M946.0922,81.051 C1056.8917,80.8788 1255.1818,84.2014 1322,108.8 C1339.373,115.1957 1352.2677,124.5345 1364.3498,135.3935" fill="none" style="stroke:#000000;stroke-width:1;"/></g><?plantuml-src bL9TJnD157tVNt7j2oyjfJ6Ay612YaHU285VC6odouRjJ3CpgrPZKj22Q0irbXX5GMAGZuIYgDYa5lzCTtRv5qvBtO_I5zzspxdtt3Ftt278cy2fpNGy3dcaBo43ywHECoOn4kgRY2HdkW8OJk970XDkKiAJef37V5ZmyTJ8s6WYbHePZQTIesFQq7_8TNyJ7FEEP5ShTVEEqhfzIybCOcuQ11X6d99neCn0n7oCGInYoDiBbgd3nEnq79XDX9d3OD07c154T1m7csC66PFh7QmG1qGoO1CpQ-9C1yuZeI-g1cJnOUs64bJjUGkPHBkHPyZ88R1GWTe2U0uBH936bqoIHmpb88EpoBR452LY1gcssAnwrnGY1iodOw4wleWozA7Y8Akcu12pe7PYC6gJJ9fQb85WY2X7JAr24wQmCDpxjsL8qrokuzshNtZrFNUxBZ-jQHh3kd9bgChOjT8O80vpb0gjjtk8ER-BpkPhhrXgjzvS7fTZy4G323GODamkCEi9H3XdSqLkVVNszftIOOHGeYloP1_kgmuBi-xK2LuWUW-85hSR5RbPRLzizmvZccHfjsM6plk0zZImxFsfUdjb-VPSdZNTwcg_PRbUb1_MvSTdKREhP-xnilnSb3zVHOcDNUUaAhyVEglbA55fUAsMR9JKZF1ujtOeN_mQl2wtkTjk59r6tNbv51MhLjo3GRiAB_5ACq9VrjvvfwUNxslkbsROXDmvbplFrInlxOSi7lJxS5PBRglURcp8zIFdszQLhRwCAbiAWydUmVTYcZSxR03sFMB3RPx8sgaiBy_DffKVhNDCa4ZSlNOeFX6v4X-Dd8EFHXBtqI3GG3ISPe26empGS8u-6aagg0t7DF09lOnyBX9GoD-W_VlqjIs734HM_1S0?></g></svg>