<svg xmlns="http://www.w3.org/2000/svg" xmlns:xlink="http://www.w3.org/1999/xlink" contentStyleType="text/css" data-diagram-type="DESCRIPTION" height="179px" preserveAspectRatio="none" style="width:2603px;height:179px;" version="1.1" viewBox="0 0 2603 179" width="2603px" zoomAndPan="magnify"><?plantuml 1.2026.6?><defs/><g><g class="title" data-source-line="12"><text fill="#000000" font-family="'sans-serif'" font-size="22" font-weight="700" lengthAdjust="spacing" textLength="388.5342" x="1106.2329" y="36.2695">Extension Command Design Goals</text></g><!--cluster Developer Experience--><g class="cluster" data-qualified-name="Developer Experience" data-source-line="15" id="ent0002"><path d="M21.5,100.9102 L178.3936,100.9102 A3.75,3.75 0 0 1 180.8936,103.4102 L187.8936,123.3984 L702.5,123.3984 A2.5,2.5 0 0 1 705,125.8984 L705,169.4102 A2.5,2.5 0 0 1 702.5,171.9102 L21.5,171.9102 A2.5,2.5 0 0 1 19,169.4102 L19,103.4102 A2.5,2.5 0 0 1 21.5,100.9102" fill="#FFFFFF" style="stroke:#000000;stroke-width:1;"/><line style="stroke:#000000;stroke-width:1;" x1="19" x2="187.8936" y1="123.3984" y2="123.3984"/><text fill="#000000" font-family="'sans-serif'" font-size="14" font-weight="700" lengthAdjust="spacing" textLength="155.8936" x="23" y="116.4453">Developer Experience</text></g><!--cluster Runtime Governance--><g class="cluster" data-qualified-name="Runtime Governance" data-source-line="21" id="ent0007"><path d="M715.5,100.9102 L865.6943,100.9102 A3.75,3.75 0 0 1 868.1943,103.4102 L875.1943,123.3984 L1298.5,123.3984 A2.5,2.5 0 0 1 1301,125.8984 L1301,169.4102 A2.5,2.5 0 0 1 1298.5,171.9102 L715.5,171.9102 A2.5,2.5 0 0 1 713,169.4102 L713,103.4102 A2.5,2.5 0 0 1 715.5,100.9102" fill="#FFFFFF" style="stroke:#000000;stroke-width:1;"/><line style="stroke:#000000;stroke-width:1;" x1="713" x2="875.1943" y1="123.3984" y2="123.3984"/><text fill="#000000" font-family="'sans-serif'" font-size="14" font-weight="700" lengthAdjust="spacing" textLength="149.1943" x="717" y="116.4453">Runtime Governance</text></g><!--cluster User Experience--><g class="cluster" data-qualified-name="User Experience" data-source-line="27" id="ent0012"><path d="M1311.5,100.9102 L1428.0342,100.9102 A3.75,3.75 0 0 1 1430.5342,103.4102 L1437.5342,123.3984 L2018.5,123.3984 A2.5,2.5 0 0 1 2021,125.8984 L2021,169.4102 A2.5,2.5 0 0 1 2018.5,171.9102 L1311.5,171.9102 A2.5,2.5 0 0 1 1309,169.4102 L1309,103.4102 A2.5,2.5 0 0 1 1311.5,100.9102" fill="#FFFFFF" style="stroke:#000000;stroke-width:1;"/><line style="stroke:#000000;stroke-width:1;" x1="1309" x2="1437.5342" y1="123.3984" y2="123.3984"/><text fill="#000000" font-family="'sans-serif'" font-size="14" font-weight="700" lengthAdjust="spacing" textLength="115.5342" x="1313" y="116.4453">User Experience</text></g><!--cluster Architecture Alignment--><g class="cluster" data-qualified-name="Architecture Alignment" data-source-line="33" id="ent0017"><path d="M2031.5,100.9102 L2200.2402,100.9102 A3.75,3.75 0 0 1 2202.7402,103.4102 L2209.7402,123.3984 L2592.5,123.3984 A2.5,2.5 0 0 1 2595,125.8984 L2595,169.4102 A2.5,2.5 0 0 1 2592.5,171.9102 L2031.5,171.9102 A2.5,2.5 0 0 1 2029,169.4102 L2029,103.4102 A2.5,2.5 0 0 1 2031.5,100.9102" fill="#FFFFFF" style="stroke:#000000;stroke-width:1;"/><line style="stroke:#000000;stroke-width:1;" x1="2029" x2="2209.7402" y1="123.3984" y2="123.3984"/><text fill="#000000" font-family="'sans-serif'" font-size="14" font-weight="700" lengthAdjust="spacing" textLength="167.7402" x="2033" y="116.4453">Architecture Alignment</text></g><!--entity Root--><g class="entity" data-qualified-name="Root" data-source-line="14" id="ent0001"><rect fill="#FFFFFF" height="36.4883" rx="2.5" ry="2.5" style="stroke:#000000;stroke-width:1;" width="160.458" x="1166" y="55.9102"/><text fill="#000000" font-family="'sans-serif'" font-size="14" lengthAdjust="spacing" textLength="140.458" x="1176" y="79.4453">Extension Command</text></g><!--entity registerCommand--><g class="entity" data-qualified-name="Developer Experience.registerCommand" data-source-line="16" id="ent0003"><rect fill="#FFFFFF" height="36.4883" rx="2.5" ry="2.5" style="stroke:#000000;stroke-width:1;" width="141.8643" x="555" y="127.9102"/><text fill="#000000" font-family="'sans-serif'" font-size="14" lengthAdjust="spacing" textLength="121.8643" x="565" y="151.4453">registerCommand</text></g><!--entity ArgumentCompletion--><g class="entity" data-qualified-name="Developer Experience.ArgumentCompletion" data-source-line="17" id="ent0004"><rect fill="#FFFFFF" height="36.4883" rx="2.5" ry="2.5" style="stroke:#000000;stroke-width:1;" width="170.6162" x="365.5" y="127.9102"/><text fill="#000000" font-family="'sans-serif'" font-size="14" lengthAdjust="spacing" textLength="150.6162" x="375.5" y="151.4453">Argument Completion</text></g><!--entity AsyncHandler--><g class="entity" data-qualified-name="Developer Experience.AsyncHandler" data-source-line="18" id="ent0005"><rect fill="#FFFFFF" height="36.4883" rx="2.5" ry="2.5" style="stroke:#000000;stroke-width:1;" width="117.4941" x="230.5" y="127.9102"/><text fill="#000000" font-family="'sans-serif'" font-size="14" lengthAdjust="spacing" textLength="97.4941" x="240.5" y="151.4453">Async Handler</text></g><!--entity NoSourceInfo--><g class="entity" data-qualified-name="Developer Experience.NoSourceInfo" data-source-line="19" id="ent0006"><rect fill="#FFFFFF" height="36.4883" rx="2.5" ry="2.5" style="stroke:#000000;stroke-width:1;" width="185.1699" x="27.5" y="127.9102"/><text fill="#000000" font-family="'sans-serif'" font-size="14" lengthAdjust="spacing" textLength="165.1699" x="37.5" y="151.4453">sourceInfo Not Required</text></g><!--entity Ownership--><g class="entity" data-qualified-name="Runtime Governance.Ownership" data-source-line="22" id="ent0008"><rect fill="#FFFFFF" height="36.4883" rx="2.5" ry="2.5" style="stroke:#000000;stroke-width:1;" width="92.5635" x="1199.5" y="127.9102"/><text fill="#000000" font-family="'sans-serif'" font-size="14" lengthAdjust="spacing" textLength="72.5635" x="1209.5" y="151.4453">Ownership</text></g><!--entity ConflictDetection--><g class="entity" data-qualified-name="Runtime Governance.ConflictDetection" data-source-line="23" id="ent0009"><rect fill="#FFFFFF" height="36.4883" rx="2.5" ry="2.5" style="stroke:#000000;stroke-width:1;" width="142.1172" x="1039" y="127.9102"/><text fill="#000000" font-family="'sans-serif'" font-size="14" lengthAdjust="spacing" textLength="122.1172" x="1049" y="151.4453">Conflict Detection</text></g><!--entity AtomicRegistration--><g class="entity" data-qualified-name="Runtime Governance.AtomicRegistration" data-source-line="24" id="ent0010"><rect fill="#FFFFFF" height="36.4883" rx="2.5" ry="2.5" style="stroke:#000000;stroke-width:1;" width="154.0459" x="867" y="127.9102"/><text fill="#000000" font-family="'sans-serif'" font-size="14" lengthAdjust="spacing" textLength="134.0459" x="877" y="151.4453">Atomic Registration</text></g><!--entity UnloadCleanup--><g class="entity" data-qualified-name="Runtime Governance.UnloadCleanup" data-source-line="25" id="ent0011"><rect fill="#FFFFFF" height="36.4883" rx="2.5" ry="2.5" style="stroke:#000000;stroke-width:1;" width="127.4609" x="721.5" y="127.9102"/><text fill="#000000" font-family="'sans-serif'" font-size="14" lengthAdjust="spacing" textLength="107.4609" x="731.5" y="151.4453">Unload Cleanup</text></g><!--entity UnifiedHelp--><g class="entity" data-qualified-name="User Experience.UnifiedHelp" data-source-line="28" id="ent0013"><rect fill="#FFFFFF" height="36.4883" rx="2.5" ry="2.5" style="stroke:#000000;stroke-width:1;" width="103.6172" x="1909" y="127.9102"/><text fill="#000000" font-family="'sans-serif'" font-size="14" lengthAdjust="spacing" textLength="83.6172" x="1919" y="151.4453">Unified Help</text></g><!--entity NameCompletion--><g class="entity" data-qualified-name="User Experience.NameCompletion" data-source-line="29" id="ent0014"><rect fill="#FFFFFF" height="36.4883" rx="2.5" ry="2.5" style="stroke:#000000;stroke-width:1;" width="216.0479" x="1675" y="127.9102"/><text fill="#000000" font-family="'sans-serif'" font-size="14" lengthAdjust="spacing" textLength="196.0479" x="1685" y="151.4453">Command Name Completion</text></g><!--entity ArgumentCompletionUx--><g class="entity" data-qualified-name="User Experience.ArgumentCompletionUx" data-source-line="30" id="ent0015"><rect fill="#FFFFFF" height="36.4883" rx="2.5" ry="2.5" style="stroke:#000000;stroke-width:1;" width="193.5098" x="1463" y="127.9102"/><text fill="#000000" font-family="'sans-serif'" font-size="14" lengthAdjust="spacing" textLength="173.5098" x="1473" y="151.4453">Argument Completion UX</text></g><!--entity FailureIsolation--><g class="entity" data-qualified-name="User Experience.FailureIsolation" data-source-line="31" id="ent0016"><rect fill="#FFFFFF" height="36.4883" rx="2.5" ry="2.5" style="stroke:#000000;stroke-width:1;" width="128.0967" x="1317" y="127.9102"/><text fill="#000000" font-family="'sans-serif'" font-size="14" lengthAdjust="spacing" textLength="108.0967" x="1327" y="151.4453">Failure Isolation</text></g><!--entity UnifiedCommands--><g class="entity" data-qualified-name="Architecture Alignment.UnifiedCommands" data-source-line="34" id="ent0018"><rect fill="#FFFFFF" height="36.4883" rx="2.5" ry="2.5" style="stroke:#000000;stroke-width:1;" width="224.0391" x="2363" y="127.9102"/><text fill="#000000" font-family="'sans-serif'" font-size="14" lengthAdjust="spacing" textLength="204.0391" x="2373" y="151.4453">Unified Built-in and Extension</text></g><!--entity SingleDispatcher--><g class="entity" data-qualified-name="Architecture Alignment.SingleDispatcher" data-source-line="35" id="ent0019"><rect fill="#FFFFFF" height="36.4883" rx="2.5" ry="2.5" style="stroke:#000000;stroke-width:1;" width="138.1182" x="2207" y="127.9102"/><text fill="#000000" font-family="'sans-serif'" font-size="14" lengthAdjust="spacing" textLength="118.1182" x="2217" y="151.4453">Single Dispatcher</text></g><!--entity FutureRpcSupport--><g class="entity" data-qualified-name="Architecture Alignment.FutureRpcSupport" data-source-line="36" id="ent0020"><rect fill="#FFFFFF" height="36.4883" rx="2.5" ry="2.5" style="stroke:#000000;stroke-width:1;" width="152.2002" x="2037" y="127.9102"/><text fill="#000000" font-family="'sans-serif'" font-size="14" lengthAdjust="spacing" textLength="132.2002" x="2047" y="151.4453">Future RPC Support</text></g><g class="link" data-entity-1="ent0001" data-entity-2="ent0003" data-link-type="dependency" id="lnk21"><polygon fill="#000000" points="651.3049,127.7288,661.0647,126.4072,655.5601,125.1034,656.864,119.5988,651.3049,127.7288" style="stroke:#000000;stroke-width:1;stroke-linejoin:miter;stroke-miterlimit:10;"/><path d="M1165.7651,74.525 C1037.5966,74.6272 792.5954,77.9619 709,100.9102 C688.397,106.566 671.4011,115.3297 655.5601,125.1034" fill="none" style="stroke:#000000;stroke-width:1;"/></g><g class="link" data-entity-1="ent0001" data-entity-2="ent0004" data-link-type="dependency" id="lnk22"><polygon fill="#000000" points="479.8527,127.8803,489.6732,127.1342,484.2548,125.5093,485.8796,120.0908,479.8527,127.8803" style="stroke:#000000;stroke-width:1;stroke-linejoin:miter;stroke-miterlimit:10;"/><path d="M1165.7722,76.1094 C994.693,78.9245 604.7958,86.8061 546,100.9102 C522.6693,106.5068 502.5429,115.6591 484.2548,125.5093" fill="none" style="stroke:#000000;stroke-width:1;"/></g><g class="link" data-entity-1="ent0001" data-entity-2="ent0005" data-link-type="dependency" id="lnk23"><polygon fill="#000000" points="308.9328,127.824,318.5041,125.5023,312.8944,124.7734,313.6232,119.1637,308.9328,127.824" style="stroke:#000000;stroke-width:1;stroke-linejoin:miter;stroke-miterlimit:10;"/><path d="M1165.8267,74.7936 C961.6633,74.8455 432.8798,77.2904 357,100.9102 C339.2777,106.4267 325.714,114.9021 312.8944,124.7734" fill="none" style="stroke:#000000;stroke-width:1;"/></g><g class="link" data-entity-1="ent0001" data-entity-2="ent0006" data-link-type="dependency" id="lnk24"><polygon fill="#000000" points="151.1096,127.787,160.9475,127.3227,155.5778,125.5431,157.3574,120.1735,151.1096,127.787" style="stroke:#000000;stroke-width:1;stroke-linejoin:miter;stroke-miterlimit:10;"/><path d="M1165.9223,75.1932 C940.833,76.2351 312.9704,80.9186 222,100.9102 C197.1362,106.3742 175.2628,115.6579 155.5778,125.5431" fill="none" style="stroke:#000000;stroke-width:1;"/></g><g class="link" data-entity-1="ent0001" data-entity-2="ent0008" data-link-type="dependency" id="lnk25"><polygon fill="#000000" points="1246,127.8058,1250,118.8058,1246,122.8058,1242,118.8058,1246,127.8058" style="stroke:#000000;stroke-width:1;stroke-linejoin:miter;stroke-miterlimit:10;"/><path d="M1246,92.2135 C1246,103.0639 1246,111.9934 1246,122.8058" fill="none" style="stroke:#000000;stroke-width:1;"/></g><g class="link" data-entity-1="ent0001" data-entity-2="ent0009" data-link-type="dependency" id="lnk26"><polygon fill="#000000" points="1140.5562,127.787,1150.3689,126.9437,1144.9346,125.3726,1146.5057,119.9383,1140.5562,127.787" style="stroke:#000000;stroke-width:1;stroke-linejoin:miter;stroke-miterlimit:10;"/><path d="M1209.1758,91.9684 C1203.0764,94.8938 1196.8394,97.9468 1191,100.9102 C1174.1603,109.4558 1160.0136,117.0573 1144.9346,125.3726" fill="none" style="stroke:#000000;stroke-width:1;"/></g><g class="link" data-entity-1="ent0001" data-entity-2="ent0010" data-link-type="dependency" id="lnk27"><polygon fill="#000000" points="971.2188,127.8328,981.0128,126.7947,975.5484,125.3318,977.0113,119.8674,971.2188,127.8328" style="stroke:#000000;stroke-width:1;stroke-linejoin:miter;stroke-miterlimit:10;"/><path d="M1165.8715,77.8211 C1124.5653,80.9982 1073.8006,87.536 1030,100.9102 C1009.3082,107.2282 991.9622,115.8505 975.5484,125.3318" fill="none" style="stroke:#000000;stroke-width:1;"/></g><g class="link" data-entity-1="ent0001" data-entity-2="ent0011" data-link-type="dependency" id="lnk28"><polygon fill="#000000" points="806.9903,127.8427,816.6529,125.9363,811.0799,124.966,812.0502,119.393,806.9903,127.8427" style="stroke:#000000;stroke-width:1;stroke-linejoin:miter;stroke-miterlimit:10;"/><path d="M1165.981,75.8454 C1069.4968,77.7435 913.3865,83.4932 858,100.9102 C839.5077,106.7253 824.9152,115.2339 811.0799,124.966" fill="none" style="stroke:#000000;stroke-width:1;"/></g><g class="link" data-entity-1="ent0001" data-entity-2="ent0013" data-link-type="dependency" id="lnk29"><polygon fill="#000000" points="1943.3974,127.8988,1939.2013,118.9886,1939.6136,124.6304,1933.9718,125.0427,1943.3974,127.8988" style="stroke:#000000;stroke-width:1;stroke-linejoin:miter;stroke-miterlimit:10;"/><path d="M1326.0813,75.5105 C1488.7861,77.1053 1847.1318,82.6649 1900,100.9102 C1916.2933,106.5331 1928.2184,114.7872 1939.6136,124.6304" fill="none" style="stroke:#000000;stroke-width:1;"/></g><g class="link" data-entity-1="ent0001" data-entity-2="ent0014" data-link-type="dependency" id="lnk30"><polygon fill="#000000" points="1746.1804,127.8264,1739.4777,120.6102,1741.583,125.8607,1736.3326,127.9661,1746.1804,127.8264" style="stroke:#000000;stroke-width:1;stroke-linejoin:miter;stroke-miterlimit:10;"/><path d="M1326.3173,77.0413 C1429.6815,80.2767 1603.4011,87.5175 1666,100.9102 C1693.6936,106.835 1718.9591,116.1875 1741.583,125.8607" fill="none" style="stroke:#000000;stroke-width:1;"/></g><g class="link" data-entity-1="ent0001" data-entity-2="ent0015" data-link-type="dependency" id="lnk31"><polygon fill="#000000" points="1525.4907,127.8074,1518.9898,120.4089,1520.9493,125.7155,1515.6427,127.675,1525.4907,127.8074" style="stroke:#000000;stroke-width:1;stroke-linejoin:miter;stroke-miterlimit:10;"/><path d="M1326.4716,79.8931 C1365.4549,83.5872 1412.6644,89.9625 1454,100.9102 C1478.6543,107.4398 1500.6129,116.3479 1520.9493,125.7155" fill="none" style="stroke:#000000;stroke-width:1;"/></g><g class="link" data-entity-1="ent0001" data-entity-2="ent0016" data-link-type="dependency" id="lnk32"><polygon fill="#000000" points="1353.2533,127.8648,1347.5733,119.8188,1348.9593,125.3033,1343.4749,126.6893,1353.2533,127.8648" style="stroke:#000000;stroke-width:1;stroke-linejoin:miter;stroke-miterlimit:10;"/><path d="M1286.266,91.9468 C1292.5898,94.825 1299.0119,97.8689 1305,100.9102 C1321.3121,109.1948 1334.7369,116.8191 1348.9593,125.3033" fill="none" style="stroke:#000000;stroke-width:1;"/></g><g class="link" data-entity-1="ent0001" data-entity-2="ent0018" data-link-type="dependency" id="lnk33"><polygon fill="#000000" points="2438.0106,127.8963,2431.2709,120.7146,2433.4032,125.9542,2428.1636,128.0865,2438.0106,127.8963" style="stroke:#000000;stroke-width:1;stroke-linejoin:miter;stroke-miterlimit:10;"/><path d="M1326.1572,75.2897 C1563.7809,76.625 2254.0772,82.0951 2354,100.9102 C2383.1059,106.3907 2409.8895,116.0429 2433.4032,125.9542" fill="none" style="stroke:#000000;stroke-width:1;"/></g><g class="link" data-entity-1="ent0001" data-entity-2="ent0019" data-link-type="dependency" id="lnk34"><polygon fill="#000000" points="2252.7476,127.8004,2247.4701,119.4849,2248.5847,125.0309,2243.0388,126.1455,2252.7476,127.8004" style="stroke:#000000;stroke-width:1;stroke-linejoin:miter;stroke-miterlimit:10;"/><path d="M1326.2747,74.8883 C1540.5398,75.1424 2115.2982,77.9812 2198,100.9102 C2217.7769,106.3933 2233.7338,115.1506 2248.5847,125.0309" fill="none" style="stroke:#000000;stroke-width:1;"/></g><g class="link" data-entity-1="ent0001" data-entity-2="ent0020" data-link-type="dependency" id="lnk35"><polygon fill="#000000" points="2086.4442,127.8444,2080.6925,119.8495,2082.1275,125.3213,2076.6556,126.7563,2086.4442,127.8444" style="stroke:#000000;stroke-width:1;stroke-linejoin:miter;stroke-miterlimit:10;"/><path d="M1326.1756,75.6455 C1511.4827,77.6233 1958.7224,84.0922 2025,100.9102 C2046.8544,106.4557 2065.2512,115.4577 2082.1275,125.3213" fill="none" style="stroke:#000000;stroke-width:1;"/></g><?plantuml-src bLF9Rjim4BthAoQwv6B7COesow60wwoNDB1Xe5T66ij4A9BbaiGj-kyTIZArDG5wyVA6yuRlpUCnQ0vMUPFX9MYMFRC2xInJEPV5b7vBDxCc8y3W3DySIikLj3EtrsXFdBsSdrwSJUVpqxF9V7vsaHp_1rtrTshH1igAQ_xfdBY-V2QQAxIya62GMIKlGPc2IVuBmUqGj7yIF8F5u_q4Z9UEbmY5Ua4ZcSnm0jwYWPpRB63x2J2PWvTyop4Fi6Oksr434_OaEI92QjU2SPaSQSEAae5WU-KTs18TaoonprngPbW9EMwP5-v6IVV0g2rTCsdNQFWsxPooEvQhLr8CMvg1dSeJEL8OvMM-L48PS8RwgKH698uxWN1zy1YMgYp3pHidRiDzayHWHdSgw6GwEfe2ix1IoYMDyv1UuGiAfScFwpVwv4W6fV0x0MY931RSEZGDIw-MBapXIxfUcA45EXfNZJdWBJpeitkPmHtn2JHrHq0Qe7-spikzt2fuK0vM-DDpWxMS1xMErUHFAspLxFqsxdqew_khH6DtNFU7BPNSKdeS-Ue8FUWvm14To76gfCYjAgiCQssey2xSxzj8eLWEIu5CUbsrr523T2Ljx8Th8guwmdSe3amL4FuFDTRHgJ8wM5p0tbtQUDcm-V7ElZTl_UORneKt2FTMYTQW1erWL_32P3iUx0vj2q4f3nFUrVtDS-6cN5RlEOQ_wqIZs_RxrxpwlcfUVXF76ct1WHXVNMhrk8IrrrePLwkfu9NE6f3K9E71mNJwTVIEOk4VRwMjTLz5H7kfZsYRw0YDOzioZwCPQ_qCTk0sKErT-e7vG1Kb8bP7UnyEYRkAXT56MhA1xNy1?></g></svg>