<svg xmlns="http://www.w3.org/2000/svg" xmlns:xlink="http://www.w3.org/1999/xlink" contentStyleType="text/css" data-diagram-type="DESCRIPTION" height="732px" preserveAspectRatio="none" style="width:1052px;height:732px;" version="1.1" viewBox="0 0 1052 732" width="1052px" zoomAndPan="magnify"><?plantuml 1.2026.6?><defs/><g><g class="title" data-source-line="93"><text fill="#000000" font-family="'PingFang SC'" font-size="22" font-weight="700" lengthAdjust="spacing" textLength="359.91" x="318.545" y="38.32">Extension Command &#30446;&#26631;&#32452;&#20214;&#26550;&#26500;</text></g><!--cluster Load--><g class="cluster" data-qualified-name="Load" data-source-line="96" id="ent0001"><path d="M682.5,60.8 L796.9275,60.8 A3.75,3.75 0 0 1 799.4275,63.3 L806.4275,86.4 L871.5,86.4 A2.5,2.5 0 0 1 874,88.9 L874,360.3 A2.5,2.5 0 0 1 871.5,362.8 L682.5,362.8 A2.5,2.5 0 0 1 680,360.3 L680,63.3 A2.5,2.5 0 0 1 682.5,60.8" fill="#FFFFFF" style="stroke:#000000;stroke-width:1;"/><line style="stroke:#000000;stroke-width:1;" x1="680" x2="806.4275" y1="86.4" y2="86.4"/><text fill="#000000" font-family="'PingFang SC'" font-size="14" font-weight="700" lengthAdjust="spacing" textLength="113.4275" x="684" y="77.64">Extension &#21152;&#36733;&#22495;</text></g><!--cluster CommandCore--><g class="cluster" data-qualified-name="CommandCore" data-source-line="101" id="ent0005"><path d="M519.5,402.8 L636.1061,402.8 A3.75,3.75 0 0 1 638.6061,405.3 L645.6061,428.4 L988.5,428.4 A2.5,2.5 0 0 1 991,430.9 L991,722.3 A2.5,2.5 0 0 1 988.5,724.8 L519.5,724.8 A2.5,2.5 0 0 1 517,722.3 L517,405.3 A2.5,2.5 0 0 1 519.5,402.8" fill="#FFFFFF" style="stroke:#000000;stroke-width:1;"/><line style="stroke:#000000;stroke-width:1;" x1="517" x2="645.6061" y1="428.4" y2="428.4"/><text fill="#000000" font-family="'PingFang SC'" font-size="14" font-weight="700" lengthAdjust="spacing" textLength="115.6061" x="521" y="419.64">Command &#26680;&#24515;&#22495;</text></g><!--cluster Consumers--><g class="cluster" data-qualified-name="Consumers" data-source-line="108" id="ent0011"><path d="M21.5,636.8 L64.5,636.8 A3.75,3.75 0 0 1 67,639.3 L74,662.4 L494.5,662.4 A2.5,2.5 0 0 1 497,664.9 L497,722.3 A2.5,2.5 0 0 1 494.5,724.8 L21.5,724.8 A2.5,2.5 0 0 1 19,722.3 L19,639.3 A2.5,2.5 0 0 1 21.5,636.8" fill="#FFFFFF" style="stroke:#000000;stroke-width:1;"/><line style="stroke:#000000;stroke-width:1;" x1="19" x2="74" y1="662.4" y2="662.4"/><text fill="#000000" font-family="'PingFang SC'" font-size="14" font-weight="700" lengthAdjust="spacing" textLength="42" x="23" y="653.64">&#28040;&#36153;&#31471;</text></g><!--entity loader--><g class="entity" data-qualified-name="Load.loader" data-source-line="97" id="ent0002"><rect fill="#FFFFFF" height="49.6" rx="2.5" ry="2.5" style="stroke:#000000;stroke-width:1;" width="153.4463" x="709.5" y="90.8"/><rect fill="#FFFFFF" height="10" style="stroke:#000000;stroke-width:1;" width="15" x="842.9463" y="95.8"/><rect fill="#FFFFFF" height="2" style="stroke:#000000;stroke-width:1;" width="4" x="840.9463" y="97.8"/><rect fill="#FFFFFF" height="2" style="stroke:#000000;stroke-width:1;" width="4" x="840.9463" y="101.8"/><text fill="#000000" font-family="'PingFang SC'" font-size="14" lengthAdjust="spacing" textLength="113.4463" x="724.5" y="125.64">Extension Loader</text></g><!--entity extension--><g class="entity" data-qualified-name="Load.extension" data-source-line="98" id="ent0003"><rect fill="#FFFFFF" height="49.6" rx="2.5" ry="2.5" style="stroke:#000000;stroke-width:1;" width="103.3907" x="734.5" y="177.8"/><rect fill="#FFFFFF" height="10" style="stroke:#000000;stroke-width:1;" width="15" x="817.8907" y="182.8"/><rect fill="#FFFFFF" height="2" style="stroke:#000000;stroke-width:1;" width="4" x="815.8907" y="184.8"/><rect fill="#FFFFFF" height="2" style="stroke:#000000;stroke-width:1;" width="4" x="815.8907" y="188.8"/><text fill="#000000" font-family="'PingFang SC'" font-size="14" lengthAdjust="spacing" textLength="63.3907" x="749.5" y="212.64">Extension</text></g><!--entity scopedApi--><g class="entity" data-qualified-name="Load.scopedApi" data-source-line="99" id="ent0004"><rect fill="#FFFFFF" height="69.2" rx="2.5" ry="2.5" style="stroke:#000000;stroke-width:1;" width="178.0191" x="688" y="285.8"/><rect fill="#FFFFFF" height="10" style="stroke:#000000;stroke-width:1;" width="15" x="846.0191" y="290.8"/><rect fill="#FFFFFF" height="2" style="stroke:#000000;stroke-width:1;" width="4" x="844.0191" y="292.8"/><rect fill="#FFFFFF" height="2" style="stroke:#000000;stroke-width:1;" width="4" x="844.0191" y="296.8"/><text fill="#000000" font-family="'PingFang SC'" font-size="14" lengthAdjust="spacing" textLength="138.0191" x="703" y="320.64">Scoped ExtensionApi</text><text fill="#000000" font-family="'PingFang SC'" font-size="14" lengthAdjust="spacing" textLength="106.4421" x="703" y="340.24">&#32465;&#23450; extensionId</text></g><!--entity staging--><g class="entity" data-qualified-name="CommandCore.staging" data-source-line="102" id="ent0006"><rect fill="#FFFFFF" height="49.6" rx="2.5" ry="2.5" style="stroke:#000000;stroke-width:1;" width="173.0981" x="661.5" y="432.8"/><rect fill="#FFFFFF" height="10" style="stroke:#000000;stroke-width:1;" width="15" x="814.5981" y="437.8"/><rect fill="#FFFFFF" height="2" style="stroke:#000000;stroke-width:1;" width="4" x="812.5981" y="439.8"/><rect fill="#FFFFFF" height="2" style="stroke:#000000;stroke-width:1;" width="4" x="812.5981" y="443.8"/><text fill="#000000" font-family="'PingFang SC'" font-size="14" lengthAdjust="spacing" textLength="133.0981" x="676.5" y="467.64">Registration Staging</text></g><!--entity registry--><g class="entity" data-qualified-name="CommandCore.registry" data-source-line="103" id="ent0007"><rect fill="#FFFFFF" height="69.2" rx="2.5" ry="2.5" style="stroke:#000000;stroke-width:1;" width="194.4257" x="525" y="540.8"/><rect fill="#FFFFFF" height="10" style="stroke:#000000;stroke-width:1;" width="15" x="699.4257" y="545.8"/><rect fill="#FFFFFF" height="2" style="stroke:#000000;stroke-width:1;" width="4" x="697.4257" y="547.8"/><rect fill="#FFFFFF" height="2" style="stroke:#000000;stroke-width:1;" width="4" x="697.4257" y="551.8"/><text fill="#000000" font-family="'PingFang SC'" font-size="14" lengthAdjust="spacing" textLength="154.4257" x="540" y="575.64">SlashCommandRegistry</text><text fill="#000000" font-family="'PingFang SC'" font-size="14" lengthAdjust="spacing" textLength="70" x="540" y="595.24">&#19981;&#21487;&#21464;&#24555;&#29031;</text></g><!--entity parser--><g class="entity" data-qualified-name="CommandCore.parser" data-source-line="104" id="ent0008"><rect fill="#FFFFFF" height="49.6" rx="2.5" ry="2.5" style="stroke:#000000;stroke-width:1;" width="183.0871" x="737.5" y="550.3"/><rect fill="#FFFFFF" height="10" style="stroke:#000000;stroke-width:1;" width="15" x="900.5871" y="555.3"/><rect fill="#FFFFFF" height="2" style="stroke:#000000;stroke-width:1;" width="4" x="898.5871" y="557.3"/><rect fill="#FFFFFF" height="2" style="stroke:#000000;stroke-width:1;" width="4" x="898.5871" y="561.3"/><text fill="#000000" font-family="'PingFang SC'" font-size="14" lengthAdjust="spacing" textLength="143.0871" x="752.5" y="585.14">SlashCommandParser</text></g><!--entity dispatcher--><g class="entity" data-qualified-name="CommandCore.dispatcher" data-source-line="105" id="ent0009"><rect fill="#FFFFFF" height="49.6" rx="2.5" ry="2.5" style="stroke:#000000;stroke-width:1;" width="211.1221" x="771.5" y="666.8"/><rect fill="#FFFFFF" height="10" style="stroke:#000000;stroke-width:1;" width="15" x="962.6221" y="671.8"/><rect fill="#FFFFFF" height="2" style="stroke:#000000;stroke-width:1;" width="4" x="960.6221" y="673.8"/><rect fill="#FFFFFF" height="2" style="stroke:#000000;stroke-width:1;" width="4" x="960.6221" y="677.8"/><text fill="#000000" font-family="'PingFang SC'" font-size="14" lengthAdjust="spacing" textLength="171.1221" x="786.5" y="701.64">SlashCommandDispatcher</text></g><!--entity completer--><g class="entity" data-qualified-name="CommandCore.completer" data-source-line="106" id="ent0010"><rect fill="#FFFFFF" height="49.6" rx="2.5" ry="2.5" style="stroke:#000000;stroke-width:1;" width="228.1602" x="525" y="666.8"/><rect fill="#FFFFFF" height="10" style="stroke:#000000;stroke-width:1;" width="15" x="733.1602" y="671.8"/><rect fill="#FFFFFF" height="2" style="stroke:#000000;stroke-width:1;" width="4" x="731.1602" y="673.8"/><rect fill="#FFFFFF" height="2" style="stroke:#000000;stroke-width:1;" width="4" x="731.1602" y="677.8"/><text fill="#000000" font-family="'PingFang SC'" font-size="14" lengthAdjust="spacing" textLength="188.1602" x="540" y="701.64">CommandCompletionService</text></g><!--entity tui--><g class="entity" data-qualified-name="Consumers.tui" data-source-line="109" id="ent0012"><rect fill="#FFFFFF" height="49.6" rx="2.5" ry="2.5" style="stroke:#000000;stroke-width:1;" width="134.2901" x="355" y="666.8"/><rect fill="#FFFFFF" height="10" style="stroke:#000000;stroke-width:1;" width="15" x="469.2901" y="671.8"/><rect fill="#FFFFFF" height="2" style="stroke:#000000;stroke-width:1;" width="4" x="467.2901" y="673.8"/><rect fill="#FFFFFF" height="2" style="stroke:#000000;stroke-width:1;" width="4" x="467.2901" y="677.8"/><text fill="#000000" font-family="'PingFang SC'" font-size="14" lengthAdjust="spacing" textLength="94.2901" x="370" y="701.64">Interactive TUI</text></g><!--entity help--><g class="entity" data-qualified-name="Consumers.help" data-source-line="110" id="ent0013"><rect fill="#FFFFFF" height="49.6" rx="2.5" ry="2.5" style="stroke:#000000;stroke-width:1;" width="73.8688" x="27" y="666.8"/><rect fill="#FFFFFF" height="10" style="stroke:#000000;stroke-width:1;" width="15" x="80.8688" y="671.8"/><rect fill="#FFFFFF" height="2" style="stroke:#000000;stroke-width:1;" width="4" x="78.8688" y="673.8"/><rect fill="#FFFFFF" height="2" style="stroke:#000000;stroke-width:1;" width="4" x="78.8688" y="677.8"/><text fill="#000000" font-family="'PingFang SC'" font-size="14" lengthAdjust="spacing" textLength="33.8688" x="42" y="701.64">/help</text></g><!--entity rpc--><g class="entity" data-qualified-name="Consumers.rpc" data-source-line="111" id="ent0014"><rect fill="#FFFFFF" height="49.6" rx="2.5" ry="2.5" style="stroke:#000000;stroke-width:1;" width="218.4763" x="119" y="666.8"/><rect fill="#FFFFFF" height="10" style="stroke:#000000;stroke-width:1;" width="15" x="317.4763" y="671.8"/><rect fill="#FFFFFF" height="2" style="stroke:#000000;stroke-width:1;" width="4" x="315.4763" y="673.8"/><rect fill="#FFFFFF" height="2" style="stroke:#000000;stroke-width:1;" width="4" x="315.4763" y="677.8"/><text fill="#000000" font-family="'PingFang SC'" font-size="14" lengthAdjust="spacing" textLength="178.4763" x="134" y="701.64">Future RPC get_commands</text></g><g class="link" data-entity-1="ent0002" data-entity-2="ent0003" data-link-type="dependency" id="lnk15"><polygon fill="#000000" points="786,177.6094,790,168.6094,786,172.6094,782,168.6094,786,177.6094" style="stroke:#000000;stroke-width:1;stroke-linejoin:miter;stroke-miterlimit:10;"/><path d="M786,140.9302 C786,152.4153 786,161.1166 786,172.6094" fill="none" style="stroke:#000000;stroke-width:1;"/></g><g class="link" data-entity-1="ent0003" data-entity-2="ent0004" data-link-type="dependency" id="lnk16"><polygon fill="#000000" points="779.6351,285.4825,784.3222,276.8205,780.0236,280.4976,776.3464,276.199,779.6351,285.4825" style="stroke:#000000;stroke-width:1;stroke-linejoin:miter;stroke-miterlimit:10;"/><path d="M784.1133,228.0126 C782.8144,244.6821 781.4593,262.072 780.0236,280.4976" fill="none" style="stroke:#000000;stroke-width:1;"/><text fill="#000000" font-family="'PingFang SC'" font-size="13" lengthAdjust="spacing" textLength="75.7849" x="784" y="261.58">initialize(api)</text></g><g class="link" data-entity-1="ent0004" data-entity-2="ent0006" data-link-type="dependency" id="lnk17"><polygon fill="#000000" points="753.1486,432.7436,758.9436,424.7801,754.195,427.8544,751.1207,423.1058,753.1486,432.7436" style="stroke:#000000;stroke-width:1;stroke-linejoin:miter;stroke-miterlimit:10;"/><path d="M769.7569,355.1428 C764.5897,379.286 758.8124,406.2801 754.195,427.8544" fill="none" style="stroke:#000000;stroke-width:1;"/><text fill="#000000" font-family="'PingFang SC'" font-size="13" lengthAdjust="spacing" textLength="107.7012" x="767" y="388.58">registerCommand</text></g><g class="link" data-entity-1="ent0006" data-entity-2="ent0007" data-link-type="dependency" id="lnk18"><polygon fill="#000000" points="658.8918,540.4825,668.2291,537.3496,662.5776,537.1039,662.8233,531.4524,658.8918,540.4825" style="stroke:#000000;stroke-width:1;stroke-linejoin:miter;stroke-miterlimit:10;"/><path d="M721.5863,483.0126 C703.4013,499.6821 682.6783,518.6782 662.5776,537.1039" fill="none" style="stroke:#000000;stroke-width:1;"/><text fill="#000000" font-family="'PingFang SC'" font-size="13" lengthAdjust="spacing" textLength="52" x="701" y="516.58">&#21407;&#23376;&#25552;&#20132;</text></g><g class="link" data-entity-1="ent0012" data-entity-2="ent0008" data-link-type="dependency" id="lnk19"><polygon fill="#000000" points="762.6955,600.331,752.9135,599.185,757.9212,601.8162,755.29,606.8239,762.6955,600.331" style="stroke:#000000;stroke-width:1;stroke-linejoin:miter;stroke-miterlimit:10;"/><path d="M454.9446,666.7704 C471.5576,655.8516 492.4938,643.8294 513,636.8 C604.1021,605.5706 634.07,631.0608 728,609.8 C739.3515,607.2306 746.4584,605.3823 757.9212,601.8162" fill="none" style="stroke:#000000;stroke-width:1;"/></g><g class="link" data-entity-1="ent0008" data-entity-2="ent0009" data-link-type="dependency" id="lnk20"><polygon fill="#000000" points="866.7856,666.4343,866.995,656.5877,864.8525,661.8231,859.617,659.6806,866.7856,666.4343" style="stroke:#000000;stroke-width:1;stroke-linejoin:miter;stroke-miterlimit:10;"/><path d="M839.0624,600.303 C847.1996,619.7135 856.6749,642.3161 864.8525,661.8231" fill="none" style="stroke:#000000;stroke-width:1;"/></g><g class="link" data-entity-1="ent0007" data-entity-2="ent0009" data-link-type="dependency" id="lnk21"><polygon fill="#000000" points="826.4913,666.6684,820.0618,659.2077,821.9703,664.5329,816.6451,666.4414,826.4913,666.6684" style="stroke:#000000;stroke-width:1;stroke-linejoin:miter;stroke-miterlimit:10;"/><path d="M701.0435,609.9486 C720.9901,618.5795 742.3265,627.9327 762,636.8 C783.2146,646.3619 801.9536,655.0783 821.9703,664.5329" fill="none" style="stroke:#000000;stroke-width:1;"/></g><g class="link" data-entity-1="ent0009" data-entity-2="ent0003" data-link-type="dependency" id="lnk22"><polygon fill="#000000" points="837.5742,216.934,844.8835,223.5351,842.3262,218.4893,847.372,215.9319,837.5742,216.934" style="stroke:#000000;stroke-width:1;stroke-linejoin:miter;stroke-miterlimit:10;"/><path d="M903.4013,666.7096 C923.9501,645.2228 949,611.7578 949,576.3 C949,319.3 949,319.3 949,319.3 C949,263.8075 890.0801,234.1187 842.3262,218.4893" fill="none" style="stroke:#000000;stroke-width:1;"/><text fill="#000000" font-family="'PingFang SC'" font-size="13" lengthAdjust="spacing" textLength="100.4641" x="951" y="462.58">handle(args, ctx)</text></g><g class="link" data-entity-1="ent0007" data-entity-2="ent0010" data-link-type="dependency" id="lnk23"><polygon fill="#000000" points="635.4285,666.7447,638.0633,657.2549,634.6942,661.7989,630.1501,658.4297,635.4285,666.7447" style="stroke:#000000;stroke-width:1;stroke-linejoin:miter;stroke-miterlimit:10;"/><path d="M627.0086,610.0345 C629.7118,628.2411 632.2508,645.3425 634.6942,661.7989" fill="none" style="stroke:#000000;stroke-width:1;"/></g><g class="link" data-entity-1="ent0010" data-entity-2="ent0012" data-link-type="dependency" id="lnk24"><polygon fill="#000000" points="489.3887,691.8,498.3887,695.8,494.3887,691.8,498.3887,687.8,489.3887,691.8" style="stroke:#000000;stroke-width:1;stroke-linejoin:miter;stroke-miterlimit:10;"/><path d="M524.746,691.8 C512.9602,691.8 506.1745,691.8 494.3887,691.8" fill="none" style="stroke:#000000;stroke-width:1;"/></g><g class="link" data-entity-1="ent0007" data-entity-2="ent0013" data-link-type="dependency" id="lnk25"><polygon fill="#000000" points="78.5204,666.6205,87.027,661.6568,81.4433,662.5638,80.5364,656.9801,78.5204,666.6205" style="stroke:#000000;stroke-width:1;stroke-linejoin:miter;stroke-miterlimit:10;"/><path d="M524.9577,579.3842 C396.939,584.8702 179.692,599.4996 110,636.8 C97.1876,643.6574 89.3362,651.6096 81.4433,662.5638" fill="none" style="stroke:#000000;stroke-width:1;"/></g><g class="link" data-entity-1="ent0007" data-entity-2="ent0014" data-link-type="dependency" id="lnk26"><polygon fill="#000000" points="274.4385,666.7648,284.2823,666.4493,278.9402,664.5888,280.8007,659.2466,274.4385,666.7648" style="stroke:#000000;stroke-width:1;stroke-linejoin:miter;stroke-miterlimit:10;"/><path d="M524.8357,592.3472 C471.3237,602.4871 404.1571,617.3669 346,636.8 C321.7473,644.904 300.3067,654.2607 278.9402,664.5888" fill="none" style="stroke:#000000;stroke-width:1;stroke-dasharray:7,7;"/></g><?plantuml-src dLDBQnH14BxFhwZi9GQStMnaW-uX81i3WI0XgxU0T7ewiqrckeVkdZmKJqOKGHDlec1o43m4auk4Q0ZvCvdT_0nhUcRdiU11OM5hghwl7bzLJqF4GSjOKTQ5YD0juZFTejBZmdVH5gQb5KM7OYssQvZGN0hT2YJnc6eQtPsRRRjpim-SwVzBf68XiaITphmxFpltJudifwkPJfEbIThjU_VTTdk-WsaMcUQ-0CM8bW9JAQQPscPfUiLyheqY1cajBhObjIPe5X9XEDMmC-010-AbLO4O6N8wPkr156y4FASGuO4U4CKye3XG73AbcywK6R0GImM42sSgKiGF2GHaJyO6TCWC4SJHMrn4H94GFBP9ui0iIM4U4wGrLh7g4i7A_LwZWiCwdjn9EzeaWMQLo0Rgv2iP2wyd0wa0PnCQGoYFOxZ1KHwDDOUU3CEqwz6Nq-7ncz7b_itb-V0h_lOTnyW8Z8GDQN1ayBXYD9tIoVS0ZJ9DykxuzkegEJfg0D6mWWS1Bnn04S982gnRnQxOSx70x79gm1A7yU8swhdwL4OeSG5z6F5rCRhyc9n-BYdBdYsXBHOHpikoyV7Km-EBvFhLkEtSsyDZckn-hN8Zq3V4Hzspz9azqLz0z23FbZFtriNDnVlau2mv-9HSdunUVxVqyHNL-5NwAb5ug2aqijPVWOiSLspe80DxnLUDK4mOHW5BP-dZ8-2KfHIQEP5H4Mfu_lRsvw_HoLakK7xJa_8i2-GHl0vyKK-UBbkmYNaTr1gm8BAXrAZ7bc8Je-fhgptmcNb6ipvrfb54iIKdknLmtONAMHIMzHUxXYvmmGqd0N_Exf28ppXbp2ApjI4ksm1JkJJEE9AYYZVUXUJ3KVBZS7XmUFFxcuEZsNY-akpFUYgw5-G9VsdMPy4Y0smWm7wLh-y2DRipzIJbXWhB-bEbQq2hR-5fDXTI3Vy0?></g></svg>