<svg xmlns="http://www.w3.org/2000/svg" xmlns:xlink="http://www.w3.org/1999/xlink" contentStyleType="text/css" data-diagram-type="DESCRIPTION" height="681px" preserveAspectRatio="none" style="width:1079px;height:681px;" version="1.1" viewBox="0 0 1079 681" width="1079px" zoomAndPan="magnify"><?plantuml 1.2026.6?><defs/><g><g class="title" data-source-line="93"><text fill="#000000" font-family="'sans-serif'" font-size="22" font-weight="700" lengthAdjust="spacing" textLength="598.0176" x="212.4912" y="36.2695">Extension Command Target Component Architecture</text></g><!--cluster Load--><g class="cluster" data-qualified-name="Load" data-source-line="96" id="ent0001"><path d="M695.5,55.9102 L829.042,55.9102 A3.75,3.75 0 0 1 831.542,58.4102 L838.542,78.3984 L892.5,78.3984 A2.5,2.5 0 0 1 895,80.8984 L895,335.4102 A2.5,2.5 0 0 1 892.5,337.9102 L695.5,337.9102 A2.5,2.5 0 0 1 693,335.4102 L693,58.4102 A2.5,2.5 0 0 1 695.5,55.9102" fill="#FFFFFF" style="stroke:#000000;stroke-width:1;"/><line style="stroke:#000000;stroke-width:1;" x1="693" x2="838.542" y1="78.3984" y2="78.3984"/><text fill="#000000" font-family="'sans-serif'" font-size="14" font-weight="700" lengthAdjust="spacing" textLength="132.542" x="697" y="71.4453">Extension Loading</text></g><!--cluster CommandCore--><g class="cluster" data-qualified-name="CommandCore" data-source-line="101" id="ent0005"><path d="M531.5,374.9102 L643.3652,374.9102 A3.75,3.75 0 0 1 645.8652,377.4102 L652.8652,397.3984 L1014.5,397.3984 A2.5,2.5 0 0 1 1017,399.8984 L1017,671.4102 A2.5,2.5 0 0 1 1014.5,673.9102 L531.5,673.9102 A2.5,2.5 0 0 1 529,671.4102 L529,377.4102 A2.5,2.5 0 0 1 531.5,374.9102" fill="#FFFFFF" style="stroke:#000000;stroke-width:1;"/><line style="stroke:#000000;stroke-width:1;" x1="529" x2="652.8652" y1="397.3984" y2="397.3984"/><text fill="#000000" font-family="'sans-serif'" font-size="14" font-weight="700" lengthAdjust="spacing" textLength="110.8652" x="533" y="390.4453">Command Core</text></g><!--cluster Consumers--><g class="cluster" data-qualified-name="Consumers" data-source-line="108" id="ent0011"><path d="M21.5,592.9102 L103.7793,592.9102 A3.75,3.75 0 0 1 106.2793,595.4102 L113.2793,615.3984 L506.5,615.3984 A2.5,2.5 0 0 1 509,617.8984 L509,671.4102 A2.5,2.5 0 0 1 506.5,673.9102 L21.5,673.9102 A2.5,2.5 0 0 1 19,671.4102 L19,595.4102 A2.5,2.5 0 0 1 21.5,592.9102" fill="#FFFFFF" style="stroke:#000000;stroke-width:1;"/><line style="stroke:#000000;stroke-width:1;" x1="19" x2="113.2793" y1="615.3984" y2="615.3984"/><text fill="#000000" font-family="'sans-serif'" font-size="14" font-weight="700" lengthAdjust="spacing" textLength="81.2793" x="23" y="608.4453">Consumers</text></g><!--entity loader--><g class="entity" data-qualified-name="Load.loader" data-source-line="97" id="ent0002"><rect fill="#FFFFFF" height="46.4883" rx="2.5" ry="2.5" style="stroke:#000000;stroke-width:1;" width="156.9355" x="725.5" y="82.9102"/><rect fill="#FFFFFF" height="10" style="stroke:#000000;stroke-width:1;" width="15" x="862.4355" y="87.9102"/><rect fill="#FFFFFF" height="2" style="stroke:#000000;stroke-width:1;" width="4" x="860.4355" y="89.9102"/><rect fill="#FFFFFF" height="2" style="stroke:#000000;stroke-width:1;" width="4" x="860.4355" y="93.9102"/><text fill="#000000" font-family="'sans-serif'" font-size="14" lengthAdjust="spacing" textLength="116.9355" x="740.5" y="116.4453">Extension Loader</text></g><!--entity extension--><g class="entity" data-qualified-name="Load.extension" data-source-line="98" id="ent0003"><rect fill="#FFFFFF" height="46.4883" rx="2.5" ry="2.5" style="stroke:#000000;stroke-width:1;" width="106.3701" x="751" y="165.9102"/><rect fill="#FFFFFF" height="10" style="stroke:#000000;stroke-width:1;" width="15" x="837.3701" y="170.9102"/><rect fill="#FFFFFF" height="2" style="stroke:#000000;stroke-width:1;" width="4" x="835.3701" y="172.9102"/><rect fill="#FFFFFF" height="2" style="stroke:#000000;stroke-width:1;" width="4" x="835.3701" y="176.9102"/><text fill="#000000" font-family="'sans-serif'" font-size="14" lengthAdjust="spacing" textLength="66.3701" x="766" y="199.4453">Extension</text></g><!--entity scopedApi--><g class="entity" data-qualified-name="Load.scopedApi" data-source-line="99" id="ent0004"><rect fill="#FFFFFF" height="62.9766" rx="2.5" ry="2.5" style="stroke:#000000;stroke-width:1;" width="184.9629" x="701.5" y="266.9102"/><rect fill="#FFFFFF" height="10" style="stroke:#000000;stroke-width:1;" width="15" x="866.4629" y="271.9102"/><rect fill="#FFFFFF" height="2" style="stroke:#000000;stroke-width:1;" width="4" x="864.4629" y="273.9102"/><rect fill="#FFFFFF" height="2" style="stroke:#000000;stroke-width:1;" width="4" x="864.4629" y="277.9102"/><text fill="#000000" font-family="'sans-serif'" font-size="14" lengthAdjust="spacing" textLength="142.0508" x="716.5" y="300.4453">Scoped ExtensionApi</text><text fill="#000000" font-family="'sans-serif'" font-size="14" lengthAdjust="spacing" textLength="144.9629" x="716.5" y="316.9336">Bound to extensionId</text></g><!--entity staging--><g class="entity" data-qualified-name="CommandCore.staging" data-source-line="102" id="ent0006"><rect fill="#FFFFFF" height="46.4883" rx="2.5" ry="2.5" style="stroke:#000000;stroke-width:1;" width="176.9648" x="675.5" y="401.9102"/><rect fill="#FFFFFF" height="10" style="stroke:#000000;stroke-width:1;" width="15" x="832.4648" y="406.9102"/><rect fill="#FFFFFF" height="2" style="stroke:#000000;stroke-width:1;" width="4" x="830.4648" y="408.9102"/><rect fill="#FFFFFF" height="2" style="stroke:#000000;stroke-width:1;" width="4" x="830.4648" y="412.9102"/><text fill="#000000" font-family="'sans-serif'" font-size="14" lengthAdjust="spacing" textLength="136.9648" x="690.5" y="435.4453">Registration Staging</text></g><!--entity registry--><g class="entity" data-qualified-name="CommandCore.registry" data-source-line="103" id="ent0007"><rect fill="#FFFFFF" height="62.9766" rx="2.5" ry="2.5" style="stroke:#000000;stroke-width:1;" width="199.6465" x="537" y="502.9102"/><rect fill="#FFFFFF" height="10" style="stroke:#000000;stroke-width:1;" width="15" x="716.6465" y="507.9102"/><rect fill="#FFFFFF" height="2" style="stroke:#000000;stroke-width:1;" width="4" x="714.6465" y="509.9102"/><rect fill="#FFFFFF" height="2" style="stroke:#000000;stroke-width:1;" width="4" x="714.6465" y="513.9102"/><text fill="#000000" font-family="'sans-serif'" font-size="14" lengthAdjust="spacing" textLength="159.6465" x="552" y="536.4453">SlashCommandRegistry</text><text fill="#000000" font-family="'sans-serif'" font-size="14" lengthAdjust="spacing" textLength="139.3506" x="552" y="552.9336">Immutable Snapshot</text></g><!--entity parser--><g class="entity" data-qualified-name="CommandCore.parser" data-source-line="104" id="ent0008"><rect fill="#FFFFFF" height="46.4883" rx="2.5" ry="2.5" style="stroke:#000000;stroke-width:1;" width="186.665" x="755.5" y="511.4102"/><rect fill="#FFFFFF" height="10" style="stroke:#000000;stroke-width:1;" width="15" x="922.165" y="516.4102"/><rect fill="#FFFFFF" height="2" style="stroke:#000000;stroke-width:1;" width="4" x="920.165" y="518.4102"/><rect fill="#FFFFFF" height="2" style="stroke:#000000;stroke-width:1;" width="4" x="920.165" y="522.4102"/><text fill="#000000" font-family="'sans-serif'" font-size="14" lengthAdjust="spacing" textLength="146.665" x="770.5" y="544.9453">SlashCommandParser</text></g><!--entity dispatcher--><g class="entity" data-qualified-name="CommandCore.dispatcher" data-source-line="105" id="ent0009"><rect fill="#FFFFFF" height="46.4883" rx="2.5" ry="2.5" style="stroke:#000000;stroke-width:1;" width="217.6387" x="791" y="619.9102"/><rect fill="#FFFFFF" height="10" style="stroke:#000000;stroke-width:1;" width="15" x="988.6387" y="624.9102"/><rect fill="#FFFFFF" height="2" style="stroke:#000000;stroke-width:1;" width="4" x="986.6387" y="626.9102"/><rect fill="#FFFFFF" height="2" style="stroke:#000000;stroke-width:1;" width="4" x="986.6387" y="630.9102"/><text fill="#000000" font-family="'sans-serif'" font-size="14" lengthAdjust="spacing" textLength="177.6387" x="806" y="653.4453">SlashCommandDispatcher</text></g><!--entity completer--><g class="entity" data-qualified-name="CommandCore.completer" data-source-line="106" id="ent0010"><rect fill="#FFFFFF" height="46.4883" rx="2.5" ry="2.5" style="stroke:#000000;stroke-width:1;" width="235.5762" x="537" y="619.9102"/><rect fill="#FFFFFF" height="10" style="stroke:#000000;stroke-width:1;" width="15" x="752.5762" y="624.9102"/><rect fill="#FFFFFF" height="2" style="stroke:#000000;stroke-width:1;" width="4" x="750.5762" y="626.9102"/><rect fill="#FFFFFF" height="2" style="stroke:#000000;stroke-width:1;" width="4" x="750.5762" y="630.9102"/><text fill="#000000" font-family="'sans-serif'" font-size="14" lengthAdjust="spacing" textLength="195.5762" x="552" y="653.4453">CommandCompletionService</text></g><!--entity tui--><g class="entity" data-qualified-name="Consumers.tui" data-source-line="109" id="ent0012"><rect fill="#FFFFFF" height="46.4883" rx="2.5" ry="2.5" style="stroke:#000000;stroke-width:1;" width="137.7334" x="363" y="619.9102"/><rect fill="#FFFFFF" height="10" style="stroke:#000000;stroke-width:1;" width="15" x="480.7334" y="624.9102"/><rect fill="#FFFFFF" height="2" style="stroke:#000000;stroke-width:1;" width="4" x="478.7334" y="626.9102"/><rect fill="#FFFFFF" height="2" style="stroke:#000000;stroke-width:1;" width="4" x="478.7334" y="630.9102"/><text fill="#000000" font-family="'sans-serif'" font-size="14" lengthAdjust="spacing" textLength="97.7334" x="378" y="653.4453">Interactive TUI</text></g><!--entity help--><g class="entity" data-qualified-name="Consumers.help" data-source-line="110" id="ent0013"><rect fill="#FFFFFF" height="46.4883" rx="2.5" ry="2.5" style="stroke:#000000;stroke-width:1;" width="76.6885" x="27.5" y="619.9102"/><rect fill="#FFFFFF" height="10" style="stroke:#000000;stroke-width:1;" width="15" x="84.1885" y="624.9102"/><rect fill="#FFFFFF" height="2" style="stroke:#000000;stroke-width:1;" width="4" x="82.1885" y="626.9102"/><rect fill="#FFFFFF" height="2" style="stroke:#000000;stroke-width:1;" width="4" x="82.1885" y="630.9102"/><text fill="#000000" font-family="'sans-serif'" font-size="14" lengthAdjust="spacing" textLength="36.6885" x="42.5" y="653.4453">/help</text></g><!--entity rpc--><g class="entity" data-qualified-name="Consumers.rpc" data-source-line="111" id="ent0014"><rect fill="#FFFFFF" height="46.4883" rx="2.5" ry="2.5" style="stroke:#000000;stroke-width:1;" width="221.8291" x="123" y="619.9102"/><rect fill="#FFFFFF" height="10" style="stroke:#000000;stroke-width:1;" width="15" x="324.8291" y="624.9102"/><rect fill="#FFFFFF" height="2" style="stroke:#000000;stroke-width:1;" width="4" x="322.8291" y="626.9102"/><rect fill="#FFFFFF" height="2" style="stroke:#000000;stroke-width:1;" width="4" x="322.8291" y="630.9102"/><text fill="#000000" font-family="'sans-serif'" font-size="14" lengthAdjust="spacing" textLength="181.8291" x="138" y="653.4453">Future RPC get_commands</text></g><g class="link" data-entity-1="ent0002" data-entity-2="ent0003" data-link-type="dependency" id="lnk15"><polygon fill="#000000" points="804,165.8033,808,156.8033,804,160.8033,800,156.8033,804,165.8033" style="stroke:#000000;stroke-width:1;stroke-linejoin:miter;stroke-miterlimit:10;"/><path d="M804,129.0438 C804,140.473 804,149.378 804,160.8033" fill="none" style="stroke:#000000;stroke-width:1;"/></g><g class="link" data-entity-1="ent0003" data-entity-2="ent0004" data-link-type="dependency" id="lnk16"><polygon fill="#000000" points="796.841,266.869,801.6575,258.2781,797.3042,261.8905,793.6918,257.5372,796.841,266.869" style="stroke:#000000;stroke-width:1;stroke-linejoin:miter;stroke-miterlimit:10;"/><path d="M801.9522,211.9238 C800.478,227.7719 798.9334,244.3764 797.3042,261.8905" fill="none" style="stroke:#000000;stroke-width:1;"/><text fill="#000000" font-family="'sans-serif'" font-size="13" lengthAdjust="spacing" textLength="81.1675" x="802" y="244.4785">initialize(api)</text></g><g class="link" data-entity-1="ent0004" data-entity-2="ent0006" data-link-type="dependency" id="lnk17"><polygon fill="#000000" points="769.3537,401.6924,775.3507,393.8799,770.525,396.8316,767.5733,392.0058,769.3537,401.6924" style="stroke:#000000;stroke-width:1;stroke-linejoin:miter;stroke-miterlimit:10;"/><path d="M786.5843,330.1854 C781.2401,352.3639 775.3242,376.9149 770.525,396.8316" fill="none" style="stroke:#000000;stroke-width:1;"/><text fill="#000000" font-family="'sans-serif'" font-size="13" lengthAdjust="spacing" textLength="113.1597" x="783" y="362.4785">registerCommand</text></g><g class="link" data-entity-1="ent0006" data-entity-2="ent0007" data-link-type="dependency" id="lnk18"><polygon fill="#000000" points="673.0812,502.869,682.535,500.1074,676.8976,499.6386,677.3664,494.0012,673.0812,502.869" style="stroke:#000000;stroke-width:1;stroke-linejoin:miter;stroke-miterlimit:10;"/><path d="M737.9932,447.9238 C719.2703,463.7719 697.5886,482.1245 676.8976,499.6386" fill="none" style="stroke:#000000;stroke-width:1;"/><text fill="#000000" font-family="'sans-serif'" font-size="13" lengthAdjust="spacing" textLength="94.231" x="717" y="480.4785">atomic commit</text></g><g class="link" data-entity-1="ent0012" data-entity-2="ent0008" data-link-type="dependency" id="lnk19"><polygon fill="#000000" points="780.4242,557.4372,770.6822,555.9907,775.6065,558.7748,772.8224,563.6992,780.4242,557.4372" style="stroke:#000000;stroke-width:1;stroke-linejoin:miter;stroke-miterlimit:10;"/><path d="M466.4561,619.8991 C483.4451,610.0693 504.622,599.2864 525,592.9102 C619.4376,563.3611 649.114,586.0275 746,565.9102 C757.2299,563.5784 764.1908,561.9444 775.6065,558.7748" fill="none" style="stroke:#000000;stroke-width:1;"/></g><g class="link" data-entity-1="ent0008" data-entity-2="ent0009" data-link-type="dependency" id="lnk20"><polygon fill="#000000" points="889.4463,619.8716,889.1668,610.0267,887.2868,615.362,881.9515,613.4819,889.4463,619.8716" style="stroke:#000000;stroke-width:1;stroke-linejoin:miter;stroke-miterlimit:10;"/><path d="M859.5672,557.477 C868.3201,575.7551 878.5377,597.0917 887.2868,615.362" fill="none" style="stroke:#000000;stroke-width:1;"/></g><g class="link" data-entity-1="ent0007" data-entity-2="ent0009" data-link-type="dependency" id="lnk21"><polygon fill="#000000" points="847.5015,619.8982,840.7317,612.745,842.886,617.9755,837.6554,620.1298,847.5015,619.8982" style="stroke:#000000;stroke-width:1;stroke-linejoin:miter;stroke-miterlimit:10;"/><path d="M714.6009,565.9169 C736.4302,574.5707 760.1694,584.0497 782,592.9102 C803.4787,601.6278 822.4688,609.4704 842.886,617.9755" fill="none" style="stroke:#000000;stroke-width:1;"/></g><g class="link" data-entity-1="ent0009" data-entity-2="ent0003" data-link-type="dependency" id="lnk22"><polygon fill="#000000" points="857.299,200.7754,864.916,207.0189,862.12,202.1014,867.0375,199.3054,857.299,200.7754" style="stroke:#000000;stroke-width:1;stroke-linejoin:miter;stroke-miterlimit:10;"/><path d="M926.0346,619.7928 C946.298,599.9886 971,568.9649 971,535.4102 C971,297.4102 971,297.4102 971,297.4102 C971,242.4136 910.9937,215.5437 862.12,202.1014" fill="none" style="stroke:#000000;stroke-width:1;"/><text fill="#000000" font-family="'sans-serif'" font-size="13" lengthAdjust="spacing" textLength="105.9043" x="973" y="429.9785">handle(args, ctx)</text></g><g class="link" data-entity-1="ent0007" data-entity-2="ent0010" data-link-type="dependency" id="lnk23"><polygon fill="#000000" points="651.2711,619.8473,653.7153,610.3066,650.4378,614.9172,645.8272,611.6398,651.2711,619.8473" style="stroke:#000000;stroke-width:1;stroke-linejoin:miter;stroke-miterlimit:10;"/><path d="M642.1581,565.9288 C645.0669,583.1392 647.8016,599.3196 650.4378,614.9172" fill="none" style="stroke:#000000;stroke-width:1;"/></g><g class="link" data-entity-1="ent0010" data-entity-2="ent0012" data-link-type="dependency" id="lnk24"><polygon fill="#000000" points="501.252,642.9102,510.252,646.9102,506.252,642.9102,510.252,638.9102,501.252,642.9102" style="stroke:#000000;stroke-width:1;stroke-linejoin:miter;stroke-miterlimit:10;"/><path d="M536.9864,642.9102 C525.0749,642.9102 518.1634,642.9102 506.252,642.9102" fill="none" style="stroke:#000000;stroke-width:1;"/></g><g class="link" data-entity-1="ent0007" data-entity-2="ent0013" data-link-type="dependency" id="lnk25"><polygon fill="#000000" points="81.7901,619.902,90.6478,615.596,85.0116,616.078,84.5295,610.4418,81.7901,619.902" style="stroke:#000000;stroke-width:1;stroke-linejoin:miter;stroke-miterlimit:10;"/><path d="M536.8776,538.4477 C406.3807,543.7619 186.2904,557.7574 114,592.9102 C101.3628,599.0552 93.3987,606.1221 85.0116,616.078" fill="none" style="stroke:#000000;stroke-width:1;"/></g><g class="link" data-entity-1="ent0007" data-entity-2="ent0014" data-link-type="dependency" id="lnk26"><polygon fill="#000000" points="282.0056,619.8985,291.8536,620.0229,286.5999,617.9257,288.6972,612.672,282.0056,619.8985" style="stroke:#000000;stroke-width:1;stroke-linejoin:miter;stroke-miterlimit:10;"/><path d="M536.9863,551.0182 C482.307,560.7242 413.7398,574.8185 354,592.9102 C329.7706,600.2478 308.2566,608.6264 286.5999,617.9257" fill="none" style="stroke:#000000;stroke-width:1;stroke-dasharray:7,7;"/></g><?plantuml-src dLDDRzim3BtxLx2vT0MMfEdGOikXG9UkG81XA9hkLc1WPDOMQak2AFTZm_xxAFaZSO0TjfCfyl6HVAIFmMbWstX5It2edh0WdYkRQrDCnJPXpbw9mzESNWCPrjRmlBAOavy5NfwTBgPdfv-ou_yZyeqnBT7v-SNqulJiduZISyh4aIoIB1OVFauNYujpeRacreK1JyZM29Kd9lzCaTvJeJbu398sr-RPgcG2KuqcQCNmKkgA0FDO5J3OMgi-wmrSiwrqbu8c1oxHKmvA1cfgyZpBZa99jPIgK9lio7aiQeGAtsmJW6iAQ33Z9sqSUgmXfqTigd1ZJVY6aZRPeE4DUVqusKD9bTo-n7uUiMBQYsn5fSBRnkGhMraFCfbX2OauMT111ldIAmuhMzUnvtlq1ONuTDO84AwyAdKW5HfFMHQiWs1XQuFC3hds4f3qh5i8J7QCN-KMfAi982SRVcKWMlIy1qZo2TWUq0YumqbyE94nrqPP9qeFq2kd7ypdE7diTaXQvwa89xHWij-xndi1Ld902TKvulkmzRkzEu5DmAAVarlxeBaAkUpOkiot1xEkwoRWLfQmCUYuj24nzCSqejXdk4KlzngXBbb_1LvhsNLGPGlEXzSeOHYoTXN5SUIydhMYcA9QfsICPEgEkTEeUnqgj3QIXt8RycFTVrydS6Zq63GlgN8f58rnxAQ91mTtjokGU_oXsZxRgjufQIbhRmMcqykzinYiv1ys3KlGHWUDbVv9xz3fasmNIyXsSu9hDq2-aoRh8n4r_EhB_kUFZMdvdPgMfjj9-qcUFU67x0F_pXmF8rLAwQ2IXdt1xq65rvCnoMv5WvNyKUeHC0ayU6QpooZY7m00?></g></svg>