<svg xmlns="http://www.w3.org/2000/svg" xmlns:xlink="http://www.w3.org/1999/xlink" contentStyleType="text/css" data-diagram-type="CLASS" height="742px" preserveAspectRatio="none" style="width:1232px;height:742px;" version="1.1" viewBox="0 0 1232 742" width="1232px" zoomAndPan="magnify"><?plantuml 1.2026.6?><defs/><g><g class="title" data-source-line="137"><text fill="#000000" font-family="'sans-serif'" font-size="22" font-weight="700" lengthAdjust="spacing" textLength="352.1826" x="439.1587" y="36.2695">Extension Command Public API</text></g><!--class Extension--><g class="entity" data-qualified-name="Extension" data-source-line="139" id="ent0001"><rect fill="#FFFFFF" height="109.9531" rx="2.5" ry="2.5" style="stroke:#000000;stroke-width:1;" width="245.8506" x="496.5" y="63.9102"/><ellipse cx="582.4902" cy="77.9102" fill="#FFFFFF" rx="9" ry="9" style="stroke:#000000;stroke-width:1;"/><path d="M578.918,74.1753 L578.918,72.0171 L586.2974,72.0171 L586.2974,74.1753 L583.832,74.1753 L583.832,82.252 L586.2974,82.252 L586.2974,84.4102 L578.918,84.4102 L578.918,82.252 L581.3833,82.252 L581.3833,74.1753 Z " fill="#000000"/><text fill="#000000" font-family="'sans-serif'" font-size="14" font-style="italic" lengthAdjust="spacing" textLength="66.3701" x="599.9902" y="83.2012">Extension</text><line style="stroke:#000000;stroke-width:1;" x1="497.5" x2="741.3506" y1="91.9102" y2="91.9102"/><line style="stroke:#000000;stroke-width:1;" x1="497.5" x2="741.3506" y1="99.9102" y2="99.9102"/><text fill="#000000" font-family="'sans-serif'" font-size="14" lengthAdjust="spacing" textLength="81.9219" x="502.5" y="117.4453">+id(): String</text><text fill="#000000" font-family="'sans-serif'" font-size="14" lengthAdjust="spacing" textLength="233.8506" x="502.5" y="133.9336">+initialize(api: ExtensionApi): void</text><text fill="#000000" font-family="'sans-serif'" font-size="14" lengthAdjust="spacing" textLength="107.6934" x="502.5" y="150.4219">+onLoad(): void</text><text fill="#000000" font-family="'sans-serif'" font-size="14" lengthAdjust="spacing" textLength="122.6641" x="502.5" y="166.9102">+onUnload(): void</text></g><!--class ExtensionApi--><g class="entity" data-qualified-name="ExtensionApi" data-source-line="145" id="ent0002"><rect fill="#FFFFFF" height="60.4883" rx="2.5" ry="2.5" style="stroke:#000000;stroke-width:1;" width="504.8164" x="367" y="228.9102"/><ellipse cx="571.2144" cy="242.9102" fill="#FFFFFF" rx="9" ry="9" style="stroke:#000000;stroke-width:1;"/><path d="M567.6421,239.1753 L567.6421,237.0171 L575.0215,237.0171 L575.0215,239.1753 L572.5562,239.1753 L572.5562,247.252 L575.0215,247.252 L575.0215,249.4102 L567.6421,249.4102 L567.6421,247.252 L570.1074,247.252 L570.1074,239.1753 Z " fill="#000000"/><text fill="#000000" font-family="'sans-serif'" font-size="14" font-style="italic" lengthAdjust="spacing" textLength="88.8877" x="588.7144" y="248.2012">ExtensionApi</text><line style="stroke:#000000;stroke-width:1;" x1="368" x2="870.8164" y1="256.9102" y2="256.9102"/><line style="stroke:#000000;stroke-width:1;" x1="368" x2="870.8164" y1="264.9102" y2="264.9102"/><text fill="#000000" font-family="'sans-serif'" font-size="14" lengthAdjust="spacing" textLength="492.8164" x="373" y="282.4453">+registerCommand(name: String, options: SlashCommandOptions): void</text></g><!--class SlashCommandOptions--><g class="entity" data-qualified-name="SlashCommandOptions" data-source-line="148" id="ent0003"><rect fill="#FFFFFF" height="106.5371" rx="2.5" ry="2.5" style="stroke:#000000;stroke-width:1;" width="411.6221" x="413.5" y="343.9102"/><ellipse cx="536.4624" cy="364.4463" fill="#FFFFFF" rx="9" ry="9" style="stroke:#000000;stroke-width:1;"/><path d="M538.9355,370.5894 Q538.3545,370.8882 537.7153,371.0376 Q537.0762,371.187 536.3706,371.187 Q533.8638,371.187 532.5439,369.5352 Q531.2241,367.8833 531.2241,364.7622 Q531.2241,361.6328 532.5439,359.981 Q533.8638,358.3291 536.3706,358.3291 Q537.0762,358.3291 537.7236,358.4785 Q538.3711,358.6279 538.9355,358.9268 L538.9355,361.6494 Q538.3047,361.0684 537.7112,360.7986 Q537.1177,360.5288 536.4868,360.5288 Q535.1421,360.5288 534.4573,361.5955 Q533.7725,362.6621 533.7725,364.7622 Q533.7725,366.854 534.4573,367.9207 Q535.1421,368.9873 536.4868,368.9873 Q537.1177,368.9873 537.7112,368.7175 Q538.3047,368.4478 538.9355,367.8667 Z " fill="#000000"/><text fill="#000000" font-family="Verdana" font-size="12" font-style="italic" lengthAdjust="spacing" textLength="53.8711" x="606.1255" y="360.9746">&#171;record&#187;</text><text fill="#000000" font-family="'sans-serif'" font-size="14" lengthAdjust="spacing" textLength="158.1973" x="553.9624" y="377.0293">SlashCommandOptions</text><line style="stroke:#000000;stroke-width:1;" x1="414.5" x2="824.1221" y1="384.9824" y2="384.9824"/><text fill="#000000" font-family="'sans-serif'" font-size="14" lengthAdjust="spacing" textLength="136.0352" x="419.5" y="402.5176">+description: String</text><text fill="#000000" font-family="'sans-serif'" font-size="14" lengthAdjust="spacing" textLength="399.6221" x="419.5" y="419.0059">+argumentCompleter: SlashCommandArgumentCompleter</text><text fill="#000000" font-family="'sans-serif'" font-size="14" lengthAdjust="spacing" textLength="229.3799" x="419.5" y="435.4941">+handler: SlashCommandHandler</text><line style="stroke:#000000;stroke-width:1;" x1="414.5" x2="824.1221" y1="442.4473" y2="442.4473"/></g><!--class SlashCommandHandler--><g class="entity" data-qualified-name="SlashCommandHandler" data-source-line="153" id="ent0004"><rect fill="#FFFFFF" height="73.5605" rx="2.5" ry="2.5" style="stroke:#000000;stroke-width:1;" width="604.6621" x="11" y="505.9102"/><ellipse cx="230.6328" cy="526.4463" fill="#FFFFFF" rx="9" ry="9" style="stroke:#000000;stroke-width:1;"/><path d="M227.0605,522.7114 L227.0605,520.5532 L234.4399,520.5532 L234.4399,522.7114 L231.9746,522.7114 L231.9746,530.7881 L234.4399,530.7881 L234.4399,532.9463 L227.0605,532.9463 L227.0605,530.7881 L229.5259,530.7881 L229.5259,522.7114 Z " fill="#000000"/><text fill="#000000" font-family="Verdana" font-size="12" font-style="italic" lengthAdjust="spacing" textLength="131.4551" x="261.3535" y="522.9746">&#171;functional interface&#187;</text><text fill="#000000" font-family="'sans-serif'" font-size="14" font-style="italic" lengthAdjust="spacing" textLength="157.8965" x="248.1328" y="539.0293">SlashCommandHandler</text><line style="stroke:#000000;stroke-width:1;" x1="12" x2="614.6621" y1="546.9824" y2="546.9824"/><line style="stroke:#000000;stroke-width:1;" x1="12" x2="614.6621" y1="554.9824" y2="554.9824"/><text fill="#000000" font-family="'sans-serif'" font-size="14" lengthAdjust="spacing" textLength="592.6621" x="17" y="572.5176">+handle(arguments: String, context: SlashCommandContext): CompletionStage&lt;Void&gt;</text></g><!--class SlashCommandArgumentCompleter--><g class="entity" data-qualified-name="SlashCommandArgumentCompleter" data-source-line="156" id="ent0005"><rect fill="#FFFFFF" height="73.5605" rx="2.5" ry="2.5" style="stroke:#000000;stroke-width:1;" width="582.0146" x="634.5" y="505.9102"/><ellipse cx="800.1665" cy="526.4463" fill="#FFFFFF" rx="9" ry="9" style="stroke:#000000;stroke-width:1;"/><path d="M796.5942,522.7114 L796.5942,520.5532 L803.9736,520.5532 L803.9736,522.7114 L801.5083,522.7114 L801.5083,530.7881 L803.9736,530.7881 L803.9736,532.9463 L796.5942,532.9463 L796.5942,530.7881 L799.0596,530.7881 L799.0596,522.7114 Z " fill="#000000"/><text fill="#000000" font-family="Verdana" font-size="12" font-style="italic" lengthAdjust="spacing" textLength="131.4551" x="873.5298" y="522.9746">&#171;functional interface&#187;</text><text fill="#000000" font-family="'sans-serif'" font-size="14" font-style="italic" lengthAdjust="spacing" textLength="243.1816" x="817.6665" y="539.0293">SlashCommandArgumentCompleter</text><line style="stroke:#000000;stroke-width:1;" x1="635.5" x2="1215.5146" y1="546.9824" y2="546.9824"/><line style="stroke:#000000;stroke-width:1;" x1="635.5" x2="1215.5146" y1="554.9824" y2="554.9824"/><text fill="#000000" font-family="'sans-serif'" font-size="14" lengthAdjust="spacing" textLength="570.0146" x="640.5" y="572.5176">+complete(prefix: String, context: SlashCommandContext): CompletionStage&lt;List&gt;</text></g><!--class SlashCommandCompletion--><g class="entity" data-qualified-name="SlashCommandCompletion" data-source-line="159" id="ent0006"><rect fill="#FFFFFF" height="106.5371" rx="2.5" ry="2.5" style="stroke:#000000;stroke-width:1;" width="211.3877" x="820" y="634.9102"/><ellipse cx="833" cy="655.4463" fill="#FFFFFF" rx="9" ry="9" style="stroke:#000000;stroke-width:1;"/><path d="M835.4731,661.5894 Q834.8921,661.8882 834.2529,662.0376 Q833.6138,662.187 832.9082,662.187 Q830.4014,662.187 829.0815,660.5352 Q827.7617,658.8833 827.7617,655.7622 Q827.7617,652.6328 829.0815,650.981 Q830.4014,649.3291 832.9082,649.3291 Q833.6138,649.3291 834.2612,649.4785 Q834.9087,649.6279 835.4731,649.9268 L835.4731,652.6494 Q834.8423,652.0684 834.2488,651.7986 Q833.6553,651.5288 833.0244,651.5288 Q831.6797,651.5288 830.9949,652.5955 Q830.3101,653.6621 830.3101,655.7622 Q830.3101,657.854 830.9949,658.9207 Q831.6797,659.9873 833.0244,659.9873 Q833.6553,659.9873 834.2488,659.7175 Q834.8423,659.4478 835.4731,658.8667 Z " fill="#000000"/><text fill="#000000" font-family="Verdana" font-size="12" font-style="italic" lengthAdjust="spacing" textLength="53.8711" x="909.7583" y="651.9746">&#171;record&#187;</text><text fill="#000000" font-family="'sans-serif'" font-size="14" lengthAdjust="spacing" textLength="183.3877" x="845" y="668.0293">SlashCommandCompletion</text><line style="stroke:#000000;stroke-width:1;" x1="821" x2="1030.3877" y1="675.9824" y2="675.9824"/><text fill="#000000" font-family="'sans-serif'" font-size="14" lengthAdjust="spacing" textLength="95.4707" x="826" y="693.5176">+value: String</text><text fill="#000000" font-family="'sans-serif'" font-size="14" lengthAdjust="spacing" textLength="92.3945" x="826" y="710.0059">+label: String</text><text fill="#000000" font-family="'sans-serif'" font-size="14" lengthAdjust="spacing" textLength="136.0352" x="826" y="726.4941">+description: String</text><line style="stroke:#000000;stroke-width:1;" x1="821" x2="1030.3877" y1="733.4473" y2="733.4473"/></g><!--class SlashCommandContext--><g class="entity" data-qualified-name="SlashCommandContext" data-source-line="164" id="ent0007"><rect fill="#FFFFFF" height="90.0488" rx="2.5" ry="2.5" style="stroke:#000000;stroke-width:1;" width="186.6348" x="516" y="643.4102"/><ellipse cx="529" cy="663.9463" fill="#FFFFFF" rx="9" ry="9" style="stroke:#000000;stroke-width:1;"/><path d="M531.4731,670.0894 Q530.8921,670.3882 530.2529,670.5376 Q529.6138,670.687 528.9082,670.687 Q526.4014,670.687 525.0815,669.0352 Q523.7617,667.3833 523.7617,664.2622 Q523.7617,661.1328 525.0815,659.481 Q526.4014,657.8291 528.9082,657.8291 Q529.6138,657.8291 530.2612,657.9785 Q530.9087,658.1279 531.4731,658.4268 L531.4731,661.1494 Q530.8423,660.5684 530.2488,660.2986 Q529.6553,660.0288 529.0244,660.0288 Q527.6797,660.0288 526.9949,661.0955 Q526.3101,662.1621 526.3101,664.2622 Q526.3101,666.354 526.9949,667.4207 Q527.6797,668.4873 529.0244,668.4873 Q529.6553,668.4873 530.2488,668.2175 Q530.8423,667.9478 531.4731,667.3667 Z " fill="#000000"/><text fill="#000000" font-family="Verdana" font-size="12" font-style="italic" lengthAdjust="spacing" textLength="53.8711" x="593.3818" y="660.4746">&#171;record&#187;</text><text fill="#000000" font-family="'sans-serif'" font-size="14" lengthAdjust="spacing" textLength="158.6348" x="541" y="676.5293">SlashCommandContext</text><line style="stroke:#000000;stroke-width:1;" x1="517" x2="701.6348" y1="684.4824" y2="684.4824"/><text fill="#000000" font-family="'sans-serif'" font-size="14" lengthAdjust="spacing" textLength="161.5947" x="522" y="702.0176">+session: AgentSession</text><text fill="#000000" font-family="'sans-serif'" font-size="14" lengthAdjust="spacing" textLength="153.3027" x="522" y="718.5059">+output: OutputWriter</text><line style="stroke:#000000;stroke-width:1;" x1="517" x2="701.6348" y1="725.459" y2="725.459"/></g><g class="link" data-entity-1="ent0001" data-entity-2="ent0002" data-link-type="dependency" id="lnk8"><polygon fill="#000000" points="619.5,228.5687,623.5,219.5687,619.5,223.5687,615.5,219.5687,619.5,228.5687" style="stroke:#000000;stroke-width:1;stroke-linejoin:miter;stroke-miterlimit:10;"/><path d="M619.5,174.0553 C619.5,192.631 619.5,207.7145 619.5,223.5687" fill="none" style="stroke:#000000;stroke-width:1;stroke-dasharray:7,7;"/><text fill="#000000" font-family="'sans-serif'" font-size="13" lengthAdjust="spacing" textLength="28.5645" x="621.5" y="206.4785">uses</text></g><g class="link" data-entity-1="ent0002" data-entity-2="ent0003" data-link-type="dependency" id="lnk9"><polygon fill="#000000" points="619.5,343.7677,623.5,334.7677,619.5,338.7677,615.5,334.7677,619.5,343.7677" style="stroke:#000000;stroke-width:1;stroke-linejoin:miter;stroke-miterlimit:10;"/><path d="M619.5,289.1928 C619.5,305.0951 619.5,320.2419 619.5,338.7677" fill="none" style="stroke:#000000;stroke-width:1;stroke-dasharray:7,7;"/><text fill="#000000" font-family="'sans-serif'" font-size="13" lengthAdjust="spacing" textLength="28.5645" x="621.5" y="321.4785">uses</text></g><g class="link" data-entity-1="ent0003" data-entity-2="ent0004" data-link-type="aggregation" id="lnk10"><polygon fill="none" points="507.2945,451.0294,500.1638,449.9554,496.4298,456.1245,503.5605,457.1985,507.2945,451.0294" style="stroke:#000000;stroke-width:1;stroke-linejoin:miter;stroke-miterlimit:10;"/><path d="M496.4298,456.1245 C457.5396,474.3622 425.7206,489.2838 390.3341,505.8785" fill="none" style="stroke:#000000;stroke-width:1;"/><text fill="#000000" font-family="'sans-serif'" font-size="13" lengthAdjust="spacing" textLength="53.2061" x="468.5" y="483.4785">contains</text></g><g class="link" data-entity-1="ent0003" data-entity-2="ent0005" data-link-type="aggregation" id="lnk11"><polygon fill="none" points="731.7055,451.0294,735.4395,457.1985,742.5702,456.1245,738.8362,449.9554,731.7055,451.0294" style="stroke:#000000;stroke-width:1;stroke-linejoin:miter;stroke-miterlimit:10;"/><path d="M742.5702,456.1245 C781.4604,474.3622 813.2794,489.2838 848.6659,505.8785" fill="none" style="stroke:#000000;stroke-width:1;"/><text fill="#000000" font-family="'sans-serif'" font-size="13" lengthAdjust="spacing" textLength="53.2061" x="811.5" y="483.4785">contains</text></g><g class="link" data-entity-1="ent0005" data-entity-2="ent0006" data-link-type="dependency" id="lnk12"><polygon fill="#000000" points="925.5,634.6701,929.5,625.6701,925.5,629.6701,921.5,625.6701,925.5,634.6701" style="stroke:#000000;stroke-width:1;stroke-linejoin:miter;stroke-miterlimit:10;"/><path d="M925.5,580.1213 C925.5,596.644 925.5,611.5305 925.5,629.6701" fill="none" style="stroke:#000000;stroke-width:1;stroke-dasharray:7,7;"/><text fill="#000000" font-family="'sans-serif'" font-size="13" lengthAdjust="spacing" textLength="45.5063" x="927.5" y="612.4785">returns</text></g><g class="link" data-entity-1="ent0004" data-entity-2="ent0007" data-link-type="dependency" id="lnk13"><polygon fill="#000000" points="518.4891,643.2883,512.1355,635.7629,513.9899,641.1071,508.6457,642.9615,518.4891,643.2883" style="stroke:#000000;stroke-width:1;stroke-linejoin:miter;stroke-miterlimit:10;"/><path d="M387.8112,579.936 C427.456,599.1557 472.0726,620.7857 513.9899,641.1071" fill="none" style="stroke:#000000;stroke-width:1;stroke-dasharray:7,7;"/><text fill="#000000" font-family="'sans-serif'" font-size="13" lengthAdjust="spacing" textLength="50.8193" x="463.5" y="612.4785">receives</text></g><g class="link" data-entity-1="ent0005" data-entity-2="ent0007" data-link-type="dependency" id="lnk14"><polygon fill="#000000" points="703.1967,644.8612,713.0452,644.782,707.7492,642.7938,709.7374,637.4978,703.1967,644.8612" style="stroke:#000000;stroke-width:1;stroke-linejoin:miter;stroke-miterlimit:10;"/><path d="M846.1677,579.936 C802.7473,599.6539 753.2376,622.1369 707.7492,642.7938" fill="none" style="stroke:#000000;stroke-width:1;stroke-dasharray:7,7;"/><text fill="#000000" font-family="'sans-serif'" font-size="13" lengthAdjust="spacing" textLength="50.8193" x="807.5" y="612.4785">receives</text></g><?plantuml-src dLHDRzim3BtxLt2zDCEQf44FMOqYGD1jM85YBH1iEpCsumYL9K6KqdR3_liOssdinCK-JfR9H_BnaT8fE0Lieyye1OVP0nR4uypcoXH3EPimPf-9mTEOdW8PLjRmE3mxub7WzEBYSdWnVNysER-S3YUJy-dPP3AzJ4xX0x4g37X2jYO5UdAM2QpHpy01bveWfmrfwyY3CYu61ZGvF12vXW_OHqEUrye9W5LE4DO4QyjXbBoHOqdWD2gJl74UYn91uxED0RYaW0OJVf2ywB6KIYkCEdoo9dn12JjPeE45URKwQQ5uZRbzbBvXXPgfvLcABeMtqUJNLbiFmKkyk4IT5YhJo3mFmQjb37IJMRDGFmZEaw22jFjnfnvSsxBSzdeVbrfbCB-_IH9b0laLPctSpmJW7QXyy3Q5XQGrHMqmAYZKadk0JgNxWBbJWjnObLSuQsujLi4jqrUZsyPVVOKbJrFRKw5O_0tZWH7rTbpEmBgmNGOnIEVh1dDN6_S5Abdw871rvKaMAv_Dcd8vSUPLvUrqZBw8fOWjyKwJyEcMd1-wgw2rUFGXz7DjxFJTunTggsYoBH7Ky09z8Lhd7knuyLuJcNgGUzAjUbqRHPE6ekHT1BbTLzz4ezchR8uQ-nElh04EdAULUlflMhSozLdlxFR8u_5jK4Vg34xZadJ7qZVY_ZeLj-CYJCnLy7pxE2tgltgvOv1d98MxwllTgr0DEjbVgD5erjto5ABaIpgsBQXlMnjidyiEXxrRb5QwonFrTs77utubmJ7ma7HhJAdSuX3zGOeTnUF0MlTjL4PgG_zU-J31Rm00?></g></svg>