<svg xmlns="http://www.w3.org/2000/svg" xmlns:xlink="http://www.w3.org/1999/xlink" contentStyleType="text/css" data-diagram-type="CLASS" height="808px" preserveAspectRatio="none" style="width:1169px;height:808px;" version="1.1" viewBox="0 0 1169 808" width="1169px" zoomAndPan="magnify"><?plantuml 1.2026.6?><defs/><g><g class="title" data-source-line="137"><text fill="#000000" font-family="'PingFang SC'" font-size="22" font-weight="700" lengthAdjust="spacing" textLength="315.1001" x="425.95" y="38.32">Extension Command &#20844;&#24320; API</text></g><!--class Extension--><g class="entity" data-qualified-name="Extension" data-source-line="139" id="ent0001"><rect fill="#FFFFFF" height="124" rx="2.5" ry="2.5" style="stroke:#000000;stroke-width:1;" width="229.8655" x="471" y="68.8"/><ellipse cx="550.4874" cy="83.6" fill="#FFFFFF" rx="9" ry="9" style="stroke:#000000;stroke-width:1;"/><path d="M546.9151,79.8651 L546.9151,77.7069 L554.2945,77.7069 L554.2945,79.8651 L551.8292,79.8651 L551.8292,87.9418 L554.2945,87.9418 L554.2945,90.1 L546.9151,90.1 L546.9151,87.9418 L549.3805,87.9418 L549.3805,79.8651 Z " fill="#000000"/><text fill="#000000" font-family="'PingFang SC'" font-size="14" font-style="italic" lengthAdjust="spacing" textLength="63.3907" x="567.9874" y="88.64">Extension</text><line style="stroke:#000000;stroke-width:1;" x1="472" x2="699.8655" y1="98.4" y2="98.4"/><line style="stroke:#000000;stroke-width:1;" x1="472" x2="699.8655" y1="106.4" y2="106.4"/><text fill="#000000" font-family="'PingFang SC'" font-size="14" lengthAdjust="spacing" textLength="76.1573" x="477" y="125.24">+id(): String</text><text fill="#000000" font-family="'PingFang SC'" font-size="14" lengthAdjust="spacing" textLength="217.8655" x="477" y="144.84">+initialize(api: ExtensionApi): void</text><text fill="#000000" font-family="'PingFang SC'" font-size="14" lengthAdjust="spacing" textLength="101.0171" x="477" y="164.44">+onLoad(): void</text><text fill="#000000" font-family="'PingFang SC'" font-size="14" lengthAdjust="spacing" textLength="113.9335" x="477" y="184.04">+onUnload(): void</text></g><!--class ExtensionApi--><g class="entity" data-qualified-name="ExtensionApi" data-source-line="145" id="ent0002"><rect fill="#FFFFFF" height="65.2" rx="2.5" ry="2.5" style="stroke:#000000;stroke-width:1;" width="479.6101" x="346" y="250.8"/><ellipse cx="539.8485" cy="265.6" fill="#FFFFFF" rx="9" ry="9" style="stroke:#000000;stroke-width:1;"/><path d="M536.2763,261.8651 L536.2763,259.7069 L543.6557,259.7069 L543.6557,261.8651 L541.1903,261.8651 L541.1903,269.9418 L543.6557,269.9418 L543.6557,272.1 L536.2763,272.1 L536.2763,269.9418 L538.7416,269.9418 L538.7416,261.8651 Z " fill="#000000"/><text fill="#000000" font-family="'PingFang SC'" font-size="14" font-style="italic" lengthAdjust="spacing" textLength="84.4131" x="557.3485" y="270.64">ExtensionApi</text><line style="stroke:#000000;stroke-width:1;" x1="347" x2="824.6101" y1="280.4" y2="280.4"/><line style="stroke:#000000;stroke-width:1;" x1="347" x2="824.6101" y1="288.4" y2="288.4"/><text fill="#000000" font-family="'PingFang SC'" font-size="14" lengthAdjust="spacing" textLength="467.6101" x="352" y="307.24">+registerCommand(name: String, options: SlashCommandOptions): void</text></g><!--class SlashCommandOptions--><g class="entity" data-qualified-name="SlashCommandOptions" data-source-line="148" id="ent0003"><rect fill="#FFFFFF" height="118.984" rx="2.5" ry="2.5" style="stroke:#000000;stroke-width:1;" width="389.6335" x="391" y="373.8"/><ellipse cx="506.1524" cy="395.892" fill="#FFFFFF" rx="9" ry="9" style="stroke:#000000;stroke-width:1;"/><path d="M508.6255,402.0351 Q508.0445,402.3339 507.4053,402.4833 Q506.7661,402.6327 506.0606,402.6327 Q503.5537,402.6327 502.2339,400.9809 Q500.9141,399.329 500.9141,396.2079 Q500.9141,393.0785 502.2339,391.4267 Q503.5537,389.7748 506.0606,389.7748 Q506.7661,389.7748 507.4136,389.9242 Q508.0611,390.0736 508.6255,390.3725 L508.6255,393.0951 Q507.9947,392.5141 507.4011,392.2443 Q506.8076,391.9745 506.1768,391.9745 Q504.8321,391.9745 504.1472,393.0412 Q503.4624,394.1078 503.4624,396.2079 Q503.4624,398.2997 504.1472,399.3664 Q504.8321,400.433 506.1768,400.433 Q506.8076,400.433 507.4011,400.1632 Q507.9947,399.8935 508.6255,399.3124 Z " fill="#000000"/><text fill="#000000" font-family="Verdana" font-size="12" font-style="italic" lengthAdjust="spacing" textLength="53.8711" x="572.6312" y="390.8645">&#171;record&#187;</text><text fill="#000000" font-family="'PingFang SC'" font-size="14" lengthAdjust="spacing" textLength="151.8288" x="523.6524" y="408.224">SlashCommandOptions</text><line style="stroke:#000000;stroke-width:1;" x1="392" x2="779.6335" y1="417.984" y2="417.984"/><text fill="#000000" font-family="'PingFang SC'" font-size="14" lengthAdjust="spacing" textLength="127.6577" x="397" y="436.824">+description: String</text><text fill="#000000" font-family="'PingFang SC'" font-size="14" lengthAdjust="spacing" textLength="377.6335" x="397" y="456.424">+argumentCompleter: SlashCommandArgumentCompleter</text><text fill="#000000" font-family="'PingFang SC'" font-size="14" lengthAdjust="spacing" textLength="215.9208" x="397" y="476.024">+handler: SlashCommandHandler</text><line style="stroke:#000000;stroke-width:1;" x1="392" x2="779.6335" y1="484.784" y2="484.784"/></g><!--class SlashCommandHandler--><g class="entity" data-qualified-name="SlashCommandHandler" data-source-line="153" id="ent0004"><rect fill="#FFFFFF" height="79.784" rx="2.5" ry="2.5" style="stroke:#000000;stroke-width:1;" width="571.74" x="11" y="550.8"/><ellipse cx="217.4478" cy="572.892" fill="#FFFFFF" rx="9" ry="9" style="stroke:#000000;stroke-width:1;"/><path d="M213.8756,569.1571 L213.8756,566.9989 L221.255,566.9989 L221.255,569.1571 L218.7896,569.1571 L218.7896,577.2338 L221.255,577.2338 L221.255,579.392 L213.8756,579.392 L213.8756,577.2338 L216.3409,577.2338 L216.3409,569.1571 Z " fill="#000000"/><text fill="#000000" font-family="Verdana" font-size="12" font-style="italic" lengthAdjust="spacing" textLength="131.4551" x="244.8925" y="567.8645">&#171;functional interface&#187;</text><text fill="#000000" font-family="'PingFang SC'" font-size="14" font-style="italic" lengthAdjust="spacing" textLength="151.3443" x="234.9478" y="585.224">SlashCommandHandler</text><line style="stroke:#000000;stroke-width:1;" x1="12" x2="581.74" y1="594.984" y2="594.984"/><line style="stroke:#000000;stroke-width:1;" x1="12" x2="581.74" y1="602.984" y2="602.984"/><text fill="#000000" font-family="'PingFang SC'" font-size="14" lengthAdjust="spacing" textLength="559.74" x="17" y="621.824">+handle(arguments: String, context: SlashCommandContext): CompletionStage&lt;Void&gt;</text></g><!--class SlashCommandArgumentCompleter--><g class="entity" data-qualified-name="SlashCommandArgumentCompleter" data-source-line="156" id="ent0005"><rect fill="#FFFFFF" height="79.784" rx="2.5" ry="2.5" style="stroke:#000000;stroke-width:1;" width="552.1246" x="601" y="550.8"/><ellipse cx="757.4412" cy="572.892" fill="#FFFFFF" rx="9" ry="9" style="stroke:#000000;stroke-width:1;"/><path d="M753.8689,569.1571 L753.8689,566.9989 L761.2483,566.9989 L761.2483,569.1571 L758.783,569.1571 L758.783,577.2338 L761.2483,577.2338 L761.2483,579.392 L753.8689,579.392 L753.8689,577.2338 L756.3343,577.2338 L756.3343,569.1571 Z " fill="#000000"/><text fill="#000000" font-family="Verdana" font-size="12" font-style="italic" lengthAdjust="spacing" textLength="131.4551" x="825.0847" y="567.8645">&#171;functional interface&#187;</text><text fill="#000000" font-family="'PingFang SC'" font-size="14" font-style="italic" lengthAdjust="spacing" textLength="231.7422" x="774.9412" y="585.224">SlashCommandArgumentCompleter</text><line style="stroke:#000000;stroke-width:1;" x1="602" x2="1152.1246" y1="594.984" y2="594.984"/><line style="stroke:#000000;stroke-width:1;" x1="602" x2="1152.1246" y1="602.984" y2="602.984"/><text fill="#000000" font-family="'PingFang SC'" font-size="14" lengthAdjust="spacing" textLength="540.1246" x="607" y="621.824">+complete(prefix: String, context: SlashCommandContext): CompletionStage&lt;List&gt;</text></g><!--class SlashCommandCompletion--><g class="entity" data-qualified-name="SlashCommandCompletion" data-source-line="159" id="ent0006"><rect fill="#FFFFFF" height="118.984" rx="2.5" ry="2.5" style="stroke:#000000;stroke-width:1;" width="203.4888" x="775.5" y="688.8"/><ellipse cx="788.5" cy="710.892" fill="#FFFFFF" rx="9" ry="9" style="stroke:#000000;stroke-width:1;"/><path d="M790.9731,717.0351 Q790.3921,717.3339 789.7529,717.4833 Q789.1138,717.6327 788.4082,717.6327 Q785.9014,717.6327 784.5815,715.9809 Q783.2617,714.329 783.2617,711.2079 Q783.2617,708.0785 784.5815,706.4267 Q785.9014,704.7748 788.4082,704.7748 Q789.1138,704.7748 789.7612,704.9242 Q790.4087,705.0736 790.9731,705.3725 L790.9731,708.0951 Q790.3423,707.5141 789.7488,707.2443 Q789.1553,706.9745 788.5244,706.9745 Q787.1797,706.9745 786.4949,708.0412 Q785.8101,709.1078 785.8101,711.2079 Q785.8101,713.2997 786.4949,714.3664 Q787.1797,715.433 788.5244,715.433 Q789.1553,715.433 789.7488,715.1632 Q790.3423,714.8935 790.9731,714.3124 Z " fill="#000000"/><text fill="#000000" font-family="Verdana" font-size="12" font-style="italic" lengthAdjust="spacing" textLength="53.8711" x="861.3088" y="705.8645">&#171;record&#187;</text><text fill="#000000" font-family="'PingFang SC'" font-size="14" lengthAdjust="spacing" textLength="175.4888" x="800.5" y="723.224">SlashCommandCompletion</text><line style="stroke:#000000;stroke-width:1;" x1="776.5" x2="977.9888" y1="732.984" y2="732.984"/><text fill="#000000" font-family="'PingFang SC'" font-size="14" lengthAdjust="spacing" textLength="88.8889" x="781.5" y="751.824">+value: String</text><text fill="#000000" font-family="'PingFang SC'" font-size="14" lengthAdjust="spacing" textLength="85.7963" x="781.5" y="771.424">+label: String</text><text fill="#000000" font-family="'PingFang SC'" font-size="14" lengthAdjust="spacing" textLength="127.6577" x="781.5" y="791.024">+description: String</text><line style="stroke:#000000;stroke-width:1;" x1="776.5" x2="977.9888" y1="799.784" y2="799.784"/></g><!--class SlashCommandContext--><g class="entity" data-qualified-name="SlashCommandContext" data-source-line="164" id="ent0007"><rect fill="#FFFFFF" height="99.384" rx="2.5" ry="2.5" style="stroke:#000000;stroke-width:1;" width="180.2725" x="485" y="698.8"/><ellipse cx="498" cy="720.892" fill="#FFFFFF" rx="9" ry="9" style="stroke:#000000;stroke-width:1;"/><path d="M500.4731,727.0351 Q499.8921,727.3339 499.2529,727.4833 Q498.6138,727.6327 497.9082,727.6327 Q495.4014,727.6327 494.0815,725.9809 Q492.7617,724.329 492.7617,721.2079 Q492.7617,718.0785 494.0815,716.4267 Q495.4014,714.7748 497.9082,714.7748 Q498.6138,714.7748 499.2612,714.9242 Q499.9087,715.0736 500.4731,715.3725 L500.4731,718.0951 Q499.8423,717.5141 499.2488,717.2443 Q498.6553,716.9745 498.0244,716.9745 Q496.6797,716.9745 495.9949,718.0412 Q495.3101,719.1078 495.3101,721.2079 Q495.3101,723.2997 495.9949,724.3664 Q496.6797,725.433 498.0244,725.433 Q498.6553,725.433 499.2488,725.1632 Q499.8423,724.8935 500.4731,724.3124 Z " fill="#000000"/><text fill="#000000" font-family="Verdana" font-size="12" font-style="italic" lengthAdjust="spacing" textLength="53.8711" x="559.2007" y="715.8645">&#171;record&#187;</text><text fill="#000000" font-family="'PingFang SC'" font-size="14" lengthAdjust="spacing" textLength="152.2725" x="510" y="733.224">SlashCommandContext</text><line style="stroke:#000000;stroke-width:1;" x1="486" x2="664.2725" y1="742.984" y2="742.984"/><text fill="#000000" font-family="'PingFang SC'" font-size="14" lengthAdjust="spacing" textLength="153.8952" x="491" y="761.824">+session: AgentSession</text><text fill="#000000" font-family="'PingFang SC'" font-size="14" lengthAdjust="spacing" textLength="142.9737" x="491" y="781.424">+output: OutputWriter</text><line style="stroke:#000000;stroke-width:1;" x1="486" x2="664.2725" y1="790.184" y2="790.184"/></g><g class="link" data-entity-1="ent0001" data-entity-2="ent0002" data-link-type="dependency" id="lnk8"><polygon fill="#000000" points="586,250.4288,590,241.4288,586,245.4288,582,241.4288,586,250.4288" style="stroke:#000000;stroke-width:1;stroke-linejoin:miter;stroke-miterlimit:10;"/><path d="M586,193.0141 C586,212.7082 586,228.732 586,245.4288" fill="none" style="stroke:#000000;stroke-width:1;stroke-dasharray:7,7;"/><text fill="#000000" font-family="'PingFang SC'" font-size="13" lengthAdjust="spacing" textLength="27.6549" x="588" y="226.58">uses</text></g><g class="link" data-entity-1="ent0002" data-entity-2="ent0003" data-link-type="dependency" id="lnk9"><polygon fill="#000000" points="586,373.7351,590,364.7351,586,368.7351,582,364.7351,586,373.7351" style="stroke:#000000;stroke-width:1;stroke-linejoin:miter;stroke-miterlimit:10;"/><path d="M586,316.0497 C586,332.8671 586,349.0626 586,368.7351" fill="none" style="stroke:#000000;stroke-width:1;stroke-dasharray:7,7;"/><text fill="#000000" font-family="'PingFang SC'" font-size="13" lengthAdjust="spacing" textLength="27.6549" x="588" y="349.58">uses</text></g><g class="link" data-entity-1="ent0003" data-entity-2="ent0004" data-link-type="aggregation" id="lnk10"><polygon fill="none" points="477.1533,492.8663,469.9743,492.1868,466.5859,498.5522,473.7649,499.2317,477.1533,492.8663" style="stroke:#000000;stroke-width:1;stroke-linejoin:miter;stroke-miterlimit:10;"/><path d="M466.5859,498.5522 C430.7447,517.837 402.3495,533.1154 369.8569,550.5984" fill="none" style="stroke:#000000;stroke-width:1;"/><text fill="#000000" font-family="'PingFang SC'" font-size="13" lengthAdjust="spacing" textLength="51.1226" x="444" y="526.58">contains</text></g><g class="link" data-entity-1="ent0003" data-entity-2="ent0005" data-link-type="aggregation" id="lnk11"><polygon fill="none" points="695.6,492.8663,699.0066,499.222,706.1837,498.5219,702.777,492.1662,695.6,492.8663" style="stroke:#000000;stroke-width:1;stroke-linejoin:miter;stroke-miterlimit:10;"/><path d="M706.1837,498.5219 C742.2729,517.8067 770.9215,533.1154 803.6389,550.5984" fill="none" style="stroke:#000000;stroke-width:1;"/><text fill="#000000" font-family="'PingFang SC'" font-size="13" lengthAdjust="spacing" textLength="51.1226" x="769" y="526.58">contains</text></g><g class="link" data-entity-1="ent0005" data-entity-2="ent0006" data-link-type="dependency" id="lnk12"><polygon fill="#000000" points="877,688.6645,881,679.6645,877,683.6645,873,679.6645,877,688.6645" style="stroke:#000000;stroke-width:1;stroke-linejoin:miter;stroke-miterlimit:10;"/><path d="M877,631.0392 C877,648.4938 877,664.4126 877,683.6645" fill="none" style="stroke:#000000;stroke-width:1;stroke-dasharray:7,7;"/><text fill="#000000" font-family="'PingFang SC'" font-size="13" lengthAdjust="spacing" textLength="42.4853" x="879" y="664.58">returns</text></g><g class="link" data-entity-1="ent0004" data-entity-2="ent0007" data-link-type="dependency" id="lnk13"><polygon fill="#000000" points="488.2458,698.7738,482.3437,690.8893,483.882,696.3329,478.4383,697.8712,488.2458,698.7738" style="stroke:#000000;stroke-width:1;stroke-linejoin:miter;stroke-miterlimit:10;"/><path d="M366.7923,630.8385 C403.6242,651.4405 444.7963,674.4702 483.882,696.3329" fill="none" style="stroke:#000000;stroke-width:1;stroke-dasharray:7,7;"/><text fill="#000000" font-family="'PingFang SC'" font-size="13" lengthAdjust="spacing" textLength="49.7224" x="438" y="664.58">receives</text></g><g class="link" data-entity-1="ent0005" data-entity-2="ent0007" data-link-type="dependency" id="lnk14"><polygon fill="#000000" points="665.0951,700.91,674.9278,700.3462,669.5404,698.6211,671.2656,693.2337,665.0951,700.91" style="stroke:#000000;stroke-width:1;stroke-linejoin:miter;stroke-miterlimit:10;"/><path d="M801.1825,630.8385 C759.8604,652.1152 712.8989,676.2958 669.5404,698.6211" fill="none" style="stroke:#000000;stroke-width:1;stroke-dasharray:7,7;"/><text fill="#000000" font-family="'PingFang SC'" font-size="13" lengthAdjust="spacing" textLength="49.7224" x="764" y="664.58">receives</text></g><?plantuml-src dLJDRjim3BxxATXUcc5Dqg27B4OH8CXMh42n5WYsdHcRSOJAaY3AQRjXm2vxcpt2NgVlCSPscZXniP-JPV8Z-V4ZfHDm2jWMFg4O72Ptc17t4vigatNbR4AVVI86Jtrw26HOMSFzyEY8Uu7Zy_DHztpuvdHmDXfs1uEpuUbWC1n59_2MM6K6F25R4mCzECi4rkX7u81pJP3IYhHrv44PLmG6D2dS4RcQ3zXxGvwNoWc0LKeGbWHBow4N7San9t0QbOcEdCSiHz3uQ8i0d5D0Wn7VILxqc4kb1HOwN5eJFg247TzATvTeCfXDZtTmlCJKteiF5gYPTZnpKIRpjZ3fr6hh8NWqB2xHPmULQ6IUXE3Ll0XqbLWpKry8pgAWWZJyRgCVJ6sUhxjz-l7pwTTtcDnUHP4oWVm2artSrmZWDQYqyog6cQGrMMKmAYZKahk3JiNRW8bJWbnPbPOuQwujbi4xfez6xng_jHMMF7LjJvbYyTUCEqRqst0v1Ul2UXt489qlQynDPTmMA6LfWy35XITPhNGyhikbn8bNfRVHCVgio4LiYNUQX4-pv6JVNGOjnQFteUyhOwFl5hzGMnGcMHD13S_GPw9Lxiw65syraQa7kIdDgjFAA9hK52NlBCZzklWa6erVP7FGs9zu9JMmupmjrCD_qxgMgOzRPxT57evlXRgWnk0qpaatB6qZRgzJSZiimiHS1a_MpzEi-gkMkmZoaCHmKtu_UnNAGKVR2zNhZPjR7aCX-QA6RGrgszOQs-QotMxh5iMbxl98_LtOuRXVI708t2UzCwPORd4e_5wA3SN3m4htTLH2QaN_Nda_mMy0?></g></svg>