<svg xmlns="http://www.w3.org/2000/svg" xmlns:xlink="http://www.w3.org/1999/xlink" contentStyleType="text/css" data-diagram-type="CLASS" height="581px" preserveAspectRatio="none" style="width:567px;height:581px;" version="1.1" viewBox="0 0 567 581" width="567px" zoomAndPan="magnify"><?plantuml 1.2026.6?><defs/><g><g class="title" data-source-line="188"><text fill="#000000" font-family="'PingFang SC'" font-size="22" font-weight="700" lengthAdjust="spacing" textLength="359.91" x="102.545" y="38.32">Extension Command &#20869;&#37096;&#25968;&#25454;&#27169;&#22411;</text></g><!--class SlashCommandOptions--><g class="entity" data-qualified-name="SlashCommandOptions" data-source-line="190" id="ent0001"><rect fill="#FFFFFF" height="118.984" rx="2.5" ry="2.5" style="stroke:#000000;stroke-width:1;" width="179.8288" x="20.5" y="68.8"/><ellipse cx="33.5" cy="90.892" fill="#FFFFFF" rx="9" ry="9" style="stroke:#000000;stroke-width:1;"/><path d="M35.9731,97.0351 Q35.3921,97.3339 34.7529,97.4833 Q34.1138,97.6327 33.4082,97.6327 Q30.9014,97.6327 29.5815,95.9809 Q28.2617,94.329 28.2617,91.2079 Q28.2617,88.0785 29.5815,86.4267 Q30.9014,84.7748 33.4082,84.7748 Q34.1138,84.7748 34.7612,84.9242 Q35.4087,85.0736 35.9731,85.3725 L35.9731,88.0951 Q35.3423,87.5141 34.7488,87.2443 Q34.1553,86.9745 33.5244,86.9745 Q32.1797,86.9745 31.4949,88.0412 Q30.8101,89.1078 30.8101,91.2079 Q30.8101,93.2997 31.4949,94.3664 Q32.1797,95.433 33.5244,95.433 Q34.1553,95.433 34.7488,95.1632 Q35.3423,94.8935 35.9731,94.3124 Z " fill="#000000"/><text fill="#000000" font-family="Verdana" font-size="12" font-style="italic" lengthAdjust="spacing" textLength="50.8535" x="95.9876" y="85.8645">&#171;public&#187;</text><text fill="#000000" font-family="'PingFang SC'" font-size="14" lengthAdjust="spacing" textLength="151.8288" x="45.5" y="103.224">SlashCommandOptions</text><line style="stroke:#000000;stroke-width:1;" x1="21.5" x2="199.3288" y1="112.984" y2="112.984"/><text fill="#000000" font-family="'PingFang SC'" font-size="14" lengthAdjust="spacing" textLength="72.2933" x="26.5" y="131.824">description</text><text fill="#000000" font-family="'PingFang SC'" font-size="14" lengthAdjust="spacing" textLength="129.2033" x="26.5" y="151.424">argumentCompleter</text><text fill="#000000" font-family="'PingFang SC'" font-size="14" lengthAdjust="spacing" textLength="47.8884" x="26.5" y="171.024">handler</text><line style="stroke:#000000;stroke-width:1;" x1="21.5" x2="199.3288" y1="179.784" y2="179.784"/></g><!--class RegisteredSlashCommand--><g class="entity" data-qualified-name="RegisteredSlashCommand" data-source-line="195" id="ent0002"><rect fill="#FFFFFF" height="158.184" rx="2.5" ry="2.5" style="stroke:#000000;stroke-width:1;" width="199.2229" x="11" y="245.8"/><ellipse cx="24" cy="267.892" fill="#FFFFFF" rx="9" ry="9" style="stroke:#000000;stroke-width:1;"/><path d="M26.4731,274.0351 Q25.8921,274.3339 25.2529,274.4833 Q24.6138,274.6327 23.9082,274.6327 Q21.4014,274.6327 20.0815,272.9809 Q18.7617,271.329 18.7617,268.2079 Q18.7617,265.0785 20.0815,263.4267 Q21.4014,261.7748 23.9082,261.7748 Q24.6138,261.7748 25.2612,261.9242 Q25.9087,262.0736 26.4731,262.3725 L26.4731,265.0951 Q25.8423,264.5141 25.2488,264.2443 Q24.6553,263.9745 24.0244,263.9745 Q22.6797,263.9745 21.9949,265.0412 Q21.3101,266.1078 21.3101,268.2079 Q21.3101,270.2997 21.9949,271.3664 Q22.6797,272.433 24.0244,272.433 Q24.6553,272.433 25.2488,272.1632 Q25.8423,271.8935 26.4731,271.3124 Z " fill="#000000"/><text fill="#000000" font-family="Verdana" font-size="12" font-style="italic" lengthAdjust="spacing" textLength="61.4473" x="90.8878" y="262.8645">&#171;internal&#187;</text><text fill="#000000" font-family="'PingFang SC'" font-size="14" lengthAdjust="spacing" textLength="171.2229" x="36" y="280.224">RegisteredSlashCommand</text><line style="stroke:#000000;stroke-width:1;" x1="12" x2="209.2229" y1="289.984" y2="289.984"/><text fill="#000000" font-family="'PingFang SC'" font-size="14" lengthAdjust="spacing" textLength="98.1121" x="17" y="308.824">ownerId: String</text><text fill="#000000" font-family="'PingFang SC'" font-size="14" lengthAdjust="spacing" textLength="82.4769" x="17" y="328.424">name: String</text><text fill="#000000" font-family="'PingFang SC'" font-size="14" lengthAdjust="spacing" textLength="119.3305" x="17" y="348.024">description: String</text><text fill="#000000" font-family="'PingFang SC'" font-size="14" lengthAdjust="spacing" textLength="129.2033" x="17" y="367.624">argumentCompleter</text><text fill="#000000" font-family="'PingFang SC'" font-size="14" lengthAdjust="spacing" textLength="47.8884" x="17" y="387.224">handler</text><line style="stroke:#000000;stroke-width:1;" x1="12" x2="209.2229" y1="395.984" y2="395.984"/></g><!--class CommandRegistrySnapshot--><g class="entity" data-qualified-name="CommandRegistrySnapshot" data-source-line="202" id="ent0003"><rect fill="#FFFFFF" height="118.984" rx="2.5" ry="2.5" style="stroke:#000000;stroke-width:1;" width="215.7758" x="203.5" y="461.8"/><ellipse cx="219.8386" cy="483.892" fill="#FFFFFF" rx="9" ry="9" style="stroke:#000000;stroke-width:1;"/><path d="M222.3118,490.0351 Q221.7307,490.3339 221.0916,490.4833 Q220.4524,490.6327 219.7468,490.6327 Q217.24,490.6327 215.9202,488.9809 Q214.6003,487.329 214.6003,484.2079 Q214.6003,481.0785 215.9202,479.4267 Q217.24,477.7748 219.7468,477.7748 Q220.4524,477.7748 221.0999,477.9242 Q221.7473,478.0736 222.3118,478.3725 L222.3118,481.0951 Q221.6809,480.5141 221.0874,480.2443 Q220.4939,479.9745 219.863,479.9745 Q218.5183,479.9745 217.8335,481.0412 Q217.1487,482.1078 217.1487,484.2079 Q217.1487,486.2997 217.8335,487.3664 Q218.5183,488.433 219.863,488.433 Q220.4939,488.433 221.0874,488.1632 Q221.6809,487.8935 222.3118,487.3124 Z " fill="#000000"/><text fill="#000000" font-family="Verdana" font-size="12" font-style="italic" lengthAdjust="spacing" textLength="61.4473" x="292.0352" y="478.8645">&#171;internal&#187;</text><text fill="#000000" font-family="'PingFang SC'" font-size="14" lengthAdjust="spacing" textLength="180.3566" x="232.5805" y="496.224">CommandRegistrySnapshot</text><line style="stroke:#000000;stroke-width:1;" x1="204.5" x2="418.2758" y1="505.984" y2="505.984"/><text fill="#000000" font-family="'PingFang SC'" font-size="14" lengthAdjust="spacing" textLength="82.3957" x="209.5" y="524.824">version: long</text><text fill="#000000" font-family="'PingFang SC'" font-size="14" lengthAdjust="spacing" textLength="161.7127" x="209.5" y="544.424">commandsByName: Map</text><text fill="#000000" font-family="'PingFang SC'" font-size="14" lengthAdjust="spacing" textLength="203.7758" x="209.5" y="564.024">commandNamesByOwner: Map</text><line style="stroke:#000000;stroke-width:1;" x1="204.5" x2="418.2758" y1="572.784" y2="572.784"/></g><!--class SlashCommandRegistry--><g class="entity" data-qualified-name="SlashCommandRegistry" data-source-line="207" id="ent0004"><rect fill="#FFFFFF" height="138.584" rx="2.5" ry="2.5" style="stroke:#000000;stroke-width:1;" width="322.6659" x="228" y="255.3"/><ellipse cx="308.3701" cy="277.392" fill="#FFFFFF" rx="9" ry="9" style="stroke:#000000;stroke-width:1;"/><path d="M310.8432,283.5351 Q310.2622,283.8339 309.623,283.9833 Q308.9838,284.1327 308.2783,284.1327 Q305.7714,284.1327 304.4516,282.4809 Q303.1318,280.829 303.1318,277.7079 Q303.1318,274.5785 304.4516,272.9267 Q305.7714,271.2748 308.2783,271.2748 Q308.9838,271.2748 309.6313,271.4242 Q310.2788,271.5736 310.8432,271.8725 L310.8432,274.5951 Q310.2123,274.0141 309.6188,273.7443 Q309.0253,273.4745 308.3945,273.4745 Q307.0498,273.4745 306.3649,274.5412 Q305.6801,275.6078 305.6801,277.7079 Q305.6801,279.7997 306.3649,280.8664 Q307.0498,281.933 308.3945,281.933 Q309.0253,281.933 309.6188,281.6632 Q310.2123,281.3935 310.8432,280.8124 Z " fill="#000000"/><text fill="#000000" font-family="Verdana" font-size="12" font-style="italic" lengthAdjust="spacing" textLength="107.9707" x="349.0976" y="272.3645">&#171;internal service&#187;</text><text fill="#000000" font-family="'PingFang SC'" font-size="14" lengthAdjust="spacing" textLength="154.4257" x="325.8701" y="289.724">SlashCommandRegistry</text><line style="stroke:#000000;stroke-width:1;" x1="229" x2="549.6659" y1="299.484" y2="299.484"/><line style="stroke:#000000;stroke-width:1;" x1="229" x2="549.6659" y1="307.484" y2="307.484"/><text fill="#000000" font-family="'PingFang SC'" font-size="14" lengthAdjust="spacing" textLength="77.6287" x="234" y="326.324">+find(name)</text><text fill="#000000" font-family="'PingFang SC'" font-size="14" lengthAdjust="spacing" textLength="54.1451" x="234" y="345.924">+getAll()</text><text fill="#000000" font-family="'PingFang SC'" font-size="14" lengthAdjust="spacing" textLength="310.6659" x="234" y="365.524">+replaceOwnerCommands(ownerId, commands)</text><text fill="#000000" font-family="'PingFang SC'" font-size="14" lengthAdjust="spacing" textLength="158.0769" x="234" y="385.124">+removeOwner(ownerId)</text></g><g class="link" data-entity-1="ent0001" data-entity-2="ent0002" data-link-type="dependency" id="lnk5"><polygon fill="#000000" points="110.5,245.5247,114.5,236.5247,110.5,240.5247,106.5,236.5247,110.5,245.5247" style="stroke:#000000;stroke-width:1;stroke-linejoin:miter;stroke-miterlimit:10;"/><path d="M110.5,187.9202 C110.5,206.0405 110.5,221.2974 110.5,240.5247" fill="none" style="stroke:#000000;stroke-width:1;stroke-dasharray:7,7;"/><text fill="#000000" font-family="'PingFang SC'" font-size="13" lengthAdjust="spacing" textLength="104.719" x="112.5" y="221.58">framework wraps</text></g><g class="link" data-entity-1="ent0002" data-entity-2="ent0003" data-link-type="dependency" id="lnk6"><polygon fill="#000000" points="250.8707,461.6314,247.1846,452.4983,247.2776,458.1544,241.6215,458.2474,250.8707,461.6314" style="stroke:#000000;stroke-width:1;stroke-linejoin:miter;stroke-miterlimit:10;"/><path d="M191.3856,404.0698 C211.2394,423.2817 228.5627,440.0447 247.2776,458.1544" fill="none" style="stroke:#000000;stroke-width:1;"/></g><g class="link" data-entity-1="ent0004" data-entity-2="ent0003" data-link-type="dependency" id="lnk7"><polygon fill="#000000" points="335.0038,461.6912,342.0663,454.8267,336.8649,457.0504,334.6411,451.849,335.0038,461.6912" style="stroke:#000000;stroke-width:1;stroke-linejoin:miter;stroke-miterlimit:10;"/><path d="M362.0001,394.3734 C353.1841,416.3569 345.3682,435.8467 336.8649,457.0504" fill="none" style="stroke:#000000;stroke-width:1;"/><text fill="#000000" font-family="'PingFang SC'" font-size="13" lengthAdjust="spacing" textLength="56.5618" x="352.5" y="437.58">publishes</text></g><?plantuml-src dLFDRjD04BxxAQQzD1KuFqXjHLH5Ae5AFT2YvWacwuczodhNsbad1DGJWWlYo1M9Mq-8bseateAnuu0b4eIuM3j_ttpppVW82WtiIgze20MgEQR4FUKIRTDOtZRqs2jnUEhHwq2MjRFS2wk2k1juEEW_FOi7W_vPTFH_IBwqbdm5TN9o6f_sdmZGSsATMl24xEmGc0hq60YAScgq0bU4gXHctkMGEGxnr9Ks0RSK9Cvq0IYMplCouDIGuAIQWry1MomuSu6xqK78A1T4Wzf61uN7D4Smk79b0CufeCM8vzfMdND8Q8Qb2PVEXckKiiDNCjGbsXGcuyDM7cUOkAN4O8Q6gHMPYY2fhsYEdN4UWaVB4X9PMbdA8FD525vFoq1Nojc9VaFGZu8ECiYBhMmmTdbU3VdmuVsFT_Vhpz_Ndxwjxxy-VFaOHJK8JEIRDMatZM3dvni5HoDu6u5CnShhEYOM-hJCXOxK58O2UV5bKcpaTTU0tjPAagUa3I-usehNeccGwqrS9KEOo2Ws5OyLsLfcgtNB-oyKcfwtpKudpKh_vB2GMwZXZQl1rQQGdwskQouliVZjhLmIkQbuRq9tEtJSDcqra-Fq2wseQVe8PjecdMhQuzfCALmOqzaOdkJU5DLT6aZkD5ez_aLmcvkxnIPrct8ifA9TU-rsH_jMCvI_HCWidP_3qejMqPx4E1xjqpRQgS5V2gHhVMYS4Vy4?></g></svg>