<svg xmlns="http://www.w3.org/2000/svg" xmlns:xlink="http://www.w3.org/1999/xlink" contentStyleType="text/css" data-diagram-type="CLASS" height="528px" preserveAspectRatio="none" style="width:590px;height:528px;" version="1.1" viewBox="0 0 590 528" width="590px" zoomAndPan="magnify"><?plantuml 1.2026.6?><defs/><g><g class="title" data-source-line="188"><text fill="#000000" font-family="'sans-serif'" font-size="22" font-weight="700" lengthAdjust="spacing" textLength="462.8701" x="62.8149" y="36.2695">Extension Command Internal Data Model</text></g><!--class SlashCommandOptions--><g class="entity" data-qualified-name="SlashCommandOptions" data-source-line="190" id="ent0001"><rect fill="#FFFFFF" height="106.5371" rx="2.5" ry="2.5" style="stroke:#000000;stroke-width:1;" width="186.1973" x="20.5" y="63.9102"/><ellipse cx="33.5" cy="84.4463" fill="#FFFFFF" rx="9" ry="9" style="stroke:#000000;stroke-width:1;"/><path d="M35.9731,90.5894 Q35.3921,90.8882 34.7529,91.0376 Q34.1138,91.187 33.4082,91.187 Q30.9014,91.187 29.5815,89.5352 Q28.2617,87.8833 28.2617,84.7622 Q28.2617,81.6328 29.5815,79.981 Q30.9014,78.3291 33.4082,78.3291 Q34.1138,78.3291 34.7612,78.4785 Q35.4087,78.6279 35.9731,78.9268 L35.9731,81.6494 Q35.3423,81.0684 34.7488,80.7986 Q34.1553,80.5288 33.5244,80.5288 Q32.1797,80.5288 31.4949,81.5955 Q30.8101,82.6621 30.8101,84.7622 Q30.8101,86.854 31.4949,87.9207 Q32.1797,88.9873 33.5244,88.9873 Q34.1553,88.9873 34.7488,88.7175 Q35.3423,88.4478 35.9731,87.8667 Z " fill="#000000"/><text fill="#000000" font-family="Verdana" font-size="12" font-style="italic" lengthAdjust="spacing" textLength="50.8535" x="99.1719" y="80.9746">&#171;public&#187;</text><text fill="#000000" font-family="'sans-serif'" font-size="14" lengthAdjust="spacing" textLength="158.1973" x="45.5" y="97.0293">SlashCommandOptions</text><line style="stroke:#000000;stroke-width:1;" x1="21.5" x2="205.6973" y1="104.9824" y2="104.9824"/><text fill="#000000" font-family="'sans-serif'" font-size="14" lengthAdjust="spacing" textLength="76.0771" x="26.5" y="122.5176">description</text><text fill="#000000" font-family="'sans-serif'" font-size="14" lengthAdjust="spacing" textLength="136.4521" x="26.5" y="139.0059">argumentCompleter</text><text fill="#000000" font-family="'sans-serif'" font-size="14" lengthAdjust="spacing" textLength="51.4951" x="26.5" y="155.4941">handler</text><line style="stroke:#000000;stroke-width:1;" x1="21.5" x2="205.6973" y1="162.4473" y2="162.4473"/></g><!--class RegisteredSlashCommand--><g class="entity" data-qualified-name="RegisteredSlashCommand" data-source-line="195" id="ent0002"><rect fill="#FFFFFF" height="139.5137" rx="2.5" ry="2.5" style="stroke:#000000;stroke-width:1;" width="204.7432" x="11" y="225.9102"/><ellipse cx="24" cy="246.4463" fill="#FFFFFF" rx="9" ry="9" style="stroke:#000000;stroke-width:1;"/><path d="M26.4731,252.5894 Q25.8921,252.8882 25.2529,253.0376 Q24.6138,253.187 23.9082,253.187 Q21.4014,253.187 20.0815,251.5352 Q18.7617,249.8833 18.7617,246.7622 Q18.7617,243.6328 20.0815,241.981 Q21.4014,240.3291 23.9082,240.3291 Q24.6138,240.3291 25.2612,240.4785 Q25.9087,240.6279 26.4731,240.9268 L26.4731,243.6494 Q25.8423,243.0684 25.2488,242.7986 Q24.6553,242.5288 24.0244,242.5288 Q22.6797,242.5288 21.9949,243.5955 Q21.3101,244.6621 21.3101,246.7622 Q21.3101,248.854 21.9949,249.9207 Q22.6797,250.9873 24.0244,250.9873 Q24.6553,250.9873 25.2488,250.7175 Q25.8423,250.4478 26.4731,249.8667 Z " fill="#000000"/><text fill="#000000" font-family="Verdana" font-size="12" font-style="italic" lengthAdjust="spacing" textLength="61.4473" x="93.6479" y="242.9746">&#171;internal&#187;</text><text fill="#000000" font-family="'sans-serif'" font-size="14" lengthAdjust="spacing" textLength="176.7432" x="36" y="259.0293">RegisteredSlashCommand</text><line style="stroke:#000000;stroke-width:1;" x1="12" x2="214.7432" y1="266.9824" y2="266.9824"/><text fill="#000000" font-family="'sans-serif'" font-size="14" lengthAdjust="spacing" textLength="103.2773" x="17" y="284.5176">ownerId: String</text><text fill="#000000" font-family="'sans-serif'" font-size="14" lengthAdjust="spacing" textLength="86.1191" x="17" y="301.0059">name: String</text><text fill="#000000" font-family="'sans-serif'" font-size="14" lengthAdjust="spacing" textLength="124.9063" x="17" y="317.4941">description: String</text><text fill="#000000" font-family="'sans-serif'" font-size="14" lengthAdjust="spacing" textLength="136.4521" x="17" y="333.9824">argumentCompleter</text><text fill="#000000" font-family="'sans-serif'" font-size="14" lengthAdjust="spacing" textLength="51.4951" x="17" y="350.4707">handler</text><line style="stroke:#000000;stroke-width:1;" x1="12" x2="214.7432" y1="357.4238" y2="357.4238"/></g><!--class CommandRegistrySnapshot--><g class="entity" data-qualified-name="CommandRegistrySnapshot" data-source-line="202" id="ent0003"><rect fill="#FFFFFF" height="106.5371" rx="2.5" ry="2.5" style="stroke:#000000;stroke-width:1;" width="221.9316" x="212.5" y="420.9102"/><ellipse cx="228.6482" cy="441.4463" fill="#FFFFFF" rx="9" ry="9" style="stroke:#000000;stroke-width:1;"/><path d="M231.1214,447.5894 Q230.5403,447.8882 229.9012,448.0376 Q229.262,448.187 228.5564,448.187 Q226.0496,448.187 224.7298,446.5352 Q223.41,444.8833 223.41,441.7622 Q223.41,438.6328 224.7298,436.981 Q226.0496,435.3291 228.5564,435.3291 Q229.262,435.3291 229.9095,435.4785 Q230.5569,435.6279 231.1214,435.9268 L231.1214,438.6494 Q230.4905,438.0684 229.897,437.7986 Q229.3035,437.5288 228.6727,437.5288 Q227.3279,437.5288 226.6431,438.5955 Q225.9583,439.6621 225.9583,441.7622 Q225.9583,443.854 226.6431,444.9207 Q227.3279,445.9873 228.6727,445.9873 Q229.3035,445.9873 229.897,445.7175 Q230.4905,445.4478 231.1214,444.8667 Z " fill="#000000"/><text fill="#000000" font-family="Verdana" font-size="12" font-style="italic" lengthAdjust="spacing" textLength="61.4473" x="304.092" y="437.9746">&#171;internal&#187;</text><text fill="#000000" font-family="'sans-serif'" font-size="14" lengthAdjust="spacing" textLength="186.9355" x="241.3479" y="454.0293">CommandRegistrySnapshot</text><line style="stroke:#000000;stroke-width:1;" x1="213.5" x2="433.4316" y1="461.9824" y2="461.9824"/><text fill="#000000" font-family="'sans-serif'" font-size="14" lengthAdjust="spacing" textLength="88.1699" x="218.5" y="479.5176">version: long</text><text fill="#000000" font-family="'sans-serif'" font-size="14" lengthAdjust="spacing" textLength="166.0518" x="218.5" y="496.0059">commandsByName: Map</text><text fill="#000000" font-family="'sans-serif'" font-size="14" lengthAdjust="spacing" textLength="209.9316" x="218.5" y="512.4941">commandNamesByOwner: Map</text><line style="stroke:#000000;stroke-width:1;" x1="213.5" x2="433.4316" y1="519.4473" y2="519.4473"/></g><!--class SlashCommandRegistry--><g class="entity" data-qualified-name="SlashCommandRegistry" data-source-line="207" id="ent0004"><rect fill="#FFFFFF" height="123.0254" rx="2.5" ry="2.5" style="stroke:#000000;stroke-width:1;" width="339.585" x="234.5" y="234.4102"/><ellipse cx="320.7192" cy="254.9463" fill="#FFFFFF" rx="9" ry="9" style="stroke:#000000;stroke-width:1;"/><path d="M323.1924,261.0894 Q322.6113,261.3882 321.9722,261.5376 Q321.333,261.687 320.6274,261.687 Q318.1206,261.687 316.8008,260.0352 Q315.481,258.3833 315.481,255.2622 Q315.481,252.1328 316.8008,250.481 Q318.1206,248.8291 320.6274,248.8291 Q321.333,248.8291 321.9805,248.9785 Q322.6279,249.1279 323.1924,249.4268 L323.1924,252.1494 Q322.5615,251.5684 321.968,251.2986 Q321.3745,251.0288 320.7437,251.0288 Q319.3989,251.0288 318.7141,252.0955 Q318.0293,253.1621 318.0293,255.2622 Q318.0293,257.354 318.7141,258.4207 Q319.3989,259.4873 320.7437,259.4873 Q321.3745,259.4873 321.968,259.2175 Q322.5615,258.9478 323.1924,258.3667 Z " fill="#000000"/><text fill="#000000" font-family="Verdana" font-size="12" font-style="italic" lengthAdjust="spacing" textLength="107.9707" x="364.0571" y="251.4746">&#171;internal service&#187;</text><text fill="#000000" font-family="'sans-serif'" font-size="14" lengthAdjust="spacing" textLength="159.6465" x="338.2192" y="267.5293">SlashCommandRegistry</text><line style="stroke:#000000;stroke-width:1;" x1="235.5" x2="573.085" y1="275.4824" y2="275.4824"/><line style="stroke:#000000;stroke-width:1;" x1="235.5" x2="573.085" y1="283.4824" y2="283.4824"/><text fill="#000000" font-family="'sans-serif'" font-size="14" lengthAdjust="spacing" textLength="84.2188" x="240.5" y="301.0176">+find(name)</text><text fill="#000000" font-family="'sans-serif'" font-size="14" lengthAdjust="spacing" textLength="59.7529" x="240.5" y="317.5059">+getAll()</text><text fill="#000000" font-family="'sans-serif'" font-size="14" lengthAdjust="spacing" textLength="327.585" x="240.5" y="333.9941">+replaceOwnerCommands(ownerId, commands)</text><text fill="#000000" font-family="'sans-serif'" font-size="14" lengthAdjust="spacing" textLength="168.8066" x="240.5" y="350.4824">+removeOwner(ownerId)</text></g><g class="link" data-entity-1="ent0001" data-entity-2="ent0002" data-link-type="dependency" id="lnk5"><polygon fill="#000000" points="113.5,225.6434,117.5,216.6434,113.5,220.6434,109.5,216.6434,113.5,225.6434" style="stroke:#000000;stroke-width:1;stroke-linejoin:miter;stroke-miterlimit:10;"/><path d="M113.5,171.366 C113.5,188.4249 113.5,202.5904 113.5,220.6434" fill="none" style="stroke:#000000;stroke-width:1;stroke-dasharray:7,7;"/><text fill="#000000" font-family="'sans-serif'" font-size="13" lengthAdjust="spacing" textLength="109.0146" x="115.5" y="203.4785">framework wraps</text></g><g class="link" data-entity-1="ent0002" data-entity-2="ent0003" data-link-type="dependency" id="lnk6"><polygon fill="#000000" points="260.8264,420.7345,256.5103,411.8817,256.9988,417.5174,251.363,418.0059,260.8264,420.7345" style="stroke:#000000;stroke-width:1;stroke-linejoin:miter;stroke-miterlimit:10;"/><path d="M195.8948,366.1611 C217.4975,384.3175 236.6126,400.3834 256.9988,417.5174" fill="none" style="stroke:#000000;stroke-width:1;"/></g><g class="link" data-entity-1="ent0004" data-entity-2="ent0003" data-link-type="dependency" id="lnk7"><polygon fill="#000000" points="347.6433,420.8017,355.0326,414.2903,349.7288,416.2573,347.7617,410.9535,347.6433,420.8017" style="stroke:#000000;stroke-width:1;stroke-linejoin:miter;stroke-miterlimit:10;"/><path d="M376.6244,357.6514 C367.1973,378.1932 358.8418,396.4 349.7288,416.2573" fill="none" style="stroke:#000000;stroke-width:1;"/><text fill="#000000" font-family="'sans-serif'" font-size="13" lengthAdjust="spacing" textLength="60.5122" x="366.5" y="398.4785">publishes</text></g><?plantuml-src dLDRQzjG37xthr3xqfJDkGpQib02NRj17zf2_GiKMx4FEHTp92VBHl_xPCVf34l6s8ivkdtwz4c-WDe0XoRcD8SQypMMn9Cy5CQNgRwzJ3ZcweWqeUz2datmF95TJJmMdi-cds_IsMnwarpy7r9ilAVOGbrTNQVNqqyAz41iIW-Ha8EV0rED4OMWRfRMv11gQKjX5OE3Ah2aoz3u0i9MaRWoDQ1Qnhb6S6b9SKh34dV07ckkWl0uEPEAd29QD3uvgoEM3i7YBZG2x4ZGOy9huzlE3WfQOMFbM_3oZ5fsdg7dZA9PdG-okC8YR7LSMA5b6aIMAaSPMvBtmOO84hLUGohA82kto7md4iso4NhCWy_C3u9f8aPqZAy7qU0-EDUE-EY5eaSB3oW8Jw4WcoGT2cJwhVgybrwlszkzW8i5_4n0X-8ycYwc5iQoSSf7QsfBYgk-IekjljvwqDTEI8fK3E4Lr_H4UkHk4O_573ATnPVgyQhQm1oq7dZ_XKBVyxLVQTPlz4yE6ps53jw63ZpV5_ANtNF7vGdhtzxMfP6NblS-z7P4nqFJGJEzpRWnEVLDFy3A-6BKJdlPcIN9dRMZlH59posdhaiFoQDUgu_l10-vBcpsgOUKIoML7DlhUBmujPgv_YHAPXlY6hPHjKfE9ARfufIsoL4D_bAWNRj3uuhu5m00?></g></svg>