<svg xmlns="http://www.w3.org/2000/svg" xmlns:xlink="http://www.w3.org/1999/xlink" contentStyleType="text/css" data-diagram-type="STATE" height="808px" preserveAspectRatio="none" style="width:450px;height:808px;" version="1.1" viewBox="0 0 450 808" width="450px" zoomAndPan="magnify"><?plantuml 1.2026.6?><defs/><g><g class="title" data-source-line="299"><text fill="#000000" font-family="'PingFang SC'" font-size="22" font-weight="700" lengthAdjust="spacing" textLength="315.91" x="15" y="38.32">Extension Command &#29983;&#21629;&#21608;&#26399;</text></g><g class="start_entity" data-qualified-name=".start." data-source-line="301" id="ent0001"><ellipse cx="226.705" cy="78.8" fill="#FFFFFF" rx="10" ry="10" style="stroke:#000000;stroke-width:1;"/></g><g class="entity" data-qualified-name="Discovered" data-source-line="301" id="ent0002"><rect fill="#FFFFFF" height="50" rx="12.5" ry="12.5" style="stroke:#000000;stroke-width:1;" width="92.1001" x="180.705" y="129.8"/><line style="stroke:#000000;stroke-width:1;" x1="180.705" x2="272.805" y1="159.4" y2="159.4"/><text fill="#000000" font-family="'PingFang SC'" font-size="14" lengthAdjust="spacing" textLength="72.1001" x="190.705" y="149.64">Discovered</text></g><g class="entity" data-qualified-name="Staging" data-source-line="302" id="ent0004"><rect fill="#FFFFFF" height="50" rx="12.5" ry="12.5" style="stroke:#000000;stroke-width:1;" width="69.665" x="191.705" y="237.8"/><line style="stroke:#000000;stroke-width:1;" x1="191.705" x2="261.37" y1="267.4" y2="267.4"/><text fill="#000000" font-family="'PingFang SC'" font-size="14" lengthAdjust="spacing" textLength="49.665" x="201.705" y="257.64">Staging</text></g><g class="entity" data-qualified-name="Rejected" data-source-line="303" id="ent0006"><rect fill="#FFFFFF" height="50" rx="12.5" ry="12.5" style="stroke:#000000;stroke-width:1;" width="77.386" x="70.205" y="413.8"/><line style="stroke:#000000;stroke-width:1;" x1="70.205" x2="147.591" y1="443.4" y2="443.4"/><text fill="#000000" font-family="'PingFang SC'" font-size="14" lengthAdjust="spacing" textLength="57.386" x="80.205" y="433.64">Rejected</text></g><g class="entity" data-qualified-name="Registered" data-source-line="304" id="ent0008"><rect fill="#FFFFFF" height="50" rx="12.5" ry="12.5" style="stroke:#000000;stroke-width:1;" width="90.0575" x="181.705" y="345.8"/><line style="stroke:#000000;stroke-width:1;" x1="181.705" x2="271.7624" y1="375.4" y2="375.4"/><text fill="#000000" font-family="'PingFang SC'" font-size="14" lengthAdjust="spacing" textLength="70.0575" x="191.705" y="365.64">Registered</text></g><g class="entity" data-qualified-name="Active" data-source-line="305" id="ent0010"><rect fill="#FFFFFF" height="50" rx="12.5" ry="12.5" style="stroke:#000000;stroke-width:1;" width="59.9784" x="196.705" y="481.8"/><line style="stroke:#000000;stroke-width:1;" x1="196.705" x2="256.6834" y1="511.4" y2="511.4"/><text fill="#000000" font-family="'PingFang SC'" font-size="14" lengthAdjust="spacing" textLength="39.9784" x="206.705" y="501.64">Active</text></g><g class="entity" data-qualified-name="Unloading" data-source-line="307" id="ent0013"><rect fill="#FFFFFF" height="50" rx="12.5" ry="12.5" style="stroke:#000000;stroke-width:1;" width="85.1351" x="165.205" y="589.8"/><line style="stroke:#000000;stroke-width:1;" x1="165.205" x2="250.34" y1="619.4" y2="619.4"/><text fill="#000000" font-family="'PingFang SC'" font-size="14" lengthAdjust="spacing" textLength="65.1351" x="175.205" y="609.64">Unloading</text></g><g class="entity" data-qualified-name="Removed" data-source-line="308" id="ent0015"><rect fill="#FFFFFF" height="50" rx="12.5" ry="12.5" style="stroke:#000000;stroke-width:1;" width="80.2029" x="162.705" y="697.8"/><line style="stroke:#000000;stroke-width:1;" x1="162.705" x2="242.9078" y1="727.4" y2="727.4"/><text fill="#000000" font-family="'PingFang SC'" font-size="14" lengthAdjust="spacing" textLength="60.2029" x="172.705" y="717.64">Removed</text></g><g class="end_entity" data-qualified-name=".end." data-source-line="309" id="ent0017"><ellipse cx="156.705" cy="795.8" fill="none" rx="11" ry="11" style="stroke:#000000;stroke-width:1;"/><ellipse cx="156.705" cy="795.8" fill="#FFFFFF" rx="6" ry="6" style="stroke:#000000;stroke-width:1;"/></g><g class="link" data-entity-1="ent0001" data-entity-2="ent0002" data-link-type="dependency" id="lnk3"><polygon fill="#000000" points="226.705,129.5245,230.705,120.5245,226.705,124.5245,222.705,120.5245,226.705,129.5245" style="stroke:#000000;stroke-width:1;stroke-linejoin:miter;stroke-miterlimit:10;"/><path d="M226.705,93.05 C226.705,102.7795 226.705,112.1837 226.705,124.5245" fill="none" style="stroke:#000000;stroke-width:1;"/></g><g class="link" data-entity-1="ent0002" data-entity-2="ent0004" data-link-type="dependency" id="lnk5"><polygon fill="#000000" points="226.705,237.4752,230.705,228.4752,226.705,232.4752,222.705,228.4752,226.705,237.4752" style="stroke:#000000;stroke-width:1;stroke-linejoin:miter;stroke-miterlimit:10;"/><path d="M226.705,179.853 C226.705,197.0784 226.705,215.1884 226.705,232.4752" fill="none" style="stroke:#000000;stroke-width:1;"/><text fill="#000000" font-family="'PingFang SC'" font-size="13" lengthAdjust="spacing" textLength="75.7849" x="228.705" y="213.58">initialize(api)</text></g><g class="link" data-entity-1="ent0004" data-entity-2="ent0006" data-link-type="dependency" id="lnk7"><polygon fill="#000000" points="104.6295,413.6993,107.5271,404.2864,104.0329,408.735,99.5843,405.2409,104.6295,413.6993" style="stroke:#000000;stroke-width:1;stroke-linejoin:miter;stroke-miterlimit:10;"/><path d="M191.4859,268.8049 C168.472,274.0132 139.7987,284.5584 123.705,305.8 C100.0267,337.0521 100.5849,380.0424 104.0329,408.735" fill="none" style="stroke:#000000;stroke-width:1;"/><text fill="#000000" font-family="'PingFang SC'" font-size="13" lengthAdjust="spacing" textLength="95.4591" x="125.705" y="321.58">validation failed</text></g><g class="link" data-entity-1="ent0004" data-entity-2="ent0008" data-link-type="dependency" id="lnk9"><polygon fill="#000000" points="226.705,345.4752,230.705,336.4752,226.705,340.4752,222.705,336.4752,226.705,345.4752" style="stroke:#000000;stroke-width:1;stroke-linejoin:miter;stroke-miterlimit:10;"/><path d="M226.705,287.853 C226.705,305.0784 226.705,323.1884 226.705,340.4752" fill="none" style="stroke:#000000;stroke-width:1;"/><text fill="#000000" font-family="'PingFang SC'" font-size="13" lengthAdjust="spacing" textLength="88.2181" x="228.705" y="321.58">atomic publish</text></g><g class="link" data-entity-1="ent0008" data-entity-2="ent0010" data-link-type="dependency" id="lnk11"><polygon fill="#000000" points="226.705,481.7141,230.705,472.7141,226.705,476.7141,222.705,472.7141,226.705,481.7141" style="stroke:#000000;stroke-width:1;stroke-linejoin:miter;stroke-miterlimit:10;"/><path d="M226.705,396.0664 C226.705,420.3517 226.705,452.4928 226.705,476.7141" fill="none" style="stroke:#000000;stroke-width:1;"/><text fill="#000000" font-family="'PingFang SC'" font-size="13" lengthAdjust="spacing" textLength="45.0918" x="228.705" y="443.58">onLoad</text></g><g class="link" data-entity-1="ent0010" data-entity-2="ent0004" data-link-type="dependency" id="lnk12"><polygon fill="#000000" points="262.0981,269.9878,269.7293,276.2139,266.9221,271.3028,271.8332,268.4956,262.0981,269.9878" style="stroke:#000000;stroke-width:1;stroke-linejoin:miter;stroke-miterlimit:10;"/><path d="M256.9303,486.9868 C265.3074,480.5248 273.7312,472.6574 279.705,463.8 C384.4031,308.5622 344.6583,344.4492 319.705,305.8 C307.0207,286.1538 287.5153,276.9162 266.9221,271.3028" fill="none" style="stroke:#000000;stroke-width:1;"/><text fill="#000000" font-family="'PingFang SC'" font-size="13" lengthAdjust="spacing" textLength="101.2779" x="348.705" y="375.58">reload candidate</text></g><g class="link" data-entity-1="ent0010" data-entity-2="ent0013" data-link-type="dependency" id="lnk14"><polygon fill="#000000" points="212.0651,589.4752,217.5902,581.3221,212.9473,584.5537,209.7157,579.9107,212.0651,589.4752" style="stroke:#000000;stroke-width:1;stroke-linejoin:miter;stroke-miterlimit:10;"/><path d="M222.3936,531.853 C219.306,549.0784 216.0458,567.2668 212.9473,584.5537" fill="none" style="stroke:#000000;stroke-width:1;"/><text fill="#000000" font-family="'PingFang SC'" font-size="13" lengthAdjust="spacing" textLength="60.7335" x="221.705" y="565.58">unregister</text></g><g class="link" data-entity-1="ent0013" data-entity-2="ent0015" data-link-type="dependency" id="lnk16"><polygon fill="#000000" points="203.8524,697.4752,208.272,688.6737,204.088,692.4808,200.2809,688.2968,203.8524,697.4752" style="stroke:#000000;stroke-width:1;stroke-linejoin:miter;stroke-miterlimit:10;"/><path d="M206.5704,639.853 C205.7579,657.0784 204.9034,675.1939 204.088,692.4808" fill="none" style="stroke:#000000;stroke-width:1;"/><text fill="#000000" font-family="'PingFang SC'" font-size="13" lengthAdjust="spacing" textLength="83.2885" x="207.705" y="673.58">removeOwner</text></g><g class="link" data-entity-1="ent0015" data-entity-2="ent0017" data-link-type="dependency" id="lnk18"><polygon fill="#000000" points="163.7666,784.7471,171.9828,779.3164,166.4585,780.5336,165.2413,775.0093,163.7666,784.7471" style="stroke:#000000;stroke-width:1;stroke-linejoin:miter;stroke-miterlimit:10;"/><path d="M187.1315,748.1759 C179.2079,760.578 172.659,770.8285 166.4585,780.5336" fill="none" style="stroke:#000000;stroke-width:1;"/></g><g class="link" data-entity-1="ent0006" data-entity-2="ent0017" data-link-type="dependency" id="lnk19"><polygon fill="#000000" points="150.662,784.4355,150.2909,774.5936,148.4606,779.9461,143.1081,778.1158,150.662,784.4355" style="stroke:#000000;stroke-width:1;stroke-linejoin:miter;stroke-miterlimit:10;"/><path d="M116.7528,463.8557 C124.0611,487.8676 133.705,525.9638 133.705,559.8 C133.705,559.8 133.705,559.8 133.705,723.8 C133.705,746.1079 141.6461,766.0493 148.4606,779.9461" fill="none" style="stroke:#000000;stroke-width:1;"/></g><?plantuml-src bL6nRjH04EttAoPf0kYS4nmfS149NKY5015H8OgvzSGttEwijRk-1FuY4YLIMdw2pmdy1hFs7N7AL1xFU_FspPiZw1XIwAEb6Zgq6smfpMreMDfAQydp5Aqs8itfEfCa3fBcBc13yJYdUh5uNhrSl317Zn2AD1AhgSoYEZbvfJ9dbBWLY8GfI0qUDmGfOwiwCq2RUOjPFSoKKSPdqCluHMcqzvLiWI57LA-bJ43NdMFBUQ1aKhMLesDpaDVa2Jg7BEQWYzXw18VVGfyXUSeeQDA6fSE87XgwnDxbyo3v7UhOuGTrT8xImiNoSC9BQsp2bM9mYIxH15bfAcqClJJBu48SBIgasPZCsH6ysISCo-1zSVltn-tTpU-xcrz_VjuQy_dP5wYgKpZZPCEM8ZNclXoGYp4fg855jqV7t-a9TlpKx972-ZZ4f2CrR9NI38cgNtQg-93OSig3UWsOWsSBNRzodDPcWXNgwt8QKbgGjteFi_j_Q6gy6LXThRnAKzQduOuZhvUuKpVtxT6GrssRGQfKxwz4EVjkOMX6vlz-kyO_?></g></svg>