<svg xmlns="http://www.w3.org/2000/svg" xmlns:xlink="http://www.w3.org/1999/xlink" contentStyleType="text/css" data-diagram-type="STATE" height="791px" preserveAspectRatio="none" style="width:477px;height:791px;" version="1.1" viewBox="0 0 477 791" width="477px" zoomAndPan="magnify"><?plantuml 1.2026.6?><defs/><g><g class="title" data-source-line="299"><text fill="#000000" font-family="'sans-serif'" font-size="22" font-weight="700" lengthAdjust="spacing" textLength="337.6592" x="15" y="36.2695">Extension Command Lifecycle</text></g><g class="start_entity" data-qualified-name=".start." data-source-line="301" id="ent0001"><ellipse cx="239.5796" cy="73.9102" fill="#FFFFFF" rx="10" ry="10" style="stroke:#000000;stroke-width:1;"/></g><g class="entity" data-qualified-name="Discovered" data-source-line="301" id="ent0002"><rect fill="#FFFFFF" height="50" rx="12.5" ry="12.5" style="stroke:#000000;stroke-width:1;" width="94.8262" x="192.0796" y="124.9102"/><line style="stroke:#000000;stroke-width:1;" x1="192.0796" x2="286.9058" y1="151.3984" y2="151.3984"/><text fill="#000000" font-family="'sans-serif'" font-size="14" lengthAdjust="spacing" textLength="74.8262" x="202.0796" y="143.4453">Discovered</text></g><g class="entity" data-qualified-name="Staging" data-source-line="302" id="ent0004"><rect fill="#FFFFFF" height="50" rx="12.5" ry="12.5" style="stroke:#000000;stroke-width:1;" width="70.7021" x="204.0796" y="229.9102"/><line style="stroke:#000000;stroke-width:1;" x1="204.0796" x2="274.7817" y1="256.3984" y2="256.3984"/><text fill="#000000" font-family="'sans-serif'" font-size="14" lengthAdjust="spacing" textLength="50.7021" x="214.0796" y="248.4453">Staging</text></g><g class="entity" data-qualified-name="Rejected" data-source-line="303" id="ent0006"><rect fill="#FFFFFF" height="50" rx="12.5" ry="12.5" style="stroke:#000000;stroke-width:1;" width="77.7295" x="77.5796" y="402.9102"/><line style="stroke:#000000;stroke-width:1;" x1="77.5796" x2="155.3091" y1="429.3984" y2="429.3984"/><text fill="#000000" font-family="'sans-serif'" font-size="14" lengthAdjust="spacing" textLength="57.7295" x="87.5796" y="421.4453">Rejected</text></g><g class="entity" data-qualified-name="Registered" data-source-line="304" id="ent0008"><rect fill="#FFFFFF" height="50" rx="12.5" ry="12.5" style="stroke:#000000;stroke-width:1;" width="91.9414" x="193.5796" y="334.9102"/><line style="stroke:#000000;stroke-width:1;" x1="193.5796" x2="285.521" y1="361.3984" y2="361.3984"/><text fill="#000000" font-family="'sans-serif'" font-size="14" lengthAdjust="spacing" textLength="71.9414" x="203.5796" y="353.4453">Registered</text></g><g class="entity" data-qualified-name="Active" data-source-line="305" id="ent0010"><rect fill="#FFFFFF" height="50" rx="12.5" ry="12.5" style="stroke:#000000;stroke-width:1;" width="61.1592" x="209.0796" y="470.9102"/><line style="stroke:#000000;stroke-width:1;" x1="209.0796" x2="270.2388" y1="497.3984" y2="497.3984"/><text fill="#000000" font-family="'sans-serif'" font-size="14" lengthAdjust="spacing" textLength="41.1592" x="219.0796" y="489.4453">Active</text></g><g class="entity" data-qualified-name="Unloading" data-source-line="307" id="ent0013"><rect fill="#FFFFFF" height="50" rx="12.5" ry="12.5" style="stroke:#000000;stroke-width:1;" width="89.043" x="175.0796" y="575.9102"/><line style="stroke:#000000;stroke-width:1;" x1="175.0796" x2="264.1226" y1="602.3984" y2="602.3984"/><text fill="#000000" font-family="'sans-serif'" font-size="14" lengthAdjust="spacing" textLength="69.043" x="185.0796" y="594.4453">Unloading</text></g><g class="entity" data-qualified-name="Removed" data-source-line="308" id="ent0015"><rect fill="#FFFFFF" height="50" rx="12.5" ry="12.5" style="stroke:#000000;stroke-width:1;" width="82.1797" x="173.5796" y="680.9102"/><line style="stroke:#000000;stroke-width:1;" x1="173.5796" x2="255.7593" y1="707.3984" y2="707.3984"/><text fill="#000000" font-family="'sans-serif'" font-size="14" lengthAdjust="spacing" textLength="62.1797" x="183.5796" y="699.4453">Removed</text></g><g class="end_entity" data-qualified-name=".end." data-source-line="309" id="ent0017"><ellipse cx="167.5796" cy="778.9102" fill="none" rx="11" ry="11" style="stroke:#000000;stroke-width:1;"/><ellipse cx="167.5796" cy="778.9102" fill="#FFFFFF" rx="6" ry="6" style="stroke:#000000;stroke-width:1;"/></g><g class="link" data-entity-1="ent0001" data-entity-2="ent0002" data-link-type="dependency" id="lnk3"><polygon fill="#000000" points="239.5796,124.6346,243.5796,115.6346,239.5796,119.6346,235.5796,115.6346,239.5796,124.6346" style="stroke:#000000;stroke-width:1;stroke-linejoin:miter;stroke-miterlimit:10;"/><path d="M239.5796,88.1602 C239.5796,97.8896 239.5796,107.2939 239.5796,119.6346" fill="none" style="stroke:#000000;stroke-width:1;"/></g><g class="link" data-entity-1="ent0002" data-entity-2="ent0004" data-link-type="dependency" id="lnk5"><polygon fill="#000000" points="239.5796,229.5556,243.5796,220.5556,239.5796,224.5556,235.5796,220.5556,239.5796,229.5556" style="stroke:#000000;stroke-width:1;stroke-linejoin:miter;stroke-miterlimit:10;"/><path d="M239.5796,175.0591 C239.5796,191.4701 239.5796,208.1012 239.5796,224.5556" fill="none" style="stroke:#000000;stroke-width:1;"/><text fill="#000000" font-family="'sans-serif'" font-size="13" lengthAdjust="spacing" textLength="81.1675" x="241.5796" y="207.4785">initialize(api)</text></g><g class="link" data-entity-1="ent0004" data-entity-2="ent0006" data-link-type="dependency" id="lnk7"><polygon fill="#000000" points="112.5274,402.7878,115.4464,393.3814,111.9421,397.8221,107.5014,394.3178,112.5274,402.7878" style="stroke:#000000;stroke-width:1;stroke-linejoin:miter;stroke-miterlimit:10;"/><path d="M204.018,260.1848 C179.7046,265.0763 148.8613,275.543 131.5796,297.9102 C108.2827,328.0626 108.6226,369.6578 111.9421,397.8221" fill="none" style="stroke:#000000;stroke-width:1;"/><text fill="#000000" font-family="'sans-serif'" font-size="13" lengthAdjust="spacing" textLength="100.4707" x="133.5796" y="312.4785">validation failed</text></g><g class="link" data-entity-1="ent0004" data-entity-2="ent0008" data-link-type="dependency" id="lnk9"><polygon fill="#000000" points="239.5796,334.5556,243.5796,325.5556,239.5796,329.5556,235.5796,325.5556,239.5796,334.5556" style="stroke:#000000;stroke-width:1;stroke-linejoin:miter;stroke-miterlimit:10;"/><path d="M239.5796,280.0591 C239.5796,296.4701 239.5796,313.1012 239.5796,329.5556" fill="none" style="stroke:#000000;stroke-width:1;"/><text fill="#000000" font-family="'sans-serif'" font-size="13" lengthAdjust="spacing" textLength="93.3359" x="241.5796" y="312.4785">atomic publish</text></g><g class="link" data-entity-1="ent0008" data-entity-2="ent0010" data-link-type="dependency" id="lnk11"><polygon fill="#000000" points="239.5796,470.8243,243.5796,461.8243,239.5796,465.8243,235.5796,461.8243,239.5796,470.8243" style="stroke:#000000;stroke-width:1;stroke-linejoin:miter;stroke-miterlimit:10;"/><path d="M239.5796,385.1765 C239.5796,409.4618 239.5796,441.603 239.5796,465.8243" fill="none" style="stroke:#000000;stroke-width:1;"/><text fill="#000000" font-family="'sans-serif'" font-size="13" lengthAdjust="spacing" textLength="46.3315" x="241.5796" y="432.9785">onLoad</text></g><g class="link" data-entity-1="ent0010" data-entity-2="ent0004" data-link-type="dependency" id="lnk12"><polygon fill="#000000" points="275.3444,261.2072,283.1554,267.2063,280.205,262.3798,285.0315,259.4293,275.3444,261.2072" style="stroke:#000000;stroke-width:1;stroke-linejoin:miter;stroke-miterlimit:10;"/><path d="M270.2297,476.0883 C278.7599,469.626 287.3763,461.7606 293.5796,452.9102 C424.8102,265.6776 363.1667,336.714 337.5796,297.9102 C323.8232,277.0481 302.1831,267.6817 280.205,262.3798" fill="none" style="stroke:#000000;stroke-width:1;"/><text fill="#000000" font-family="'sans-serif'" font-size="13" lengthAdjust="spacing" textLength="105.0918" x="371.5796" y="364.9785">reload candidate</text></g><g class="link" data-entity-1="ent0010" data-entity-2="ent0013" data-link-type="dependency" id="lnk14"><polygon fill="#000000" points="224.3086,575.5556,229.9508,567.4831,225.2617,570.6473,222.0975,565.9582,224.3086,575.5556" style="stroke:#000000;stroke-width:1;stroke-linejoin:miter;stroke-miterlimit:10;"/><path d="M234.8905,521.0591 C231.7039,537.4701 228.4567,554.1929 225.2617,570.6473" fill="none" style="stroke:#000000;stroke-width:1;"/><text fill="#000000" font-family="'sans-serif'" font-size="13" lengthAdjust="spacing" textLength="64.6128" x="233.5796" y="553.4785">unregister</text></g><g class="link" data-entity-1="ent0013" data-entity-2="ent0015" data-link-type="dependency" id="lnk16"><polygon fill="#000000" points="215.7618,680.5556,220.1935,671.7602,216.0043,675.5615,212.2029,671.3723,215.7618,680.5556" style="stroke:#000000;stroke-width:1;stroke-linejoin:miter;stroke-miterlimit:10;"/><path d="M218.4073,626.0591 C217.6107,642.4701 216.803,659.1071 216.0043,675.5615" fill="none" style="stroke:#000000;stroke-width:1;"/><text fill="#000000" font-family="'sans-serif'" font-size="13" lengthAdjust="spacing" textLength="87.4009" x="219.5796" y="658.4785">removeOwner</text></g><g class="link" data-entity-1="ent0015" data-entity-2="ent0017" data-link-type="dependency" id="lnk18"><polygon fill="#000000" points="174.7947,767.8573,183.0638,762.5073,177.5278,763.6704,176.3648,758.1344,174.7947,767.8573" style="stroke:#000000;stroke-width:1;stroke-linejoin:miter;stroke-miterlimit:10;"/><path d="M198.6675,731.2861 C190.5717,743.6882 183.8631,753.9652 177.5278,763.6704" fill="none" style="stroke:#000000;stroke-width:1;"/></g><g class="link" data-entity-1="ent0006" data-entity-2="ent0017" data-link-type="dependency" id="lnk19"><polygon fill="#000000" points="161.2739,767.5766,160.7264,757.743,158.9923,763.1275,153.6078,761.3935,161.2739,767.5766" style="stroke:#000000;stroke-width:1;stroke-linejoin:miter;stroke-miterlimit:10;"/><path d="M125.4204,453.0548 C133.2947,476.7465 143.5796,514.0719 143.5796,547.4102 C143.5796,547.4102 143.5796,547.4102 143.5796,706.9102 C143.5796,729.3096 151.8815,749.2612 158.9923,763.1275" fill="none" style="stroke:#000000;stroke-width:1;"/></g><?plantuml-src bL4zRzj03DtlLp1PaXPMZDJDK0q5YgITWWQeqQdeGD_HCklx4Eue9-clBq-o4sNi98hlyTtZumNq32KDsL8BFTezTbIMDZcENQDrb6N9LXkPblGa50kdM9O-eQDy9QLThQwRZwiFvk8_X39Dn6OkisfkRZwfp1qLxY9amf9Y2m7t14MmKvq5e1K-eAY7XJBg-0A6E7qnEktz8LjXa8pgjPO5wAdtR5b6Yf2gRJnTcJFPKI3eFN8qPtt6BY1uV4w3G0aa6D6KFSSUCmPmjCN1oxSKvJlgsFbQ7rXJvktvZ5LswDAZUeKj-a8pPAEPT3aDqTqcd_9aK25DnWYB9_XwoXTkKmZLwprloJvRJyRyUlyRckOpt76nwK2Pd7ajHsGzXGGjSDJ5qVDVkiIUtvaJKba_neHqf8M3KjmOfffbhuflYHqN6TLRG4c1BVJ3ndFPcHbMgL_gLKXfATxhASpn_wsfwLnWTQ_wAirPFySJJhmXvgEwUMrFXe9kwqQfMZqyHkMSkfMX6PcN_OwDVm00?></g></svg>