<svg xmlns="http://www.w3.org/2000/svg" xmlns:xlink="http://www.w3.org/1999/xlink" contentStyleType="text/css" data-diagram-type="ACTIVITY" height="528px" preserveAspectRatio="none" style="width:1343px;height:528px;" version="1.1" viewBox="0 0 1343 528" width="1343px" zoomAndPan="magnify"><?plantuml 1.2026.6?><defs/><g><g class="title" data-source-line="323"><text fill="#000000" font-family="'PingFang SC'" font-size="22" font-weight="700" lengthAdjust="spacing" textLength="315.91" x="512.5938" y="38.32">Extension Command &#27880;&#20876;&#20915;&#31574;</text></g><ellipse cx="266.1799" cy="71.8" fill="#FFFFFF" rx="10" ry="10" style="stroke:#000000;stroke-width:1;"/><rect fill="#FFFFFF" height="36.8" rx="12.5" ry="12.5" style="stroke:#000000;stroke-width:1;" width="205.9198" x="163.2201" y="101.8"/><text fill="#000000" font-family="'PingFang SC'" font-size="12" lengthAdjust="spacing" textLength="185.9198" x="173.2201" y="124.52">registerCommand(name, options)</text><polygon fill="#FFFFFF" points="208.5548,158.6,323.8051,158.6,335.8051,170.6,323.8051,182.6,208.5548,182.6,196.5548,170.6,208.5548,158.6" style="stroke:#000000;stroke-width:1;stroke-linejoin:miter;stroke-miterlimit:10;"/><text fill="#000000" font-family="'PingFang SC'" font-size="11" lengthAdjust="spacing" textLength="115.2504" x="208.5548" y="174.56">Command name &#21512;&#27861;?</text><text fill="#000000" font-family="'PingFang SC'" font-size="11" lengthAdjust="spacing" textLength="11" x="185.5548" y="166.86">&#21542;</text><text fill="#000000" font-family="'PingFang SC'" font-size="11" lengthAdjust="spacing" textLength="11" x="335.8051" y="166.86">&#26159;</text><rect fill="#FFFFFF" height="36.8" rx="12.5" ry="12.5" style="stroke:#000000;stroke-width:1;" width="142.2201" x="11" y="192.6"/><text fill="#000000" font-family="'PingFang SC'" font-size="12" lengthAdjust="spacing" textLength="122.2201" x="21" y="215.32">&#25298;&#32477;&#65306;INVALID_NAME</text><ellipse cx="82.11" cy="275.4" fill="none" rx="11" ry="11" style="stroke:#000000;stroke-width:1;"/><ellipse cx="82.11" cy="275.4" fill="#FFFFFF" rx="6" ry="6" style="stroke:#000000;stroke-width:1;"/><polygon fill="#FFFFFF" points="390.5585,192.6,521.9822,192.6,533.9822,204.6,521.9822,216.6,390.5585,216.6,378.5585,204.6,390.5585,192.6" style="stroke:#000000;stroke-width:1;stroke-linejoin:miter;stroke-miterlimit:10;"/><text fill="#000000" font-family="'PingFang SC'" font-size="11" lengthAdjust="spacing" textLength="131.4237" x="390.5585" y="208.56">description/handler &#21512;&#27861;?</text><text fill="#000000" font-family="'PingFang SC'" font-size="11" lengthAdjust="spacing" textLength="11" x="367.5585" y="200.86">&#21542;</text><text fill="#000000" font-family="'PingFang SC'" font-size="11" lengthAdjust="spacing" textLength="11" x="533.9822" y="200.86">&#26159;</text><rect fill="#FFFFFF" height="36.8" rx="12.5" ry="12.5" style="stroke:#000000;stroke-width:1;" width="160.0905" x="177.1996" y="226.6"/><text fill="#000000" font-family="'PingFang SC'" font-size="12" lengthAdjust="spacing" textLength="140.0905" x="187.1996" y="249.32">&#25298;&#32477;&#65306;INVALID_OPTIONS</text><ellipse cx="257.2448" cy="309.4" fill="none" rx="11" ry="11" style="stroke:#000000;stroke-width:1;"/><ellipse cx="257.2448" cy="309.4" fill="#FFFFFF" rx="6" ry="6" style="stroke:#000000;stroke-width:1;"/><polygon fill="#FFFFFF" points="600.9971,226.6,684.0042,226.6,696.0042,238.6,684.0042,250.6,600.9971,250.6,588.9971,238.6,600.9971,226.6" style="stroke:#000000;stroke-width:1;stroke-linejoin:miter;stroke-miterlimit:10;"/><text fill="#000000" font-family="'PingFang SC'" font-size="11" lengthAdjust="spacing" textLength="83.0071" x="600.9971" y="242.56">&#19982;&#20869;&#32622;&#21629;&#20196;&#21516;&#21517;?</text><text fill="#000000" font-family="'PingFang SC'" font-size="11" lengthAdjust="spacing" textLength="11" x="577.9971" y="234.86">&#26159;</text><text fill="#000000" font-family="'PingFang SC'" font-size="11" lengthAdjust="spacing" textLength="11" x="696.0042" y="234.86">&#21542;</text><rect fill="#FFFFFF" height="36.8" rx="12.5" ry="12.5" style="stroke:#000000;stroke-width:1;" width="170.4873" x="367.2901" y="260.6"/><text fill="#000000" font-family="'PingFang SC'" font-size="12" lengthAdjust="spacing" textLength="150.4873" x="377.2901" y="283.32">&#25298;&#32477;&#65306;BUILTIN_RESERVED</text><ellipse cx="452.5337" cy="343.4" fill="none" rx="11" ry="11" style="stroke:#000000;stroke-width:1;"/><ellipse cx="452.5337" cy="343.4" fill="#FFFFFF" rx="6" ry="6" style="stroke:#000000;stroke-width:1;"/><polygon fill="#FFFFFF" points="801.1558,260.6,884.1629,260.6,896.1629,272.6,884.1629,284.6,801.1558,284.6,789.1558,272.6,801.1558,260.6" style="stroke:#000000;stroke-width:1;stroke-linejoin:miter;stroke-miterlimit:10;"/><text fill="#000000" font-family="'PingFang SC'" font-size="11" lengthAdjust="spacing" textLength="83.0071" x="801.1558" y="276.56">&#26412;&#27425;&#21021;&#22987;&#21270;&#37325;&#22797;?</text><text fill="#000000" font-family="'PingFang SC'" font-size="11" lengthAdjust="spacing" textLength="11" x="778.1558" y="268.86">&#26159;</text><text fill="#000000" font-family="'PingFang SC'" font-size="11" lengthAdjust="spacing" textLength="11" x="896.1629" y="268.86">&#21542;</text><rect fill="#FFFFFF" height="36.8" rx="12.5" ry="12.5" style="stroke:#000000;stroke-width:1;" width="213.1737" x="554.9822" y="294.6"/><text fill="#000000" font-family="'PingFang SC'" font-size="12" lengthAdjust="spacing" textLength="193.1737" x="564.9822" y="317.32">&#25298;&#32477;&#65306;DUPLICATE_IN_EXTENSION</text><ellipse cx="661.569" cy="377.4" fill="none" rx="11" ry="11" style="stroke:#000000;stroke-width:1;"/><ellipse cx="661.569" cy="377.4" fill="#FFFFFF" rx="6" ry="6" style="stroke:#000000;stroke-width:1;"/><polygon fill="#FFFFFF" points="976.653,294.6,1076.0534,294.6,1088.0534,306.6,1076.0534,318.6,976.653,318.6,964.653,306.6,976.653,294.6" style="stroke:#000000;stroke-width:1;stroke-linejoin:miter;stroke-miterlimit:10;"/><text fill="#000000" font-family="'PingFang SC'" font-size="11" lengthAdjust="spacing" textLength="99.4004" x="976.653" y="310.56">&#20854;&#20182; owner &#24050;&#27880;&#20876;?</text><text fill="#000000" font-family="'PingFang SC'" font-size="11" lengthAdjust="spacing" textLength="11" x="953.653" y="302.86">&#26159;</text><text fill="#000000" font-family="'PingFang SC'" font-size="11" lengthAdjust="spacing" textLength="11" x="1088.0534" y="302.86">&#21542;</text><rect fill="#FFFFFF" height="36.8" rx="12.5" ry="12.5" style="stroke:#000000;stroke-width:1;" width="185.7201" x="795.5524" y="328.6"/><text fill="#000000" font-family="'PingFang SC'" font-size="12" lengthAdjust="spacing" textLength="165.7201" x="805.5524" y="351.32">&#25298;&#32477;&#65306;COMMAND_CONFLICT</text><ellipse cx="888.4124" cy="411.4" fill="none" rx="11" ry="11" style="stroke:#000000;stroke-width:1;"/><ellipse cx="888.4124" cy="411.4" fill="#FFFFFF" rx="6" ry="6" style="stroke:#000000;stroke-width:1;"/><rect fill="#FFFFFF" height="36.8" rx="12.5" ry="12.5" style="stroke:#000000;stroke-width:1;" width="90.566" x="1119.011" y="328.6"/><text fill="#000000" font-family="'PingFang SC'" font-size="12" lengthAdjust="spacing" textLength="70.566" x="1129.011" y="351.32">&#21152;&#20837; Staging</text><polygon fill="#FFFFFF" points="1090.5555,400.4,1238.0325,400.4,1250.0325,412.4,1238.0325,424.4,1090.5555,424.4,1078.5555,412.4,1090.5555,400.4" style="stroke:#000000;stroke-width:1;stroke-linejoin:miter;stroke-miterlimit:10;"/><text fill="#000000" font-family="'PingFang SC'" font-size="11" lengthAdjust="spacing" textLength="147.4771" x="1090.5555" y="416.36">Extension &#20840;&#37096;&#21629;&#20196;&#26657;&#39564;&#23436;&#25104;?</text><text fill="#000000" font-family="'PingFang SC'" font-size="11" lengthAdjust="spacing" textLength="11" x="1067.5555" y="408.66">&#21542;</text><text fill="#000000" font-family="'PingFang SC'" font-size="11" lengthAdjust="spacing" textLength="11" x="1250.0325" y="408.66">&#26159;</text><rect fill="#FFFFFF" height="36.8" rx="12.5" ry="12.5" style="stroke:#000000;stroke-width:1;" width="114.566" x="1011.2725" y="434.4"/><text fill="#000000" font-family="'PingFang SC'" font-size="12" lengthAdjust="spacing" textLength="94.566" x="1021.2725" y="457.12">&#20002;&#24323;&#20840;&#37096; Staging</text><ellipse cx="1068.5555" cy="502.2" fill="none" rx="11" ry="11" style="stroke:#000000;stroke-width:1;"/><ellipse cx="1068.5555" cy="502.2" fill="#FFFFFF" rx="6" ry="6" style="stroke:#000000;stroke-width:1;"/><rect fill="#FFFFFF" height="36.8" rx="12.5" ry="12.5" style="stroke:#000000;stroke-width:1;" width="136.1301" x="1191.9675" y="434.4"/><text fill="#000000" font-family="'PingFang SC'" font-size="12" lengthAdjust="spacing" textLength="116.1301" x="1201.9675" y="457.12">&#21407;&#23376;&#21457;&#24067;&#26032; Snapshot</text><ellipse cx="1260.0325" cy="502.2" fill="none" rx="11" ry="11" style="stroke:#000000;stroke-width:1;"/><ellipse cx="1260.0325" cy="502.2" fill="#FFFFFF" rx="6" ry="6" style="stroke:#000000;stroke-width:1;"/><line style="stroke:#000000;stroke-width:1;" x1="266.1799" x2="266.1799" y1="81.8" y2="101.8"/><polygon fill="#000000" points="262.1799,91.8,266.1799,101.8,270.1799,91.8,266.1799,95.8" style="stroke:#000000;stroke-width:1;stroke-linejoin:miter;stroke-miterlimit:10;"/><line style="stroke:#000000;stroke-width:1;" x1="82.11" x2="82.11" y1="229.4" y2="264.4"/><polygon fill="#000000" points="78.11,254.4,82.11,264.4,86.11,254.4,82.11,258.4" style="stroke:#000000;stroke-width:1;stroke-linejoin:miter;stroke-miterlimit:10;"/><line style="stroke:#000000;stroke-width:1;" x1="257.2448" x2="257.2448" y1="263.4" y2="298.4"/><polygon fill="#000000" points="253.2448,288.4,257.2448,298.4,261.2448,288.4,257.2448,292.4" style="stroke:#000000;stroke-width:1;stroke-linejoin:miter;stroke-miterlimit:10;"/><line style="stroke:#000000;stroke-width:1;" x1="452.5337" x2="452.5337" y1="297.4" y2="332.4"/><polygon fill="#000000" points="448.5337,322.4,452.5337,332.4,456.5337,322.4,452.5337,326.4" style="stroke:#000000;stroke-width:1;stroke-linejoin:miter;stroke-miterlimit:10;"/><line style="stroke:#000000;stroke-width:1;" x1="661.569" x2="661.569" y1="331.4" y2="366.4"/><polygon fill="#000000" points="657.569,356.4,661.569,366.4,665.569,356.4,661.569,360.4" style="stroke:#000000;stroke-width:1;stroke-linejoin:miter;stroke-miterlimit:10;"/><line style="stroke:#000000;stroke-width:1;" x1="888.4124" x2="888.4124" y1="365.4" y2="400.4"/><polygon fill="#000000" points="884.4124,390.4,888.4124,400.4,892.4124,390.4,888.4124,394.4" style="stroke:#000000;stroke-width:1;stroke-linejoin:miter;stroke-miterlimit:10;"/><line style="stroke:#000000;stroke-width:1;" x1="1068.5555" x2="1068.5555" y1="471.2" y2="491.2"/><polygon fill="#000000" points="1064.5555,481.2,1068.5555,491.2,1072.5555,481.2,1068.5555,485.2" style="stroke:#000000;stroke-width:1;stroke-linejoin:miter;stroke-miterlimit:10;"/><line style="stroke:#000000;stroke-width:1;" x1="1260.0325" x2="1260.0325" y1="471.2" y2="491.2"/><polygon fill="#000000" points="1256.0325,481.2,1260.0325,491.2,1264.0325,481.2,1260.0325,485.2" style="stroke:#000000;stroke-width:1;stroke-linejoin:miter;stroke-miterlimit:10;"/><line style="stroke:#000000;stroke-width:1;" x1="1078.5555" x2="1068.5555" y1="412.4" y2="412.4"/><line style="stroke:#000000;stroke-width:1;" x1="1068.5555" x2="1068.5555" y1="412.4" y2="434.4"/><polygon fill="#000000" points="1064.5555,424.4,1068.5555,434.4,1072.5555,424.4,1068.5555,428.4" style="stroke:#000000;stroke-width:1;stroke-linejoin:miter;stroke-miterlimit:10;"/><line style="stroke:#000000;stroke-width:1;" x1="1250.0325" x2="1260.0325" y1="412.4" y2="412.4"/><line style="stroke:#000000;stroke-width:1;" x1="1260.0325" x2="1260.0325" y1="412.4" y2="434.4"/><polygon fill="#000000" points="1256.0325,424.4,1260.0325,434.4,1264.0325,424.4,1260.0325,428.4" style="stroke:#000000;stroke-width:1;stroke-linejoin:miter;stroke-miterlimit:10;"/><line style="stroke:#000000;stroke-width:1;" x1="1164.294" x2="1164.294" y1="365.4" y2="400.4"/><polygon fill="#000000" points="1160.294,390.4,1164.294,400.4,1168.294,390.4,1164.294,394.4" style="stroke:#000000;stroke-width:1;stroke-linejoin:miter;stroke-miterlimit:10;"/><line style="stroke:#000000;stroke-width:1;" x1="964.653" x2="888.4124" y1="306.6" y2="306.6"/><line style="stroke:#000000;stroke-width:1;" x1="888.4124" x2="888.4124" y1="306.6" y2="328.6"/><polygon fill="#000000" points="884.4124,318.6,888.4124,328.6,892.4124,318.6,888.4124,322.6" style="stroke:#000000;stroke-width:1;stroke-linejoin:miter;stroke-miterlimit:10;"/><line style="stroke:#000000;stroke-width:1;" x1="1088.0534" x2="1164.294" y1="306.6" y2="306.6"/><line style="stroke:#000000;stroke-width:1;" x1="1164.294" x2="1164.294" y1="306.6" y2="328.6"/><polygon fill="#000000" points="1160.294,318.6,1164.294,328.6,1168.294,318.6,1164.294,322.6" style="stroke:#000000;stroke-width:1;stroke-linejoin:miter;stroke-miterlimit:10;"/><line style="stroke:#000000;stroke-width:1;" x1="789.1558" x2="661.569" y1="272.6" y2="272.6"/><line style="stroke:#000000;stroke-width:1;" x1="661.569" x2="661.569" y1="272.6" y2="294.6"/><polygon fill="#000000" points="657.569,284.6,661.569,294.6,665.569,284.6,661.569,288.6" style="stroke:#000000;stroke-width:1;stroke-linejoin:miter;stroke-miterlimit:10;"/><line style="stroke:#000000;stroke-width:1;" x1="896.1629" x2="1026.3532" y1="272.6" y2="272.6"/><line style="stroke:#000000;stroke-width:1;" x1="1026.3532" x2="1026.3532" y1="272.6" y2="294.6"/><polygon fill="#000000" points="1022.3532,284.6,1026.3532,294.6,1030.3532,284.6,1026.3532,288.6" style="stroke:#000000;stroke-width:1;stroke-linejoin:miter;stroke-miterlimit:10;"/><line style="stroke:#000000;stroke-width:1;" x1="588.9971" x2="452.5337" y1="238.6" y2="238.6"/><line style="stroke:#000000;stroke-width:1;" x1="452.5337" x2="452.5337" y1="238.6" y2="260.6"/><polygon fill="#000000" points="448.5337,250.6,452.5337,260.6,456.5337,250.6,452.5337,254.6" style="stroke:#000000;stroke-width:1;stroke-linejoin:miter;stroke-miterlimit:10;"/><line style="stroke:#000000;stroke-width:1;" x1="696.0042" x2="842.6594" y1="238.6" y2="238.6"/><line style="stroke:#000000;stroke-width:1;" x1="842.6594" x2="842.6594" y1="238.6" y2="260.6"/><polygon fill="#000000" points="838.6594,250.6,842.6594,260.6,846.6594,250.6,842.6594,254.6" style="stroke:#000000;stroke-width:1;stroke-linejoin:miter;stroke-miterlimit:10;"/><line style="stroke:#000000;stroke-width:1;" x1="378.5585" x2="257.2448" y1="204.6" y2="204.6"/><line style="stroke:#000000;stroke-width:1;" x1="257.2448" x2="257.2448" y1="204.6" y2="226.6"/><polygon fill="#000000" points="253.2448,216.6,257.2448,226.6,261.2448,216.6,257.2448,220.6" style="stroke:#000000;stroke-width:1;stroke-linejoin:miter;stroke-miterlimit:10;"/><line style="stroke:#000000;stroke-width:1;" x1="533.9822" x2="642.5007" y1="204.6" y2="204.6"/><line style="stroke:#000000;stroke-width:1;" x1="642.5007" x2="642.5007" y1="204.6" y2="226.6"/><polygon fill="#000000" points="638.5007,216.6,642.5007,226.6,646.5007,216.6,642.5007,220.6" style="stroke:#000000;stroke-width:1;stroke-linejoin:miter;stroke-miterlimit:10;"/><line style="stroke:#000000;stroke-width:1;" x1="196.5548" x2="82.11" y1="170.6" y2="170.6"/><line style="stroke:#000000;stroke-width:1;" x1="82.11" x2="82.11" y1="170.6" y2="192.6"/><polygon fill="#000000" points="78.11,182.6,82.11,192.6,86.11,182.6,82.11,186.6" style="stroke:#000000;stroke-width:1;stroke-linejoin:miter;stroke-miterlimit:10;"/><line style="stroke:#000000;stroke-width:1;" x1="335.8051" x2="456.2703" y1="170.6" y2="170.6"/><line style="stroke:#000000;stroke-width:1;" x1="456.2703" x2="456.2703" y1="170.6" y2="192.6"/><polygon fill="#000000" points="452.2703,182.6,456.2703,192.6,460.2703,182.6,456.2703,186.6" style="stroke:#000000;stroke-width:1;stroke-linejoin:miter;stroke-miterlimit:10;"/><line style="stroke:#000000;stroke-width:1;" x1="266.1799" x2="266.1799" y1="138.6" y2="158.6"/><polygon fill="#000000" points="262.1799,148.6,266.1799,158.6,270.1799,148.6,266.1799,152.6" style="stroke:#000000;stroke-width:1;stroke-linejoin:miter;stroke-miterlimit:10;"/><?plantuml-src ZP91JnD15CVl-oaUN834KW-WqXvCQKjI0uNGGhmrm-wqdR0xqynCYvm9IAHWCR4nHY8OL680ZIHA0dmRPWadlu9lMIYhLkEbdPttd__l_zvC7zGOA56NDar0ZTZpf49Lt1OEuvKOhhcEAsdZXgHn-aHJhfZWAYxhd5Cvg5LYUFXUR7ZahjNtVqQUS72RSKqbiJLhqEWw5bG3qw47Gx6XaVje-eWq23XOasWHMDk2brs6Sbw1JY3SzJp27GLbmboGjCAKbaG79SQLfiG1KSPzcx96S1BD4AgfW-M6i4Cb9nvLWmZDKCKg7EL42Pw0eXYz0G1pi1Ec5y6hAmrp51oAyJt64SXi22IaxZ1DvbmwQFNeAlKer5p2kDLJawJY4N39egXhK1xLX1DBpJDU8v9uQ5KcTLUF2Qxp60Lwfp3g6C6uXNHlHAUgn14BGHjbuYeQgSpXt2jIrBcJ5gwGW3FW2akOsSBKBeLiPsJfwuxyepspqZGhHnS7RSjIcaXj9S89KdajwWz6SmT4BPYJ6aXQh0pzDmP13KnhrJzw-N00i6CE_QRrOS02IFXhBovEjdwSlixbPrFZkKmfdvh89h6YjAXP5DD3l__gSw0DBF5js99TKU9Lz7Qf_8jpD-_9gM9kCbz8NfMl002_84B8-V66MLc-E3iqcsVd9xkcrJIjzOv_HnebZCxanekvV6awMyXEpsOpoMl5DUG6qyaMWlmt-_x-ZbdTCX_NJBDz-NJTx7O5HL6PcQdnN3fLp9QGbtrSpEOBs5Ioe-mWkq13h5d-TdxI1h70W-bz_nfUS7Tkb9oUd9X8vJEbz6H-32CKan5LXDgLYpxcsRPPVWy5JIhuDAE7Wr2txyuixrqkxOMpzxTtBZyrpM7JNstzUSCTw_FZT-PqAJpO3V1RlZzk_JRZnbjpq3BFDytnaj_-0WLEQgegzB_DkCFALhUls_NDAlo_-lq9?></g></svg>