<svg xmlns="http://www.w3.org/2000/svg" xmlns:xlink="http://www.w3.org/1999/xlink" contentStyleType="text/css" data-diagram-type="ACTIVITY" height="515px" preserveAspectRatio="none" style="width:1472px;height:515px;" version="1.1" viewBox="0 0 1472 515" width="1472px" zoomAndPan="magnify"><?plantuml 1.2026.6?><defs/><g><g class="title" data-source-line="323"><text fill="#000000" font-family="'sans-serif'" font-size="22" font-weight="700" lengthAdjust="spacing" textLength="482.5498" x="494.0551" y="36.2695">Extension Command Registration Decision</text></g><ellipse cx="278.9297" cy="66.9102" fill="#FFFFFF" rx="10" ry="10" style="stroke:#000000;stroke-width:1;"/><rect fill="#FFFFFF" height="34.1328" rx="12.5" ry="12.5" style="stroke:#000000;stroke-width:1;" width="215.6328" x="171.1133" y="96.9102"/><text fill="#000000" font-family="'sans-serif'" font-size="12" lengthAdjust="spacing" textLength="195.6328" x="181.1133" y="118.5117">registerCommand(name, options)</text><polygon fill="#FFFFFF" points="218.5881,151.043,339.2712,151.043,351.2712,163.043,339.2712,175.043,218.5881,175.043,206.5881,163.043,218.5881,151.043" style="stroke:#000000;stroke-width:1;stroke-linejoin:miter;stroke-miterlimit:10;"/><text fill="#000000" font-family="'sans-serif'" font-size="11" lengthAdjust="spacing" textLength="120.6831" x="218.5881" y="167.2002">Command name valid?</text><text fill="#000000" font-family="'sans-serif'" font-size="11" lengthAdjust="spacing" textLength="13.5835" x="193.0046" y="160.7227">no</text><text fill="#000000" font-family="'sans-serif'" font-size="11" lengthAdjust="spacing" textLength="17.4829" x="351.2712" y="160.7227">yes</text><rect fill="#FFFFFF" height="34.1328" rx="12.5" ry="12.5" style="stroke:#000000;stroke-width:1;" width="150.1133" x="11" y="185.043"/><text fill="#000000" font-family="'sans-serif'" font-size="12" lengthAdjust="spacing" textLength="130.1133" x="21" y="206.6445">Reject: INVALID_NAME</text><ellipse cx="86.0566" cy="265.1758" fill="none" rx="11" ry="11" style="stroke:#000000;stroke-width:1;"/><ellipse cx="86.0566" cy="265.1758" fill="#FFFFFF" rx="6" ry="6" style="stroke:#000000;stroke-width:1;"/><polygon fill="#FFFFFF" points="395.4969,185.043,555.6898,185.043,567.6898,197.043,555.6898,209.043,395.4969,209.043,383.4969,197.043,395.4969,185.043" style="stroke:#000000;stroke-width:1;stroke-linejoin:miter;stroke-miterlimit:10;"/><text fill="#000000" font-family="'sans-serif'" font-size="11" lengthAdjust="spacing" textLength="160.1929" x="395.4969" y="201.2002">description and handler valid?</text><text fill="#000000" font-family="'sans-serif'" font-size="11" lengthAdjust="spacing" textLength="13.5835" x="369.9134" y="194.7227">no</text><text fill="#000000" font-family="'sans-serif'" font-size="11" lengthAdjust="spacing" textLength="17.4829" x="567.6898" y="194.7227">yes</text><rect fill="#FFFFFF" height="34.1328" rx="12.5" ry="12.5" style="stroke:#000000;stroke-width:1;" width="167.7793" x="187.3227" y="219.043"/><text fill="#000000" font-family="'sans-serif'" font-size="12" lengthAdjust="spacing" textLength="147.7793" x="197.3227" y="240.6445">Reject: INVALID_OPTIONS</text><ellipse cx="271.2123" cy="299.1758" fill="none" rx="11" ry="11" style="stroke:#000000;stroke-width:1;"/><ellipse cx="271.2123" cy="299.1758" fill="#FFFFFF" rx="6" ry="6" style="stroke:#000000;stroke-width:1;"/><polygon fill="#FFFFFF" points="619.3992,219.043,740.5496,219.043,752.5496,231.043,740.5496,243.043,619.3992,243.043,607.3992,231.043,619.3992,219.043" style="stroke:#000000;stroke-width:1;stroke-linejoin:miter;stroke-miterlimit:10;"/><text fill="#000000" font-family="'sans-serif'" font-size="11" lengthAdjust="spacing" textLength="121.1504" x="619.3992" y="235.2002">Conflicts with Built-in?</text><text fill="#000000" font-family="'sans-serif'" font-size="11" lengthAdjust="spacing" textLength="17.4829" x="589.9163" y="228.7227">yes</text><text fill="#000000" font-family="'sans-serif'" font-size="11" lengthAdjust="spacing" textLength="13.5835" x="752.5496" y="228.7227">no</text><rect fill="#FFFFFF" height="34.1328" rx="12.5" ry="12.5" style="stroke:#000000;stroke-width:1;" width="171.8047" x="385.102" y="253.043"/><text fill="#000000" font-family="'sans-serif'" font-size="12" lengthAdjust="spacing" textLength="151.8047" x="395.102" y="274.6445">Reject: BUILTIN_RESERVED</text><ellipse cx="471.0043" cy="333.1758" fill="none" rx="11" ry="11" style="stroke:#000000;stroke-width:1;"/><ellipse cx="471.0043" cy="333.1758" fill="#FFFFFF" rx="6" ry="6" style="stroke:#000000;stroke-width:1;"/><polygon fill="#FFFFFF" points="808.3003,253.043,969.5888,253.043,981.5888,265.043,969.5888,277.043,808.3003,277.043,796.3003,265.043,808.3003,253.043" style="stroke:#000000;stroke-width:1;stroke-linejoin:miter;stroke-miterlimit:10;"/><text fill="#000000" font-family="'sans-serif'" font-size="11" lengthAdjust="spacing" textLength="161.2886" x="808.3003" y="269.2002">Duplicate in this initialization?</text><text fill="#000000" font-family="'sans-serif'" font-size="11" lengthAdjust="spacing" textLength="17.4829" x="778.8173" y="262.7227">yes</text><text fill="#000000" font-family="'sans-serif'" font-size="11" lengthAdjust="spacing" textLength="13.5835" x="981.5888" y="262.7227">no</text><rect fill="#FFFFFF" height="34.1328" rx="12.5" ry="12.5" style="stroke:#000000;stroke-width:1;" width="216.7051" x="586.9066" y="287.043"/><text fill="#000000" font-family="'sans-serif'" font-size="12" lengthAdjust="spacing" textLength="196.7051" x="596.9066" y="308.6445">Reject: DUPLICATE_IN_EXTENSION</text><ellipse cx="695.2592" cy="367.1758" fill="none" rx="11" ry="11" style="stroke:#000000;stroke-width:1;"/><ellipse cx="695.2592" cy="367.1758" fill="#FFFFFF" rx="6" ry="6" style="stroke:#000000;stroke-width:1;"/><polygon fill="#FFFFFF" points="1003.5325,287.043,1161.7273,287.043,1173.7273,299.043,1161.7273,311.043,1003.5325,311.043,991.5325,299.043,1003.5325,287.043" style="stroke:#000000;stroke-width:1;stroke-linejoin:miter;stroke-miterlimit:10;"/><text fill="#000000" font-family="'sans-serif'" font-size="11" lengthAdjust="spacing" textLength="158.1948" x="1003.5325" y="303.2002">Registered by another owner?</text><text fill="#000000" font-family="'sans-serif'" font-size="11" lengthAdjust="spacing" textLength="17.4829" x="974.0496" y="296.7227">yes</text><text fill="#000000" font-family="'sans-serif'" font-size="11" lengthAdjust="spacing" textLength="13.5835" x="1173.7273" y="296.7227">no</text><rect fill="#FFFFFF" height="34.1328" rx="12.5" ry="12.5" style="stroke:#000000;stroke-width:1;" width="191.9375" x="833.6117" y="321.043"/><text fill="#000000" font-family="'sans-serif'" font-size="12" lengthAdjust="spacing" textLength="171.9375" x="843.6117" y="342.6445">Reject: COMMAND_CONFLICT</text><ellipse cx="929.5805" cy="401.1758" fill="none" rx="11" ry="11" style="stroke:#000000;stroke-width:1;"/><ellipse cx="929.5805" cy="401.1758" fill="#FFFFFF" rx="6" ry="6" style="stroke:#000000;stroke-width:1;"/><rect fill="#FFFFFF" height="34.1328" rx="12.5" ry="12.5" style="stroke:#000000;stroke-width:1;" width="106.2969" x="1182.5309" y="321.043"/><text fill="#000000" font-family="'sans-serif'" font-size="12" lengthAdjust="spacing" textLength="86.2969" x="1192.5309" y="342.6445">Add to Staging</text><polygon fill="#FFFFFF" points="1141.7631,390.1758,1329.5956,390.1758,1341.5956,402.1758,1329.5956,414.1758,1141.7631,414.1758,1129.7631,402.1758,1141.7631,390.1758" style="stroke:#000000;stroke-width:1;stroke-linejoin:miter;stroke-miterlimit:10;"/><text fill="#000000" font-family="'sans-serif'" font-size="11" lengthAdjust="spacing" textLength="187.8325" x="1141.7631" y="406.333">All Extension commands validated?</text><text fill="#000000" font-family="'sans-serif'" font-size="11" lengthAdjust="spacing" textLength="13.5835" x="1116.1796" y="399.8555">no</text><text fill="#000000" font-family="'sans-serif'" font-size="11" lengthAdjust="spacing" textLength="17.4829" x="1341.5956" y="399.8555">yes</text><rect fill="#FFFFFF" height="34.1328" rx="12.5" ry="12.5" style="stroke:#000000;stroke-width:1;" width="128.4277" x="1055.5492" y="424.1758"/><text fill="#000000" font-family="'sans-serif'" font-size="12" lengthAdjust="spacing" textLength="108.4277" x="1065.5492" y="445.7773">Discard all Staging</text><ellipse cx="1119.7631" cy="489.3086" fill="none" rx="11" ry="11" style="stroke:#000000;stroke-width:1;"/><ellipse cx="1119.7631" cy="489.3086" fill="#FFFFFF" rx="6" ry="6" style="stroke:#000000;stroke-width:1;"/><rect fill="#FFFFFF" height="34.1328" rx="12.5" ry="12.5" style="stroke:#000000;stroke-width:1;" width="212.1289" x="1245.5312" y="424.1758"/><text fill="#000000" font-family="'sans-serif'" font-size="12" lengthAdjust="spacing" textLength="192.1289" x="1255.5312" y="445.7773">Atomically publish new Snapshot</text><ellipse cx="1351.5956" cy="489.3086" fill="none" rx="11" ry="11" style="stroke:#000000;stroke-width:1;"/><ellipse cx="1351.5956" cy="489.3086" fill="#FFFFFF" rx="6" ry="6" style="stroke:#000000;stroke-width:1;"/><line style="stroke:#000000;stroke-width:1;" x1="278.9297" x2="278.9297" y1="76.9102" y2="96.9102"/><polygon fill="#000000" points="274.9297,86.9102,278.9297,96.9102,282.9297,86.9102,278.9297,90.9102" style="stroke:#000000;stroke-width:1;stroke-linejoin:miter;stroke-miterlimit:10;"/><line style="stroke:#000000;stroke-width:1;" x1="86.0566" x2="86.0566" y1="219.1758" y2="254.1758"/><polygon fill="#000000" points="82.0566,244.1758,86.0566,254.1758,90.0566,244.1758,86.0566,248.1758" style="stroke:#000000;stroke-width:1;stroke-linejoin:miter;stroke-miterlimit:10;"/><line style="stroke:#000000;stroke-width:1;" x1="271.2123" x2="271.2123" y1="253.1758" y2="288.1758"/><polygon fill="#000000" points="267.2123,278.1758,271.2123,288.1758,275.2123,278.1758,271.2123,282.1758" style="stroke:#000000;stroke-width:1;stroke-linejoin:miter;stroke-miterlimit:10;"/><line style="stroke:#000000;stroke-width:1;" x1="471.0043" x2="471.0043" y1="287.1758" y2="322.1758"/><polygon fill="#000000" points="467.0043,312.1758,471.0043,322.1758,475.0043,312.1758,471.0043,316.1758" style="stroke:#000000;stroke-width:1;stroke-linejoin:miter;stroke-miterlimit:10;"/><line style="stroke:#000000;stroke-width:1;" x1="695.2592" x2="695.2592" y1="321.1758" y2="356.1758"/><polygon fill="#000000" points="691.2592,346.1758,695.2592,356.1758,699.2592,346.1758,695.2592,350.1758" style="stroke:#000000;stroke-width:1;stroke-linejoin:miter;stroke-miterlimit:10;"/><line style="stroke:#000000;stroke-width:1;" x1="929.5805" x2="929.5805" y1="355.1758" y2="390.1758"/><polygon fill="#000000" points="925.5805,380.1758,929.5805,390.1758,933.5805,380.1758,929.5805,384.1758" style="stroke:#000000;stroke-width:1;stroke-linejoin:miter;stroke-miterlimit:10;"/><line style="stroke:#000000;stroke-width:1;" x1="1119.7631" x2="1119.7631" y1="458.3086" y2="478.3086"/><polygon fill="#000000" points="1115.7631,468.3086,1119.7631,478.3086,1123.7631,468.3086,1119.7631,472.3086" style="stroke:#000000;stroke-width:1;stroke-linejoin:miter;stroke-miterlimit:10;"/><line style="stroke:#000000;stroke-width:1;" x1="1351.5956" x2="1351.5956" y1="458.3086" y2="478.3086"/><polygon fill="#000000" points="1347.5956,468.3086,1351.5956,478.3086,1355.5956,468.3086,1351.5956,472.3086" style="stroke:#000000;stroke-width:1;stroke-linejoin:miter;stroke-miterlimit:10;"/><line style="stroke:#000000;stroke-width:1;" x1="1129.7631" x2="1119.7631" y1="402.1758" y2="402.1758"/><line style="stroke:#000000;stroke-width:1;" x1="1119.7631" x2="1119.7631" y1="402.1758" y2="424.1758"/><polygon fill="#000000" points="1115.7631,414.1758,1119.7631,424.1758,1123.7631,414.1758,1119.7631,418.1758" style="stroke:#000000;stroke-width:1;stroke-linejoin:miter;stroke-miterlimit:10;"/><line style="stroke:#000000;stroke-width:1;" x1="1341.5956" x2="1351.5956" y1="402.1758" y2="402.1758"/><line style="stroke:#000000;stroke-width:1;" x1="1351.5956" x2="1351.5956" y1="402.1758" y2="424.1758"/><polygon fill="#000000" points="1347.5956,414.1758,1351.5956,424.1758,1355.5956,414.1758,1351.5956,418.1758" style="stroke:#000000;stroke-width:1;stroke-linejoin:miter;stroke-miterlimit:10;"/><line style="stroke:#000000;stroke-width:1;" x1="1235.6793" x2="1235.6793" y1="355.1758" y2="390.1758"/><polygon fill="#000000" points="1231.6793,380.1758,1235.6793,390.1758,1239.6793,380.1758,1235.6793,384.1758" style="stroke:#000000;stroke-width:1;stroke-linejoin:miter;stroke-miterlimit:10;"/><line style="stroke:#000000;stroke-width:1;" x1="991.5325" x2="929.5805" y1="299.043" y2="299.043"/><line style="stroke:#000000;stroke-width:1;" x1="929.5805" x2="929.5805" y1="299.043" y2="321.043"/><polygon fill="#000000" points="925.5805,311.043,929.5805,321.043,933.5805,311.043,929.5805,315.043" style="stroke:#000000;stroke-width:1;stroke-linejoin:miter;stroke-miterlimit:10;"/><line style="stroke:#000000;stroke-width:1;" x1="1173.7273" x2="1235.6793" y1="299.043" y2="299.043"/><line style="stroke:#000000;stroke-width:1;" x1="1235.6793" x2="1235.6793" y1="299.043" y2="321.043"/><polygon fill="#000000" points="1231.6793,311.043,1235.6793,321.043,1239.6793,311.043,1235.6793,315.043" style="stroke:#000000;stroke-width:1;stroke-linejoin:miter;stroke-miterlimit:10;"/><line style="stroke:#000000;stroke-width:1;" x1="796.3003" x2="695.2592" y1="265.043" y2="265.043"/><line style="stroke:#000000;stroke-width:1;" x1="695.2592" x2="695.2592" y1="265.043" y2="287.043"/><polygon fill="#000000" points="691.2592,277.043,695.2592,287.043,699.2592,277.043,695.2592,281.043" style="stroke:#000000;stroke-width:1;stroke-linejoin:miter;stroke-miterlimit:10;"/><line style="stroke:#000000;stroke-width:1;" x1="981.5888" x2="1082.6299" y1="265.043" y2="265.043"/><line style="stroke:#000000;stroke-width:1;" x1="1082.6299" x2="1082.6299" y1="265.043" y2="287.043"/><polygon fill="#000000" points="1078.6299,277.043,1082.6299,287.043,1086.6299,277.043,1082.6299,281.043" style="stroke:#000000;stroke-width:1;stroke-linejoin:miter;stroke-miterlimit:10;"/><line style="stroke:#000000;stroke-width:1;" x1="607.3992" x2="471.0043" y1="231.043" y2="231.043"/><line style="stroke:#000000;stroke-width:1;" x1="471.0043" x2="471.0043" y1="231.043" y2="253.043"/><polygon fill="#000000" points="467.0043,243.043,471.0043,253.043,475.0043,243.043,471.0043,247.043" style="stroke:#000000;stroke-width:1;stroke-linejoin:miter;stroke-miterlimit:10;"/><line style="stroke:#000000;stroke-width:1;" x1="752.5496" x2="888.9445" y1="231.043" y2="231.043"/><line style="stroke:#000000;stroke-width:1;" x1="888.9445" x2="888.9445" y1="231.043" y2="253.043"/><polygon fill="#000000" points="884.9445,243.043,888.9445,253.043,892.9445,243.043,888.9445,247.043" style="stroke:#000000;stroke-width:1;stroke-linejoin:miter;stroke-miterlimit:10;"/><line style="stroke:#000000;stroke-width:1;" x1="383.4969" x2="271.2123" y1="197.043" y2="197.043"/><line style="stroke:#000000;stroke-width:1;" x1="271.2123" x2="271.2123" y1="197.043" y2="219.043"/><polygon fill="#000000" points="267.2123,209.043,271.2123,219.043,275.2123,209.043,271.2123,213.043" style="stroke:#000000;stroke-width:1;stroke-linejoin:miter;stroke-miterlimit:10;"/><line style="stroke:#000000;stroke-width:1;" x1="567.6898" x2="679.9744" y1="197.043" y2="197.043"/><line style="stroke:#000000;stroke-width:1;" x1="679.9744" x2="679.9744" y1="197.043" y2="219.043"/><polygon fill="#000000" points="675.9744,209.043,679.9744,219.043,683.9744,209.043,679.9744,213.043" style="stroke:#000000;stroke-width:1;stroke-linejoin:miter;stroke-miterlimit:10;"/><line style="stroke:#000000;stroke-width:1;" x1="206.5881" x2="86.0566" y1="163.043" y2="163.043"/><line style="stroke:#000000;stroke-width:1;" x1="86.0566" x2="86.0566" y1="163.043" y2="185.043"/><polygon fill="#000000" points="82.0566,175.043,86.0566,185.043,90.0566,175.043,86.0566,179.043" style="stroke:#000000;stroke-width:1;stroke-linejoin:miter;stroke-miterlimit:10;"/><line style="stroke:#000000;stroke-width:1;" x1="351.2712" x2="475.5934" y1="163.043" y2="163.043"/><line style="stroke:#000000;stroke-width:1;" x1="475.5934" x2="475.5934" y1="163.043" y2="185.043"/><polygon fill="#000000" points="471.5934,175.043,475.5934,185.043,479.5934,175.043,475.5934,179.043" style="stroke:#000000;stroke-width:1;stroke-linejoin:miter;stroke-miterlimit:10;"/><line style="stroke:#000000;stroke-width:1;" x1="278.9297" x2="278.9297" y1="131.043" y2="151.043"/><polygon fill="#000000" points="274.9297,141.043,278.9297,151.043,282.9297,141.043,278.9297,145.043" style="stroke:#000000;stroke-width:1;stroke-linejoin:miter;stroke-miterlimit:10;"/><?plantuml-src ZPDDRzim38Rl_XLiBqs1fTcXtTRaCAIn2sHedI99Yzq2nQ8Thh9aI7AoxDUFoeVhhS6mYosBhz-7fAWBg0YSgMs6VQX4zYeATBtCID95bzVQzvpDUCDY3tzwr8wCTZrRQutsohl-pSsdxitjn-ZY_unA8tcRj4ShCazhRA-x8HfChxzSTwzlFxFfDx4M83bcsI9OPqRdYbYk2sWIujso55ewo0Kfi5YGyrRu42BjF0e99kVz36aT_cGpXdgK75wRRA_KeaHtnT0O7HMQvS8PtOUvkJi2W2HNGduBPUqyB14aSlebQGPI1a4YQabUB1LUHMT-XIL2fGJfwAooeYW5AB4rjGTNeXTQHEwLT2MiADag5xNozqRxb5E1yvdGReQMylEMogs4D9jGH2wKmrPaoLqlhAcr71bbB707jECGPnnnpWeXQHesEjGpRRSgnen2D8gS5zP7_NqZqHxKdT2X3s2ge7QNWuXow1oTGWpMGf7yUWbSjuQEDfSHG7-AFp3pVHYdByE7SRn8Xu_9W0FEcof2hW4wMtH16lnuFZ9BEyIkdIj-ABGdhK-OJvxcuqaw6-oYEmB07umzPNGO8mSRyYkugqdvBkd6ln6t47VFuuVvE5rCaraoVKdYmK5me1mvnzJseBYkcCEZnfF6tkJuJPwuc5-xffyYjfZnyzF3U3IS9mi69z_dIJhZyWQDi66_f-_vqyCHygWljznGmpGBPiFpVnhTWeycZu_3D5wC9kazPp4Vj4Gjy2aqkmob16zWvaN1qzh-D-GrLAerZitztProk9ZlJhhnZSbbml8zOuSJvd-bzkxqt_BpfkIJKMeBLRrKv5QWSGCpBIgtClxVdbfI7ftwUbiVL_ltxlaR?></g></svg>