<svg xmlns="http://www.w3.org/2000/svg" xmlns:xlink="http://www.w3.org/1999/xlink" contentStyleType="text/css" data-diagram-type="ACTIVITY" height="471px" preserveAspectRatio="none" style="width:638px;height:471px;" version="1.1" viewBox="0 0 638 471" width="638px" zoomAndPan="magnify"><?plantuml 1.2026.6?><defs/><g><g class="title" data-source-line="370"><text fill="#000000" font-family="'PingFang SC'" font-size="22" font-weight="700" lengthAdjust="spacing" textLength="337.91" x="149.3514" y="38.32">Extension Command &#36755;&#20837;&#20248;&#20808;&#32423;</text></g><ellipse cx="251.5832" cy="71.8" fill="#FFFFFF" rx="10" ry="10" style="stroke:#000000;stroke-width:1;"/><rect fill="#FFFFFF" height="36.8" rx="12.5" ry="12.5" style="stroke:#000000;stroke-width:1;" width="68" x="217.5832" y="101.8"/><text fill="#000000" font-family="'PingFang SC'" font-size="12" lengthAdjust="spacing" textLength="48" x="227.5832" y="124.52">&#29992;&#25143;&#36755;&#20837;</text><polygon fill="#FFFFFF" points="210.0796,158.6,293.0867,158.6,305.0867,170.6,293.0867,182.6,210.0796,182.6,198.0796,170.6,210.0796,158.6" style="stroke:#000000;stroke-width:1;stroke-linejoin:miter;stroke-miterlimit:10;"/><text fill="#000000" font-family="'PingFang SC'" font-size="11" lengthAdjust="spacing" textLength="83.0071" x="210.0796" y="174.56">&#21305;&#37197;&#24050;&#27880;&#20876;&#21629;&#20196;?</text><text fill="#000000" font-family="'PingFang SC'" font-size="11" lengthAdjust="spacing" textLength="11" x="187.0796" y="166.86">&#26159;</text><text fill="#000000" font-family="'PingFang SC'" font-size="11" lengthAdjust="spacing" textLength="11" x="305.0867" y="166.86">&#21542;</text><rect fill="#FFFFFF" height="36.8" rx="12.5" ry="12.5" style="stroke:#000000;stroke-width:1;" width="211.4097" x="11" y="192.6"/><text fill="#000000" font-family="'PingFang SC'" font-size="12" lengthAdjust="spacing" textLength="191.4097" x="21" y="215.32">&#25191;&#34892; Built-in &#25110; Extension Handler</text><rect fill="#FFFFFF" height="36.8" rx="12.5" ry="12.5" style="stroke:#000000;stroke-width:1;" width="165.416" x="33.9968" y="264.4"/><text fill="#000000" font-family="'PingFang SC'" font-size="12" lengthAdjust="spacing" textLength="145.416" x="43.9968" y="287.12">&#32467;&#26463;&#65292;&#19981;&#36827;&#20837; LLM Prompt</text><ellipse cx="116.7049" cy="347.2" fill="none" rx="11" ry="11" style="stroke:#000000;stroke-width:1;"/><ellipse cx="116.7049" cy="347.2" fill="#FFFFFF" rx="6" ry="6" style="stroke:#000000;stroke-width:1;"/><polygon fill="#FFFFFF" points="342.88,192.6,430.043,192.6,442.043,204.6,430.043,216.6,342.88,216.6,330.88,204.6,342.88,192.6" style="stroke:#000000;stroke-width:1;stroke-linejoin:miter;stroke-miterlimit:10;"/><text fill="#000000" font-family="'PingFang SC'" font-size="11" lengthAdjust="spacing" textLength="87.163" x="342.88" y="208.56">&#21305;&#37197; /skill:name?</text><text fill="#000000" font-family="'PingFang SC'" font-size="11" lengthAdjust="spacing" textLength="11" x="319.88" y="200.86">&#26159;</text><text fill="#000000" font-family="'PingFang SC'" font-size="11" lengthAdjust="spacing" textLength="11" x="442.043" y="200.86">&#21542;</text><rect fill="#FFFFFF" height="36.8" rx="12.5" ry="12.5" style="stroke:#000000;stroke-width:1;" width="70.712" x="252.4097" y="226.6"/><text fill="#000000" font-family="'PingFang SC'" font-size="12" lengthAdjust="spacing" textLength="50.712" x="262.4097" y="249.32">&#23637;&#24320; Skill</text><polygon fill="#FFFFFF" points="425.056,226.6,545.2586,226.6,557.2586,238.6,545.2586,250.6,425.056,250.6,413.056,238.6,425.056,226.6" style="stroke:#000000;stroke-width:1;stroke-linejoin:miter;stroke-miterlimit:10;"/><text fill="#000000" font-family="'PingFang SC'" font-size="11" lengthAdjust="spacing" textLength="120.2026" x="425.056" y="242.56">&#21305;&#37197; Prompt Template?</text><text fill="#000000" font-family="'PingFang SC'" font-size="11" lengthAdjust="spacing" textLength="11" x="402.056" y="234.86">&#26159;</text><text fill="#000000" font-family="'PingFang SC'" font-size="11" lengthAdjust="spacing" textLength="11" x="557.2586" y="234.86">&#21542;</text><rect fill="#FFFFFF" height="36.8" rx="12.5" ry="12.5" style="stroke:#000000;stroke-width:1;" width="99.8684" x="353.1218" y="260.6"/><text fill="#000000" font-family="'PingFang SC'" font-size="12" lengthAdjust="spacing" textLength="79.8684" x="363.1218" y="283.32">&#23637;&#24320; Template</text><rect fill="#FFFFFF" height="36.8" rx="12.5" ry="12.5" style="stroke:#000000;stroke-width:1;" width="112.7084" x="510.9043" y="260.6"/><text fill="#000000" font-family="'PingFang SC'" font-size="12" lengthAdjust="spacing" textLength="92.7084" x="520.9043" y="283.32">&#20316;&#20026;&#26222;&#36890; Prompt</text><polygon fill="#FFFFFF" points="485.1573,303.4,497.1573,315.4,485.1573,327.4,473.1573,315.4,485.1573,303.4" style="stroke:#000000;stroke-width:1;stroke-linejoin:miter;stroke-miterlimit:10;"/><polygon fill="#FFFFFF" points="386.4615,333.4,398.4615,345.4,386.4615,357.4,374.4615,345.4,386.4615,333.4" style="stroke:#000000;stroke-width:1;stroke-linejoin:miter;stroke-miterlimit:10;"/><rect fill="#FFFFFF" height="36.8" rx="12.5" ry="12.5" style="stroke:#000000;stroke-width:1;" width="117.416" x="327.7535" y="378.2"/><text fill="#000000" font-family="'PingFang SC'" font-size="12" lengthAdjust="spacing" textLength="97.416" x="337.7535" y="400.92">&#36827;&#20837; LLM Prompt</text><ellipse cx="386.4615" cy="446" fill="none" rx="11" ry="11" style="stroke:#000000;stroke-width:1;"/><ellipse cx="386.4615" cy="446" fill="#FFFFFF" rx="6" ry="6" style="stroke:#000000;stroke-width:1;"/><line style="stroke:#000000;stroke-width:1;" x1="251.5832" x2="251.5832" y1="81.8" y2="101.8"/><polygon fill="#000000" points="247.5832,91.8,251.5832,101.8,255.5832,91.8,251.5832,95.8" style="stroke:#000000;stroke-width:1;stroke-linejoin:miter;stroke-miterlimit:10;"/><line style="stroke:#000000;stroke-width:1;" x1="116.7049" x2="116.7049" y1="229.4" y2="264.4"/><polygon fill="#000000" points="112.7049,254.4,116.7049,264.4,120.7049,254.4,116.7049,258.4" style="stroke:#000000;stroke-width:1;stroke-linejoin:miter;stroke-miterlimit:10;"/><line style="stroke:#000000;stroke-width:1;" x1="116.7049" x2="116.7049" y1="301.2" y2="336.2"/><polygon fill="#000000" points="112.7049,326.2,116.7049,336.2,120.7049,326.2,116.7049,330.2" style="stroke:#000000;stroke-width:1;stroke-linejoin:miter;stroke-miterlimit:10;"/><line style="stroke:#000000;stroke-width:1;" x1="413.056" x2="403.056" y1="238.6" y2="238.6"/><line style="stroke:#000000;stroke-width:1;" x1="403.056" x2="403.056" y1="238.6" y2="260.6"/><polygon fill="#000000" points="399.056,250.6,403.056,260.6,407.056,250.6,403.056,254.6" style="stroke:#000000;stroke-width:1;stroke-linejoin:miter;stroke-miterlimit:10;"/><line style="stroke:#000000;stroke-width:1;" x1="557.2586" x2="567.2586" y1="238.6" y2="238.6"/><line style="stroke:#000000;stroke-width:1;" x1="567.2586" x2="567.2586" y1="238.6" y2="260.6"/><polygon fill="#000000" points="563.2586,250.6,567.2586,260.6,571.2586,250.6,567.2586,254.6" style="stroke:#000000;stroke-width:1;stroke-linejoin:miter;stroke-miterlimit:10;"/><line style="stroke:#000000;stroke-width:1;" x1="403.056" x2="403.056" y1="297.4" y2="315.4"/><line style="stroke:#000000;stroke-width:1;" x1="403.056" x2="473.1573" y1="315.4" y2="315.4"/><polygon fill="#000000" points="463.1573,311.4,473.1573,315.4,463.1573,319.4,467.1573,315.4" style="stroke:#000000;stroke-width:1;stroke-linejoin:miter;stroke-miterlimit:10;"/><line style="stroke:#000000;stroke-width:1;" x1="567.2586" x2="567.2586" y1="297.4" y2="315.4"/><line style="stroke:#000000;stroke-width:1;" x1="567.2586" x2="497.1573" y1="315.4" y2="315.4"/><polygon fill="#000000" points="507.1573,311.4,497.1573,315.4,507.1573,319.4,503.1573,315.4" style="stroke:#000000;stroke-width:1;stroke-linejoin:miter;stroke-miterlimit:10;"/><line style="stroke:#000000;stroke-width:1;" x1="330.88" x2="287.7657" y1="204.6" y2="204.6"/><line style="stroke:#000000;stroke-width:1;" x1="287.7657" x2="287.7657" y1="204.6" y2="226.6"/><polygon fill="#000000" points="283.7657,216.6,287.7657,226.6,291.7657,216.6,287.7657,220.6" style="stroke:#000000;stroke-width:1;stroke-linejoin:miter;stroke-miterlimit:10;"/><line style="stroke:#000000;stroke-width:1;" x1="442.043" x2="485.1573" y1="204.6" y2="204.6"/><line style="stroke:#000000;stroke-width:1;" x1="485.1573" x2="485.1573" y1="204.6" y2="226.6"/><polygon fill="#000000" points="481.1573,216.6,485.1573,226.6,489.1573,216.6,485.1573,220.6" style="stroke:#000000;stroke-width:1;stroke-linejoin:miter;stroke-miterlimit:10;"/><line style="stroke:#000000;stroke-width:1;" x1="287.7657" x2="287.7657" y1="263.4" y2="345.4"/><line style="stroke:#000000;stroke-width:1;" x1="287.7657" x2="374.4615" y1="345.4" y2="345.4"/><polygon fill="#000000" points="364.4615,341.4,374.4615,345.4,364.4615,349.4,368.4615,345.4" style="stroke:#000000;stroke-width:1;stroke-linejoin:miter;stroke-miterlimit:10;"/><line style="stroke:#000000;stroke-width:1;" x1="485.1573" x2="485.1573" y1="327.4" y2="345.4"/><line style="stroke:#000000;stroke-width:1;" x1="485.1573" x2="398.4615" y1="345.4" y2="345.4"/><polygon fill="#000000" points="408.4615,341.4,398.4615,345.4,408.4615,349.4,404.4615,345.4" style="stroke:#000000;stroke-width:1;stroke-linejoin:miter;stroke-miterlimit:10;"/><line style="stroke:#000000;stroke-width:1;" x1="386.4615" x2="386.4615" y1="357.4" y2="378.2"/><polygon fill="#000000" points="382.4615,368.2,386.4615,378.2,390.4615,368.2,386.4615,372.2" style="stroke:#000000;stroke-width:1;stroke-linejoin:miter;stroke-miterlimit:10;"/><line style="stroke:#000000;stroke-width:1;" x1="386.4615" x2="386.4615" y1="415" y2="435"/><polygon fill="#000000" points="382.4615,425,386.4615,435,390.4615,425,386.4615,429" style="stroke:#000000;stroke-width:1;stroke-linejoin:miter;stroke-miterlimit:10;"/><line style="stroke:#000000;stroke-width:1;" x1="198.0796" x2="116.7049" y1="170.6" y2="170.6"/><line style="stroke:#000000;stroke-width:1;" x1="116.7049" x2="116.7049" y1="170.6" y2="192.6"/><polygon fill="#000000" points="112.7049,182.6,116.7049,192.6,120.7049,182.6,116.7049,186.6" style="stroke:#000000;stroke-width:1;stroke-linejoin:miter;stroke-miterlimit:10;"/><line style="stroke:#000000;stroke-width:1;" x1="305.0867" x2="386.4615" y1="170.6" y2="170.6"/><line style="stroke:#000000;stroke-width:1;" x1="386.4615" x2="386.4615" y1="170.6" y2="192.6"/><polygon fill="#000000" points="382.4615,182.6,386.4615,192.6,390.4615,182.6,386.4615,186.6" style="stroke:#000000;stroke-width:1;stroke-linejoin:miter;stroke-miterlimit:10;"/><line style="stroke:#000000;stroke-width:1;" x1="251.5832" x2="251.5832" y1="138.6" y2="158.6"/><polygon fill="#000000" points="247.5832,148.6,251.5832,158.6,255.5832,148.6,251.5832,152.6" style="stroke:#000000;stroke-width:1;stroke-linejoin:miter;stroke-miterlimit:10;"/><?plantuml-src VP7FJXH14CRl_HG55-0mZ7fHPWychX8FQ4Zm1PgPcjaEFTsJxbxK6vSrQx8a6jJWlnWJ5KuQzG32eYypCxkSV0MhToMxOEAfgwk-_drLrNDG2B2wRMACeE3n1i_GXh5EXCe2YfKBhOafOJ0SNGEBrWgj5fsDbguk1PSlNRd6vk0cMf4fCCYjLaGoQD5i8k03XyhhWtLC2HBO3I5bw30l97S8HhSTMG5NYN-qIGxGeel416ATvnHQI8tEFJfkUQbh8UGwGRd8PYZE4GWb59if3Czo3f8_92ZO71rNd96XAhZXEIIOyhPqorgvkvoUpQuIRfaJSgqvEwMpBPxe-zugvTBYL6MT5fHHooffQgaDECELfH9rpPnm4k7MsRpG77SFmvyxLUTZsT-jEjt1qHvZrd7ZM3Hujbzt3yRL1XCfp5Uz7wUTxUhWM_rzlthKgvwUbCSVhY_uWHNCrxjV5XX0L3_U6xxlmOssa2uG2khkYodNswFTcOPN3evtwhVlVlTxvU7syDThye6LbJkmIjiid5TOfmk6D29vF_dawPCs81pzLAHeKnTx87RrzNdLtu8rh_6eSvHpdB4TtFlxu_-o9hGpJMEKlu0aMNdofZmygbz-FjrwDJK6ILKYKZOve_-CwoL_0000?></g></svg>