<svg xmlns="http://www.w3.org/2000/svg" xmlns:xlink="http://www.w3.org/1999/xlink" contentStyleType="text/css" data-diagram-type="ACTIVITY" height="458px" preserveAspectRatio="none" style="width:746px;height:458px;" version="1.1" viewBox="0 0 746 458" width="746px" zoomAndPan="magnify"><?plantuml 1.2026.6?><defs/><g><g class="title" data-source-line="370"><text fill="#000000" font-family="'sans-serif'" font-size="22" font-weight="700" lengthAdjust="spacing" textLength="389.9414" x="177.312" y="36.2695">Extension Command Input Priority</text></g><ellipse cx="285.2622" cy="66.9102" fill="#FFFFFF" rx="10" ry="10" style="stroke:#000000;stroke-width:1;"/><rect fill="#FFFFFF" height="34.1328" rx="12.5" ry="12.5" style="stroke:#000000;stroke-width:1;" width="80.2285" x="245.1479" y="96.9102"/><text fill="#000000" font-family="'sans-serif'" font-size="12" lengthAdjust="spacing" textLength="60.2285" x="255.1479" y="118.5117">User input</text><polygon fill="#FFFFFF" points="204.1184,151.043,366.406,151.043,378.406,163.043,366.406,175.043,204.1184,175.043,192.1184,163.043,204.1184,151.043" style="stroke:#000000;stroke-width:1;stroke-linejoin:miter;stroke-miterlimit:10;"/><text fill="#000000" font-family="'sans-serif'" font-size="11" lengthAdjust="spacing" textLength="162.2876" x="204.1184" y="167.2002">Matches registered command?</text><text fill="#000000" font-family="'sans-serif'" font-size="11" lengthAdjust="spacing" textLength="17.4829" x="174.6355" y="160.7227">yes</text><text fill="#000000" font-family="'sans-serif'" font-size="11" lengthAdjust="spacing" textLength="13.5835" x="378.406" y="160.7227">no</text><rect fill="#FFFFFF" height="34.1328" rx="12.5" ry="12.5" style="stroke:#000000;stroke-width:1;" width="238.8184" x="11" y="185.043"/><text fill="#000000" font-family="'sans-serif'" font-size="12" lengthAdjust="spacing" textLength="218.8184" x="21" y="206.6445">Execute Built-in or Extension Handler</text><rect fill="#FFFFFF" height="34.1328" rx="12.5" ry="12.5" style="stroke:#000000;stroke-width:1;" width="211.6367" x="24.5908" y="254.1758"/><text fill="#000000" font-family="'sans-serif'" font-size="12" lengthAdjust="spacing" textLength="191.6367" x="34.5908" y="275.7773">Stop; do not send to LLM Prompt</text><ellipse cx="130.4092" cy="334.3086" fill="none" rx="11" ry="11" style="stroke:#000000;stroke-width:1;"/><ellipse cx="130.4092" cy="334.3086" fill="#FFFFFF" rx="6" ry="6" style="stroke:#000000;stroke-width:1;"/><polygon fill="#FFFFFF" points="384.0625,185.043,496.168,185.043,508.168,197.043,496.168,209.043,384.0625,209.043,372.0625,197.043,384.0625,185.043" style="stroke:#000000;stroke-width:1;stroke-linejoin:miter;stroke-miterlimit:10;"/><text fill="#000000" font-family="'sans-serif'" font-size="11" lengthAdjust="spacing" textLength="112.1055" x="384.0625" y="201.2002">Matches /skill:name?</text><text fill="#000000" font-family="'sans-serif'" font-size="11" lengthAdjust="spacing" textLength="17.4829" x="354.5796" y="194.7227">yes</text><text fill="#000000" font-family="'sans-serif'" font-size="11" lengthAdjust="spacing" textLength="13.5835" x="508.168" y="194.7227">no</text><rect fill="#FFFFFF" height="34.1328" rx="12.5" ry="12.5" style="stroke:#000000;stroke-width:1;" width="90.7227" x="279.8184" y="219.043"/><text fill="#000000" font-family="'sans-serif'" font-size="12" lengthAdjust="spacing" textLength="70.7227" x="289.8184" y="240.6445">Expand Skill</text><polygon fill="#FFFFFF" points="483.1104,219.043,626.9912,219.043,638.9912,231.043,626.9912,243.043,483.1104,243.043,471.1104,231.043,483.1104,219.043" style="stroke:#000000;stroke-width:1;stroke-linejoin:miter;stroke-miterlimit:10;"/><text fill="#000000" font-family="'sans-serif'" font-size="11" lengthAdjust="spacing" textLength="143.8809" x="483.1104" y="235.2002">Matches Prompt Template?</text><text fill="#000000" font-family="'sans-serif'" font-size="11" lengthAdjust="spacing" textLength="17.4829" x="453.6274" y="228.7227">yes</text><text fill="#000000" font-family="'sans-serif'" font-size="11" lengthAdjust="spacing" textLength="13.5835" x="638.9912" y="228.7227">no</text><rect fill="#FFFFFF" height="34.1328" rx="12.5" ry="12.5" style="stroke:#000000;stroke-width:1;" width="121.1387" x="400.541" y="253.043"/><text fill="#000000" font-family="'sans-serif'" font-size="12" lengthAdjust="spacing" textLength="101.1387" x="410.541" y="274.6445">Expand Template</text><rect fill="#FFFFFF" height="34.1328" rx="12.5" ry="12.5" style="stroke:#000000;stroke-width:1;" width="165.1484" x="566.417" y="253.043"/><text fill="#000000" font-family="'sans-serif'" font-size="12" lengthAdjust="spacing" textLength="145.1484" x="576.417" y="274.6445">Treat as ordinary Prompt</text><polygon fill="#FFFFFF" points="555.0508,293.1758,567.0508,305.1758,555.0508,317.1758,543.0508,305.1758,555.0508,293.1758" style="stroke:#000000;stroke-width:1;stroke-linejoin:miter;stroke-miterlimit:10;"/><polygon fill="#FFFFFF" points="440.1152,323.1758,452.1152,335.1758,440.1152,347.1758,428.1152,335.1758,440.1152,323.1758" style="stroke:#000000;stroke-width:1;stroke-linejoin:miter;stroke-miterlimit:10;"/><rect fill="#FFFFFF" height="34.1328" rx="12.5" ry="12.5" style="stroke:#000000;stroke-width:1;" width="136.6895" x="371.7705" y="367.1758"/><text fill="#000000" font-family="'sans-serif'" font-size="12" lengthAdjust="spacing" textLength="116.6895" x="381.7705" y="388.7773">Send to LLM Prompt</text><ellipse cx="440.1152" cy="432.3086" fill="none" rx="11" ry="11" style="stroke:#000000;stroke-width:1;"/><ellipse cx="440.1152" cy="432.3086" fill="#FFFFFF" rx="6" ry="6" style="stroke:#000000;stroke-width:1;"/><line style="stroke:#000000;stroke-width:1;" x1="285.2622" x2="285.2622" y1="76.9102" y2="96.9102"/><polygon fill="#000000" points="281.2622,86.9102,285.2622,96.9102,289.2622,86.9102,285.2622,90.9102" style="stroke:#000000;stroke-width:1;stroke-linejoin:miter;stroke-miterlimit:10;"/><line style="stroke:#000000;stroke-width:1;" x1="130.4092" x2="130.4092" y1="219.1758" y2="254.1758"/><polygon fill="#000000" points="126.4092,244.1758,130.4092,254.1758,134.4092,244.1758,130.4092,248.1758" style="stroke:#000000;stroke-width:1;stroke-linejoin:miter;stroke-miterlimit:10;"/><line style="stroke:#000000;stroke-width:1;" x1="130.4092" x2="130.4092" y1="288.3086" y2="323.3086"/><polygon fill="#000000" points="126.4092,313.3086,130.4092,323.3086,134.4092,313.3086,130.4092,317.3086" style="stroke:#000000;stroke-width:1;stroke-linejoin:miter;stroke-miterlimit:10;"/><line style="stroke:#000000;stroke-width:1;" x1="471.1104" x2="461.1104" y1="231.043" y2="231.043"/><line style="stroke:#000000;stroke-width:1;" x1="461.1104" x2="461.1104" y1="231.043" y2="253.043"/><polygon fill="#000000" points="457.1104,243.043,461.1104,253.043,465.1104,243.043,461.1104,247.043" style="stroke:#000000;stroke-width:1;stroke-linejoin:miter;stroke-miterlimit:10;"/><line style="stroke:#000000;stroke-width:1;" x1="638.9912" x2="648.9912" y1="231.043" y2="231.043"/><line style="stroke:#000000;stroke-width:1;" x1="648.9912" x2="648.9912" y1="231.043" y2="253.043"/><polygon fill="#000000" points="644.9912,243.043,648.9912,253.043,652.9912,243.043,648.9912,247.043" style="stroke:#000000;stroke-width:1;stroke-linejoin:miter;stroke-miterlimit:10;"/><line style="stroke:#000000;stroke-width:1;" x1="461.1104" x2="461.1104" y1="287.1758" y2="305.1758"/><line style="stroke:#000000;stroke-width:1;" x1="461.1104" x2="543.0508" y1="305.1758" y2="305.1758"/><polygon fill="#000000" points="533.0508,301.1758,543.0508,305.1758,533.0508,309.1758,537.0508,305.1758" style="stroke:#000000;stroke-width:1;stroke-linejoin:miter;stroke-miterlimit:10;"/><line style="stroke:#000000;stroke-width:1;" x1="648.9912" x2="648.9912" y1="287.1758" y2="305.1758"/><line style="stroke:#000000;stroke-width:1;" x1="648.9912" x2="567.0508" y1="305.1758" y2="305.1758"/><polygon fill="#000000" points="577.0508,301.1758,567.0508,305.1758,577.0508,309.1758,573.0508,305.1758" style="stroke:#000000;stroke-width:1;stroke-linejoin:miter;stroke-miterlimit:10;"/><line style="stroke:#000000;stroke-width:1;" x1="372.0625" x2="325.1797" y1="197.043" y2="197.043"/><line style="stroke:#000000;stroke-width:1;" x1="325.1797" x2="325.1797" y1="197.043" y2="219.043"/><polygon fill="#000000" points="321.1797,209.043,325.1797,219.043,329.1797,209.043,325.1797,213.043" style="stroke:#000000;stroke-width:1;stroke-linejoin:miter;stroke-miterlimit:10;"/><line style="stroke:#000000;stroke-width:1;" x1="508.168" x2="555.0508" y1="197.043" y2="197.043"/><line style="stroke:#000000;stroke-width:1;" x1="555.0508" x2="555.0508" y1="197.043" y2="219.043"/><polygon fill="#000000" points="551.0508,209.043,555.0508,219.043,559.0508,209.043,555.0508,213.043" style="stroke:#000000;stroke-width:1;stroke-linejoin:miter;stroke-miterlimit:10;"/><line style="stroke:#000000;stroke-width:1;" x1="325.1797" x2="325.1797" y1="253.1758" y2="335.1758"/><line style="stroke:#000000;stroke-width:1;" x1="325.1797" x2="428.1152" y1="335.1758" y2="335.1758"/><polygon fill="#000000" points="418.1152,331.1758,428.1152,335.1758,418.1152,339.1758,422.1152,335.1758" style="stroke:#000000;stroke-width:1;stroke-linejoin:miter;stroke-miterlimit:10;"/><line style="stroke:#000000;stroke-width:1;" x1="555.0508" x2="555.0508" y1="317.1758" y2="335.1758"/><line style="stroke:#000000;stroke-width:1;" x1="555.0508" x2="452.1152" y1="335.1758" y2="335.1758"/><polygon fill="#000000" points="462.1152,331.1758,452.1152,335.1758,462.1152,339.1758,458.1152,335.1758" style="stroke:#000000;stroke-width:1;stroke-linejoin:miter;stroke-miterlimit:10;"/><line style="stroke:#000000;stroke-width:1;" x1="440.1152" x2="440.1152" y1="347.1758" y2="367.1758"/><polygon fill="#000000" points="436.1152,357.1758,440.1152,367.1758,444.1152,357.1758,440.1152,361.1758" style="stroke:#000000;stroke-width:1;stroke-linejoin:miter;stroke-miterlimit:10;"/><line style="stroke:#000000;stroke-width:1;" x1="440.1152" x2="440.1152" y1="401.3086" y2="421.3086"/><polygon fill="#000000" points="436.1152,411.3086,440.1152,421.3086,444.1152,411.3086,440.1152,415.3086" style="stroke:#000000;stroke-width:1;stroke-linejoin:miter;stroke-miterlimit:10;"/><line style="stroke:#000000;stroke-width:1;" x1="192.1184" x2="130.4092" y1="163.043" y2="163.043"/><line style="stroke:#000000;stroke-width:1;" x1="130.4092" x2="130.4092" y1="163.043" y2="185.043"/><polygon fill="#000000" points="126.4092,175.043,130.4092,185.043,134.4092,175.043,130.4092,179.043" style="stroke:#000000;stroke-width:1;stroke-linejoin:miter;stroke-miterlimit:10;"/><line style="stroke:#000000;stroke-width:1;" x1="378.406" x2="440.1152" y1="163.043" y2="163.043"/><line style="stroke:#000000;stroke-width:1;" x1="440.1152" x2="440.1152" y1="163.043" y2="185.043"/><polygon fill="#000000" points="436.1152,175.043,440.1152,185.043,444.1152,175.043,440.1152,179.043" style="stroke:#000000;stroke-width:1;stroke-linejoin:miter;stroke-miterlimit:10;"/><line style="stroke:#000000;stroke-width:1;" x1="285.2622" x2="285.2622" y1="131.043" y2="151.043"/><polygon fill="#000000" points="281.2622,141.043,285.2622,151.043,289.2622,141.043,285.2622,145.043" style="stroke:#000000;stroke-width:1;stroke-linejoin:miter;stroke-miterlimit:10;"/><?plantuml-src VLBDRjGm4BxxAQQzT7j80roWsGCIfGYa5Y6bFC0qcIHMxN7acPJkspDEgJO5YPF7di_VpzXdC7kGjEIE6fYnUy2HfEvIxtcih6Qj9NTsaAbUjvMGY4zyeT9Slh-ithvvzy6TmMSIFp9aGabiJ9c4yYC1FIbnmLVtD1X99Gy-X5efpW6L8AT5JGgG-tBfqHHWiasW7heKevK2GqwnK7TJWUf445DFuSATM1q9ZCgpEvapZX4XuC58GI8fCZeJv1apHkXfm2NebyJw7UtQQOiiBMK_d6vGCc6VVXMX0OFGfdDlundDCFTNAQGCcks-jSopKw-1uFebBLmzUuTlF9kN7zcdxFNWd2XcTSrFcmxuqjixFy3k5hMRI2paw4Kf7zD_F2-16NO7adC7q5m_KRVOv3ujFcZb6Sp9KVVhEhkyByXMqxo7FW4d6mUP6qrmStDhTbASjM3488ui9kmu5VgjcNfzguPjLd-xM7tC9M1RC8Lgo_AQvraExlwy-RzSHxONp7uzVqrfg3lx10eebja-AER39eh1kVU3EwvD-v_C1VCR?></g></svg>