<svg xmlns="http://www.w3.org/2000/svg" xmlns:xlink="http://www.w3.org/1999/xlink" contentStyleType="text/css" data-diagram-type="ACTIVITY" height="460px" preserveAspectRatio="none" style="width:771px;height:460px;" version="1.1" viewBox="0 0 771 460" width="771px" zoomAndPan="magnify"><?plantuml 1.2026.6?><defs/><g><g class="title" data-source-line="441"><text fill="#000000" font-family="'PingFang SC'" font-size="22" font-weight="700" lengthAdjust="spacing" textLength="315.91" x="226.67" y="38.32">Extension Command &#34917;&#20840;&#36335;&#30001;</text></g><ellipse cx="211.9911" cy="71.8" fill="#FFFFFF" rx="10" ry="10" style="stroke:#000000;stroke-width:1;"/><rect fill="#FFFFFF" height="36.8" rx="12.5" ry="12.5" style="stroke:#000000;stroke-width:1;" width="104" x="159.9911" y="101.8"/><text fill="#000000" font-family="'PingFang SC'" font-size="12" lengthAdjust="spacing" textLength="84" x="169.9911" y="124.52">&#32534;&#36753;&#22120;&#25991;&#26412;&#21464;&#21270;</text><polygon fill="#FFFFFF" points="186.162,158.6,237.8202,158.6,249.8202,170.6,237.8202,182.6,186.162,182.6,174.162,170.6,186.162,158.6" style="stroke:#000000;stroke-width:1;stroke-linejoin:miter;stroke-miterlimit:10;"/><text fill="#000000" font-family="'PingFang SC'" font-size="11" lengthAdjust="spacing" textLength="51.6582" x="186.162" y="174.56">&#20197; / &#24320;&#22836;?</text><text fill="#000000" font-family="'PingFang SC'" font-size="11" lengthAdjust="spacing" textLength="11" x="163.162" y="166.86">&#21542;</text><text fill="#000000" font-family="'PingFang SC'" font-size="11" lengthAdjust="spacing" textLength="11" x="249.8202" y="166.86">&#26159;</text><rect fill="#FFFFFF" height="36.8" rx="12.5" ry="12.5" style="stroke:#000000;stroke-width:1;" width="132.7977" x="11" y="192.6"/><text fill="#000000" font-family="'PingFang SC'" font-size="12" lengthAdjust="spacing" textLength="112.7977" x="21" y="215.32">&#20851;&#38381; Command &#34917;&#20840;</text><ellipse cx="77.3988" cy="275.4" fill="none" rx="11" ry="11" style="stroke:#000000;stroke-width:1;"/><ellipse cx="77.3988" cy="275.4" fill="#FFFFFF" rx="6" ry="6" style="stroke:#000000;stroke-width:1;"/><polygon fill="#FFFFFF" points="319.5798,192.6,413.5869,192.6,425.5869,204.6,413.5869,216.6,319.5798,216.6,307.5798,204.6,319.5798,192.6" style="stroke:#000000;stroke-width:1;stroke-linejoin:miter;stroke-miterlimit:10;"/><text fill="#000000" font-family="'PingFang SC'" font-size="11" lengthAdjust="spacing" textLength="94.0071" x="319.5798" y="208.56">&#21629;&#20196;&#21517;&#21518;&#24050;&#26377;&#31354;&#30333;?</text><text fill="#000000" font-family="'PingFang SC'" font-size="11" lengthAdjust="spacing" textLength="11" x="296.5798" y="200.86">&#21542;</text><text fill="#000000" font-family="'PingFang SC'" font-size="11" lengthAdjust="spacing" textLength="11" x="425.5869" y="200.86">&#26159;</text><rect fill="#FFFFFF" height="36.8" rx="12.5" ry="12.5" style="stroke:#000000;stroke-width:1;" width="141.6476" x="153.7977" y="226.6"/><text fill="#000000" font-family="'PingFang SC'" font-size="12" lengthAdjust="spacing" textLength="121.6476" x="163.7977" y="249.32">Registry &#21517;&#31216;&#21069;&#32512;&#36807;&#28388;</text><rect fill="#FFFFFF" height="36.8" rx="12.5" ry="12.5" style="stroke:#000000;stroke-width:1;" width="80" x="184.6215" y="298.4"/><text fill="#000000" font-family="'PingFang SC'" font-size="12" lengthAdjust="spacing" textLength="60" x="194.6215" y="321.12">&#26174;&#31034;&#20505;&#36873;&#39033;</text><ellipse cx="224.6215" cy="381.2" fill="none" rx="11" ry="11" style="stroke:#000000;stroke-width:1;"/><ellipse cx="224.6215" cy="381.2" fill="#FFFFFF" rx="6" ry="6" style="stroke:#000000;stroke-width:1;"/><polygon fill="#FFFFFF" points="444.1722,226.6,572.9184,226.6,584.9184,238.6,572.9184,250.6,444.1722,250.6,432.1722,238.6,444.1722,226.6" style="stroke:#000000;stroke-width:1;stroke-linejoin:miter;stroke-miterlimit:10;"/><text fill="#000000" font-family="'PingFang SC'" font-size="11" lengthAdjust="spacing" textLength="128.7462" x="444.1722" y="242.56">&#21629;&#20196;&#23384;&#22312;&#19988;&#26377; Completer?</text><text fill="#000000" font-family="'PingFang SC'" font-size="11" lengthAdjust="spacing" textLength="11" x="421.1722" y="234.86">&#21542;</text><text fill="#000000" font-family="'PingFang SC'" font-size="11" lengthAdjust="spacing" textLength="11" x="584.9184" y="234.86">&#26159;</text><rect fill="#FFFFFF" height="36.8" rx="12.5" ry="12.5" style="stroke:#000000;stroke-width:1;" width="132.7977" x="325.4453" y="260.6"/><text fill="#000000" font-family="'PingFang SC'" font-size="12" lengthAdjust="spacing" textLength="112.7977" x="335.4453" y="283.32">&#20851;&#38381; Command &#34917;&#20840;</text><ellipse cx="391.8441" cy="343.4" fill="none" rx="11" ry="11" style="stroke:#000000;stroke-width:1;"/><ellipse cx="391.8441" cy="343.4" fill="#FFFFFF" rx="6" ry="6" style="stroke:#000000;stroke-width:1;"/><rect fill="#FFFFFF" height="36.8" rx="12.5" ry="12.5" style="stroke:#000000;stroke-width:1;" width="249.5314" x="500.4808" y="260.6"/><text fill="#000000" font-family="'PingFang SC'" font-size="12" lengthAdjust="spacing" textLength="229.5314" x="510.4808" y="283.32">Completer.complete(argumentPrefix, ctx)</text><polygon fill="#FFFFFF" points="556.243,332.4,694.2501,332.4,706.2501,344.4,694.2501,356.4,556.243,356.4,544.243,344.4,556.243,332.4" style="stroke:#000000;stroke-width:1;stroke-linejoin:miter;stroke-miterlimit:10;"/><text fill="#000000" font-family="'PingFang SC'" font-size="11" lengthAdjust="spacing" textLength="138.0071" x="556.243" y="348.36">&#32467;&#26524;&#20173;&#23545;&#24212;&#24403;&#21069;&#32534;&#36753;&#22120;&#29256;&#26412;?</text><text fill="#000000" font-family="'PingFang SC'" font-size="11" lengthAdjust="spacing" textLength="11" x="533.243" y="340.66">&#21542;</text><text fill="#000000" font-family="'PingFang SC'" font-size="11" lengthAdjust="spacing" textLength="11" x="706.2501" y="340.66">&#26159;</text><rect fill="#FFFFFF" height="36.8" rx="12.5" ry="12.5" style="stroke:#000000;stroke-width:1;" width="92" x="488.243" y="366.4"/><text fill="#000000" font-family="'PingFang SC'" font-size="12" lengthAdjust="spacing" textLength="72" x="498.243" y="389.12">&#20002;&#24323;&#36807;&#26399;&#32467;&#26524;</text><ellipse cx="534.243" cy="434.2" fill="none" rx="11" ry="11" style="stroke:#000000;stroke-width:1;"/><ellipse cx="534.243" cy="434.2" fill="#FFFFFF" rx="6" ry="6" style="stroke:#000000;stroke-width:1;"/><rect fill="#FFFFFF" height="36.8" rx="12.5" ry="12.5" style="stroke:#000000;stroke-width:1;" width="80" x="676.2501" y="366.4"/><text fill="#000000" font-family="'PingFang SC'" font-size="12" lengthAdjust="spacing" textLength="60" x="686.2501" y="389.12">&#26174;&#31034;&#20505;&#36873;&#39033;</text><ellipse cx="716.2501" cy="434.2" fill="none" rx="11" ry="11" style="stroke:#000000;stroke-width:1;"/><ellipse cx="716.2501" cy="434.2" fill="#FFFFFF" rx="6" ry="6" style="stroke:#000000;stroke-width:1;"/><line style="stroke:#000000;stroke-width:1;" x1="211.9911" x2="211.9911" y1="81.8" y2="101.8"/><polygon fill="#000000" points="207.9911,91.8,211.9911,101.8,215.9911,91.8,211.9911,95.8" style="stroke:#000000;stroke-width:1;stroke-linejoin:miter;stroke-miterlimit:10;"/><line style="stroke:#000000;stroke-width:1;" x1="77.3988" x2="77.3988" y1="229.4" y2="264.4"/><polygon fill="#000000" points="73.3988,254.4,77.3988,264.4,81.3988,254.4,77.3988,258.4" style="stroke:#000000;stroke-width:1;stroke-linejoin:miter;stroke-miterlimit:10;"/><line style="stroke:#000000;stroke-width:1;" x1="224.6215" x2="224.6215" y1="263.4" y2="298.4"/><polygon fill="#000000" points="220.6215,288.4,224.6215,298.4,228.6215,288.4,224.6215,292.4" style="stroke:#000000;stroke-width:1;stroke-linejoin:miter;stroke-miterlimit:10;"/><line style="stroke:#000000;stroke-width:1;" x1="224.6215" x2="224.6215" y1="335.2" y2="370.2"/><polygon fill="#000000" points="220.6215,360.2,224.6215,370.2,228.6215,360.2,224.6215,364.2" style="stroke:#000000;stroke-width:1;stroke-linejoin:miter;stroke-miterlimit:10;"/><line style="stroke:#000000;stroke-width:1;" x1="391.8441" x2="391.8441" y1="297.4" y2="332.4"/><polygon fill="#000000" points="387.8441,322.4,391.8441,332.4,395.8441,322.4,391.8441,326.4" style="stroke:#000000;stroke-width:1;stroke-linejoin:miter;stroke-miterlimit:10;"/><line style="stroke:#000000;stroke-width:1;" x1="534.243" x2="534.243" y1="403.2" y2="423.2"/><polygon fill="#000000" points="530.243,413.2,534.243,423.2,538.243,413.2,534.243,417.2" style="stroke:#000000;stroke-width:1;stroke-linejoin:miter;stroke-miterlimit:10;"/><line style="stroke:#000000;stroke-width:1;" x1="716.2501" x2="716.2501" y1="403.2" y2="423.2"/><polygon fill="#000000" points="712.2501,413.2,716.2501,423.2,720.2501,413.2,716.2501,417.2" style="stroke:#000000;stroke-width:1;stroke-linejoin:miter;stroke-miterlimit:10;"/><line style="stroke:#000000;stroke-width:1;" x1="544.243" x2="534.243" y1="344.4" y2="344.4"/><line style="stroke:#000000;stroke-width:1;" x1="534.243" x2="534.243" y1="344.4" y2="366.4"/><polygon fill="#000000" points="530.243,356.4,534.243,366.4,538.243,356.4,534.243,360.4" style="stroke:#000000;stroke-width:1;stroke-linejoin:miter;stroke-miterlimit:10;"/><line style="stroke:#000000;stroke-width:1;" x1="706.2501" x2="716.2501" y1="344.4" y2="344.4"/><line style="stroke:#000000;stroke-width:1;" x1="716.2501" x2="716.2501" y1="344.4" y2="366.4"/><polygon fill="#000000" points="712.2501,356.4,716.2501,366.4,720.2501,356.4,716.2501,360.4" style="stroke:#000000;stroke-width:1;stroke-linejoin:miter;stroke-miterlimit:10;"/><line style="stroke:#000000;stroke-width:1;" x1="625.2465" x2="625.2465" y1="297.4" y2="332.4"/><polygon fill="#000000" points="621.2465,322.4,625.2465,332.4,629.2465,322.4,625.2465,326.4" style="stroke:#000000;stroke-width:1;stroke-linejoin:miter;stroke-miterlimit:10;"/><line style="stroke:#000000;stroke-width:1;" x1="432.1722" x2="391.8441" y1="238.6" y2="238.6"/><line style="stroke:#000000;stroke-width:1;" x1="391.8441" x2="391.8441" y1="238.6" y2="260.6"/><polygon fill="#000000" points="387.8441,250.6,391.8441,260.6,395.8441,250.6,391.8441,254.6" style="stroke:#000000;stroke-width:1;stroke-linejoin:miter;stroke-miterlimit:10;"/><line style="stroke:#000000;stroke-width:1;" x1="584.9184" x2="625.2465" y1="238.6" y2="238.6"/><line style="stroke:#000000;stroke-width:1;" x1="625.2465" x2="625.2465" y1="238.6" y2="260.6"/><polygon fill="#000000" points="621.2465,250.6,625.2465,260.6,629.2465,250.6,625.2465,254.6" style="stroke:#000000;stroke-width:1;stroke-linejoin:miter;stroke-miterlimit:10;"/><line style="stroke:#000000;stroke-width:1;" x1="307.5798" x2="224.6215" y1="204.6" y2="204.6"/><line style="stroke:#000000;stroke-width:1;" x1="224.6215" x2="224.6215" y1="204.6" y2="226.6"/><polygon fill="#000000" points="220.6215,216.6,224.6215,226.6,228.6215,216.6,224.6215,220.6" style="stroke:#000000;stroke-width:1;stroke-linejoin:miter;stroke-miterlimit:10;"/><line style="stroke:#000000;stroke-width:1;" x1="425.5869" x2="508.5453" y1="204.6" y2="204.6"/><line style="stroke:#000000;stroke-width:1;" x1="508.5453" x2="508.5453" y1="204.6" y2="226.6"/><polygon fill="#000000" points="504.5453,216.6,508.5453,226.6,512.5453,216.6,508.5453,220.6" style="stroke:#000000;stroke-width:1;stroke-linejoin:miter;stroke-miterlimit:10;"/><line style="stroke:#000000;stroke-width:1;" x1="174.162" x2="77.3988" y1="170.6" y2="170.6"/><line style="stroke:#000000;stroke-width:1;" x1="77.3988" x2="77.3988" y1="170.6" y2="192.6"/><polygon fill="#000000" points="73.3988,182.6,77.3988,192.6,81.3988,182.6,77.3988,186.6" style="stroke:#000000;stroke-width:1;stroke-linejoin:miter;stroke-miterlimit:10;"/><line style="stroke:#000000;stroke-width:1;" x1="249.8202" x2="366.5834" y1="170.6" y2="170.6"/><line style="stroke:#000000;stroke-width:1;" x1="366.5834" x2="366.5834" y1="170.6" y2="192.6"/><polygon fill="#000000" points="362.5834,182.6,366.5834,192.6,370.5834,182.6,366.5834,186.6" style="stroke:#000000;stroke-width:1;stroke-linejoin:miter;stroke-miterlimit:10;"/><line style="stroke:#000000;stroke-width:1;" x1="211.9911" x2="211.9911" y1="138.6" y2="158.6"/><polygon fill="#000000" points="207.9911,148.6,211.9911,158.6,215.9911,148.6,211.9911,152.6" style="stroke:#000000;stroke-width:1;stroke-linejoin:miter;stroke-miterlimit:10;"/><?plantuml-src VL9TJnf157tVNt7rHKWAc5YZmaCVQ7riJFiBfhl3Ec5tPZCpQ_6Df36MfBOO2OM4jB71bYOrz2jH-R1_Xjc5Vz5PFWmgxSlkdNlkFUVSkRC27W71V6xYD7Z8p2CRYvJ9B4BjX8wfJ0bkfbncwJIX4dDaIhA7v-D4X2QbI3_SsagiRwmQAmj9fK_6NCYNp6Ikvs0vxbfRtKoihM_ghiTO49i2nqWmcWQnYpZM9vi8oVSJBpGHje0Y5yEqdp0AY5f0w1xBOq3SzbrjUGPZBe1HPnzGJiTHresgEHRCyQFcfB4aTx7cynn4gB7aSMIx21oqptm9miKIKMI8FA4UuiW52-UGxyXjHkNJoCRoZhwcRKHjU9vTdglJpYtsKcEGGux0SqWqXCsPJwqiSnW7oH4L6jAk3KcaW-59GM8geicoKx_3qpDrq1fUjCFA3yCG4d5ffCDUTNXzhEgje7eODBwfTpNrffenI0vYW-uPf43rYghv-r4Sz8GKOghyEMu0fDN1hz7xyplS6Oq8oJm3QxSG2shjg3RYKiVzGRUfoaUg_5PT_0mQfV1h9wptx_9gvcVJHO6k3hzyLwMZi5SS_ZaCkitCf2AeNOVDZYhMHyNIwFHgaXth0jnIlgLzNbEDrk2oehKZsvF5tjV_tsnpElUKTDyDQtBsS6ApfxJ3SOuK7e0f2_4PK-Gjx9u47ng3xf5gNwbEHVLFnlDETnAMNkkTBFAerGQNdrJlLNGnZOyJcimDU6DoWSr_NU3TFcgHd34VJVxZxry0?></g></svg>