<svg xmlns="http://www.w3.org/2000/svg" xmlns:xlink="http://www.w3.org/1999/xlink" contentStyleType="text/css" data-diagram-type="ACTIVITY" height="447px" preserveAspectRatio="none" style="width:1036px;height:447px;" version="1.1" viewBox="0 0 1036 447" width="1036px" zoomAndPan="magnify"><?plantuml 1.2026.6?><defs/><g><g class="title" data-source-line="441"><text fill="#000000" font-family="'sans-serif'" font-size="22" font-weight="700" lengthAdjust="spacing" textLength="465.6201" x="284.6252" y="36.2695">Extension Command Completion Routing</text></g><ellipse cx="286.2862" cy="66.9102" fill="#FFFFFF" rx="10" ry="10" style="stroke:#000000;stroke-width:1;"/><rect fill="#FFFFFF" height="34.1328" rx="12.5" ry="12.5" style="stroke:#000000;stroke-width:1;" width="134.2988" x="219.1368" y="96.9102"/><text fill="#000000" font-family="'sans-serif'" font-size="12" lengthAdjust="spacing" textLength="114.2988" x="229.1368" y="118.5117">Editor text changed</text><polygon fill="#FFFFFF" points="251.1351,151.043,321.4373,151.043,333.4373,163.043,321.4373,175.043,251.1351,175.043,239.1351,163.043,251.1351,151.043" style="stroke:#000000;stroke-width:1;stroke-linejoin:miter;stroke-miterlimit:10;"/><text fill="#000000" font-family="'sans-serif'" font-size="11" lengthAdjust="spacing" textLength="70.3022" x="251.1351" y="167.2002">Starts with /?</text><text fill="#000000" font-family="'sans-serif'" font-size="11" lengthAdjust="spacing" textLength="13.5835" x="225.5516" y="160.7227">no</text><text fill="#000000" font-family="'sans-serif'" font-size="11" lengthAdjust="spacing" textLength="17.4829" x="333.4373" y="160.7227">yes</text><rect fill="#FFFFFF" height="34.1328" rx="12.5" ry="12.5" style="stroke:#000000;stroke-width:1;" width="184.4492" x="11" y="185.043"/><text fill="#000000" font-family="'sans-serif'" font-size="12" lengthAdjust="spacing" textLength="164.4492" x="21" y="206.6445">Close Command completion</text><ellipse cx="103.2246" cy="265.1758" fill="none" rx="11" ry="11" style="stroke:#000000;stroke-width:1;"/><ellipse cx="103.2246" cy="265.1758" fill="#FFFFFF" rx="6" ry="6" style="stroke:#000000;stroke-width:1;"/><polygon fill="#FFFFFF" points="398.3347,185.043,580.361,185.043,592.361,197.043,580.361,209.043,398.3347,209.043,386.3347,197.043,398.3347,185.043" style="stroke:#000000;stroke-width:1;stroke-linejoin:miter;stroke-miterlimit:10;"/><text fill="#000000" font-family="'sans-serif'" font-size="11" lengthAdjust="spacing" textLength="182.0264" x="398.3347" y="201.2002">Whitespace after command name?</text><text fill="#000000" font-family="'sans-serif'" font-size="11" lengthAdjust="spacing" textLength="13.5835" x="372.7512" y="194.7227">no</text><text fill="#000000" font-family="'sans-serif'" font-size="11" lengthAdjust="spacing" textLength="17.4829" x="592.361" y="194.7227">yes</text><rect fill="#FFFFFF" height="34.1328" rx="12.5" ry="12.5" style="stroke:#000000;stroke-width:1;" width="191.8262" x="205.4492" y="219.043"/><text fill="#000000" font-family="'sans-serif'" font-size="12" lengthAdjust="spacing" textLength="171.8262" x="215.4492" y="240.6445">Filter Registry by name prefix</text><rect fill="#FFFFFF" height="34.1328" rx="12.5" ry="12.5" style="stroke:#000000;stroke-width:1;" width="124.5488" x="239.0879" y="288.1758"/><text fill="#000000" font-family="'sans-serif'" font-size="12" lengthAdjust="spacing" textLength="104.5488" x="249.0879" y="309.7773">Show suggestions</text><ellipse cx="301.3623" cy="368.3086" fill="none" rx="11" ry="11" style="stroke:#000000;stroke-width:1;"/><ellipse cx="301.3623" cy="368.3086" fill="#FFFFFF" rx="6" ry="6" style="stroke:#000000;stroke-width:1;"/><polygon fill="#FFFFFF" points="587.6307,219.043,767.036,219.043,779.036,231.043,767.036,243.043,587.6307,243.043,575.6307,231.043,587.6307,219.043" style="stroke:#000000;stroke-width:1;stroke-linejoin:miter;stroke-miterlimit:10;"/><text fill="#000000" font-family="'sans-serif'" font-size="11" lengthAdjust="spacing" textLength="179.4053" x="587.6307" y="235.2002">Command exists with Completer?</text><text fill="#000000" font-family="'sans-serif'" font-size="11" lengthAdjust="spacing" textLength="13.5835" x="562.0472" y="228.7227">no</text><text fill="#000000" font-family="'sans-serif'" font-size="11" lengthAdjust="spacing" textLength="17.4829" x="779.036" y="228.7227">yes</text><rect fill="#FFFFFF" height="34.1328" rx="12.5" ry="12.5" style="stroke:#000000;stroke-width:1;" width="184.4492" x="427.2754" y="253.043"/><text fill="#000000" font-family="'sans-serif'" font-size="12" lengthAdjust="spacing" textLength="164.4492" x="437.2754" y="274.6445">Close Command completion</text><ellipse cx="519.5" cy="333.1758" fill="none" rx="11" ry="11" style="stroke:#000000;stroke-width:1;"/><ellipse cx="519.5" cy="333.1758" fill="#FFFFFF" rx="6" ry="6" style="stroke:#000000;stroke-width:1;"/><rect fill="#FFFFFF" height="34.1328" rx="12.5" ry="12.5" style="stroke:#000000;stroke-width:1;" width="261.2188" x="704.5574" y="253.043"/><text fill="#000000" font-family="'sans-serif'" font-size="12" lengthAdjust="spacing" textLength="241.2188" x="714.5574" y="274.6445">Completer.complete(argumentPrefix, ctx)</text><polygon fill="#FFFFFF" points="732.7373,322.1758,937.5962,322.1758,949.5962,334.1758,937.5962,346.1758,732.7373,346.1758,720.7373,334.1758,732.7373,322.1758" style="stroke:#000000;stroke-width:1;stroke-linejoin:miter;stroke-miterlimit:10;"/><text fill="#000000" font-family="'sans-serif'" font-size="11" lengthAdjust="spacing" textLength="204.8589" x="732.7373" y="338.333">Result matches current editor version?</text><text fill="#000000" font-family="'sans-serif'" font-size="11" lengthAdjust="spacing" textLength="13.5835" x="707.1538" y="331.8555">no</text><text fill="#000000" font-family="'sans-serif'" font-size="11" lengthAdjust="spacing" textLength="17.4829" x="949.5962" y="331.8555">yes</text><rect fill="#FFFFFF" height="34.1328" rx="12.5" ry="12.5" style="stroke:#000000;stroke-width:1;" width="138.0254" x="641.7246" y="356.1758"/><text fill="#000000" font-family="'sans-serif'" font-size="12" lengthAdjust="spacing" textLength="118.0254" x="651.7246" y="377.7773">Discard stale results</text><ellipse cx="710.7373" cy="421.3086" fill="none" rx="11" ry="11" style="stroke:#000000;stroke-width:1;"/><ellipse cx="710.7373" cy="421.3086" fill="#FFFFFF" rx="6" ry="6" style="stroke:#000000;stroke-width:1;"/><rect fill="#FFFFFF" height="34.1328" rx="12.5" ry="12.5" style="stroke:#000000;stroke-width:1;" width="124.5488" x="897.3218" y="356.1758"/><text fill="#000000" font-family="'sans-serif'" font-size="12" lengthAdjust="spacing" textLength="104.5488" x="907.3218" y="377.7773">Show suggestions</text><ellipse cx="959.5962" cy="421.3086" fill="none" rx="11" ry="11" style="stroke:#000000;stroke-width:1;"/><ellipse cx="959.5962" cy="421.3086" fill="#FFFFFF" rx="6" ry="6" style="stroke:#000000;stroke-width:1;"/><line style="stroke:#000000;stroke-width:1;" x1="286.2862" x2="286.2862" y1="76.9102" y2="96.9102"/><polygon fill="#000000" points="282.2862,86.9102,286.2862,96.9102,290.2862,86.9102,286.2862,90.9102" style="stroke:#000000;stroke-width:1;stroke-linejoin:miter;stroke-miterlimit:10;"/><line style="stroke:#000000;stroke-width:1;" x1="103.2246" x2="103.2246" y1="219.1758" y2="254.1758"/><polygon fill="#000000" points="99.2246,244.1758,103.2246,254.1758,107.2246,244.1758,103.2246,248.1758" style="stroke:#000000;stroke-width:1;stroke-linejoin:miter;stroke-miterlimit:10;"/><line style="stroke:#000000;stroke-width:1;" x1="301.3623" x2="301.3623" y1="253.1758" y2="288.1758"/><polygon fill="#000000" points="297.3623,278.1758,301.3623,288.1758,305.3623,278.1758,301.3623,282.1758" style="stroke:#000000;stroke-width:1;stroke-linejoin:miter;stroke-miterlimit:10;"/><line style="stroke:#000000;stroke-width:1;" x1="301.3623" x2="301.3623" y1="322.3086" y2="357.3086"/><polygon fill="#000000" points="297.3623,347.3086,301.3623,357.3086,305.3623,347.3086,301.3623,351.3086" style="stroke:#000000;stroke-width:1;stroke-linejoin:miter;stroke-miterlimit:10;"/><line style="stroke:#000000;stroke-width:1;" x1="519.5" x2="519.5" y1="287.1758" y2="322.1758"/><polygon fill="#000000" points="515.5,312.1758,519.5,322.1758,523.5,312.1758,519.5,316.1758" style="stroke:#000000;stroke-width:1;stroke-linejoin:miter;stroke-miterlimit:10;"/><line style="stroke:#000000;stroke-width:1;" x1="710.7373" x2="710.7373" y1="390.3086" y2="410.3086"/><polygon fill="#000000" points="706.7373,400.3086,710.7373,410.3086,714.7373,400.3086,710.7373,404.3086" style="stroke:#000000;stroke-width:1;stroke-linejoin:miter;stroke-miterlimit:10;"/><line style="stroke:#000000;stroke-width:1;" x1="959.5962" x2="959.5962" y1="390.3086" y2="410.3086"/><polygon fill="#000000" points="955.5962,400.3086,959.5962,410.3086,963.5962,400.3086,959.5962,404.3086" style="stroke:#000000;stroke-width:1;stroke-linejoin:miter;stroke-miterlimit:10;"/><line style="stroke:#000000;stroke-width:1;" x1="720.7373" x2="710.7373" y1="334.1758" y2="334.1758"/><line style="stroke:#000000;stroke-width:1;" x1="710.7373" x2="710.7373" y1="334.1758" y2="356.1758"/><polygon fill="#000000" points="706.7373,346.1758,710.7373,356.1758,714.7373,346.1758,710.7373,350.1758" style="stroke:#000000;stroke-width:1;stroke-linejoin:miter;stroke-miterlimit:10;"/><line style="stroke:#000000;stroke-width:1;" x1="949.5962" x2="959.5962" y1="334.1758" y2="334.1758"/><line style="stroke:#000000;stroke-width:1;" x1="959.5962" x2="959.5962" y1="334.1758" y2="356.1758"/><polygon fill="#000000" points="955.5962,346.1758,959.5962,356.1758,963.5962,346.1758,959.5962,350.1758" style="stroke:#000000;stroke-width:1;stroke-linejoin:miter;stroke-miterlimit:10;"/><line style="stroke:#000000;stroke-width:1;" x1="835.1667" x2="835.1667" y1="287.1758" y2="322.1758"/><polygon fill="#000000" points="831.1667,312.1758,835.1667,322.1758,839.1667,312.1758,835.1667,316.1758" style="stroke:#000000;stroke-width:1;stroke-linejoin:miter;stroke-miterlimit:10;"/><line style="stroke:#000000;stroke-width:1;" x1="575.6307" x2="519.5" y1="231.043" y2="231.043"/><line style="stroke:#000000;stroke-width:1;" x1="519.5" x2="519.5" y1="231.043" y2="253.043"/><polygon fill="#000000" points="515.5,243.043,519.5,253.043,523.5,243.043,519.5,247.043" style="stroke:#000000;stroke-width:1;stroke-linejoin:miter;stroke-miterlimit:10;"/><line style="stroke:#000000;stroke-width:1;" x1="779.036" x2="835.1667" y1="231.043" y2="231.043"/><line style="stroke:#000000;stroke-width:1;" x1="835.1667" x2="835.1667" y1="231.043" y2="253.043"/><polygon fill="#000000" points="831.1667,243.043,835.1667,253.043,839.1667,243.043,835.1667,247.043" style="stroke:#000000;stroke-width:1;stroke-linejoin:miter;stroke-miterlimit:10;"/><line style="stroke:#000000;stroke-width:1;" x1="386.3347" x2="301.3623" y1="197.043" y2="197.043"/><line style="stroke:#000000;stroke-width:1;" x1="301.3623" x2="301.3623" y1="197.043" y2="219.043"/><polygon fill="#000000" points="297.3623,209.043,301.3623,219.043,305.3623,209.043,301.3623,213.043" style="stroke:#000000;stroke-width:1;stroke-linejoin:miter;stroke-miterlimit:10;"/><line style="stroke:#000000;stroke-width:1;" x1="592.361" x2="677.3334" y1="197.043" y2="197.043"/><line style="stroke:#000000;stroke-width:1;" x1="677.3334" x2="677.3334" y1="197.043" y2="219.043"/><polygon fill="#000000" points="673.3334,209.043,677.3334,219.043,681.3334,209.043,677.3334,213.043" style="stroke:#000000;stroke-width:1;stroke-linejoin:miter;stroke-miterlimit:10;"/><line style="stroke:#000000;stroke-width:1;" x1="239.1351" x2="103.2246" y1="163.043" y2="163.043"/><line style="stroke:#000000;stroke-width:1;" x1="103.2246" x2="103.2246" y1="163.043" y2="185.043"/><polygon fill="#000000" points="99.2246,175.043,103.2246,185.043,107.2246,175.043,103.2246,179.043" style="stroke:#000000;stroke-width:1;stroke-linejoin:miter;stroke-miterlimit:10;"/><line style="stroke:#000000;stroke-width:1;" x1="333.4373" x2="489.3478" y1="163.043" y2="163.043"/><line style="stroke:#000000;stroke-width:1;" x1="489.3478" x2="489.3478" y1="163.043" y2="185.043"/><polygon fill="#000000" points="485.3478,175.043,489.3478,185.043,493.3478,175.043,489.3478,179.043" style="stroke:#000000;stroke-width:1;stroke-linejoin:miter;stroke-miterlimit:10;"/><line style="stroke:#000000;stroke-width:1;" x1="286.2862" x2="286.2862" y1="131.043" y2="151.043"/><polygon fill="#000000" points="282.2862,141.043,286.2862,151.043,290.2862,141.043,286.2862,145.043" style="stroke:#000000;stroke-width:1;stroke-linejoin:miter;stroke-miterlimit:10;"/><?plantuml-src XP9DSzf038Rl-okKN08pDMGcpJI1GmyaENOwSEXPiMLxX_MkPoNpyU-hnPWGGgSNa5VIgqSVTz1QuD35d6RGOhx6YdYQXyBwAbFRovHZFcr2eS_M2qNCnMxetCwITo8y-_xyd3t-k3TtLqMbimSjx2JaeMaToI7huVufUtXyqgmNObjvY8GS_0ounaZwLLcMkC_ULOWAyDWG7FDjy82-0EitOKs0iUeQHHxS51c2Ttl0KktqsgJeI1nSbv8dvaPgKhtMeVNcferODGWEzw4Ju8O4FHfUMzzYn0OAAh5pyXQy_4eOjolqlA9eozkpAEKkmbO722KwfZDFQg6AeVF58hWGGQBcgqkPZLXn1Ayx8S-fhyMHTl7HwbAfLDOO5enYPg-5bQH2EssvHbzHCJUsXD4g-HcsLcgO_Xo3DkbXvCFO0CmMBZ2Tv3ycELSdIsWDAJICziGfFCdzgQsGSkPqCScqYmjvBV1cNGfQ7XS7x_j-QMsaqkxcVT2g3blWhjBBICMvVpxK1_X4q3CClBHJqMDhYs7DNnZ-q-PPgI_5KkgWEnaEQJISrkz33zyWbzruK4fuIs8z36XGyfeOyYwcfGBr6zhe9MhfAvXQxSLoZh5G87Jft9CGpq_-4-SLqd_EyJBH5xOqvrR_V_Zz2m00?></g></svg>