<svg xmlns="http://www.w3.org/2000/svg" xmlns:xlink="http://www.w3.org/1999/xlink" contentStyleType="text/css" data-diagram-type="DESCRIPTION" height="263px" preserveAspectRatio="none" style="width:715px;height:263px;" version="1.1" viewBox="0 0 715 263" width="715px" zoomAndPan="magnify"><?plantuml 1.2026.6?><defs/><g><g class="title" data-source-line="510"><text fill="#000000" font-family="'sans-serif'" font-size="22" font-weight="700" lengthAdjust="spacing" textLength="456.0059" x="128.4971" y="36.2695">Deploy Extension Development Example</text></g><!--entity code--><g class="entity" data-qualified-name="code" data-source-line="513" id="ent0001"><rect fill="#FFFFFF" height="36.4883" rx="2.5" ry="2.5" style="stroke:#000000;stroke-width:1;" width="195.5742" x="11" y="144.9102"/><text fill="#000000" font-family="'sans-serif'" font-size="14" lengthAdjust="spacing" textLength="175.5742" x="21" y="168.4453">DeployExtension.initialize</text></g><!--entity register--><g class="entity" data-qualified-name="register" data-source-line="514" id="ent0002"><rect fill="#FFFFFF" height="36.4883" rx="2.5" ry="2.5" style="stroke:#000000;stroke-width:1;" width="191.6777" x="244" y="144.9102"/><text fill="#000000" font-family="'sans-serif'" font-size="14" lengthAdjust="spacing" textLength="171.6777" x="254" y="168.4453">registerCommand deploy</text></g><!--entity metadata--><g class="entity" data-qualified-name="metadata" data-source-line="515" id="ent0003"><rect fill="#FFFFFF" height="36.4883" rx="2.5" ry="2.5" style="stroke:#000000;stroke-width:1;" width="96.0771" x="567" y="63.9102"/><text fill="#000000" font-family="'sans-serif'" font-size="14" lengthAdjust="spacing" textLength="76.0771" x="577" y="87.4453">description</text></g><!--entity completion--><g class="entity" data-qualified-name="completion" data-source-line="516" id="ent0004"><rect fill="#FFFFFF" height="36.4883" rx="2.5" ry="2.5" style="stroke:#000000;stroke-width:1;" width="167.916" x="531" y="117.9102"/><text fill="#000000" font-family="'sans-serif'" font-size="14" lengthAdjust="spacing" textLength="147.916" x="541" y="141.4453">completeEnvironment</text></g><!--entity execution--><g class="entity" data-qualified-name="execution" data-source-line="517" id="ent0005"><rect fill="#FFFFFF" height="36.4883" rx="2.5" ry="2.5" style="stroke:#000000;stroke-width:1;" width="121.3086" x="554.5" y="171.9102"/><text fill="#000000" font-family="'sans-serif'" font-size="14" lengthAdjust="spacing" textLength="101.3086" x="564.5" y="195.4453">deploy handler</text></g><!--entity noSource--><g class="entity" data-qualified-name="noSource" data-source-line="518" id="ent0006"><rect fill="#FFFFFF" height="36.4883" rx="2.5" ry="2.5" style="stroke:#000000;stroke-width:1;" width="91.5928" x="569" y="225.9102"/><text fill="#000000" font-family="'sans-serif'" font-size="14" lengthAdjust="spacing" textLength="71.5928" x="579" y="249.4453">sourceInfo</text></g><g class="link" data-entity-1="ent0001" data-entity-2="ent0002" data-link-type="dependency" id="lnk7"><polygon fill="#000000" points="243.9246,162.9102,234.9246,158.9102,238.9246,162.9102,234.9246,166.9102,243.9246,162.9102" style="stroke:#000000;stroke-width:1;stroke-linejoin:miter;stroke-miterlimit:10;"/><path d="M207.1166,162.9102 C219.3068,162.9102 226.7662,162.9102 238.9246,162.9102" fill="none" style="stroke:#000000;stroke-width:1;"/></g><g class="link" data-entity-1="ent0002" data-entity-2="ent0003" data-link-type="dependency" id="lnk8"><polygon fill="#000000" points="566.8237,95.9075,557.0577,94.6328,562.0303,97.3297,559.3333,102.3023,566.8237,95.9075" style="stroke:#000000;stroke-width:1;stroke-linejoin:miter;stroke-miterlimit:10;"/><path d="M401.9267,144.833 C451.7424,130.0525 516.3739,110.8761 562.0303,97.3297" fill="none" style="stroke:#000000;stroke-width:1;"/></g><g class="link" data-entity-1="ent0002" data-entity-2="ent0004" data-link-type="dependency" id="lnk9"><polygon fill="#000000" points="530.6134,144.1572,521.2634,141.0624,525.6377,144.6493,522.0508,149.0235,530.6134,144.1572" style="stroke:#000000;stroke-width:1;stroke-linejoin:miter;stroke-miterlimit:10;"/><path d="M436.0989,153.5048 C466.8753,150.461 495.7775,147.6025 525.6377,144.6493" fill="none" style="stroke:#000000;stroke-width:1;"/></g><g class="link" data-entity-1="ent0002" data-entity-2="ent0005" data-link-type="dependency" id="lnk10"><polygon fill="#000000" points="554.1885,183.9947,545.6259,179.1284,549.2128,183.5026,544.8386,187.0895,554.1885,183.9947" style="stroke:#000000;stroke-width:1;stroke-linejoin:miter;stroke-miterlimit:10;"/><path d="M436.0989,172.3155 C475.3388,176.1964 514.6448,180.0838 549.2128,183.5026" fill="none" style="stroke:#000000;stroke-width:1;"/></g><g class="link" data-entity-1="ent0002" data-entity-2="ent0006" data-link-type="dependency" id="lnk11"><polygon fill="#000000" points="568.8732,233.4867,561.0528,227.4999,564.0108,232.3218,559.189,235.2798,568.8732,233.4867" style="stroke:#000000;stroke-width:1;stroke-linejoin:miter;stroke-miterlimit:10;"/><path d="M389.0753,180.9958 C409.0275,188.2221 432.4986,196.364 454,202.9102 C492.4049,214.6026 531.7936,224.6035 564.0108,232.3218" fill="none" style="stroke:#000000;stroke-width:1;stroke-dasharray:7,7;"/><text fill="#000000" font-family="'sans-serif'" font-size="13" lengthAdjust="spacing" textLength="55.7515" x="456" y="198.4785">excludes</text></g><?plantuml-src dL8nSkCm3Epv2iHDcaYEqzoSYpHnCdFDDNu18a8I9nJ10Q4upkj3ohQ6rrubSh7SNG2wX-WWyImTxI5Yzu43fMt7reMXoUUWsoHT1eIszAKKakEGjdgEb5fD-ztkrszp_tyYdj6I59Mdnrtpz5Y43fJS44084uSzf95Fe2FgLHxu54ZIw2Au12CdRTvv3XPEe_C44obQL7o0ZgVeIRFF0s2kqnTrSxcM2a4lFC4Q9MEMMdEd8-LQzEY2kOk2muJWySnpjY_I0KtwS26Yu0IMUfozld7GlvYVROuOqf74zPkAbKQqVCfpW1vzeghodkSqI0d_mfu5LFBxNChJCkeqTtEWwFaChslC0tsIvpXbIaQnT6YCfrv16SGDeu9rGbtfqvGlXc7LMMLQ5vmwzEwR0DFIUqNU20qkASaBJrEPd5rURmhrLghebb8dBYwJpOpR0Yh6THFq6ZwTS5Z2BxQt1TNc5pCOix4dMKpNpLMyoy_m9_HS686FozsOqWiqpNETz79Oq2fTXVwJfC9huolSji-h6-mpe_Dpdi0F?></g></svg>