<svg xmlns="http://www.w3.org/2000/svg" xmlns:xlink="http://www.w3.org/1999/xlink" contentStyleType="text/css" data-diagram-type="DESCRIPTION" height="255px" preserveAspectRatio="none" style="width:633px;height:255px;" version="1.1" viewBox="0 0 633 255" width="633px" zoomAndPan="magnify"><?plantuml 1.2026.6?><defs/><g><g class="title" data-source-line="535"><text fill="#000000" font-family="'PingFang SC'" font-size="22" font-weight="700" lengthAdjust="spacing" textLength="315.91" x="157.545" y="38.32">Extension Command &#20381;&#36182;&#26041;&#21521;</text></g><!--entity tui--><g class="entity" data-qualified-name="tui" data-source-line="538" id="ent0001"><rect fill="#FFFFFF" height="49.6" rx="2.5" ry="2.5" style="stroke:#000000;stroke-width:1;" width="99.3923" x="36.5" y="68.8"/><rect fill="#FFFFFF" height="10" style="stroke:#000000;stroke-width:1;" width="15" x="115.8923" y="73.8"/><rect fill="#FFFFFF" height="2" style="stroke:#000000;stroke-width:1;" width="4" x="113.8923" y="75.8"/><rect fill="#FFFFFF" height="2" style="stroke:#000000;stroke-width:1;" width="4" x="113.8923" y="79.8"/><text fill="#000000" font-family="'PingFang SC'" font-size="14" lengthAdjust="spacing" textLength="59.3923" x="51.5" y="103.64">mode/tui</text></g><!--entity command--><g class="entity" data-qualified-name="command" data-source-line="539" id="ent0002"><rect fill="#FFFFFF" height="49.6" rx="2.5" ry="2.5" style="stroke:#000000;stroke-width:1;" width="200.4402" x="198" y="136.8"/><rect fill="#FFFFFF" height="10" style="stroke:#000000;stroke-width:1;" width="15" x="378.4402" y="141.8"/><rect fill="#FFFFFF" height="2" style="stroke:#000000;stroke-width:1;" width="4" x="376.4402" y="143.8"/><rect fill="#FFFFFF" height="2" style="stroke:#000000;stroke-width:1;" width="4" x="376.4402" y="147.8"/><text fill="#000000" font-family="'PingFang SC'" font-size="14" lengthAdjust="spacing" textLength="160.4402" x="213" y="171.64">command API + services</text></g><!--entity extension--><g class="entity" data-qualified-name="extension" data-source-line="540" id="ent0003"><rect fill="#FFFFFF" height="49.6" rx="2.5" ry="2.5" style="stroke:#000000;stroke-width:1;" width="102.2455" x="35" y="136.8"/><rect fill="#FFFFFF" height="10" style="stroke:#000000;stroke-width:1;" width="15" x="117.2455" y="141.8"/><rect fill="#FFFFFF" height="2" style="stroke:#000000;stroke-width:1;" width="4" x="115.2455" y="143.8"/><rect fill="#FFFFFF" height="2" style="stroke:#000000;stroke-width:1;" width="4" x="115.2455" y="147.8"/><text fill="#000000" font-family="'PingFang SC'" font-size="14" lengthAdjust="spacing" textLength="62.2455" x="50" y="171.64">extension</text></g><!--entity builtin--><g class="entity" data-qualified-name="builtin" data-source-line="541" id="ent0004"><rect fill="#FFFFFF" height="49.6" rx="2.5" ry="2.5" style="stroke:#000000;stroke-width:1;" width="149.9099" x="11" y="204.8"/><rect fill="#FFFFFF" height="10" style="stroke:#000000;stroke-width:1;" width="15" x="140.9099" y="209.8"/><rect fill="#FFFFFF" height="2" style="stroke:#000000;stroke-width:1;" width="4" x="138.9099" y="211.8"/><rect fill="#FFFFFF" height="2" style="stroke:#000000;stroke-width:1;" width="4" x="138.9099" y="215.8"/><text fill="#000000" font-family="'PingFang SC'" font-size="14" lengthAdjust="spacing" textLength="109.9099" x="26" y="239.64">command/builtin</text></g><!--entity noTui--><g class="entity" data-qualified-name="noTui" data-source-line="542" id="ent0005"><rect fill="#FFFFFF" height="49.6" rx="2.5" ry="2.5" style="stroke:#000000;stroke-width:1;" width="127.3166" x="490" y="136.8"/><rect fill="#FFFFFF" height="10" style="stroke:#000000;stroke-width:1;" width="15" x="597.3166" y="141.8"/><rect fill="#FFFFFF" height="2" style="stroke:#000000;stroke-width:1;" width="4" x="595.3166" y="143.8"/><rect fill="#FFFFFF" height="2" style="stroke:#000000;stroke-width:1;" width="4" x="595.3166" y="147.8"/><text fill="#000000" font-family="'PingFang SC'" font-size="14" lengthAdjust="spacing" textLength="87.3166" x="505" y="171.64">&#20855;&#20307; TUI &#31867;&#22411;</text></g><g class="link" data-entity-1="ent0001" data-entity-2="ent0002" data-link-type="dependency" id="lnk6"><polygon fill="#000000" points="219.7729,136.7931,212.4428,130.2151,215.016,135.2528,209.9783,137.826,219.7729,136.7931" style="stroke:#000000;stroke-width:1;stroke-linejoin:miter;stroke-miterlimit:10;"/><path d="M135.7061,109.5715 C160.6659,117.6537 186.8944,126.1468 215.016,135.2528" fill="none" style="stroke:#000000;stroke-width:1;"/></g><g class="link" data-entity-1="ent0003" data-entity-2="ent0002" data-link-type="dependency" id="lnk7"><polygon fill="#000000" points="197.8882,161.8,188.8882,157.8,192.8882,161.8,188.8882,165.8,197.8882,161.8" style="stroke:#000000;stroke-width:1;stroke-linejoin:miter;stroke-miterlimit:10;"/><path d="M137.0334,161.8 C155.3521,161.8 171.7793,161.8 192.8882,161.8" fill="none" style="stroke:#000000;stroke-width:1;"/></g><g class="link" data-entity-1="ent0004" data-entity-2="ent0002" data-link-type="dependency" id="lnk8"><polygon fill="#000000" points="219.7205,186.8238,209.926,185.7909,214.9637,188.3641,212.3905,193.4019,219.7205,186.8238" style="stroke:#000000;stroke-width:1;stroke-linejoin:miter;stroke-miterlimit:10;"/><path d="M161.0381,205.8257 C180.0501,199.6695 195.7924,194.572 214.9637,188.3641" fill="none" style="stroke:#000000;stroke-width:1;"/></g><g class="link" data-entity-1="ent0002" data-entity-2="ent0005" data-link-type="dependency" id="lnk9"><polygon fill="#000000" points="489.6806,161.8,480.6806,157.8,484.6806,161.8,480.6806,165.8,489.6806,161.8" style="stroke:#000000;stroke-width:1;stroke-linejoin:miter;stroke-miterlimit:10;"/><path d="M398.0989,161.8 C428.9271,161.8 457.0494,161.8 484.6806,161.8" fill="none" style="stroke:#000000;stroke-width:1;stroke-dasharray:7,7;"/><text fill="#000000" font-family="'PingFang SC'" font-size="13" lengthAdjust="spacing" textLength="52" x="418" y="155.58">&#31105;&#27490;&#20381;&#36182;</text></g><?plantuml-src RL6nJbj14EplAmOt563J4mafSe94YiXAo0Uitri_dtnlxtItHqAP8XKD4H8T52dIfKWH8OIIhy6GpyZPsDP3IhMhdRdPsRbjlA4JWb9iM46ncbhbIdFa5mWMoUTOCMo2-0A7u6n5OyS3iurNd6mZY4p9opvcp06LRrkIkjJ81SbfGSRu5CSVZdR1dvGbMI-x66Vhj6zBjw1Fyc8Ztes6e9g2Sam3iwLJRXd1aHMp5I8rBS7HgS-ArBAIa4apAu4YjQXvGjdfeHTzI-LPRsIbEIHfy7xOw_3Ib6h_iM2Oa4lSGSPKpPheizH3xto4Hf9K81OrQhNSyNhj7yFLdVT_hlx-kdoul9sVVpN6yKIX7j4sKqLjOqcoi4r99NWfEkYrlkOzpRO7IYYrYwt3UpawmWuInnDRSLeoLr27lSdoFmfxotIjB9-k-Yvj_kNc_lV5ua_m-FDkVdss98e_BdvCCOL-_s2pShFesNIb-coszZyO73o9OH-Ftpy__FZs5DC_?></g></svg>