<svg xmlns="http://www.w3.org/2000/svg" xmlns:xlink="http://www.w3.org/1999/xlink" contentStyleType="text/css" data-diagram-type="DESCRIPTION" height="239px" preserveAspectRatio="none" style="width:775px;height:239px;" version="1.1" viewBox="0 0 775 239" width="775px" zoomAndPan="magnify"><?plantuml 1.2026.6?><defs/><g><g class="title" data-source-line="535"><text fill="#000000" font-family="'sans-serif'" font-size="22" font-weight="700" lengthAdjust="spacing" textLength="489.1348" x="141.9326" y="36.2695">Extension Command Dependency Direction</text></g><!--entity tui--><g class="entity" data-qualified-name="tui" data-source-line="538" id="ent0001"><rect fill="#FFFFFF" height="46.4883" rx="2.5" ry="2.5" style="stroke:#000000;stroke-width:1;" width="103.5947" x="38" y="63.9102"/><rect fill="#FFFFFF" height="10" style="stroke:#000000;stroke-width:1;" width="15" x="121.5947" y="68.9102"/><rect fill="#FFFFFF" height="2" style="stroke:#000000;stroke-width:1;" width="4" x="119.5947" y="70.9102"/><rect fill="#FFFFFF" height="2" style="stroke:#000000;stroke-width:1;" width="4" x="119.5947" y="74.9102"/><text fill="#000000" font-family="'sans-serif'" font-size="14" lengthAdjust="spacing" textLength="63.5947" x="53" y="97.4453">mode/tui</text></g><!--entity command--><g class="entity" data-qualified-name="command" data-source-line="539" id="ent0002"><rect fill="#FFFFFF" height="46.4883" rx="2.5" ry="2.5" style="stroke:#000000;stroke-width:1;" width="207.0566" x="206" y="127.9102"/><rect fill="#FFFFFF" height="10" style="stroke:#000000;stroke-width:1;" width="15" x="393.0566" y="132.9102"/><rect fill="#FFFFFF" height="2" style="stroke:#000000;stroke-width:1;" width="4" x="391.0566" y="134.9102"/><rect fill="#FFFFFF" height="2" style="stroke:#000000;stroke-width:1;" width="4" x="391.0566" y="138.9102"/><text fill="#000000" font-family="'sans-serif'" font-size="14" lengthAdjust="spacing" textLength="167.0566" x="221" y="161.4453">command API + services</text></g><!--entity extension--><g class="entity" data-qualified-name="extension" data-source-line="540" id="ent0003"><rect fill="#FFFFFF" height="46.4883" rx="2.5" ry="2.5" style="stroke:#000000;stroke-width:1;" width="106.582" x="36.5" y="127.9102"/><rect fill="#FFFFFF" height="10" style="stroke:#000000;stroke-width:1;" width="15" x="123.082" y="132.9102"/><rect fill="#FFFFFF" height="2" style="stroke:#000000;stroke-width:1;" width="4" x="121.082" y="134.9102"/><rect fill="#FFFFFF" height="2" style="stroke:#000000;stroke-width:1;" width="4" x="121.082" y="138.9102"/><text fill="#000000" font-family="'sans-serif'" font-size="14" lengthAdjust="spacing" textLength="66.582" x="51.5" y="161.4453">extension</text></g><!--entity builtin--><g class="entity" data-qualified-name="builtin" data-source-line="541" id="ent0004"><rect fill="#FFFFFF" height="46.4883" rx="2.5" ry="2.5" style="stroke:#000000;stroke-width:1;" width="158.0498" x="11" y="191.9102"/><rect fill="#FFFFFF" height="10" style="stroke:#000000;stroke-width:1;" width="15" x="149.0498" y="196.9102"/><rect fill="#FFFFFF" height="2" style="stroke:#000000;stroke-width:1;" width="4" x="147.0498" y="198.9102"/><rect fill="#FFFFFF" height="2" style="stroke:#000000;stroke-width:1;" width="4" x="147.0498" y="202.9102"/><text fill="#000000" font-family="'sans-serif'" font-size="14" lengthAdjust="spacing" textLength="118.0498" x="26" y="225.4453">command/builtin</text></g><!--entity noTui--><g class="entity" data-qualified-name="noTui" data-source-line="542" id="ent0005"><rect fill="#FFFFFF" height="46.4883" rx="2.5" ry="2.5" style="stroke:#000000;stroke-width:1;" width="164.9336" x="594" y="127.9102"/><rect fill="#FFFFFF" height="10" style="stroke:#000000;stroke-width:1;" width="15" x="738.9336" y="132.9102"/><rect fill="#FFFFFF" height="2" style="stroke:#000000;stroke-width:1;" width="4" x="736.9336" y="134.9102"/><rect fill="#FFFFFF" height="2" style="stroke:#000000;stroke-width:1;" width="4" x="736.9336" y="138.9102"/><text fill="#000000" font-family="'sans-serif'" font-size="14" lengthAdjust="spacing" textLength="124.9336" x="609" y="161.4453">Concrete TUI Type</text></g><g class="link" data-entity-1="ent0001" data-entity-2="ent0002" data-link-type="dependency" id="lnk6"><polygon fill="#000000" points="230.331,127.9087,222.8262,121.5308,225.5343,126.4973,220.5679,129.2054,230.331,127.9087" style="stroke:#000000;stroke-width:1;stroke-linejoin:miter;stroke-miterlimit:10;"/><path d="M142.269,101.9962 C168.5175,109.7199 196.239,117.877 225.5343,126.4973" fill="none" style="stroke:#000000;stroke-width:1;"/></g><g class="link" data-entity-1="ent0003" data-entity-2="ent0002" data-link-type="dependency" id="lnk7"><polygon fill="#000000" points="205.6565,150.9102,196.6565,146.9102,200.6565,150.9102,196.6565,154.9102,205.6565,150.9102" style="stroke:#000000;stroke-width:1;stroke-linejoin:miter;stroke-miterlimit:10;"/><path d="M143.6507,150.9102 C162.3833,150.9102 179.174,150.9102 200.6565,150.9102" fill="none" style="stroke:#000000;stroke-width:1;"/></g><g class="link" data-entity-1="ent0004" data-entity-2="ent0002" data-link-type="dependency" id="lnk8"><polygon fill="#000000" points="230.2482,173.936,220.4851,172.6392,225.4515,175.3474,222.7434,180.3139,230.2482,173.936" style="stroke:#000000;stroke-width:1;stroke-linejoin:miter;stroke-miterlimit:10;"/><path d="M169.2152,191.8951 C189.0665,186.0538 205.5984,181.1892 225.4515,175.3474" fill="none" style="stroke:#000000;stroke-width:1;"/></g><g class="link" data-entity-1="ent0002" data-entity-2="ent0005" data-link-type="dependency" id="lnk9"><polygon fill="#000000" points="593.8195,150.9102,584.8195,146.9102,588.8195,150.9102,584.8195,154.9102,593.8195,150.9102" style="stroke:#000000;stroke-width:1;stroke-linejoin:miter;stroke-miterlimit:10;"/><path d="M413.1442,150.9102 C470.286,150.9102 535.4382,150.9102 588.8195,150.9102" fill="none" style="stroke:#000000;stroke-width:1;stroke-dasharray:7,7;"/><text fill="#000000" font-family="'sans-serif'" font-size="13" lengthAdjust="spacing" textLength="141.6733" x="433" y="146.4785">forbidden dependency</text></g><?plantuml-src RL51RXin3BplAoQ-v93OkQT0WC9kWVHG18dx0Ax4NHFMKe949VNlApksiG5w8i4PaiFXBNxHEy4eZsoWx7PYxAnc_eOaAB5cnv02ZGrEAOYZFl2gkyM6YuoAp5IYFcBFdE3YD97w5ZCtf9OZ6Vq1sp_Fz-2_nbeawZtwAi6Mqh8ZVQZ7ZNXzMOCy9UDSLjsDxNXYf42YtKtAD4w4G8TO3MLY8wMkx4KJPPhWUQ0Qx6TK-qsjRV56Mjuuox2OiSgEVFmG7J5GA3n3UdBxCSUgVXr3pB3S-Xl4Qfs9jIj-NDHZVRvomudLixe3DfARRGtiki23mIAoZ3k3lmBDcnIrpSDYYfuVhCe2LD3Y7BjO-Ftb6NSedD_5SJanpz2CVNNqFnCUJXwBdbhF-PosZkeo6nz_W-qXyOceSTlqT4qKbikdwyhheY_LyzGljOl-rUhfSnWUCSJSYszEjJTTBFi7?></g></svg>