<svg xmlns="http://www.w3.org/2000/svg" xmlns:xlink="http://www.w3.org/1999/xlink" contentStyleType="text/css" data-diagram-type="ACTIVITY" height="364px" preserveAspectRatio="none" style="width:719px;height:364px;" version="1.1" viewBox="0 0 719 364" width="719px" zoomAndPan="magnify"><?plantuml 1.2026.6?><defs/><g><g class="title" data-source-line="584"><text fill="#000000" font-family="'sans-serif'" font-size="22" font-weight="700" lengthAdjust="spacing" textLength="450.4844" x="133.3379" y="36.2695">Extension Command Rollback Boundary</text></g><ellipse cx="292.8191" cy="66.9102" fill="#FFFFFF" rx="10" ry="10" style="stroke:#000000;stroke-width:1;"/><rect fill="#FFFFFF" height="34.1328" rx="12.5" ry="12.5" style="stroke:#000000;stroke-width:1;" width="219.1367" x="183.2507" y="96.9102"/><text fill="#000000" font-family="'sans-serif'" font-size="12" lengthAdjust="spacing" textLength="199.1367" x="193.2507" y="118.5117">Build new Extension command set</text><polygon fill="#FFFFFF" points="234.0405,151.043,351.5977,151.043,363.5977,163.043,351.5977,175.043,234.0405,175.043,222.0405,163.043,234.0405,151.043" style="stroke:#000000;stroke-width:1;stroke-linejoin:miter;stroke-miterlimit:10;"/><text fill="#000000" font-family="'sans-serif'" font-size="11" lengthAdjust="spacing" textLength="117.5571" x="234.0405" y="167.2002">Validation succeeded?</text><text fill="#000000" font-family="'sans-serif'" font-size="11" lengthAdjust="spacing" textLength="13.5835" x="208.457" y="160.7227">no</text><text fill="#000000" font-family="'sans-serif'" font-size="11" lengthAdjust="spacing" textLength="17.4829" x="363.5977" y="160.7227">yes</text><rect fill="#FFFFFF" height="34.1328" rx="12.5" ry="12.5" style="stroke:#000000;stroke-width:1;" width="234.4473" x="11" y="185.043"/><text fill="#000000" font-family="'sans-serif'" font-size="12" lengthAdjust="spacing" textLength="214.4473" x="21" y="206.6445">Preserve old Extension and Snapshot</text><ellipse cx="128.2236" cy="250.1758" fill="none" rx="11" ry="11" style="stroke:#000000;stroke-width:1;"/><ellipse cx="128.2236" cy="250.1758" fill="#FFFFFF" rx="6" ry="6" style="stroke:#000000;stroke-width:1;"/><rect fill="#FFFFFF" height="34.1328" rx="12.5" ry="12.5" style="stroke:#000000;stroke-width:1;" width="212.1289" x="351.3501" y="185.043"/><text fill="#000000" font-family="'sans-serif'" font-size="12" lengthAdjust="spacing" textLength="192.1289" x="361.3501" y="206.6445">Atomically publish new Snapshot</text><polygon fill="#FFFFFF" points="418.9871,239.1758,495.842,239.1758,507.842,251.1758,495.842,263.1758,418.9871,263.1758,406.9871,251.1758,418.9871,239.1758" style="stroke:#000000;stroke-width:1;stroke-linejoin:miter;stroke-miterlimit:10;"/><text fill="#000000" font-family="'sans-serif'" font-size="11" lengthAdjust="spacing" textLength="76.855" x="418.9871" y="255.333">onLoad failed?</text><text fill="#000000" font-family="'sans-serif'" font-size="11" lengthAdjust="spacing" textLength="13.5835" x="393.4036" y="248.8555">no</text><text fill="#000000" font-family="'sans-serif'" font-size="11" lengthAdjust="spacing" textLength="17.4829" x="507.842" y="248.8555">yes</text><rect fill="#FFFFFF" height="34.1328" rx="12.5" ry="12.5" style="stroke:#000000;stroke-width:1;" width="139.5781" x="275.4473" y="273.1758"/><text fill="#000000" font-family="'sans-serif'" font-size="12" lengthAdjust="spacing" textLength="119.5781" x="285.4473" y="294.7773">Activate new version</text><ellipse cx="345.2363" cy="338.3086" fill="none" rx="11" ry="11" style="stroke:#000000;stroke-width:1;"/><ellipse cx="345.2363" cy="338.3086" fill="#FFFFFF" rx="6" ry="6" style="stroke:#000000;stroke-width:1;"/><rect fill="#FFFFFF" height="34.1328" rx="12.5" ry="12.5" style="stroke:#000000;stroke-width:1;" width="269.1348" x="435.0254" y="273.1758"/><text fill="#000000" font-family="'sans-serif'" font-size="12" lengthAdjust="spacing" textLength="249.1348" x="445.0254" y="294.7773">Delegate rollback to Extension Lifecycle SR</text><ellipse cx="569.5928" cy="338.3086" fill="none" rx="11" ry="11" style="stroke:#000000;stroke-width:1;"/><ellipse cx="569.5928" cy="338.3086" fill="#FFFFFF" rx="6" ry="6" style="stroke:#000000;stroke-width:1;"/><line style="stroke:#000000;stroke-width:1;" x1="292.8191" x2="292.8191" y1="76.9102" y2="96.9102"/><polygon fill="#000000" points="288.8191,86.9102,292.8191,96.9102,296.8191,86.9102,292.8191,90.9102" style="stroke:#000000;stroke-width:1;stroke-linejoin:miter;stroke-miterlimit:10;"/><line style="stroke:#000000;stroke-width:1;" x1="128.2236" x2="128.2236" y1="219.1758" y2="239.1758"/><polygon fill="#000000" points="124.2236,229.1758,128.2236,239.1758,132.2236,229.1758,128.2236,233.1758" style="stroke:#000000;stroke-width:1;stroke-linejoin:miter;stroke-miterlimit:10;"/><line style="stroke:#000000;stroke-width:1;" x1="345.2363" x2="345.2363" y1="307.3086" y2="327.3086"/><polygon fill="#000000" points="341.2363,317.3086,345.2363,327.3086,349.2363,317.3086,345.2363,321.3086" style="stroke:#000000;stroke-width:1;stroke-linejoin:miter;stroke-miterlimit:10;"/><line style="stroke:#000000;stroke-width:1;" x1="569.5928" x2="569.5928" y1="307.3086" y2="327.3086"/><polygon fill="#000000" points="565.5928,317.3086,569.5928,327.3086,573.5928,317.3086,569.5928,321.3086" style="stroke:#000000;stroke-width:1;stroke-linejoin:miter;stroke-miterlimit:10;"/><line style="stroke:#000000;stroke-width:1;" x1="406.9871" x2="345.2363" y1="251.1758" y2="251.1758"/><line style="stroke:#000000;stroke-width:1;" x1="345.2363" x2="345.2363" y1="251.1758" y2="273.1758"/><polygon fill="#000000" points="341.2363,263.1758,345.2363,273.1758,349.2363,263.1758,345.2363,267.1758" style="stroke:#000000;stroke-width:1;stroke-linejoin:miter;stroke-miterlimit:10;"/><line style="stroke:#000000;stroke-width:1;" x1="507.842" x2="569.5928" y1="251.1758" y2="251.1758"/><line style="stroke:#000000;stroke-width:1;" x1="569.5928" x2="569.5928" y1="251.1758" y2="273.1758"/><polygon fill="#000000" points="565.5928,263.1758,569.5928,273.1758,573.5928,263.1758,569.5928,267.1758" style="stroke:#000000;stroke-width:1;stroke-linejoin:miter;stroke-miterlimit:10;"/><line style="stroke:#000000;stroke-width:1;" x1="457.4146" x2="457.4146" y1="219.1758" y2="239.1758"/><polygon fill="#000000" points="453.4146,229.1758,457.4146,239.1758,461.4146,229.1758,457.4146,233.1758" style="stroke:#000000;stroke-width:1;stroke-linejoin:miter;stroke-miterlimit:10;"/><line style="stroke:#000000;stroke-width:1;" x1="222.0405" x2="128.2236" y1="163.043" y2="163.043"/><line style="stroke:#000000;stroke-width:1;" x1="128.2236" x2="128.2236" y1="163.043" y2="185.043"/><polygon fill="#000000" points="124.2236,175.043,128.2236,185.043,132.2236,175.043,128.2236,179.043" style="stroke:#000000;stroke-width:1;stroke-linejoin:miter;stroke-miterlimit:10;"/><line style="stroke:#000000;stroke-width:1;" x1="363.5977" x2="457.4146" y1="163.043" y2="163.043"/><line style="stroke:#000000;stroke-width:1;" x1="457.4146" x2="457.4146" y1="163.043" y2="185.043"/><polygon fill="#000000" points="453.4146,175.043,457.4146,185.043,461.4146,175.043,457.4146,179.043" style="stroke:#000000;stroke-width:1;stroke-linejoin:miter;stroke-miterlimit:10;"/><line style="stroke:#000000;stroke-width:1;" x1="292.8191" x2="292.8191" y1="131.043" y2="151.043"/><polygon fill="#000000" points="288.8191,141.043,292.8191,151.043,296.8191,141.043,292.8191,145.043" style="stroke:#000000;stroke-width:1;stroke-linejoin:miter;stroke-miterlimit:10;"/><?plantuml-src PL8zRnin3DtrAvWiSGRRWv6XpX0q7nsAe2XYe3iZqMSYEkeWyfpwtvSw9u6DBZhX-1xVunElO63GCjP8QnWmlc57kembiNHpluijjKR_KMbPwGYSvuA9wi9qlLgjvZStty8L_CGzGk8zLIUrPlHto1pP8A8aJcW4jUJywXh02WXgjKX75J9lAHvY9kX6h2X61BP3WJZMwWwQnIRfbXQkz4ZAdK0br29h_ngoE86WvEIoHg9S15mML73GNJ4OnJXFe4f3naXzQ-m-zfWdSsd23-DhPjrHMeGB1_S43cO95qF5haV8U2YZWVOkAXZqZMLmopqaskAOxKSH-uLEkzoWw8OgRozFKBh3LDvz3jXYLZgfj5YwMaP93oMN2kOvg9VSPJ0sp-RfQx27qlVDxCjddFUDX_KGWXfM2-lxaJqAeVSJLlnWATbju2tC_XmdRpKTOoHAbEwkMqO2CodN0M3zsz-SwluOxTDPj9kFQ6yTfrQ6G3uHp0wa4_ExbPuZvdpu37NoSyfg9eey-yjw79p_KszTel6-hKxZ-curzTkfD4a2d8awuP4oTMUxPkN4-FFNgcrUplluZcx3TFu3?></g></svg>