<svg xmlns="http://www.w3.org/2000/svg" xmlns:xlink="http://www.w3.org/1999/xlink" contentStyleType="text/css" data-diagram-type="ACTIVITY" height="377px" preserveAspectRatio="none" style="width:579px;height:377px;" version="1.1" viewBox="0 0 579 377" width="579px" zoomAndPan="magnify"><?plantuml 1.2026.6?><defs/><g><g class="title" data-source-line="584"><text fill="#000000" font-family="'PingFang SC'" font-size="22" font-weight="700" lengthAdjust="spacing" textLength="315.91" x="130.8645" y="38.32">Extension Command &#22238;&#28378;&#36793;&#30028;</text></g><ellipse cx="237.4489" cy="71.8" fill="#FFFFFF" rx="10" ry="10" style="stroke:#000000;stroke-width:1;"/><rect fill="#FFFFFF" height="36.8" rx="12.5" ry="12.5" style="stroke:#000000;stroke-width:1;" width="166.3268" x="154.2855" y="101.8"/><text fill="#000000" font-family="'PingFang SC'" font-size="12" lengthAdjust="spacing" textLength="146.3268" x="164.2855" y="124.52">&#26500;&#24314;&#26032; Extension &#21629;&#20196;&#38598;&#21512;</text><polygon fill="#FFFFFF" points="212.4454,158.6,262.4525,158.6,274.4525,170.6,262.4525,182.6,212.4454,182.6,200.4454,170.6,212.4454,158.6" style="stroke:#000000;stroke-width:1;stroke-linejoin:miter;stroke-miterlimit:10;"/><text fill="#000000" font-family="'PingFang SC'" font-size="11" lengthAdjust="spacing" textLength="50.0071" x="212.4454" y="174.56">&#26657;&#39564;&#25104;&#21151;?</text><text fill="#000000" font-family="'PingFang SC'" font-size="11" lengthAdjust="spacing" textLength="11" x="189.4454" y="166.86">&#21542;</text><text fill="#000000" font-family="'PingFang SC'" font-size="11" lengthAdjust="spacing" textLength="11" x="274.4525" y="166.86">&#26159;</text><rect fill="#FFFFFF" height="36.8" rx="12.5" ry="12.5" style="stroke:#000000;stroke-width:1;" width="197.5905" x="11" y="192.6"/><text fill="#000000" font-family="'PingFang SC'" font-size="12" lengthAdjust="spacing" textLength="177.5905" x="21" y="215.32">&#20445;&#30041;&#26087; Extension + &#26087; Snapshot</text><ellipse cx="109.7952" cy="260.4" fill="none" rx="11" ry="11" style="stroke:#000000;stroke-width:1;"/><ellipse cx="109.7952" cy="260.4" fill="#FFFFFF" rx="6" ry="6" style="stroke:#000000;stroke-width:1;"/><rect fill="#FFFFFF" height="36.8" rx="12.5" ry="12.5" style="stroke:#000000;stroke-width:1;" width="136.1301" x="297.0376" y="192.6"/><text fill="#000000" font-family="'PingFang SC'" font-size="12" lengthAdjust="spacing" textLength="116.1301" x="307.0376" y="215.32">&#21407;&#23376;&#21457;&#24067;&#26032; Snapshot</text><polygon fill="#FFFFFF" points="330.1903,249.4,400.015,249.4,412.015,261.4,400.015,273.4,330.1903,273.4,318.1903,261.4,330.1903,249.4" style="stroke:#000000;stroke-width:1;stroke-linejoin:miter;stroke-miterlimit:10;"/><text fill="#000000" font-family="'PingFang SC'" font-size="11" lengthAdjust="spacing" textLength="69.8247" x="330.1903" y="265.36">onLoad &#22833;&#36133;?</text><text fill="#000000" font-family="'PingFang SC'" font-size="11" lengthAdjust="spacing" textLength="11" x="307.1903" y="257.66">&#21542;</text><text fill="#000000" font-family="'PingFang SC'" font-size="11" lengthAdjust="spacing" textLength="11" x="412.015" y="257.66">&#26159;</text><rect fill="#FFFFFF" height="36.8" rx="12.5" ry="12.5" style="stroke:#000000;stroke-width:1;" width="80" x="238.5905" y="283.4"/><text fill="#000000" font-family="'PingFang SC'" font-size="12" lengthAdjust="spacing" textLength="60" x="248.5905" y="306.12">&#26032;&#29256;&#26412;&#29983;&#25928;</text><ellipse cx="278.5905" cy="351.2" fill="none" rx="11" ry="11" style="stroke:#000000;stroke-width:1;"/><ellipse cx="278.5905" cy="351.2" fill="#FFFFFF" rx="6" ry="6" style="stroke:#000000;stroke-width:1;"/><rect fill="#FFFFFF" height="36.8" rx="12.5" ry="12.5" style="stroke:#000000;stroke-width:1;" width="226.0485" x="338.5905" y="283.4"/><text fill="#000000" font-family="'PingFang SC'" font-size="12" lengthAdjust="spacing" textLength="206.0485" x="348.5905" y="306.12">&#20132;&#30001; Extension &#29983;&#21629;&#21608;&#26399; SR &#23450;&#20041;&#22238;&#28378;</text><ellipse cx="451.6147" cy="351.2" fill="none" rx="11" ry="11" style="stroke:#000000;stroke-width:1;"/><ellipse cx="451.6147" cy="351.2" fill="#FFFFFF" rx="6" ry="6" style="stroke:#000000;stroke-width:1;"/><line style="stroke:#000000;stroke-width:1;" x1="237.4489" x2="237.4489" y1="81.8" y2="101.8"/><polygon fill="#000000" points="233.4489,91.8,237.4489,101.8,241.4489,91.8,237.4489,95.8" style="stroke:#000000;stroke-width:1;stroke-linejoin:miter;stroke-miterlimit:10;"/><line style="stroke:#000000;stroke-width:1;" x1="109.7952" x2="109.7952" y1="229.4" y2="249.4"/><polygon fill="#000000" points="105.7952,239.4,109.7952,249.4,113.7952,239.4,109.7952,243.4" style="stroke:#000000;stroke-width:1;stroke-linejoin:miter;stroke-miterlimit:10;"/><line style="stroke:#000000;stroke-width:1;" x1="278.5905" x2="278.5905" y1="320.2" y2="340.2"/><polygon fill="#000000" points="274.5905,330.2,278.5905,340.2,282.5905,330.2,278.5905,334.2" style="stroke:#000000;stroke-width:1;stroke-linejoin:miter;stroke-miterlimit:10;"/><line style="stroke:#000000;stroke-width:1;" x1="451.6147" x2="451.6147" y1="320.2" y2="340.2"/><polygon fill="#000000" points="447.6147,330.2,451.6147,340.2,455.6147,330.2,451.6147,334.2" style="stroke:#000000;stroke-width:1;stroke-linejoin:miter;stroke-miterlimit:10;"/><line style="stroke:#000000;stroke-width:1;" x1="318.1903" x2="278.5905" y1="261.4" y2="261.4"/><line style="stroke:#000000;stroke-width:1;" x1="278.5905" x2="278.5905" y1="261.4" y2="283.4"/><polygon fill="#000000" points="274.5905,273.4,278.5905,283.4,282.5905,273.4,278.5905,277.4" style="stroke:#000000;stroke-width:1;stroke-linejoin:miter;stroke-miterlimit:10;"/><line style="stroke:#000000;stroke-width:1;" x1="412.015" x2="451.6147" y1="261.4" y2="261.4"/><line style="stroke:#000000;stroke-width:1;" x1="451.6147" x2="451.6147" y1="261.4" y2="283.4"/><polygon fill="#000000" points="447.6147,273.4,451.6147,283.4,455.6147,273.4,451.6147,277.4" style="stroke:#000000;stroke-width:1;stroke-linejoin:miter;stroke-miterlimit:10;"/><line style="stroke:#000000;stroke-width:1;" x1="365.1026" x2="365.1026" y1="229.4" y2="249.4"/><polygon fill="#000000" points="361.1026,239.4,365.1026,249.4,369.1026,239.4,365.1026,243.4" style="stroke:#000000;stroke-width:1;stroke-linejoin:miter;stroke-miterlimit:10;"/><line style="stroke:#000000;stroke-width:1;" x1="200.4454" x2="109.7952" y1="170.6" y2="170.6"/><line style="stroke:#000000;stroke-width:1;" x1="109.7952" x2="109.7952" y1="170.6" y2="192.6"/><polygon fill="#000000" points="105.7952,182.6,109.7952,192.6,113.7952,182.6,109.7952,186.6" style="stroke:#000000;stroke-width:1;stroke-linejoin:miter;stroke-miterlimit:10;"/><line style="stroke:#000000;stroke-width:1;" x1="274.4525" x2="365.1026" y1="170.6" y2="170.6"/><line style="stroke:#000000;stroke-width:1;" x1="365.1026" x2="365.1026" y1="170.6" y2="192.6"/><polygon fill="#000000" points="361.1026,182.6,365.1026,192.6,369.1026,182.6,365.1026,186.6" style="stroke:#000000;stroke-width:1;stroke-linejoin:miter;stroke-miterlimit:10;"/><line style="stroke:#000000;stroke-width:1;" x1="237.4489" x2="237.4489" y1="138.6" y2="158.6"/><polygon fill="#000000" points="233.4489,148.6,237.4489,158.6,241.4489,148.6,237.4489,152.6" style="stroke:#000000;stroke-width:1;stroke-linejoin:miter;stroke-miterlimit:10;"/><?plantuml-src NPBBRjD058RtVehJRjeA9Lb4NP0iM0IwG0WXyWIdzeapwdZ6cXa7kWQX55MGI0sNjZGWXOiGjqeiQ2FWPJ9E-nOSkmYbR7oPy__d_ywnLo0LO7LcGcf0Yk4MncHheOw4YYlyh5pDcf0F3DKCNGWhKcD4fkfierwlLzRNhmOhS1Dx297eaM5JqOpkfrA4ma68AX8HEWAZfTpa310M4AmpMiLaG8eEXTkX98WpDAWS4RWkAWWpOvYWG2mY6QdAITV9YbY18RHQDVZkK2Ws46WPSQmZPOLMmB5W5QQsgnraoWbPYWob4aDAYiRCqKDPmaMbFiqsfR1TYgh14eiJ0XOB5Iob1kC4GUAspXpOX4CL1dPBg9IH4uYeWvbq6rgvsyYsvJjCku4gXdPhUK5dknZfUro33afB2vLYCR7HcOfQMce3ZZTXkSISWHEEjtFZtsWjdIG5hZyuogVxPxzEvgFT8B0EZGiQ-T53FptDdtrRCFZXpzbqSdxmo0_wpK1qO3L__URyusxU7_Z7usjhnMOKhFh1kxK0e37x_Me-Ufa_Vx_GuWeKx-s_2ssop3gT1iHJSBSNNqkZVpBsdmV-wT3_U50GBCgBLArkyOS4Fpa--_xs_rZsisU-qyyFFyttnlcetonFono0Iqa5vEbaldUyGCWUdjCFF-I7OsZV1VzbVtQoSx6ZovtuX-m4vVKF?></g></svg>