<svg xmlns="http://www.w3.org/2000/svg" xmlns:xlink="http://www.w3.org/1999/xlink" contentStyleType="text/css" data-diagram-type="SEQUENCE" height="1076px" preserveAspectRatio="none" style="width:831px;height:1076px;background:#FFFFFF;" version="1.1" viewBox="0 0 831 1076" width="831px" zoomAndPan="magnify"><?plantuml 1.2026.6?><defs/><g><g class="title" data-source-line="46"><text fill="#000000" font-family="sans-serif" font-size="14" font-weight="700" lengthAdjust="spacing" textLength="232.8184" x="296.0693" y="28.5352">Append And Branch Transaction</text></g><rect fill="none" height="327.3711" style="stroke:#000000;stroke-width:1.5;" width="805.957" x="10" y="208.5977"/><rect fill="none" height="237.4395" style="stroke:#000000;stroke-width:1.5;" width="785.957" x="20" y="291.5293"/><rect fill="none" height="208.1289" style="stroke:#000000;stroke-width:1.5;" width="785.957" x="20" y="769.1426"/><g class="participant-lifeline" data-entity-uid="part1" data-qualified-name="runtime" data-source-line="55" id="part1-lifeline"><g><title>Agent Runtime</title><rect fill="#000000" fill-opacity="0.00000" height="875.2949" width="8" x="79.4629" y="118.9766"/><line style="stroke:#181818;stroke-width:0.5;stroke-dasharray:5,5;" x1="83" x2="83" y1="118.9766" y2="994.2715"/></g></g><g class="participant-lifeline" data-entity-uid="part2" data-qualified-name="memory" data-source-line="56" id="part2-lifeline"><g><title>Memory Service</title><rect fill="#000000" fill-opacity="0.00000" height="875.2949" width="8" x="388.0093" y="118.9766"/><line style="stroke:#181818;stroke-width:0.5;stroke-dasharray:5,5;" x1="391.8428" x2="391.8428" y1="118.9766" y2="994.2715"/></g></g><g class="participant-lifeline" data-entity-uid="part3" data-qualified-name="model" data-source-line="57" id="part3-lifeline"><g><title>Summary Model</title><rect fill="#000000" fill-opacity="0.00000" height="875.2949" width="8" x="655.1626" y="118.9766"/><line style="stroke:#181818;stroke-width:0.5;stroke-dasharray:5,5;" x1="658.7178" x2="658.7178" y1="118.9766" y2="994.2715"/></g></g><g class="participant-lifeline" data-entity-uid="part4" data-qualified-name="db" data-source-line="58" id="part4-lifeline"><g><title>GaussDB</title><rect fill="#000000" fill-opacity="0.00000" height="875.2949" width="8" x="759.2822" y="118.9766"/><line style="stroke:#181818;stroke-width:0.5;stroke-dasharray:5,5;" x1="762.6074" x2="762.6074" y1="118.9766" y2="994.2715"/></g></g><g class="participant participant-head" data-entity-uid="part1" data-qualified-name="runtime" data-source-line="55" id="part1-head"><text fill="#000000" font-family="sans-serif" font-size="14" lengthAdjust="spacing" textLength="100.9258" x="30" y="116.0234">Agent Runtime</text><ellipse cx="83.4629" cy="50.9883" fill="#E2E2F0" rx="8" ry="8" style="stroke:#181818;stroke-width:0.5;"/><path d="M83.4629,58.9883 L83.4629,85.9883 M70.4629,66.9883 L96.4629,66.9883 M83.4629,85.9883 L70.4629,100.9883 M83.4629,85.9883 L96.4629,100.9883" fill="none" style="stroke:#181818;stroke-width:0.5;"/></g><g class="participant participant-tail" data-entity-uid="part1" data-qualified-name="runtime" data-source-line="55" id="part1-tail"><text fill="#000000" font-family="sans-serif" font-size="14" lengthAdjust="spacing" textLength="100.9258" x="30" y="1006.8066">Agent Runtime</text><ellipse cx="83.4629" cy="1018.2598" fill="#E2E2F0" rx="8" ry="8" style="stroke:#181818;stroke-width:0.5;"/><path d="M83.4629,1026.2598 L83.4629,1053.2598 M70.4629,1034.2598 L96.4629,1034.2598 M83.4629,1053.2598 L70.4629,1068.2598 M83.4629,1053.2598 L96.4629,1068.2598" fill="none" style="stroke:#181818;stroke-width:0.5;"/></g><g class="participant participant-head" data-entity-uid="part2" data-qualified-name="memory" data-source-line="56" id="part2-head"><rect fill="#E2E2F0" height="30.4883" rx="2.5" ry="2.5" style="stroke:#181818;stroke-width:0.5;" width="120.333" x="331.8428" y="87.4883"/><text fill="#000000" font-family="sans-serif" font-size="14" lengthAdjust="spacing" textLength="106.333" x="338.8428" y="108.0234">Memory Service</text></g><g class="participant participant-tail" data-entity-uid="part2" data-qualified-name="memory" data-source-line="56" id="part2-tail"><rect fill="#E2E2F0" height="30.4883" rx="2.5" ry="2.5" style="stroke:#181818;stroke-width:0.5;" width="120.333" x="331.8428" y="993.2715"/><text fill="#000000" font-family="sans-serif" font-size="14" lengthAdjust="spacing" textLength="106.333" x="338.8428" y="1013.8066">Memory Service</text></g><g class="participant participant-head" data-entity-uid="part3" data-qualified-name="model" data-source-line="57" id="part3-head"><rect fill="#E2E2F0" height="30.4883" rx="2.5" ry="2.5" style="stroke:#181818;stroke-width:0.5;" width="122.8896" x="597.7178" y="87.4883"/><text fill="#000000" font-family="sans-serif" font-size="14" lengthAdjust="spacing" textLength="108.8896" x="604.7178" y="108.0234">Summary Model</text></g><g class="participant participant-tail" data-entity-uid="part3" data-qualified-name="model" data-source-line="57" id="part3-tail"><rect fill="#E2E2F0" height="30.4883" rx="2.5" ry="2.5" style="stroke:#181818;stroke-width:0.5;" width="122.8896" x="597.7178" y="993.2715"/><text fill="#000000" font-family="sans-serif" font-size="14" lengthAdjust="spacing" textLength="108.8896" x="604.7178" y="1013.8066">Summary Model</text></g><g class="participant participant-head" data-entity-uid="part4" data-qualified-name="db" data-source-line="58" id="part4-head"><text fill="#000000" font-family="sans-serif" font-size="14" lengthAdjust="spacing" textLength="59.3496" x="730.6074" y="116.0234">GaussDB</text><path d="M745.2822,66.4883 C745.2822,56.4883 763.2822,56.4883 763.2822,56.4883 C763.2822,56.4883 781.2822,56.4883 781.2822,66.4883 L781.2822,92.4883 C781.2822,102.4883 763.2822,102.4883 763.2822,102.4883 C763.2822,102.4883 745.2822,102.4883 745.2822,92.4883 L745.2822,66.4883" fill="#E2E2F0" style="stroke:#181818;stroke-width:0.5;"/><path d="M745.2822,66.4883 C745.2822,76.4883 763.2822,76.4883 763.2822,76.4883 C763.2822,76.4883 781.2822,76.4883 781.2822,66.4883" fill="none" style="stroke:#181818;stroke-width:0.5;"/></g><g class="participant participant-tail" data-entity-uid="part4" data-qualified-name="db" data-source-line="58" id="part4-tail"><text fill="#000000" font-family="sans-serif" font-size="14" lengthAdjust="spacing" textLength="59.3496" x="730.6074" y="1006.8066">GaussDB</text><path d="M745.2822,1019.7598 C745.2822,1009.7598 763.2822,1009.7598 763.2822,1009.7598 C763.2822,1009.7598 781.2822,1009.7598 781.2822,1019.7598 L781.2822,1045.7598 C781.2822,1055.7598 763.2822,1055.7598 763.2822,1055.7598 C763.2822,1055.7598 745.2822,1055.7598 745.2822,1045.7598 L745.2822,1019.7598" fill="#E2E2F0" style="stroke:#181818;stroke-width:0.5;"/><path d="M745.2822,1019.7598 C745.2822,1029.7598 763.2822,1029.7598 763.2822,1029.7598 C763.2822,1029.7598 781.2822,1029.7598 781.2822,1019.7598" fill="none" style="stroke:#181818;stroke-width:0.5;"/></g><rect fill="#EEEEEE" height="3" style="stroke:#EEEEEE;stroke-width:1;" width="825.957" x="0" y="149.6318"/><line style="stroke:#000000;stroke-width:1;" x1="0" x2="825.957" y1="149.6318" y2="149.6318"/><line style="stroke:#000000;stroke-width:1;" x1="0" x2="825.957" y1="152.6318" y2="152.6318"/><rect fill="#EEEEEE" height="23.3105" style="stroke:#000000;stroke-width:2;" width="132.8979" x="346.5295" y="138.9766"/><text fill="#000000" font-family="sans-serif" font-size="13" font-weight="700" lengthAdjust="spacing" textLength="114.6133" x="352.5295" y="155.5449">Append message</text><g class="message" data-entity-1="part1" data-entity-2="part2" data-source-line="61" id="msg1"><polygon fill="#181818" points="380.0093,189.5977,390.0093,193.5977,380.0093,197.5977,384.0093,193.5977" style="stroke:#181818;stroke-width:1;stroke-linejoin:miter;stroke-miterlimit:10;"/><line style="stroke:#181818;stroke-width:1;" x1="83.4629" x2="386.0093" y1="193.5977" y2="193.5977"/><text fill="#000000" font-family="sans-serif" font-size="13" lengthAdjust="spacing" textLength="284.5464" x="90.4629" y="188.8555">append(command, tenant, expectedRevision)</text></g><path d="M10,208.5977 L234.937,208.5977 L234.937,215.9082 L224.937,225.9082 L10,225.9082 L10,208.5977" fill="#EEEEEE" style="stroke:#000000;stroke-width:1.5;"/><rect fill="none" height="327.3711" style="stroke:#000000;stroke-width:1.5;" width="805.957" x="10" y="208.5977"/><text fill="#000000" font-family="sans-serif" font-size="13" font-weight="700" lengthAdjust="spacing" textLength="179.937" x="25" y="222.166">short database transaction</text><g class="message" data-entity-1="part2" data-entity-2="part4" data-source-line="63" id="msg2"><polygon fill="#181818" points="751.2822,243.2188,761.2822,247.2188,751.2822,251.2188,755.2822,247.2188" style="stroke:#181818;stroke-width:1;stroke-linejoin:miter;stroke-miterlimit:10;"/><line style="stroke:#181818;stroke-width:1;" x1="392.0093" x2="757.2822" y1="247.2188" y2="247.2188"/><text fill="#000000" font-family="sans-serif" font-size="13" lengthAdjust="spacing" textLength="195.6411" x="399.0093" y="242.4766">reserve idempotency operation</text></g><g class="message" data-entity-1="part4" data-entity-2="part2" data-source-line="64" id="msg3"><polygon fill="#181818" points="403.0093,272.5293,393.0093,276.5293,403.0093,280.5293,399.0093,276.5293" style="stroke:#181818;stroke-width:1;stroke-linejoin:miter;stroke-miterlimit:10;"/><line style="stroke:#181818;stroke-width:1;stroke-dasharray:2,2;" x1="397.0093" x2="762.2822" y1="276.5293" y2="276.5293"/><text fill="#000000" font-family="sans-serif" font-size="13" lengthAdjust="spacing" textLength="219.3687" x="409.0093" y="271.7871">new operation or committed result</text></g><path d="M20,291.5293 L82.1387,291.5293 L82.1387,298.8398 L72.1387,308.8398 L20,308.8398 L20,291.5293" fill="#EEEEEE" style="stroke:#000000;stroke-width:1.5;"/><rect fill="none" height="237.4395" style="stroke:#000000;stroke-width:1.5;" width="785.957" x="20" y="291.5293"/><text fill="#000000" font-family="sans-serif" font-size="13" font-weight="700" lengthAdjust="spacing" textLength="17.1387" x="35" y="305.0977">alt</text><text fill="#000000" font-family="sans-serif" font-size="11" font-weight="700" lengthAdjust="spacing" textLength="99.5371" x="97.1387" y="304.1641">[committed retry]</text><g class="message" data-entity-1="part2" data-entity-2="part1" data-source-line="66" id="msg4"><polygon fill="#181818" points="94.4629,326.1504,84.4629,330.1504,94.4629,334.1504,90.4629,330.1504" style="stroke:#181818;stroke-width:1;stroke-linejoin:miter;stroke-miterlimit:10;"/><line style="stroke:#181818;stroke-width:1;stroke-dasharray:2,2;" x1="88.4629" x2="391.0093" y1="330.1504" y2="330.1504"/><text fill="#000000" font-family="sans-serif" font-size="13" lengthAdjust="spacing" textLength="80.209" x="100.4629" y="325.4082">stored result</text></g><line style="stroke:#000000;stroke-width:1;stroke-dasharray:2,2;" x1="20" x2="805.957" y1="339.1504" y2="339.1504"/><text fill="#000000" font-family="sans-serif" font-size="11" font-weight="700" lengthAdjust="spacing" textLength="89.4502" x="25" y="349.7852">[new operation]</text><g class="message" data-entity-1="part2" data-entity-2="part4" data-source-line="68" id="msg5"><polygon fill="#181818" points="751.2822,370.416,761.2822,374.416,751.2822,378.416,755.2822,374.416" style="stroke:#181818;stroke-width:1;stroke-linejoin:miter;stroke-miterlimit:10;"/><line style="stroke:#181818;stroke-width:1;" x1="392.0093" x2="757.2822" y1="374.416" y2="374.416"/><text fill="#000000" font-family="sans-serif" font-size="13" lengthAdjust="spacing" textLength="111.9346" x="399.0093" y="369.6738">lock session state</text></g><g class="message" data-entity-1="part2" data-entity-2="part4" data-source-line="69" id="msg6"><polygon fill="#181818" points="751.2822,399.7266,761.2822,403.7266,751.2822,407.7266,755.2822,403.7266" style="stroke:#181818;stroke-width:1;stroke-linejoin:miter;stroke-miterlimit:10;"/><line style="stroke:#181818;stroke-width:1;" x1="392.0093" x2="757.2822" y1="403.7266" y2="403.7266"/><text fill="#000000" font-family="sans-serif" font-size="13" lengthAdjust="spacing" textLength="165.147" x="399.0093" y="398.9844">insert entry and leaf event</text></g><g class="message" data-entity-1="part2" data-entity-2="part4" data-source-line="70" id="msg7"><polygon fill="#181818" points="751.2822,429.0371,761.2822,433.0371,751.2822,437.0371,755.2822,433.0371" style="stroke:#181818;stroke-width:1;stroke-linejoin:miter;stroke-miterlimit:10;"/><line style="stroke:#181818;stroke-width:1;" x1="392.0093" x2="757.2822" y1="433.0371" y2="433.0371"/><text fill="#000000" font-family="sans-serif" font-size="13" lengthAdjust="spacing" textLength="151.9312" x="399.0093" y="428.2949">update leaf and revision</text></g><g class="message" data-entity-1="part2" data-entity-2="part4" data-source-line="71" id="msg8"><polygon fill="#181818" points="751.2822,458.3477,761.2822,462.3477,751.2822,466.3477,755.2822,462.3477" style="stroke:#181818;stroke-width:1;stroke-linejoin:miter;stroke-miterlimit:10;"/><line style="stroke:#181818;stroke-width:1;" x1="392.0093" x2="757.2822" y1="462.3477" y2="462.3477"/><text fill="#000000" font-family="sans-serif" font-size="13" lengthAdjust="spacing" textLength="152.2231" x="399.0093" y="457.6055">commit operation result</text></g><g class="message" data-entity-1="part4" data-entity-2="part2" data-source-line="72" id="msg9"><polygon fill="#181818" points="403.0093,487.6582,393.0093,491.6582,403.0093,495.6582,399.0093,491.6582" style="stroke:#181818;stroke-width:1;stroke-linejoin:miter;stroke-miterlimit:10;"/><line style="stroke:#181818;stroke-width:1;stroke-dasharray:2,2;" x1="397.0093" x2="762.2822" y1="491.6582" y2="491.6582"/><text fill="#000000" font-family="sans-serif" font-size="13" lengthAdjust="spacing" textLength="120.2754" x="409.0093" y="486.916">committed entry id</text></g><g class="message" data-entity-1="part2" data-entity-2="part1" data-source-line="73" id="msg10"><polygon fill="#181818" points="94.4629,516.9688,84.4629,520.9688,94.4629,524.9688,90.4629,520.9688" style="stroke:#181818;stroke-width:1;stroke-linejoin:miter;stroke-miterlimit:10;"/><line style="stroke:#181818;stroke-width:1;stroke-dasharray:2,2;" x1="88.4629" x2="391.0093" y1="520.9688" y2="520.9688"/><text fill="#000000" font-family="sans-serif" font-size="13" lengthAdjust="spacing" textLength="48.5088" x="100.4629" y="516.2266">success</text></g><rect fill="#EEEEEE" height="3" style="stroke:#EEEEEE;stroke-width:1;" width="825.957" x="0" y="563.624"/><line style="stroke:#000000;stroke-width:1;" x1="0" x2="825.957" y1="563.624" y2="563.624"/><line style="stroke:#000000;stroke-width:1;" x1="0" x2="825.957" y1="566.624" y2="566.624"/><rect fill="#EEEEEE" height="23.3105" style="stroke:#000000;stroke-width:2;" width="233.4258" x="296.2656" y="552.9688"/><text fill="#000000" font-family="sans-serif" font-size="13" font-weight="700" lengthAdjust="spacing" textLength="215.1411" x="302.2656" y="569.5371">Compaction or branch summary</text><g class="message" data-entity-1="part1" data-entity-2="part2" data-source-line="78" id="msg11"><polygon fill="#181818" points="380.0093,603.5898,390.0093,607.5898,380.0093,611.5898,384.0093,607.5898" style="stroke:#181818;stroke-width:1;stroke-linejoin:miter;stroke-miterlimit:10;"/><line style="stroke:#181818;stroke-width:1;" x1="83.4629" x2="386.0093" y1="607.5898" y2="607.5898"/><text fill="#000000" font-family="sans-serif" font-size="13" lengthAdjust="spacing" textLength="166.3784" x="90.4629" y="602.8477">prepare(snapshot request)</text></g><g class="message" data-entity-1="part2" data-entity-2="part4" data-source-line="79" id="msg12"><polygon fill="#181818" points="751.2822,632.9004,761.2822,636.9004,751.2822,640.9004,755.2822,636.9004" style="stroke:#181818;stroke-width:1;stroke-linejoin:miter;stroke-miterlimit:10;"/><line style="stroke:#181818;stroke-width:1;" x1="392.0093" x2="757.2822" y1="636.9004" y2="636.9004"/><text fill="#000000" font-family="sans-serif" font-size="13" lengthAdjust="spacing" textLength="182.0127" x="399.0093" y="632.1582">read active path and revision</text></g><g class="message" data-entity-1="part4" data-entity-2="part2" data-source-line="80" id="msg13"><polygon fill="#181818" points="403.0093,662.2109,393.0093,666.2109,403.0093,670.2109,399.0093,666.2109" style="stroke:#181818;stroke-width:1;stroke-linejoin:miter;stroke-miterlimit:10;"/><line style="stroke:#181818;stroke-width:1;stroke-dasharray:2,2;" x1="397.0093" x2="762.2822" y1="666.2109" y2="666.2109"/><text fill="#000000" font-family="sans-serif" font-size="13" lengthAdjust="spacing" textLength="129.0352" x="409.0093" y="661.4688">immutable snapshot</text></g><g class="message" data-entity-1="part2" data-entity-2="part3" data-source-line="81" id="msg14"><polygon fill="#181818" points="647.1626,691.5215,657.1626,695.5215,647.1626,699.5215,651.1626,695.5215" style="stroke:#181818;stroke-width:1;stroke-linejoin:miter;stroke-miterlimit:10;"/><line style="stroke:#181818;stroke-width:1;" x1="392.0093" x2="653.1626" y1="695.5215" y2="695.5215"/><text fill="#000000" font-family="sans-serif" font-size="13" lengthAdjust="spacing" textLength="243.1533" x="399.0093" y="690.7793">generate summary outside transaction</text></g><g class="message" data-entity-1="part3" data-entity-2="part2" data-source-line="82" id="msg15"><polygon fill="#181818" points="403.0093,720.832,393.0093,724.832,403.0093,728.832,399.0093,724.832" style="stroke:#181818;stroke-width:1;stroke-linejoin:miter;stroke-miterlimit:10;"/><line style="stroke:#181818;stroke-width:1;stroke-dasharray:2,2;" x1="397.0093" x2="658.1626" y1="724.832" y2="724.832"/><text fill="#000000" font-family="sans-serif" font-size="13" lengthAdjust="spacing" textLength="146.4722" x="409.0093" y="720.0898">summary and cut point</text></g><g class="message" data-entity-1="part2" data-entity-2="part4" data-source-line="83" id="msg16"><polygon fill="#181818" points="751.2822,750.1426,761.2822,754.1426,751.2822,758.1426,755.2822,754.1426" style="stroke:#181818;stroke-width:1;stroke-linejoin:miter;stroke-miterlimit:10;"/><line style="stroke:#181818;stroke-width:1;" x1="392.0093" x2="757.2822" y1="754.1426" y2="754.1426"/><text fill="#000000" font-family="sans-serif" font-size="13" lengthAdjust="spacing" textLength="180.7622" x="399.0093" y="749.4004">lock state and verify revision</text></g><path d="M20,769.1426 L82.1387,769.1426 L82.1387,776.4531 L72.1387,786.4531 L20,786.4531 L20,769.1426" fill="#EEEEEE" style="stroke:#000000;stroke-width:1.5;"/><rect fill="none" height="208.1289" style="stroke:#000000;stroke-width:1.5;" width="785.957" x="20" y="769.1426"/><text fill="#000000" font-family="sans-serif" font-size="13" font-weight="700" lengthAdjust="spacing" textLength="17.1387" x="35" y="782.7109">alt</text><text fill="#000000" font-family="sans-serif" font-size="11" font-weight="700" lengthAdjust="spacing" textLength="105.1338" x="97.1387" y="781.7773">[revision changed]</text><g class="message" data-entity-1="part4" data-entity-2="part2" data-source-line="85" id="msg17"><polygon fill="#181818" points="403.0093,803.7637,393.0093,807.7637,403.0093,811.7637,399.0093,807.7637" style="stroke:#181818;stroke-width:1;stroke-linejoin:miter;stroke-miterlimit:10;"/><line style="stroke:#181818;stroke-width:1;stroke-dasharray:2,2;" x1="397.0093" x2="762.2822" y1="807.7637" y2="807.7637"/><text fill="#000000" font-family="sans-serif" font-size="13" lengthAdjust="spacing" textLength="91.3809" x="409.0093" y="803.0215">stale snapshot</text></g><g class="message" data-entity-1="part2" data-entity-2="part1" data-source-line="86" id="msg18"><polygon fill="#181818" points="94.4629,833.0742,84.4629,837.0742,94.4629,841.0742,90.4629,837.0742" style="stroke:#181818;stroke-width:1;stroke-linejoin:miter;stroke-miterlimit:10;"/><line style="stroke:#181818;stroke-width:1;stroke-dasharray:2,2;" x1="88.4629" x2="391.0093" y1="837.0742" y2="837.0742"/><text fill="#000000" font-family="sans-serif" font-size="13" lengthAdjust="spacing" textLength="106.5391" x="100.4629" y="832.332">retryable conflict</text></g><line style="stroke:#000000;stroke-width:1;stroke-dasharray:2,2;" x1="20" x2="805.957" y1="846.0742" y2="846.0742"/><text fill="#000000" font-family="sans-serif" font-size="11" font-weight="700" lengthAdjust="spacing" textLength="119.582" x="25" y="856.709">[revision unchanged]</text><g class="message" data-entity-1="part2" data-entity-2="part4" data-source-line="88" id="msg19"><polygon fill="#181818" points="751.2822,877.3398,761.2822,881.3398,751.2822,885.3398,755.2822,881.3398" style="stroke:#181818;stroke-width:1;stroke-linejoin:miter;stroke-miterlimit:10;"/><line style="stroke:#181818;stroke-width:1;" x1="392.0093" x2="757.2822" y1="881.3398" y2="881.3398"/><text fill="#000000" font-family="sans-serif" font-size="13" lengthAdjust="spacing" textLength="236.6089" x="399.0093" y="876.5977">insert summary entry and audit event</text></g><g class="message" data-entity-1="part2" data-entity-2="part4" data-source-line="89" id="msg20"><polygon fill="#181818" points="751.2822,906.6504,761.2822,910.6504,751.2822,914.6504,755.2822,910.6504" style="stroke:#181818;stroke-width:1;stroke-linejoin:miter;stroke-miterlimit:10;"/><line style="stroke:#181818;stroke-width:1;" x1="392.0093" x2="757.2822" y1="910.6504" y2="910.6504"/><text fill="#000000" font-family="sans-serif" font-size="13" lengthAdjust="spacing" textLength="151.9312" x="399.0093" y="905.9082">update leaf and revision</text></g><g class="message" data-entity-1="part4" data-entity-2="part2" data-source-line="90" id="msg21"><polygon fill="#181818" points="403.0093,935.9609,393.0093,939.9609,403.0093,943.9609,399.0093,939.9609" style="stroke:#181818;stroke-width:1;stroke-linejoin:miter;stroke-miterlimit:10;"/><line style="stroke:#181818;stroke-width:1;stroke-dasharray:2,2;" x1="397.0093" x2="762.2822" y1="939.9609" y2="939.9609"/><text fill="#000000" font-family="sans-serif" font-size="13" lengthAdjust="spacing" textLength="67.8247" x="409.0093" y="935.2188">committed</text></g><g class="message" data-entity-1="part2" data-entity-2="part1" data-source-line="91" id="msg22"><polygon fill="#181818" points="94.4629,965.2715,84.4629,969.2715,94.4629,973.2715,90.4629,969.2715" style="stroke:#181818;stroke-width:1;stroke-linejoin:miter;stroke-miterlimit:10;"/><line style="stroke:#181818;stroke-width:1;stroke-dasharray:2,2;" x1="88.4629" x2="391.0093" y1="969.2715" y2="969.2715"/><text fill="#000000" font-family="sans-serif" font-size="13" lengthAdjust="spacing" textLength="48.5088" x="100.4629" y="964.5293">success</text></g><?plantuml-src bPHRJnin48NVzrUCybAG4cWX40YY4fUgKWMg14XzH8uzIInsRTVsfis_xx5tDvSIYleGnMkFvymPVtRKiMIwSewDeYlyhhqmSavF-0j2HcrDKNoWHrjxoSGBhTX87fCJyaNCE1nAgxIP3J0syJ1uYGdFXu53mDP19GnM_44COteMMUMBYNxPHyxcyyPMhj7fqoHh_z1n_bXNbV3BY_TqykUWLKigo2kRZ2JWneY5ded8Jvxv8grKEjBHfrC-7HtnI9vFvUd9wTdHoSdnyVbmCXhoyEnOVfJdF1nDHmT8zdqIs2zOqOJdo6Kzh6k2Adka3HHoeHgZ2KzHKUiAfNPre32ollNstCGl2MMdNKdYbeEU6V8iWZLZUc5sT7TtJoK4Z5oIhMD0sodEcPI8OY82Ksdb2_sQQnnUuoecIK5XRZsiHrjfII4Y1ScvC3DEIj_4Gf3I2_QpvXIjYxhI8IBMusn3FWLeLSussfxHPjNFlUJVhjGI_IjPJ4dK2aDUm0W9-8u2IUF0cd9vK1Jm3S-zgtGyz50Ro72FH23VZ0idF5Ir4rZltNDbqPD7T5hB9gxAKzjXBHHqRnMNJLGQ5QkczBwAEeJRwxoc9aLnUTcXNG4Hm4ANbqLR0Wq-joeqRazjBxKILli4zv3i9yyi8wk7jZlxnSpRshLjNWd7ZTj2NLRaLnFazfmHskghTOcV9Xn1WyrQ3FzQhoTqsWC6X4XLbn5xH1ctfd6bCBkMHhxEvXWO0CoDpLoYv2sLhRrjsPcmzcOr9EsAqWRcOiPvcId9S6GiTeNNJYKa6uACMb6tAxQzhUjMh0oyxjcw5qqbMlsZ7RMKi9KQOLIHVecJcnstbRhR-WOrpZC0vRrWX0CH4HN-h3d4_U8L0a9HoWuCd8ZpRUz_cz5LLGCiNEqkyKQ-Z3o2kYTeLUFgcTXWiGdUIjw5fmfa7SbPRMAny-ppwv7Yy63ewN9TSAAl-sYV5xK3P2JOzF36SMHuirjfpHGlJ2moe2k1sgmbTjEt-QWspZPUf-9_87oJg-8Tc196Vm00?></g></svg>