<svg xmlns="http://www.w3.org/2000/svg" xmlns:xlink="http://www.w3.org/1999/xlink" contentStyleType="text/css" data-diagram-type="SEQUENCE" height="881px" preserveAspectRatio="none" style="width:811px;height:881px;background:#FFFFFF;" version="1.1" viewBox="0 0 811 881" width="811px" zoomAndPan="magnify"><?plantuml 1.2026.6?><defs/><g><g class="title" data-source-line="46"><text fill="#000000" font-family="sans-serif" font-size="14" font-weight="700" lengthAdjust="spacing" textLength="232.8184" x="286.0693" y="28.5352">Append And Branch Transaction</text></g><rect fill="none" height="208.1289" style="stroke:#000000;stroke-width:1.5;" width="785.957" x="10" y="574.3242"/><g class="participant-lifeline" data-entity-uid="part1" data-qualified-name="runtime" data-source-line="55" id="part1-lifeline"><g><title>Agent Runtime</title><rect fill="#000000" fill-opacity="0.00000" height="680.4766" width="8" x="69.4629" y="118.9766"/><line style="stroke:#181818;stroke-width:0.5;stroke-dasharray:5,5;" x1="73" x2="73" y1="118.9766" y2="799.4531"/></g></g><g class="participant-lifeline" data-entity-uid="part2" data-qualified-name="memory" data-source-line="56" id="part2-lifeline"><g><title>Memory Service</title><rect fill="#000000" fill-opacity="0.00000" height="680.4766" width="8" x="378.0093" y="118.9766"/><line style="stroke:#181818;stroke-width:0.5;stroke-dasharray:5,5;" x1="381.8428" x2="381.8428" y1="118.9766" y2="799.4531"/></g></g><g class="participant-lifeline" data-entity-uid="part3" data-qualified-name="model" data-source-line="57" id="part3-lifeline"><g><title>Summary Model</title><rect fill="#000000" fill-opacity="0.00000" height="680.4766" width="8" x="645.1626" y="118.9766"/><line style="stroke:#181818;stroke-width:0.5;stroke-dasharray:5,5;" x1="648.7178" x2="648.7178" y1="118.9766" y2="799.4531"/></g></g><g class="participant-lifeline" data-entity-uid="part4" data-qualified-name="db" data-source-line="58" id="part4-lifeline"><g><title>GaussDB</title><rect fill="#000000" fill-opacity="0.00000" height="680.4766" width="8" x="749.2822" y="118.9766"/><line style="stroke:#181818;stroke-width:0.5;stroke-dasharray:5,5;" x1="752.6074" x2="752.6074" y1="118.9766" y2="799.4531"/></g></g><g class="participant participant-head" data-entity-uid="part1" data-qualified-name="runtime" data-source-line="55" id="part1-head"><text fill="#000000" font-family="sans-serif" font-size="14" lengthAdjust="spacing" textLength="100.9258" x="20" y="116.0234">Agent Runtime</text><ellipse cx="73.4629" cy="50.9883" fill="#E2E2F0" rx="8" ry="8" style="stroke:#181818;stroke-width:0.5;"/><path d="M73.4629,58.9883 L73.4629,85.9883 M60.4629,66.9883 L86.4629,66.9883 M73.4629,85.9883 L60.4629,100.9883 M73.4629,85.9883 L86.4629,100.9883" fill="none" style="stroke:#181818;stroke-width:0.5;"/></g><g class="participant participant-tail" data-entity-uid="part1" data-qualified-name="runtime" data-source-line="55" id="part1-tail"><text fill="#000000" font-family="sans-serif" font-size="14" lengthAdjust="spacing" textLength="100.9258" x="20" y="811.9883">Agent Runtime</text><ellipse cx="73.4629" cy="823.4414" fill="#E2E2F0" rx="8" ry="8" style="stroke:#181818;stroke-width:0.5;"/><path d="M73.4629,831.4414 L73.4629,858.4414 M60.4629,839.4414 L86.4629,839.4414 M73.4629,858.4414 L60.4629,873.4414 M73.4629,858.4414 L86.4629,873.4414" fill="none" style="stroke:#181818;stroke-width:0.5;"/></g><g class="participant participant-head" data-entity-uid="part2" data-qualified-name="memory" data-source-line="56" id="part2-head"><rect fill="#E2E2F0" height="30.4883" rx="2.5" ry="2.5" style="stroke:#181818;stroke-width:0.5;" width="120.333" x="321.8428" y="87.4883"/><text fill="#000000" font-family="sans-serif" font-size="14" lengthAdjust="spacing" textLength="106.333" x="328.8428" y="108.0234">Memory Service</text></g><g class="participant participant-tail" data-entity-uid="part2" data-qualified-name="memory" data-source-line="56" id="part2-tail"><rect fill="#E2E2F0" height="30.4883" rx="2.5" ry="2.5" style="stroke:#181818;stroke-width:0.5;" width="120.333" x="321.8428" y="798.4531"/><text fill="#000000" font-family="sans-serif" font-size="14" lengthAdjust="spacing" textLength="106.333" x="328.8428" y="818.9883">Memory Service</text></g><g class="participant participant-head" data-entity-uid="part3" data-qualified-name="model" data-source-line="57" id="part3-head"><rect fill="#E2E2F0" height="30.4883" rx="2.5" ry="2.5" style="stroke:#181818;stroke-width:0.5;" width="122.8896" x="587.7178" y="87.4883"/><text fill="#000000" font-family="sans-serif" font-size="14" lengthAdjust="spacing" textLength="108.8896" x="594.7178" y="108.0234">Summary Model</text></g><g class="participant participant-tail" data-entity-uid="part3" data-qualified-name="model" data-source-line="57" id="part3-tail"><rect fill="#E2E2F0" height="30.4883" rx="2.5" ry="2.5" style="stroke:#181818;stroke-width:0.5;" width="122.8896" x="587.7178" y="798.4531"/><text fill="#000000" font-family="sans-serif" font-size="14" lengthAdjust="spacing" textLength="108.8896" x="594.7178" y="818.9883">Summary Model</text></g><g class="participant participant-head" data-entity-uid="part4" data-qualified-name="db" data-source-line="58" id="part4-head"><text fill="#000000" font-family="sans-serif" font-size="14" lengthAdjust="spacing" textLength="59.3496" x="720.6074" y="116.0234">GaussDB</text><path d="M735.2822,66.4883 C735.2822,56.4883 753.2822,56.4883 753.2822,56.4883 C753.2822,56.4883 771.2822,56.4883 771.2822,66.4883 L771.2822,92.4883 C771.2822,102.4883 753.2822,102.4883 753.2822,102.4883 C753.2822,102.4883 735.2822,102.4883 735.2822,92.4883 L735.2822,66.4883" fill="#E2E2F0" style="stroke:#181818;stroke-width:0.5;"/><path d="M735.2822,66.4883 C735.2822,76.4883 753.2822,76.4883 753.2822,76.4883 C753.2822,76.4883 771.2822,76.4883 771.2822,66.4883" fill="none" style="stroke:#181818;stroke-width:0.5;"/></g><g class="participant participant-tail" data-entity-uid="part4" data-qualified-name="db" data-source-line="58" id="part4-tail"><text fill="#000000" font-family="sans-serif" font-size="14" lengthAdjust="spacing" textLength="59.3496" x="720.6074" y="811.9883">GaussDB</text><path d="M735.2822,824.9414 C735.2822,814.9414 753.2822,814.9414 753.2822,814.9414 C753.2822,814.9414 771.2822,814.9414 771.2822,824.9414 L771.2822,850.9414 C771.2822,860.9414 753.2822,860.9414 753.2822,860.9414 C753.2822,860.9414 735.2822,860.9414 735.2822,850.9414 L735.2822,824.9414" fill="#E2E2F0" style="stroke:#181818;stroke-width:0.5;"/><path d="M735.2822,824.9414 C735.2822,834.9414 753.2822,834.9414 753.2822,834.9414 C753.2822,834.9414 771.2822,834.9414 771.2822,824.9414" fill="none" style="stroke:#181818;stroke-width:0.5;"/></g><rect fill="#EEEEEE" height="3" style="stroke:#EEEEEE;stroke-width:1;" width="805.957" x="0" y="149.6318"/><line style="stroke:#000000;stroke-width:1;" x1="0" x2="805.957" y1="149.6318" y2="149.6318"/><line style="stroke:#000000;stroke-width:1;" x1="0" x2="805.957" y1="152.6318" y2="152.6318"/><rect fill="#EEEEEE" height="23.3105" style="stroke:#000000;stroke-width:2;" width="132.8979" x="336.5295" y="138.9766"/><text fill="#000000" font-family="sans-serif" font-size="13" font-weight="700" lengthAdjust="spacing" textLength="114.6133" x="342.5295" y="155.5449">Append message</text><g class="message" data-entity-1="part1" data-entity-2="part2" data-source-line="61" id="msg1"><polygon fill="#181818" points="370.0093,189.5977,380.0093,193.5977,370.0093,197.5977,374.0093,193.5977" style="stroke:#181818;stroke-width:1;stroke-linejoin:miter;stroke-miterlimit:10;"/><line style="stroke:#181818;stroke-width:1;" x1="73.4629" x2="376.0093" y1="193.5977" y2="193.5977"/><text fill="#000000" font-family="sans-serif" font-size="13" lengthAdjust="spacing" textLength="284.5464" x="80.4629" y="188.8555">append(command, tenant, expectedRevision)</text></g><g class="message" data-entity-1="part2" data-entity-2="part4" data-source-line="62" id="msg2"><polygon fill="#181818" points="741.2822,218.9082,751.2822,222.9082,741.2822,226.9082,745.2822,222.9082" style="stroke:#181818;stroke-width:1;stroke-linejoin:miter;stroke-miterlimit:10;"/><line style="stroke:#181818;stroke-width:1;" x1="382.0093" x2="747.2822" y1="222.9082" y2="222.9082"/><text fill="#000000" font-family="sans-serif" font-size="13" lengthAdjust="spacing" textLength="111.9346" x="389.0093" y="218.166">lock session state</text></g><g class="message" data-entity-1="part2" data-entity-2="part4" data-source-line="63" id="msg3"><polygon fill="#181818" points="741.2822,248.2188,751.2822,252.2188,741.2822,256.2188,745.2822,252.2188" style="stroke:#181818;stroke-width:1;stroke-linejoin:miter;stroke-miterlimit:10;"/><line style="stroke:#181818;stroke-width:1;" x1="382.0093" x2="747.2822" y1="252.2188" y2="252.2188"/><text fill="#000000" font-family="sans-serif" font-size="13" lengthAdjust="spacing" textLength="165.147" x="389.0093" y="247.4766">insert entry and leaf event</text></g><g class="message" data-entity-1="part2" data-entity-2="part4" data-source-line="64" id="msg4"><polygon fill="#181818" points="741.2822,277.5293,751.2822,281.5293,741.2822,285.5293,745.2822,281.5293" style="stroke:#181818;stroke-width:1;stroke-linejoin:miter;stroke-miterlimit:10;"/><line style="stroke:#181818;stroke-width:1;" x1="382.0093" x2="747.2822" y1="281.5293" y2="281.5293"/><text fill="#000000" font-family="sans-serif" font-size="13" lengthAdjust="spacing" textLength="151.9312" x="389.0093" y="276.7871">update leaf and revision</text></g><g class="message" data-entity-1="part4" data-entity-2="part2" data-source-line="65" id="msg5"><polygon fill="#181818" points="393.0093,306.8398,383.0093,310.8398,393.0093,314.8398,389.0093,310.8398" style="stroke:#181818;stroke-width:1;stroke-linejoin:miter;stroke-miterlimit:10;"/><line style="stroke:#181818;stroke-width:1;stroke-dasharray:2,2;" x1="387.0093" x2="752.2822" y1="310.8398" y2="310.8398"/><text fill="#000000" font-family="sans-serif" font-size="13" lengthAdjust="spacing" textLength="120.2754" x="399.0093" y="306.0977">committed entry id</text></g><g class="message" data-entity-1="part2" data-entity-2="part1" data-source-line="66" id="msg6"><polygon fill="#181818" points="84.4629,336.1504,74.4629,340.1504,84.4629,344.1504,80.4629,340.1504" style="stroke:#181818;stroke-width:1;stroke-linejoin:miter;stroke-miterlimit:10;"/><line style="stroke:#181818;stroke-width:1;stroke-dasharray:2,2;" x1="78.4629" x2="381.0093" y1="340.1504" y2="340.1504"/><text fill="#000000" font-family="sans-serif" font-size="13" lengthAdjust="spacing" textLength="48.5088" x="90.4629" y="335.4082">success</text></g><rect fill="#EEEEEE" height="3" style="stroke:#EEEEEE;stroke-width:1;" width="805.957" x="0" y="368.8057"/><line style="stroke:#000000;stroke-width:1;" x1="0" x2="805.957" y1="368.8057" y2="368.8057"/><line style="stroke:#000000;stroke-width:1;" x1="0" x2="805.957" y1="371.8057" y2="371.8057"/><rect fill="#EEEEEE" height="23.3105" style="stroke:#000000;stroke-width:2;" width="233.4258" x="286.2656" y="358.1504"/><text fill="#000000" font-family="sans-serif" font-size="13" font-weight="700" lengthAdjust="spacing" textLength="215.1411" x="292.2656" y="374.7188">Compaction or branch summary</text><g class="message" data-entity-1="part1" data-entity-2="part2" data-source-line="69" id="msg7"><polygon fill="#181818" points="370.0093,408.7715,380.0093,412.7715,370.0093,416.7715,374.0093,412.7715" style="stroke:#181818;stroke-width:1;stroke-linejoin:miter;stroke-miterlimit:10;"/><line style="stroke:#181818;stroke-width:1;" x1="73.4629" x2="376.0093" y1="412.7715" y2="412.7715"/><text fill="#000000" font-family="sans-serif" font-size="13" lengthAdjust="spacing" textLength="166.3784" x="80.4629" y="408.0293">prepare(snapshot request)</text></g><g class="message" data-entity-1="part2" data-entity-2="part4" data-source-line="70" id="msg8"><polygon fill="#181818" points="741.2822,438.082,751.2822,442.082,741.2822,446.082,745.2822,442.082" style="stroke:#181818;stroke-width:1;stroke-linejoin:miter;stroke-miterlimit:10;"/><line style="stroke:#181818;stroke-width:1;" x1="382.0093" x2="747.2822" y1="442.082" y2="442.082"/><text fill="#000000" font-family="sans-serif" font-size="13" lengthAdjust="spacing" textLength="182.0127" x="389.0093" y="437.3398">read active path and revision</text></g><g class="message" data-entity-1="part4" data-entity-2="part2" data-source-line="71" id="msg9"><polygon fill="#181818" points="393.0093,467.3926,383.0093,471.3926,393.0093,475.3926,389.0093,471.3926" style="stroke:#181818;stroke-width:1;stroke-linejoin:miter;stroke-miterlimit:10;"/><line style="stroke:#181818;stroke-width:1;stroke-dasharray:2,2;" x1="387.0093" x2="752.2822" y1="471.3926" y2="471.3926"/><text fill="#000000" font-family="sans-serif" font-size="13" lengthAdjust="spacing" textLength="129.0352" x="399.0093" y="466.6504">immutable snapshot</text></g><g class="message" data-entity-1="part2" data-entity-2="part3" data-source-line="72" id="msg10"><polygon fill="#181818" points="637.1626,496.7031,647.1626,500.7031,637.1626,504.7031,641.1626,500.7031" style="stroke:#181818;stroke-width:1;stroke-linejoin:miter;stroke-miterlimit:10;"/><line style="stroke:#181818;stroke-width:1;" x1="382.0093" x2="643.1626" y1="500.7031" y2="500.7031"/><text fill="#000000" font-family="sans-serif" font-size="13" lengthAdjust="spacing" textLength="243.1533" x="389.0093" y="495.9609">generate summary outside transaction</text></g><g class="message" data-entity-1="part3" data-entity-2="part2" data-source-line="73" id="msg11"><polygon fill="#181818" points="393.0093,526.0137,383.0093,530.0137,393.0093,534.0137,389.0093,530.0137" style="stroke:#181818;stroke-width:1;stroke-linejoin:miter;stroke-miterlimit:10;"/><line style="stroke:#181818;stroke-width:1;stroke-dasharray:2,2;" x1="387.0093" x2="648.1626" y1="530.0137" y2="530.0137"/><text fill="#000000" font-family="sans-serif" font-size="13" lengthAdjust="spacing" textLength="146.4722" x="399.0093" y="525.2715">summary and cut point</text></g><g class="message" data-entity-1="part2" data-entity-2="part4" data-source-line="74" id="msg12"><polygon fill="#181818" points="741.2822,555.3242,751.2822,559.3242,741.2822,563.3242,745.2822,559.3242" style="stroke:#181818;stroke-width:1;stroke-linejoin:miter;stroke-miterlimit:10;"/><line style="stroke:#181818;stroke-width:1;" x1="382.0093" x2="747.2822" y1="559.3242" y2="559.3242"/><text fill="#000000" font-family="sans-serif" font-size="13" lengthAdjust="spacing" textLength="180.7622" x="389.0093" y="554.582">lock state and verify revision</text></g><path d="M10,574.3242 L72.1387,574.3242 L72.1387,581.6348 L62.1387,591.6348 L10,591.6348 L10,574.3242" fill="#EEEEEE" style="stroke:#000000;stroke-width:1.5;"/><rect fill="none" height="208.1289" style="stroke:#000000;stroke-width:1.5;" width="785.957" x="10" y="574.3242"/><text fill="#000000" font-family="sans-serif" font-size="13" font-weight="700" lengthAdjust="spacing" textLength="17.1387" x="25" y="587.8926">alt</text><text fill="#000000" font-family="sans-serif" font-size="11" font-weight="700" lengthAdjust="spacing" textLength="105.1338" x="87.1387" y="586.959">[revision changed]</text><g class="message" data-entity-1="part4" data-entity-2="part2" data-source-line="76" id="msg13"><polygon fill="#181818" points="393.0093,608.9453,383.0093,612.9453,393.0093,616.9453,389.0093,612.9453" style="stroke:#181818;stroke-width:1;stroke-linejoin:miter;stroke-miterlimit:10;"/><line style="stroke:#181818;stroke-width:1;stroke-dasharray:2,2;" x1="387.0093" x2="752.2822" y1="612.9453" y2="612.9453"/><text fill="#000000" font-family="sans-serif" font-size="13" lengthAdjust="spacing" textLength="91.3809" x="399.0093" y="608.2031">stale snapshot</text></g><g class="message" data-entity-1="part2" data-entity-2="part1" data-source-line="77" id="msg14"><polygon fill="#181818" points="84.4629,638.2559,74.4629,642.2559,84.4629,646.2559,80.4629,642.2559" style="stroke:#181818;stroke-width:1;stroke-linejoin:miter;stroke-miterlimit:10;"/><line style="stroke:#181818;stroke-width:1;stroke-dasharray:2,2;" x1="78.4629" x2="381.0093" y1="642.2559" y2="642.2559"/><text fill="#000000" font-family="sans-serif" font-size="13" lengthAdjust="spacing" textLength="106.5391" x="90.4629" y="637.5137">retryable conflict</text></g><line style="stroke:#000000;stroke-width:1;stroke-dasharray:2,2;" x1="10" x2="795.957" y1="651.2559" y2="651.2559"/><text fill="#000000" font-family="sans-serif" font-size="11" font-weight="700" lengthAdjust="spacing" textLength="119.582" x="15" y="661.8906">[revision unchanged]</text><g class="message" data-entity-1="part2" data-entity-2="part4" data-source-line="79" id="msg15"><polygon fill="#181818" points="741.2822,682.5215,751.2822,686.5215,741.2822,690.5215,745.2822,686.5215" style="stroke:#181818;stroke-width:1;stroke-linejoin:miter;stroke-miterlimit:10;"/><line style="stroke:#181818;stroke-width:1;" x1="382.0093" x2="747.2822" y1="686.5215" y2="686.5215"/><text fill="#000000" font-family="sans-serif" font-size="13" lengthAdjust="spacing" textLength="236.6089" x="389.0093" y="681.7793">insert summary entry and audit event</text></g><g class="message" data-entity-1="part2" data-entity-2="part4" data-source-line="80" id="msg16"><polygon fill="#181818" points="741.2822,711.832,751.2822,715.832,741.2822,719.832,745.2822,715.832" style="stroke:#181818;stroke-width:1;stroke-linejoin:miter;stroke-miterlimit:10;"/><line style="stroke:#181818;stroke-width:1;" x1="382.0093" x2="747.2822" y1="715.832" y2="715.832"/><text fill="#000000" font-family="sans-serif" font-size="13" lengthAdjust="spacing" textLength="151.9312" x="389.0093" y="711.0898">update leaf and revision</text></g><g class="message" data-entity-1="part4" data-entity-2="part2" data-source-line="81" id="msg17"><polygon fill="#181818" points="393.0093,741.1426,383.0093,745.1426,393.0093,749.1426,389.0093,745.1426" style="stroke:#181818;stroke-width:1;stroke-linejoin:miter;stroke-miterlimit:10;"/><line style="stroke:#181818;stroke-width:1;stroke-dasharray:2,2;" x1="387.0093" x2="752.2822" y1="745.1426" y2="745.1426"/><text fill="#000000" font-family="sans-serif" font-size="13" lengthAdjust="spacing" textLength="67.8247" x="399.0093" y="740.4004">committed</text></g><g class="message" data-entity-1="part2" data-entity-2="part1" data-source-line="82" id="msg18"><polygon fill="#181818" points="84.4629,770.4531,74.4629,774.4531,84.4629,778.4531,80.4629,774.4531" style="stroke:#181818;stroke-width:1;stroke-linejoin:miter;stroke-miterlimit:10;"/><line style="stroke:#181818;stroke-width:1;stroke-dasharray:2,2;" x1="78.4629" x2="381.0093" y1="774.4531" y2="774.4531"/><text fill="#000000" font-family="sans-serif" font-size="13" lengthAdjust="spacing" textLength="48.5088" x="90.4629" y="769.7109">success</text></g><?plantuml-src XLHRJzim57xFhpZgovZKSXjGhQYJk4oJ9j0aGDeZSkpJnYAnCzl9rd-_BtOI2eNjeQeJ7v_lV1Sdw50oNTGr6qKN-5qwOMH13_ZpGWPjJPPze7lRECd4hLPi92-e5l99hDaVIAkqMS-mDk70EuaNZWyyUu-ZiqeOxBZzu1VqA2BALnFSPegUwV7ALdN2cL8UiN_gKDmtLINSvln_EF5nrgDrAEWhKqSIO6D4gzSYy8DZFkzsAXr8oHL_EfFpp_F3OvR79uVvqScPF3bT7PtDHJu_PQcKEZuytKUp7xbdrxAYd0lqiWxKDG6L7Tfwyd5GZLNEAqpKiyAemnmOZAphkJsc-WrXxEvK1t7DNgyDEHRUcWKzCTTqStDB9G2Ct91jWeVi50ec9OB8XMSghNoYtuM6UObLw205-S8wK0-sqf9yG0kIXJ1hxf2-YrQGqYsxTNBHra5NsWVKEdZheml0gcgRi1r3PZMDMlAVkjGI-fKiLYGQXIMt8482l8D0qp2pfjpiPnbuW_FaehE7xXe369wGyEJIEgk50wgk1VOdjrnPQ78FfRLCTLLyzRAi3mNTMiLbgkfMsIZAv9jelB--Z7igpxBbSeXsXOWWBBHSPlq8DFlIez2YTsslan9KfmJsW9nsd5a6LdUzEX-p_WWEgnm7emzz_fBUhokqGO92D7mJTOpoHU5UbpQrwWnB-g9oy2J3xcnxtDvon3ArrMfiXRA1u0Bfb1ApHI6kteWZ3N5yHvRQCHpWFMz4ZMG5JFIhOHzsP41u5NNTMyQL3SM_nzTLrS0oP7TelDKlUegYuOwDCuxtOElJb8fVD1_Akmba4wYsUbVfP5ky7bqTReHURPu75cKO7_hxepAYrppGO9i3qPicE8P5aQsqPeKh538kaTOHe37F46-7P_khaPXjNR_TK-_cQ9V2cAJtfXyYXEkH_GK0?></g></svg>