<svg xmlns="http://www.w3.org/2000/svg" xmlns:xlink="http://www.w3.org/1999/xlink" contentStyleType="text/css" data-diagram-type="DESCRIPTION" height="394px" preserveAspectRatio="none" style="width:1383px;height:394px;background:#FFFFFF;" version="1.1" viewBox="0 0 1383 394" width="1383px" zoomAndPan="magnify"><?plantuml 1.2026.6?><defs/><g><g class="title" data-source-line="2"><text fill="#000000" font-family="sans-serif" font-size="14" font-weight="700" lengthAdjust="spacing" textLength="305.3545" x="535.3228" y="23.5352">Java ToB Memory Persistence Architecture</text></g><!--cluster Agent Application--><g class="cluster" data-qualified-name="Agent Application" data-source-line="11" id="ent0001"><path d="M16.5,49.4883 L146.7402,49.4883 A3.75,3.75 0 0 1 149.2402,51.9883 L156.2402,71.9766 L899.5,71.9766 A2.5,2.5 0 0 1 902,74.4766 L902,316.9883 A2.5,2.5 0 0 1 899.5,319.4883 L16.5,319.4883 A2.5,2.5 0 0 1 14,316.9883 L14,51.9883 A2.5,2.5 0 0 1 16.5,49.4883" fill="none" style="stroke:#000000;stroke-width:1.5;"/><line style="stroke:#000000;stroke-width:1.5;" x1="14" x2="156.2402" y1="71.9766" y2="71.9766"/><text fill="#000000" font-family="sans-serif" font-size="14" font-weight="700" lengthAdjust="spacing" textLength="129.2402" x="18" y="65.0234">Agent Application</text></g><!--cluster Persistence Adapter--><g class="cluster" data-qualified-name="Persistence Adapter" data-source-line="20" id="ent0008"><path d="M912.5,248.4883 L1057.7109,248.4883 A3.75,3.75 0 0 1 1060.2109,250.9883 L1067.2109,270.9766 L1372.5,270.9766 A2.5,2.5 0 0 1 1375,273.4766 L1375,316.9883 A2.5,2.5 0 0 1 1372.5,319.4883 L912.5,319.4883 A2.5,2.5 0 0 1 910,316.9883 L910,250.9883 A2.5,2.5 0 0 1 912.5,248.4883" fill="none" style="stroke:#000000;stroke-width:1.5;"/><line style="stroke:#000000;stroke-width:1.5;" x1="910" x2="1067.2109" y1="270.9766" y2="270.9766"/><text fill="#000000" font-family="sans-serif" font-size="14" font-weight="700" lengthAdjust="spacing" textLength="144.2109" x="914" y="264.0234">Persistence Adapter</text></g><!--entity db--><g class="entity" data-qualified-name="db" data-source-line="26" id="ent0012"><path d="M1110.5,358.4883 C1110.5,348.4883 1150.1748,348.4883 1150.1748,348.4883 C1150.1748,348.4883 1189.8496,348.4883 1189.8496,358.4883 L1189.8496,383.9766 C1189.8496,393.9766 1150.1748,393.9766 1150.1748,393.9766 C1150.1748,393.9766 1110.5,393.9766 1110.5,383.9766 L1110.5,358.4883" fill="#F1F1F1" style="stroke:#181818;stroke-width:0.5;"/><path d="M1110.5,358.4883 C1110.5,368.4883 1150.1748,368.4883 1150.1748,368.4883 C1150.1748,368.4883 1189.8496,368.4883 1189.8496,358.4883" fill="none" style="stroke:#181818;stroke-width:0.5;"/><text fill="#000000" font-family="sans-serif" font-size="14" lengthAdjust="spacing" textLength="59.3496" x="1120.5" y="386.0234">GaussDB</text></g><!--entity runtime--><g class="entity" data-qualified-name="Agent Application.runtime" data-source-line="12" id="ent0002"><rect fill="#F1F1F1" height="36.4883" rx="2.5" ry="2.5" style="stroke:#181818;stroke-width:0.5;" width="120.9258" x="96.5" y="76.4883"/><text fill="#000000" font-family="sans-serif" font-size="14" lengthAdjust="spacing" textLength="100.9258" x="106.5" y="100.0234">Agent Runtime</text></g><!--entity memory--><g class="entity" data-qualified-name="Agent Application.memory" data-source-line="13" id="ent0003"><rect fill="#F1F1F1" height="36.4883" rx="2.5" ry="2.5" style="stroke:#181818;stroke-width:0.5;" width="207.6123" x="440" y="167.4883"/><text fill="#000000" font-family="sans-serif" font-size="14" lengthAdjust="spacing" textLength="187.6123" x="450" y="191.0234">Memory Application Service</text></g><!--entity context--><g class="entity" data-qualified-name="Agent Application.context" data-source-line="14" id="ent0004"><rect fill="#F1F1F1" height="36.4883" rx="2.5" ry="2.5" style="stroke:#181818;stroke-width:0.5;" width="142.8486" x="22.5" y="275.4883"/><text fill="#000000" font-family="sans-serif" font-size="14" lengthAdjust="spacing" textLength="122.8486" x="32.5" y="299.0234">Context Rebuilder</text></g><!--entity compact--><g class="entity" data-qualified-name="Agent Application.compact" data-source-line="15" id="ent0005"><rect fill="#F1F1F1" height="36.4883" rx="2.5" ry="2.5" style="stroke:#181818;stroke-width:0.5;" width="187.5283" x="265" y="275.4883"/><text fill="#000000" font-family="sans-serif" font-size="14" lengthAdjust="spacing" textLength="167.5283" x="275" y="299.0234">Compaction Coordinator</text></g><!--entity branch--><g class="entity" data-qualified-name="Agent Application.branch" data-source-line="16" id="ent0006"><rect fill="#F1F1F1" height="36.4883" rx="2.5" ry="2.5" style="stroke:#181818;stroke-width:0.5;" width="219.5205" x="493" y="275.4883"/><text fill="#000000" font-family="sans-serif" font-size="14" lengthAdjust="spacing" textLength="199.5205" x="503" y="299.0234">Branch Summary Coordinator</text></g><!--entity tenant--><g class="entity" data-qualified-name="Agent Application.tenant" data-source-line="17" id="ent0007"><rect fill="#F1F1F1" height="36.4883" rx="2.5" ry="2.5" style="stroke:#181818;stroke-width:0.5;" width="125.2598" x="481.5" y="76.4883"/><text fill="#000000" font-family="sans-serif" font-size="14" lengthAdjust="spacing" textLength="105.2598" x="491.5" y="100.0234">Tenant Context</text></g><!--entity sessionRepo--><g class="entity" data-qualified-name="Persistence Adapter.sessionRepo" data-source-line="21" id="ent0009"><rect fill="#F1F1F1" height="36.4883" rx="2.5" ry="2.5" style="stroke:#181818;stroke-width:0.5;" width="147.5039" x="918" y="275.4883"/><text fill="#000000" font-family="sans-serif" font-size="14" lengthAdjust="spacing" textLength="127.5039" x="928" y="299.0234">Session Repository</text></g><!--entity entryRepo--><g class="entity" data-qualified-name="Persistence Adapter.entryRepo" data-source-line="22" id="ent0010"><rect fill="#F1F1F1" height="36.4883" rx="2.5" ry="2.5" style="stroke:#181818;stroke-width:0.5;" width="131.1113" x="1084.5" y="275.4883"/><text fill="#000000" font-family="sans-serif" font-size="14" lengthAdjust="spacing" textLength="111.1113" x="1094.5" y="299.0234">Entry Repository</text></g><!--entity auditRepo--><g class="entity" data-qualified-name="Persistence Adapter.auditRepo" data-source-line="23" id="ent0011"><rect fill="#F1F1F1" height="36.4883" rx="2.5" ry="2.5" style="stroke:#181818;stroke-width:0.5;" width="132.998" x="1233.5" y="275.4883"/><text fill="#000000" font-family="sans-serif" font-size="14" lengthAdjust="spacing" textLength="112.998" x="1243.5" y="299.0234">Audit Repository</text></g><g class="link" data-entity-1="ent0002" data-entity-2="ent0003" data-link-type="dependency" id="lnk13"><polygon fill="#181818" points="469.8971,167.4465,462.0226,161.5312,465.0243,166.3259,460.2296,169.3277,469.8971,167.4465" style="stroke:#181818;stroke-width:1;stroke-linejoin:miter;stroke-miterlimit:10;"/><path d="M217.8945,109.4924 C286.1162,125.1817 391.8381,149.495 465.0243,166.3259" fill="none" style="stroke:#181818;stroke-width:1;"/><text fill="#000000" font-family="sans-serif" font-size="13" lengthAdjust="spacing" textLength="140.9497" x="388" y="145.0566">append / load context</text></g><g class="link" data-entity-1="ent0007" data-entity-2="ent0003" data-link-type="dependency" id="lnk14"><polygon fill="#181818" points="544,167.3809,548,158.3809,544,162.3809,540,158.3809,544,167.3809" style="stroke:#181818;stroke-width:1;stroke-linejoin:miter;stroke-miterlimit:10;"/><path d="M544,112.6484 C544,128.4083 544,146.6377 544,162.3809" fill="none" style="stroke:#181818;stroke-width:1;"/><text fill="#000000" font-family="sans-serif" font-size="13" lengthAdjust="spacing" textLength="127.042" x="546" y="145.0566">authenticated scope</text></g><g class="link" data-entity-1="ent0003" data-entity-2="ent0004" data-link-type="dependency" id="lnk15"><polygon fill="#181818" points="75.5614,275.2967,72.3523,265.9853,72.1528,271.6386,66.4994,271.4391,75.5614,275.2967" style="stroke:#181818;stroke-width:1;stroke-linejoin:miter;stroke-miterlimit:10;"/><path d="M439.8489,190.4458 C301.4532,196.2201 72.7588,207.7735 60,221.4883 C45.5712,236.9981 57.6703,256.0966 72.1528,271.6386" fill="none" style="stroke:#181818;stroke-width:1;"/><text fill="#000000" font-family="sans-serif" font-size="13" lengthAdjust="spacing" textLength="130.5459" x="62" y="236.0566">active path snapshot</text></g><g class="link" data-entity-1="ent0003" data-entity-2="ent0005" data-link-type="dependency" id="lnk16"><polygon fill="#181818" points="264.9103,278.4117,257.0634,272.4596,260.0428,277.2683,255.234,280.2476,264.9103,278.4117" style="stroke:#181818;stroke-width:1;stroke-linejoin:miter;stroke-miterlimit:10;"/><path d="M439.8809,190.3193 C346.1173,194.8697 220.6542,204.1347 205,221.4883 C179.4135,249.8525 214.4557,266.56 260.0428,277.2683" fill="none" style="stroke:#181818;stroke-width:1;"/><text fill="#000000" font-family="sans-serif" font-size="13" lengthAdjust="spacing" textLength="188.8364" x="207" y="236.0566">prepare / commit compaction</text></g><g class="link" data-entity-1="ent0003" data-entity-2="ent0006" data-link-type="dependency" id="lnk17"><polygon fill="#181818" points="625.5698,275.4376,634.9635,272.4781,629.3175,272.1278,629.6678,266.4818,625.5698,275.4376" style="stroke:#181818;stroke-width:1;stroke-linejoin:miter;stroke-miterlimit:10;"/><path d="M627.0393,203.6631 C634.8002,208.2823 641.7208,214.1187 647,221.4883 C659.7518,239.2894 645.8999,257.4829 629.3175,272.1278" fill="none" style="stroke:#181818;stroke-width:1;"/><text fill="#000000" font-family="sans-serif" font-size="13" lengthAdjust="spacing" textLength="221.2095" x="654" y="236.0566">prepare / commit branch summary</text></g><g class="link" data-entity-1="ent0003" data-entity-2="ent0009" data-link-type="dependency" id="lnk18"><polygon fill="#181818" points="971.8508,275.4334,967.3037,266.697,967.94,272.318,962.3191,272.9544,971.8508,275.4334" style="stroke:#181818;stroke-width:1;stroke-linejoin:miter;stroke-miterlimit:10;"/><path d="M648.0664,192.0337 C730.8127,197.4169 839.3547,206.9312 881,221.4883 C915.7673,233.6411 946.7961,255.4747 967.94,272.318" fill="none" style="stroke:#181818;stroke-width:1;"/><text fill="#000000" font-family="sans-serif" font-size="13" lengthAdjust="spacing" textLength="81.8213" x="923" y="236.0566">session state</text></g><g class="link" data-entity-1="ent0003" data-entity-2="ent0010" data-link-type="dependency" id="lnk19"><polygon fill="#181818" points="1125.1021,275.2696,1119.7327,267.0131,1120.9088,272.5464,1115.3755,273.7224,1125.1021,275.2696" style="stroke:#181818;stroke-width:1;stroke-linejoin:miter;stroke-miterlimit:10;"/><path d="M648.0971,190.4541 C764.0059,195.5512 943.7621,205.6761 1010,221.4883 C1053.2075,231.8027 1093.9572,255.0433 1120.9088,272.5464" fill="none" style="stroke:#181818;stroke-width:1;"/><text fill="#000000" font-family="sans-serif" font-size="13" lengthAdjust="spacing" textLength="114.5562" x="1065" y="236.0566">immutable entries</text></g><g class="link" data-entity-1="ent0003" data-entity-2="ent0011" data-link-type="dependency" id="lnk20"><polygon fill="#181818" points="1279.542,275.3999,1274.9259,266.6999,1275.6067,272.3156,1269.9909,272.9964,1279.542,275.3999" style="stroke:#181818;stroke-width:1;stroke-linejoin:miter;stroke-miterlimit:10;"/><path d="M648.1776,185.9628 C803.5129,186.2298 1087.9594,191.0625 1185,221.4883 C1221.2704,232.8604 1253.7527,255.1874 1275.6067,272.3156" fill="none" style="stroke:#181818;stroke-width:1;"/><text fill="#000000" font-family="sans-serif" font-size="13" lengthAdjust="spacing" textLength="151.3599" x="1227" y="236.0566">leaf and operation audit</text></g><g class="link" data-entity-1="ent0009" data-entity-2="ent0012" data-link-type="dependency" id="lnk21"><polygon fill="#181818" points="1110.4071,351.0689,1104.0112,343.5794,1105.8957,348.9131,1100.562,350.7976,1110.4071,351.0689" style="stroke:#181818;stroke-width:1;stroke-linejoin:miter;stroke-miterlimit:10;"/><path d="M1027.8526,311.6204 C1052.4356,323.3673 1080.548,336.8008 1105.8957,348.9131" fill="none" style="stroke:#181818;stroke-width:1;"/></g><g class="link" data-entity-1="ent0010" data-entity-2="ent0012" data-link-type="dependency" id="lnk22"><polygon fill="#181818" points="1150,348.323,1154,339.323,1150,343.323,1146,339.323,1150,348.323" style="stroke:#181818;stroke-width:1;stroke-linejoin:miter;stroke-miterlimit:10;"/><path d="M1150,311.6204 C1150,322.4972 1150,331.6681 1150,343.323" fill="none" style="stroke:#181818;stroke-width:1;"/></g><g class="link" data-entity-1="ent0011" data-entity-2="ent0012" data-link-type="dependency" id="lnk23"><polygon fill="#181818" points="1189.7451,349.9833,1199.5825,349.5098,1194.2112,347.7353,1195.9858,342.364,1189.7451,349.9833" style="stroke:#181818;stroke-width:1;stroke-linejoin:miter;stroke-miterlimit:10;"/><path d="M1265.9627,311.6204 C1243.3159,323.0193 1217.9473,335.7881 1194.2112,347.7353" fill="none" style="stroke:#181818;stroke-width:1;"/></g><g class="link" data-entity-1="ent0005" data-entity-2="ent0003" data-link-type="dependency" id="lnk24"><polygon fill="#181818" points="471.9452,203.512,462.1324,202.6694,467.2191,205.1443,464.7442,210.2311,471.9452,203.512" style="stroke:#181818;stroke-width:1;stroke-linejoin:miter;stroke-miterlimit:10;"/><path d="M372.6089,275.2189 C386.0995,259.1782 408.153,235.6922 432,221.4883 C444.2516,214.1909 453.4511,209.8997 467.2191,205.1443" fill="none" style="stroke:#181818;stroke-width:1;"/><text fill="#000000" font-family="sans-serif" font-size="13" lengthAdjust="spacing" textLength="98.249" x="434" y="236.0566">summary result</text></g><g class="link" data-entity-1="ent0006" data-entity-2="ent0003" data-link-type="dependency" id="lnk25"><polygon fill="#181818" points="538.9816,203.8223,533.2743,211.849,537.9889,208.7228,541.115,213.4374,538.9816,203.8223" style="stroke:#181818;stroke-width:1;stroke-linejoin:miter;stroke-miterlimit:10;"/><path d="M572.8574,275.4061 C560.5771,266.6926 547.7107,254.875 541,240.4883 C535.6814,229.0858 535.7599,219.7255 537.9889,208.7228" fill="none" style="stroke:#181818;stroke-width:1;"/><text fill="#000000" font-family="sans-serif" font-size="13" lengthAdjust="spacing" textLength="98.249" x="543" y="236.0566">summary result</text></g><g class="link" data-entity-1="ent0004" data-entity-2="ent0002" data-link-type="dependency" id="lnk26"><polygon fill="#181818" points="135.2415,112.7478,125.7981,115.5446,131.4372,115.9924,130.9895,121.6315,135.2415,112.7478" style="stroke:#181818;stroke-width:1;stroke-linejoin:miter;stroke-miterlimit:10;"/><path d="M73.0125,275.3756 C58.7911,261.5681 43.7914,241.2546 51,221.4883 C67.7481,175.5643 105.6128,138.0175 131.4372,115.9924" fill="none" style="stroke:#181818;stroke-width:1;"/><text fill="#000000" font-family="sans-serif" font-size="13" lengthAdjust="spacing" textLength="143.2349" x="84" y="190.5566">AgentMessage context</text></g><?plantuml-src VLDDRzD04BtxLmovS6aQQDEapG4fRH4I4W8rlI64nkj9iehtGxlh20lntvdzSEfKY9kzy-RhlJTlhCETGcYnDrq0hoYWnYh8q19ynYF2ixc7BwICw-4REIzz82q8raxiPI0HEaULFqXjqQ42OPGrcdJOX9uhE0QWthLKLMzXOph7cNIKJIon0elYW3loCs4QgNTJ_jPXvftW1qSpJzvBewUA9zgHkmn-1Plyzb47rrzmpPzeBUac_qFToRPvC3hGhn2V9FcBE9AI0QxUBsYnlAAbkDkAnStYzkhcvlhwRbulvpI_lHRln1tDbzlb9LVzMdjoHsgWfZqUfN4yguJSoaEP2oXt0DGDBvfwU-wMkiFM6GLXJu0Yo2D1IxZbXSC-rdyaBtUQaz0RlO83aJqbUk9zWnGUfCu5h6sbm11RiapaKaE51qhX1WFMwCjFvx1ctdsYEhPA6ZOyWTjbqba-hW_IcpRLl3WbfH7fo6inQuvbIbkAFOa3FyIcB1pB6mtG0pfkYLmrJ8rk-ykgAdB2P1rrXFNBt1FuNG5yp-zF7Q-dw0UW1vU_Ox1uR9J5OhkZ51cfKZW2Yxxmb2adb-A5lWnGDhBE5HwCSMmj36P0fL14tJlKOW-RJYdalg-HTGf7u7CchBHDmSnXzMUqyzbjD6W3kR9riIpFQusNNBzFDOgBucj49GU_naI7zGDYtJKol4PWV4m87kPaXSadxBn_l9z4I5DNLU4PfjCFXKbO5J_335g3pOd0uezpPCVcYgR4m4VXXR5KbM343TPT3MQFFWUlqVgz2UV8n3yZhICRBJGRxbESL1idP1d-XIyHd_KRvuoOvSJXMdtWuSUm4xaCaafr8Hr1EUenyCGn0zEDn5DW2bnsQGfNuwOnYLb_QL0UNWgLXu6ECxBBHdo1lcj3LVRy7sJWFs86fLUGhkqBZnNzEQZx5m00?></g></svg>