<svg xmlns="http://www.w3.org/2000/svg" xmlns:xlink="http://www.w3.org/1999/xlink" contentStyleType="text/css" data-diagram-type="CLASS" height="679px" preserveAspectRatio="none" style="width:1036px;height:679px;background:#FFFFFF;" version="1.1" viewBox="0 0 1036 679" width="1036px" zoomAndPan="magnify"><?plantuml 1.2026.6?><defs/><g><g class="title" data-source-line="97"><text fill="#000000" font-family="sans-serif" font-size="14" font-weight="700" lengthAdjust="spacing" textLength="228.6484" x="400.6085" y="23.5352">Session Event Plane Data Model</text></g><!--class agent_session--><g class="entity" data-qualified-name="agent_session" data-source-line="116" id="ent0001"><rect fill="#F7F9FC" height="155.5508" rx="2.5" ry="2.5" style="stroke:#53657D;stroke-width:0.5;" width="262.5576" x="242.97" y="44.4883"/><ellipse cx="322.1336" cy="64.7988" fill="#ADD1B2" rx="11" ry="11" style="stroke:#181818;stroke-width:1;"/><path d="M324.6067,70.9419 Q324.0257,71.2407 323.3865,71.3901 Q322.7473,71.5396 322.0418,71.5396 Q319.5349,71.5396 318.2151,69.8877 Q316.8953,68.2358 316.8953,65.1147 Q316.8953,61.9854 318.2151,60.3335 Q319.5349,58.6816 322.0418,58.6816 Q322.7473,58.6816 323.3948,58.8311 Q324.0423,58.9805 324.6067,59.2793 L324.6067,62.002 Q323.9759,61.4209 323.3824,61.1511 Q322.7888,60.8813 322.158,60.8813 Q320.8133,60.8813 320.1284,61.948 Q319.4436,63.0146 319.4436,65.1147 Q319.4436,67.2065 320.1284,68.2732 Q320.8133,69.3398 322.158,69.3398 Q322.7888,69.3398 323.3824,69.0701 Q323.9759,68.8003 324.6067,68.2192 Z " fill="#000000"/><text fill="#000000" font-family="sans-serif" font-size="12" font-style="italic" lengthAdjust="spacing" textLength="41.3965" x="369.8006" y="61.0898">&#171;table&#187;</text><text fill="#000000" font-family="sans-serif" font-size="14" lengthAdjust="spacing" textLength="95.7305" x="342.6336" y="77.1563">agent_session</text><line style="stroke:#53657D;stroke-width:0.5;" x1="243.97" x2="504.5276" y1="85.1094" y2="85.1094"/><text fill="#000000" font-family="sans-serif" font-size="14" lengthAdjust="spacing" textLength="183.7773" x="248.97" y="102.6445">tenant_id : varchar(64) [PK]</text><text fill="#000000" font-family="sans-serif" font-size="14" lengthAdjust="spacing" textLength="199.7939" x="248.97" y="119.1328">session_id : varchar(128) [PK]</text><line style="stroke:#53657D;stroke-width:1;" x1="243.97" x2="504.5276" y1="126.0859" y2="126.0859"/><text fill="#000000" font-family="sans-serif" font-size="14" lengthAdjust="spacing" textLength="250.5576" x="248.97" y="143.6211">parent_session_id : varchar(128) [FK]</text><text fill="#000000" font-family="sans-serif" font-size="14" lengthAdjust="spacing" textLength="241.3701" x="248.97" y="160.1094">current_leaf_entry_id : varchar(128)</text><text fill="#000000" font-family="sans-serif" font-size="14" lengthAdjust="spacing" textLength="106.1416" x="248.97" y="176.5977">revision : bigint</text><text fill="#000000" font-family="sans-serif" font-size="14" lengthAdjust="spacing" textLength="171.5615" x="248.97" y="193.0859">next_append_seq : bigint</text></g><!--class session_entry--><g class="entity" data-qualified-name="session_entry" data-source-line="126" id="ent0002"><rect fill="#F7F9FC" height="172.0391" rx="2.5" ry="2.5" style="stroke:#53657D;stroke-width:0.5;" width="246.7803" x="338.86" y="260.0383"/><ellipse cx="411.8439" cy="280.3488" fill="#ADD1B2" rx="11" ry="11" style="stroke:#181818;stroke-width:1;"/><path d="M414.317,286.4919 Q413.736,286.7907 413.0968,286.9401 Q412.4577,287.0896 411.7521,287.0896 Q409.2453,287.0896 407.9254,285.4377 Q406.6056,283.7858 406.6056,280.6647 Q406.6056,277.5354 407.9254,275.8835 Q409.2453,274.2316 411.7521,274.2316 Q412.4577,274.2316 413.1051,274.3811 Q413.7526,274.5305 414.317,274.8293 L414.317,277.552 Q413.6862,276.9709 413.0927,276.7011 Q412.4992,276.4313 411.8683,276.4313 Q410.5236,276.4313 409.8388,277.498 Q409.1539,278.5646 409.1539,280.6647 Q409.1539,282.7565 409.8388,283.8232 Q410.5236,284.8898 411.8683,284.8898 Q412.4992,284.8898 413.0927,284.6201 Q413.6862,284.3503 414.317,283.7692 Z " fill="#000000"/><text fill="#000000" font-family="sans-serif" font-size="12" font-style="italic" lengthAdjust="spacing" textLength="41.3965" x="457.8019" y="276.6398">&#171;table&#187;</text><text fill="#000000" font-family="sans-serif" font-size="14" lengthAdjust="spacing" textLength="92.3125" x="432.3439" y="292.7063">session_entry</text><line style="stroke:#53657D;stroke-width:0.5;" x1="339.86" x2="584.6403" y1="300.6594" y2="300.6594"/><text fill="#000000" font-family="sans-serif" font-size="14" lengthAdjust="spacing" textLength="209.2822" x="344.86" y="318.1945">tenant_id : varchar(64) [PK, FK]</text><text fill="#000000" font-family="sans-serif" font-size="14" lengthAdjust="spacing" textLength="225.2988" x="344.86" y="334.6828">session_id : varchar(128) [PK, FK]</text><text fill="#000000" font-family="sans-serif" font-size="14" lengthAdjust="spacing" textLength="184.0166" x="344.86" y="351.1711">entry_id : varchar(128) [PK]</text><line style="stroke:#53657D;stroke-width:1;" x1="339.86" x2="584.6403" y1="358.1242" y2="358.1242"/><text fill="#000000" font-family="sans-serif" font-size="14" lengthAdjust="spacing" textLength="234.7803" x="344.86" y="375.6594">parent_entry_id : varchar(128) [FK]</text><text fill="#000000" font-family="sans-serif" font-size="14" lengthAdjust="spacing" textLength="168.3623" x="344.86" y="392.1477">append_seq : bigint [UQ]</text><text fill="#000000" font-family="sans-serif" font-size="14" lengthAdjust="spacing" textLength="161.0547" x="344.86" y="408.6359">entry_type : varchar(64)</text><text fill="#000000" font-family="sans-serif" font-size="14" lengthAdjust="spacing" textLength="103.8311" x="344.86" y="425.1242">payload : jsonb</text></g><!--class memory_write_operation--><g class="entity" data-qualified-name="memory_write_operation" data-source-line="137" id="ent0003"><rect fill="#F7F9FC" height="172.0391" rx="2.5" ry="2.5" style="stroke:#53657D;stroke-width:0.5;" width="226.4912" x="7" y="260.0383"/><ellipse cx="33.7303" cy="280.3488" fill="#ADD1B2" rx="11" ry="11" style="stroke:#181818;stroke-width:1;"/><path d="M36.2035,286.4919 Q35.6224,286.7907 34.9833,286.9401 Q34.3441,287.0896 33.6385,287.0896 Q31.1317,287.0896 29.8119,285.4377 Q28.492,283.7858 28.492,280.6647 Q28.492,277.5354 29.8119,275.8835 Q31.1317,274.2316 33.6385,274.2316 Q34.3441,274.2316 34.9916,274.3811 Q35.639,274.5305 36.2035,274.8293 L36.2035,277.552 Q35.5726,276.9709 34.9791,276.7011 Q34.3856,276.4313 33.7547,276.4313 Q32.41,276.4313 31.7252,277.498 Q31.0404,278.5646 31.0404,280.6647 Q31.0404,282.7565 31.7252,283.8232 Q32.41,284.8898 33.7547,284.8898 Q34.3856,284.8898 34.9791,284.6201 Q35.5726,284.3503 36.2035,283.7692 Z " fill="#000000"/><text fill="#000000" font-family="sans-serif" font-size="12" font-style="italic" lengthAdjust="spacing" textLength="41.3965" x="113.8507" y="276.6398">&#171;table&#187;</text><text fill="#000000" font-family="sans-serif" font-size="14" lengthAdjust="spacing" textLength="168.4238" x="50.3371" y="292.7063">memory_write_operation</text><line style="stroke:#53657D;stroke-width:0.5;" x1="8" x2="232.4912" y1="300.6594" y2="300.6594"/><text fill="#000000" font-family="sans-serif" font-size="14" lengthAdjust="spacing" textLength="209.2822" x="13" y="318.1945">tenant_id : varchar(64) [PK, FK]</text><text fill="#000000" font-family="sans-serif" font-size="14" lengthAdjust="spacing" textLength="214.4912" x="13" y="334.6828">operation_id : varchar(128) [PK]</text><line style="stroke:#53657D;stroke-width:1;" x1="8" x2="232.4912" y1="341.6359" y2="341.6359"/><text fill="#000000" font-family="sans-serif" font-size="14" lengthAdjust="spacing" textLength="199.5615" x="13" y="359.1711">session_id : varchar(128) [FK]</text><text fill="#000000" font-family="sans-serif" font-size="14" lengthAdjust="spacing" textLength="191.5293" x="13" y="375.6594">operation_type : varchar(32)</text><text fill="#000000" font-family="sans-serif" font-size="14" lengthAdjust="spacing" textLength="131.291" x="13" y="392.1477">status : varchar(16)</text><text fill="#000000" font-family="sans-serif" font-size="14" lengthAdjust="spacing" textLength="159.8652" x="13" y="408.6359">request_hash : char(64)</text><text fill="#000000" font-family="sans-serif" font-size="14" lengthAdjust="spacing" textLength="149.4678" x="13" y="425.1242">result_payload : jsonb</text></g><!--class session_leaf_event--><g class="entity" data-qualified-name="session_leaf_event" data-source-line="148" id="ent0004"><rect fill="#F7F9FC" height="172.0391" rx="2.5" ry="2.5" style="stroke:#53657D;stroke-width:0.5;" width="267.0557" x="87.72" y="492.0783"/><ellipse cx="153.9773" cy="512.3888" fill="#ADD1B2" rx="11" ry="11" style="stroke:#181818;stroke-width:1;"/><path d="M156.4505,518.5319 Q155.8694,518.8307 155.2303,518.9801 Q154.5911,519.1296 153.8855,519.1296 Q151.3787,519.1296 150.0589,517.4777 Q148.739,515.8258 148.739,512.7047 Q148.739,509.5754 150.0589,507.9235 Q151.3787,506.2716 153.8855,506.2716 Q154.5911,506.2716 155.2386,506.4211 Q155.886,506.5705 156.4505,506.8693 L156.4505,509.592 Q155.8196,509.0109 155.2261,508.7411 Q154.6326,508.4713 154.0017,508.4713 Q152.657,508.4713 151.9722,509.538 Q151.2874,510.6046 151.2874,512.7047 Q151.2874,514.7965 151.9722,515.8632 Q152.657,516.9298 154.0017,516.9298 Q154.6326,516.9298 155.2261,516.6601 Q155.8196,516.3903 156.4505,515.8092 Z " fill="#000000"/><text fill="#000000" font-family="sans-serif" font-size="12" font-style="italic" lengthAdjust="spacing" textLength="41.3965" x="216.7996" y="508.6798">&#171;table&#187;</text><text fill="#000000" font-family="sans-serif" font-size="14" lengthAdjust="spacing" textLength="126.041" x="174.4773" y="524.7463">session_leaf_event</text><line style="stroke:#53657D;stroke-width:0.5;" x1="88.72" x2="353.7757" y1="532.6994" y2="532.6994"/><text fill="#000000" font-family="sans-serif" font-size="14" lengthAdjust="spacing" textLength="209.2822" x="93.72" y="550.2345">tenant_id : varchar(64) [PK, FK]</text><text fill="#000000" font-family="sans-serif" font-size="14" lengthAdjust="spacing" textLength="225.2988" x="93.72" y="566.7228">session_id : varchar(128) [PK, FK]</text><text fill="#000000" font-family="sans-serif" font-size="14" lengthAdjust="spacing" textLength="186.0195" x="93.72" y="583.2111">event_id : varchar(128) [PK]</text><line style="stroke:#53657D;stroke-width:1;" x1="88.72" x2="353.7757" y1="590.1642" y2="590.1642"/><text fill="#000000" font-family="sans-serif" font-size="14" lengthAdjust="spacing" textLength="197.7979" x="93.72" y="607.6994">session_revision : bigint [UQ]</text><text fill="#000000" font-family="sans-serif" font-size="14" lengthAdjust="spacing" textLength="255.0557" x="93.72" y="624.1877">from_leaf_entry_id : varchar(128) [FK]</text><text fill="#000000" font-family="sans-serif" font-size="14" lengthAdjust="spacing" textLength="236.3457" x="93.72" y="640.6759">to_leaf_entry_id : varchar(128) [FK]</text><text fill="#000000" font-family="sans-serif" font-size="14" lengthAdjust="spacing" textLength="214.2588" x="93.72" y="657.1642">operation_id : varchar(128) [FK]</text></g><!--class session_file_operation--><g class="entity" data-qualified-name="session_file_operation" data-source-line="159" id="ent0005"><rect fill="#F7F9FC" height="139.0625" rx="2.5" ry="2.5" style="stroke:#53657D;stroke-width:0.5;" width="273.6455" x="389.42" y="508.5683"/><ellipse cx="446.5787" cy="528.8788" fill="#ADD1B2" rx="11" ry="11" style="stroke:#181818;stroke-width:1;"/><path d="M449.0518,535.0219 Q448.4708,535.3207 447.8316,535.4701 Q447.1925,535.6196 446.4869,535.6196 Q443.9801,535.6196 442.6602,533.9677 Q441.3404,532.3158 441.3404,529.1947 Q441.3404,526.0654 442.6602,524.4135 Q443.9801,522.7616 446.4869,522.7616 Q447.1925,522.7616 447.8399,522.9111 Q448.4874,523.0605 449.0518,523.3593 L449.0518,526.082 Q448.421,525.5009 447.8275,525.2311 Q447.234,524.9613 446.6031,524.9613 Q445.2584,524.9613 444.5736,526.028 Q443.8888,527.0946 443.8888,529.1947 Q443.8888,531.2865 444.5736,532.3532 Q445.2584,533.4198 446.6031,533.4198 Q447.234,533.4198 447.8275,533.1501 Q448.421,532.8803 449.0518,532.2992 Z " fill="#000000"/><text fill="#000000" font-family="sans-serif" font-size="12" font-style="italic" lengthAdjust="spacing" textLength="41.3965" x="521.7945" y="525.1698">&#171;table&#187;</text><text fill="#000000" font-family="sans-serif" font-size="14" lengthAdjust="spacing" textLength="150.8281" x="467.0787" y="541.2362">session_file_operation</text><line style="stroke:#53657D;stroke-width:0.5;" x1="390.42" x2="662.0655" y1="549.1894" y2="549.1894"/><text fill="#000000" font-family="sans-serif" font-size="14" lengthAdjust="spacing" textLength="129.0693" x="395.42" y="566.7245">file_path : text [PK]</text><line style="stroke:#53657D;stroke-width:0.5;" x1="390.42" x2="662.0655" y1="573.6777" y2="573.6777"/><text fill="#000000" font-family="sans-serif" font-size="14" lengthAdjust="spacing" textLength="209.2822" x="395.42" y="591.2128">tenant_id : varchar(64) [PK, FK]</text><text fill="#000000" font-family="sans-serif" font-size="14" lengthAdjust="spacing" textLength="225.2988" x="395.42" y="607.7011">session_id : varchar(128) [PK, FK]</text><text fill="#000000" font-family="sans-serif" font-size="14" lengthAdjust="spacing" textLength="261.6455" x="395.42" y="624.1894">source_entry_id : varchar(128) [PK, FK]</text><text fill="#000000" font-family="sans-serif" font-size="14" lengthAdjust="spacing" textLength="221.9424" x="395.42" y="640.6777">operation_type : varchar(16) [PK]</text></g><g class="entity" data-qualified-name="GMN14" data-source-line="177" id="ent0015"><path d="M638.63,325.7483 L638.63,366.3694 A0,0 0 0 0 638.63,366.3694 L1021.8654,366.3694 A0,0 0 0 0 1021.8654,366.3694 L1021.8654,335.7483 L1011.8654,325.7483 L793.64,325.7483 L505.83,187.2683 L785.64,325.7483 L638.63,325.7483 A0,0 0 0 0 638.63,325.7483" fill="#FEFFDD" style="stroke:#181818;stroke-width:0.5;"/><path d="M1011.8654,325.7483 L1011.8654,335.7483 L1021.8654,335.7483 L1011.8654,325.7483" fill="#FEFFDD" style="stroke:#181818;stroke-width:0.5;"/><text fill="#000000" font-family="sans-serif" font-size="13" lengthAdjust="spacing" textLength="362.2354" x="644.63" y="343.3166">current_leaf_entry_id is validated in the write transaction.</text><text fill="#000000" font-family="sans-serif" font-size="13" lengthAdjust="spacing" textLength="333.2393" x="644.63" y="358.6272">It has no immediate circular foreign key in this draft.</text></g><!--link agent_session to agent_session--><g class="link" data-entity-1="ent0001" data-entity-2="ent0001" data-link-type="crowfoot" data-source-line="167" id="lnk6"><path codeLine="167" d="M513.6741,85.9639 C534.2241,91.7139 540.52,102.3783 540.52,122.2683 C540.52,142.1483 543.8542,150.1181 523.3042,155.8681" fill="none" id="agent_session-agent_session" style="stroke:#181818;stroke-width:1;"/><line style="stroke:#181818;stroke-width:1;" x1="508.7442" x2="510.8999" y1="88.7382" y2="81.0341"/><line style="stroke:#181818;stroke-width:1;" x1="511.6333" x2="513.7889" y1="89.5465" y2="81.8424"/><line style="stroke:#181818;stroke-width:1;" x1="513.6741" x2="505.97" y1="85.9639" y2="83.8083"/><line style="stroke:#181818;stroke-width:1;" x1="513.6741" x2="507.5867" y1="158.5626" y2="166.4964"/><line style="stroke:#181818;stroke-width:1;" x1="513.6741" x2="504.3533" y1="158.5626" y2="154.9402"/><line style="stroke:#181818;stroke-width:1;" x1="513.6741" x2="505.97" y1="158.5626" y2="160.7183"/><ellipse cx="519.4522" cy="156.9459" fill="none" rx="4" ry="4" style="stroke:#181818;stroke-width:1;"/></g><!--link agent_session to session_entry--><g class="link" data-entity-1="ent0001" data-entity-2="ent0002" data-link-type="crowfoot" data-source-line="168" id="lnk7"><path codeLine="168" d="M407.8503,207.9644 C415.4403,227.0944 414.0164,223.5292 421.7564,243.0192" fill="none" id="agent_session-session_entry" style="stroke:#181818;stroke-width:1;"/><line style="stroke:#181818;stroke-width:1;" x1="402.6571" x2="410.0932" y1="205.7215" y2="202.7712"/><line style="stroke:#181818;stroke-width:1;" x1="403.7635" x2="411.1996" y1="208.51" y2="205.5597"/><line style="stroke:#181818;stroke-width:1;" x1="407.8503" x2="404.9" y1="207.9644" y2="200.5283"/><line style="stroke:#181818;stroke-width:1;" x1="425.4473" x2="433.9764" y1="252.3131" y2="257.5338"/><line style="stroke:#181818;stroke-width:1;" x1="425.4473" x2="422.8236" y1="252.3131" y2="261.9628"/><line style="stroke:#181818;stroke-width:1;" x1="425.4473" x2="428.4" y1="252.3131" y2="259.7483"/><ellipse cx="423.2328" cy="246.7368" fill="none" rx="4" ry="4" style="stroke:#181818;stroke-width:1;"/></g><!--link session_entry to session_entry--><g class="link" data-entity-1="ent0002" data-entity-2="ent0002" data-link-type="crowfoot" data-source-line="169" id="lnk8"><path codeLine="169" d="M593.8245,309.2296 C614.2745,314.7396 620.64,325.6283 620.64,346.0583 C620.64,366.4983 623.9323,374.7933 603.4823,380.2933" fill="none" id="session_entry-session_entry" style="stroke:#181818;stroke-width:1;"/><line style="stroke:#181818;stroke-width:1;" x1="588.9216" x2="591.0029" y1="312.0512" y2="304.3267"/><line style="stroke:#181818;stroke-width:1;" x1="591.8183" x2="593.8996" y1="312.8317" y2="305.1071"/><line style="stroke:#181818;stroke-width:1;" x1="593.8245" x2="586.1" y1="309.2296" y2="307.1483"/><line style="stroke:#181818;stroke-width:1;" x1="593.8255" x2="587.6583" y1="382.8905" y2="390.7624"/><line style="stroke:#181818;stroke-width:1;" x1="593.8255" x2="584.5417" y1="382.8905" y2="379.1742"/><line style="stroke:#181818;stroke-width:1;" x1="593.8255" x2="586.1" y1="382.8905" y2="384.9683"/><ellipse cx="599.6196" cy="381.3322" fill="none" rx="4" ry="4" style="stroke:#181818;stroke-width:1;"/></g><!--link agent_session to memory_write_operation--><g class="link" data-entity-1="ent0001" data-entity-2="ent0003" data-link-type="crowfoot" data-source-line="170" id="lnk9"><path codeLine="170" d="M279.7438,205.7899 C257.8338,224.9199 253.8284,228.419 231.5084,247.909" fill="none" id="agent_session-memory_write_operation" style="stroke:#181818;stroke-width:1;"/><line style="stroke:#181818;stroke-width:1;" x1="280.1261" x2="285.3877" y1="200.146" y2="206.1722"/><line style="stroke:#181818;stroke-width:1;" x1="277.8662" x2="283.1279" y1="202.1191" y2="208.1453"/><line style="stroke:#181818;stroke-width:1;" x1="279.7438" x2="285.77" y1="205.7899" y2="200.5283"/><line style="stroke:#181818;stroke-width:1;" x1="223.976" x2="221.8964" y1="254.4864" y2="264.2678"/><line style="stroke:#181818;stroke-width:1;" x1="223.976" x2="214.0036" y1="254.4864" y2="255.2288"/><line style="stroke:#181818;stroke-width:1;" x1="223.976" x2="217.95" y1="254.4864" y2="259.7483"/><ellipse cx="228.4954" cy="250.5399" fill="none" rx="4" ry="4" style="stroke:#181818;stroke-width:1;"/></g><!--link agent_session to session_leaf_event--><g class="link" data-entity-1="ent0001" data-entity-2="ent0004" data-link-type="crowfoot" data-source-line="171" id="lnk10"><path codeLine="171" d="M340.4986,207.8014 C333.0086,227.2014 328.08,240.5783 321.25,260.0383 C293.91,337.9183 271.121,410.4891 251.731,474.5991" fill="none" id="agent_session-session_leaf_event" style="stroke:#181818;stroke-width:1;"/><line style="stroke:#181818;stroke-width:1;" x1="338.2078" x2="345.6709" y1="202.6291" y2="205.5105"/><line style="stroke:#181818;stroke-width:1;" x1="337.1273" x2="344.5903" y1="205.4278" y2="208.3092"/><line style="stroke:#181818;stroke-width:1;" x1="340.4986" x2="343.38" y1="207.8014" y2="200.3383"/><line style="stroke:#181818;stroke-width:1;" x1="248.836" x2="252.2631" y1="484.1709" y2="493.5653"/><line style="stroke:#181818;stroke-width:1;" x1="248.836" x2="240.7769" y1="484.1709" y2="490.0913"/><line style="stroke:#181818;stroke-width:1;" x1="248.836" x2="246.52" y1="484.1709" y2="491.8283"/><ellipse cx="250.573" cy="478.4278" fill="none" rx="4" ry="4" style="stroke:#181818;stroke-width:1;"/></g><!--link memory_write_operation to session_leaf_event--><g class="link" data-entity-1="ent0003" data-entity-2="ent0004" data-link-type="association" data-source-line="172" id="lnk11"><path codeLine="172" d="M160.9245,439.7141 C169.4545,459.1541 169.2803,458.7436 177.8103,478.1736" fill="none" id="memory_write_operation-session_leaf_event" style="stroke:#181818;stroke-width:1;"/><line style="stroke:#181818;stroke-width:1;" x1="155.6543" x2="162.9801" y1="437.6584" y2="434.444"/><line style="stroke:#181818;stroke-width:1;" x1="156.8598" x2="164.1855" y1="440.4056" y2="437.1911"/><line style="stroke:#181818;stroke-width:1;" x1="160.9245" x2="157.71" y1="439.7141" y2="432.3883"/><line style="stroke:#181818;stroke-width:1;" x1="179.4182" x2="183.84" y1="481.8362" y2="491.9083"/><ellipse cx="179.4182" cy="481.8362" fill="none" rx="4" ry="4" style="stroke:#181818;stroke-width:1;"/><line style="stroke:#181818;stroke-width:1;" x1="185.8947" x2="178.5695" y1="486.6378" y2="489.8536"/></g><!--link session_entry to session_file_operation--><g class="link" data-entity-1="ent0002" data-entity-2="ent0005" data-link-type="crowfoot" data-source-line="173" id="lnk12"><path codeLine="173" d="M488.1337,440.0957 C495.1037,465.1557 495.6612,467.1881 502.3112,491.0681" fill="none" id="session_entry-session_file_operation" style="stroke:#181818;stroke-width:1;"/><line style="stroke:#181818;stroke-width:1;" x1="483.2081" x2="490.9156" y1="437.3138" y2="435.1702"/><line style="stroke:#181818;stroke-width:1;" x1="484.012" x2="491.7194" y1="440.2041" y2="438.0604"/><line style="stroke:#181818;stroke-width:1;" x1="488.1337" x2="485.99" y1="440.0957" y2="432.3883"/><line style="stroke:#181818;stroke-width:1;" x1="504.9939" x2="512.9201" y1="500.7015" y2="506.7987"/><line style="stroke:#181818;stroke-width:1;" x1="504.9939" x2="501.3599" y1="500.7015" y2="510.0179"/><line style="stroke:#181818;stroke-width:1;" x1="504.9939" x2="507.14" y1="500.7015" y2="508.4083"/><ellipse cx="503.3842" cy="494.9215" fill="none" rx="4" ry="4" style="stroke:#181818;stroke-width:1;"/></g><!--link session_entry to session_leaf_event--><g class="link" data-entity-1="ent0002" data-entity-2="ent0004" data-link-type="crowfoot" data-source-line="174" id="lnk13"><path codeLine="174" d="M362.0011,442.7469 C341.6411,462.1869 343.8688,460.048 323.5188,479.478" fill="none" id="session_entry-session_leaf_event" style="stroke:#181818;stroke-width:1;"/><line style="stroke:#181818;stroke-width:1;" x1="364.8942" x2="372.85" y1="439.9846" y2="432.3883"/><ellipse cx="364.8942" cy="439.9846" fill="none" rx="4" ry="4" style="stroke:#181818;stroke-width:1;"/><line style="stroke:#181818;stroke-width:1;" x1="367.1947" x2="372.7193" y1="432.2576" y2="438.0436"/><line style="stroke:#181818;stroke-width:1;" x1="316.2861" x2="314.6434" y1="486.3837" y2="496.2479"/><line style="stroke:#181818;stroke-width:1;" x1="316.2861" x2="306.3566" y1="486.3837" y2="487.5687"/><line style="stroke:#181818;stroke-width:1;" x1="316.2861" x2="310.5" y1="486.3837" y2="491.9083"/><ellipse cx="320.6257" cy="482.2403" fill="none" rx="4" ry="4" style="stroke:#181818;stroke-width:1;"/></g><?plantuml-src jLRVRzis47xNNt7e7hO1iTFwPv8L1RQc1jfrM8TWs4Cn61HrijX8f4gUdBdD_lSTAIcsRDd97ke7sxexVdVtyIDFf2X7k47dbD7mPesQu4CkDCAr806_cGJpY4m9P20sHAQ0H5cKnE5Hv6wLBeKL1SH2tgwigNJoskJ6mdUByDc9S9b8p9tIAqX5xd378tFXtCz4LiKLuLjfz8twWl1yF-GNOnEq3VvqF9lEhmz23igOBouNhwFeUxWnbPK8k5O9QebNK7AiMA4xboRXiWRyNzEviv8D5izTpScW49ezTaZkgkNfZIQxEMFCfIXBr4dz376bSiwh2VyXRrBes6Y5bjaPM7H8xr6aPo1qqfZ_KfJTL4KXxEOdXfEcA1J1wCKCP_CHpkLbAcVJsSLeEXsFBoVnV8AJYx5yBYznCa_dGrxoU-pGhf41CHDhPIptfS0HT-10GDC4eAyGo2A6x1P3hOupXceXjRonb24ZEinvUnanvsAP9CfydcjqQgLveN16N_brZgnG6WYrOCrur3QPkTDeNQPAyFuC8M4fnS8Xt6MArNQBM3BXZAgAec8Nsx3cYp7yRXBM5RNUK8eZR_U9F4_-TsNMQ3czH5_YEx4MB4ushUeDjfWBhrEHGyfy-FflSSDx4k0iAy6Noy-fhwgqvbEjQnUso9UNO54Qxb1km9He0rfRXqKWmQbeO7I-yScKY5MkQDEG8Ilh7sGcDAji64L1eV0iw6pPaFKC1E_JhWLUlWnDlte5NoDe-5sg1AvWBIoZsHzcan_XuuTV_sPtiwZhVp6wU0WO3FYBETt9q1Uy2C5SSWZq12s3PWvZEQobZZsnMYbDRDCie-OuS9xFMzU_3ustwGDmQBnZUNhZPx1ulFasw4WRVVmS3QsHUhg3Zt_-iKr2cnAxrGRiJMw4n_p4HoVUuQF0ml2gEvO9BX_q5OZfT_r_XXwMFaB0eyhO0kqrEHxv9lsPgDpksbajbCyLEbfcmcNit665hwSgf-LnSjgAQYdwkTHHpDRyhMJZiP_8si5vQ6NXBx6JXwcbbyoJmavkfmyvvC_VRNlYwdTz8nvT6BlB4wVmKAjx4cCjjRI7alrCOdSONC7ENNUlqFlxmS1yxTwh_I6T6oZgtaUz8Rqe_SVrTCQjWgCZfpqikEzRSBBExhRknvfZHKIQ9rtxZcVIFVBw9uDol4cvuldExmlDi0zTyAk6q4w4SJgCtXBm3G3Q-86FYVBpKoehgrpOtT5SGp1eOaLAmuXlM_1LHVy1?></g></svg>