<svg xmlns="http://www.w3.org/2000/svg" xmlns:xlink="http://www.w3.org/1999/xlink" contentStyleType="text/css" data-diagram-type="SEQUENCE" height="655px" preserveAspectRatio="none" style="width:919px;height:655px;background:#FFFFFF;" version="1.1" viewBox="0 0 919 655" width="919px" zoomAndPan="magnify"><?plantuml 1.2026.6?><defs/><g><g class="title" data-source-line="88"><text fill="#000000" font-family="sans-serif" font-size="14" font-weight="700" lengthAdjust="spacing" textLength="186.7373" x="362.6357" y="28.5352">Database Context Rebuild</text></g><rect fill="none" height="159.1973" style="stroke:#000000;stroke-width:1.5;" width="355.5898" x="547.4189" y="337.8398"/><g class="participant-lifeline" data-entity-uid="part1" data-qualified-name="runtime" data-source-line="96" id="part1-lifeline"><g><title>Agent Runtime</title><rect fill="#000000" fill-opacity="0.00000" height="453.6816" width="8" x="54.4629" y="118.9766"/><line style="stroke:#181818;stroke-width:0.5;stroke-dasharray:5,5;" x1="58" x2="58" y1="118.9766" y2="572.6582"/></g></g><g class="participant-lifeline" data-entity-uid="part2" data-qualified-name="memory" data-source-line="97" id="part2-lifeline"><g><title>Memory Service</title><rect fill="#000000" fill-opacity="0.00000" height="453.6816" width="8" x="259.4536" y="118.9766"/><line style="stroke:#181818;stroke-width:0.5;stroke-dasharray:5,5;" x1="263.2871" x2="263.2871" y1="118.9766" y2="572.6582"/></g></g><g class="participant-lifeline" data-entity-uid="part3" data-qualified-name="db" data-source-line="98" id="part3-lifeline"><g><title>GaussDB</title><rect fill="#000000" fill-opacity="0.00000" height="453.6816" width="8" x="510.7441" y="118.9766"/><line style="stroke:#181818;stroke-width:0.5;stroke-dasharray:5,5;" x1="514.0693" x2="514.0693" y1="118.9766" y2="572.6582"/></g></g><g class="participant-lifeline" data-entity-uid="part4" data-qualified-name="rebuild" data-source-line="99" id="part4-lifeline"><g><title>Context Rebuilder</title><rect fill="#000000" fill-opacity="0.00000" height="453.6816" width="8" x="621.8433" y="118.9766"/><line style="stroke:#181818;stroke-width:0.5;stroke-dasharray:5,5;" x1="625.4189" x2="625.4189" y1="118.9766" y2="572.6582"/></g></g><g class="participant participant-head" data-entity-uid="part1" data-qualified-name="runtime" data-source-line="96" id="part1-head"><text fill="#000000" font-family="sans-serif" font-size="14" lengthAdjust="spacing" textLength="100.9258" x="5" y="116.0234">Agent Runtime</text><ellipse cx="58.4629" cy="50.9883" fill="#E2E2F0" rx="8" ry="8" style="stroke:#181818;stroke-width:0.5;"/><path d="M58.4629,58.9883 L58.4629,85.9883 M45.4629,66.9883 L71.4629,66.9883 M58.4629,85.9883 L45.4629,100.9883 M58.4629,85.9883 L71.4629,100.9883" fill="none" style="stroke:#181818;stroke-width:0.5;"/></g><g class="participant participant-tail" data-entity-uid="part1" data-qualified-name="runtime" data-source-line="96" id="part1-tail"><text fill="#000000" font-family="sans-serif" font-size="14" lengthAdjust="spacing" textLength="100.9258" x="5" y="585.1934">Agent Runtime</text><ellipse cx="58.4629" cy="596.6465" fill="#E2E2F0" rx="8" ry="8" style="stroke:#181818;stroke-width:0.5;"/><path d="M58.4629,604.6465 L58.4629,631.6465 M45.4629,612.6465 L71.4629,612.6465 M58.4629,631.6465 L45.4629,646.6465 M58.4629,631.6465 L71.4629,646.6465" fill="none" style="stroke:#181818;stroke-width:0.5;"/></g><g class="participant participant-head" data-entity-uid="part2" data-qualified-name="memory" data-source-line="97" id="part2-head"><rect fill="#E2E2F0" height="30.4883" rx="2.5" ry="2.5" style="stroke:#181818;stroke-width:0.5;" width="120.333" x="203.2871" y="87.4883"/><text fill="#000000" font-family="sans-serif" font-size="14" lengthAdjust="spacing" textLength="106.333" x="210.2871" y="108.0234">Memory Service</text></g><g class="participant participant-tail" data-entity-uid="part2" data-qualified-name="memory" data-source-line="97" id="part2-tail"><rect fill="#E2E2F0" height="30.4883" rx="2.5" ry="2.5" style="stroke:#181818;stroke-width:0.5;" width="120.333" x="203.2871" y="571.6582"/><text fill="#000000" font-family="sans-serif" font-size="14" lengthAdjust="spacing" textLength="106.333" x="210.2871" y="592.1934">Memory Service</text></g><g class="participant participant-head" data-entity-uid="part3" data-qualified-name="db" data-source-line="98" id="part3-head"><text fill="#000000" font-family="sans-serif" font-size="14" lengthAdjust="spacing" textLength="59.3496" x="482.0693" y="116.0234">GaussDB</text><path d="M496.7441,66.4883 C496.7441,56.4883 514.7441,56.4883 514.7441,56.4883 C514.7441,56.4883 532.7441,56.4883 532.7441,66.4883 L532.7441,92.4883 C532.7441,102.4883 514.7441,102.4883 514.7441,102.4883 C514.7441,102.4883 496.7441,102.4883 496.7441,92.4883 L496.7441,66.4883" fill="#E2E2F0" style="stroke:#181818;stroke-width:0.5;"/><path d="M496.7441,66.4883 C496.7441,76.4883 514.7441,76.4883 514.7441,76.4883 C514.7441,76.4883 532.7441,76.4883 532.7441,66.4883" fill="none" style="stroke:#181818;stroke-width:0.5;"/></g><g class="participant participant-tail" data-entity-uid="part3" data-qualified-name="db" data-source-line="98" id="part3-tail"><text fill="#000000" font-family="sans-serif" font-size="14" lengthAdjust="spacing" textLength="59.3496" x="482.0693" y="585.1934">GaussDB</text><path d="M496.7441,598.1465 C496.7441,588.1465 514.7441,588.1465 514.7441,588.1465 C514.7441,588.1465 532.7441,588.1465 532.7441,598.1465 L532.7441,624.1465 C532.7441,634.1465 514.7441,634.1465 514.7441,634.1465 C514.7441,634.1465 496.7441,634.1465 496.7441,624.1465 L496.7441,598.1465" fill="#E2E2F0" style="stroke:#181818;stroke-width:0.5;"/><path d="M496.7441,598.1465 C496.7441,608.1465 514.7441,608.1465 514.7441,608.1465 C514.7441,608.1465 532.7441,608.1465 532.7441,598.1465" fill="none" style="stroke:#181818;stroke-width:0.5;"/></g><g class="participant participant-head" data-entity-uid="part4" data-qualified-name="rebuild" data-source-line="99" id="part4-head"><rect fill="#E2E2F0" height="30.4883" rx="2.5" ry="2.5" style="stroke:#181818;stroke-width:0.5;" width="136.8486" x="557.4189" y="87.4883"/><text fill="#000000" font-family="sans-serif" font-size="14" lengthAdjust="spacing" textLength="122.8486" x="564.4189" y="108.0234">Context Rebuilder</text></g><g class="participant participant-tail" data-entity-uid="part4" data-qualified-name="rebuild" data-source-line="99" id="part4-tail"><rect fill="#E2E2F0" height="30.4883" rx="2.5" ry="2.5" style="stroke:#181818;stroke-width:0.5;" width="136.8486" x="557.4189" y="571.6582"/><text fill="#000000" font-family="sans-serif" font-size="14" lengthAdjust="spacing" textLength="122.8486" x="564.4189" y="592.1934">Context Rebuilder</text></g><g class="message" data-entity-1="part1" data-entity-2="part2" data-source-line="101" id="msg1"><polygon fill="#181818" points="251.4536,146.2871,261.4536,150.2871,251.4536,154.2871,255.4536,150.2871" style="stroke:#181818;stroke-width:1;stroke-linejoin:miter;stroke-miterlimit:10;"/><line style="stroke:#181818;stroke-width:1;" x1="58.4629" x2="257.4536" y1="150.2871" y2="150.2871"/><text fill="#000000" font-family="sans-serif" font-size="13" lengthAdjust="spacing" textLength="180.9907" x="65.4629" y="145.5449">loadContext(tenant, session)</text></g><g class="message" data-entity-1="part2" data-entity-2="part3" data-source-line="102" id="msg2"><polygon fill="#181818" points="502.7441,175.5977,512.7441,179.5977,502.7441,183.5977,506.7441,179.5977" style="stroke:#181818;stroke-width:1;stroke-linejoin:miter;stroke-miterlimit:10;"/><line style="stroke:#181818;stroke-width:1;" x1="263.4536" x2="508.7441" y1="179.5977" y2="179.5977"/><text fill="#000000" font-family="sans-serif" font-size="13" lengthAdjust="spacing" textLength="227.2905" x="270.4536" y="174.8555">recursive path query by durable leaf</text></g><g class="message" data-entity-1="part3" data-entity-2="part2" data-source-line="103" id="msg3"><polygon fill="#181818" points="274.4536,204.9082,264.4536,208.9082,274.4536,212.9082,270.4536,208.9082" style="stroke:#181818;stroke-width:1;stroke-linejoin:miter;stroke-miterlimit:10;"/><line style="stroke:#181818;stroke-width:1;stroke-dasharray:2,2;" x1="268.4536" x2="513.7441" y1="208.9082" y2="208.9082"/><text fill="#000000" font-family="sans-serif" font-size="13" lengthAdjust="spacing" textLength="117.4189" x="280.4536" y="204.166">root to leaf entries</text></g><g class="message" data-entity-1="part2" data-entity-2="part4" data-source-line="104" id="msg4"><polygon fill="#181818" points="613.8433,234.2188,623.8433,238.2188,613.8433,242.2188,617.8433,238.2188" style="stroke:#181818;stroke-width:1;stroke-linejoin:miter;stroke-miterlimit:10;"/><line style="stroke:#181818;stroke-width:1;" x1="263.4536" x2="619.8433" y1="238.2188" y2="238.2188"/><text fill="#000000" font-family="sans-serif" font-size="13" lengthAdjust="spacing" textLength="184.647" x="270.4536" y="233.4766">entries and session metadata</text></g><g class="message" data-entity-1="part4" data-entity-2="part4" data-source-line="105" id="msg5"><line style="stroke:#181818;stroke-width:1;" x1="625.8433" x2="667.8433" y1="267.5293" y2="267.5293"/><line style="stroke:#181818;stroke-width:1;" x1="667.8433" x2="667.8433" y1="267.5293" y2="280.5293"/><line style="stroke:#181818;stroke-width:1;" x1="626.8433" x2="667.8433" y1="280.5293" y2="280.5293"/><polygon fill="#181818" points="636.8433,276.5293,626.8433,280.5293,636.8433,284.5293,632.8433,280.5293" style="stroke:#181818;stroke-width:1;stroke-linejoin:miter;stroke-miterlimit:10;"/><text fill="#000000" font-family="sans-serif" font-size="13" lengthAdjust="spacing" textLength="198.6753" x="632.8433" y="262.7871">derive model and thinking level</text></g><g class="message" data-entity-1="part4" data-entity-2="part4" data-source-line="106" id="msg6"><line style="stroke:#181818;stroke-width:1;" x1="625.8433" x2="667.8433" y1="309.8398" y2="309.8398"/><line style="stroke:#181818;stroke-width:1;" x1="667.8433" x2="667.8433" y1="309.8398" y2="322.8398"/><line style="stroke:#181818;stroke-width:1;" x1="626.8433" x2="667.8433" y1="322.8398" y2="322.8398"/><polygon fill="#181818" points="636.8433,318.8398,626.8433,322.8398,636.8433,326.8398,632.8433,322.8398" style="stroke:#181818;stroke-width:1;stroke-linejoin:miter;stroke-miterlimit:10;"/><text fill="#000000" font-family="sans-serif" font-size="13" lengthAdjust="spacing" textLength="153.918" x="632.8433" y="305.0977">locate latest compaction</text></g><path d="M547.4189,337.8398 L609.5576,337.8398 L609.5576,345.1504 L599.5576,355.1504 L547.4189,355.1504 L547.4189,337.8398" fill="#EEEEEE" style="stroke:#000000;stroke-width:1.5;"/><rect fill="none" height="159.1973" style="stroke:#000000;stroke-width:1.5;" width="355.5898" x="547.4189" y="337.8398"/><text fill="#000000" font-family="sans-serif" font-size="13" font-weight="700" lengthAdjust="spacing" textLength="17.1387" x="562.4189" y="351.4082">alt</text><text fill="#000000" font-family="sans-serif" font-size="11" font-weight="700" lengthAdjust="spacing" textLength="110.6392" x="624.5576" y="350.4746">[compaction exists]</text><g class="message" data-entity-1="part4" data-entity-2="part4" data-source-line="108" id="msg7"><line style="stroke:#181818;stroke-width:1;" x1="625.8433" x2="667.8433" y1="376.4609" y2="376.4609"/><line style="stroke:#181818;stroke-width:1;" x1="667.8433" x2="667.8433" y1="376.4609" y2="389.4609"/><line style="stroke:#181818;stroke-width:1;" x1="626.8433" x2="667.8433" y1="389.4609" y2="389.4609"/><polygon fill="#181818" points="636.8433,385.4609,626.8433,389.4609,636.8433,393.4609,632.8433,389.4609" style="stroke:#181818;stroke-width:1;stroke-linejoin:miter;stroke-miterlimit:10;"/><text fill="#000000" font-family="sans-serif" font-size="13" lengthAdjust="spacing" textLength="246.5811" x="632.8433" y="371.7188">inject summary and firstKept boundary</text></g><g class="message" data-entity-1="part4" data-entity-2="part4" data-source-line="109" id="msg8"><line style="stroke:#181818;stroke-width:1;" x1="625.8433" x2="667.8433" y1="418.7715" y2="418.7715"/><line style="stroke:#181818;stroke-width:1;" x1="667.8433" x2="667.8433" y1="418.7715" y2="431.7715"/><line style="stroke:#181818;stroke-width:1;" x1="626.8433" x2="667.8433" y1="431.7715" y2="431.7715"/><polygon fill="#181818" points="636.8433,427.7715,626.8433,431.7715,636.8433,435.7715,632.8433,431.7715" style="stroke:#181818;stroke-width:1;stroke-linejoin:miter;stroke-miterlimit:10;"/><text fill="#000000" font-family="sans-serif" font-size="13" lengthAdjust="spacing" textLength="258.1655" x="632.8433" y="414.0293">keep boundary entries and newer entries</text></g><line style="stroke:#000000;stroke-width:1;stroke-dasharray:2,2;" x1="547.4189" x2="903.0088" y1="440.7715" y2="440.7715"/><text fill="#000000" font-family="sans-serif" font-size="11" font-weight="700" lengthAdjust="spacing" textLength="91.4697" x="552.4189" y="451.4063">[no compaction]</text><g class="message" data-entity-1="part4" data-entity-2="part4" data-source-line="111" id="msg9"><line style="stroke:#181818;stroke-width:1;" x1="625.8433" x2="667.8433" y1="476.0371" y2="476.0371"/><line style="stroke:#181818;stroke-width:1;" x1="667.8433" x2="667.8433" y1="476.0371" y2="489.0371"/><line style="stroke:#181818;stroke-width:1;" x1="626.8433" x2="667.8433" y1="489.0371" y2="489.0371"/><polygon fill="#181818" points="636.8433,485.0371,626.8433,489.0371,636.8433,493.0371,632.8433,489.0371" style="stroke:#181818;stroke-width:1;stroke-linejoin:miter;stroke-miterlimit:10;"/><text fill="#000000" font-family="sans-serif" font-size="13" lengthAdjust="spacing" textLength="103.2129" x="632.8433" y="471.2949">keep active path</text></g><g class="message" data-entity-1="part4" data-entity-2="part2" data-source-line="113" id="msg10"><polygon fill="#181818" points="274.4536,521.3477,264.4536,525.3477,274.4536,529.3477,270.4536,525.3477" style="stroke:#181818;stroke-width:1;stroke-linejoin:miter;stroke-miterlimit:10;"/><line style="stroke:#181818;stroke-width:1;stroke-dasharray:2,2;" x1="268.4536" x2="624.8433" y1="525.3477" y2="525.3477"/><text fill="#000000" font-family="sans-serif" font-size="13" lengthAdjust="spacing" textLength="143.2349" x="280.4536" y="520.6055">AgentMessage context</text></g><g class="message" data-entity-1="part2" data-entity-2="part1" data-source-line="114" id="msg11"><polygon fill="#181818" points="69.4629,550.6582,59.4629,554.6582,69.4629,558.6582,65.4629,554.6582" style="stroke:#181818;stroke-width:1;stroke-linejoin:miter;stroke-miterlimit:10;"/><line style="stroke:#181818;stroke-width:1;stroke-dasharray:2,2;" x1="63.4629" x2="262.4536" y1="554.6582" y2="554.6582"/><text fill="#000000" font-family="sans-serif" font-size="13" lengthAdjust="spacing" textLength="109.3638" x="75.4629" y="549.916">context snapshot</text></g><?plantuml-src VLDTRnCn47o_Nx7A2o0b_Q9jH2eX0KM8ZmfeVi6UlScPtDd1kvVIVy_QvsiJABnPzdXcF3iM9ot1DGhMo0JlWXVw9N1BTUzQMrNFO1dwQ0XevonvGmlOejdWclZO1ElyUgPhBySSZMv4EcPYTi7FElHw4e-45v39biF1DvHcghnvh-Yzzn8TyVG0MCwkm8IkSmBMhEZbfPc_cf-SaJaxFwbFpo_D-SNgz7AEzVo2ZBNsxEJYICc_rannHnPgQd3dGbJR3kwmtR3wZshuemK944EGAMo8jWpI4BGen98KzPMY9g0ElRSOxwU0ti8sXXzaX846nucZKxifZwHxJUpM7Y8X1x-0vVSlm4teMmih4jC00clIchX48dKYpHLymXsEg73daqQtbInNg859qnHdiaR6MxUZk1u6aemdAd0yoAHttwjM9DD7LcGsyhEdU9zfTJT502tXAbsoVSocdCzSWieim4hKuL5LQH8XmkHDcZFSzcgaemaWGnpMbIQgvjnMFSBaXhgWEalDtva1r-Mjoeujctp0dldwRJwqzU7zFof8SP0Q2raqOVQwqC82se1ZavuBUQMPGgdXYwgW56zhnJvcaYCRGj6qnWnI9fKYP_i2gIPfr3cmClezuc9EWMCjKih5WR88fgTN8-pWXZumcUc2fJPVayRvZVuh5TjH-_IbDXWjwjzjhR0zA2_zSYnS0Jp9udpgCd3VTLYQiNAHvJDf_SRU_-jo-ZCFe8DtUxgZ-90IjJfm7_PD_eynGSfiAlBsyVdxuyXDl2b_mmo3VnX7uYmTMOo7m1wt-iMa-Wq0?></g></svg>