<svg xmlns="http://www.w3.org/2000/svg" xmlns:xlink="http://www.w3.org/1999/xlink" contentStyleType="text/css" data-diagram-type="DESCRIPTION" height="245px" preserveAspectRatio="none" style="width:1329px;height:245px;" version="1.1" viewBox="0 0 1329 245" width="1329px" zoomAndPan="magnify"><?plantuml 1.2026.6?><defs/><g><g class="title" data-source-line="12"><text fill="#000000" font-family="'PingFang SC'" font-size="22" font-weight="700" lengthAdjust="spacing" textLength="336.4581" x="495.271" y="38.32">Built-in Command &#30446;&#26631;&#25191;&#34892;&#38142;&#36335;</text></g><!--entity A--><g class="entity" data-qualified-name="A" data-source-line="15" id="ent0001"><rect fill="#FFFFFF" height="39.6" rx="2.5" ry="2.5" style="stroke:#000000;stroke-width:1;" width="201.2567" x="11" y="158.8"/><text fill="#000000" font-family="'PingFang SC'" font-size="14" lengthAdjust="spacing" textLength="181.2567" x="21" y="183.64">BuiltinCommandContributor</text></g><!--entity B--><g class="entity" data-qualified-name="B" data-source-line="16" id="ent0002"><rect fill="#FFFFFF" height="39.6" rx="2.5" ry="2.5" style="stroke:#000000;stroke-width:1;" width="177.5015" x="248" y="158.8"/><text fill="#000000" font-family="'PingFang SC'" font-size="14" lengthAdjust="spacing" textLength="157.5015" x="258" y="183.64">BuiltinCommandInstaller</text></g><!--entity C--><g class="entity" data-qualified-name="C" data-source-line="17" id="ent0003"><rect fill="#FFFFFF" height="59.2" rx="2.5" ry="2.5" style="stroke:#000000;stroke-width:1;" width="174.4257" x="462" y="149.3"/><text fill="#000000" font-family="'PingFang SC'" font-size="14" lengthAdjust="spacing" textLength="154.4257" x="472" y="174.14">SlashCommandRegistry</text><text fill="#000000" font-family="'PingFang SC'" font-size="14" lengthAdjust="spacing" textLength="60.8231" x="472" y="193.74">Snapshot</text></g><!--entity D--><g class="entity" data-qualified-name="D" data-source-line="18" id="ent0004"><rect fill="#FFFFFF" height="39.6" rx="2.5" ry="2.5" style="stroke:#000000;stroke-width:1;" width="191.1221" x="672" y="158.8"/><text fill="#000000" font-family="'PingFang SC'" font-size="14" lengthAdjust="spacing" textLength="171.1221" x="682" y="183.64">SlashCommandDispatcher</text></g><!--entity E--><g class="entity" data-qualified-name="E" data-source-line="19" id="ent0005"><rect fill="#FFFFFF" height="39.6" rx="2.5" ry="2.5" style="stroke:#000000;stroke-width:1;" width="177.1221" x="906" y="126.8"/><text fill="#000000" font-family="'PingFang SC'" font-size="14" lengthAdjust="spacing" textLength="157.1221" x="916" y="151.64">BuiltinCommandHandler</text></g><!--entity F--><g class="entity" data-qualified-name="F" data-source-line="20" id="ent0006"><rect fill="#FFFFFF" height="39.6" rx="2.5" ry="2.5" style="stroke:#000000;stroke-width:1;" width="151.9767" x="1143.5" y="68.8"/><text fill="#000000" font-family="'PingFang SC'" font-size="14" lengthAdjust="spacing" textLength="131.9767" x="1153.5" y="93.64">Application Services</text></g><!--entity G--><g class="entity" data-qualified-name="G" data-source-line="21" id="ent0007"><rect fill="#FFFFFF" height="39.6" rx="2.5" ry="2.5" style="stroke:#000000;stroke-width:1;" width="187.4023" x="1126" y="126.8"/><text fill="#000000" font-family="'PingFang SC'" font-size="14" lengthAdjust="spacing" textLength="167.4023" x="1136" y="151.64">CommandInteraction Port</text></g><!--entity H--><g class="entity" data-qualified-name="H" data-source-line="22" id="ent0008"><rect fill="#FFFFFF" height="39.6" rx="2.5" ry="2.5" style="stroke:#000000;stroke-width:1;" width="190.7218" x="899" y="189.8"/><text fill="#000000" font-family="'PingFang SC'" font-size="14" lengthAdjust="spacing" textLength="170.7218" x="909" y="214.64">CommandExecutionResult</text></g><!--entity I--><g class="entity" data-qualified-name="I" data-source-line="23" id="ent0009"><rect fill="#FFFFFF" height="59.2" rx="2.5" ry="2.5" style="stroke:#000000;stroke-width:1;" width="124.1951" x="1157.5" y="185.3"/><text fill="#000000" font-family="'PingFang SC'" font-size="14" lengthAdjust="spacing" textLength="104.1951" x="1167.5" y="210.14">InteractiveMode</text><text fill="#000000" font-family="'PingFang SC'" font-size="14" lengthAdjust="spacing" textLength="56" x="1167.5" y="229.74">&#36890;&#29992;&#21047;&#26032;</text></g><g class="link" data-entity-1="ent0001" data-entity-2="ent0002" data-link-type="dependency" id="lnk10"><polygon fill="#000000" points="247.786,178.8,238.786,174.8,242.786,178.8,238.786,182.8,247.786,178.8" style="stroke:#000000;stroke-width:1;stroke-linejoin:miter;stroke-miterlimit:10;"/><path d="M212.1576,178.8 C224.031,178.8 231.0887,178.8 242.786,178.8" fill="none" style="stroke:#000000;stroke-width:1;"/></g><g class="link" data-entity-1="ent0002" data-entity-2="ent0003" data-link-type="dependency" id="lnk11"><polygon fill="#000000" points="461.7606,178.8,452.7606,174.8,456.7606,178.8,452.7606,182.8,461.7606,178.8" style="stroke:#000000;stroke-width:1;stroke-linejoin:miter;stroke-miterlimit:10;"/><path d="M426.1461,178.8 C437.9317,178.8 445.0082,178.8 456.7606,178.8" fill="none" style="stroke:#000000;stroke-width:1;"/></g><g class="link" data-entity-1="ent0003" data-entity-2="ent0004" data-link-type="dependency" id="lnk12"><polygon fill="#000000" points="671.7085,178.8,662.7085,174.8,666.7085,178.8,662.7085,182.8,671.7085,178.8" style="stroke:#000000;stroke-width:1;stroke-linejoin:miter;stroke-miterlimit:10;"/><path d="M636.1886,178.8 C647.8627,178.8 654.8942,178.8 666.7085,178.8" fill="none" style="stroke:#000000;stroke-width:1;"/></g><g class="link" data-entity-1="ent0004" data-entity-2="ent0005" data-link-type="dependency" id="lnk13"><polygon fill="#000000" points="905.652,159.2939,896.1785,156.601,900.7018,159.998,897.3049,164.5213,905.652,159.2939" style="stroke:#000000;stroke-width:1;stroke-linejoin:miter;stroke-miterlimit:10;"/><path d="M863.2681,165.3219 C877.3198,163.3234 886.7998,161.9751 900.7018,159.998" fill="none" style="stroke:#000000;stroke-width:1;"/></g><g class="link" data-entity-1="ent0005" data-entity-2="ent0006" data-link-type="dependency" id="lnk14"><polygon fill="#000000" points="1143.3242,108.3525,1133.6071,106.7467,1138.4852,109.611,1135.6208,114.4891,1143.3242,108.3525" style="stroke:#000000;stroke-width:1;stroke-linejoin:miter;stroke-miterlimit:10;"/><path d="M1072.5562,126.7585 C1095.4687,120.7992 1115.694,115.5388 1138.4852,109.611" fill="none" style="stroke:#000000;stroke-width:1;"/></g><g class="link" data-entity-1="ent0005" data-entity-2="ent0007" data-link-type="dependency" id="lnk15"><polygon fill="#000000" points="1125.9931,146.8,1116.9931,142.8,1120.9931,146.8,1116.9931,150.8,1125.9931,146.8" style="stroke:#000000;stroke-width:1;stroke-linejoin:miter;stroke-miterlimit:10;"/><path d="M1083.3154,146.8 C1097.3319,146.8 1106.8719,146.8 1120.9931,146.8" fill="none" style="stroke:#000000;stroke-width:1;"/></g><g class="link" data-entity-1="ent0004" data-entity-2="ent0008" data-link-type="dependency" id="lnk16"><polygon fill="#000000" points="898.8413,196.7581,890.4715,191.5672,893.8881,196.0757,889.3796,199.4923,898.8413,196.7581" style="stroke:#000000;stroke-width:1;stroke-linejoin:miter;stroke-miterlimit:10;"/><path d="M863.2681,191.8569 C875.0379,193.4786 882.12,194.4543 893.8881,196.0757" fill="none" style="stroke:#000000;stroke-width:1;"/></g><g class="link" data-entity-1="ent0008" data-entity-2="ent0009" data-link-type="dependency" id="lnk17"><polygon fill="#000000" points="1157.4168,213.4304,1148.5088,209.2297,1152.4181,213.3183,1148.3294,217.2277,1157.4168,213.4304" style="stroke:#000000;stroke-width:1;stroke-linejoin:miter;stroke-miterlimit:10;"/><path d="M1090.0721,211.9204 C1112.8641,212.4315 1131.6235,212.8521 1152.4181,213.3183" fill="none" style="stroke:#000000;stroke-width:1;"/></g><?plantuml-src ZPAnSXCn48PxFSN6JHek9i70Z0jcxBCTku39n6sQjMvzfubEkf7s0kdeW1aw60fee88AwDBnDZZ9Mw2JB-4ACaEX-JNQJwjVkxiBbG9lQoTf21NAKyp9zwNDbCcJi3VSzqw60qTzhz4NYRHbYIRpU-o7-m-ImNsn-tyvIfk5OsMO74fMPzJT9qsqINdmSB2V73nwF0Xf9-HLRi0HUck6i58cWv8OCsI4u07e1ScQbJNtW0iou0jq1DPGk9Chp-wydobV8Sk27A1qrdkGMWLBVa_iX3ibGQLH6R5JESnB18tdjcRmpJi6XJzLfaA79MIqnbhpp1f-Xk5QxoXyRuOcXsNQwt31GsQVXnYiKNlgH5QXDBcpjSbIgwq3TcY2EHVS25Qi2SQrqfme0-cso73vwVlcywlDcwzNNzvUl_jrTV5324rh1hRWL5umPCgHR4eW6WrsGffUpADCcoKDbfrQrMnT3z33w6vqOJoZrhG5nrrmsNI_nOxRwfwOfS7A5vOZdzx5JswR4Bd9tGRcOTqyF-rYewhIIcBpKrYIErEIVAHcNUhs6-rW1VZ8kgsxmt-0qvi1EYOVcXkvUPTR_1tHfs52Jyprou-Nxx_zVdsn-V0puWiXHf0aJqArnb5JaKQTY4dKgPX6dRLws9xFnJpguWy0?></g></svg>