<svg xmlns="http://www.w3.org/2000/svg" xmlns:xlink="http://www.w3.org/1999/xlink" contentStyleType="text/css" data-diagram-type="DESCRIPTION" height="226px" preserveAspectRatio="none" style="width:1376px;height:226px;" version="1.1" viewBox="0 0 1376 226" width="1376px" zoomAndPan="magnify"><?plantuml 1.2026.6?><defs/><g><g class="title" data-source-line="12"><text fill="#000000" font-family="'sans-serif'" font-size="22" font-weight="700" lengthAdjust="spacing" textLength="504.5605" x="434.7197" y="36.2695">Built-in Command Target Execution Pipeline</text></g><!--entity A--><g class="entity" data-qualified-name="A" data-source-line="15" id="ent0001"><rect fill="#FFFFFF" height="36.4883" rx="2.5" ry="2.5" style="stroke:#000000;stroke-width:1;" width="211.5156" x="11" y="146.9102"/><text fill="#000000" font-family="'sans-serif'" font-size="14" lengthAdjust="spacing" textLength="191.5156" x="21" y="170.4453">BuiltinCommandContributor</text></g><!--entity B--><g class="entity" data-qualified-name="B" data-source-line="16" id="ent0002"><rect fill="#FFFFFF" height="36.4883" rx="2.5" ry="2.5" style="stroke:#000000;stroke-width:1;" width="186.9131" x="259" y="146.9102"/><text fill="#000000" font-family="'sans-serif'" font-size="14" lengthAdjust="spacing" textLength="166.9131" x="269" y="170.4453">BuiltinCommandInstaller</text></g><!--entity C--><g class="entity" data-qualified-name="C" data-source-line="17" id="ent0003"><rect fill="#FFFFFF" height="52.9766" rx="2.5" ry="2.5" style="stroke:#000000;stroke-width:1;" width="179.6465" x="482" y="138.4102"/><text fill="#000000" font-family="'sans-serif'" font-size="14" lengthAdjust="spacing" textLength="159.6465" x="492" y="161.9453">SlashCommandRegistry</text><text fill="#000000" font-family="'sans-serif'" font-size="14" lengthAdjust="spacing" textLength="62.4326" x="492" y="178.4336">Snapshot</text></g><!--entity D--><g class="entity" data-qualified-name="D" data-source-line="18" id="ent0004"><rect fill="#FFFFFF" height="36.4883" rx="2.5" ry="2.5" style="stroke:#000000;stroke-width:1;" width="197.6387" x="698" y="146.9102"/><text fill="#000000" font-family="'sans-serif'" font-size="14" lengthAdjust="spacing" textLength="177.6387" x="708" y="170.4453">SlashCommandDispatcher</text></g><!--entity E--><g class="entity" data-qualified-name="E" data-source-line="19" id="ent0005"><rect fill="#FFFFFF" height="36.4883" rx="2.5" ry="2.5" style="stroke:#000000;stroke-width:1;" width="185.5596" x="938" y="117.9102"/><text fill="#000000" font-family="'sans-serif'" font-size="14" lengthAdjust="spacing" textLength="165.5596" x="948" y="141.4453">BuiltinCommandHandler</text></g><!--entity F--><g class="entity" data-qualified-name="F" data-source-line="20" id="ent0006"><rect fill="#FFFFFF" height="36.4883" rx="2.5" ry="2.5" style="stroke:#000000;stroke-width:1;" width="155.748" x="1185" y="63.9102"/><text fill="#000000" font-family="'sans-serif'" font-size="14" lengthAdjust="spacing" textLength="135.748" x="1195" y="87.4453">Application Services</text></g><!--entity G--><g class="entity" data-qualified-name="G" data-source-line="21" id="ent0007"><rect fill="#FFFFFF" height="36.4883" rx="2.5" ry="2.5" style="stroke:#000000;stroke-width:1;" width="194.3506" x="1166" y="117.9102"/><text fill="#000000" font-family="'sans-serif'" font-size="14" lengthAdjust="spacing" textLength="174.3506" x="1176" y="141.4453">CommandInteraction Port</text></g><!--entity H--><g class="entity" data-qualified-name="H" data-source-line="22" id="ent0008"><rect fill="#FFFFFF" height="36.4883" rx="2.5" ry="2.5" style="stroke:#000000;stroke-width:1;" width="197.8232" x="932" y="175.9102"/><text fill="#000000" font-family="'sans-serif'" font-size="14" lengthAdjust="spacing" textLength="177.8232" x="942" y="199.4453">CommandExecutionResult</text></g><!--entity I--><g class="entity" data-qualified-name="I" data-source-line="23" id="ent0009"><rect fill="#FFFFFF" height="52.9766" rx="2.5" ry="2.5" style="stroke:#000000;stroke-width:1;" width="127.9873" x="1199" y="172.4102"/><text fill="#000000" font-family="'sans-serif'" font-size="14" lengthAdjust="spacing" textLength="107.9873" x="1209" y="195.9453">InteractiveMode</text><text fill="#000000" font-family="'sans-serif'" font-size="14" lengthAdjust="spacing" textLength="106.9346" x="1209" y="212.4336">Generic Refresh</text></g><g class="link" data-entity-1="ent0001" data-entity-2="ent0002" data-link-type="dependency" id="lnk10"><polygon fill="#000000" points="258.7141,164.9102,249.7141,160.9102,253.7141,164.9102,249.7141,168.9102,258.7141,164.9102" style="stroke:#000000;stroke-width:1;stroke-linejoin:miter;stroke-miterlimit:10;"/><path d="M223.1377,164.9102 C235.0005,164.9102 242.0248,164.9102 253.7141,164.9102" fill="none" style="stroke:#000000;stroke-width:1;"/></g><g class="link" data-entity-1="ent0002" data-entity-2="ent0003" data-link-type="dependency" id="lnk11"><polygon fill="#000000" points="481.9884,164.9102,472.9884,160.9102,476.9884,164.9102,472.9884,168.9102,481.9884,164.9102" style="stroke:#000000;stroke-width:1;stroke-linejoin:miter;stroke-miterlimit:10;"/><path d="M446.055,164.9102 C457.9639,164.9102 465.1379,164.9102 476.9884,164.9102" fill="none" style="stroke:#000000;stroke-width:1;"/></g><g class="link" data-entity-1="ent0003" data-entity-2="ent0004" data-link-type="dependency" id="lnk12"><polygon fill="#000000" points="697.8879,164.9102,688.8879,160.9102,692.8879,164.9102,688.8879,168.9102,697.8879,164.9102" style="stroke:#000000;stroke-width:1;stroke-linejoin:miter;stroke-miterlimit:10;"/><path d="M662.0969,164.9102 C673.8646,164.9102 680.9796,164.9102 692.8879,164.9102" fill="none" style="stroke:#000000;stroke-width:1;"/></g><g class="link" data-entity-1="ent0004" data-entity-2="ent0005" data-link-type="dependency" id="lnk13"><polygon fill="#000000" points="937.8388,147.4303,928.4122,144.5775,932.8774,148.0505,929.4045,152.5157,937.8388,147.4303" style="stroke:#000000;stroke-width:1;stroke-linejoin:miter;stroke-miterlimit:10;"/><path d="M896.0526,152.6536 C909.9034,150.9222 919.1427,149.7673 932.8774,148.0505" fill="none" style="stroke:#000000;stroke-width:1;"/></g><g class="link" data-entity-1="ent0005" data-entity-2="ent0006" data-link-type="dependency" id="lnk14"><polygon fill="#000000" points="1185.166,99.9494,1175.49,98.1124,1180.2984,101.0923,1177.3186,105.9007,1185.166,99.9494" style="stroke:#000000;stroke-width:1;stroke-linejoin:miter;stroke-miterlimit:10;"/><path d="M1108.9064,117.8539 C1133.4576,112.0897 1155.7524,106.8552 1180.2984,101.0923" fill="none" style="stroke:#000000;stroke-width:1;"/></g><g class="link" data-entity-1="ent0005" data-entity-2="ent0007" data-link-type="dependency" id="lnk15"><polygon fill="#000000" points="1165.9948,135.9102,1156.9948,131.9102,1160.9948,135.9102,1156.9948,139.9102,1165.9948,135.9102" style="stroke:#000000;stroke-width:1;stroke-linejoin:miter;stroke-miterlimit:10;"/><path d="M1124.2245,135.9102 C1137.9719,135.9102 1147.1716,135.9102 1160.9948,135.9102" fill="none" style="stroke:#000000;stroke-width:1;"/></g><g class="link" data-entity-1="ent0004" data-entity-2="ent0008" data-link-type="dependency" id="lnk16"><polygon fill="#000000" points="931.9264,181.651,923.492,176.5655,926.965,181.0308,922.4997,184.5038,931.9264,181.651" style="stroke:#000000;stroke-width:1;stroke-linejoin:miter;stroke-miterlimit:10;"/><path d="M896.0526,177.1667 C907.9248,178.6508 915.0925,179.5467 926.965,181.0308" fill="none" style="stroke:#000000;stroke-width:1;"/></g><g class="link" data-entity-1="ent0008" data-entity-2="ent0009" data-link-type="dependency" id="lnk17"><polygon fill="#000000" points="1198.7117,197.5343,1189.8007,193.3397,1193.7128,197.4257,1189.6269,201.3378,1198.7117,197.5343" style="stroke:#000000;stroke-width:1;stroke-linejoin:miter;stroke-miterlimit:10;"/><path d="M1130.2078,196.0451 C1153.4062,196.5494 1172.5373,196.9653 1193.7128,197.4257" fill="none" style="stroke:#000000;stroke-width:1;"/></g><?plantuml-src ZP9FRzim3CNl-XHiBhtCpTfb6v33WCJvUzWm93lsmiYCBLIc397krcy_sNLJ7nPW1-CPqe_KqnDleN4WeOsMvj2WVSAIP6f3uRZCqZ_hLA9D2v6cub6gp8QwHYxaJcL-_ocRVJIt_zUZ3aLQTgmKqQfxfl5_rkrsBHy-p-wpXozVPwdjYiIL395G0i_XvBY0cXGBL8Ja0UWFsLPTu0-W5J58XP4WCAMQqed6bsdXf46r5KL06uC8ME-I9RapDwcc9cWyEZOtJSIoHl3u4be5wSvXDFBakC68DHHqnjRh9h3-m5GsEIBBaQ8xJqPKSb24t-dYS4OlDDevfM3A65ekyk1318sfFcqbBqQTUe9bwxncZY5_ZHX-OIn9OVrsI_Zf6lAEoHXFPmKD45rPAHGkakq8qobocRfD-dQEXsPvyXtTgTKG9u02Y-ledaNHUte5bsFms8t0W1s6Y1_voDX85RJdyslywl8IFRUwRc2NlhVZrsDiqJJUMUopID4_EqlIKvinTRd6C5rTS26-kjl-0xpaUo19Bznpkp6tVv_JxsbC7tbBd1xUme7EaQJgA_R6B23BlgN0bhtc9kzrPLQzhiswrysWss5zPtQzxly2?></g></svg>