<svg xmlns="http://www.w3.org/2000/svg" xmlns:xlink="http://www.w3.org/1999/xlink" contentStyleType="text/css" data-diagram-type="DESCRIPTION" height="263px" preserveAspectRatio="none" style="width:816px;height:263px;" version="1.1" viewBox="0 0 816 263" width="816px" zoomAndPan="magnify"><?plantuml 1.2026.6?><defs/><g><g class="title" data-source-line="43"><text fill="#000000" font-family="'sans-serif'" font-size="22" font-weight="700" lengthAdjust="spacing" textLength="340.9033" x="236.5483" y="36.2695">pi Command Completion Flow</text></g><!--entity B--><g class="entity" data-qualified-name="B" data-source-line="46" id="ent0001"><rect fill="#FFFFFF" height="36.4883" rx="2.5" ry="2.5" style="stroke:#000000;stroke-width:1;" width="211.6797" x="12" y="63.9102"/><text fill="#000000" font-family="'sans-serif'" font-size="14" lengthAdjust="spacing" textLength="191.6797" x="22" y="87.4453">BUILTIN_SLASH_COMMANDS</text></g><!--entity E--><g class="entity" data-qualified-name="E" data-source-line="47" id="ent0002"><rect fill="#FFFFFF" height="36.4883" rx="2.5" ry="2.5" style="stroke:#000000;stroke-width:1;" width="213.5254" x="11" y="117.9102"/><text fill="#000000" font-family="'sans-serif'" font-size="14" lengthAdjust="spacing" textLength="193.5254" x="21" y="141.4453">ExtensionRunner commands</text></g><!--entity P--><g class="entity" data-qualified-name="P" data-source-line="48" id="ent0003"><rect fill="#FFFFFF" height="36.4883" rx="2.5" ry="2.5" style="stroke:#000000;stroke-width:1;" width="144.0996" x="46" y="171.9102"/><text fill="#000000" font-family="'sans-serif'" font-size="14" lengthAdjust="spacing" textLength="124.0996" x="56" y="195.4453">Prompt Templates</text></g><!--entity S--><g class="entity" data-qualified-name="S" data-source-line="49" id="ent0004"><rect fill="#FFFFFF" height="36.4883" rx="2.5" ry="2.5" style="stroke:#000000;stroke-width:1;" width="55" x="90.5" y="225.9102"/><text fill="#000000" font-family="'sans-serif'" font-size="14" lengthAdjust="spacing" textLength="35" x="100.5" y="249.4453">Skills</text></g><!--entity C--><g class="entity" data-qualified-name="C" data-source-line="50" id="ent0005"><rect fill="#FFFFFF" height="52.9766" rx="2.5" ry="2.5" style="stroke:#000000;stroke-width:1;" width="140.292" x="261" y="136.4102"/><text fill="#000000" font-family="'sans-serif'" font-size="14" lengthAdjust="spacing" textLength="104.8018" x="271" y="159.9453">SlashCommand</text><text fill="#000000" font-family="'sans-serif'" font-size="14" lengthAdjust="spacing" textLength="120.292" x="271" y="176.4336">Completion Items</text></g><!--entity A--><g class="entity" data-qualified-name="A" data-source-line="51" id="ent0006"><rect fill="#FFFFFF" height="36.4883" rx="2.5" ry="2.5" style="stroke:#000000;stroke-width:1;" width="239.9326" x="437" y="144.9102"/><text fill="#000000" font-family="'sans-serif'" font-size="14" lengthAdjust="spacing" textLength="219.9326" x="447" y="168.4453">CombinedAutocompleteProvider</text></g><!--entity T--><g class="entity" data-qualified-name="T" data-source-line="52" id="ent0007"><rect fill="#FFFFFF" height="36.4883" rx="2.5" ry="2.5" style="stroke:#000000;stroke-width:1;" width="87.0264" x="713" y="144.9102"/><text fill="#000000" font-family="'sans-serif'" font-size="14" lengthAdjust="spacing" textLength="67.0264" x="723" y="168.4453">TUI Editor</text></g><g class="link" data-entity-1="ent0001" data-entity-2="ent0005" data-link-type="dependency" id="lnk8"><polygon fill="#000000" points="283.9913,136.3947,277.9351,128.628,279.5804,134.0403,274.168,135.6855,283.9913,136.3947" style="stroke:#000000;stroke-width:1;stroke-linejoin:miter;stroke-miterlimit:10;"/><path d="M198.0524,99.9376 C207.2334,102.6504 216.3873,105.6465 225,108.9102 C244.9353,116.4642 261.5913,124.4383 279.5804,134.0403" fill="none" style="stroke:#000000;stroke-width:1;"/></g><g class="link" data-entity-1="ent0002" data-entity-2="ent0005" data-link-type="dependency" id="lnk9"><polygon fill="#000000" points="260.776,154.0521,252.3565,148.9421,255.8165,153.4175,251.3411,156.8774,260.776,154.0521" style="stroke:#000000;stroke-width:1;stroke-linejoin:miter;stroke-miterlimit:10;"/><path d="M225.1182,149.4893 C237.2277,151.0388 244.3668,151.9524 255.8165,153.4175" fill="none" style="stroke:#000000;stroke-width:1;"/></g><g class="link" data-entity-1="ent0003" data-entity-2="ent0005" data-link-type="dependency" id="lnk10"><polygon fill="#000000" points="260.9558,171.7452,251.5209,168.9199,255.9962,172.3798,252.5363,176.8552,260.9558,171.7452" style="stroke:#000000;stroke-width:1;stroke-linejoin:miter;stroke-miterlimit:10;"/><path d="M190.1408,180.8068 C212.992,177.8827 233.2979,175.2844 255.9962,172.3798" fill="none" style="stroke:#000000;stroke-width:1;"/></g><g class="link" data-entity-1="ent0004" data-entity-2="ent0005" data-link-type="dependency" id="lnk11"><polygon fill="#000000" points="283.9913,189.4256,274.168,190.1348,279.5804,191.78,277.9351,197.1923,283.9913,189.4256" style="stroke:#000000;stroke-width:1;stroke-linejoin:miter;stroke-miterlimit:10;"/><path d="M145.6462,238.866 C167.3962,234.3373 198.7179,226.8693 225,216.9102 C244.9353,209.3561 261.5913,201.382 279.5804,191.78" fill="none" style="stroke:#000000;stroke-width:1;"/></g><g class="link" data-entity-1="ent0005" data-entity-2="ent0006" data-link-type="dependency" id="lnk12"><polygon fill="#000000" points="436.8816,162.9102,427.8816,158.9102,431.8816,162.9102,427.8816,166.9102,436.8816,162.9102" style="stroke:#000000;stroke-width:1;stroke-linejoin:miter;stroke-miterlimit:10;"/><path d="M401.0352,162.9102 C412.4759,162.9102 419.6217,162.9102 431.8816,162.9102" fill="none" style="stroke:#000000;stroke-width:1;"/></g><g class="link" data-entity-1="ent0006" data-entity-2="ent0007" data-link-type="dependency" id="lnk13"><polygon fill="#000000" points="712.9778,162.9102,703.9778,158.9102,707.9778,162.9102,703.9778,166.9102,712.9778,162.9102" style="stroke:#000000;stroke-width:1;stroke-linejoin:miter;stroke-miterlimit:10;"/><path d="M677.1591,162.9102 C689.8677,162.9102 697.1047,162.9102 707.9778,162.9102" fill="none" style="stroke:#000000;stroke-width:1;"/></g><?plantuml-src LP0nRzj038Nt-nMCbqoAXxH3CXIG5GSraBX6fMm50lf4ImUVUC8TPJV_lfJaGPtUWUyZ7tdtq3j8OOYMdg57UyQ6qjg6sd6JwPjbdQ9TTw7MicEXY5RSXPRlR7GV93r_UthAlZy-cdjueUGQXaYO0klWI8dYXSQmsYKRBXI_m74_I89hwxmwmz6xr6ei12QmAEX30nT7rmTp9orrodXqRExwY4s7uF4h30Af8q56ayuw3oDsKDC91o-lWMMFshOgaLD9qPrM2ogrM8Vhc7T2dsZX7FKRcXW6helWGmI9sg-MVeOH9tuwemXTXroFsdiI5nXUVRWQu-aa806YQrhHQoFPqJMZ8ZVQlTfyxDwgtVwpVClBdv_5h_VtVFzIhW0JR9RSzgyG9st-FJ1J13jdfedSBib3r3K4Aj9bK6Wc3akYF3llvthvNzrZQc_7_E75DJkXRkQB9Q_4qJ7L-I31pZHf-iNL52SwNzBLnmwsjPCmUvKn6yYo7pfoUzF3JSkR5fFc9f-q-WS0?></g></svg>