<svg xmlns="http://www.w3.org/2000/svg" xmlns:xlink="http://www.w3.org/1999/xlink" contentStyleType="text/css" data-diagram-type="DESCRIPTION" height="283px" preserveAspectRatio="none" style="width:835px;height:283px;" version="1.1" viewBox="0 0 835 283" width="835px" zoomAndPan="magnify"><?plantuml 1.2026.6?><defs/><g><g class="title" data-source-line="43"><text fill="#000000" font-family="'PingFang SC'" font-size="22" font-weight="700" lengthAdjust="spacing" textLength="159.0818" x="336.9591" y="38.32">pi &#21629;&#20196;&#34917;&#20840;&#38142;&#36335;</text></g><!--entity B--><g class="entity" data-qualified-name="B" data-source-line="46" id="ent0001"><rect fill="#FFFFFF" height="39.6" rx="2.5" ry="2.5" style="stroke:#000000;stroke-width:1;" width="216.1023" x="11" y="68.8"/><text fill="#000000" font-family="'PingFang SC'" font-size="14" lengthAdjust="spacing" textLength="196.1023" x="21" y="93.64">BUILTIN_SLASH_COMMANDS</text></g><!--entity E--><g class="entity" data-qualified-name="E" data-source-line="47" id="ent0002"><rect fill="#FFFFFF" height="39.6" rx="2.5" ry="2.5" style="stroke:#000000;stroke-width:1;" width="204.7876" x="16.5" y="126.8"/><text fill="#000000" font-family="'PingFang SC'" font-size="14" lengthAdjust="spacing" textLength="184.7876" x="26.5" y="151.64">ExtensionRunner commands</text></g><!--entity P--><g class="entity" data-qualified-name="P" data-source-line="48" id="ent0003"><rect fill="#FFFFFF" height="39.6" rx="2.5" ry="2.5" style="stroke:#000000;stroke-width:1;" width="139.7561" x="49" y="184.8"/><text fill="#000000" font-family="'PingFang SC'" font-size="14" lengthAdjust="spacing" textLength="119.7561" x="59" y="209.64">Prompt Templates</text></g><!--entity S--><g class="entity" data-qualified-name="S" data-source-line="49" id="ent0004"><rect fill="#FFFFFF" height="39.6" rx="2.5" ry="2.5" style="stroke:#000000;stroke-width:1;" width="53.5805" x="92" y="242.8"/><text fill="#000000" font-family="'PingFang SC'" font-size="14" lengthAdjust="spacing" textLength="33.5805" x="102" y="267.64">Skills</text></g><!--entity C--><g class="entity" data-qualified-name="C" data-source-line="50" id="ent0005"><rect fill="#FFFFFF" height="39.6" rx="2.5" ry="2.5" style="stroke:#000000;stroke-width:1;" width="167.8275" x="263" y="155.8"/><text fill="#000000" font-family="'PingFang SC'" font-size="14" lengthAdjust="spacing" textLength="147.8275" x="273" y="180.64">SlashCommand &#34917;&#20840;&#39033;</text></g><!--entity A--><g class="entity" data-qualified-name="A" data-source-line="51" id="ent0006"><rect fill="#FFFFFF" height="39.6" rx="2.5" ry="2.5" style="stroke:#000000;stroke-width:1;" width="229.9862" x="467" y="155.8"/><text fill="#000000" font-family="'PingFang SC'" font-size="14" lengthAdjust="spacing" textLength="209.9862" x="477" y="180.64">CombinedAutocompleteProvider</text></g><!--entity T--><g class="entity" data-qualified-name="T" data-source-line="52" id="ent0007"><rect fill="#FFFFFF" height="39.6" rx="2.5" ry="2.5" style="stroke:#000000;stroke-width:1;" width="85.695" x="733" y="155.8"/><text fill="#000000" font-family="'PingFang SC'" font-size="14" lengthAdjust="spacing" textLength="65.695" x="743" y="180.64">TUI Editor</text></g><g class="link" data-entity-1="ent0001" data-entity-2="ent0005" data-link-type="dependency" id="lnk8"><polygon fill="#000000" points="309.2795,155.663,303.1632,147.9434,304.8504,153.3428,299.451,155.03,309.2795,155.663" style="stroke:#000000;stroke-width:1;stroke-linejoin:miter;stroke-miterlimit:10;"/><path d="M200.5704,108.87 C209.5652,111.6319 218.5311,114.6211 227,117.8 C255.4025,128.4613 281.7243,141.2284 304.8504,153.3428" fill="none" style="stroke:#000000;stroke-width:1;"/></g><g class="link" data-entity-1="ent0002" data-entity-2="ent0005" data-link-type="dependency" id="lnk9"><polygon fill="#000000" points="262.7349,165.1155,254.3172,160.0026,257.7755,164.4792,253.299,167.9375,262.7349,165.1155" style="stroke:#000000;stroke-width:1;stroke-linejoin:miter;stroke-miterlimit:10;"/><path d="M221.7607,159.8578 C235.4685,161.6168 244.4398,162.7679 257.7755,164.4792" fill="none" style="stroke:#000000;stroke-width:1;"/></g><g class="link" data-entity-1="ent0003" data-entity-2="ent0005" data-link-type="dependency" id="lnk10"><polygon fill="#000000" points="262.6635,186.4936,253.2276,183.6716,257.7041,187.13,254.2458,191.6066,262.6635,186.4936" style="stroke:#000000;stroke-width:1;stroke-linejoin:miter;stroke-miterlimit:10;"/><path d="M189.0355,195.9415 C212.2714,192.9599 233.4862,190.2376 257.7041,187.13" fill="none" style="stroke:#000000;stroke-width:1;"/></g><g class="link" data-entity-1="ent0004" data-entity-2="ent0005" data-link-type="dependency" id="lnk11"><polygon fill="#000000" points="309.2795,195.937,299.451,196.57,304.8504,198.2572,303.1632,203.6566,309.2795,195.937" style="stroke:#000000;stroke-width:1;stroke-linejoin:miter;stroke-miterlimit:10;"/><path d="M146.3811,257.1181 C168.3092,252.0486 200.1517,243.8779 227,233.8 C255.4025,223.1387 281.7243,210.3716 304.8504,198.2572" fill="none" style="stroke:#000000;stroke-width:1;"/></g><g class="link" data-entity-1="ent0005" data-entity-2="ent0006" data-link-type="dependency" id="lnk12"><polygon fill="#000000" points="466.9603,175.8,457.9603,171.8,461.9603,175.8,457.9603,179.8,466.9603,175.8" style="stroke:#000000;stroke-width:1;stroke-linejoin:miter;stroke-miterlimit:10;"/><path d="M431.1316,175.8 C442.7631,175.8 449.8794,175.8 461.9603,175.8" fill="none" style="stroke:#000000;stroke-width:1;"/></g><g class="link" data-entity-1="ent0006" data-entity-2="ent0007" data-link-type="dependency" id="lnk13"><polygon fill="#000000" points="732.6736,175.8,723.6736,171.8,727.6736,175.8,723.6736,179.8,732.6736,175.8" style="stroke:#000000;stroke-width:1;stroke-linejoin:miter;stroke-miterlimit:10;"/><path d="M697.183,175.8 C709.7456,175.8 716.8769,175.8 727.6736,175.8" fill="none" style="stroke:#000000;stroke-width:1;"/></g><?plantuml-src LP31RjD048Rl-nJJN7foSoWSsWEIuwOYKXiYx9whYNTYhxBUjNR73dq07W3n19L0uiQnGWYUXahbBPWuEPZJlvh_ctzsvXHQ0z5teQHBQB7SOaLnMdfjN9N8s_4qXdBQU2rbuvW2bcnw6h-JlNl6yVBLnKNo-lnSdS8LHLCv28JHEmaE52dqj1-cJInzJ-41Z6ixZh2hZHMdMriJQnaBtX6Ko6Xz1RsXtPawuPeQOImQfqxQW5M3OF71Tmon8KQ7Acub3mCse6c3dULhxtY9qZPPIUerIdAUJKPSh57xtNxY1csaaREMGrJ1Tqvdtle07D15iUGSYWtROP7dJx_-_FpoylZr-UEtlvz_lpnzLyhIXe4z15FLBAi6aWjvf_Og7v36oUnkSLCiblVvJPg_lS_UtTwcowjy0XXXDkRc7vXSbERtdNCKeFHDWqx7WPoFoLNmJSjGK2C7OZeGgp6HRusrXth-NzrYhBD3C1mtUVmnSDcO4sHj7EcqOo__Q2qnoTJUQ0e3dOxfucu1SstO7xn2gHaaoHk9d1zrTTJygDcWgKe7BVu1?></g></svg>