<svg xmlns="http://www.w3.org/2000/svg" xmlns:xlink="http://www.w3.org/1999/xlink" contentStyleType="text/css" data-diagram-type="DESCRIPTION" height="713px" preserveAspectRatio="none" style="width:1215px;height:713px;" version="1.1" viewBox="0 0 1215 713" width="1215px" zoomAndPan="magnify"><?plantuml 1.2026.6?><defs/><g><g class="title" data-source-line="120"><text fill="#000000" font-family="'PingFang SC'" font-size="22" font-weight="700" lengthAdjust="spacing" textLength="336.4581" x="438.271" y="38.32">Built-in Command &#30446;&#26631;&#32452;&#20214;&#26550;&#26500;</text></g><!--cluster Definition--><g class="cluster" data-qualified-name="Definition" data-source-line="123" id="ent0001"><path d="M130.5,60.8 L201.5,60.8 A3.75,3.75 0 0 1 204,63.3 L211,86.4 L665.5,86.4 A2.5,2.5 0 0 1 668,88.9 L668,232.3 A2.5,2.5 0 0 1 665.5,234.8 L130.5,234.8 A2.5,2.5 0 0 1 128,232.3 L128,63.3 A2.5,2.5 0 0 1 130.5,60.8" fill="#FFFFFF" style="stroke:#000000;stroke-width:1;"/><line style="stroke:#000000;stroke-width:1;" x1="128" x2="211" y1="86.4" y2="86.4"/><text fill="#000000" font-family="'PingFang SC'" font-size="14" font-weight="700" lengthAdjust="spacing" textLength="70" x="132" y="77.64">&#23450;&#20041;&#19982;&#23433;&#35013;</text></g><!--cluster CommandCore--><g class="cluster" data-qualified-name="CommandCore" data-source-line="131" id="ent0007"><path d="M21.5,242.8 L106.5,242.8 A3.75,3.75 0 0 1 109,245.3 L116,268.4 L490.5,268.4 A2.5,2.5 0 0 1 493,270.9 L493,521.3 A2.5,2.5 0 0 1 490.5,523.8 L21.5,523.8 A2.5,2.5 0 0 1 19,521.3 L19,245.3 A2.5,2.5 0 0 1 21.5,242.8" fill="#FFFFFF" style="stroke:#000000;stroke-width:1;"/><line style="stroke:#000000;stroke-width:1;" x1="19" x2="116" y1="268.4" y2="268.4"/><text fill="#000000" font-family="'PingFang SC'" font-size="14" font-weight="700" lengthAdjust="spacing" textLength="84" x="23" y="259.64">&#32479;&#19968;&#21629;&#20196;&#26680;&#24515;</text></g><!--cluster Runtime--><g class="cluster" data-qualified-name="Runtime" data-source-line="143" id="ent0017"><path d="M192.5,531.8 L306.1685,531.8 A3.75,3.75 0 0 1 308.6685,534.3 L315.6685,557.4 L569.5,557.4 A2.5,2.5 0 0 1 572,559.9 L572,703.3 A2.5,2.5 0 0 1 569.5,705.8 L192.5,705.8 A2.5,2.5 0 0 1 190,703.3 L190,534.3 A2.5,2.5 0 0 1 192.5,531.8" fill="#FFFFFF" style="stroke:#000000;stroke-width:1;"/><line style="stroke:#000000;stroke-width:1;" x1="190" x2="315.6685" y1="557.4" y2="557.4"/><text fill="#000000" font-family="'PingFang SC'" font-size="14" font-weight="700" lengthAdjust="spacing" textLength="112.6685" x="194" y="548.64">Built-in Runtime</text></g><!--cluster Clients--><g class="cluster" data-qualified-name="Clients" data-source-line="152" id="ent0024"><path d="M503.5,435.8 L616.5,435.8 A3.75,3.75 0 0 1 619,438.3 L626,461.4 L1204.5,461.4 A2.5,2.5 0 0 1 1207,463.9 L1207,521.3 A2.5,2.5 0 0 1 1204.5,523.8 L503.5,523.8 A2.5,2.5 0 0 1 501,521.3 L501,438.3 A2.5,2.5 0 0 1 503.5,435.8" fill="#FFFFFF" style="stroke:#000000;stroke-width:1;"/><line style="stroke:#000000;stroke-width:1;" x1="501" x2="626" y1="461.4" y2="461.4"/><text fill="#000000" font-family="'PingFang SC'" font-size="14" font-weight="700" lengthAdjust="spacing" textLength="112" x="505" y="452.64">&#23458;&#25143;&#31471;&#19982;&#21327;&#35758;&#36866;&#37197;</text></g><!--entity Core--><g class="entity" data-qualified-name="Definition.Core" data-source-line="124" id="ent0002"><rect fill="#FFFFFF" height="49.6" rx="2.5" ry="2.5" style="stroke:#000000;stroke-width:1;" width="252.5622" x="406.5" y="90.8"/><rect fill="#FFFFFF" height="10" style="stroke:#000000;stroke-width:1;" width="15" x="639.0622" y="95.8"/><rect fill="#FFFFFF" height="2" style="stroke:#000000;stroke-width:1;" width="4" x="637.0622" y="97.8"/><rect fill="#FFFFFF" height="2" style="stroke:#000000;stroke-width:1;" width="4" x="637.0622" y="101.8"/><text fill="#000000" font-family="'PingFang SC'" font-size="14" lengthAdjust="spacing" textLength="212.5622" x="421.5" y="125.64">CoreBuiltinCommandContributor</text></g><!--entity Host--><g class="entity" data-qualified-name="Definition.Host" data-source-line="125" id="ent0003"><rect fill="#FFFFFF" height="49.6" rx="2.5" ry="2.5" style="stroke:#000000;stroke-width:1;" width="251.6158" x="136" y="90.8"/><rect fill="#FFFFFF" height="10" style="stroke:#000000;stroke-width:1;" width="15" x="367.6158" y="95.8"/><rect fill="#FFFFFF" height="2" style="stroke:#000000;stroke-width:1;" width="4" x="365.6158" y="97.8"/><rect fill="#FFFFFF" height="2" style="stroke:#000000;stroke-width:1;" width="4" x="365.6158" y="101.8"/><text fill="#000000" font-family="'PingFang SC'" font-size="14" lengthAdjust="spacing" textLength="211.6158" x="151" y="125.64">HostBuiltinCommandContributor</text></g><!--entity Installer--><g class="entity" data-qualified-name="Definition.Installer" data-source-line="126" id="ent0004"><rect fill="#FFFFFF" height="49.6" rx="2.5" ry="2.5" style="stroke:#000000;stroke-width:1;" width="197.5015" x="272" y="176.8"/><rect fill="#FFFFFF" height="10" style="stroke:#000000;stroke-width:1;" width="15" x="449.5015" y="181.8"/><rect fill="#FFFFFF" height="2" style="stroke:#000000;stroke-width:1;" width="4" x="447.5015" y="183.8"/><rect fill="#FFFFFF" height="2" style="stroke:#000000;stroke-width:1;" width="4" x="447.5015" y="187.8"/><text fill="#000000" font-family="'PingFang SC'" font-size="14" lengthAdjust="spacing" textLength="157.5015" x="287" y="211.64">BuiltinCommandInstaller</text></g><!--entity Registry--><g class="entity" data-qualified-name="CommandCore.Registry" data-source-line="132" id="ent0008"><rect fill="#FFFFFF" height="69.2" rx="2.5" ry="2.5" style="stroke:#000000;stroke-width:1;" width="194.4257" x="274" y="272.8"/><rect fill="#FFFFFF" height="10" style="stroke:#000000;stroke-width:1;" width="15" x="448.4257" y="277.8"/><rect fill="#FFFFFF" height="2" style="stroke:#000000;stroke-width:1;" width="4" x="446.4257" y="279.8"/><rect fill="#FFFFFF" height="2" style="stroke:#000000;stroke-width:1;" width="4" x="446.4257" y="283.8"/><text fill="#000000" font-family="'PingFang SC'" font-size="14" lengthAdjust="spacing" textLength="154.4257" x="289" y="307.64">SlashCommandRegistry</text><text fill="#000000" font-family="'PingFang SC'" font-size="14" lengthAdjust="spacing" textLength="60.8231" x="289" y="327.24">Snapshot</text></g><!--entity Parser--><g class="entity" data-qualified-name="CommandCore.Parser" data-source-line="133" id="ent0009"><rect fill="#FFFFFF" height="49.6" rx="2.5" ry="2.5" style="stroke:#000000;stroke-width:1;" width="183.0871" x="41.5" y="282.3"/><rect fill="#FFFFFF" height="10" style="stroke:#000000;stroke-width:1;" width="15" x="204.5871" y="287.3"/><rect fill="#FFFFFF" height="2" style="stroke:#000000;stroke-width:1;" width="4" x="202.5871" y="289.3"/><rect fill="#FFFFFF" height="2" style="stroke:#000000;stroke-width:1;" width="4" x="202.5871" y="293.3"/><text fill="#000000" font-family="'PingFang SC'" font-size="14" lengthAdjust="spacing" textLength="143.0871" x="56.5" y="317.14">SlashCommandParser</text></g><!--entity Dispatcher--><g class="entity" data-qualified-name="CommandCore.Dispatcher" data-source-line="134" id="ent0010"><rect fill="#FFFFFF" height="49.6" rx="2.5" ry="2.5" style="stroke:#000000;stroke-width:1;" width="211.1221" x="27.5" y="377.8"/><rect fill="#FFFFFF" height="10" style="stroke:#000000;stroke-width:1;" width="15" x="218.6221" y="382.8"/><rect fill="#FFFFFF" height="2" style="stroke:#000000;stroke-width:1;" width="4" x="216.6221" y="384.8"/><rect fill="#FFFFFF" height="2" style="stroke:#000000;stroke-width:1;" width="4" x="216.6221" y="388.8"/><text fill="#000000" font-family="'PingFang SC'" font-size="14" lengthAdjust="spacing" textLength="171.1221" x="42.5" y="412.64">SlashCommandDispatcher</text></g><!--entity Gate--><g class="entity" data-qualified-name="CommandCore.Gate" data-source-line="135" id="ent0011"><rect fill="#FFFFFF" height="49.6" rx="2.5" ry="2.5" style="stroke:#000000;stroke-width:1;" width="201.3151" x="157.5" y="465.8"/><rect fill="#FFFFFF" height="10" style="stroke:#000000;stroke-width:1;" width="15" x="338.8151" y="470.8"/><rect fill="#FFFFFF" height="2" style="stroke:#000000;stroke-width:1;" width="4" x="336.8151" y="472.8"/><rect fill="#FFFFFF" height="2" style="stroke:#000000;stroke-width:1;" width="4" x="336.8151" y="476.8"/><text fill="#000000" font-family="'PingFang SC'" font-size="14" lengthAdjust="spacing" textLength="161.3151" x="172.5" y="500.64">CommandExecutionGate</text></g><!--entity Completion--><g class="entity" data-qualified-name="CommandCore.Completion" data-source-line="136" id="ent0012"><rect fill="#FFFFFF" height="49.6" rx="2.5" ry="2.5" style="stroke:#000000;stroke-width:1;" width="228.1602" x="257" y="377.8"/><rect fill="#FFFFFF" height="10" style="stroke:#000000;stroke-width:1;" width="15" x="465.1602" y="382.8"/><rect fill="#FFFFFF" height="2" style="stroke:#000000;stroke-width:1;" width="4" x="463.1602" y="384.8"/><rect fill="#FFFFFF" height="2" style="stroke:#000000;stroke-width:1;" width="4" x="463.1602" y="388.8"/><text fill="#000000" font-family="'PingFang SC'" font-size="14" lengthAdjust="spacing" textLength="188.1602" x="272" y="412.64">CommandCompletionService</text></g><!--entity Handler--><g class="entity" data-qualified-name="Runtime.Handler" data-source-line="144" id="ent0018"><rect fill="#FFFFFF" height="49.6" rx="2.5" ry="2.5" style="stroke:#000000;stroke-width:1;" width="197.1221" x="198.5" y="561.8"/><rect fill="#FFFFFF" height="10" style="stroke:#000000;stroke-width:1;" width="15" x="375.6221" y="566.8"/><rect fill="#FFFFFF" height="2" style="stroke:#000000;stroke-width:1;" width="4" x="373.6221" y="568.8"/><rect fill="#FFFFFF" height="2" style="stroke:#000000;stroke-width:1;" width="4" x="373.6221" y="572.8"/><text fill="#000000" font-family="'PingFang SC'" font-size="14" lengthAdjust="spacing" textLength="157.1221" x="213.5" y="596.64">BuiltinCommandHandler</text></g><!--entity Services--><g class="entity" data-qualified-name="Runtime.Services" data-source-line="145" id="ent0019"><rect fill="#FFFFFF" height="49.6" rx="2.5" ry="2.5" style="stroke:#000000;stroke-width:1;" width="171.9767" x="392" y="647.8"/><rect fill="#FFFFFF" height="10" style="stroke:#000000;stroke-width:1;" width="15" x="543.9767" y="652.8"/><rect fill="#FFFFFF" height="2" style="stroke:#000000;stroke-width:1;" width="4" x="541.9767" y="654.8"/><rect fill="#FFFFFF" height="2" style="stroke:#000000;stroke-width:1;" width="4" x="541.9767" y="658.8"/><text fill="#000000" font-family="'PingFang SC'" font-size="14" lengthAdjust="spacing" textLength="131.9767" x="407" y="682.64">Application Services</text></g><!--entity Interaction--><g class="entity" data-qualified-name="Runtime.Interaction" data-source-line="146" id="ent0020"><rect fill="#FFFFFF" height="49.6" rx="2.5" ry="2.5" style="stroke:#000000;stroke-width:1;" width="175.4389" x="198.5" y="647.8"/><rect fill="#FFFFFF" height="10" style="stroke:#000000;stroke-width:1;" width="15" x="353.9389" y="652.8"/><rect fill="#FFFFFF" height="2" style="stroke:#000000;stroke-width:1;" width="4" x="351.9389" y="654.8"/><rect fill="#FFFFFF" height="2" style="stroke:#000000;stroke-width:1;" width="4" x="351.9389" y="658.8"/><text fill="#000000" font-family="'PingFang SC'" font-size="14" lengthAdjust="spacing" textLength="135.4389" x="213.5" y="682.64">CommandInteraction</text></g><!--entity TUI--><g class="entity" data-qualified-name="Clients.TUI" data-source-line="153" id="ent0025"><rect fill="#FFFFFF" height="49.6" rx="2.5" ry="2.5" style="stroke:#000000;stroke-width:1;" width="144.1951" x="703" y="465.8"/><rect fill="#FFFFFF" height="10" style="stroke:#000000;stroke-width:1;" width="15" x="827.1951" y="470.8"/><rect fill="#FFFFFF" height="2" style="stroke:#000000;stroke-width:1;" width="4" x="825.1951" y="472.8"/><rect fill="#FFFFFF" height="2" style="stroke:#000000;stroke-width:1;" width="4" x="825.1951" y="476.8"/><text fill="#000000" font-family="'PingFang SC'" font-size="14" lengthAdjust="spacing" textLength="104.1951" x="718" y="500.64">InteractiveMode</text></g><!--entity APP--><g class="entity" data-qualified-name="Clients.APP" data-source-line="154" id="ent0026"><rect fill="#FFFFFF" height="49.6" rx="2.5" ry="2.5" style="stroke:#000000;stroke-width:1;" width="178.9109" x="865.5" y="465.8"/><rect fill="#FFFFFF" height="10" style="stroke:#000000;stroke-width:1;" width="15" x="1024.4109" y="470.8"/><rect fill="#FFFFFF" height="2" style="stroke:#000000;stroke-width:1;" width="4" x="1022.4109" y="472.8"/><rect fill="#FFFFFF" height="2" style="stroke:#000000;stroke-width:1;" width="4" x="1022.4109" y="476.8"/><text fill="#000000" font-family="'PingFang SC'" font-size="14" lengthAdjust="spacing" textLength="138.9109" x="880.5" y="500.64">App Command Client</text></g><!--entity Help--><g class="entity" data-qualified-name="Clients.Help" data-source-line="155" id="ent0027"><rect fill="#FFFFFF" height="49.6" rx="2.5" ry="2.5" style="stroke:#000000;stroke-width:1;" width="135.6551" x="1063" y="465.8"/><rect fill="#FFFFFF" height="10" style="stroke:#000000;stroke-width:1;" width="15" x="1178.6551" y="470.8"/><rect fill="#FFFFFF" height="2" style="stroke:#000000;stroke-width:1;" width="4" x="1176.6551" y="472.8"/><rect fill="#FFFFFF" height="2" style="stroke:#000000;stroke-width:1;" width="4" x="1176.6551" y="476.8"/><text fill="#000000" font-family="'PingFang SC'" font-size="14" lengthAdjust="spacing" textLength="95.6551" x="1078" y="500.64">HelpCommand</text></g><!--entity RPC--><g class="entity" data-qualified-name="Clients.RPC" data-source-line="156" id="ent0028"><rect fill="#FFFFFF" height="49.6" rx="2.5" ry="2.5" style="stroke:#000000;stroke-width:1;" width="176.2061" x="509" y="465.8"/><rect fill="#FFFFFF" height="10" style="stroke:#000000;stroke-width:1;" width="15" x="665.2061" y="470.8"/><rect fill="#FFFFFF" height="2" style="stroke:#000000;stroke-width:1;" width="4" x="663.2061" y="472.8"/><rect fill="#FFFFFF" height="2" style="stroke:#000000;stroke-width:1;" width="4" x="663.2061" y="476.8"/><text fill="#000000" font-family="'PingFang SC'" font-size="14" lengthAdjust="spacing" textLength="136.2061" x="524" y="500.64">Typed RPC Adapters</text></g><g class="link" data-entity-1="ent0002" data-entity-2="ent0004" data-link-type="dependency" id="lnk5"><polygon fill="#000000" points="417.4295,176.7255,427.2605,176.1336,421.8683,174.4239,423.578,169.0316,417.4295,176.7255" style="stroke:#000000;stroke-width:1;stroke-linejoin:miter;stroke-miterlimit:10;"/><path d="M486.5773,140.871 C464.8859,152.1184 443.5605,163.176 421.8683,174.4239" fill="none" style="stroke:#000000;stroke-width:1;"/></g><g class="link" data-entity-1="ent0003" data-entity-2="ent0004" data-link-type="dependency" id="lnk6"><polygon fill="#000000" points="339.7604,176.7255,335.0733,168.0634,335.8,173.6734,330.19,174.4001,339.7604,176.7255" style="stroke:#000000;stroke-width:1;stroke-linejoin:miter;stroke-miterlimit:10;"/><path d="M293.235,140.871 C307.8299,152.1184 321.2046,162.4256 335.8,173.6734" fill="none" style="stroke:#000000;stroke-width:1;"/></g><g class="link" data-entity-1="ent0009" data-entity-2="ent0010" data-link-type="dependency" id="lnk13"><polygon fill="#000000" points="133,377.4781,137,368.4781,133,372.4781,129,368.4781,133,377.4781" style="stroke:#000000;stroke-width:1;stroke-linejoin:miter;stroke-miterlimit:10;"/><path d="M133,332.3786 C133,346.2303 133,358.5856 133,372.4781" fill="none" style="stroke:#000000;stroke-width:1;"/></g><g class="link" data-entity-1="ent0008" data-entity-2="ent0010" data-link-type="dependency" id="lnk14"><polygon fill="#000000" points="194.3477,377.6991,204.1871,378.1312,199.0015,375.8709,201.2619,370.6852,194.3477,377.6991" style="stroke:#000000;stroke-width:1;stroke-linejoin:miter;stroke-miterlimit:10;"/><path d="M285.4128,341.9235 C255.2946,353.7557 226.7229,364.9803 199.0015,375.8709" fill="none" style="stroke:#000000;stroke-width:1;"/></g><g class="link" data-entity-1="ent0010" data-entity-2="ent0011" data-link-type="dependency" id="lnk15"><polygon fill="#000000" points="223.1117,465.7969,217.9643,457.4002,218.9925,462.9628,213.4299,463.991,223.1117,465.7969" style="stroke:#000000;stroke-width:1;stroke-linejoin:miter;stroke-miterlimit:10;"/><path d="M168.1521,427.9847 C185.3383,439.8087 201.8417,451.1631 218.9925,462.9628" fill="none" style="stroke:#000000;stroke-width:1;"/></g><g class="link" data-entity-1="ent0008" data-entity-2="ent0012" data-link-type="dependency" id="lnk16"><polygon fill="#000000" points="371,377.767,375,368.767,371,372.767,367,368.767,371,377.767" style="stroke:#000000;stroke-width:1;stroke-linejoin:miter;stroke-miterlimit:10;"/><path d="M371,342.0556 C371,353.8774 371,361.9033 371,372.767" fill="none" style="stroke:#000000;stroke-width:1;"/></g><g class="link" data-entity-1="ent0018" data-entity-2="ent0019" data-link-type="dependency" id="lnk21"><polygon fill="#000000" points="426.1251,647.7255,419.6453,640.3085,421.5897,645.6206,416.2775,647.5651,426.1251,647.7255" style="stroke:#000000;stroke-width:1;stroke-linejoin:miter;stroke-miterlimit:10;"/><path d="M348.8673,611.871 C373.1028,623.1184 397.3533,634.3728 421.5897,645.6206" fill="none" style="stroke:#000000;stroke-width:1;"/></g><g class="link" data-entity-1="ent0018" data-entity-2="ent0020" data-link-type="dependency" id="lnk22"><polygon fill="#000000" points="289.1745,647.5583,294.3092,639.1539,289.8237,642.6007,286.377,638.1151,289.1745,647.5583" style="stroke:#000000;stroke-width:1;stroke-linejoin:miter;stroke-miterlimit:10;"/><path d="M293.8183,612.0963 C292.359,623.2407 291.2822,631.4629 289.8237,642.6007" fill="none" style="stroke:#000000;stroke-width:1;"/></g><g class="link" data-entity-1="ent0011" data-entity-2="ent0018" data-link-type="dependency" id="lnk23"><polygon fill="#000000" points="286.9906,561.6747,287.2362,551.8289,285.0745,557.0564,279.847,554.8947,286.9906,561.6747" style="stroke:#000000;stroke-width:1;stroke-linejoin:miter;stroke-miterlimit:10;"/><path d="M268.0435,516.0073 C273.8663,530.0419 279.2574,543.0358 285.0745,557.0564" fill="none" style="stroke:#000000;stroke-width:1;"/></g><g class="link" data-entity-1="ent0012" data-entity-2="ent0025" data-link-type="dependency" id="lnk29"><polygon fill="#000000" points="746.5068,465.7746,741.7098,457.1729,742.5078,462.7732,736.9075,463.5712,746.5068,465.7746" style="stroke:#000000;stroke-width:1;stroke-linejoin:miter;stroke-miterlimit:10;"/><path d="M485.3344,409.2738 C562.4058,414.0759 656.5918,422.4251 694,435.8 C712.9381,442.5711 727.7732,451.7141 742.5078,462.7732" fill="none" style="stroke:#000000;stroke-width:1;"/></g><g class="link" data-entity-1="ent0012" data-entity-2="ent0026" data-link-type="dependency" id="lnk30"><polygon fill="#000000" points="919.5108,465.5391,913.9209,457.4303,915.2456,462.9299,909.7461,464.2546,919.5108,465.5391" style="stroke:#000000;stroke-width:1;stroke-linejoin:miter;stroke-miterlimit:10;"/><path d="M485.0219,408.7405 C617.1947,414.8736 821.4074,425.7547 856,435.8 C878.3737,442.297 897.0735,451.8129 915.2456,462.9299" fill="none" style="stroke:#000000;stroke-width:1;"/></g><g class="link" data-entity-1="ent0025" data-entity-2="ent0010" data-link-type="dependency" id="lnk31"><polygon fill="#000000" points="238.7787,426.6547,247.1606,431.8261,243.7335,427.3256,248.234,423.8985,238.7787,426.6547" style="stroke:#000000;stroke-width:1;stroke-linejoin:miter;stroke-miterlimit:10;"/><path d="M747.4651,465.6776 C732.682,454.2989 713.5188,441.9014 694,435.8 C646.6938,421.0125 297.2539,433.3316 248,427.8 C244.9598,427.4586 246.8358,427.7456 243.7335,427.3256" fill="none" style="stroke:#000000;stroke-width:1;"/></g><g class="link" data-entity-1="ent0026" data-entity-2="ent0010" data-link-type="dependency" id="lnk32"><polygon fill="#000000" points="238.7766,426.674,247.1678,431.8302,243.7326,427.3359,248.2269,423.9007,238.7766,426.674" style="stroke:#000000;stroke-width:1;stroke-linejoin:miter;stroke-miterlimit:10;"/><path d="M920.5617,465.5966 C902.2861,454.1964 878.9159,441.8043 856,435.8 C823.3223,427.2381 281.5786,431.4899 248,427.8 C244.959,427.4658 246.8355,427.7503 243.7326,427.3359" fill="none" style="stroke:#000000;stroke-width:1;"/></g><g class="link" data-entity-1="ent0008" data-entity-2="ent0027" data-link-type="dependency" id="lnk33"><polygon fill="#000000" points="1102.7665,465.6017,1098.0803,456.9391,1098.8064,462.5492,1093.1964,463.2753,1102.7665,465.6017" style="stroke:#000000;stroke-width:1;stroke-linejoin:miter;stroke-miterlimit:10;"/><path d="M468.03,313.4584 C603.8978,323.5214 856.3544,352.685 1054,435.8 C1071.4592,443.1421 1084.9458,451.8653 1098.8064,462.5492" fill="none" style="stroke:#000000;stroke-width:1;"/></g><g class="link" data-entity-1="ent0019" data-entity-2="ent0028" data-link-type="dependency" id="lnk34"><polygon fill="#000000" points="580.9511,516.0756,572.651,521.3773,578.1937,520.2465,579.3245,525.7892,580.9511,516.0756" style="stroke:#000000;stroke-width:1;stroke-linejoin:miter;stroke-miterlimit:10;"/><path d="M493.9842,647.6222 C516.7242,613.2256 555.4183,554.6967 578.1937,520.2465" fill="none" style="stroke:#000000;stroke-width:1;"/></g><g class="link" data-entity-1="ent0004" data-entity-2="ent0008" data-link-type="dependency" id="lnk35"><polygon fill="#000000" points="371,272.625,375,263.625,371,267.625,367,263.625,371,272.625" style="stroke:#000000;stroke-width:1;stroke-linejoin:miter;stroke-miterlimit:10;"/><path d="M371,226.8051 C371,240.4205 371,252.6738 371,267.625" fill="none" style="stroke:#000000;stroke-width:1;"/></g><?plantuml-src XLHBRnCn4BxlhvZcqalIYZv0xG6ff9Jc08gQSkFYxheRgrxRihqjLOLKGIleeI2k8445t9323OeYn9_9e_qNs5vlifi-aBAAFVEDPxxFCvu6GK3nL8Pu6GGATr2CrMp88yBYcbapFQjaE9lmo9W9qrYYK9DTN5pNh7T6g-M5fQNQulnyTMvnuKvjxkwzXM0QLh4YCGE9aU9i6HGMI2AD8SBRX15DEAj2H9H0EcnNGQPCamJ37fSxsvJlLM6Knm8HYo2an5G5A4928skU2QPq6viWGH5XmPIGA4uGKBJFKmqgmHen5AWTmcpgn6P6ATLhdEado8HLceRh6c8njEgL0awrKSJtZ0-s4LMuuDaoEiMIfoogSyebQ8cOOI1DNO4ccc9ua1AgQuH1dIU9hNhuiJCuUpti7lMwFmUVpEye23GNe3biSQsvAOj8x6W6_XgWqkzywFq-wPs_xNTEBhuULm0fesUk6nm4025F16TMa4gTI-po4kQprWr5IRPIpQMBjOXop3fN-lOOYoZ7bF4DfZIY56VeqSw4s6nGgzql6Urn4yONmPZniFkvTtxOV_-dr_qsE3ll_ttb2_UrcHCdMBSeKctlty0nKLhkFsCjXeHgS-sYS_FDWKqabMUGBM-6hlfUzV3nTl8o7FhXSnoczh8UcPvt0NPnBTJy2OejjeNbBWbnpjnRJL1McvElb3SdUDKptZYVJrx25p8KRsBKmHlPI6PA-l4ykAqZrisNzuDVb-4hGb0Ikja5prKvTBwvLf_6-27mhJRQsxxA4Zb6XMEAvdA0bSAPynABvFkTBuCtluRVVzZPEtrtqUbS7hwyF3xDhiGzG6fIXCRuGNnitaC7tNpQk49zz2HavpZSIhCvCPUO2e_BT3JxCc9pN-08DffrMB4l8PQPXCRWHY-_KqSnAsF2cEKqhgjTOrp_QJ9VJwwqizdKHiJHO6T67_KF?></g></svg>