<svg xmlns="http://www.w3.org/2000/svg" xmlns:xlink="http://www.w3.org/1999/xlink" contentStyleType="text/css" data-diagram-type="DESCRIPTION" height="667px" preserveAspectRatio="none" style="width:1246px;height:667px;" version="1.1" viewBox="0 0 1246 667" width="1246px" zoomAndPan="magnify"><?plantuml 1.2026.6?><defs/><g><g class="title" data-source-line="120"><text fill="#000000" font-family="'sans-serif'" font-size="22" font-weight="700" lengthAdjust="spacing" textLength="574.6426" x="334.6787" y="36.2695">Built-in Command Target Component Architecture</text></g><!--cluster Definition--><g class="cluster" data-qualified-name="Definition" data-source-line="123" id="ent0001"><path d="M132.5,55.9102 L322.5547,55.9102 A3.75,3.75 0 0 1 325.0547,58.4102 L332.0547,78.3984 L688.5,78.3984 A2.5,2.5 0 0 1 691,80.8984 L691,216.4102 A2.5,2.5 0 0 1 688.5,218.9102 L132.5,218.9102 A2.5,2.5 0 0 1 130,216.4102 L130,58.4102 A2.5,2.5 0 0 1 132.5,55.9102" fill="#FFFFFF" style="stroke:#000000;stroke-width:1;"/><line style="stroke:#000000;stroke-width:1;" x1="130" x2="332.0547" y1="78.3984" y2="78.3984"/><text fill="#000000" font-family="'sans-serif'" font-size="14" font-weight="700" lengthAdjust="spacing" textLength="189.0547" x="134" y="71.4453">Definition and Installation</text></g><!--cluster CommandCore--><g class="cluster" data-qualified-name="CommandCore" data-source-line="131" id="ent0007"><path d="M21.5,226.9102 L189.8711,226.9102 A3.75,3.75 0 0 1 192.3711,229.4102 L199.3711,249.3984 L504.5,249.3984 A2.5,2.5 0 0 1 507,251.8984 L507,486.4102 A2.5,2.5 0 0 1 504.5,488.9102 L21.5,488.9102 A2.5,2.5 0 0 1 19,486.4102 L19,229.4102 A2.5,2.5 0 0 1 21.5,226.9102" fill="#FFFFFF" style="stroke:#000000;stroke-width:1;"/><line style="stroke:#000000;stroke-width:1;" x1="19" x2="199.3711" y1="249.3984" y2="249.3984"/><text fill="#000000" font-family="'sans-serif'" font-size="14" font-weight="700" lengthAdjust="spacing" textLength="167.3711" x="23" y="242.4453">Unified Command Core</text></g><!--cluster Runtime--><g class="cluster" data-qualified-name="Runtime" data-source-line="143" id="ent0017"><path d="M196.5,496.9102 L317.6484,496.9102 A3.75,3.75 0 0 1 320.1484,499.4102 L327.1484,519.3984 L585.5,519.3984 A2.5,2.5 0 0 1 588,521.8984 L588,657.4102 A2.5,2.5 0 0 1 585.5,659.9102 L196.5,659.9102 A2.5,2.5 0 0 1 194,657.4102 L194,499.4102 A2.5,2.5 0 0 1 196.5,496.9102" fill="#FFFFFF" style="stroke:#000000;stroke-width:1;"/><line style="stroke:#000000;stroke-width:1;" x1="194" x2="327.1484" y1="519.3984" y2="519.3984"/><text fill="#000000" font-family="'sans-serif'" font-size="14" font-weight="700" lengthAdjust="spacing" textLength="120.1484" x="198" y="512.4453">Built-in Runtime</text></g><!--cluster Clients--><g class="cluster" data-qualified-name="Clients" data-source-line="152" id="ent0024"><path d="M517.5,407.9102 L725.8955,407.9102 A3.75,3.75 0 0 1 728.3955,410.4102 L735.3955,430.3984 L1235.5,430.3984 A2.5,2.5 0 0 1 1238,432.8984 L1238,486.4102 A2.5,2.5 0 0 1 1235.5,488.9102 L517.5,488.9102 A2.5,2.5 0 0 1 515,486.4102 L515,410.4102 A2.5,2.5 0 0 1 517.5,407.9102" fill="#FFFFFF" style="stroke:#000000;stroke-width:1;"/><line style="stroke:#000000;stroke-width:1;" x1="515" x2="735.3955" y1="430.3984" y2="430.3984"/><text fill="#000000" font-family="'sans-serif'" font-size="14" font-weight="700" lengthAdjust="spacing" textLength="207.3955" x="519" y="423.4453">Client and Protocol Adapters</text></g><!--entity Core--><g class="entity" data-qualified-name="Definition.Core" data-source-line="124" id="ent0002"><rect fill="#FFFFFF" height="46.4883" rx="2.5" ry="2.5" style="stroke:#000000;stroke-width:1;" width="263.3301" x="419.5" y="82.9102"/><rect fill="#FFFFFF" height="10" style="stroke:#000000;stroke-width:1;" width="15" x="662.8301" y="87.9102"/><rect fill="#FFFFFF" height="2" style="stroke:#000000;stroke-width:1;" width="4" x="660.8301" y="89.9102"/><rect fill="#FFFFFF" height="2" style="stroke:#000000;stroke-width:1;" width="4" x="660.8301" y="93.9102"/><text fill="#000000" font-family="'sans-serif'" font-size="14" lengthAdjust="spacing" textLength="223.3301" x="434.5" y="116.4453">CoreBuiltinCommandContributor</text></g><!--entity Host--><g class="entity" data-qualified-name="Definition.Host" data-source-line="125" id="ent0003"><rect fill="#FFFFFF" height="46.4883" rx="2.5" ry="2.5" style="stroke:#000000;stroke-width:1;" width="262.7764" x="138.5" y="82.9102"/><rect fill="#FFFFFF" height="10" style="stroke:#000000;stroke-width:1;" width="15" x="381.2764" y="87.9102"/><rect fill="#FFFFFF" height="2" style="stroke:#000000;stroke-width:1;" width="4" x="379.2764" y="89.9102"/><rect fill="#FFFFFF" height="2" style="stroke:#000000;stroke-width:1;" width="4" x="379.2764" y="93.9102"/><text fill="#000000" font-family="'sans-serif'" font-size="14" lengthAdjust="spacing" textLength="222.7764" x="153.5" y="116.4453">HostBuiltinCommandContributor</text></g><!--entity Installer--><g class="entity" data-qualified-name="Definition.Installer" data-source-line="126" id="ent0004"><rect fill="#FFFFFF" height="46.4883" rx="2.5" ry="2.5" style="stroke:#000000;stroke-width:1;" width="206.9131" x="277.5" y="164.9102"/><rect fill="#FFFFFF" height="10" style="stroke:#000000;stroke-width:1;" width="15" x="464.4131" y="169.9102"/><rect fill="#FFFFFF" height="2" style="stroke:#000000;stroke-width:1;" width="4" x="462.4131" y="171.9102"/><rect fill="#FFFFFF" height="2" style="stroke:#000000;stroke-width:1;" width="4" x="462.4131" y="175.9102"/><text fill="#000000" font-family="'sans-serif'" font-size="14" lengthAdjust="spacing" textLength="166.9131" x="292.5" y="198.4453">BuiltinCommandInstaller</text></g><!--entity Registry--><g class="entity" data-qualified-name="CommandCore.Registry" data-source-line="132" id="ent0008"><rect fill="#FFFFFF" height="62.9766" rx="2.5" ry="2.5" style="stroke:#000000;stroke-width:1;" width="199.6465" x="281" y="253.9102"/><rect fill="#FFFFFF" height="10" style="stroke:#000000;stroke-width:1;" width="15" x="460.6465" y="258.9102"/><rect fill="#FFFFFF" height="2" style="stroke:#000000;stroke-width:1;" width="4" x="458.6465" y="260.9102"/><rect fill="#FFFFFF" height="2" style="stroke:#000000;stroke-width:1;" width="4" x="458.6465" y="264.9102"/><text fill="#000000" font-family="'sans-serif'" font-size="14" lengthAdjust="spacing" textLength="159.6465" x="296" y="287.4453">SlashCommandRegistry</text><text fill="#000000" font-family="'sans-serif'" font-size="14" lengthAdjust="spacing" textLength="62.4326" x="296" y="303.9336">Snapshot</text></g><!--entity Parser--><g class="entity" data-qualified-name="CommandCore.Parser" data-source-line="133" id="ent0009"><rect fill="#FFFFFF" height="46.4883" rx="2.5" ry="2.5" style="stroke:#000000;stroke-width:1;" width="186.665" x="42.5" y="262.4102"/><rect fill="#FFFFFF" height="10" style="stroke:#000000;stroke-width:1;" width="15" x="209.165" y="267.4102"/><rect fill="#FFFFFF" height="2" style="stroke:#000000;stroke-width:1;" width="4" x="207.165" y="269.4102"/><rect fill="#FFFFFF" height="2" style="stroke:#000000;stroke-width:1;" width="4" x="207.165" y="273.4102"/><text fill="#000000" font-family="'sans-serif'" font-size="14" lengthAdjust="spacing" textLength="146.665" x="57.5" y="295.9453">SlashCommandParser</text></g><!--entity Dispatcher--><g class="entity" data-qualified-name="CommandCore.Dispatcher" data-source-line="134" id="ent0010"><rect fill="#FFFFFF" height="46.4883" rx="2.5" ry="2.5" style="stroke:#000000;stroke-width:1;" width="217.6387" x="27" y="352.9102"/><rect fill="#FFFFFF" height="10" style="stroke:#000000;stroke-width:1;" width="15" x="224.6387" y="357.9102"/><rect fill="#FFFFFF" height="2" style="stroke:#000000;stroke-width:1;" width="4" x="222.6387" y="359.9102"/><rect fill="#FFFFFF" height="2" style="stroke:#000000;stroke-width:1;" width="4" x="222.6387" y="363.9102"/><text fill="#000000" font-family="'sans-serif'" font-size="14" lengthAdjust="spacing" textLength="177.6387" x="42" y="386.4453">SlashCommandDispatcher</text></g><!--entity Gate--><g class="entity" data-qualified-name="CommandCore.Gate" data-source-line="135" id="ent0011"><rect fill="#FFFFFF" height="46.4883" rx="2.5" ry="2.5" style="stroke:#000000;stroke-width:1;" width="206.9473" x="161.5" y="434.9102"/><rect fill="#FFFFFF" height="10" style="stroke:#000000;stroke-width:1;" width="15" x="348.4473" y="439.9102"/><rect fill="#FFFFFF" height="2" style="stroke:#000000;stroke-width:1;" width="4" x="346.4473" y="441.9102"/><rect fill="#FFFFFF" height="2" style="stroke:#000000;stroke-width:1;" width="4" x="346.4473" y="445.9102"/><text fill="#000000" font-family="'sans-serif'" font-size="14" lengthAdjust="spacing" textLength="166.9473" x="176.5" y="468.4453">CommandExecutionGate</text></g><!--entity Completion--><g class="entity" data-qualified-name="CommandCore.Completion" data-source-line="136" id="ent0012"><rect fill="#FFFFFF" height="46.4883" rx="2.5" ry="2.5" style="stroke:#000000;stroke-width:1;" width="235.5762" x="263" y="352.9102"/><rect fill="#FFFFFF" height="10" style="stroke:#000000;stroke-width:1;" width="15" x="478.5762" y="357.9102"/><rect fill="#FFFFFF" height="2" style="stroke:#000000;stroke-width:1;" width="4" x="476.5762" y="359.9102"/><rect fill="#FFFFFF" height="2" style="stroke:#000000;stroke-width:1;" width="4" x="476.5762" y="363.9102"/><text fill="#000000" font-family="'sans-serif'" font-size="14" lengthAdjust="spacing" textLength="195.5762" x="278" y="386.4453">CommandCompletionService</text></g><!--entity Handler--><g class="entity" data-qualified-name="Runtime.Handler" data-source-line="144" id="ent0018"><rect fill="#FFFFFF" height="46.4883" rx="2.5" ry="2.5" style="stroke:#000000;stroke-width:1;" width="205.5596" x="202" y="523.9102"/><rect fill="#FFFFFF" height="10" style="stroke:#000000;stroke-width:1;" width="15" x="387.5596" y="528.9102"/><rect fill="#FFFFFF" height="2" style="stroke:#000000;stroke-width:1;" width="4" x="385.5596" y="530.9102"/><rect fill="#FFFFFF" height="2" style="stroke:#000000;stroke-width:1;" width="4" x="385.5596" y="534.9102"/><text fill="#000000" font-family="'sans-serif'" font-size="14" lengthAdjust="spacing" textLength="165.5596" x="217" y="557.4453">BuiltinCommandHandler</text></g><!--entity Services--><g class="entity" data-qualified-name="Runtime.Services" data-source-line="145" id="ent0019"><rect fill="#FFFFFF" height="46.4883" rx="2.5" ry="2.5" style="stroke:#000000;stroke-width:1;" width="175.748" x="404" y="605.9102"/><rect fill="#FFFFFF" height="10" style="stroke:#000000;stroke-width:1;" width="15" x="559.748" y="610.9102"/><rect fill="#FFFFFF" height="2" style="stroke:#000000;stroke-width:1;" width="4" x="557.748" y="612.9102"/><rect fill="#FFFFFF" height="2" style="stroke:#000000;stroke-width:1;" width="4" x="557.748" y="616.9102"/><text fill="#000000" font-family="'sans-serif'" font-size="14" lengthAdjust="spacing" textLength="135.748" x="419" y="639.4453">Application Services</text></g><!--entity Interaction--><g class="entity" data-qualified-name="Runtime.Interaction" data-source-line="146" id="ent0020"><rect fill="#FFFFFF" height="46.4883" rx="2.5" ry="2.5" style="stroke:#000000;stroke-width:1;" width="182.6182" x="202.5" y="605.9102"/><rect fill="#FFFFFF" height="10" style="stroke:#000000;stroke-width:1;" width="15" x="365.1182" y="610.9102"/><rect fill="#FFFFFF" height="2" style="stroke:#000000;stroke-width:1;" width="4" x="363.1182" y="612.9102"/><rect fill="#FFFFFF" height="2" style="stroke:#000000;stroke-width:1;" width="4" x="363.1182" y="616.9102"/><text fill="#000000" font-family="'sans-serif'" font-size="14" lengthAdjust="spacing" textLength="142.6182" x="217.5" y="639.4453">CommandInteraction</text></g><!--entity TUI--><g class="entity" data-qualified-name="Clients.TUI" data-source-line="153" id="ent0025"><rect fill="#FFFFFF" height="46.4883" rx="2.5" ry="2.5" style="stroke:#000000;stroke-width:1;" width="147.9873" x="719" y="434.9102"/><rect fill="#FFFFFF" height="10" style="stroke:#000000;stroke-width:1;" width="15" x="846.9873" y="439.9102"/><rect fill="#FFFFFF" height="2" style="stroke:#000000;stroke-width:1;" width="4" x="844.9873" y="441.9102"/><rect fill="#FFFFFF" height="2" style="stroke:#000000;stroke-width:1;" width="4" x="844.9873" y="445.9102"/><text fill="#000000" font-family="'sans-serif'" font-size="14" lengthAdjust="spacing" textLength="107.9873" x="734" y="468.4453">InteractiveMode</text></g><!--entity APP--><g class="entity" data-qualified-name="Clients.APP" data-source-line="154" id="ent0026"><rect fill="#FFFFFF" height="46.4883" rx="2.5" ry="2.5" style="stroke:#000000;stroke-width:1;" width="185.3047" x="885.5" y="434.9102"/><rect fill="#FFFFFF" height="10" style="stroke:#000000;stroke-width:1;" width="15" x="1050.8047" y="439.9102"/><rect fill="#FFFFFF" height="2" style="stroke:#000000;stroke-width:1;" width="4" x="1048.8047" y="441.9102"/><rect fill="#FFFFFF" height="2" style="stroke:#000000;stroke-width:1;" width="4" x="1048.8047" y="445.9102"/><text fill="#000000" font-family="'sans-serif'" font-size="14" lengthAdjust="spacing" textLength="145.3047" x="900.5" y="468.4453">App Command Client</text></g><!--entity Help--><g class="entity" data-qualified-name="Clients.Help" data-source-line="155" id="ent0027"><rect fill="#FFFFFF" height="46.4883" rx="2.5" ry="2.5" style="stroke:#000000;stroke-width:1;" width="140.6045" x="1088.5" y="434.9102"/><rect fill="#FFFFFF" height="10" style="stroke:#000000;stroke-width:1;" width="15" x="1209.1045" y="439.9102"/><rect fill="#FFFFFF" height="2" style="stroke:#000000;stroke-width:1;" width="4" x="1207.1045" y="441.9102"/><rect fill="#FFFFFF" height="2" style="stroke:#000000;stroke-width:1;" width="4" x="1207.1045" y="445.9102"/><text fill="#000000" font-family="'sans-serif'" font-size="14" lengthAdjust="spacing" textLength="100.6045" x="1103.5" y="468.4453">HelpCommand</text></g><!--entity RPC--><g class="entity" data-qualified-name="Clients.RPC" data-source-line="156" id="ent0028"><rect fill="#FFFFFF" height="46.4883" rx="2.5" ry="2.5" style="stroke:#000000;stroke-width:1;" width="177.6416" x="523" y="434.9102"/><rect fill="#FFFFFF" height="10" style="stroke:#000000;stroke-width:1;" width="15" x="680.6416" y="439.9102"/><rect fill="#FFFFFF" height="2" style="stroke:#000000;stroke-width:1;" width="4" x="678.6416" y="441.9102"/><rect fill="#FFFFFF" height="2" style="stroke:#000000;stroke-width:1;" width="4" x="678.6416" y="445.9102"/><text fill="#000000" font-family="'sans-serif'" font-size="14" lengthAdjust="spacing" textLength="137.6416" x="538" y="468.4453">Typed RPC Adapters</text></g><g class="link" data-entity-1="ent0002" data-entity-2="ent0004" data-link-type="dependency" id="lnk5"><polygon fill="#000000" points="427.7502,164.9101,437.5967,164.6972,432.2743,162.7811,434.1904,157.4586,427.7502,164.9101" style="stroke:#000000;stroke-width:1;stroke-linejoin:miter;stroke-miterlimit:10;"/><path d="M504.0967,128.9823 C480.3132,140.1746 456.0363,151.599 432.2743,162.7811" fill="none" style="stroke:#000000;stroke-width:1;"/></g><g class="link" data-entity-1="ent0003" data-entity-2="ent0004" data-link-type="dependency" id="lnk6"><polygon fill="#000000" points="350.4749,164.9101,345.5123,156.4028,346.4186,161.9866,340.8348,162.8929,350.4749,164.9101" style="stroke:#000000;stroke-width:1;stroke-linejoin:miter;stroke-miterlimit:10;"/><path d="M300.6251,128.9823 C316.1544,140.1746 330.9034,150.8045 346.4186,161.9866" fill="none" style="stroke:#000000;stroke-width:1;"/></g><g class="link" data-entity-1="ent0009" data-entity-2="ent0010" data-link-type="dependency" id="lnk13"><polygon fill="#000000" points="136,352.8916,140,343.8916,136,347.8916,132,343.8916,136,352.8916" style="stroke:#000000;stroke-width:1;stroke-linejoin:miter;stroke-miterlimit:10;"/><path d="M136,308.7424 C136,322.2608 136,334.4303 136,347.8916" fill="none" style="stroke:#000000;stroke-width:1;"/></g><g class="link" data-entity-1="ent0008" data-entity-2="ent0010" data-link-type="dependency" id="lnk14"><polygon fill="#000000" points="197.0908,352.8427,206.9145,353.5471,201.7934,351.144,204.1965,346.0229,197.0908,352.8427" style="stroke:#000000;stroke-width:1;stroke-linejoin:miter;stroke-miterlimit:10;"/><path d="M296.3418,316.9908 C263.7,328.7818 231.7857,340.31 201.7934,351.144" fill="none" style="stroke:#000000;stroke-width:1;"/></g><g class="link" data-entity-1="ent0010" data-entity-2="ent0011" data-link-type="dependency" id="lnk15"><polygon fill="#000000" points="229.5249,434.9101,223.9844,426.7674,225.2756,432.2749,219.7681,433.5661,229.5249,434.9101" style="stroke:#000000;stroke-width:1;stroke-linejoin:miter;stroke-miterlimit:10;"/><path d="M171.5913,398.9823 C189.6388,410.1746 207.2445,421.0928 225.2756,432.2749" fill="none" style="stroke:#000000;stroke-width:1;"/></g><g class="link" data-entity-1="ent0008" data-entity-2="ent0012" data-link-type="dependency" id="lnk16"><polygon fill="#000000" points="381,352.7527,385,343.7527,381,347.7527,377,343.7527,381,352.7527" style="stroke:#000000;stroke-width:1;stroke-linejoin:miter;stroke-miterlimit:10;"/><path d="M381,317.3632 C381,329.027 381,337.0496 381,347.7527" fill="none" style="stroke:#000000;stroke-width:1;"/></g><g class="link" data-entity-1="ent0018" data-entity-2="ent0019" data-link-type="dependency" id="lnk21"><polygon fill="#000000" points="440.5748,605.9101,433.8735,598.6925,435.9778,603.9434,430.7269,606.0477,440.5748,605.9101" style="stroke:#000000;stroke-width:1;stroke-linejoin:miter;stroke-miterlimit:10;"/><path d="M356.5936,569.9823 C382.7555,581.1746 409.8396,592.7613 435.9778,603.9434" fill="none" style="stroke:#000000;stroke-width:1;"/></g><g class="link" data-entity-1="ent0018" data-entity-2="ent0020" data-link-type="dependency" id="lnk22"><polygon fill="#000000" points="297.0477,605.7452,302.2364,597.374,297.7288,600.7918,294.3109,596.2842,297.0477,605.7452" style="stroke:#000000;stroke-width:1;stroke-linejoin:miter;stroke-miterlimit:10;"/><path d="M301.9359,570.1946 C300.4102,581.2906 299.2522,589.7123 297.7288,600.7918" fill="none" style="stroke:#000000;stroke-width:1;"/></g><g class="link" data-entity-1="ent0011" data-entity-2="ent0018" data-link-type="dependency" id="lnk23"><polygon fill="#000000" points="294.8724,523.8826,294.7471,514.0345,292.7837,519.3397,287.4785,517.3764,294.8724,523.8826" style="stroke:#000000;stroke-width:1;stroke-linejoin:miter;stroke-miterlimit:10;"/><path d="M275.301,481.3148 C281.3194,494.4049 286.7953,506.315 292.7837,519.3397" fill="none" style="stroke:#000000;stroke-width:1;"/></g><g class="link" data-entity-1="ent0012" data-entity-2="ent0025" data-link-type="dependency" id="lnk29"><polygon fill="#000000" points="763.0204,434.8554,757.7035,426.565,758.8444,432.1056,753.3038,433.2465,763.0204,434.8554" style="stroke:#000000;stroke-width:1;stroke-linejoin:miter;stroke-miterlimit:10;"/><path d="M499.323,382.631 C577.3242,387.4398 671.8674,395.5427 710,407.9102 C728.7823,414.0018 743.7082,422.1386 758.8444,432.1056" fill="none" style="stroke:#000000;stroke-width:1;"/></g><g class="link" data-entity-1="ent0012" data-entity-2="ent0026" data-link-type="dependency" id="lnk30"><polygon fill="#000000" points="941.0656,434.9008,935.0236,427.123,936.659,432.5383,931.2436,434.1736,941.0656,434.9008" style="stroke:#000000;stroke-width:1;stroke-linejoin:miter;stroke-miterlimit:10;"/><path d="M499.2415,379.1083 C622.624,382.3303 807.4715,390.0325 876,407.9102 C898.6213,413.8116 917.8453,422.4519 936.659,432.5383" fill="none" style="stroke:#000000;stroke-width:1;"/></g><g class="link" data-entity-1="ent0025" data-entity-2="ent0010" data-link-type="dependency" id="lnk31"><polygon fill="#000000" points="245.1992,397.9233,253.652,402.9782,250.1628,398.5256,254.6155,395.0365,245.1992,397.9233" style="stroke:#000000;stroke-width:1;stroke-linejoin:miter;stroke-miterlimit:10;"/><path d="M763.97,434.7578 C748.762,424.5014 729.3173,413.3922 710,407.9102 C661.2486,394.0751 304.413,404.0717 254,398.9102 C251.0977,398.613 253.1235,398.8848 250.1628,398.5256" fill="none" style="stroke:#000000;stroke-width:1;"/></g><g class="link" data-entity-1="ent0026" data-entity-2="ent0010" data-link-type="dependency" id="lnk32"><polygon fill="#000000" points="245.1972,397.9438,253.6602,402.9815,250.162,398.536,254.6075,395.0378,245.1972,397.9438" style="stroke:#000000;stroke-width:1;stroke-linejoin:miter;stroke-miterlimit:10;"/><path d="M941.6544,434.6892 C922.7942,424.4153 898.9478,413.3112 876,407.9102 C808.72,392.0751 322.7772,405.769 254,398.9102 C251.0969,398.6206 253.1233,398.8891 250.162,398.536" fill="none" style="stroke:#000000;stroke-width:1;"/></g><g class="link" data-entity-1="ent0008" data-entity-2="ent0027" data-link-type="dependency" id="lnk33"><polygon fill="#000000" points="1129.2898,434.6984,1124.0748,426.3436,1125.1478,431.8977,1119.5937,432.9708,1129.2898,434.6984" style="stroke:#000000;stroke-width:1;stroke-linejoin:miter;stroke-miterlimit:10;"/><path d="M481.1077,291.8053 C619.7276,301.9287 876.095,330.3113 1080,407.9102 C1097.3465,414.5116 1110.9083,422.2695 1125.1478,431.8977" fill="none" style="stroke:#000000;stroke-width:1;"/></g><g class="link" data-entity-1="ent0019" data-entity-2="ent0028" data-link-type="dependency" id="lnk34"><polygon fill="#000000" points="596.3121,481.004,587.8401,486.0264,593.4173,485.0808,594.363,490.658,596.3121,481.004" style="stroke:#000000;stroke-width:1;stroke-linejoin:miter;stroke-miterlimit:10;"/><path d="M507.6918,605.8109 C530.6919,573.4191 570.4194,517.4695 593.4173,485.0808" fill="none" style="stroke:#000000;stroke-width:1;"/></g><g class="link" data-entity-1="ent0004" data-entity-2="ent0008" data-link-type="dependency" id="lnk35"><polygon fill="#000000" points="381,253.7006,385,244.7006,381,248.7006,377,244.7006,381,253.7006" style="stroke:#000000;stroke-width:1;stroke-linejoin:miter;stroke-miterlimit:10;"/><path d="M381,211.0598 C381,223.733 381,234.8221 381,248.7006" fill="none" style="stroke:#000000;stroke-width:1;"/></g><?plantuml-src XLHDRzim3BtxLt2vz1AtM3ysj8S1MRgjEMm8clQs2oipZb154YIwNL7ilq-IPSTEFtOm89BlYOyqgGEm4hnfdA0Bi2ZkiIP_94mbTLs6i-OZxyJHrbJ1BJMJGy7oWORdCaOFsL-Sdf-NPoSdq-Epqu_byQVFfyK1N9ANjGP7w8s-04yM7J91HMkf9KkZfr19Rv75PWgkqIot18_6tQ-LUPn2doS2KLSWb0og02kqZD5zM7pW3GMILIXryS4whBS82fzCm-2tnAYnyFTInzJRc1aRnT-DvbyOQ9CLQhyY9zUJ0Sfli3AFeGkmHkLf4BaBNQgTQNGrDyeuO1Vu8HHK5InP4NnjfE9IQfYRxJPgla5N4qVJ6XtLpvpOI2R1ZQEYO6E13TmPPXFqIKUftYB_3vXSzirABLXepwXKgdu2w64GVou0H9zdCZUEaXofivXvgDl9kuQDIzo867EkZEVtEH4nvepnMI2rwDuAb9WDolBBo1clstF-BNRLtsgvbbJrtOntPEbPNRXph-wLGh_9yMkgfMVtz5klD5g_CPpOdVjjuXATppMqnxUXbtc4Ctndxl-EXFxsXqGJVzUFi0g940-lGkFCA8hOCA8FKlILPsyWjTfI0qTvkm9VHdP6YkNa8_mWm_1VzADztMvgsycyjS_lpSHL-Bg9oESnV6QjaY8DDUHQVK9tnglzMUpUXpnilHqdgqsKAXfSCtIF2R4LoTr971O_pqzFcC6bCso4KJ2Bxn2vLcaByFkDMEpUof_XgKpGczl5Y_9t4vxkIRZPShctdQHinhMz3FOOSVDamxPSB-TZSS6H5h3xhwdCLiQUiyqPGYyd9uJ-CsXPJzVjv8kfGoFxzMwTcVKF?></g></svg>