<svg xmlns="http://www.w3.org/2000/svg" xmlns:xlink="http://www.w3.org/1999/xlink" contentStyleType="text/css" data-diagram-type="DESCRIPTION" height="303px" preserveAspectRatio="none" style="width:1251px;height:303px;" version="1.1" viewBox="0 0 1251 303" width="1251px" zoomAndPan="magnify"><?plantuml 1.2026.6?><defs/><g><g class="title" data-source-line="176"><text fill="#000000" font-family="'sans-serif'" font-size="22" font-weight="700" lengthAdjust="spacing" textLength="331.4072" x="458.7964" y="36.2695">Target Dependency Direction</text></g><!--entity tui--><g class="entity" data-qualified-name="tui" data-source-line="179" id="ent0001"><rect fill="#FFFFFF" height="46.4883" rx="2.5" ry="2.5" style="stroke:#000000;stroke-width:1;" width="103.5947" x="40.5" y="63.9102"/><rect fill="#FFFFFF" height="10" style="stroke:#000000;stroke-width:1;" width="15" x="124.0947" y="68.9102"/><rect fill="#FFFFFF" height="2" style="stroke:#000000;stroke-width:1;" width="4" x="122.0947" y="70.9102"/><rect fill="#FFFFFF" height="2" style="stroke:#000000;stroke-width:1;" width="4" x="122.0947" y="74.9102"/><text fill="#000000" font-family="'sans-serif'" font-size="14" lengthAdjust="spacing" textLength="63.5947" x="55.5" y="97.4453">mode/tui</text></g><!--entity app--><g class="entity" data-qualified-name="app" data-source-line="180" id="ent0002"><rect fill="#FFFFFF" height="46.4883" rx="2.5" ry="2.5" style="stroke:#000000;stroke-width:1;" width="106.7734" x="39" y="127.9102"/><rect fill="#FFFFFF" height="10" style="stroke:#000000;stroke-width:1;" width="15" x="125.7734" y="132.9102"/><rect fill="#FFFFFF" height="2" style="stroke:#000000;stroke-width:1;" width="4" x="123.7734" y="134.9102"/><rect fill="#FFFFFF" height="2" style="stroke:#000000;stroke-width:1;" width="4" x="123.7734" y="138.9102"/><text fill="#000000" font-family="'sans-serif'" font-size="14" lengthAdjust="spacing" textLength="66.7734" x="54" y="161.4453">app client</text></g><!--entity command--><g class="entity" data-qualified-name="command" data-source-line="181" id="ent0003"><rect fill="#FFFFFF" height="46.4883" rx="2.5" ry="2.5" style="stroke:#000000;stroke-width:1;" width="212.3545" x="211" y="159.9102"/><rect fill="#FFFFFF" height="10" style="stroke:#000000;stroke-width:1;" width="15" x="403.3545" y="164.9102"/><rect fill="#FFFFFF" height="2" style="stroke:#000000;stroke-width:1;" width="4" x="401.3545" y="166.9102"/><rect fill="#FFFFFF" height="2" style="stroke:#000000;stroke-width:1;" width="4" x="401.3545" y="170.9102"/><text fill="#000000" font-family="'sans-serif'" font-size="14" lengthAdjust="spacing" textLength="172.3545" x="226" y="193.4453">command application API</text></g><!--entity session--><g class="entity" data-qualified-name="session" data-source-line="182" id="ent0004"><rect fill="#FFFFFF" height="46.4883" rx="2.5" ry="2.5" style="stroke:#000000;stroke-width:1;" width="286.4561" x="604" y="112.9102"/><rect fill="#FFFFFF" height="10" style="stroke:#000000;stroke-width:1;" width="15" x="870.4561" y="117.9102"/><rect fill="#FFFFFF" height="2" style="stroke:#000000;stroke-width:1;" width="4" x="868.4561" y="119.9102"/><rect fill="#FFFFFF" height="2" style="stroke:#000000;stroke-width:1;" width="4" x="868.4561" y="123.9102"/><text fill="#000000" font-family="'sans-serif'" font-size="14" lengthAdjust="spacing" textLength="246.4561" x="619" y="146.4453">session/model/auth/reload services</text></g><!--entity builtin--><g class="entity" data-qualified-name="builtin" data-source-line="183" id="ent0005"><rect fill="#FFFFFF" height="46.4883" rx="2.5" ry="2.5" style="stroke:#000000;stroke-width:1;" width="158.0498" x="13.5" y="191.9102"/><rect fill="#FFFFFF" height="10" style="stroke:#000000;stroke-width:1;" width="15" x="151.5498" y="196.9102"/><rect fill="#FFFFFF" height="2" style="stroke:#000000;stroke-width:1;" width="4" x="149.5498" y="198.9102"/><rect fill="#FFFFFF" height="2" style="stroke:#000000;stroke-width:1;" width="4" x="149.5498" y="202.9102"/><text fill="#000000" font-family="'sans-serif'" font-size="14" lengthAdjust="spacing" textLength="118.0498" x="28.5" y="225.4453">command/builtin</text></g><!--entity extension--><g class="entity" data-qualified-name="extension" data-source-line="184" id="ent0006"><rect fill="#FFFFFF" height="46.4883" rx="2.5" ry="2.5" style="stroke:#000000;stroke-width:1;" width="162.8623" x="11" y="255.9102"/><rect fill="#FFFFFF" height="10" style="stroke:#000000;stroke-width:1;" width="15" x="153.8623" y="260.9102"/><rect fill="#FFFFFF" height="2" style="stroke:#000000;stroke-width:1;" width="4" x="151.8623" y="262.9102"/><rect fill="#FFFFFF" height="2" style="stroke:#000000;stroke-width:1;" width="4" x="151.8623" y="266.9102"/><text fill="#000000" font-family="'sans-serif'" font-size="14" lengthAdjust="spacing" textLength="122.8623" x="26" y="289.4453">extension adapter</text></g><!--entity tuiConcrete--><g class="entity" data-qualified-name="tuiConcrete" data-source-line="185" id="ent0007"><rect fill="#FFFFFF" height="46.4883" rx="2.5" ry="2.5" style="stroke:#000000;stroke-width:1;" width="211.3359" x="641.5" y="176.9102"/><rect fill="#FFFFFF" height="10" style="stroke:#000000;stroke-width:1;" width="15" x="832.8359" y="181.9102"/><rect fill="#FFFFFF" height="2" style="stroke:#000000;stroke-width:1;" width="4" x="830.8359" y="183.9102"/><rect fill="#FFFFFF" height="2" style="stroke:#000000;stroke-width:1;" width="4" x="830.8359" y="187.9102"/><text fill="#000000" font-family="'sans-serif'" font-size="14" lengthAdjust="spacing" textLength="171.3359" x="656.5" y="210.4453">Concrete TUI Component</text></g><!--entity slashText--><g class="entity" data-qualified-name="slashText" data-source-line="186" id="ent0008"><rect fill="#FFFFFF" height="46.4883" rx="2.5" ry="2.5" style="stroke:#000000;stroke-width:1;" width="164.2773" x="1071" y="112.9102"/><rect fill="#FFFFFF" height="10" style="stroke:#000000;stroke-width:1;" width="15" x="1215.2773" y="117.9102"/><rect fill="#FFFFFF" height="2" style="stroke:#000000;stroke-width:1;" width="4" x="1213.2773" y="119.9102"/><rect fill="#FFFFFF" height="2" style="stroke:#000000;stroke-width:1;" width="4" x="1213.2773" y="123.9102"/><text fill="#000000" font-family="'sans-serif'" font-size="14" lengthAdjust="spacing" textLength="124.2773" x="1086" y="146.4453">Slash Text Parsing</text></g><g class="link" data-entity-1="ent0001" data-entity-2="ent0003" data-link-type="dependency" id="lnk9"><polygon fill="#000000" points="266.2968,159.8476,259.7789,152.4641,261.7507,157.7662,256.4486,159.738,266.2968,159.8476" style="stroke:#000000;stroke-width:1;stroke-linejoin:miter;stroke-miterlimit:10;"/><path d="M144.7438,106.8791 C154.4906,110.7906 164.5841,114.9192 174,118.9102 C204.8722,131.9955 234.6067,145.3386 261.7507,157.7662" fill="none" style="stroke:#000000;stroke-width:1;"/></g><g class="link" data-entity-1="ent0002" data-entity-2="ent0003" data-link-type="dependency" id="lnk10"><polygon fill="#000000" points="210.7592,167.7744,202.4203,162.5339,205.8102,167.0626,201.2815,170.4525,210.7592,167.7744" style="stroke:#000000;stroke-width:1;stroke-linejoin:miter;stroke-miterlimit:10;"/><path d="M146.2294,158.4937 C165.6342,161.2845 183.4105,163.8411 205.8102,167.0626" fill="none" style="stroke:#000000;stroke-width:1;"/></g><g class="link" data-entity-1="ent0003" data-entity-2="ent0004" data-link-type="dependency" id="lnk11"><polygon fill="#000000" points="603.8895,148.7198,594.548,145.5994,598.9125,149.1983,595.3137,153.5627,603.8895,148.7198" style="stroke:#000000;stroke-width:1;stroke-linejoin:miter;stroke-miterlimit:10;"/><path d="M423.3083,168.0782 C429.2907,167.322 435.2198,166.5936 441,165.9102 C494.103,159.6313 547.5407,154.1373 598.9125,149.1983" fill="none" style="stroke:#000000;stroke-width:1;"/></g><g class="link" data-entity-1="ent0005" data-entity-2="ent0003" data-link-type="dependency" id="lnk12"><polygon fill="#000000" points="210.7179,198.0518,201.2402,195.3738,205.7688,198.7636,202.379,203.2923,210.7179,198.0518" style="stroke:#000000;stroke-width:1;stroke-linejoin:miter;stroke-miterlimit:10;"/><path d="M171.6323,203.6731 C184.2792,201.8543 192.6054,200.6568 205.7688,198.7636" fill="none" style="stroke:#000000;stroke-width:1;"/></g><g class="link" data-entity-1="ent0006" data-entity-2="ent0003" data-link-type="dependency" id="lnk13"><polygon fill="#000000" points="266.2968,205.9727,256.4486,206.0823,261.7507,208.0541,259.7789,213.3562,266.2968,205.9727" style="stroke:#000000;stroke-width:1;stroke-linejoin:miter;stroke-miterlimit:10;"/><path d="M152.5378,255.796 C159.7867,252.8537 167.0765,249.8447 174,246.9102 C204.8722,233.8248 234.6067,220.4817 261.7507,208.0541" fill="none" style="stroke:#000000;stroke-width:1;"/></g><g class="link" data-entity-1="ent0003" data-entity-2="ent0007" data-link-type="dependency" id="lnk14"><polygon fill="#000000" points="641.1582,195.7459,632.324,191.3918,636.1621,195.5474,632.0065,199.3855,641.1582,195.7459" style="stroke:#000000;stroke-width:1;stroke-linejoin:miter;stroke-miterlimit:10;"/><path d="M423.2487,187.0906 C489.5823,189.7253 569.9064,192.9158 636.1621,195.5474" fill="none" style="stroke:#000000;stroke-width:1;stroke-dasharray:7,7;"/><text fill="#000000" font-family="'sans-serif'" font-size="13" lengthAdjust="spacing" textLength="141.6733" x="443" y="184.4785">forbidden dependency</text></g><g class="link" data-entity-1="ent0004" data-entity-2="ent0008" data-link-type="dependency" id="lnk15"><polygon fill="#000000" points="1070.9014,135.9102,1061.9014,131.9102,1065.9014,135.9102,1061.9014,139.9102,1070.9014,135.9102" style="stroke:#000000;stroke-width:1;stroke-linejoin:miter;stroke-miterlimit:10;"/><path d="M890.1512,135.9102 C950.7182,135.9102 1014.1763,135.9102 1065.9014,135.9102" fill="none" style="stroke:#000000;stroke-width:1;stroke-dasharray:7,7;"/><text fill="#000000" font-family="'sans-serif'" font-size="13" lengthAdjust="spacing" textLength="141.6733" x="910" y="131.4785">forbidden dependency</text></g><?plantuml-src TL9DRzim3BtxLx2vzEGOAxeDoA70a690BaE1f3-0aMXRY2mA4fqi_twKvwGUq9r4yJr-FV8HeeFCOpAqWOZcX1tbnh1reQlL3jBaP9g1hRfT44fen9rfQTS5NKlUF7rz_b8_VVl-N3t2AsNN1KY4cSD6tu7F1D9JANXutzN2zONJgVLy0SDZz5eHC5Y8YSvQ5ygJCe6bIC5IC8uoS83t7N22x37t8FHRrjM3fXqqiKSNgeUOi1iGF5vv5CW32GQiyic5Y0a7pTVYwEKd1_c56hRQOyXxIgvTBLYvHykNqbEBFjC2EQfANU8ns2rxxKIInYkaFLVYn1CSC7KaAi7S-1LUNIBLYaDLUMe5X26vhXUmTy3m43cKmLT5pqP6jmBCeEyImnZ1UAVsXEftYQev50tLxPt1aXX-lEqcwemjwPboLigqNj_WA7sJo3DQo9JEpb2U8cVQ9uMQu-Yyk33HPdj9q_LGAB605gDUp4IyUvVKBGUJIAWS1snl_fi4DtGPiPzEuA3Pu0rJrbtzxRQuYxUgD13g-kK-UX5l-R_9LNot8USf_k5zZF5Pz7hzicmHDj1oEZghg_yutcir5vZeznx_G_u3?></g></svg>