<svg xmlns="http://www.w3.org/2000/svg" xmlns:xlink="http://www.w3.org/1999/xlink" contentStyleType="text/css" data-diagram-type="DESCRIPTION" height="323px" preserveAspectRatio="none" style="width:1022px;height:323px;" version="1.1" viewBox="0 0 1022 323" width="1022px" zoomAndPan="magnify"><?plantuml 1.2026.6?><defs/><g><g class="title" data-source-line="176"><text fill="#000000" font-family="'PingFang SC'" font-size="22" font-weight="700" lengthAdjust="spacing" textLength="132" x="444" y="38.32">&#30446;&#26631;&#20381;&#36182;&#26041;&#21521;</text></g><!--entity tui--><g class="entity" data-qualified-name="tui" data-source-line="179" id="ent0001"><rect fill="#FFFFFF" height="49.6" rx="2.5" ry="2.5" style="stroke:#000000;stroke-width:1;" width="99.3923" x="40" y="68.8"/><rect fill="#FFFFFF" height="10" style="stroke:#000000;stroke-width:1;" width="15" x="119.3923" y="73.8"/><rect fill="#FFFFFF" height="2" style="stroke:#000000;stroke-width:1;" width="4" x="117.3923" y="75.8"/><rect fill="#FFFFFF" height="2" style="stroke:#000000;stroke-width:1;" width="4" x="117.3923" y="79.8"/><text fill="#000000" font-family="'PingFang SC'" font-size="14" lengthAdjust="spacing" textLength="59.3923" x="55" y="103.64">mode/tui</text></g><!--entity app--><g class="entity" data-qualified-name="app" data-source-line="180" id="ent0002"><rect fill="#FFFFFF" height="49.6" rx="2.5" ry="2.5" style="stroke:#000000;stroke-width:1;" width="104.0753" x="37.5" y="136.8"/><rect fill="#FFFFFF" height="10" style="stroke:#000000;stroke-width:1;" width="15" x="121.5753" y="141.8"/><rect fill="#FFFFFF" height="2" style="stroke:#000000;stroke-width:1;" width="4" x="119.5753" y="143.8"/><rect fill="#FFFFFF" height="2" style="stroke:#000000;stroke-width:1;" width="4" x="119.5753" y="147.8"/><text fill="#000000" font-family="'PingFang SC'" font-size="14" lengthAdjust="spacing" textLength="64.0753" x="52.5" y="171.64">app client</text></g><!--entity command--><g class="entity" data-qualified-name="command" data-source-line="181" id="ent0003"><rect fill="#FFFFFF" height="49.6" rx="2.5" ry="2.5" style="stroke:#000000;stroke-width:1;" width="205.8988" x="205" y="170.8"/><rect fill="#FFFFFF" height="10" style="stroke:#000000;stroke-width:1;" width="15" x="390.8988" y="175.8"/><rect fill="#FFFFFF" height="2" style="stroke:#000000;stroke-width:1;" width="4" x="388.8988" y="177.8"/><rect fill="#FFFFFF" height="2" style="stroke:#000000;stroke-width:1;" width="4" x="388.8988" y="181.8"/><text fill="#000000" font-family="'PingFang SC'" font-size="14" lengthAdjust="spacing" textLength="165.8988" x="220" y="205.64">command application API</text></g><!--entity session--><g class="entity" data-qualified-name="session" data-source-line="182" id="ent0004"><rect fill="#FFFFFF" height="49.6" rx="2.5" ry="2.5" style="stroke:#000000;stroke-width:1;" width="274.9398" x="503" y="120.8"/><rect fill="#FFFFFF" height="10" style="stroke:#000000;stroke-width:1;" width="15" x="757.9398" y="125.8"/><rect fill="#FFFFFF" height="2" style="stroke:#000000;stroke-width:1;" width="4" x="755.9398" y="127.8"/><rect fill="#FFFFFF" height="2" style="stroke:#000000;stroke-width:1;" width="4" x="755.9398" y="131.8"/><text fill="#000000" font-family="'PingFang SC'" font-size="14" lengthAdjust="spacing" textLength="234.9398" x="518" y="155.64">session/model/auth/reload services</text></g><!--entity builtin--><g class="entity" data-qualified-name="builtin" data-source-line="183" id="ent0005"><rect fill="#FFFFFF" height="49.6" rx="2.5" ry="2.5" style="stroke:#000000;stroke-width:1;" width="149.9099" x="14.5" y="204.8"/><rect fill="#FFFFFF" height="10" style="stroke:#000000;stroke-width:1;" width="15" x="144.4099" y="209.8"/><rect fill="#FFFFFF" height="2" style="stroke:#000000;stroke-width:1;" width="4" x="142.4099" y="211.8"/><rect fill="#FFFFFF" height="2" style="stroke:#000000;stroke-width:1;" width="4" x="142.4099" y="215.8"/><text fill="#000000" font-family="'PingFang SC'" font-size="14" lengthAdjust="spacing" textLength="109.9099" x="29.5" y="239.64">command/builtin</text></g><!--entity extension--><g class="entity" data-qualified-name="extension" data-source-line="184" id="ent0006"><rect fill="#FFFFFF" height="49.6" rx="2.5" ry="2.5" style="stroke:#000000;stroke-width:1;" width="156.8581" x="11" y="272.8"/><rect fill="#FFFFFF" height="10" style="stroke:#000000;stroke-width:1;" width="15" x="147.8581" y="277.8"/><rect fill="#FFFFFF" height="2" style="stroke:#000000;stroke-width:1;" width="4" x="145.8581" y="279.8"/><rect fill="#FFFFFF" height="2" style="stroke:#000000;stroke-width:1;" width="4" x="145.8581" y="283.8"/><text fill="#000000" font-family="'PingFang SC'" font-size="14" lengthAdjust="spacing" textLength="116.8581" x="26" y="307.64">extension adapter</text></g><!--entity tuiConcrete--><g class="entity" data-qualified-name="tuiConcrete" data-source-line="185" id="ent0007"><rect fill="#FFFFFF" height="49.6" rx="2.5" ry="2.5" style="stroke:#000000;stroke-width:1;" width="174.5695" x="553" y="188.8"/><rect fill="#FFFFFF" height="10" style="stroke:#000000;stroke-width:1;" width="15" x="707.5695" y="193.8"/><rect fill="#FFFFFF" height="2" style="stroke:#000000;stroke-width:1;" width="4" x="705.5695" y="195.8"/><rect fill="#FFFFFF" height="2" style="stroke:#000000;stroke-width:1;" width="4" x="705.5695" y="199.8"/><text fill="#000000" font-family="'PingFang SC'" font-size="14" lengthAdjust="spacing" textLength="134.5695" x="568" y="223.64">&#20855;&#20307; TUI Component</text></g><!--entity slashText--><g class="entity" data-qualified-name="slashText" data-source-line="186" id="ent0008"><rect fill="#FFFFFF" height="49.6" rx="2.5" ry="2.5" style="stroke:#000000;stroke-width:1;" width="135.5542" x="870" y="120.8"/><rect fill="#FFFFFF" height="10" style="stroke:#000000;stroke-width:1;" width="15" x="985.5542" y="125.8"/><rect fill="#FFFFFF" height="2" style="stroke:#000000;stroke-width:1;" width="4" x="983.5542" y="127.8"/><rect fill="#FFFFFF" height="2" style="stroke:#000000;stroke-width:1;" width="4" x="983.5542" y="131.8"/><text fill="#000000" font-family="'PingFang SC'" font-size="14" lengthAdjust="spacing" textLength="95.5542" x="885" y="155.64">Slash &#25991;&#26412;&#35299;&#26512;</text></g><g class="link" data-entity-1="ent0001" data-entity-2="ent0003" data-link-type="dependency" id="lnk9"><polygon fill="#000000" points="257.0569,170.7444,250.7696,163.1635,252.577,168.5238,247.2167,170.3312,257.0569,170.7444" style="stroke:#000000;stroke-width:1;stroke-linejoin:miter;stroke-miterlimit:10;"/><path d="M139.0087,114.7117 C148.647,118.9706 158.6695,123.4733 168,127.8 C197.7338,141.588 226.2163,155.4574 252.577,168.5238" fill="none" style="stroke:#000000;stroke-width:1;"/></g><g class="link" data-entity-1="ent0002" data-entity-2="ent0003" data-link-type="dependency" id="lnk10"><polygon fill="#000000" points="204.8075,179.7513,196.537,174.4034,199.868,178.9756,195.2959,182.3066,204.8075,179.7513" style="stroke:#000000;stroke-width:1;stroke-linejoin:miter;stroke-miterlimit:10;"/><path d="M141.5333,169.8145 C160.5354,172.7986 177.8988,175.5255 199.868,178.9756" fill="none" style="stroke:#000000;stroke-width:1;"/></g><g class="link" data-entity-1="ent0003" data-entity-2="ent0004" data-link-type="dependency" id="lnk11"><polygon fill="#000000" points="502.7396,165.7211,493.2504,163.0838,497.7936,166.4541,494.4233,170.9974,502.7396,165.7211" style="stroke:#000000;stroke-width:1;stroke-linejoin:miter;stroke-miterlimit:10;"/><path d="M411.1145,179.5549 C417.1651,178.6163 423.1618,177.6921 429,176.8 C452.8264,173.1594 473.2361,170.0938 497.7936,166.4541" fill="none" style="stroke:#000000;stroke-width:1;"/></g><g class="link" data-entity-1="ent0005" data-entity-2="ent0003" data-link-type="dependency" id="lnk12"><polygon fill="#000000" points="204.9522,211.826,195.4406,209.2707,200.0128,212.6017,196.6818,217.1738,204.9522,211.826" style="stroke:#000000;stroke-width:1;stroke-linejoin:miter;stroke-miterlimit:10;"/><path d="M164.7041,218.1467 C177.6793,216.109 186.4415,214.733 200.0128,212.6017" fill="none" style="stroke:#000000;stroke-width:1;"/></g><g class="link" data-entity-1="ent0006" data-entity-2="ent0003" data-link-type="dependency" id="lnk13"><polygon fill="#000000" points="257.0569,220.8556,247.2167,221.2688,252.577,223.0762,250.7696,228.4365,257.0569,220.8556" style="stroke:#000000;stroke-width:1;stroke-linejoin:miter;stroke-miterlimit:10;"/><path d="M148.5956,272.6261 C155.1585,269.6895 161.7352,266.7051 168,263.8 C197.7338,250.012 226.2163,236.1426 252.577,223.0762" fill="none" style="stroke:#000000;stroke-width:1;"/></g><g class="link" data-entity-1="ent0003" data-entity-2="ent0007" data-link-type="dependency" id="lnk14"><polygon fill="#000000" points="552.9733,209.0875,544.2041,204.604,547.9807,208.8156,543.769,212.5921,552.9733,209.0875" style="stroke:#000000;stroke-width:1;stroke-linejoin:miter;stroke-miterlimit:10;"/><path d="M411.3089,201.372 C456.7131,203.8449 504.5779,206.4517 547.9807,208.8156" fill="none" style="stroke:#000000;stroke-width:1;stroke-dasharray:7,7;"/><text fill="#000000" font-family="'PingFang SC'" font-size="13" lengthAdjust="spacing" textLength="52" x="431" y="196.58">&#31105;&#27490;&#20381;&#36182;</text></g><g class="link" data-entity-1="ent0004" data-entity-2="ent0008" data-link-type="dependency" id="lnk15"><polygon fill="#000000" points="869.8411,145.8,860.8411,141.8,864.8411,145.8,860.8411,149.8,869.8411,145.8" style="stroke:#000000;stroke-width:1;stroke-linejoin:miter;stroke-miterlimit:10;"/><path d="M778.0053,145.8 C809.9134,145.8 837.525,145.8 864.8411,145.8" fill="none" style="stroke:#000000;stroke-width:1;stroke-dasharray:7,7;"/><text fill="#000000" font-family="'PingFang SC'" font-size="13" lengthAdjust="spacing" textLength="52" x="798" y="139.58">&#31105;&#27490;&#20381;&#36182;</text></g><?plantuml-src RLBDRXCn4BxxAQQvzBHPKHMGSgY4WYhbWYgrVO2fTxAnuhKjsvl0aGFgjGWf5tw4G88BS4E80pnDk-rZCDucmQ2UPZpVD_FDZtV1AGYszP96u53EiQPGIbifKnVicrW6Byl6LXnM9f976TM2Shz8w326qTxz_Nl5teE7-s8N7bDGjG5F6AmPiMtiWY3EA0cUd4wAQ8kbzVEfjakGjdMQ5G5D1SxJWdKX6Hy8Ad9aAZ9IKG1hu7G2raFG66OGwMaSYXqkst1XZSg87UUnRX0qFhDjXD1GH8CYp9LnwB7XUbDiTJoq9Zv1JXiSiV8XilhnU93nmWmhkqnTJL47of0ptbFjRMkgiTNSI_He0aFSjOWgQeBhrz-wz-UNlz_UV5zrgvzN5o-5q3ID42ruLSyYLCeJRyyQ8MtZh4aJ3z8YozYg0M00jZc6pe7KYlqUvMUEijkavN5OAucfC3mwclJKDPRJ0uN0bFwkkiGspafFsc85WVn2IGfzvffsXr1vrYeTbUbfQp-dyLt8f5p02Xr_bPwuZURKgnS_Bd-zIdy2nflePW5ZQwIdI3d_kBzyjphltdov-VonUtTnssiAdx2249m8HN6m7JojBdzlbfLYcn7NC_p3-pl4NTd3uK7U8epW-jFpxkk7swkBTU6UjktjFz8V?></g></svg>