<svg xmlns="http://www.w3.org/2000/svg" xmlns:xlink="http://www.w3.org/1999/xlink" contentStyleType="text/css" data-diagram-type="CLASS" height="926px" preserveAspectRatio="none" style="width:1398px;height:926px;" version="1.1" viewBox="0 0 1398 926" width="1398px" zoomAndPan="magnify"><?plantuml 1.2026.6?><defs/><g><g class="title" data-source-line="207"><text fill="#000000" font-family="'PingFang SC'" font-size="22" font-weight="700" lengthAdjust="spacing" textLength="358.4581" x="519.021" y="38.32">Built-in Command &#23450;&#20041;&#19982;&#20869;&#37096;&#27169;&#22411;</text></g><!--class BuiltinCommandDefinition--><g class="entity" data-qualified-name="BuiltinCommandDefinition" data-source-line="209" id="ent0001"><rect fill="#FFFFFF" height="158.184" rx="2.5" ry="2.5" style="stroke:#000000;stroke-width:1;" width="385.9346" x="483.5" y="368.8"/><ellipse cx="587.9521" cy="390.892" fill="#FFFFFF" rx="9" ry="9" style="stroke:#000000;stroke-width:1;"/><path d="M590.4253,397.0351 Q589.8442,397.3339 589.2051,397.4833 Q588.5659,397.6327 587.8603,397.6327 Q585.3535,397.6327 584.0337,395.9809 Q582.7138,394.329 582.7138,391.2079 Q582.7138,388.0785 584.0337,386.4267 Q585.3535,384.7748 587.8603,384.7748 Q588.5659,384.7748 589.2134,384.9242 Q589.8608,385.0736 590.4253,385.3725 L590.4253,388.0951 Q589.7944,387.5141 589.2009,387.2443 Q588.6074,386.9745 587.9765,386.9745 Q586.6318,386.9745 585.947,388.0412 Q585.2622,389.1078 585.2622,391.2079 Q585.2622,393.2997 585.947,394.3664 Q586.6318,395.433 587.9765,395.433 Q588.6074,395.433 589.2009,395.1632 Q589.7944,394.8935 590.4253,394.3124 Z " fill="#000000"/><text fill="#000000" font-family="Verdana" font-size="12" font-style="italic" lengthAdjust="spacing" textLength="53.8711" x="663.2818" y="385.8645">&#171;record&#187;</text><text fill="#000000" font-family="'PingFang SC'" font-size="14" lengthAdjust="spacing" textLength="169.5304" x="605.4521" y="403.224">BuiltinCommandDefinition</text><line style="stroke:#000000;stroke-width:1;" x1="484.5" x2="868.4346" y1="412.984" y2="412.984"/><text fill="#000000" font-family="'PingFang SC'" font-size="14" lengthAdjust="spacing" textLength="87.1053" x="489.5" y="431.824">+String name</text><text fill="#000000" font-family="'PingFang SC'" font-size="14" lengthAdjust="spacing" textLength="123.9589" x="489.5" y="451.424">+String description</text><text fill="#000000" font-family="'PingFang SC'" font-size="14" lengthAdjust="spacing" textLength="283.5899" x="489.5" y="471.024">+CommandExecutionPolicy executionPolicy</text><text fill="#000000" font-family="'PingFang SC'" font-size="14" lengthAdjust="spacing" textLength="373.9346" x="489.5" y="490.624">+SlashCommandArgumentCompleter argumentCompleter</text><text fill="#000000" font-family="'PingFang SC'" font-size="14" lengthAdjust="spacing" textLength="217.9998" x="489.5" y="510.224">+BuiltinCommandHandler handler</text><line style="stroke:#000000;stroke-width:1;" x1="484.5" x2="868.4346" y1="518.984" y2="518.984"/></g><!--class CommandExecutionPolicy--><g class="entity" data-qualified-name="CommandExecutionPolicy" data-source-line="217" id="ent0002"><rect fill="#FFFFFF" height="138.584" rx="2.5" ry="2.5" style="stroke:#000000;stroke-width:1;" width="268.6692" x="77" y="584.8"/><ellipse cx="123.0798" cy="606.892" fill="#FFFFFF" rx="9" ry="9" style="stroke:#000000;stroke-width:1;"/><path d="M125.553,613.0351 Q124.9719,613.3339 124.3327,613.4833 Q123.6936,613.6327 122.988,613.6327 Q120.4812,613.6327 119.1614,611.9809 Q117.8415,610.329 117.8415,607.2079 Q117.8415,604.0785 119.1614,602.4267 Q120.4812,600.7748 122.988,600.7748 Q123.6936,600.7748 124.341,600.9242 Q124.9885,601.0736 125.553,601.3725 L125.553,604.0951 Q124.9221,603.5141 124.3286,603.2443 Q123.7351,602.9745 123.1042,602.9745 Q121.7595,602.9745 121.0747,604.0412 Q120.3899,605.1078 120.3899,607.2079 Q120.3899,609.2997 121.0747,610.3664 Q121.7595,611.433 123.1042,611.433 Q123.7351,611.433 124.3286,611.1632 Q124.9221,610.8935 125.553,610.3124 Z " fill="#000000"/><text fill="#000000" font-family="Verdana" font-size="12" font-style="italic" lengthAdjust="spacing" textLength="53.8711" x="198.1491" y="601.8645">&#171;record&#187;</text><text fill="#000000" font-family="'PingFang SC'" font-size="14" lengthAdjust="spacing" textLength="169.0096" x="140.5798" y="619.224">CommandExecutionPolicy</text><line style="stroke:#000000;stroke-width:1;" x1="78" x2="344.6692" y1="628.984" y2="628.984"/><text fill="#000000" font-family="'PingFang SC'" font-size="14" lengthAdjust="spacing" textLength="256.6692" x="83" y="647.824">+BuiltinCommandExecutionMode mode</text><text fill="#000000" font-family="'PingFang SC'" font-size="14" lengthAdjust="spacing" textLength="241.2328" x="83" y="667.424">+CommandConcurrency concurrency</text><text fill="#000000" font-family="'PingFang SC'" font-size="14" lengthAdjust="spacing" textLength="136.9145" x="83" y="687.024">+boolean cancellable</text><text fill="#000000" font-family="'PingFang SC'" font-size="14" lengthAdjust="spacing" textLength="189.3641" x="83" y="706.624">+Optional&lt;Duration&gt; timeout</text><line style="stroke:#000000;stroke-width:1;" x1="78" x2="344.6692" y1="715.384" y2="715.384"/></g><!--class BuiltinCommandExecutionMode--><g class="entity" data-qualified-name="BuiltinCommandExecutionMode" data-source-line="224" id="ent0003"><rect fill="#FFFFFF" height="143.6" rx="2.5" ry="2.5" style="stroke:#000000;stroke-width:1;" width="235.49" x="206" y="781.8"/><ellipse cx="219" cy="796.6" fill="#FFFFFF" rx="9" ry="9" style="stroke:#000000;stroke-width:1;"/><path d="M222.6143,803.1 L214.8945,803.1 L214.8945,790.7069 L222.6143,790.7069 L222.6143,792.8651 L217.3433,792.8651 L217.3433,795.538 L222.1162,795.538 L222.1162,797.6962 L217.3433,797.6962 L217.3433,800.9418 L222.6143,800.9418 Z " fill="#000000"/><text fill="#000000" font-family="'PingFang SC'" font-size="14" lengthAdjust="spacing" textLength="207.49" x="231" y="801.64">BuiltinCommandExecutionMode</text><line style="stroke:#000000;stroke-width:1;" x1="207" x2="440.49" y1="811.4" y2="811.4"/><text fill="#000000" font-family="'PingFang SC'" font-size="14" lengthAdjust="spacing" textLength="76.9777" x="212" y="830.24">IMMEDIATE</text><text fill="#000000" font-family="'PingFang SC'" font-size="14" lengthAdjust="spacing" textLength="98.2577" x="212" y="849.84">REQUIRE_IDLE</text><text fill="#000000" font-family="'PingFang SC'" font-size="14" lengthAdjust="spacing" textLength="174.6767" x="212" y="869.44">ABORT_AGENT_AND_RUN</text><text fill="#000000" font-family="'PingFang SC'" font-size="14" lengthAdjust="spacing" textLength="152.2585" x="212" y="889.04">RUNTIME_TRANSITION</text><text fill="#000000" font-family="'PingFang SC'" font-size="14" lengthAdjust="spacing" textLength="81.3862" x="212" y="908.64">SHUTDOWN</text><line style="stroke:#000000;stroke-width:1;" x1="207" x2="440.49" y1="917.4" y2="917.4"/></g><!--class CommandConcurrency--><g class="entity" data-qualified-name="CommandConcurrency" data-source-line="232" id="ent0004"><rect fill="#FFFFFF" height="84.8" rx="2.5" ry="2.5" style="stroke:#000000;stroke-width:1;" width="176.5219" x="11" y="811.3"/><ellipse cx="24" cy="826.1" fill="#FFFFFF" rx="9" ry="9" style="stroke:#000000;stroke-width:1;"/><path d="M27.6143,832.6 L19.8945,832.6 L19.8945,820.2069 L27.6143,820.2069 L27.6143,822.3651 L22.3433,822.3651 L22.3433,825.038 L27.1162,825.038 L27.1162,827.1962 L22.3433,827.1962 L22.3433,830.4418 L27.6143,830.4418 Z " fill="#000000"/><text fill="#000000" font-family="'PingFang SC'" font-size="14" lengthAdjust="spacing" textLength="148.5219" x="36" y="831.14">CommandConcurrency</text><line style="stroke:#000000;stroke-width:1;" x1="12" x2="186.5219" y1="840.9" y2="840.9"/><text fill="#000000" font-family="'PingFang SC'" font-size="14" lengthAdjust="spacing" textLength="56.4718" x="17" y="859.74">SHARED</text><text fill="#000000" font-family="'PingFang SC'" font-size="14" lengthAdjust="spacing" textLength="76.3561" x="17" y="879.34">EXCLUSIVE</text><line style="stroke:#000000;stroke-width:1;" x1="12" x2="186.5219" y1="888.1" y2="888.1"/></g><!--class SlashCommandArgumentCompleter--><g class="entity" data-qualified-name="SlashCommandArgumentCompleter" data-source-line="237" id="ent0005"><rect fill="#FFFFFF" height="65.2" rx="2.5" ry="2.5" style="stroke:#000000;stroke-width:1;" width="366.0715" x="364.5" y="621.8"/><ellipse cx="427.9147" cy="636.6" fill="#FFFFFF" rx="9" ry="9" style="stroke:#000000;stroke-width:1;"/><path d="M424.3424,632.8651 L424.3424,630.7069 L431.7218,630.7069 L431.7218,632.8651 L429.2565,632.8651 L429.2565,640.9418 L431.7218,640.9418 L431.7218,643.1 L424.3424,643.1 L424.3424,640.9418 L426.8077,640.9418 L426.8077,632.8651 Z " fill="#000000"/><text fill="#000000" font-family="'PingFang SC'" font-size="14" font-style="italic" lengthAdjust="spacing" textLength="231.7422" x="445.4147" y="641.64">SlashCommandArgumentCompleter</text><line style="stroke:#000000;stroke-width:1;" x1="365.5" x2="729.5715" y1="651.4" y2="651.4"/><line style="stroke:#000000;stroke-width:1;" x1="365.5" x2="729.5715" y1="659.4" y2="659.4"/><text fill="#000000" font-family="'PingFang SC'" font-size="14" lengthAdjust="spacing" textLength="354.0715" x="370.5" y="678.24">+complete(argumentPrefix, context): CompletionStage</text></g><!--class BuiltinCommandHandler--><g class="entity" data-qualified-name="BuiltinCommandHandler" data-source-line="241" id="ent0006"><rect fill="#FFFFFF" height="65.2" rx="2.5" ry="2.5" style="stroke:#000000;stroke-width:1;" width="315.9781" x="748.5" y="621.8"/><ellipse cx="824.178" cy="636.6" fill="#FFFFFF" rx="9" ry="9" style="stroke:#000000;stroke-width:1;"/><path d="M820.6057,632.8651 L820.6057,630.7069 L827.9851,630.7069 L827.9851,632.8651 L825.5198,632.8651 L825.5198,640.9418 L827.9851,640.9418 L827.9851,643.1 L820.6057,643.1 L820.6057,640.9418 L823.071,640.9418 L823.071,632.8651 Z " fill="#000000"/><text fill="#000000" font-family="'PingFang SC'" font-size="14" font-style="italic" lengthAdjust="spacing" textLength="157.1221" x="841.678" y="641.64">BuiltinCommandHandler</text><line style="stroke:#000000;stroke-width:1;" x1="749.5" x2="1063.4781" y1="651.4" y2="651.4"/><line style="stroke:#000000;stroke-width:1;" x1="749.5" x2="1063.4781" y1="659.4" y2="659.4"/><text fill="#000000" font-family="'PingFang SC'" font-size="14" lengthAdjust="spacing" textLength="303.9781" x="754.5" y="678.24">+handle(invocation, context): CompletionStage</text></g><!--class BuiltinCommandContributor--><g class="entity" data-qualified-name="BuiltinCommandContributor" data-source-line="245" id="ent0007"><rect fill="#FFFFFF" height="84.8" rx="2.5" ry="2.5" style="stroke:#000000;stroke-width:1;" width="209.2567" x="523" y="208.8"/><ellipse cx="536" cy="223.6" fill="#FFFFFF" rx="9" ry="9" style="stroke:#000000;stroke-width:1;"/><path d="M532.4277,219.8651 L532.4277,217.7069 L539.8071,217.7069 L539.8071,219.8651 L537.3418,219.8651 L537.3418,227.9418 L539.8071,227.9418 L539.8071,230.1 L532.4277,230.1 L532.4277,227.9418 L534.8931,227.9418 L534.8931,219.8651 Z " fill="#000000"/><text fill="#000000" font-family="'PingFang SC'" font-size="14" font-style="italic" lengthAdjust="spacing" textLength="181.2567" x="548" y="228.64">BuiltinCommandContributor</text><line style="stroke:#000000;stroke-width:1;" x1="524" x2="731.2567" y1="238.4" y2="238.4"/><line style="stroke:#000000;stroke-width:1;" x1="524" x2="731.2567" y1="246.4" y2="246.4"/><text fill="#000000" font-family="'PingFang SC'" font-size="14" lengthAdjust="spacing" textLength="147.6651" x="529" y="265.24">+contributorId(): String</text><text fill="#000000" font-family="'PingFang SC'" font-size="14" lengthAdjust="spacing" textLength="120.3805" x="529" y="284.84">+commands(): List</text></g><!--class BuiltinCommandInstaller--><g class="entity" data-qualified-name="BuiltinCommandInstaller" data-source-line="250" id="ent0008"><rect fill="#FFFFFF" height="65.2" rx="2.5" ry="2.5" style="stroke:#000000;stroke-width:1;" width="185.5015" x="721.5" y="68.8"/><ellipse cx="734.5" cy="83.6" fill="#FFFFFF" rx="9" ry="9" style="stroke:#000000;stroke-width:1;"/><path d="M736.9731,89.7431 Q736.3921,90.0419 735.7529,90.1913 Q735.1138,90.3407 734.4082,90.3407 Q731.9014,90.3407 730.5815,88.6889 Q729.2617,87.037 729.2617,83.9159 Q729.2617,80.7865 730.5815,79.1347 Q731.9014,77.4828 734.4082,77.4828 Q735.1138,77.4828 735.7612,77.6322 Q736.4087,77.7816 736.9731,78.0805 L736.9731,80.8031 Q736.3423,80.2221 735.7488,79.9523 Q735.1553,79.6825 734.5244,79.6825 Q733.1797,79.6825 732.4949,80.7492 Q731.8101,81.8158 731.8101,83.9159 Q731.8101,86.0077 732.4949,87.0744 Q733.1797,88.141 734.5244,88.141 Q735.1553,88.141 735.7488,87.8712 Q736.3423,87.6015 736.9731,87.0204 Z " fill="#000000"/><text fill="#000000" font-family="'PingFang SC'" font-size="14" lengthAdjust="spacing" textLength="157.5015" x="746.5" y="88.64">BuiltinCommandInstaller</text><line style="stroke:#000000;stroke-width:1;" x1="722.5" x2="906.0015" y1="98.4" y2="98.4"/><line style="stroke:#000000;stroke-width:1;" x1="722.5" x2="906.0015" y1="106.4" y2="106.4"/><text fill="#000000" font-family="'PingFang SC'" font-size="14" lengthAdjust="spacing" textLength="134.1145" x="727.5" y="125.24">+install(contributors)</text></g><!--class SlashCommandDefinitionValidator--><g class="entity" data-qualified-name="SlashCommandDefinitionValidator" data-source-line="254" id="ent0009"><rect fill="#FFFFFF" height="99.384" rx="2.5" ry="2.5" style="stroke:#000000;stroke-width:1;" width="299.9845" x="1082.5" y="604.8"/><ellipse cx="1118.0802" cy="626.892" fill="#FFFFFF" rx="9" ry="9" style="stroke:#000000;stroke-width:1;"/><path d="M1120.5533,633.0351 Q1119.9722,633.3339 1119.3331,633.4833 Q1118.6939,633.6327 1117.9884,633.6327 Q1115.4815,633.6327 1114.1617,631.9809 Q1112.8419,630.329 1112.8419,627.2079 Q1112.8419,624.0785 1114.1617,622.4267 Q1115.4815,620.7748 1117.9884,620.7748 Q1118.6939,620.7748 1119.3414,620.9242 Q1119.9889,621.0736 1120.5533,621.3725 L1120.5533,624.0951 Q1119.9224,623.5141 1119.3289,623.2443 Q1118.7354,622.9745 1118.1046,622.9745 Q1116.7598,622.9745 1116.075,624.0412 Q1115.3902,625.1078 1115.3902,627.2079 Q1115.3902,629.2997 1116.075,630.3664 Q1116.7598,631.433 1118.1046,631.433 Q1118.7354,631.433 1119.3289,631.1632 Q1119.9224,630.8935 1120.5533,630.3124 Z " fill="#000000"/><text fill="#000000" font-family="Verdana" font-size="12" font-style="italic" lengthAdjust="spacing" textLength="49.4883" x="1221.257" y="621.8645">&#171;utility&#187;</text><text fill="#000000" font-family="'PingFang SC'" font-size="14" lengthAdjust="spacing" textLength="221.8064" x="1135.098" y="639.224">SlashCommandDefinitionValidator</text><line style="stroke:#000000;stroke-width:1;" x1="1083.5" x2="1381.4845" y1="648.984" y2="648.984"/><line style="stroke:#000000;stroke-width:1;" x1="1083.5" x2="1381.4845" y1="656.984" y2="656.984"/><text fill="#000000" font-family="'PingFang SC'" font-size="14" lengthAdjust="spacing" textLength="214.8204" x="1088.5" y="675.824">+requireValidName(name): String</text><text fill="#000000" font-family="'PingFang SC'" font-size="14" lengthAdjust="spacing" textLength="287.9845" x="1088.5" y="695.424">+requireValidDescription(description): String</text></g><!--class RegisteredSlashCommand--><g class="entity" data-qualified-name="RegisteredSlashCommand" data-source-line="259" id="ent0010"><rect fill="#FFFFFF" height="118.984" rx="2.5" ry="2.5" style="stroke:#000000;stroke-width:1;" width="239.132" x="968" y="191.8"/><ellipse cx="998.9591" cy="213.892" fill="#FFFFFF" rx="9" ry="9" style="stroke:#000000;stroke-width:1;"/><path d="M1001.4322,220.0351 Q1000.8512,220.3339 1000.212,220.4833 Q999.5729,220.6327 998.8673,220.6327 Q996.3604,220.6327 995.0406,218.9809 Q993.7208,217.329 993.7208,214.2079 Q993.7208,211.0785 995.0406,209.4267 Q996.3604,207.7748 998.8673,207.7748 Q999.5729,207.7748 1000.2203,207.9242 Q1000.8678,208.0736 1001.4322,208.3725 L1001.4322,211.0951 Q1000.8014,210.5141 1000.2079,210.2443 Q999.6144,209.9745 998.9835,209.9745 Q997.6388,209.9745 996.954,211.0412 Q996.2691,212.1078 996.2691,214.2079 Q996.2691,216.2997 996.954,217.3664 Q997.6388,218.433 998.9835,218.433 Q999.6144,218.433 1000.2079,218.1632 Q1000.8014,217.8935 1001.4322,217.3124 Z " fill="#000000"/><text fill="#000000" font-family="Verdana" font-size="12" font-style="italic" lengthAdjust="spacing" textLength="53.8711" x="1073.6259" y="208.8645">&#171;record&#187;</text><text fill="#000000" font-family="'PingFang SC'" font-size="14" lengthAdjust="spacing" textLength="171.2229" x="1014.95" y="226.224">RegisteredSlashCommand</text><line style="stroke:#000000;stroke-width:1;" x1="969" x2="1206.132" y1="235.984" y2="235.984"/><text fill="#000000" font-family="'PingFang SC'" font-size="14" lengthAdjust="spacing" textLength="102.7405" x="974" y="254.824">+String ownerId</text><text fill="#000000" font-family="'PingFang SC'" font-size="14" lengthAdjust="spacing" textLength="227.132" x="974" y="274.424">+CommandSourceKind sourceKind</text><text fill="#000000" font-family="'PingFang SC'" font-size="14" lengthAdjust="spacing" textLength="193.4381" x="974" y="294.024">+CommandExecutor executor</text><line style="stroke:#000000;stroke-width:1;" x1="969" x2="1206.132" y1="302.784" y2="302.784"/></g><!--class CommandExecutor--><g class="entity" data-qualified-name="CommandExecutor" data-source-line="265" id="ent0011"><rect fill="#FFFFFF" height="65.2" rx="2.5" ry="2.5" style="stroke:#000000;stroke-width:1;" width="324.1597" x="893.5" y="415.3"/><ellipse cx="989.863" cy="430.1" fill="#FFFFFF" rx="9" ry="9" style="stroke:#000000;stroke-width:1;"/><path d="M986.2907,426.3651 L986.2907,424.2069 L993.6701,424.2069 L993.6701,426.3651 L991.2048,426.3651 L991.2048,434.4418 L993.6701,434.4418 L993.6701,436.6 L986.2907,436.6 L986.2907,434.4418 L988.756,434.4418 L988.756,426.3651 Z " fill="#000000"/><text fill="#000000" font-family="'PingFang SC'" font-size="14" font-style="italic" lengthAdjust="spacing" textLength="123.9337" x="1007.363" y="435.14">CommandExecutor</text><line style="stroke:#000000;stroke-width:1;" x1="894.5" x2="1216.6597" y1="444.9" y2="444.9"/><line style="stroke:#000000;stroke-width:1;" x1="894.5" x2="1216.6597" y1="452.9" y2="452.9"/><text fill="#000000" font-family="'PingFang SC'" font-size="14" lengthAdjust="spacing" textLength="312.1597" x="899.5" y="471.74">+execute(invocation, context): CompletionStage</text></g><!--class CommandRegistrySnapshot--><g class="entity" data-qualified-name="CommandRegistrySnapshot" data-source-line="269" id="ent0012"><rect fill="#FFFFFF" height="60.184" rx="2.5" ry="2.5" style="stroke:#000000;stroke-width:1;" width="208.3566" x="983.5" y="71.3"/><ellipse cx="996.5" cy="93.392" fill="#FFFFFF" rx="9" ry="9" style="stroke:#000000;stroke-width:1;"/><path d="M998.9731,99.5351 Q998.3921,99.8339 997.7529,99.9833 Q997.1138,100.1327 996.4082,100.1327 Q993.9014,100.1327 992.5815,98.4809 Q991.2617,96.829 991.2617,93.7079 Q991.2617,90.5785 992.5815,88.9267 Q993.9014,87.2748 996.4082,87.2748 Q997.1138,87.2748 997.7612,87.4242 Q998.4087,87.5736 998.9731,87.8725 L998.9731,90.5951 Q998.3423,90.0141 997.7488,89.7443 Q997.1553,89.4745 996.5244,89.4745 Q995.1797,89.4745 994.4949,90.5412 Q993.8101,91.6078 993.8101,93.7079 Q993.8101,95.7997 994.4949,96.8664 Q995.1797,97.933 996.5244,97.933 Q997.1553,97.933 997.7488,97.6632 Q998.3423,97.3935 998.9731,96.8124 Z " fill="#000000"/><text fill="#000000" font-family="Verdana" font-size="12" font-style="italic" lengthAdjust="spacing" textLength="79.5645" x="1058.8961" y="88.3645">&#171;immutable&#187;</text><text fill="#000000" font-family="'PingFang SC'" font-size="14" lengthAdjust="spacing" textLength="180.3566" x="1008.5" y="105.724">CommandRegistrySnapshot</text><line style="stroke:#000000;stroke-width:1;" x1="984.5" x2="1190.8566" y1="115.484" y2="115.484"/><line style="stroke:#000000;stroke-width:1;" x1="984.5" x2="1190.8566" y1="123.484" y2="123.484"/></g><!--class SlashCommandInvocation--><g class="entity" data-qualified-name="SlashCommandInvocation" data-source-line="270" id="ent0013"><rect fill="#FFFFFF" height="45.6" rx="2.5" ry="2.5" style="stroke:#000000;stroke-width:1;" width="195.4444" x="809" y="830.8"/><ellipse cx="822" cy="845.6" fill="#FFFFFF" rx="9" ry="9" style="stroke:#000000;stroke-width:1;"/><path d="M824.4731,851.7431 Q823.8921,852.0419 823.2529,852.1913 Q822.6138,852.3407 821.9082,852.3407 Q819.4014,852.3407 818.0815,850.6889 Q816.7617,849.037 816.7617,845.9159 Q816.7617,842.7865 818.0815,841.1347 Q819.4014,839.4828 821.9082,839.4828 Q822.6138,839.4828 823.2612,839.6322 Q823.9087,839.7816 824.4731,840.0805 L824.4731,842.8031 Q823.8423,842.2221 823.2488,841.9523 Q822.6553,841.6825 822.0244,841.6825 Q820.6797,841.6825 819.9949,842.7492 Q819.3101,843.8158 819.3101,845.9159 Q819.3101,848.0077 819.9949,849.0744 Q820.6797,850.141 822.0244,850.141 Q822.6553,850.141 823.2488,849.8712 Q823.8423,849.6015 824.4731,849.0204 Z " fill="#000000"/><text fill="#000000" font-family="'PingFang SC'" font-size="14" lengthAdjust="spacing" textLength="167.4444" x="834" y="850.64">SlashCommandInvocation</text><line style="stroke:#000000;stroke-width:1;" x1="810" x2="1003.4444" y1="860.4" y2="860.4"/><line style="stroke:#000000;stroke-width:1;" x1="810" x2="1003.4444" y1="868.4" y2="868.4"/></g><!--class BuiltinCommandContext--><g class="entity" data-qualified-name="BuiltinCommandContext" data-source-line="271" id="ent0014"><rect fill="#FFFFFF" height="45.6" rx="2.5" ry="2.5" style="stroke:#000000;stroke-width:1;" width="186.0503" x="1022.5" y="830.8"/><ellipse cx="1035.5" cy="845.6" fill="#FFFFFF" rx="9" ry="9" style="stroke:#000000;stroke-width:1;"/><path d="M1037.9731,851.7431 Q1037.3921,852.0419 1036.7529,852.1913 Q1036.1138,852.3407 1035.4082,852.3407 Q1032.9014,852.3407 1031.5815,850.6889 Q1030.2617,849.037 1030.2617,845.9159 Q1030.2617,842.7865 1031.5815,841.1347 Q1032.9014,839.4828 1035.4082,839.4828 Q1036.1138,839.4828 1036.7612,839.6322 Q1037.4087,839.7816 1037.9731,840.0805 L1037.9731,842.8031 Q1037.3423,842.2221 1036.7488,841.9523 Q1036.1553,841.6825 1035.5244,841.6825 Q1034.1797,841.6825 1033.4949,842.7492 Q1032.8101,843.8158 1032.8101,845.9159 Q1032.8101,848.0077 1033.4949,849.0744 Q1034.1797,850.141 1035.5244,850.141 Q1036.1553,850.141 1036.7488,849.8712 Q1037.3423,849.6015 1037.9731,849.0204 Z " fill="#000000"/><text fill="#000000" font-family="'PingFang SC'" font-size="14" lengthAdjust="spacing" textLength="158.0503" x="1047.5" y="850.64">BuiltinCommandContext</text><line style="stroke:#000000;stroke-width:1;" x1="1023.5" x2="1207.5503" y1="860.4" y2="860.4"/><line style="stroke:#000000;stroke-width:1;" x1="1023.5" x2="1207.5503" y1="868.4" y2="868.4"/></g><!--class CommandExecutionResult--><g class="entity" data-qualified-name="CommandExecutionResult" data-source-line="272" id="ent0015"><rect fill="#FFFFFF" height="45.6" rx="2.5" ry="2.5" style="stroke:#000000;stroke-width:1;" width="198.7218" x="592" y="830.8"/><ellipse cx="605" cy="845.6" fill="#FFFFFF" rx="9" ry="9" style="stroke:#000000;stroke-width:1;"/><path d="M607.4731,851.7431 Q606.8921,852.0419 606.2529,852.1913 Q605.6138,852.3407 604.9082,852.3407 Q602.4014,852.3407 601.0815,850.6889 Q599.7617,849.037 599.7617,845.9159 Q599.7617,842.7865 601.0815,841.1347 Q602.4014,839.4828 604.9082,839.4828 Q605.6138,839.4828 606.2612,839.6322 Q606.9087,839.7816 607.4731,840.0805 L607.4731,842.8031 Q606.8423,842.2221 606.2488,841.9523 Q605.6553,841.6825 605.0244,841.6825 Q603.6797,841.6825 602.9949,842.7492 Q602.3101,843.8158 602.3101,845.9159 Q602.3101,848.0077 602.9949,849.0744 Q603.6797,850.141 605.0244,850.141 Q605.6553,850.141 606.2488,849.8712 Q606.8423,849.6015 607.4731,849.0204 Z " fill="#000000"/><text fill="#000000" font-family="'PingFang SC'" font-size="14" lengthAdjust="spacing" textLength="170.7218" x="617" y="850.64">CommandExecutionResult</text><line style="stroke:#000000;stroke-width:1;" x1="593" x2="789.7218" y1="860.4" y2="860.4"/><line style="stroke:#000000;stroke-width:1;" x1="593" x2="789.7218" y1="868.4" y2="868.4"/></g><g class="link" data-entity-1="ent0007" data-entity-2="ent0001" data-link-type="dependency" id="lnk16"><polygon fill="#000000" points="656.8139,368.6581,658.494,358.9536,655.5924,363.8096,650.7364,360.908,656.8139,368.6581" style="stroke:#000000;stroke-width:1;stroke-linejoin:miter;stroke-miterlimit:10;"/><path d="M638.0117,294.0251 C643.4953,315.7914 649.1633,338.29 655.5924,363.8096" fill="none" style="stroke:#000000;stroke-width:1;"/><text fill="#000000" font-family="'PingFang SC'" font-size="13" lengthAdjust="spacing" textLength="50.8508" x="654.5" y="344.58">declares</text><text fill="#000000" font-family="'PingFang SC'" font-size="13" lengthAdjust="spacing" textLength="18.3716" x="637.8139" y="363.4381">1..*</text><text fill="#000000" font-family="'PingFang SC'" font-size="13" lengthAdjust="spacing" textLength="5.1402" x="632.0117" y="308.8051">1</text></g><g class="link" data-entity-1="ent0008" data-entity-2="ent0007" data-link-type="dependency" id="lnk17"><polygon fill="#000000" points="653.2767,208.5782,661.7166,203.5019,656.1454,204.483,655.1643,198.9119,653.2767,208.5782" style="stroke:#000000;stroke-width:1;stroke-linejoin:miter;stroke-miterlimit:10;"/><path d="M732.3102,133.8548 C722.51,139.1633 712.9864,145.1444 704.5,151.8 C684.5169,167.4722 669.5848,185.2983 656.1454,204.483" fill="none" style="stroke:#000000;stroke-width:1;stroke-dasharray:7,7;"/><text fill="#000000" font-family="'PingFang SC'" font-size="13" lengthAdjust="spacing" textLength="46.4139" x="706.5" y="167.58">collects</text></g><g class="link" data-entity-1="ent0008" data-entity-2="ent0001" data-link-type="dependency" id="lnk18"><polygon fill="#000000" points="714.9169,368.651,722.3505,362.1903,717.0334,364.1211,715.1026,358.8039,714.9169,368.651" style="stroke:#000000;stroke-width:1;stroke-linejoin:miter;stroke-miterlimit:10;"/><path d="M803.0646,134.1838 C796.9469,151.2659 789.2943,172.6741 782.5,191.8 C763.7253,244.6506 761.8009,258.916 740.5,310.8 C732.7202,329.7496 725.8103,345.3357 717.0334,364.1211" fill="none" style="stroke:#000000;stroke-width:1;stroke-dasharray:7,7;"/><text fill="#000000" font-family="'PingFang SC'" font-size="13" lengthAdjust="spacing" textLength="53.2715" x="784.5" y="256.08">validates</text></g><g class="link" data-entity-1="ent0001" data-entity-2="ent0009" data-link-type="dependency" id="lnk19"><polygon fill="#000000" points="1124.0821,604.7289,1117.3074,597.5802,1119.4652,602.8094,1114.2361,604.9672,1124.0821,604.7289" style="stroke:#000000;stroke-width:1;stroke-linejoin:miter;stroke-miterlimit:10;"/><path d="M869.5585,521.6535 C874.5844,523.403 879.5715,525.1214 884.5,526.8 C967.6746,555.128 991.0294,554.4834 1073.5,584.8 C1090.0035,590.8668 1102.6505,595.8183 1119.4652,602.8094" fill="none" style="stroke:#000000;stroke-width:1;stroke-dasharray:7,7;"/><text fill="#000000" font-family="'PingFang SC'" font-size="13" lengthAdjust="spacing" textLength="90.2864" x="1021.5" y="560.58">validates fields</text></g><g class="link" data-entity-1="ent0001" data-entity-2="ent0002" data-link-type="composition" id="lnk20"><polygon fill="#000000" points="488.3472,526.9086,481.2603,525.5758,477.3043,531.605,484.3912,532.9377,488.3472,526.9086" style="stroke:#000000;stroke-width:1;stroke-linejoin:miter;stroke-miterlimit:10;"/><path d="M477.3043,531.605 C433.5401,550.2174 398.2842,565.5714 355.5,584.8 C352.4698,586.1619 349.4073,587.5465 346.3222,588.9489" fill="none" style="stroke:#000000;stroke-width:1;"/><text fill="#000000" font-family="'PingFang SC'" font-size="13" lengthAdjust="spacing" textLength="70.8969" x="445.5" y="560.58">owns policy</text></g><g class="link" data-entity-1="ent0002" data-entity-2="ent0003" data-link-type="composition" id="lnk21"><polygon fill="#000000" points="279.9335,723.9613,280.2332,731.1662,286.9991,733.6607,286.6994,726.4558,279.9335,723.9613" style="stroke:#000000;stroke-width:1;stroke-linejoin:miter;stroke-miterlimit:10;"/><path d="M286.9991,733.6607 C291.2288,739.4671 288.0834,735.7422 291.5,741.8 C298.3967,754.0282 303.9143,767.8683 308.2914,781.5246" fill="none" style="stroke:#000000;stroke-width:1;"/><text fill="#000000" font-family="'PingFang SC'" font-size="13" lengthAdjust="spacing" textLength="148.0506" x="303.5" y="757.58">selects runtime behavior</text></g><g class="link" data-entity-1="ent0002" data-entity-2="ent0004" data-link-type="composition" id="lnk22"><polygon fill="#000000" points="110.6692,723.9326,103.849,726.2745,103.3876,733.4708,110.2078,731.1289,110.6692,723.9326" style="stroke:#000000;stroke-width:1;stroke-linejoin:miter;stroke-miterlimit:10;"/><path d="M103.3876,733.4708 C99.0933,739.096 102.5871,735.5152 99.5,741.8 C89.0497,763.0751 88.6415,789.5305 91.038,811.277" fill="none" style="stroke:#000000;stroke-width:1;"/><text fill="#000000" font-family="'PingFang SC'" font-size="13" lengthAdjust="spacing" textLength="184.2635" x="101.5" y="757.58">selects command concurrency</text></g><g class="link" data-entity-1="ent0001" data-entity-2="ent0005" data-link-type="aggregation" id="lnk23"><polygon fill="none" points="627.1785,526.988,620.5942,529.9286,620.7761,537.1374,627.3604,534.1968,627.1785,526.988" style="stroke:#000000;stroke-width:1;stroke-linejoin:miter;stroke-miterlimit:10;"/><path d="M620.7761,537.1374 C600.007,570.0622 583.414,596.3665 567.4871,621.615" fill="none" style="stroke:#000000;stroke-width:1;"/><text fill="#000000" font-family="'PingFang SC'" font-size="13" lengthAdjust="spacing" textLength="129.4905" x="618.5" y="560.58">delegates completion</text></g><g class="link" data-entity-1="ent0001" data-entity-2="ent0006" data-link-type="aggregation" id="lnk24"><polygon fill="none" points="764.4376,526.988,766.2637,533.9641,773.4055,534.9616,771.5794,527.9855,764.4376,526.988" style="stroke:#000000;stroke-width:1;stroke-linejoin:miter;stroke-miterlimit:10;"/><path d="M773.4055,534.9616 C810.4358,567.8864 842.4673,596.3665 870.8641,621.615" fill="none" style="stroke:#000000;stroke-width:1;"/><text fill="#000000" font-family="'PingFang SC'" font-size="13" lengthAdjust="spacing" textLength="121.1757" x="807.5" y="560.58">delegates execution</text></g><g class="link" data-entity-1="ent0008" data-entity-2="ent0010" data-link-type="dependency" id="lnk25"><polygon fill="#000000" points="979.5063,191.754,973.5006,183.9481,975.1107,189.371,969.6878,190.9811,979.5063,191.754" style="stroke:#000000;stroke-width:1;stroke-linejoin:miter;stroke-miterlimit:10;"/><path d="M872.7305,133.8682 C903.8148,150.7197 938.6825,169.6224 975.1107,189.371" fill="none" style="stroke:#000000;stroke-width:1;stroke-dasharray:7,7;"/><text fill="#000000" font-family="'PingFang SC'" font-size="13" lengthAdjust="spacing" textLength="40.9825" x="945.5" y="167.58">adapts</text></g><g class="link" data-entity-1="ent0008" data-entity-2="ent0011" data-link-type="dependency" id="lnk26"><polygon fill="#000000" points="992.608,415.2609,986.8182,407.2936,988.2792,412.7585,982.8143,414.2195,992.608,415.2609" style="stroke:#000000;stroke-width:1;stroke-linejoin:miter;stroke-miterlimit:10;"/><path d="M823.5452,134.1577 C828.3561,151.2325 834.3293,172.6419 839.5,191.8 C853.7413,244.566 839.8271,265.5647 870.5,310.8 C901.1495,356.0007 947.6483,389.2694 988.2792,412.7585" fill="none" style="stroke:#000000;stroke-width:1;stroke-dasharray:7,7;"/><text fill="#000000" font-family="'PingFang SC'" font-size="13" lengthAdjust="spacing" textLength="84.8511" x="872.5" y="256.08">wraps handler</text></g><g class="link" data-entity-1="ent0010" data-entity-2="ent0011" data-link-type="aggregation" id="lnk27"><polygon fill="none" points="1077.8555,310.9202,1072.9346,316.1912,1075.9074,322.761,1080.8284,317.4899,1077.8555,310.9202" style="stroke:#000000;stroke-width:1;stroke-linejoin:miter;stroke-miterlimit:10;"/><path d="M1075.9074,322.761 C1070.2762,356.9882 1065.3389,386.9977 1060.7099,415.1334" fill="none" style="stroke:#000000;stroke-width:1;"/><text fill="#000000" font-family="'PingFang SC'" font-size="13" lengthAdjust="spacing" textLength="121.1757" x="1076.5" y="344.58">delegates execution</text></g><g class="link" data-entity-1="ent0012" data-entity-2="ent0010" data-link-type="composition" id="lnk28"><polygon fill="#000000" points="1087.5,131.54,1083.5,137.54,1087.5,143.54,1091.5,137.54,1087.5,131.54" style="stroke:#000000;stroke-width:1;stroke-linejoin:miter;stroke-miterlimit:10;"/><path d="M1087.5,143.54 C1087.5,160.7253 1087.5,171.0695 1087.5,191.7334" fill="none" style="stroke:#000000;stroke-width:1;"/><text fill="#000000" font-family="'PingFang SC'" font-size="13" lengthAdjust="spacing" textLength="51.1226" x="1089.5" y="167.58">contains</text></g><g class="link" data-entity-1="ent0006" data-entity-2="ent0013" data-link-type="dependency" id="lnk29"><polygon fill="#000000" points="906.5,830.6461,910.5,821.6461,906.5,825.6461,902.5,821.6461,906.5,830.6461" style="stroke:#000000;stroke-width:1;stroke-linejoin:miter;stroke-miterlimit:10;"/><path d="M906.5,687.0318 C906.5,727.2677 906.5,790.6095 906.5,825.6461" fill="none" style="stroke:#000000;stroke-width:1;stroke-dasharray:7,7;"/><text fill="#000000" font-family="'PingFang SC'" font-size="13" lengthAdjust="spacing" textLength="49.7224" x="908.5" y="757.58">receives</text></g><g class="link" data-entity-1="ent0006" data-entity-2="ent0014" data-link-type="dependency" id="lnk30"><polygon fill="#000000" points="1092.0561,830.6461,1088.2621,821.5574,1088.422,827.212,1082.7674,827.3719,1092.0561,830.6461" style="stroke:#000000;stroke-width:1;stroke-linejoin:miter;stroke-miterlimit:10;"/><path d="M940.0795,687.0318 C982.6582,727.2677 1051.3453,792.1753 1088.422,827.212" fill="none" style="stroke:#000000;stroke-width:1;stroke-dasharray:7,7;"/><text fill="#000000" font-family="'PingFang SC'" font-size="13" lengthAdjust="spacing" textLength="49.7224" x="1019.5" y="757.58">receives</text></g><g class="link" data-entity-1="ent0006" data-entity-2="ent0015" data-link-type="dependency" id="lnk31"><polygon fill="#000000" points="715.6169,830.6461,724.9509,827.5034,719.2991,827.2636,719.5389,821.6118,715.6169,830.6461" style="stroke:#000000;stroke-width:1;stroke-linejoin:miter;stroke-miterlimit:10;"/><path d="M871.9565,687.0318 C828.1554,727.2677 757.4403,792.227 719.2991,827.2636" fill="none" style="stroke:#000000;stroke-width:1;stroke-dasharray:7,7;"/><text fill="#000000" font-family="'PingFang SC'" font-size="13" lengthAdjust="spacing" textLength="42.4853" x="814.5" y="757.58">returns</text></g><?plantuml-src dLRBZjis5DthAnXlugIL9vDEMq0m33YsqWYTyKpzIBiRqDIrJOGYLPAQHuEiWXOe2lG3kYZGNLPTj_-JAT2_wAMaaMMFvKcwiKdgtiFxEFT83qdAYL6PPX2GbB9NT0dcWAcOowMFQsaFZ6PueE7026fMFbD9GcLiEjO4Xv_vHq-yXn-6aQWOZxcqe2cp_0BgQzyzTP1FFpywz9z-yUKHmWx1yAKa6gXHCY1pBcDtLGAMnjHIOXMXP8N12D04_uXKEg62_m242b66PCWSLiwJIf9VAAaWS0Kiiqftl0Ts1GcGL50klGUffik44a6lLMQ9SJT9wfbNNAPKquJ4iA2PiC-Lj2EARgqppF4vbKio6RHgTcP5OtM9pyY22WEr9tEiprAhJCO39PGcLbDfy15MgMR5iDIcRwtcyyn2n9ISkAoUU9PR0UHPneNrkII3eXdavi_Vtl_zy_k_VhtvwST_txxxvzqVDx__udavJ67DPMaxX0MNt78bIRUh0JiRzthajKV89sI25sBC4bEhxx5lJFFK-UJ79LAO5n4FpvJWxBeiQhKl41ndIlk-NcO9vedRL81rFTi-oNqsutrHzhVii_VcDgs6AEuajGbNcPyWuOXZNJsbWP8iqzWC16BhTMuoLqe0aeXHoK08EXU5wsbU62gwmqnJj-mHonD00hbOGMR9tX1SaD79IJYC-jCGr-Fmcraq3i-ZuR7Rzf-TZgVd_Q_24VwEXkVZsSWPpKRJw2GyduxxeqaqZKxTuUJ5R3ey_NPKNRiZgTUvNNyS3d4HVZSudasYbw7po6TZGHdSqxEYgApSjszRUAQHLrUVkgfPkBAF0bAwO9uJYogmUSVk7XVOHQVRN5uebXVqVw9YtiK0gNNKrKaKjn6j8FXjHhckkUDZRkoQQ9keaJGMrQMAbXVxTWtRF5exrukv7hsNg58eOHXOjujK4DnULtpLy7t6DUGcJcJQRXmtOwsR3DV3sQuDwjgX2cKCIymBDCJre1fLG5rAm3BLnsEIA-hNJarDjRmh2PZMhS1kzcVRghYliFs8Xc_CVv6Llfv8cfgLifWFJvBCkldizNPq8QgksTdVGN5pWyYCmQ3-Urupqrg7BUBxFVplT1wtciKtG5d5EpGOhubWdKvl3wK3B1AQCVin01i1N1Gil1D1pSWXt4VX6X1PS13n7hp7ljyat85Zd25fyV9eC7B--zGq80RocX2TIIV3xkrFBpWoSG_Y3g5S0vN2iF4-QCnF8Tf-_NHz5x3CgyKgRkz7tAsMTQJgtRkN2mqA413ydahluT7sx0RaKkF4LU_b1cortN3L57ZJFBi6DGRkT0A_tBP3lotHDdtNiu--A7k0dvxxV7TAmuUvxbQEtDTcMfh_0000?></g></svg>