<svg xmlns="http://www.w3.org/2000/svg" xmlns:xlink="http://www.w3.org/1999/xlink" contentStyleType="text/css" data-diagram-type="CLASS" height="841px" preserveAspectRatio="none" style="width:1464px;height:841px;" version="1.1" viewBox="0 0 1464 841" width="1464px" zoomAndPan="magnify"><?plantuml 1.2026.6?><defs/><g><g class="title" data-source-line="207"><text fill="#000000" font-family="'sans-serif'" font-size="22" font-weight="700" lengthAdjust="spacing" textLength="549.2588" x="456.3706" y="36.2695">Built-in Command Definition and Internal Model</text></g><!--class BuiltinCommandDefinition--><g class="entity" data-qualified-name="BuiltinCommandDefinition" data-source-line="209" id="ent0001"><rect fill="#FFFFFF" height="139.5137" rx="2.5" ry="2.5" style="stroke:#000000;stroke-width:1;" width="407.1924" x="501" y="340.9102"/><ellipse cx="611.2202" cy="361.4463" fill="#FFFFFF" rx="9" ry="9" style="stroke:#000000;stroke-width:1;"/><path d="M613.6934,367.5894 Q613.1123,367.8882 612.4731,368.0376 Q611.834,368.187 611.1284,368.187 Q608.6216,368.187 607.3018,366.5352 Q605.9819,364.8833 605.9819,361.7622 Q605.9819,358.6328 607.3018,356.981 Q608.6216,355.3291 611.1284,355.3291 Q611.834,355.3291 612.4814,355.4785 Q613.1289,355.6279 613.6934,355.9268 L613.6934,358.6494 Q613.0625,358.0684 612.469,357.7986 Q611.8755,357.5288 611.2446,357.5288 Q609.8999,357.5288 609.2151,358.5955 Q608.5303,359.6621 608.5303,361.7622 Q608.5303,363.854 609.2151,364.9207 Q609.8999,365.9873 611.2446,365.9873 Q611.8755,365.9873 612.469,365.7175 Q613.0625,365.4478 613.6934,364.8667 Z " fill="#000000"/><text fill="#000000" font-family="Verdana" font-size="12" font-style="italic" lengthAdjust="spacing" textLength="53.8711" x="691.4106" y="357.9746">&#171;record&#187;</text><text fill="#000000" font-family="'sans-serif'" font-size="14" lengthAdjust="spacing" textLength="179.252" x="628.7202" y="374.0293">BuiltinCommandDefinition</text><line style="stroke:#000000;stroke-width:1;" x1="502" x2="907.1924" y1="381.9824" y2="381.9824"/><text fill="#000000" font-family="'sans-serif'" font-size="14" lengthAdjust="spacing" textLength="92.8184" x="507" y="399.5176">+String name</text><text fill="#000000" font-family="'sans-serif'" font-size="14" lengthAdjust="spacing" textLength="131.6055" x="507" y="416.0059">+String description</text><text fill="#000000" font-family="'sans-serif'" font-size="14" lengthAdjust="spacing" textLength="296.0713" x="507" y="432.4941">+CommandExecutionPolicy executionPolicy</text><text fill="#000000" font-family="'sans-serif'" font-size="14" lengthAdjust="spacing" textLength="395.1924" x="507" y="448.9824">+SlashCommandArgumentCompleter argumentCompleter</text><text fill="#000000" font-family="'sans-serif'" font-size="14" lengthAdjust="spacing" textLength="232.6133" x="507" y="465.4707">+BuiltinCommandHandler handler</text><line style="stroke:#000000;stroke-width:1;" x1="502" x2="907.1924" y1="472.4238" y2="472.4238"/></g><!--class CommandExecutionPolicy--><g class="entity" data-qualified-name="CommandExecutionPolicy" data-source-line="217" id="ent0002"><rect fill="#FFFFFF" height="123.0254" rx="2.5" ry="2.5" style="stroke:#000000;stroke-width:1;" width="281.9785" x="77.5" y="535.9102"/><ellipse cx="127.2495" cy="556.4463" fill="#FFFFFF" rx="9" ry="9" style="stroke:#000000;stroke-width:1;"/><path d="M129.7227,562.5894 Q129.1416,562.8882 128.5024,563.0376 Q127.8633,563.187 127.1577,563.187 Q124.6509,563.187 123.3311,561.5352 Q122.0112,559.8833 122.0112,556.7622 Q122.0112,553.6328 123.3311,551.981 Q124.6509,550.3291 127.1577,550.3291 Q127.8633,550.3291 128.5107,550.4785 Q129.1582,550.6279 129.7227,550.9268 L129.7227,553.6494 Q129.0918,553.0684 128.4983,552.7986 Q127.9048,552.5288 127.2739,552.5288 Q125.9292,552.5288 125.2444,553.5955 Q124.5596,554.6621 124.5596,556.7622 Q124.5596,558.854 125.2444,559.9207 Q125.9292,560.9873 127.2739,560.9873 Q127.9048,560.9873 128.4983,560.7175 Q129.0918,560.4478 129.7227,559.8667 Z " fill="#000000"/><text fill="#000000" font-family="Verdana" font-size="12" font-style="italic" lengthAdjust="spacing" textLength="53.8711" x="205.3037" y="552.9746">&#171;record&#187;</text><text fill="#000000" font-family="'sans-serif'" font-size="14" lengthAdjust="spacing" textLength="174.9795" x="144.7495" y="569.0293">CommandExecutionPolicy</text><line style="stroke:#000000;stroke-width:1;" x1="78.5" x2="358.4785" y1="576.9824" y2="576.9824"/><text fill="#000000" font-family="'sans-serif'" font-size="14" lengthAdjust="spacing" textLength="269.9785" x="83.5" y="594.5176">+BuiltinCommandExecutionMode mode</text><text fill="#000000" font-family="'sans-serif'" font-size="14" lengthAdjust="spacing" textLength="253.2305" x="83.5" y="611.0059">+CommandConcurrency concurrency</text><text fill="#000000" font-family="'sans-serif'" font-size="14" lengthAdjust="spacing" textLength="144.8809" x="83.5" y="627.4941">+boolean cancellable</text><text fill="#000000" font-family="'sans-serif'" font-size="14" lengthAdjust="spacing" textLength="207.7373" x="83.5" y="643.9824">+Optional&lt;Duration&gt; timeout</text><line style="stroke:#000000;stroke-width:1;" x1="78.5" x2="358.4785" y1="650.9355" y2="650.9355"/></g><!--class BuiltinCommandExecutionMode--><g class="entity" data-qualified-name="BuiltinCommandExecutionMode" data-source-line="224" id="ent0003"><rect fill="#FFFFFF" height="126.4414" rx="2.5" ry="2.5" style="stroke:#000000;stroke-width:1;" width="244.1387" x="212.5" y="713.9102"/><ellipse cx="225.5" cy="727.9102" fill="#FFFFFF" rx="9" ry="9" style="stroke:#000000;stroke-width:1;"/><path d="M229.1143,734.4102 L221.3945,734.4102 L221.3945,722.0171 L229.1143,722.0171 L229.1143,724.1753 L223.8433,724.1753 L223.8433,726.8481 L228.6162,726.8481 L228.6162,729.0063 L223.8433,729.0063 L223.8433,732.252 L229.1143,732.252 Z " fill="#000000"/><text fill="#000000" font-family="'sans-serif'" font-size="14" lengthAdjust="spacing" textLength="216.1387" x="237.5" y="733.2012">BuiltinCommandExecutionMode</text><line style="stroke:#000000;stroke-width:1;" x1="213.5" x2="455.6387" y1="741.9102" y2="741.9102"/><text fill="#000000" font-family="'sans-serif'" font-size="14" lengthAdjust="spacing" textLength="76.3574" x="218.5" y="759.4453">IMMEDIATE</text><text fill="#000000" font-family="'sans-serif'" font-size="14" lengthAdjust="spacing" textLength="94.0625" x="218.5" y="775.9336">REQUIRE_IDLE</text><text fill="#000000" font-family="'sans-serif'" font-size="14" lengthAdjust="spacing" textLength="173.2363" x="218.5" y="792.4219">ABORT_AGENT_AND_RUN</text><text fill="#000000" font-family="'sans-serif'" font-size="14" lengthAdjust="spacing" textLength="151.8125" x="218.5" y="808.9102">RUNTIME_TRANSITION</text><text fill="#000000" font-family="'sans-serif'" font-size="14" lengthAdjust="spacing" textLength="80.0625" x="218.5" y="825.3984">SHUTDOWN</text><line style="stroke:#000000;stroke-width:1;" x1="213.5" x2="455.6387" y1="832.3516" y2="832.3516"/></g><!--class CommandConcurrency--><g class="entity" data-qualified-name="CommandConcurrency" data-source-line="232" id="ent0004"><rect fill="#FFFFFF" height="76.9766" rx="2.5" ry="2.5" style="stroke:#000000;stroke-width:1;" width="182.9229" x="11" y="738.4102"/><ellipse cx="24" cy="752.4102" fill="#FFFFFF" rx="9" ry="9" style="stroke:#000000;stroke-width:1;"/><path d="M27.6143,758.9102 L19.8945,758.9102 L19.8945,746.5171 L27.6143,746.5171 L27.6143,748.6753 L22.3433,748.6753 L22.3433,751.3481 L27.1162,751.3481 L27.1162,753.5063 L22.3433,753.5063 L22.3433,756.752 L27.6143,756.752 Z " fill="#000000"/><text fill="#000000" font-family="'sans-serif'" font-size="14" lengthAdjust="spacing" textLength="154.9229" x="36" y="757.7012">CommandConcurrency</text><line style="stroke:#000000;stroke-width:1;" x1="12" x2="192.9229" y1="766.4102" y2="766.4102"/><text fill="#000000" font-family="'sans-serif'" font-size="14" lengthAdjust="spacing" textLength="54.4141" x="17" y="783.9453">SHARED</text><text fill="#000000" font-family="'sans-serif'" font-size="14" lengthAdjust="spacing" textLength="71.5176" x="17" y="800.4336">EXCLUSIVE</text><line style="stroke:#000000;stroke-width:1;" x1="12" x2="192.9229" y1="807.3867" y2="807.3867"/></g><!--class SlashCommandArgumentCompleter--><g class="entity" data-qualified-name="SlashCommandArgumentCompleter" data-source-line="237" id="ent0005"><rect fill="#FFFFFF" height="60.4883" rx="2.5" ry="2.5" style="stroke:#000000;stroke-width:1;" width="384.1484" x="377.5" y="567.4102"/><ellipse cx="444.2334" cy="581.4102" fill="#FFFFFF" rx="9" ry="9" style="stroke:#000000;stroke-width:1;"/><path d="M440.6611,577.6753 L440.6611,575.5171 L448.0405,575.5171 L448.0405,577.6753 L445.5752,577.6753 L445.5752,585.752 L448.0405,585.752 L448.0405,587.9102 L440.6611,587.9102 L440.6611,585.752 L443.1265,585.752 L443.1265,577.6753 Z " fill="#000000"/><text fill="#000000" font-family="'sans-serif'" font-size="14" font-style="italic" lengthAdjust="spacing" textLength="243.1816" x="461.7334" y="586.7012">SlashCommandArgumentCompleter</text><line style="stroke:#000000;stroke-width:1;" x1="378.5" x2="760.6484" y1="595.4102" y2="595.4102"/><line style="stroke:#000000;stroke-width:1;" x1="378.5" x2="760.6484" y1="603.4102" y2="603.4102"/><text fill="#000000" font-family="'sans-serif'" font-size="14" lengthAdjust="spacing" textLength="372.1484" x="383.5" y="620.9453">+complete(argumentPrefix, context): CompletionStage</text></g><!--class BuiltinCommandHandler--><g class="entity" data-qualified-name="BuiltinCommandHandler" data-source-line="241" id="ent0006"><rect fill="#FFFFFF" height="60.4883" rx="2.5" ry="2.5" style="stroke:#000000;stroke-width:1;" width="332.7148" x="780" y="567.4102"/><ellipse cx="859.8276" cy="581.4102" fill="#FFFFFF" rx="9" ry="9" style="stroke:#000000;stroke-width:1;"/><path d="M856.2554,577.6753 L856.2554,575.5171 L863.6348,575.5171 L863.6348,577.6753 L861.1694,577.6753 L861.1694,585.752 L863.6348,585.752 L863.6348,587.9102 L856.2554,587.9102 L856.2554,585.752 L858.7207,585.752 L858.7207,577.6753 Z " fill="#000000"/><text fill="#000000" font-family="'sans-serif'" font-size="14" font-style="italic" lengthAdjust="spacing" textLength="165.5596" x="877.3276" y="586.7012">BuiltinCommandHandler</text><line style="stroke:#000000;stroke-width:1;" x1="781" x2="1111.7148" y1="595.4102" y2="595.4102"/><line style="stroke:#000000;stroke-width:1;" x1="781" x2="1111.7148" y1="603.4102" y2="603.4102"/><text fill="#000000" font-family="'sans-serif'" font-size="14" lengthAdjust="spacing" textLength="320.7148" x="786" y="620.9453">+handle(invocation, context): CompletionStage</text></g><!--class BuiltinCommandContributor--><g class="entity" data-qualified-name="BuiltinCommandContributor" data-source-line="245" id="ent0007"><rect fill="#FFFFFF" height="76.9766" rx="2.5" ry="2.5" style="stroke:#000000;stroke-width:1;" width="219.5156" x="545.5" y="193.9102"/><ellipse cx="558.5" cy="207.9102" fill="#FFFFFF" rx="9" ry="9" style="stroke:#000000;stroke-width:1;"/><path d="M554.9277,204.1753 L554.9277,202.0171 L562.3071,202.0171 L562.3071,204.1753 L559.8418,204.1753 L559.8418,212.252 L562.3071,212.252 L562.3071,214.4102 L554.9277,214.4102 L554.9277,212.252 L557.3931,212.252 L557.3931,204.1753 Z " fill="#000000"/><text fill="#000000" font-family="'sans-serif'" font-size="14" font-style="italic" lengthAdjust="spacing" textLength="191.5156" x="570.5" y="213.2012">BuiltinCommandContributor</text><line style="stroke:#000000;stroke-width:1;" x1="546.5" x2="764.0156" y1="221.9102" y2="221.9102"/><line style="stroke:#000000;stroke-width:1;" x1="546.5" x2="764.0156" y1="229.9102" y2="229.9102"/><text fill="#000000" font-family="'sans-serif'" font-size="14" lengthAdjust="spacing" textLength="158.4434" x="551.5" y="247.4453">+contributorId(): String</text><text fill="#000000" font-family="'sans-serif'" font-size="14" lengthAdjust="spacing" textLength="127.2578" x="551.5" y="263.9336">+commands(): List</text></g><!--class BuiltinCommandInstaller--><g class="entity" data-qualified-name="BuiltinCommandInstaller" data-source-line="250" id="ent0008"><rect fill="#FFFFFF" height="60.4883" rx="2.5" ry="2.5" style="stroke:#000000;stroke-width:1;" width="194.9131" x="751" y="63.9102"/><ellipse cx="764" cy="77.9102" fill="#FFFFFF" rx="9" ry="9" style="stroke:#000000;stroke-width:1;"/><path d="M766.4731,84.0532 Q765.8921,84.3521 765.2529,84.5015 Q764.6138,84.6509 763.9082,84.6509 Q761.4014,84.6509 760.0815,82.999 Q758.7617,81.3472 758.7617,78.2261 Q758.7617,75.0967 760.0815,73.4448 Q761.4014,71.793 763.9082,71.793 Q764.6138,71.793 765.2612,71.9424 Q765.9087,72.0918 766.4731,72.3906 L766.4731,75.1133 Q765.8423,74.5322 765.2488,74.2625 Q764.6553,73.9927 764.0244,73.9927 Q762.6797,73.9927 761.9949,75.0593 Q761.3101,76.126 761.3101,78.2261 Q761.3101,80.3179 761.9949,81.3845 Q762.6797,82.4512 764.0244,82.4512 Q764.6553,82.4512 765.2488,82.1814 Q765.8423,81.9116 766.4731,81.3306 Z " fill="#000000"/><text fill="#000000" font-family="'sans-serif'" font-size="14" lengthAdjust="spacing" textLength="166.9131" x="776" y="83.2012">BuiltinCommandInstaller</text><line style="stroke:#000000;stroke-width:1;" x1="752" x2="944.9131" y1="91.9102" y2="91.9102"/><line style="stroke:#000000;stroke-width:1;" x1="752" x2="944.9131" y1="99.9102" y2="99.9102"/><text fill="#000000" font-family="'sans-serif'" font-size="14" lengthAdjust="spacing" textLength="144.8398" x="757" y="117.4453">+install(contributors)</text></g><!--class SlashCommandDefinitionValidator--><g class="entity" data-qualified-name="SlashCommandDefinitionValidator" data-source-line="254" id="ent0009"><rect fill="#FFFFFF" height="90.0488" rx="2.5" ry="2.5" style="stroke:#000000;stroke-width:1;" width="317.2861" x="1131" y="552.4102"/><ellipse cx="1169.5557" cy="572.9463" fill="#FFFFFF" rx="9" ry="9" style="stroke:#000000;stroke-width:1;"/><path d="M1172.0288,579.0894 Q1171.4478,579.3882 1170.8086,579.5376 Q1170.1694,579.687 1169.4639,579.687 Q1166.957,579.687 1165.6372,578.0352 Q1164.3174,576.3833 1164.3174,573.2622 Q1164.3174,570.1328 1165.6372,568.481 Q1166.957,566.8291 1169.4639,566.8291 Q1170.1694,566.8291 1170.8169,566.9785 Q1171.4644,567.1279 1172.0288,567.4268 L1172.0288,570.1494 Q1171.3979,569.5684 1170.8044,569.2986 Q1170.2109,569.0288 1169.5801,569.0288 Q1168.2354,569.0288 1167.5505,570.0955 Q1166.8657,571.1621 1166.8657,573.2622 Q1166.8657,575.354 1167.5505,576.4207 Q1168.2354,577.4873 1169.5801,577.4873 Q1170.2109,577.4873 1170.8044,577.2175 Q1171.3979,576.9478 1172.0288,576.3667 Z " fill="#000000"/><text fill="#000000" font-family="Verdana" font-size="12" font-style="italic" lengthAdjust="spacing" textLength="49.4883" x="1278.6489" y="569.4746">&#171;utility&#187;</text><text fill="#000000" font-family="'sans-serif'" font-size="14" lengthAdjust="spacing" textLength="232.6748" x="1187.0557" y="585.5293">SlashCommandDefinitionValidator</text><line style="stroke:#000000;stroke-width:1;" x1="1132" x2="1447.2861" y1="593.4824" y2="593.4824"/><line style="stroke:#000000;stroke-width:1;" x1="1132" x2="1447.2861" y1="601.4824" y2="601.4824"/><text fill="#000000" font-family="'sans-serif'" font-size="14" lengthAdjust="spacing" textLength="227.6914" x="1137" y="619.0176">+requireValidName(name): String</text><text fill="#000000" font-family="'sans-serif'" font-size="14" lengthAdjust="spacing" textLength="305.2861" x="1137" y="635.5059">+requireValidDescription(description): String</text></g><!--class RegisteredSlashCommand--><g class="entity" data-qualified-name="RegisteredSlashCommand" data-source-line="259" id="ent0010"><rect fill="#FFFFFF" height="106.5371" rx="2.5" ry="2.5" style="stroke:#000000;stroke-width:1;" width="249.2412" x="1008" y="178.9102"/><ellipse cx="1041.0241" cy="199.4463" fill="#FFFFFF" rx="9" ry="9" style="stroke:#000000;stroke-width:1;"/><path d="M1043.4973,205.5894 Q1042.9162,205.8882 1042.2771,206.0376 Q1041.6379,206.187 1040.9323,206.187 Q1038.4255,206.187 1037.1057,204.5352 Q1035.7858,202.8833 1035.7858,199.7622 Q1035.7858,196.6328 1037.1057,194.981 Q1038.4255,193.3291 1040.9323,193.3291 Q1041.6379,193.3291 1042.2854,193.4785 Q1042.9328,193.6279 1043.4973,193.9268 L1043.4973,196.6494 Q1042.8664,196.0684 1042.2729,195.7986 Q1041.6794,195.5288 1041.0485,195.5288 Q1039.7038,195.5288 1039.019,196.5955 Q1038.3342,197.6621 1038.3342,199.7622 Q1038.3342,201.854 1039.019,202.9207 Q1039.7038,203.9873 1041.0485,203.9873 Q1041.6794,203.9873 1042.2729,203.7175 Q1042.8664,203.4478 1043.4973,202.8667 Z " fill="#000000"/><text fill="#000000" font-family="Verdana" font-size="12" font-style="italic" lengthAdjust="spacing" textLength="53.8711" x="1118.91" y="195.9746">&#171;record&#187;</text><text fill="#000000" font-family="'sans-serif'" font-size="14" lengthAdjust="spacing" textLength="176.7432" x="1057.4739" y="212.0293">RegisteredSlashCommand</text><line style="stroke:#000000;stroke-width:1;" x1="1009" x2="1256.2412" y1="219.9824" y2="219.9824"/><text fill="#000000" font-family="'sans-serif'" font-size="14" lengthAdjust="spacing" textLength="109.9766" x="1014" y="237.5176">+String ownerId</text><text fill="#000000" font-family="'sans-serif'" font-size="14" lengthAdjust="spacing" textLength="237.2412" x="1014" y="254.0059">+CommandSourceKind sourceKind</text><text fill="#000000" font-family="'sans-serif'" font-size="14" lengthAdjust="spacing" textLength="204.2236" x="1014" y="270.4941">+CommandExecutor executor</text><line style="stroke:#000000;stroke-width:1;" x1="1009" x2="1256.2412" y1="277.4473" y2="277.4473"/></g><!--class CommandExecutor--><g class="entity" data-qualified-name="CommandExecutor" data-source-line="265" id="ent0011"><rect fill="#FFFFFF" height="60.4883" rx="2.5" ry="2.5" style="stroke:#000000;stroke-width:1;" width="340.0293" x="932.5" y="380.9102"/><ellipse cx="1034.2368" cy="394.9102" fill="#FFFFFF" rx="9" ry="9" style="stroke:#000000;stroke-width:1;"/><path d="M1030.6646,391.1753 L1030.6646,389.0171 L1038.0439,389.0171 L1038.0439,391.1753 L1035.5786,391.1753 L1035.5786,399.252 L1038.0439,399.252 L1038.0439,401.4102 L1030.6646,401.4102 L1030.6646,399.252 L1033.1299,399.252 L1033.1299,391.1753 Z " fill="#000000"/><text fill="#000000" font-family="'sans-serif'" font-size="14" font-style="italic" lengthAdjust="spacing" textLength="129.0557" x="1051.7368" y="400.2012">CommandExecutor</text><line style="stroke:#000000;stroke-width:1;" x1="933.5" x2="1271.5293" y1="408.9102" y2="408.9102"/><line style="stroke:#000000;stroke-width:1;" x1="933.5" x2="1271.5293" y1="416.9102" y2="416.9102"/><text fill="#000000" font-family="'sans-serif'" font-size="14" lengthAdjust="spacing" textLength="328.0293" x="938.5" y="434.4453">+execute(invocation, context): CompletionStage</text></g><!--class CommandRegistrySnapshot--><g class="entity" data-qualified-name="CommandRegistrySnapshot" data-source-line="269" id="ent0012"><rect fill="#FFFFFF" height="57.0723" rx="2.5" ry="2.5" style="stroke:#000000;stroke-width:1;" width="214.9355" x="1025" y="65.4102"/><ellipse cx="1038" cy="85.9463" fill="#FFFFFF" rx="9" ry="9" style="stroke:#000000;stroke-width:1;"/><path d="M1040.4731,92.0894 Q1039.8921,92.3882 1039.2529,92.5376 Q1038.6138,92.687 1037.9082,92.687 Q1035.4014,92.687 1034.0815,91.0352 Q1032.7617,89.3833 1032.7617,86.2622 Q1032.7617,83.1328 1034.0815,81.481 Q1035.4014,79.8291 1037.9082,79.8291 Q1038.6138,79.8291 1039.2612,79.9785 Q1039.9087,80.1279 1040.4731,80.4268 L1040.4731,83.1494 Q1039.8423,82.5684 1039.2488,82.2986 Q1038.6553,82.0288 1038.0244,82.0288 Q1036.6797,82.0288 1035.9949,83.0955 Q1035.3101,84.1621 1035.3101,86.2622 Q1035.3101,88.354 1035.9949,89.4207 Q1036.6797,90.4873 1038.0244,90.4873 Q1038.6553,90.4873 1039.2488,90.2175 Q1039.8423,89.9478 1040.4731,89.3667 Z " fill="#000000"/><text fill="#000000" font-family="Verdana" font-size="12" font-style="italic" lengthAdjust="spacing" textLength="79.5645" x="1103.6855" y="82.4746">&#171;immutable&#187;</text><text fill="#000000" font-family="'sans-serif'" font-size="14" lengthAdjust="spacing" textLength="186.9355" x="1050" y="98.5293">CommandRegistrySnapshot</text><line style="stroke:#000000;stroke-width:1;" x1="1026" x2="1238.9355" y1="106.4824" y2="106.4824"/><line style="stroke:#000000;stroke-width:1;" x1="1026" x2="1238.9355" y1="114.4824" y2="114.4824"/></g><!--class SlashCommandInvocation--><g class="entity" data-qualified-name="SlashCommandInvocation" data-source-line="270" id="ent0013"><rect fill="#FFFFFF" height="44" rx="2.5" ry="2.5" style="stroke:#000000;stroke-width:1;" width="202.8428" x="845" y="754.9102"/><ellipse cx="858" cy="768.9102" fill="#FFFFFF" rx="9" ry="9" style="stroke:#000000;stroke-width:1;"/><path d="M860.4731,775.0532 Q859.8921,775.3521 859.2529,775.5015 Q858.6138,775.6509 857.9082,775.6509 Q855.4014,775.6509 854.0815,773.999 Q852.7617,772.3472 852.7617,769.2261 Q852.7617,766.0967 854.0815,764.4448 Q855.4014,762.793 857.9082,762.793 Q858.6138,762.793 859.2612,762.9424 Q859.9087,763.0918 860.4731,763.3906 L860.4731,766.1133 Q859.8423,765.5322 859.2488,765.2625 Q858.6553,764.9927 858.0244,764.9927 Q856.6797,764.9927 855.9949,766.0593 Q855.3101,767.126 855.3101,769.2261 Q855.3101,771.3179 855.9949,772.3845 Q856.6797,773.4512 858.0244,773.4512 Q858.6553,773.4512 859.2488,773.1814 Q859.8423,772.9116 860.4731,772.3306 Z " fill="#000000"/><text fill="#000000" font-family="'sans-serif'" font-size="14" lengthAdjust="spacing" textLength="174.8428" x="870" y="774.2012">SlashCommandInvocation</text><line style="stroke:#000000;stroke-width:1;" x1="846" x2="1046.8428" y1="782.9102" y2="782.9102"/><line style="stroke:#000000;stroke-width:1;" x1="846" x2="1046.8428" y1="790.9102" y2="790.9102"/></g><!--class BuiltinCommandContext--><g class="entity" data-qualified-name="BuiltinCommandContext" data-source-line="271" id="ent0014"><rect fill="#FFFFFF" height="44" rx="2.5" ry="2.5" style="stroke:#000000;stroke-width:1;" width="194.2979" x="1066.5" y="754.9102"/><ellipse cx="1079.5" cy="768.9102" fill="#FFFFFF" rx="9" ry="9" style="stroke:#000000;stroke-width:1;"/><path d="M1081.9731,775.0532 Q1081.3921,775.3521 1080.7529,775.5015 Q1080.1138,775.6509 1079.4082,775.6509 Q1076.9014,775.6509 1075.5815,773.999 Q1074.2617,772.3472 1074.2617,769.2261 Q1074.2617,766.0967 1075.5815,764.4448 Q1076.9014,762.793 1079.4082,762.793 Q1080.1138,762.793 1080.7612,762.9424 Q1081.4087,763.0918 1081.9731,763.3906 L1081.9731,766.1133 Q1081.3423,765.5322 1080.7488,765.2625 Q1080.1553,764.9927 1079.5244,764.9927 Q1078.1797,764.9927 1077.4949,766.0593 Q1076.8101,767.126 1076.8101,769.2261 Q1076.8101,771.3179 1077.4949,772.3845 Q1078.1797,773.4512 1079.5244,773.4512 Q1080.1553,773.4512 1080.7488,773.1814 Q1081.3423,772.9116 1081.9731,772.3306 Z " fill="#000000"/><text fill="#000000" font-family="'sans-serif'" font-size="14" lengthAdjust="spacing" textLength="166.2979" x="1091.5" y="774.2012">BuiltinCommandContext</text><line style="stroke:#000000;stroke-width:1;" x1="1067.5" x2="1259.7979" y1="782.9102" y2="782.9102"/><line style="stroke:#000000;stroke-width:1;" x1="1067.5" x2="1259.7979" y1="790.9102" y2="790.9102"/></g><!--class CommandExecutionResult--><g class="entity" data-qualified-name="CommandExecutionResult" data-source-line="272" id="ent0015"><rect fill="#FFFFFF" height="44" rx="2.5" ry="2.5" style="stroke:#000000;stroke-width:1;" width="205.8232" x="620.5" y="754.9102"/><ellipse cx="633.5" cy="768.9102" fill="#FFFFFF" rx="9" ry="9" style="stroke:#000000;stroke-width:1;"/><path d="M635.9731,775.0532 Q635.3921,775.3521 634.7529,775.5015 Q634.1138,775.6509 633.4082,775.6509 Q630.9014,775.6509 629.5815,773.999 Q628.2617,772.3472 628.2617,769.2261 Q628.2617,766.0967 629.5815,764.4448 Q630.9014,762.793 633.4082,762.793 Q634.1138,762.793 634.7612,762.9424 Q635.4087,763.0918 635.9731,763.3906 L635.9731,766.1133 Q635.3423,765.5322 634.7488,765.2625 Q634.1553,764.9927 633.5244,764.9927 Q632.1797,764.9927 631.4949,766.0593 Q630.8101,767.126 630.8101,769.2261 Q630.8101,771.3179 631.4949,772.3845 Q632.1797,773.4512 633.5244,773.4512 Q634.1553,773.4512 634.7488,773.1814 Q635.3423,772.9116 635.9731,772.3306 Z " fill="#000000"/><text fill="#000000" font-family="'sans-serif'" font-size="14" lengthAdjust="spacing" textLength="177.8232" x="645.5" y="774.2012">CommandExecutionResult</text><line style="stroke:#000000;stroke-width:1;" x1="621.5" x2="825.3232" y1="782.9102" y2="782.9102"/><line style="stroke:#000000;stroke-width:1;" x1="621.5" x2="825.3232" y1="790.9102" y2="790.9102"/></g><g class="link" data-entity-1="ent0007" data-entity-2="ent0001" data-link-type="dependency" id="lnk16"><polygon fill="#000000" points="685.3075,340.7779,686.7542,331.0359,683.97,335.9601,679.0457,333.1759,685.3075,340.7779" style="stroke:#000000;stroke-width:1;stroke-linejoin:miter;stroke-miterlimit:10;"/><path d="M666.0117,271.2738 C671.6359,291.5322 677.4015,312.3002 683.97,335.9601" fill="none" style="stroke:#000000;stroke-width:1;"/><text fill="#000000" font-family="'sans-serif'" font-size="13" lengthAdjust="spacing" textLength="52.2095" x="682.5" y="318.4785">declares</text><text fill="#000000" font-family="'sans-serif'" font-size="13" lengthAdjust="spacing" textLength="22.7119" x="662.3075" y="337.3463">1..*</text><text fill="#000000" font-family="'sans-serif'" font-size="13" lengthAdjust="spacing" textLength="8.2202" x="657.0117" y="284.8422">1</text></g><g class="link" data-entity-1="ent0008" data-entity-2="ent0007" data-link-type="dependency" id="lnk17"><polygon fill="#000000" points="683.1443,193.887,691.9437,189.4632,686.3143,190.0204,685.7571,184.3911,683.1443,193.887" style="stroke:#000000;stroke-width:1;stroke-linejoin:miter;stroke-miterlimit:10;"/><path d="M767.2912,123.9365 C756.5317,129.2141 745.9644,135.2066 736.5,141.9102 C716.32,156.2034 700.704,172.4689 686.3143,190.0204" fill="none" style="stroke:#000000;stroke-width:1;stroke-dasharray:7,7;"/><text fill="#000000" font-family="'sans-serif'" font-size="13" lengthAdjust="spacing" textLength="47.5503" x="738.5" y="156.4785">collects</text></g><g class="link" data-entity-1="ent0008" data-entity-2="ent0001" data-link-type="dependency" id="lnk18"><polygon fill="#000000" points="745.9561,340.6954,753.8488,334.8043,748.403,336.3351,746.8722,330.8893,745.9561,340.6954" style="stroke:#000000;stroke-width:1;stroke-linejoin:miter;stroke-miterlimit:10;"/><path d="M836.9856,124.0427 C830.6186,140.1959 822.5847,160.651 815.5,178.9102 C797.0779,226.3886 796.1882,239.832 774.5,285.9102 C765.9724,304.0277 758.2801,318.7339 748.403,336.3351" fill="none" style="stroke:#000000;stroke-width:1;stroke-dasharray:7,7;"/><text fill="#000000" font-family="'sans-serif'" font-size="13" lengthAdjust="spacing" textLength="55.5166" x="817.5" y="237.4785">validates</text></g><g class="link" data-entity-1="ent0001" data-entity-2="ent0009" data-link-type="dependency" id="lnk19"><polygon fill="#000000" points="1170.5657,552.3384,1163.3827,545.6001,1165.844,550.6934,1160.7507,553.1547,1170.5657,552.3384" style="stroke:#000000;stroke-width:1;stroke-linejoin:miter;stroke-miterlimit:10;"/><path d="M908.14,476.3267 C913.3091,477.8793 918.4358,479.4095 923.5,480.9102 C1011.0682,506.8591 1034.4744,508.1961 1121.5,535.9102 C1137.4508,540.9898 1149.4259,544.9735 1165.844,550.6934" fill="none" style="stroke:#000000;stroke-width:1;stroke-dasharray:7,7;"/><text fill="#000000" font-family="'sans-serif'" font-size="13" lengthAdjust="spacing" textLength="93.9771" x="1063.5" y="513.4785">validates fields</text></g><g class="link" data-entity-1="ent0001" data-entity-2="ent0002" data-link-type="composition" id="lnk20"><polygon fill="#000000" points="514.436,480.9299,507.4213,479.258,503.1801,485.09,510.1948,486.7619,514.436,480.9299" style="stroke:#000000;stroke-width:1;stroke-linejoin:miter;stroke-miterlimit:10;"/><path d="M503.1801,485.09 C455.4331,502.7372 415.6296,517.7138 368.5,535.9102 C365.6185,537.0227 362.7077,538.1513 359.7754,539.2926" fill="none" style="stroke:#000000;stroke-width:1;"/><text fill="#000000" font-family="'sans-serif'" font-size="13" lengthAdjust="spacing" textLength="73.9438" x="462.5" y="513.4785">owns policy</text></g><g class="link" data-entity-1="ent0002" data-entity-2="ent0003" data-link-type="composition" id="lnk21"><polygon fill="#000000" points="287.2306,658.9779,288.0105,666.1467,294.9278,668.1841,294.1479,661.0153,287.2306,658.9779" style="stroke:#000000;stroke-width:1;stroke-linejoin:miter;stroke-miterlimit:10;"/><path d="M294.9278,668.1841 C299.7622,673.9662 296.5711,670.7672 300.5,676.9102 C307.6967,688.1626 313.5636,701.1145 318.2711,713.8623" fill="none" style="stroke:#000000;stroke-width:1;"/><text fill="#000000" font-family="'sans-serif'" font-size="13" lengthAdjust="spacing" textLength="155.1621" x="312.5" y="691.4785">selects runtime behavior</text></g><g class="link" data-entity-1="ent0002" data-entity-2="ent0004" data-link-type="composition" id="lnk22"><polygon fill="#000000" points="114.6637,659.1427,107.7328,661.1334,106.9047,668.2968,113.8356,666.3061,114.6637,659.1427" style="stroke:#000000;stroke-width:1;stroke-linejoin:miter;stroke-miterlimit:10;"/><path d="M106.9047,668.2968 C102.2322,673.8095 105.8629,670.5738 102.5,676.9102 C92.6699,695.4319 92.2091,718.7842 94.42,738.1564" fill="none" style="stroke:#000000;stroke-width:1;"/><text fill="#000000" font-family="'sans-serif'" font-size="13" lengthAdjust="spacing" textLength="190.4297" x="104.5" y="691.4785">selects command concurrency</text></g><g class="link" data-entity-1="ent0001" data-entity-2="ent0005" data-link-type="aggregation" id="lnk23"><polygon fill="none" points="653.8469,481.1361,647.0757,483.6162,646.7608,490.8204,653.532,488.3403,653.8469,481.1361" style="stroke:#000000;stroke-width:1;stroke-linejoin:miter;stroke-miterlimit:10;"/><path d="M646.7608,490.8204 C624.9139,520.6778 607.6379,544.2884 590.7353,567.3886" fill="none" style="stroke:#000000;stroke-width:1;"/><text fill="#000000" font-family="'sans-serif'" font-size="13" lengthAdjust="spacing" textLength="135.1924" x="639.5" y="513.4785">delegates completion</text></g><g class="link" data-entity-1="ent0001" data-entity-2="ent0006" data-link-type="aggregation" id="lnk24"><polygon fill="none" points="795.3004,481.1361,797.6467,487.9548,804.8433,488.4116,802.497,481.5928,795.3004,481.1361" style="stroke:#000000;stroke-width:1;stroke-linejoin:miter;stroke-miterlimit:10;"/><path d="M804.8433,488.4116 C844.0058,518.2689 878.1343,544.2884 908.4338,567.3886" fill="none" style="stroke:#000000;stroke-width:1;"/><text fill="#000000" font-family="'sans-serif'" font-size="13" lengthAdjust="spacing" textLength="126.4136" x="842.5" y="513.4785">delegates execution</text></g><g class="link" data-entity-1="ent0008" data-entity-2="ent0010" data-link-type="dependency" id="lnk25"><polygon fill="#000000" points="1023.0128,178.7869,1016.6339,171.2829,1018.5063,176.6209,1013.1683,178.4934,1023.0128,178.7869" style="stroke:#000000;stroke-width:1;stroke-linejoin:miter;stroke-miterlimit:10;"/><path d="M909.0768,124.0254 C942.2281,139.959 979.8155,158.0248 1018.5063,176.6209" fill="none" style="stroke:#000000;stroke-width:1;stroke-dasharray:7,7;"/><text fill="#000000" font-family="'sans-serif'" font-size="13" lengthAdjust="spacing" textLength="42.2119" x="984.5" y="156.4785">adapts</text></g><g class="link" data-entity-1="ent0008" data-entity-2="ent0011" data-link-type="dependency" id="lnk26"><polygon fill="#000000" points="1031.204,380.8079,1024.8754,373.2615,1026.7121,378.6118,1021.3617,380.4485,1031.204,380.8079" style="stroke:#000000;stroke-width:1;stroke-linejoin:miter;stroke-miterlimit:10;"/><path d="M857.6548,124.0265 C862.6963,140.1749 869.0235,160.6305 874.5,178.9102 C888.7093,226.3386 875.714,246.3608 905.5,285.9102 C937.5922,328.5217 984.4736,357.9618 1026.7121,378.6118" fill="none" style="stroke:#000000;stroke-width:1;stroke-dasharray:7,7;"/><text fill="#000000" font-family="'sans-serif'" font-size="13" lengthAdjust="spacing" textLength="89.2544" x="907.5" y="237.4785">wraps handler</text></g><g class="link" data-entity-1="ent0010" data-entity-2="ent0011" data-link-type="aggregation" id="lnk27"><polygon fill="none" points="1123.499,286.366,1118.5502,291.6109,1121.4882,298.1963,1126.437,292.9514,1123.499,286.366" style="stroke:#000000;stroke-width:1;stroke-linejoin:miter;stroke-miterlimit:10;"/><path d="M1121.4882,298.1963 C1116.2241,329.1664 1111.7908,355.2494 1107.4405,380.8436" fill="none" style="stroke:#000000;stroke-width:1;"/><text fill="#000000" font-family="'sans-serif'" font-size="13" lengthAdjust="spacing" textLength="126.4136" x="1122.5" y="318.4785">delegates execution</text></g><g class="link" data-entity-1="ent0012" data-entity-2="ent0010" data-link-type="composition" id="lnk28"><polygon fill="#000000" points="1132.5,122.533,1128.5,128.533,1132.5,134.533,1136.5,128.533,1132.5,122.533" style="stroke:#000000;stroke-width:1;stroke-linejoin:miter;stroke-miterlimit:10;"/><path d="M1132.5,134.533 C1132.5,150.6586 1132.5,159.5418 1132.5,178.6998" fill="none" style="stroke:#000000;stroke-width:1;"/><text fill="#000000" font-family="'sans-serif'" font-size="13" lengthAdjust="spacing" textLength="53.2061" x="1134.5" y="156.4785">contains</text></g><g class="link" data-entity-1="ent0006" data-entity-2="ent0013" data-link-type="dependency" id="lnk29"><polygon fill="#000000" points="946.5,754.9063,950.5,745.9063,946.5,749.9063,942.5,745.9063,946.5,754.9063" style="stroke:#000000;stroke-width:1;stroke-linejoin:miter;stroke-miterlimit:10;"/><path d="M946.5,627.7207 C946.5,663.5626 946.5,718.3415 946.5,749.9063" fill="none" style="stroke:#000000;stroke-width:1;stroke-dasharray:7,7;"/><text fill="#000000" font-family="'sans-serif'" font-size="13" lengthAdjust="spacing" textLength="50.8193" x="948.5" y="691.4785">receives</text></g><g class="link" data-entity-1="ent0006" data-entity-2="ent0014" data-link-type="dependency" id="lnk30"><polygon fill="#000000" points="1137.8221,754.9063,1133.3883,746.1119,1133.9519,751.7406,1128.3232,752.3042,1137.8221,754.9063" style="stroke:#000000;stroke-width:1;stroke-linejoin:miter;stroke-miterlimit:10;"/><path d="M982.3331,627.7207 C1026.1511,663.5626 1095.3628,720.1758 1133.9519,751.7406" fill="none" style="stroke:#000000;stroke-width:1;stroke-dasharray:7,7;"/><text fill="#000000" font-family="'sans-serif'" font-size="13" lengthAdjust="spacing" textLength="50.8193" x="1064.5" y="691.4785">receives</text></g><g class="link" data-entity-1="ent0006" data-entity-2="ent0015" data-link-type="dependency" id="lnk31"><polygon fill="#000000" points="749.8879,754.9063,759.4206,752.4311,753.7999,751.7925,754.4385,746.1718,749.8879,754.9063" style="stroke:#000000;stroke-width:1;stroke-linejoin:miter;stroke-miterlimit:10;"/><path d="M909.6761,627.7207 C864.6465,663.5626 793.456,720.2277 753.7999,751.7925" fill="none" style="stroke:#000000;stroke-width:1;stroke-dasharray:7,7;"/><text fill="#000000" font-family="'sans-serif'" font-size="13" lengthAdjust="spacing" textLength="45.5063" x="844.5" y="691.4785">returns</text></g><?plantuml-src dLRRajeu47ttLoYyX6JNJ2OxIQfS55K4l1lNpZ1P3DcyJGcv0LLaoP7akMng_pqjszY6mKoI5v3axgE-d3xsSv9nObIk6GGae-mBtO0vOohXSkFZMjepenaUQ3WpWfgjprIQKfcOWJN1-H_-nIll-OzXf2h1OoujQCeiluNssdTF7UJhDnVd_kktxouGTWg6RoJHG8sI0LbncRYhKh0qePOIgmWbMmn6W2RuHwJIAHNyFo1KY2eaGrQmTPvKak92IGM1Us2vLNhWFRDRI85aWdBfFSiqtQIK2FgWSakCkqbIptpXCgEQfYI1DSs5_LD9EwFerekfD35elkwrhCoM9keEioThAWoqdgomEXkjSfbCb52QM8t--0XhrB9YM6WpjbRpLMuXOah6BgTNdkLM07cVSs5zBicaR0NMQSqbjrp9eWhHBiihhAdml0AkzEAoyccv38SQiB_9Q4I-UOJyHcAy66ENc61xZzrZccVEfpYkaCAYb7ZuKGdE7ghIrliImJ6diX_hJPvYlhZD15ZNkSEJmcS_tWzLbwjkU__lqkg8ub5I-t2rkIiHSTnhfpHHakKQcu90h5aN9Ykb122L69KCXA0hKRfU5uMXOZZDDNNB4R4y1QIHYnLadfuCmGKPNLs5qsYy274z3_zPHlFm9ffUkktu_VLySJF-AvpXxsnwCr_EdD5ojeYkmfl5V3oBeqLqxGxZ3yl5zFhVMNtjaQI-5NRZUJZ5HVXvShcCeq-XyoWcP4qPFD6pigYislTtBVoeaLVtlxkgMRYtBm9IkM2UiKKjsB_ZU8zBxBBJVIvl5IiA-ekec7SvIAg9kZw9aZwYbGJVPLIecpk-vCOsHDj7ZQIng35rjBpSzrlOvaNZt2vcCtgVKAjGo32muH2f8BXzgFcguMlEDHGcJchwRXptOssRJ9lXxBS6jN6eGvd31lC23Kaxg4uLK7SIi4pjyOWBNVtRQQgfbuyb0TFQoUn-VmwjoljAsvze-DxybrdfXrZIp6oLnNnuckRMpUTeTAGBKNtDqVvEofixH6OE1jy2djVDjDvvZ_Z-2Fy7WvUzRl4DK5Rn3Wt6woBOO30wGUa0YuHcpFuCm5u0joKB7qNGCd88Jr6u1KJM74Ho0k-bxtS9T-0OPqXMlZmwZ9p_AJKDY86Y9aJdqicm-mQWjnoPU0BnY50sG9KmxBqFElDJY7PQFrtV1MoAQh6QswSHZwjb6wb-zvxaGeS210I_gh8dU7Gukm6vqpXnzNkv0riTDbnr1Turpwv1dO4xdS3ljyFGToKwf6yp--YBiWVu0NhAzwWq_9ZhSUKeV6skfVaE?></g></svg>