<svg xmlns="http://www.w3.org/2000/svg" xmlns:xlink="http://www.w3.org/1999/xlink" contentStyleType="text/css" data-diagram-type="ACTIVITY" height="418px" preserveAspectRatio="none" style="width:684px;height:418px;" version="1.1" viewBox="0 0 684 418" width="684px" zoomAndPan="magnify"><?plantuml 1.2026.6?><defs/><g><g class="title" data-source-line="331"><text fill="#000000" font-family="'PingFang SC'" font-size="22" font-weight="700" lengthAdjust="spacing" textLength="290.9843" x="195.8805" y="38.32">Slash Command &#36755;&#20837;&#20248;&#20808;&#32423;</text></g><ellipse cx="185.1463" cy="71.8" fill="#FFFFFF" rx="10" ry="10" style="stroke:#000000;stroke-width:1;"/><polygon fill="#FFFFFF" points="160.2176,101.8,210.0751,101.8,222.0751,113.8,210.0751,125.8,160.2176,125.8,148.2176,113.8,160.2176,101.8" style="stroke:#000000;stroke-width:1;stroke-linejoin:miter;stroke-miterlimit:10;"/><text fill="#000000" font-family="'PingFang SC'" font-size="11" lengthAdjust="spacing" textLength="49.8575" x="160.2176" y="117.76">&#20197; ! &#24320;&#22836;?</text><text fill="#000000" font-family="'PingFang SC'" font-size="11" lengthAdjust="spacing" textLength="11" x="137.2176" y="110.06">&#26159;</text><text fill="#000000" font-family="'PingFang SC'" font-size="11" lengthAdjust="spacing" textLength="11" x="222.0751" y="110.06">&#21542;</text><rect fill="#FFFFFF" height="36.8" rx="12.5" ry="12.5" style="stroke:#000000;stroke-width:1;" width="114.4545" x="11" y="135.8"/><text fill="#000000" font-family="'PingFang SC'" font-size="12" lengthAdjust="spacing" textLength="94.4545" x="21" y="158.52">Bash input mode</text><ellipse cx="68.2272" cy="218.6" fill="none" rx="11" ry="11" style="stroke:#000000;stroke-width:1;"/><ellipse cx="68.2272" cy="218.6" fill="#FFFFFF" rx="6" ry="6" style="stroke:#000000;stroke-width:1;"/><polygon fill="#FFFFFF" points="285.3067,135.8,358.8242,135.8,370.8242,147.8,358.8242,159.8,285.3067,159.8,273.3067,147.8,285.3067,135.8" style="stroke:#000000;stroke-width:1;stroke-linejoin:miter;stroke-miterlimit:10;"/><text fill="#000000" font-family="'PingFang SC'" font-size="11" lengthAdjust="spacing" textLength="73.5174" x="285.3067" y="151.76">Registry &#21629;&#20196;?</text><text fill="#000000" font-family="'PingFang SC'" font-size="11" lengthAdjust="spacing" textLength="11" x="262.3067" y="144.06">&#26159;</text><text fill="#000000" font-family="'PingFang SC'" font-size="11" lengthAdjust="spacing" textLength="11" x="370.8242" y="144.06">&#21542;</text><rect fill="#FFFFFF" height="53.6" rx="12.5" ry="12.5" style="stroke:#000000;stroke-width:1;" width="122.2245" x="135.4545" y="169.8"/><text fill="#000000" font-family="'PingFang SC'" font-size="12" lengthAdjust="spacing" textLength="87.9588" x="145.4545" y="192.52">Dispatcher &#25191;&#34892;</text><text fill="#000000" font-family="'PingFang SC'" font-size="12" lengthAdjust="spacing" textLength="102.2245" x="145.4545" y="209.32">Built-in/Extension</text><rect fill="#FFFFFF" height="36.8" rx="12.5" ry="12.5" style="stroke:#000000;stroke-width:1;" width="120.7076" x="136.2129" y="258.4"/><text fill="#000000" font-family="'PingFang SC'" font-size="12" lengthAdjust="spacing" textLength="100.7076" x="146.2129" y="281.12">&#32467;&#26463;&#65292;&#19981;&#36827;&#20837; LLM</text><ellipse cx="196.5667" cy="341.2" fill="none" rx="11" ry="11" style="stroke:#000000;stroke-width:1;"/><ellipse cx="196.5667" cy="341.2" fill="#FFFFFF" rx="6" ry="6" style="stroke:#000000;stroke-width:1;"/><polygon fill="#FFFFFF" points="406.2817,169.8,488.8466,169.8,500.8466,181.8,488.8466,193.8,406.2817,193.8,394.2817,181.8,406.2817,169.8" style="stroke:#000000;stroke-width:1;stroke-linejoin:miter;stroke-miterlimit:10;"/><text fill="#000000" font-family="'PingFang SC'" font-size="11" lengthAdjust="spacing" textLength="82.565" x="406.2817" y="185.76">Skill Command?</text><text fill="#000000" font-family="'PingFang SC'" font-size="11" lengthAdjust="spacing" textLength="11" x="383.2817" y="178.06">&#26159;</text><text fill="#000000" font-family="'PingFang SC'" font-size="11" lengthAdjust="spacing" textLength="11" x="500.8466" y="178.06">&#21542;</text><rect fill="#FFFFFF" height="36.8" rx="12.5" ry="12.5" style="stroke:#000000;stroke-width:1;" width="102.6561" x="287.679" y="203.8"/><text fill="#000000" font-family="'PingFang SC'" font-size="12" lengthAdjust="spacing" textLength="82.6561" x="297.679" y="226.52">Skill Processor</text><rect fill="#FFFFFF" height="36.8" rx="12.5" ry="12.5" style="stroke:#000000;stroke-width:1;" width="52.628" x="312.693" y="275.6"/><text fill="#000000" font-family="'PingFang SC'" font-size="12" lengthAdjust="spacing" textLength="32.628" x="322.693" y="298.32">Agent</text><ellipse cx="339.007" cy="358.4" fill="none" rx="11" ry="11" style="stroke:#000000;stroke-width:1;"/><ellipse cx="339.007" cy="358.4" fill="#FFFFFF" rx="6" ry="6" style="stroke:#000000;stroke-width:1;"/><polygon fill="#FFFFFF" points="508.8515,203.8,603.3911,203.8,615.3911,215.8,603.3911,227.8,508.8515,227.8,496.8515,215.8,508.8515,203.8" style="stroke:#000000;stroke-width:1;stroke-linejoin:miter;stroke-miterlimit:10;"/><text fill="#000000" font-family="'PingFang SC'" font-size="11" lengthAdjust="spacing" textLength="94.5396" x="508.8515" y="219.76">Prompt Template?</text><text fill="#000000" font-family="'PingFang SC'" font-size="11" lengthAdjust="spacing" textLength="11" x="485.8515" y="212.06">&#26159;</text><text fill="#000000" font-family="'PingFang SC'" font-size="11" lengthAdjust="spacing" textLength="11" x="615.3911" y="212.06">&#21542;</text><rect fill="#FFFFFF" height="36.8" rx="12.5" ry="12.5" style="stroke:#000000;stroke-width:1;" width="133.0329" x="420.335" y="237.8"/><text fill="#000000" font-family="'PingFang SC'" font-size="12" lengthAdjust="spacing" textLength="113.0329" x="430.335" y="260.52">Template Expansion</text><rect fill="#FFFFFF" height="36.8" rx="12.5" ry="12.5" style="stroke:#000000;stroke-width:1;" width="52.628" x="460.5375" y="309.6"/><text fill="#000000" font-family="'PingFang SC'" font-size="12" lengthAdjust="spacing" textLength="32.628" x="470.5375" y="332.32">Agent</text><ellipse cx="486.8515" cy="392.4" fill="none" rx="11" ry="11" style="stroke:#000000;stroke-width:1;"/><ellipse cx="486.8515" cy="392.4" fill="#FFFFFF" rx="6" ry="6" style="stroke:#000000;stroke-width:1;"/><rect fill="#FFFFFF" height="36.8" rx="12.5" ry="12.5" style="stroke:#000000;stroke-width:1;" width="88.7084" x="581.0368" y="237.8"/><text fill="#000000" font-family="'PingFang SC'" font-size="12" lengthAdjust="spacing" textLength="68.7084" x="591.0368" y="260.52">&#26222;&#36890; Prompt</text><rect fill="#FFFFFF" height="36.8" rx="12.5" ry="12.5" style="stroke:#000000;stroke-width:1;" width="52.628" x="599.077" y="309.6"/><text fill="#000000" font-family="'PingFang SC'" font-size="12" lengthAdjust="spacing" textLength="32.628" x="609.077" y="332.32">Agent</text><ellipse cx="625.3911" cy="392.4" fill="none" rx="11" ry="11" style="stroke:#000000;stroke-width:1;"/><ellipse cx="625.3911" cy="392.4" fill="#FFFFFF" rx="6" ry="6" style="stroke:#000000;stroke-width:1;"/><line style="stroke:#000000;stroke-width:1;" x1="68.2272" x2="68.2272" y1="172.6" y2="207.6"/><polygon fill="#000000" points="64.2272,197.6,68.2272,207.6,72.2272,197.6,68.2272,201.6" style="stroke:#000000;stroke-width:1;stroke-linejoin:miter;stroke-miterlimit:10;"/><line style="stroke:#000000;stroke-width:1;" x1="196.5667" x2="196.5667" y1="223.4" y2="258.4"/><polygon fill="#000000" points="192.5667,248.4,196.5667,258.4,200.5667,248.4,196.5667,252.4" style="stroke:#000000;stroke-width:1;stroke-linejoin:miter;stroke-miterlimit:10;"/><line style="stroke:#000000;stroke-width:1;" x1="196.5667" x2="196.5667" y1="295.2" y2="330.2"/><polygon fill="#000000" points="192.5667,320.2,196.5667,330.2,200.5667,320.2,196.5667,324.2" style="stroke:#000000;stroke-width:1;stroke-linejoin:miter;stroke-miterlimit:10;"/><line style="stroke:#000000;stroke-width:1;" x1="339.007" x2="339.007" y1="240.6" y2="275.6"/><polygon fill="#000000" points="335.007,265.6,339.007,275.6,343.007,265.6,339.007,269.6" style="stroke:#000000;stroke-width:1;stroke-linejoin:miter;stroke-miterlimit:10;"/><line style="stroke:#000000;stroke-width:1;" x1="339.007" x2="339.007" y1="312.4" y2="347.4"/><polygon fill="#000000" points="335.007,337.4,339.007,347.4,343.007,337.4,339.007,341.4" style="stroke:#000000;stroke-width:1;stroke-linejoin:miter;stroke-miterlimit:10;"/><line style="stroke:#000000;stroke-width:1;" x1="486.8515" x2="486.8515" y1="274.6" y2="309.6"/><polygon fill="#000000" points="482.8515,299.6,486.8515,309.6,490.8515,299.6,486.8515,303.6" style="stroke:#000000;stroke-width:1;stroke-linejoin:miter;stroke-miterlimit:10;"/><line style="stroke:#000000;stroke-width:1;" x1="486.8515" x2="486.8515" y1="346.4" y2="381.4"/><polygon fill="#000000" points="482.8515,371.4,486.8515,381.4,490.8515,371.4,486.8515,375.4" style="stroke:#000000;stroke-width:1;stroke-linejoin:miter;stroke-miterlimit:10;"/><line style="stroke:#000000;stroke-width:1;" x1="625.3911" x2="625.3911" y1="274.6" y2="309.6"/><polygon fill="#000000" points="621.3911,299.6,625.3911,309.6,629.3911,299.6,625.3911,303.6" style="stroke:#000000;stroke-width:1;stroke-linejoin:miter;stroke-miterlimit:10;"/><line style="stroke:#000000;stroke-width:1;" x1="625.3911" x2="625.3911" y1="346.4" y2="381.4"/><polygon fill="#000000" points="621.3911,371.4,625.3911,381.4,629.3911,371.4,625.3911,375.4" style="stroke:#000000;stroke-width:1;stroke-linejoin:miter;stroke-miterlimit:10;"/><line style="stroke:#000000;stroke-width:1;" x1="496.8515" x2="486.8515" y1="215.8" y2="215.8"/><line style="stroke:#000000;stroke-width:1;" x1="486.8515" x2="486.8515" y1="215.8" y2="237.8"/><polygon fill="#000000" points="482.8515,227.8,486.8515,237.8,490.8515,227.8,486.8515,231.8" style="stroke:#000000;stroke-width:1;stroke-linejoin:miter;stroke-miterlimit:10;"/><line style="stroke:#000000;stroke-width:1;" x1="615.3911" x2="625.3911" y1="215.8" y2="215.8"/><line style="stroke:#000000;stroke-width:1;" x1="625.3911" x2="625.3911" y1="215.8" y2="237.8"/><polygon fill="#000000" points="621.3911,227.8,625.3911,237.8,629.3911,227.8,625.3911,231.8" style="stroke:#000000;stroke-width:1;stroke-linejoin:miter;stroke-miterlimit:10;"/><line style="stroke:#000000;stroke-width:1;" x1="394.2817" x2="339.007" y1="181.8" y2="181.8"/><line style="stroke:#000000;stroke-width:1;" x1="339.007" x2="339.007" y1="181.8" y2="203.8"/><polygon fill="#000000" points="335.007,193.8,339.007,203.8,343.007,193.8,339.007,197.8" style="stroke:#000000;stroke-width:1;stroke-linejoin:miter;stroke-miterlimit:10;"/><line style="stroke:#000000;stroke-width:1;" x1="500.8466" x2="556.1213" y1="181.8" y2="181.8"/><line style="stroke:#000000;stroke-width:1;" x1="556.1213" x2="556.1213" y1="181.8" y2="203.8"/><polygon fill="#000000" points="552.1213,193.8,556.1213,203.8,560.1213,193.8,556.1213,197.8" style="stroke:#000000;stroke-width:1;stroke-linejoin:miter;stroke-miterlimit:10;"/><line style="stroke:#000000;stroke-width:1;" x1="273.3067" x2="196.5667" y1="147.8" y2="147.8"/><line style="stroke:#000000;stroke-width:1;" x1="196.5667" x2="196.5667" y1="147.8" y2="169.8"/><polygon fill="#000000" points="192.5667,159.8,196.5667,169.8,200.5667,159.8,196.5667,163.8" style="stroke:#000000;stroke-width:1;stroke-linejoin:miter;stroke-miterlimit:10;"/><line style="stroke:#000000;stroke-width:1;" x1="370.8242" x2="447.5641" y1="147.8" y2="147.8"/><line style="stroke:#000000;stroke-width:1;" x1="447.5641" x2="447.5641" y1="147.8" y2="169.8"/><polygon fill="#000000" points="443.5641,159.8,447.5641,169.8,451.5641,159.8,447.5641,163.8" style="stroke:#000000;stroke-width:1;stroke-linejoin:miter;stroke-miterlimit:10;"/><line style="stroke:#000000;stroke-width:1;" x1="148.2176" x2="68.2272" y1="113.8" y2="113.8"/><line style="stroke:#000000;stroke-width:1;" x1="68.2272" x2="68.2272" y1="113.8" y2="135.8"/><polygon fill="#000000" points="64.2272,125.8,68.2272,135.8,72.2272,125.8,68.2272,129.8" style="stroke:#000000;stroke-width:1;stroke-linejoin:miter;stroke-miterlimit:10;"/><line style="stroke:#000000;stroke-width:1;" x1="222.0751" x2="322.0654" y1="113.8" y2="113.8"/><line style="stroke:#000000;stroke-width:1;" x1="322.0654" x2="322.0654" y1="113.8" y2="135.8"/><polygon fill="#000000" points="318.0654,125.8,322.0654,135.8,326.0654,125.8,322.0654,129.8" style="stroke:#000000;stroke-width:1;stroke-linejoin:miter;stroke-miterlimit:10;"/><line style="stroke:#000000;stroke-width:1;" x1="185.1463" x2="185.1463" y1="81.8" y2="101.8"/><polygon fill="#000000" points="181.1463,91.8,185.1463,101.8,189.1463,91.8,185.1463,95.8" style="stroke:#000000;stroke-width:1;stroke-linejoin:miter;stroke-miterlimit:10;"/><?plantuml-src ZP8nRzDG4CTtVufBbwP36hMYGae6HDDsAgWYZ5skziL-YlsUzTwbRROkbK0g4gXB0I64rD8D5WP40doPE0qJNu5pNOCX7LZiUtVt_h__dRq8gG9d1jQd5gJezp4ar_HDe7JOa5Xpqrc_cPX0qaepMVHPxLCrRkJLPNQjrRKxAutLkojhtY9ia5EX1aleZ1PfIuxiFi7UGCNSK5eoobZ5GpY8L4nWpO25-QUEEW0wPD9E6Gs-IHB9EE18EiC8Z2O8b4kH_OZiibVZY1A2D4QblLfgCKmGOXoABBY463LwhgzqYXOJ2AY7WvYtZEQ7ADSMTeIzXSBlTXOgVIx2m1paldeOEwfKzcHNeLZHGSV4nW9RrEB6oiOyLYmJTMDq4NGAup3xTfeTNqp6Pzdnawilbvxd62rxgWVroUW2Qf2DZxBpJ_UMP4BIK9-UVLpo05hhkOX0POnypMt9EJQfHs87wjdpztbNhlA8GkNO3Y5xyNKoElzNIAGsVgyBfaylP-zETlNwpRQRc-McsqNlrUXq-kRjp_79vFEpsVVNOXssjnyKnMi-m5yE2W_TlehZSkHv1w9RTEnOuvDpnhRB_FtyLojFDu0vH06HoqdAy9WI-TXCjs54i2p3vc6AbSdcQHNUBKJfdhxyyEFe5HJS_rFHWUfvrQXuNpz_0G00?></g></svg>