<svg xmlns="http://www.w3.org/2000/svg" xmlns:xlink="http://www.w3.org/1999/xlink" contentStyleType="text/css" data-diagram-type="ACTIVITY" height="408px" preserveAspectRatio="none" style="width:757px;height:408px;" version="1.1" viewBox="0 0 757 408" width="757px" zoomAndPan="magnify"><?plantuml 1.2026.6?><defs/><g><g class="title" data-source-line="331"><text fill="#000000" font-family="'sans-serif'" font-size="22" font-weight="700" lengthAdjust="spacing" textLength="338.9268" x="208.5269" y="36.2695">Slash Command Input Priority</text></g><ellipse cx="205.1239" cy="66.9102" fill="#FFFFFF" rx="10" ry="10" style="stroke:#000000;stroke-width:1;"/><polygon fill="#FFFFFF" points="171.1168,96.9102,239.131,96.9102,251.131,108.9102,239.131,120.9102,171.1168,120.9102,159.1168,108.9102,171.1168,96.9102" style="stroke:#000000;stroke-width:1;stroke-linejoin:miter;stroke-miterlimit:10;"/><text fill="#000000" font-family="'sans-serif'" font-size="11" lengthAdjust="spacing" textLength="68.0142" x="171.1168" y="113.0674">Starts with !?</text><text fill="#000000" font-family="'sans-serif'" font-size="11" lengthAdjust="spacing" textLength="17.4829" x="141.6339" y="106.5898">yes</text><text fill="#000000" font-family="'sans-serif'" font-size="11" lengthAdjust="spacing" textLength="13.5835" x="251.131" y="106.5898">no</text><rect fill="#FFFFFF" height="34.1328" rx="12.5" ry="12.5" style="stroke:#000000;stroke-width:1;" width="117.9043" x="11" y="130.9102"/><text fill="#000000" font-family="'sans-serif'" font-size="12" lengthAdjust="spacing" textLength="97.9043" x="21" y="152.5117">Bash input mode</text><ellipse cx="69.9521" cy="211.043" fill="none" rx="11" ry="11" style="stroke:#000000;stroke-width:1;"/><ellipse cx="69.9521" cy="211.043" fill="#FFFFFF" rx="6" ry="6" style="stroke:#000000;stroke-width:1;"/><polygon fill="#FFFFFF" points="308.3115,130.9102,412.2798,130.9102,424.2798,142.9102,412.2798,154.9102,308.3115,154.9102,296.3115,142.9102,308.3115,130.9102" style="stroke:#000000;stroke-width:1;stroke-linejoin:miter;stroke-miterlimit:10;"/><text fill="#000000" font-family="'sans-serif'" font-size="11" lengthAdjust="spacing" textLength="103.9683" x="308.3115" y="147.0674">Registry command?</text><text fill="#000000" font-family="'sans-serif'" font-size="11" lengthAdjust="spacing" textLength="17.4829" x="278.8286" y="140.5898">yes</text><text fill="#000000" font-family="'sans-serif'" font-size="11" lengthAdjust="spacing" textLength="13.5835" x="424.2798" y="140.5898">no</text><rect fill="#FFFFFF" height="48.2656" rx="12.5" ry="12.5" style="stroke:#000000;stroke-width:1;" width="137.8438" x="152.8232" y="164.9102"/><text fill="#000000" font-family="'sans-serif'" font-size="12" lengthAdjust="spacing" textLength="117.8438" x="162.8232" y="186.5117">Dispatcher executes</text><text fill="#000000" font-family="'sans-serif'" font-size="12" lengthAdjust="spacing" textLength="106.8164" x="162.8232" y="200.6445">Built-in/Extension</text><rect fill="#FFFFFF" height="34.1328" rx="12.5" ry="12.5" style="stroke:#000000;stroke-width:1;" width="165.6816" x="138.9043" y="248.1758"/><text fill="#000000" font-family="'sans-serif'" font-size="12" lengthAdjust="spacing" textLength="145.6816" x="148.9043" y="269.7773">Stop; do not send to LLM</text><ellipse cx="221.7451" cy="328.3086" fill="none" rx="11" ry="11" style="stroke:#000000;stroke-width:1;"/><ellipse cx="221.7451" cy="328.3086" fill="#FFFFFF" rx="6" ry="6" style="stroke:#000000;stroke-width:1;"/><polygon fill="#FFFFFF" points="456.4736,164.9102,541.2188,164.9102,553.2188,176.9102,541.2188,188.9102,456.4736,188.9102,444.4736,176.9102,456.4736,164.9102" style="stroke:#000000;stroke-width:1;stroke-linejoin:miter;stroke-miterlimit:10;"/><text fill="#000000" font-family="'sans-serif'" font-size="11" lengthAdjust="spacing" textLength="84.7451" x="456.4736" y="181.0674">Skill Command?</text><text fill="#000000" font-family="'sans-serif'" font-size="11" lengthAdjust="spacing" textLength="17.4829" x="426.9907" y="174.5898">yes</text><text fill="#000000" font-family="'sans-serif'" font-size="11" lengthAdjust="spacing" textLength="13.5835" x="553.2188" y="174.5898">no</text><rect fill="#FFFFFF" height="34.1328" rx="12.5" ry="12.5" style="stroke:#000000;stroke-width:1;" width="103.9414" x="334.5859" y="198.9102"/><text fill="#000000" font-family="'sans-serif'" font-size="12" lengthAdjust="spacing" textLength="83.9414" x="344.5859" y="220.5117">Skill Processor</text><rect fill="#FFFFFF" height="34.1328" rx="12.5" ry="12.5" style="stroke:#000000;stroke-width:1;" width="54.3828" x="359.3652" y="268.043"/><text fill="#000000" font-family="'sans-serif'" font-size="12" lengthAdjust="spacing" textLength="34.3828" x="369.3652" y="289.6445">Agent</text><ellipse cx="386.5566" cy="348.1758" fill="none" rx="11" ry="11" style="stroke:#000000;stroke-width:1;"/><ellipse cx="386.5566" cy="348.1758" fill="#FFFFFF" rx="6" ry="6" style="stroke:#000000;stroke-width:1;"/><polygon fill="#FFFFFF" points="562.8657,198.9102,659.4058,198.9102,671.4058,210.9102,659.4058,222.9102,562.8657,222.9102,550.8657,210.9102,562.8657,198.9102" style="stroke:#000000;stroke-width:1;stroke-linejoin:miter;stroke-miterlimit:10;"/><text fill="#000000" font-family="'sans-serif'" font-size="11" lengthAdjust="spacing" textLength="96.54" x="562.8657" y="215.0674">Prompt Template?</text><text fill="#000000" font-family="'sans-serif'" font-size="11" lengthAdjust="spacing" textLength="17.4829" x="533.3828" y="208.5898">yes</text><text fill="#000000" font-family="'sans-serif'" font-size="11" lengthAdjust="spacing" textLength="13.5835" x="671.4058" y="208.5898">no</text><rect fill="#FFFFFF" height="34.1328" rx="12.5" ry="12.5" style="stroke:#000000;stroke-width:1;" width="137.9902" x="468.5273" y="232.9102"/><text fill="#000000" font-family="'sans-serif'" font-size="12" lengthAdjust="spacing" textLength="117.9902" x="478.5273" y="254.5117">Template Expansion</text><rect fill="#FFFFFF" height="34.1328" rx="12.5" ry="12.5" style="stroke:#000000;stroke-width:1;" width="54.3828" x="510.3311" y="302.043"/><text fill="#000000" font-family="'sans-serif'" font-size="12" lengthAdjust="spacing" textLength="34.3828" x="520.3311" y="323.6445">Agent</text><ellipse cx="537.5225" cy="382.1758" fill="none" rx="11" ry="11" style="stroke:#000000;stroke-width:1;"/><ellipse cx="537.5225" cy="382.1758" fill="#FFFFFF" rx="6" ry="6" style="stroke:#000000;stroke-width:1;"/><rect fill="#FFFFFF" height="34.1328" rx="12.5" ry="12.5" style="stroke:#000000;stroke-width:1;" width="116.4629" x="626.5176" y="232.9102"/><text fill="#000000" font-family="'sans-serif'" font-size="12" lengthAdjust="spacing" textLength="96.4629" x="636.5176" y="254.5117">Ordinary Prompt</text><rect fill="#FFFFFF" height="34.1328" rx="12.5" ry="12.5" style="stroke:#000000;stroke-width:1;" width="54.3828" x="657.5576" y="302.043"/><text fill="#000000" font-family="'sans-serif'" font-size="12" lengthAdjust="spacing" textLength="34.3828" x="667.5576" y="323.6445">Agent</text><ellipse cx="684.749" cy="382.1758" fill="none" rx="11" ry="11" style="stroke:#000000;stroke-width:1;"/><ellipse cx="684.749" cy="382.1758" fill="#FFFFFF" rx="6" ry="6" style="stroke:#000000;stroke-width:1;"/><line style="stroke:#000000;stroke-width:1;" x1="69.9521" x2="69.9521" y1="165.043" y2="200.043"/><polygon fill="#000000" points="65.9521,190.043,69.9521,200.043,73.9521,190.043,69.9521,194.043" style="stroke:#000000;stroke-width:1;stroke-linejoin:miter;stroke-miterlimit:10;"/><line style="stroke:#000000;stroke-width:1;" x1="221.7451" x2="221.7451" y1="213.1758" y2="248.1758"/><polygon fill="#000000" points="217.7451,238.1758,221.7451,248.1758,225.7451,238.1758,221.7451,242.1758" style="stroke:#000000;stroke-width:1;stroke-linejoin:miter;stroke-miterlimit:10;"/><line style="stroke:#000000;stroke-width:1;" x1="221.7451" x2="221.7451" y1="282.3086" y2="317.3086"/><polygon fill="#000000" points="217.7451,307.3086,221.7451,317.3086,225.7451,307.3086,221.7451,311.3086" style="stroke:#000000;stroke-width:1;stroke-linejoin:miter;stroke-miterlimit:10;"/><line style="stroke:#000000;stroke-width:1;" x1="386.5566" x2="386.5566" y1="233.043" y2="268.043"/><polygon fill="#000000" points="382.5566,258.043,386.5566,268.043,390.5566,258.043,386.5566,262.043" style="stroke:#000000;stroke-width:1;stroke-linejoin:miter;stroke-miterlimit:10;"/><line style="stroke:#000000;stroke-width:1;" x1="386.5566" x2="386.5566" y1="302.1758" y2="337.1758"/><polygon fill="#000000" points="382.5566,327.1758,386.5566,337.1758,390.5566,327.1758,386.5566,331.1758" style="stroke:#000000;stroke-width:1;stroke-linejoin:miter;stroke-miterlimit:10;"/><line style="stroke:#000000;stroke-width:1;" x1="537.5225" x2="537.5225" y1="267.043" y2="302.043"/><polygon fill="#000000" points="533.5225,292.043,537.5225,302.043,541.5225,292.043,537.5225,296.043" style="stroke:#000000;stroke-width:1;stroke-linejoin:miter;stroke-miterlimit:10;"/><line style="stroke:#000000;stroke-width:1;" x1="537.5225" x2="537.5225" y1="336.1758" y2="371.1758"/><polygon fill="#000000" points="533.5225,361.1758,537.5225,371.1758,541.5225,361.1758,537.5225,365.1758" style="stroke:#000000;stroke-width:1;stroke-linejoin:miter;stroke-miterlimit:10;"/><line style="stroke:#000000;stroke-width:1;" x1="684.749" x2="684.749" y1="267.043" y2="302.043"/><polygon fill="#000000" points="680.749,292.043,684.749,302.043,688.749,292.043,684.749,296.043" style="stroke:#000000;stroke-width:1;stroke-linejoin:miter;stroke-miterlimit:10;"/><line style="stroke:#000000;stroke-width:1;" x1="684.749" x2="684.749" y1="336.1758" y2="371.1758"/><polygon fill="#000000" points="680.749,361.1758,684.749,371.1758,688.749,361.1758,684.749,365.1758" style="stroke:#000000;stroke-width:1;stroke-linejoin:miter;stroke-miterlimit:10;"/><line style="stroke:#000000;stroke-width:1;" x1="550.8657" x2="537.5225" y1="210.9102" y2="210.9102"/><line style="stroke:#000000;stroke-width:1;" x1="537.5225" x2="537.5225" y1="210.9102" y2="232.9102"/><polygon fill="#000000" points="533.5225,222.9102,537.5225,232.9102,541.5225,222.9102,537.5225,226.9102" style="stroke:#000000;stroke-width:1;stroke-linejoin:miter;stroke-miterlimit:10;"/><line style="stroke:#000000;stroke-width:1;" x1="671.4058" x2="684.749" y1="210.9102" y2="210.9102"/><line style="stroke:#000000;stroke-width:1;" x1="684.749" x2="684.749" y1="210.9102" y2="232.9102"/><polygon fill="#000000" points="680.749,222.9102,684.749,232.9102,688.749,222.9102,684.749,226.9102" style="stroke:#000000;stroke-width:1;stroke-linejoin:miter;stroke-miterlimit:10;"/><line style="stroke:#000000;stroke-width:1;" x1="444.4736" x2="386.5566" y1="176.9102" y2="176.9102"/><line style="stroke:#000000;stroke-width:1;" x1="386.5566" x2="386.5566" y1="176.9102" y2="198.9102"/><polygon fill="#000000" points="382.5566,188.9102,386.5566,198.9102,390.5566,188.9102,386.5566,192.9102" style="stroke:#000000;stroke-width:1;stroke-linejoin:miter;stroke-miterlimit:10;"/><line style="stroke:#000000;stroke-width:1;" x1="553.2188" x2="611.1357" y1="176.9102" y2="176.9102"/><line style="stroke:#000000;stroke-width:1;" x1="611.1357" x2="611.1357" y1="176.9102" y2="198.9102"/><polygon fill="#000000" points="607.1357,188.9102,611.1357,198.9102,615.1357,188.9102,611.1357,192.9102" style="stroke:#000000;stroke-width:1;stroke-linejoin:miter;stroke-miterlimit:10;"/><line style="stroke:#000000;stroke-width:1;" x1="296.3115" x2="221.7451" y1="142.9102" y2="142.9102"/><line style="stroke:#000000;stroke-width:1;" x1="221.7451" x2="221.7451" y1="142.9102" y2="164.9102"/><polygon fill="#000000" points="217.7451,154.9102,221.7451,164.9102,225.7451,154.9102,221.7451,158.9102" style="stroke:#000000;stroke-width:1;stroke-linejoin:miter;stroke-miterlimit:10;"/><line style="stroke:#000000;stroke-width:1;" x1="424.2798" x2="498.8462" y1="142.9102" y2="142.9102"/><line style="stroke:#000000;stroke-width:1;" x1="498.8462" x2="498.8462" y1="142.9102" y2="164.9102"/><polygon fill="#000000" points="494.8462,154.9102,498.8462,164.9102,502.8462,154.9102,498.8462,158.9102" style="stroke:#000000;stroke-width:1;stroke-linejoin:miter;stroke-miterlimit:10;"/><line style="stroke:#000000;stroke-width:1;" x1="159.1168" x2="69.9521" y1="108.9102" y2="108.9102"/><line style="stroke:#000000;stroke-width:1;" x1="69.9521" x2="69.9521" y1="108.9102" y2="130.9102"/><polygon fill="#000000" points="65.9521,120.9102,69.9521,130.9102,73.9521,120.9102,69.9521,124.9102" style="stroke:#000000;stroke-width:1;stroke-linejoin:miter;stroke-miterlimit:10;"/><line style="stroke:#000000;stroke-width:1;" x1="251.131" x2="360.2957" y1="108.9102" y2="108.9102"/><line style="stroke:#000000;stroke-width:1;" x1="360.2957" x2="360.2957" y1="108.9102" y2="130.9102"/><polygon fill="#000000" points="356.2957,120.9102,360.2957,130.9102,364.2957,120.9102,360.2957,124.9102" style="stroke:#000000;stroke-width:1;stroke-linejoin:miter;stroke-miterlimit:10;"/><line style="stroke:#000000;stroke-width:1;" x1="205.1239" x2="205.1239" y1="76.9102" y2="96.9102"/><polygon fill="#000000" points="201.1239,86.9102,205.1239,96.9102,209.1239,86.9102,205.1239,90.9102" style="stroke:#000000;stroke-width:1;stroke-linejoin:miter;stroke-miterlimit:10;"/><?plantuml-src ZLFBRjj03BplLz2vn3auHe861Un3qJmA54ZReEgn5qQY9C8ILrZISVptfImh5U8UUj5IVCmCPwLpw1WqRbDEA-Wmts15kinZmL8jF1PRQigNRImypMAKC3T-eMcywAkNfglhcmzNY-kFLpVX7Ev9kH98X1h5eHCffHU2voqtjc3n3CV4jeTTpGr1Ybjpphzrb0BerKYKeq0UszOp2bPxPrL358A2jKFBQqgNOMOrjGHTWonXrYMiMeG6zmuBsfAXOD0DIuS9MoYen6rZNwBOT_Inimn5CqfSdaswjCOYxdfL9JPAaygpErMv42dkOXCJMF9vBxbVmTXydwn1hU5ka0rVfNCTJyULGr33P85Bc6TzfB1Zgs7swSBt8u7vdlGY0AnkUn0-3FSchpsd5hj0BWVc4lkc7kKdLQoMzgDFxu4SwlxDBBULygsH_fRRezlBXz7fzT2TESiQYWWItJ_o5Ip2u-EteNpG031LCUZ8DjmquzQd8dhWGyTJYZcfnhGUyv_xRsryE-A_PnWuVBRj37vHwvTjz2yMnnlByF3QuMIpKx89tIcXD_z8_ZEWUpiG_n-C55o6QJISX-SV?></g></svg>