<svg xmlns="http://www.w3.org/2000/svg" xmlns:xlink="http://www.w3.org/1999/xlink" contentStyleType="text/css" data-diagram-type="DESCRIPTION" height="356px" preserveAspectRatio="none" style="width:335px;height:356px;" version="1.1" viewBox="0 0 335 356" width="335px" zoomAndPan="magnify"><?plantuml 1.2026.6?><defs/><g><g class="title" data-source-line="409"><text fill="#000000" font-family="'PingFang SC'" font-size="22" font-weight="700" lengthAdjust="spacing" textLength="218.996" x="57.252" y="38.32">Fork &#19982; Clone &#24037;&#20316;&#27969;</text></g><!--entity F--><g class="entity" data-qualified-name="F" data-source-line="411" id="ent0001"><rect fill="#FFFFFF" height="39.6" rx="2.5" ry="2.5" style="stroke:#000000;stroke-width:1;" width="52.7586" x="71" y="68.8"/><text fill="#000000" font-family="'PingFang SC'" font-size="14" lengthAdjust="spacing" textLength="32.7586" x="81" y="93.64">/fork</text></g><!--entity U--><g class="entity" data-qualified-name="U" data-source-line="412" id="ent0002"><rect fill="#FFFFFF" height="39.6" rx="2.5" ry="2.5" style="stroke:#000000;stroke-width:1;" width="173.4723" x="11" y="144.8"/><text fill="#000000" font-family="'PingFang SC'" font-size="14" lengthAdjust="spacing" textLength="153.4723" x="21" y="169.64">&#36873;&#25321;&#21382;&#21490; User Message</text></g><!--entity B--><g class="entity" data-qualified-name="B" data-source-line="413" id="ent0003"><rect fill="#FFFFFF" height="59.2" rx="2.5" ry="2.5" style="stroke:#000000;stroke-width:1;" width="133.5499" x="32.5" y="220.8"/><text fill="#000000" font-family="'PingFang SC'" font-size="14" lengthAdjust="spacing" textLength="113.5499" x="42.5" y="245.64">RuntimeHost.fork</text><text fill="#000000" font-family="'PingFang SC'" font-size="14" lengthAdjust="spacing" textLength="102.5347" x="42.5" y="265.24">position=before</text></g><!--entity C--><g class="entity" data-qualified-name="C" data-source-line="414" id="ent0004"><rect fill="#FFFFFF" height="39.6" rx="2.5" ry="2.5" style="stroke:#000000;stroke-width:1;" width="61.5842" x="223.5" y="68.8"/><text fill="#000000" font-family="'PingFang SC'" font-size="14" lengthAdjust="spacing" textLength="41.5842" x="233.5" y="93.64">/clone</text></g><!--entity L--><g class="entity" data-qualified-name="L" data-source-line="415" id="ent0005"><rect fill="#FFFFFF" height="39.6" rx="2.5" ry="2.5" style="stroke:#000000;stroke-width:1;" width="104.8064" x="202" y="144.8"/><text fill="#000000" font-family="'PingFang SC'" font-size="14" lengthAdjust="spacing" textLength="84.8064" x="212" y="169.64">&#35835;&#21462;&#24403;&#21069; leaf</text></g><!--entity A--><g class="entity" data-qualified-name="A" data-source-line="416" id="ent0006"><rect fill="#FFFFFF" height="59.2" rx="2.5" ry="2.5" style="stroke:#000000;stroke-width:1;" width="133.5499" x="185.5" y="220.8"/><text fill="#000000" font-family="'PingFang SC'" font-size="14" lengthAdjust="spacing" textLength="113.5499" x="195.5" y="245.64">RuntimeHost.fork</text><text fill="#000000" font-family="'PingFang SC'" font-size="14" lengthAdjust="spacing" textLength="73.0157" x="195.5" y="265.24">position=at</text></g><!--entity R--><g class="entity" data-qualified-name="R" data-source-line="417" id="ent0007"><rect fill="#FFFFFF" height="39.6" rx="2.5" ry="2.5" style="stroke:#000000;stroke-width:1;" width="134.1729" x="108.5" y="315.8"/><text fill="#000000" font-family="'PingFang SC'" font-size="14" lengthAdjust="spacing" textLength="114.1729" x="118.5" y="340.64">&#21407;&#23376;&#26367;&#25442; Runtime</text></g><g class="link" data-entity-1="ent0001" data-entity-2="ent0002" data-link-type="dependency" id="lnk8"><polygon fill="#000000" points="97.5,144.5505,101.5,135.5505,97.5,139.5505,93.5,135.5505,97.5,144.5505" style="stroke:#000000;stroke-width:1;stroke-linejoin:miter;stroke-miterlimit:10;"/><path d="M97.5,108.8568 C97.5,119.8197 97.5,128.5555 97.5,139.5505" fill="none" style="stroke:#000000;stroke-width:1;"/></g><g class="link" data-entity-1="ent0002" data-entity-2="ent0003" data-link-type="dependency" id="lnk9"><polygon fill="#000000" points="98.811,220.5348,102.5944,211.4416,98.6913,215.5362,94.5967,211.6332,98.811,220.5348" style="stroke:#000000;stroke-width:1;stroke-linejoin:miter;stroke-miterlimit:10;"/><path d="M97.9639,185.1665 C98.2154,195.6691 98.4115,203.8563 98.6913,215.5362" fill="none" style="stroke:#000000;stroke-width:1;"/></g><g class="link" data-entity-1="ent0004" data-entity-2="ent0005" data-link-type="dependency" id="lnk10"><polygon fill="#000000" points="254.5,144.5505,258.5,135.5505,254.5,139.5505,250.5,135.5505,254.5,144.5505" style="stroke:#000000;stroke-width:1;stroke-linejoin:miter;stroke-miterlimit:10;"/><path d="M254.5,108.8568 C254.5,119.8197 254.5,128.5555 254.5,139.5505" fill="none" style="stroke:#000000;stroke-width:1;"/></g><g class="link" data-entity-1="ent0005" data-entity-2="ent0006" data-link-type="dependency" id="lnk11"><polygon fill="#000000" points="253.189,220.5348,257.4033,211.6332,253.3087,215.5362,249.4056,211.4416,253.189,220.5348" style="stroke:#000000;stroke-width:1;stroke-linejoin:miter;stroke-miterlimit:10;"/><path d="M254.0361,185.1665 C253.7846,195.6691 253.5885,203.8563 253.3087,215.5362" fill="none" style="stroke:#000000;stroke-width:1;"/></g><g class="link" data-entity-1="ent0003" data-entity-2="ent0007" data-link-type="dependency" id="lnk12"><polygon fill="#000000" points="158.134,315.7203,155.0342,306.372,154.7685,312.0226,149.1179,311.7569,158.134,315.7203" style="stroke:#000000;stroke-width:1;stroke-linejoin:miter;stroke-miterlimit:10;"/><path d="M125.6549,280.036 C136.3893,291.8297 145.1593,301.4652 154.7685,312.0226" fill="none" style="stroke:#000000;stroke-width:1;"/></g><g class="link" data-entity-1="ent0006" data-entity-2="ent0007" data-link-type="dependency" id="lnk13"><polygon fill="#000000" points="193.0945,315.7203,202.1363,311.8157,196.484,312.0446,196.2551,306.3924,193.0945,315.7203" style="stroke:#000000;stroke-width:1;stroke-linejoin:miter;stroke-miterlimit:10;"/><path d="M226.001,280.036 C215.1253,291.8297 206.2196,301.4872 196.484,312.0446" fill="none" style="stroke:#000000;stroke-width:1;"/></g><?plantuml-src ZL31YXD14BttLzJcigT9s6n42IWaaU0XYaHoyrBRKvaqcUaUkdfsyQONOP7D2WjU50HX3tiGGH05MVoPdQ1_OKt7mtZRq-kkUlLUrTk7qW2xociQGebwZHbnJxlKs2oHjmqzzhfNk5JAnWRog8CvflOxQRhTmCF1uRs3P30OzDN-xMIryzIBtuI9sJYR-Ce6KqIv_fsxoM7_GCGU4flCWYTaPuU25HCuIx1qVWrC_jXeWXCJLguA87kn-C0HBQD-WDAxjD91c0MAlEQksWihAWZA78rLUwN7h438yKKZm0K5jAXuRMo97Wj8QObL7gREXYSeOvsdOZ15CNaswRHulCBKdJJcIyoPMfqZ2I7phhBfnENEG_1eMLfokmecv0JJvfQR7nkOvCrfzVVBc-iFss-lbFAaPPzCE9rUSt47a67QBlzvURfzSrLlNjVdNs4XWS1ZoLEIZTH5cphV1Vp8SUWsOizjwTW4oVx-Bh0uClxFL3SRnVgaNV_zvMTz_gw-lgXFpo0dN4RAx9Pk629zrARNcu_rvxVRzx-sPv_WtsnapPMQGf8ya5iM4STg4d6cPX57QXnnhaOx_0i0?></g></svg>