<svg xmlns="http://www.w3.org/2000/svg" xmlns:xlink="http://www.w3.org/1999/xlink" contentStyleType="text/css" data-diagram-type="DESCRIPTION" height="334px" preserveAspectRatio="none" style="width:413px;height:334px;" version="1.1" viewBox="0 0 413 334" width="413px" zoomAndPan="magnify"><?plantuml 1.2026.6?><defs/><g><g class="title" data-source-line="409"><text fill="#000000" font-family="'sans-serif'" font-size="22" font-weight="700" lengthAdjust="spacing" textLength="285.6992" x="62.6504" y="36.2695">Fork and Clone Workflow</text></g><!--entity F--><g class="entity" data-qualified-name="F" data-source-line="411" id="ent0001"><rect fill="#FFFFFF" height="36.4883" rx="2.5" ry="2.5" style="stroke:#000000;stroke-width:1;" width="55" x="96.5" y="63.9102"/><text fill="#000000" font-family="'sans-serif'" font-size="14" lengthAdjust="spacing" textLength="35" x="106.5" y="87.4453">/fork</text></g><!--entity U--><g class="entity" data-qualified-name="U" data-source-line="412" id="ent0002"><rect fill="#FFFFFF" height="36.4883" rx="2.5" ry="2.5" style="stroke:#000000;stroke-width:1;" width="225.6729" x="11" y="135.9102"/><text fill="#000000" font-family="'sans-serif'" font-size="14" lengthAdjust="spacing" textLength="205.6729" x="21" y="159.4453">Select Historical User Message</text></g><!--entity B--><g class="entity" data-qualified-name="B" data-source-line="413" id="ent0003"><rect fill="#FFFFFF" height="52.9766" rx="2.5" ry="2.5" style="stroke:#000000;stroke-width:1;" width="139.7314" x="76" y="207.9102"/><text fill="#000000" font-family="'sans-serif'" font-size="14" lengthAdjust="spacing" textLength="119.7314" x="86" y="231.4453">RuntimeHost.fork</text><text fill="#000000" font-family="'sans-serif'" font-size="14" lengthAdjust="spacing" textLength="110.1816" x="86" y="247.9336">position=before</text></g><!--entity C--><g class="entity" data-qualified-name="C" data-source-line="414" id="ent0004"><rect fill="#FFFFFF" height="36.4883" rx="2.5" ry="2.5" style="stroke:#000000;stroke-width:1;" width="63.6475" x="294" y="63.9102"/><text fill="#000000" font-family="'sans-serif'" font-size="14" lengthAdjust="spacing" textLength="43.6475" x="304" y="87.4453">/clone</text></g><!--entity L--><g class="entity" data-qualified-name="L" data-source-line="415" id="ent0005"><rect fill="#FFFFFF" height="36.4883" rx="2.5" ry="2.5" style="stroke:#000000;stroke-width:1;" width="141.7549" x="255" y="135.9102"/><text fill="#000000" font-family="'sans-serif'" font-size="14" lengthAdjust="spacing" textLength="121.7549" x="265" y="159.4453">Read Current Leaf</text></g><!--entity A--><g class="entity" data-qualified-name="A" data-source-line="416" id="ent0006"><rect fill="#FFFFFF" height="52.9766" rx="2.5" ry="2.5" style="stroke:#000000;stroke-width:1;" width="139.7314" x="245" y="207.9102"/><text fill="#000000" font-family="'sans-serif'" font-size="14" lengthAdjust="spacing" textLength="119.7314" x="255" y="231.4453">RuntimeHost.fork</text><text fill="#000000" font-family="'sans-serif'" font-size="14" lengthAdjust="spacing" textLength="79.2627" x="255" y="247.9336">position=at</text></g><!--entity R--><g class="entity" data-qualified-name="R" data-source-line="417" id="ent0007"><rect fill="#FFFFFF" height="36.4883" rx="2.5" ry="2.5" style="stroke:#000000;stroke-width:1;" width="208.3779" x="126" y="296.9102"/><text fill="#000000" font-family="'sans-serif'" font-size="14" lengthAdjust="spacing" textLength="188.3779" x="136" y="320.4453">Atomically Replace Runtime</text></g><g class="link" data-entity-1="ent0001" data-entity-2="ent0002" data-link-type="dependency" id="lnk8"><polygon fill="#000000" points="124,135.8058,128,126.8058,124,130.8058,120,126.8058,124,135.8058" style="stroke:#000000;stroke-width:1;stroke-linejoin:miter;stroke-miterlimit:10;"/><path d="M124,100.2135 C124,111.0639 124,119.9934 124,130.8058" fill="none" style="stroke:#000000;stroke-width:1;"/></g><g class="link" data-entity-1="ent0002" data-entity-2="ent0003" data-link-type="dependency" id="lnk9"><polygon fill="#000000" points="138.8097,207.7539,140.2326,198.0083,137.4604,202.9394,132.5294,200.1672,138.8097,207.7539" style="stroke:#000000;stroke-width:1;stroke-linejoin:miter;stroke-miterlimit:10;"/><path d="M128.7737,171.9435 C131.7056,182.405 134.1681,191.1917 137.4604,202.9394" fill="none" style="stroke:#000000;stroke-width:1;"/></g><g class="link" data-entity-1="ent0004" data-entity-2="ent0005" data-link-type="dependency" id="lnk10"><polygon fill="#000000" points="326,135.8058,330,126.8058,326,130.8058,322,126.8058,326,135.8058" style="stroke:#000000;stroke-width:1;stroke-linejoin:miter;stroke-miterlimit:10;"/><path d="M326,100.2135 C326,111.0639 326,119.9934 326,130.8058" fill="none" style="stroke:#000000;stroke-width:1;"/></g><g class="link" data-entity-1="ent0005" data-entity-2="ent0006" data-link-type="dependency" id="lnk11"><polygon fill="#000000" points="318.5952,207.7539,323.8054,199.396,319.289,202.8022,315.8828,198.2858,318.5952,207.7539" style="stroke:#000000;stroke-width:1;stroke-linejoin:miter;stroke-miterlimit:10;"/><path d="M323.6132,171.9435 C322.1472,182.405 320.9352,191.0546 319.289,202.8022" fill="none" style="stroke:#000000;stroke-width:1;"/></g><g class="link" data-entity-1="ent0003" data-entity-2="ent0007" data-link-type="dependency" id="lnk12"><polygon fill="#000000" points="211.7118,296.8194,207.8673,287.7518,208.0587,293.4054,202.405,293.5968,211.7118,296.8194" style="stroke:#000000;stroke-width:1;stroke-linejoin:miter;stroke-miterlimit:10;"/><path d="M173.5047,261.114 C186.0408,272.8292 196.8875,282.9657 208.0587,293.4054" fill="none" style="stroke:#000000;stroke-width:1;"/></g><g class="link" data-entity-1="ent0006" data-entity-2="ent0007" data-link-type="dependency" id="lnk13"><polygon fill="#000000" points="248.506,296.8194,257.8315,293.6518,252.1791,293.4271,252.4039,287.7747,248.506,296.8194" style="stroke:#000000;stroke-width:1;stroke-linejoin:miter;stroke-miterlimit:10;"/><path d="M287.1678,261.114 C274.4825,272.8292 263.4833,282.9874 252.1791,293.4271" fill="none" style="stroke:#000000;stroke-width:1;"/></g><?plantuml-src ZL6nRXin3Dtr5OoNJ6SZZeiM1bh0Tc5aS3lOCBfqONIyis2TU11vCVBtvSaTBbicYkJZ8z_J8_G1X8ViQGqz-Yks90lFTKXjPU-a2yb-qN5jvP2KCdeDRpHzLsDthh9UFNzxgbQhrT8zVexMSwP5IIiXaS2foaFIq1MwvPUlrVFooSX-aeGsGIOKJckBWn1m8cWuNq4elmLFS0jwuK71xXBR0w_K57w5FdCzU3LaXqRlPUuUz48TGHyn9FVGPsmxX8Zl8u5qf9ZGoJMa7ZDsK5E3GzGz9_sDDZOxOP8JvT3C9YYvOCstSNM3KMZIUJKBsin3gdSSEODccxUMANSQD1BiHoMOQjZ5KTWVIvl8D-SoUJkcDSXiCSgT0Ghif-KJHKlW9OXo3XuZdCqI-6MEchS5VvxYZtUBNrXqFZB-JJrBK7F_-zsoChBziDcFLvNwxWCLeLqyv54870YR0ZbySXjgWM-cy8roDsg8xt0a-ntxr_yC1NjqRWzLzSCKdKlSkbs91tSeSUEs9HxTvXx_0G00?></g></svg>