<svg xmlns="http://www.w3.org/2000/svg" xmlns:xlink="http://www.w3.org/1999/xlink" contentStyleType="text/css" data-diagram-type="DESCRIPTION" height="338px" preserveAspectRatio="none" style="width:869px;height:338px;" version="1.1" viewBox="0 0 869 338" width="869px" zoomAndPan="magnify"><?plantuml 1.2026.6?><defs/><g><g class="title" data-source-line="468"><text fill="#000000" font-family="'sans-serif'" font-size="22" font-weight="700" lengthAdjust="spacing" textLength="288.0303" x="289.7349" y="36.2695">Handler Failure Boundary</text></g><!--entity H--><g class="entity" data-qualified-name="H" data-source-line="470" id="ent0001"><rect fill="#FFFFFF" height="36.4883" rx="2.5" ry="2.5" style="stroke:#000000;stroke-width:1;" width="193.1475" x="218.5" y="63.9102"/><text fill="#000000" font-family="'sans-serif'" font-size="14" lengthAdjust="spacing" textLength="173.1475" x="228.5" y="87.4453">Handler CompletionStage</text></g><!--entity S--><g class="entity" data-qualified-name="S" data-source-line="471" id="ent0002"><rect fill="#FFFFFF" height="36.4883" rx="2.5" ry="2.5" style="stroke:#000000;stroke-width:1;" width="136.5596" x="246.5" y="136.9102"/><text fill="#000000" font-family="'sans-serif'" font-size="14" lengthAdjust="spacing" textLength="116.5596" x="256.5" y="160.4453">Completion State</text></g><!--entity R--><g class="entity" data-qualified-name="R" data-source-line="472" id="ent0003"><rect fill="#FFFFFF" height="36.4883" rx="2.5" ry="2.5" style="stroke:#000000;stroke-width:1;" width="86.3154" x="11" y="227.9102"/><text fill="#000000" font-family="'sans-serif'" font-size="14" lengthAdjust="spacing" textLength="66.3154" x="21" y="251.4453">HANDLED</text></g><!--entity C--><g class="entity" data-qualified-name="C" data-source-line="473" id="ent0004"><rect fill="#FFFFFF" height="36.4883" rx="2.5" ry="2.5" style="stroke:#000000;stroke-width:1;" width="186.2705" x="115" y="227.9102"/><text fill="#000000" font-family="'sans-serif'" font-size="14" lengthAdjust="spacing" textLength="166.2705" x="125" y="251.4453">HANDLED + CANCELLED</text></g><!--entity K--><g class="entity" data-qualified-name="K" data-source-line="474" id="ent0005"><rect fill="#FFFFFF" height="36.4883" rx="2.5" ry="2.5" style="stroke:#000000;stroke-width:1;" width="205.0215" x="319.5" y="227.9102"/><text fill="#000000" font-family="'sans-serif'" font-size="14" lengthAdjust="spacing" textLength="185.0215" x="329.5" y="251.4453">FAILED + Stable Error Code</text></g><!--entity U--><g class="entity" data-qualified-name="U" data-source-line="475" id="ent0006"><rect fill="#FFFFFF" height="36.4883" rx="2.5" ry="2.5" style="stroke:#000000;stroke-width:1;" width="215.6309" x="543" y="227.9102"/><text fill="#000000" font-family="'sans-serif'" font-size="14" lengthAdjust="spacing" textLength="195.6309" x="553" y="251.4453">FAILED + COMMAND_FAILED</text></g><!--entity L--><g class="entity" data-qualified-name="L" data-source-line="476" id="ent0007"><rect fill="#FFFFFF" height="36.4883" rx="2.5" ry="2.5" style="stroke:#000000;stroke-width:1;" width="218.085" x="432" y="300.9102"/><text fill="#000000" font-family="'sans-serif'" font-size="14" lengthAdjust="spacing" textLength="198.085" x="442" y="324.4453">ERROR Log with correlationId</text></g><!--entity M--><g class="entity" data-qualified-name="M" data-source-line="477" id="ent0008"><rect fill="#FFFFFF" height="36.4883" rx="2.5" ry="2.5" style="stroke:#000000;stroke-width:1;" width="185.293" x="668.5" y="300.9102"/><text fill="#000000" font-family="'sans-serif'" font-size="14" lengthAdjust="spacing" textLength="165.293" x="678.5" y="324.4453">User Sees Safe Summary</text></g><g class="link" data-entity-1="ent0001" data-entity-2="ent0002" data-link-type="dependency" id="lnk9"><polygon fill="#000000" points="315,136.8813,319,127.8813,315,131.8813,311,127.8813,315,136.8813" style="stroke:#000000;stroke-width:1;stroke-linejoin:miter;stroke-miterlimit:10;"/><path d="M315,100.0973 C315,111.2602 315,120.75 315,131.8813" fill="none" style="stroke:#000000;stroke-width:1;"/></g><g class="link" data-entity-1="ent0002" data-entity-2="ent0003" data-link-type="dependency" id="lnk10"><polygon fill="#000000" points="97.2045,228.1708,107.0388,228.7049,101.8769,226.3909,104.1909,221.229,97.2045,228.1708" style="stroke:#000000;stroke-width:1;stroke-linejoin:miter;stroke-miterlimit:10;"/><path d="M256.5797,172.9642 C238.3827,178.4706 218.2946,184.7489 200,190.9102 C165.1678,202.641 130.8122,215.3681 101.8769,226.3909" fill="none" style="stroke:#000000;stroke-width:1;"/><text fill="#000000" font-family="'sans-serif'" font-size="13" lengthAdjust="spacing" textLength="44.4463" x="202" y="205.4785">normal</text></g><g class="link" data-entity-1="ent0002" data-entity-2="ent0004" data-link-type="dependency" id="lnk11"><polygon fill="#000000" points="228.5673,227.8027,238.0445,225.1227,232.4114,224.6054,232.9287,218.9722,228.5673,227.8027" style="stroke:#000000;stroke-width:1;stroke-linejoin:miter;stroke-miterlimit:10;"/><path d="M294.3693,173.0703 C275.4221,188.8301 251.3386,208.8621 232.4114,224.6054" fill="none" style="stroke:#000000;stroke-width:1;"/><text fill="#000000" font-family="'sans-serif'" font-size="13" lengthAdjust="spacing" textLength="90.1177" x="274" y="205.4785">user cancelled</text></g><g class="link" data-entity-1="ent0002" data-entity-2="ent0005" data-link-type="dependency" id="lnk12"><polygon fill="#000000" points="407.4664,227.8245,404.4688,218.4429,404.1414,224.0903,398.4941,223.7629,407.4664,227.8245" style="stroke:#000000;stroke-width:1;stroke-linejoin:miter;stroke-miterlimit:10;"/><path d="M344.7246,173.0197 C353.179,178.3601 362.2024,184.5333 370,190.9102 C383.702,202.1156 394.1964,212.9212 404.1414,224.0903" fill="none" style="stroke:#000000;stroke-width:1;"/><text fill="#000000" font-family="'sans-serif'" font-size="13" lengthAdjust="spacing" textLength="172.3071" x="392" y="205.4785">known CommandException</text></g><g class="link" data-entity-1="ent0002" data-entity-2="ent0006" data-link-type="dependency" id="lnk13"><polygon fill="#000000" points="631.1225,227.8981,626.5566,219.1716,627.205,224.7912,621.5854,225.4396,631.1225,227.8981" style="stroke:#000000;stroke-width:1;stroke-linejoin:miter;stroke-miterlimit:10;"/><path d="M383.6198,157.0241 C436.157,159.8285 509.6183,168.0304 570,190.9102 C592.7584,199.5338 611.625,212.4348 627.205,224.7912" fill="none" style="stroke:#000000;stroke-width:1;"/><text fill="#000000" font-family="'sans-serif'" font-size="13" lengthAdjust="spacing" textLength="127.9561" x="607" y="205.4785">unknown Throwable</text></g><g class="link" data-entity-1="ent0006" data-entity-2="ent0007" data-link-type="dependency" id="lnk14"><polygon fill="#000000" points="567.514,300.7966,577.2449,299.2766,571.7149,298.0851,572.9065,292.5551,567.514,300.7966" style="stroke:#000000;stroke-width:1;stroke-linejoin:miter;stroke-miterlimit:10;"/><path d="M624.6523,263.9164 C607.364,275.0752 589.0366,286.9047 571.7149,298.0851" fill="none" style="stroke:#000000;stroke-width:1;"/></g><g class="link" data-entity-1="ent0006" data-entity-2="ent0008" data-link-type="dependency" id="lnk15"><polygon fill="#000000" points="734.486,300.7966,729.0935,292.5551,730.2851,298.0851,724.7551,299.2766,734.486,300.7966" style="stroke:#000000;stroke-width:1;stroke-linejoin:miter;stroke-miterlimit:10;"/><path d="M677.3477,263.9164 C694.636,275.0752 712.9634,286.9047 730.2851,298.0851" fill="none" style="stroke:#000000;stroke-width:1;"/></g><?plantuml-src RP9DYzim48Rl-XMpkUoXU4CeBIM7GkeuP5ad2t5pBXDvOel8aXd9JVVVT_onr8KzoPxtcQzNUeJMGF0TQrf3Y_g65OMbzgLnLIBVBYu3QmamBOVV9508nhkd6DQhrUTloMhrzOjwX2q5KpbWmk3TMixMeYPeYPCQNMc9GMFKzR9buo9SgCRVnZFSJQp1EuA0LuBIXBQdXBwYiHqJN7pdIkIt9_KGQsgaf4NZr4FBM3K85jzy5o4q5D6X2ZVZMcHieAGhTZRkl8j7bBH5WIuKnEQwc56XnjBVPLdfPmFDb8kOKN7VFFLM1eqi-IA91ogQQ0dsqrwxQT8VqwHACMcPfX9cyGwblcajHN6kY6Ba0Z30VWx-0q28E1B5VwKsnssURGVXz840do3T7DCiVuVIERJRF8-CLBz886Fs_LZbsEdbGpPzFHoa-AynC83dEPYTJgydo7qrtgCy4oQB_HBFvK3dS_eSn8Y2IFRgBxlecaRi6hY3Kdj8ak-oSJ6S9rY3yzoWdGAf1BemF2EdoLeg9-55X9lpTzTxt8ZTsHzDRJ_319pxJ3SYFslsztv_THwqV3eFVm40?></g></svg>