<svg xmlns="http://www.w3.org/2000/svg" xmlns:xlink="http://www.w3.org/1999/xlink" contentStyleType="text/css" data-diagram-type="DESCRIPTION" height="361px" preserveAspectRatio="none" style="width:776px;height:361px;" version="1.1" viewBox="0 0 776 361" width="776px" zoomAndPan="magnify"><?plantuml 1.2026.6?><defs/><g><g class="title" data-source-line="468"><text fill="#000000" font-family="'PingFang SC'" font-size="22" font-weight="700" lengthAdjust="spacing" textLength="178.2962" x="297.8519" y="38.32">Handler &#22833;&#36133;&#36793;&#30028;</text></g><!--entity H--><g class="entity" data-qualified-name="H" data-source-line="470" id="ent0001"><rect fill="#FFFFFF" height="39.6" rx="2.5" ry="2.5" style="stroke:#000000;stroke-width:1;" width="186.8843" x="210.5" y="68.8"/><text fill="#000000" font-family="'PingFang SC'" font-size="14" lengthAdjust="spacing" textLength="166.8843" x="220.5" y="93.64">Handler CompletionStage</text></g><!--entity S--><g class="entity" data-qualified-name="S" data-source-line="471" id="ent0002"><rect fill="#FFFFFF" height="39.6" rx="2.5" ry="2.5" style="stroke:#000000;stroke-width:1;" width="76" x="266" y="145.8"/><text fill="#000000" font-family="'PingFang SC'" font-size="14" lengthAdjust="spacing" textLength="56" x="276" y="170.64">&#23436;&#25104;&#29366;&#24577;</text></g><!--entity R--><g class="entity" data-qualified-name="R" data-source-line="472" id="ent0003"><rect fill="#FFFFFF" height="39.6" rx="2.5" ry="2.5" style="stroke:#000000;stroke-width:1;" width="86.332" x="11" y="243.8"/><text fill="#000000" font-family="'PingFang SC'" font-size="14" lengthAdjust="spacing" textLength="66.332" x="21" y="268.64">HANDLED</text></g><!--entity C--><g class="entity" data-qualified-name="C" data-source-line="473" id="ent0004"><rect fill="#FFFFFF" height="39.6" rx="2.5" ry="2.5" style="stroke:#000000;stroke-width:1;" width="187.8629" x="115" y="243.8"/><text fill="#000000" font-family="'PingFang SC'" font-size="14" lengthAdjust="spacing" textLength="167.8629" x="125" y="268.64">HANDLED + CANCELLED</text></g><!--entity K--><g class="entity" data-qualified-name="K" data-source-line="474" id="ent0005"><rect fill="#FFFFFF" height="39.6" rx="2.5" ry="2.5" style="stroke:#000000;stroke-width:1;" width="155.3212" x="321.5" y="243.8"/><text fill="#000000" font-family="'PingFang SC'" font-size="14" lengthAdjust="spacing" textLength="135.3212" x="331.5" y="268.64">FAILED + &#31283;&#23450;&#38169;&#35823;&#30721;</text></g><!--entity U--><g class="entity" data-qualified-name="U" data-source-line="475" id="ent0006"><rect fill="#FFFFFF" height="39.6" rx="2.5" ry="2.5" style="stroke:#000000;stroke-width:1;" width="214.8255" x="494.5" y="243.8"/><text fill="#000000" font-family="'PingFang SC'" font-size="14" lengthAdjust="spacing" textLength="194.8255" x="504.5" y="268.64">FAILED + COMMAND_FAILED</text></g><!--entity L--><g class="entity" data-qualified-name="L" data-source-line="476" id="ent0007"><rect fill="#FFFFFF" height="39.6" rx="2.5" ry="2.5" style="stroke:#000000;stroke-width:1;" width="200.6421" x="408.5" y="320.8"/><text fill="#000000" font-family="'PingFang SC'" font-size="14" lengthAdjust="spacing" textLength="180.6421" x="418.5" y="345.64">ERROR &#26085;&#24535;&#21547; correlationId</text></g><!--entity M--><g class="entity" data-qualified-name="M" data-source-line="477" id="ent0008"><rect fill="#FFFFFF" height="39.6" rx="2.5" ry="2.5" style="stroke:#000000;stroke-width:1;" width="132" x="628" y="320.8"/><text fill="#000000" font-family="'PingFang SC'" font-size="14" lengthAdjust="spacing" textLength="112" x="638" y="345.64">&#29992;&#25143;&#21482;&#30475;&#23433;&#20840;&#25688;&#35201;</text></g><g class="link" data-entity-1="ent0001" data-entity-2="ent0002" data-link-type="dependency" id="lnk9"><polygon fill="#000000" points="304,145.5511,308,136.5511,304,140.5511,300,136.5511,304,145.5511" style="stroke:#000000;stroke-width:1;stroke-linejoin:miter;stroke-miterlimit:10;"/><path d="M304,109.1144 C304,120.3122 304,129.3644 304,140.5511" fill="none" style="stroke:#000000;stroke-width:1;"/></g><g class="link" data-entity-1="ent0002" data-entity-2="ent0003" data-link-type="dependency" id="lnk10"><polygon fill="#000000" points="97.2769,246.1817,107.1126,246.6895,101.9445,244.3893,104.2448,239.2212,97.2769,246.1817" style="stroke:#000000;stroke-width:1;stroke-linejoin:miter;stroke-miterlimit:10;"/><path d="M265.7582,181.4848 C220.3466,198.9229 149.4576,226.1443 101.9445,244.3893" fill="none" style="stroke:#000000;stroke-width:1;"/><text fill="#000000" font-family="'PingFang SC'" font-size="13" lengthAdjust="spacing" textLength="26" x="204" y="219.58">&#27491;&#24120;</text></g><g class="link" data-entity-1="ent0002" data-entity-2="ent0004" data-link-type="dependency" id="lnk11"><polygon fill="#000000" points="227.8719,243.7295,237.0456,240.1459,231.3888,240.1755,231.3592,234.5187,227.8719,243.7295" style="stroke:#000000;stroke-width:1;stroke-linejoin:miter;stroke-miterlimit:10;"/><path d="M284.7753,186.227 C268.1848,202.9922 247.8757,223.5151 231.3888,240.1755" fill="none" style="stroke:#000000;stroke-width:1;"/><text fill="#000000" font-family="'PingFang SC'" font-size="13" lengthAdjust="spacing" textLength="52" x="268" y="219.58">&#29992;&#25143;&#21462;&#28040;</text></g><g class="link" data-entity-1="ent0002" data-entity-2="ent0005" data-link-type="dependency" id="lnk12"><polygon fill="#000000" points="380.1281,243.7295,376.6408,234.5187,376.6112,240.1755,370.9544,240.1459,380.1281,243.7295" style="stroke:#000000;stroke-width:1;stroke-linejoin:miter;stroke-miterlimit:10;"/><path d="M323.2247,186.227 C339.8152,202.9922 360.1243,223.5151 376.6112,240.1755" fill="none" style="stroke:#000000;stroke-width:1;"/><text fill="#000000" font-family="'PingFang SC'" font-size="13" lengthAdjust="spacing" textLength="151.6165" x="363" y="219.58">&#24050;&#30693; CommandException</text></g><g class="link" data-entity-1="ent0002" data-entity-2="ent0006" data-link-type="dependency" id="lnk13"><polygon fill="#000000" points="581.0328,243.5627,576.7545,234.6916,577.2189,240.3293,571.5812,240.7937,581.0328,243.5627" style="stroke:#000000;stroke-width:1;stroke-linejoin:miter;stroke-miterlimit:10;"/><path d="M342.1241,168.1563 C386.4454,170.8877 461.0456,179.1052 520,203.8 C542.8086,213.3541 561.5538,227.0486 577.2189,240.3293" fill="none" style="stroke:#000000;stroke-width:1;"/><text fill="#000000" font-family="'PingFang SC'" font-size="13" lengthAdjust="spacing" textLength="93.0203" x="560" y="219.58">&#26410;&#30693; Throwable</text></g><g class="link" data-entity-1="ent0006" data-entity-2="ent0007" data-link-type="dependency" id="lnk14"><polygon fill="#000000" points="532.8687,320.5511,542.3854,318.015,536.7607,317.4123,537.3634,311.7877,532.8687,320.5511" style="stroke:#000000;stroke-width:1;stroke-linejoin:miter;stroke-miterlimit:10;"/><path d="M578.0502,284.1144 C564.1649,295.3122 550.6321,306.2257 536.7607,317.4123" fill="none" style="stroke:#000000;stroke-width:1;"/></g><g class="link" data-entity-1="ent0006" data-entity-2="ent0008" data-link-type="dependency" id="lnk15"><polygon fill="#000000" points="670.388,320.5511,665.9397,311.764,666.5126,317.3918,660.8848,317.9647,670.388,320.5511" style="stroke:#000000;stroke-width:1;stroke-linejoin:miter;stroke-miterlimit:10;"/><path d="M625.6923,284.1144 C639.4282,295.3122 652.7903,306.2051 666.5126,317.3918" fill="none" style="stroke:#000000;stroke-width:1;"/></g><?plantuml-src RP9FQnD16CRl-odUvjA3f2688Za8OPEGqYILn9pbpUvaT-Zip38pCVQc1o7QWXMgLIaeQ2HKJF4FRRtefzdT-2sStIImGa_lxlFyzltpi9iGKb1Y91rIWH2TFVI8AZd2fTmhccUkIqewHf2abBqM5L6A2hwbLQLSldcdM2xVlcLjGeqewd6G19NW5LD3XWw1aCYYZznbH8A3sl5BeQHSmu3u-90A2MEgVH2SWC8X0PUgCAKCFKJAHfB0G8ouYt9_ozhGFWbCIuQKMnkXH2z0OBWlHXfKG3HojDGUvI5A3C0bGnmntH1STz1yLhXdJceWzw1d5tASyj4LO-EPYKoHd3CmSNWo7MyBPbRL4hbPJveKB4qr8z1SNHPz-hRuELty_fMyEhGiIHopYsVymXgmHH0oearkFMrYB00gQER1Q7uOJuwIvnVnuoUPs_klJRLJQzLhcT6zne0RO5SxThsrXkmyrAXkBvbazYEQl_jx_7PnVfvyMCxPkPQqTzjjq_h1KiZ0VXwiTxkxNOXFfj6Va-Ze2vZ_GnA6wO7RReQtydXoF8idbz6Bi-Jq89e_YvxEufTl5f-N6xGjgmd5ubrpSY-hNQX0_FLZT7Mr4cmZh5kyZYycAtd7oD7bz-JzDCqtC57N7paaJ9TO4Vsqq-bPIjptfHZZW16hdrcjLMt_0m00?></g></svg>