<svg xmlns="http://www.w3.org/2000/svg" xmlns:xlink="http://www.w3.org/1999/xlink" contentStyleType="text/css" data-diagram-type="DESCRIPTION" height="728px" preserveAspectRatio="none" style="width:941px;height:728px;" version="1.1" viewBox="0 0 941 728" width="941px" zoomAndPan="magnify"><?plantuml 1.2026.6?><defs/><g><g class="title" data-source-line="69"><text fill="#000000" font-family="'sans-serif'" font-size="22" font-weight="700" lengthAdjust="spacing" textLength="405.0557" x="266.9722" y="36.2695">Unified Java Command Architecture</text></g><!--cluster Definition and Startup--><g class="cluster" data-qualified-name="Definition and Startup" data-source-line="72" id="ent0001"><path d="M80.5,55.9102 L241.6113,55.9102 A3.75,3.75 0 0 1 244.1113,58.4102 L251.1113,78.3984 L281.5,78.3984 A2.5,2.5 0 0 1 284,80.8984 L284,217.4102 A2.5,2.5 0 0 1 281.5,219.9102 L80.5,219.9102 A2.5,2.5 0 0 1 78,217.4102 L78,58.4102 A2.5,2.5 0 0 1 80.5,55.9102" fill="#FFFFFF" style="stroke:#000000;stroke-width:1;"/><line style="stroke:#000000;stroke-width:1;" x1="78" x2="251.1113" y1="78.3984" y2="78.3984"/><text fill="#000000" font-family="'sans-serif'" font-size="14" font-weight="700" lengthAdjust="spacing" textLength="160.1113" x="82" y="71.4453">Definition and Startup</text></g><!--cluster Command Core--><g class="cluster" data-qualified-name="Command Core" data-source-line="78" id="ent0005"><path d="M21.5,256.9102 L133.3652,256.9102 A3.75,3.75 0 0 1 135.8652,259.4102 L142.8652,279.3984 L468.5,279.3984 A2.5,2.5 0 0 1 471,281.8984 L471,518.4102 A2.5,2.5 0 0 1 468.5,520.9102 L21.5,520.9102 A2.5,2.5 0 0 1 19,518.4102 L19,259.4102 A2.5,2.5 0 0 1 21.5,256.9102" fill="#FFFFFF" style="stroke:#000000;stroke-width:1;"/><line style="stroke:#000000;stroke-width:1;" x1="19" x2="142.8652" y1="279.3984" y2="279.3984"/><text fill="#000000" font-family="'sans-serif'" font-size="14" font-weight="700" lengthAdjust="spacing" textLength="110.8652" x="23" y="272.4453">Command Core</text></g><!--cluster Command Implementation--><g class="cluster" data-qualified-name="Command Implementation" data-source-line="90" id="ent0015"><path d="M160.5,539.9102 L352.373,539.9102 A3.75,3.75 0 0 1 354.873,542.4102 L361.873,562.3984 L559.5,562.3984 A2.5,2.5 0 0 1 562,564.8984 L562,718.4102 A2.5,2.5 0 0 1 559.5,720.9102 L160.5,720.9102 A2.5,2.5 0 0 1 158,718.4102 L158,542.4102 A2.5,2.5 0 0 1 160.5,539.9102" fill="#FFFFFF" style="stroke:#000000;stroke-width:1;"/><line style="stroke:#000000;stroke-width:1;" x1="158" x2="361.873" y1="562.3984" y2="562.3984"/><text fill="#000000" font-family="'sans-serif'" font-size="14" font-weight="700" lengthAdjust="spacing" textLength="190.873" x="162" y="555.4453">Command Implementation</text></g><!--cluster Clients--><g class="cluster" data-qualified-name="Clients" data-source-line="99" id="ent0022"><path d="M492.5,356.9102 L543.5664,356.9102 A3.75,3.75 0 0 1 546.0664,359.4102 L553.0664,379.3984 L930.5,379.3984 A2.5,2.5 0 0 1 933,381.8984 L933,435.4102 A2.5,2.5 0 0 1 930.5,437.9102 L492.5,437.9102 A2.5,2.5 0 0 1 490,435.4102 L490,359.4102 A2.5,2.5 0 0 1 492.5,356.9102" fill="#FFFFFF" style="stroke:#000000;stroke-width:1;"/><line style="stroke:#000000;stroke-width:1;" x1="490" x2="553.0664" y1="379.3984" y2="379.3984"/><text fill="#000000" font-family="'sans-serif'" font-size="14" font-weight="700" lengthAdjust="spacing" textLength="50.0664" x="494" y="372.4453">Clients</text></g><!--entity Contributor--><g class="entity" data-qualified-name="Definition and Startup.Contributor" data-source-line="73" id="ent0002"><rect fill="#FFFFFF" height="46.4883" rx="2.5" ry="2.5" style="stroke:#000000;stroke-width:1;" width="188.709" x="86.5" y="82.9102"/><rect fill="#FFFFFF" height="10" style="stroke:#000000;stroke-width:1;" width="15" x="255.209" y="87.9102"/><rect fill="#FFFFFF" height="2" style="stroke:#000000;stroke-width:1;" width="4" x="253.209" y="89.9102"/><rect fill="#FFFFFF" height="2" style="stroke:#000000;stroke-width:1;" width="4" x="253.209" y="93.9102"/><text fill="#000000" font-family="'sans-serif'" font-size="14" lengthAdjust="spacing" textLength="148.709" x="101.5" y="116.4453">CommandContributor</text></g><!--entity Installer--><g class="entity" data-qualified-name="Definition and Startup.Installer" data-source-line="74" id="ent0003"><rect fill="#FFFFFF" height="46.4883" rx="2.5" ry="2.5" style="stroke:#000000;stroke-width:1;" width="164.1064" x="99" y="165.9102"/><rect fill="#FFFFFF" height="10" style="stroke:#000000;stroke-width:1;" width="15" x="243.1064" y="170.9102"/><rect fill="#FFFFFF" height="2" style="stroke:#000000;stroke-width:1;" width="4" x="241.1064" y="172.9102"/><rect fill="#FFFFFF" height="2" style="stroke:#000000;stroke-width:1;" width="4" x="241.1064" y="176.9102"/><text fill="#000000" font-family="'sans-serif'" font-size="14" lengthAdjust="spacing" textLength="124.1064" x="114" y="199.4453">CommandInstaller</text></g><!--entity Snapshot--><g class="entity" data-qualified-name="Command Core.Snapshot" data-source-line="79" id="ent0006"><rect fill="#FFFFFF" height="46.4883" rx="2.5" ry="2.5" style="stroke:#000000;stroke-width:1;" width="223.8525" x="69" y="283.9102"/><rect fill="#FFFFFF" height="10" style="stroke:#000000;stroke-width:1;" width="15" x="272.8525" y="288.9102"/><rect fill="#FFFFFF" height="2" style="stroke:#000000;stroke-width:1;" width="4" x="270.8525" y="290.9102"/><rect fill="#FFFFFF" height="2" style="stroke:#000000;stroke-width:1;" width="4" x="270.8525" y="294.9102"/><text fill="#000000" font-family="'sans-serif'" font-size="14" lengthAdjust="spacing" textLength="183.8525" x="84" y="317.4453">CommandCatalogSnapshot</text></g><!--entity Parser--><g class="entity" data-qualified-name="Command Core.Parser" data-source-line="80" id="ent0007"><rect fill="#FFFFFF" height="46.4883" rx="2.5" ry="2.5" style="stroke:#000000;stroke-width:1;" width="151.5215" x="311" y="283.9102"/><rect fill="#FFFFFF" height="10" style="stroke:#000000;stroke-width:1;" width="15" x="442.5215" y="288.9102"/><rect fill="#FFFFFF" height="2" style="stroke:#000000;stroke-width:1;" width="4" x="440.5215" y="290.9102"/><rect fill="#FFFFFF" height="2" style="stroke:#000000;stroke-width:1;" width="4" x="440.5215" y="294.9102"/><text fill="#000000" font-family="'sans-serif'" font-size="14" lengthAdjust="spacing" textLength="111.5215" x="326" y="317.4453">CommandParser</text></g><!--entity Dispatcher--><g class="entity" data-qualified-name="Command Core.Dispatcher" data-source-line="81" id="ent0008"><rect fill="#FFFFFF" height="46.4883" rx="2.5" ry="2.5" style="stroke:#000000;stroke-width:1;" width="182.4951" x="281" y="383.9102"/><rect fill="#FFFFFF" height="10" style="stroke:#000000;stroke-width:1;" width="15" x="443.4951" y="388.9102"/><rect fill="#FFFFFF" height="2" style="stroke:#000000;stroke-width:1;" width="4" x="441.4951" y="390.9102"/><rect fill="#FFFFFF" height="2" style="stroke:#000000;stroke-width:1;" width="4" x="441.4951" y="394.9102"/><text fill="#000000" font-family="'sans-serif'" font-size="14" lengthAdjust="spacing" textLength="142.4951" x="296" y="417.4453">CommandDispatcher</text></g><!--entity Gate--><g class="entity" data-qualified-name="Command Core.Gate" data-source-line="82" id="ent0009"><rect fill="#FFFFFF" height="46.4883" rx="2.5" ry="2.5" style="stroke:#000000;stroke-width:1;" width="206.9473" x="255.5" y="466.9102"/><rect fill="#FFFFFF" height="10" style="stroke:#000000;stroke-width:1;" width="15" x="442.4473" y="471.9102"/><rect fill="#FFFFFF" height="2" style="stroke:#000000;stroke-width:1;" width="4" x="440.4473" y="473.9102"/><rect fill="#FFFFFF" height="2" style="stroke:#000000;stroke-width:1;" width="4" x="440.4473" y="477.9102"/><text fill="#000000" font-family="'sans-serif'" font-size="14" lengthAdjust="spacing" textLength="166.9473" x="270.5" y="500.4453">CommandExecutionGate</text></g><!--entity Completion--><g class="entity" data-qualified-name="Command Core.Completion" data-source-line="83" id="ent0010"><rect fill="#FFFFFF" height="46.4883" rx="2.5" ry="2.5" style="stroke:#000000;stroke-width:1;" width="235.5762" x="27" y="383.9102"/><rect fill="#FFFFFF" height="10" style="stroke:#000000;stroke-width:1;" width="15" x="242.5762" y="388.9102"/><rect fill="#FFFFFF" height="2" style="stroke:#000000;stroke-width:1;" width="4" x="240.5762" y="390.9102"/><rect fill="#FFFFFF" height="2" style="stroke:#000000;stroke-width:1;" width="4" x="240.5762" y="394.9102"/><text fill="#000000" font-family="'sans-serif'" font-size="14" lengthAdjust="spacing" textLength="195.5762" x="42" y="417.4453">CommandCompletionService</text></g><!--entity Handler--><g class="entity" data-qualified-name="Command Implementation.Handler" data-source-line="91" id="ent0016"><rect fill="#FFFFFF" height="46.4883" rx="2.5" ry="2.5" style="stroke:#000000;stroke-width:1;" width="162.7529" x="277.5" y="566.9102"/><rect fill="#FFFFFF" height="10" style="stroke:#000000;stroke-width:1;" width="15" x="420.2529" y="571.9102"/><rect fill="#FFFFFF" height="2" style="stroke:#000000;stroke-width:1;" width="4" x="418.2529" y="573.9102"/><rect fill="#FFFFFF" height="2" style="stroke:#000000;stroke-width:1;" width="4" x="418.2529" y="577.9102"/><text fill="#000000" font-family="'sans-serif'" font-size="14" lengthAdjust="spacing" textLength="122.7529" x="292.5" y="600.4453">CommandHandler</text></g><!--entity Services--><g class="entity" data-qualified-name="Command Implementation.Services" data-source-line="92" id="ent0017"><rect fill="#FFFFFF" height="62.9766" rx="2.5" ry="2.5" style="stroke:#000000;stroke-width:1;" width="182.3994" x="166" y="649.9102"/><rect fill="#FFFFFF" height="10" style="stroke:#000000;stroke-width:1;" width="15" x="328.3994" y="654.9102"/><rect fill="#FFFFFF" height="2" style="stroke:#000000;stroke-width:1;" width="4" x="326.3994" y="656.9102"/><rect fill="#FFFFFF" height="2" style="stroke:#000000;stroke-width:1;" width="4" x="326.3994" y="660.9102"/><text fill="#000000" font-family="'sans-serif'" font-size="14" lengthAdjust="spacing" textLength="142.3994" x="181" y="683.4453">Constructor-Injected</text><text fill="#000000" font-family="'sans-serif'" font-size="14" lengthAdjust="spacing" textLength="135.748" x="181" y="699.9336">Application Services</text></g><!--entity Ports--><g class="entity" data-qualified-name="Command Implementation.Ports" data-source-line="93" id="ent0018"><rect fill="#FFFFFF" height="62.9766" rx="2.5" ry="2.5" style="stroke:#000000;stroke-width:1;" width="186.8564" x="366.5" y="649.9102"/><rect fill="#FFFFFF" height="10" style="stroke:#000000;stroke-width:1;" width="15" x="533.3564" y="654.9102"/><rect fill="#FFFFFF" height="2" style="stroke:#000000;stroke-width:1;" width="4" x="531.3564" y="656.9102"/><rect fill="#FFFFFF" height="2" style="stroke:#000000;stroke-width:1;" width="4" x="531.3564" y="660.9102"/><text fill="#000000" font-family="'sans-serif'" font-size="14" lengthAdjust="spacing" textLength="142.6182" x="381.5" y="683.4453">CommandInteraction</text><text fill="#000000" font-family="'sans-serif'" font-size="14" lengthAdjust="spacing" textLength="146.8564" x="381.5" y="699.9336">and CommandOutput</text></g><!--entity TUI--><g class="entity" data-qualified-name="Clients.TUI" data-source-line="100" id="ent0023"><rect fill="#FFFFFF" height="46.4883" rx="2.5" ry="2.5" style="stroke:#000000;stroke-width:1;" width="137.7334" x="787" y="383.9102"/><rect fill="#FFFFFF" height="10" style="stroke:#000000;stroke-width:1;" width="15" x="904.7334" y="388.9102"/><rect fill="#FFFFFF" height="2" style="stroke:#000000;stroke-width:1;" width="4" x="902.7334" y="390.9102"/><rect fill="#FFFFFF" height="2" style="stroke:#000000;stroke-width:1;" width="4" x="902.7334" y="394.9102"/><text fill="#000000" font-family="'sans-serif'" font-size="14" lengthAdjust="spacing" textLength="97.7334" x="802" y="417.4453">Interactive TUI</text></g><!--entity App--><g class="entity" data-qualified-name="Clients.App" data-source-line="101" id="ent0024"><rect fill="#FFFFFF" height="46.4883" rx="2.5" ry="2.5" style="stroke:#000000;stroke-width:1;" width="111.2168" x="498.5" y="383.9102"/><rect fill="#FFFFFF" height="10" style="stroke:#000000;stroke-width:1;" width="15" x="589.7168" y="388.9102"/><rect fill="#FFFFFF" height="2" style="stroke:#000000;stroke-width:1;" width="4" x="587.7168" y="390.9102"/><rect fill="#FFFFFF" height="2" style="stroke:#000000;stroke-width:1;" width="4" x="587.7168" y="394.9102"/><text fill="#000000" font-family="'sans-serif'" font-size="14" lengthAdjust="spacing" textLength="71.2168" x="513.5" y="417.4453">App Client</text></g><!--entity Help--><g class="entity" data-qualified-name="Clients.Help" data-source-line="102" id="ent0025"><rect fill="#FFFFFF" height="46.4883" rx="2.5" ry="2.5" style="stroke:#000000;stroke-width:1;" width="140.6045" x="627.5" y="383.9102"/><rect fill="#FFFFFF" height="10" style="stroke:#000000;stroke-width:1;" width="15" x="748.1045" y="388.9102"/><rect fill="#FFFFFF" height="2" style="stroke:#000000;stroke-width:1;" width="4" x="746.1045" y="390.9102"/><rect fill="#FFFFFF" height="2" style="stroke:#000000;stroke-width:1;" width="4" x="746.1045" y="394.9102"/><text fill="#000000" font-family="'sans-serif'" font-size="14" lengthAdjust="spacing" textLength="100.6045" x="642.5" y="417.4453">HelpCommand</text></g><g class="link" data-entity-1="ent0002" data-entity-2="ent0003" data-link-type="dependency" id="lnk4"><polygon fill="#000000" points="181,165.8033,185,156.8033,181,160.8033,177,156.8033,181,165.8033" style="stroke:#000000;stroke-width:1;stroke-linejoin:miter;stroke-miterlimit:10;"/><path d="M181,129.0438 C181,140.473 181,149.378 181,160.8033" fill="none" style="stroke:#000000;stroke-width:1;"/></g><g class="link" data-entity-1="ent0007" data-entity-2="ent0008" data-link-type="dependency" id="lnk11"><polygon fill="#000000" points="375.3903,383.7604,380.7059,375.4692,376.1468,378.818,372.798,374.2589,375.3903,383.7604" style="stroke:#000000;stroke-width:1;stroke-linejoin:miter;stroke-miterlimit:10;"/><path d="M383.5963,330.1479 C381.1414,346.1862 378.5985,362.7999 376.1468,378.818" fill="none" style="stroke:#000000;stroke-width:1;"/></g><g class="link" data-entity-1="ent0006" data-entity-2="ent0008" data-link-type="dependency" id="lnk12"><polygon fill="#000000" points="328.8307,383.7604,322.6492,376.093,324.3821,381.4779,318.9972,383.2108,328.8307,383.7604" style="stroke:#000000;stroke-width:1;stroke-linejoin:miter;stroke-miterlimit:10;"/><path d="M224.3409,330.1479 C255.5992,346.1862 293.1632,365.4599 324.3821,381.4779" fill="none" style="stroke:#000000;stroke-width:1;"/></g><g class="link" data-entity-1="ent0008" data-entity-2="ent0009" data-link-type="dependency" id="lnk13"><polygon fill="#000000" points="362.548,466.8033,367.9237,458.5509,363.3403,461.8665,360.0247,457.2832,362.548,466.8033" style="stroke:#000000;stroke-width:1;stroke-linejoin:miter;stroke-miterlimit:10;"/><path d="M368.4477,430.0438 C366.6134,441.473 365.174,450.4411 363.3403,461.8665" fill="none" style="stroke:#000000;stroke-width:1;"/></g><g class="link" data-entity-1="ent0006" data-entity-2="ent0010" data-link-type="dependency" id="lnk14"><polygon fill="#000000" points="153.1366,383.7604,159.9947,376.6917,154.8607,379.0671,152.4853,373.9331,153.1366,383.7604" style="stroke:#000000;stroke-width:1;stroke-linejoin:miter;stroke-miterlimit:10;"/><path d="M172.831,330.1479 C166.9394,346.1862 160.7449,363.049 154.8607,379.0671" fill="none" style="stroke:#000000;stroke-width:1;"/></g><g class="link" data-entity-1="ent0016" data-entity-2="ent0017" data-link-type="dependency" id="lnk19"><polygon fill="#000000" points="291.9265,649.7639,301.3296,646.8346,295.6848,646.4661,296.0533,640.8213,291.9265,649.7639" style="stroke:#000000;stroke-width:1;stroke-linejoin:miter;stroke-miterlimit:10;"/><path d="M333.7865,613.0338 C321.1617,624.1114 309.4343,634.4016 295.6848,646.4661" fill="none" style="stroke:#000000;stroke-width:1;"/></g><g class="link" data-entity-1="ent0016" data-entity-2="ent0018" data-link-type="dependency" id="lnk20"><polygon fill="#000000" points="425.4159,649.7639,421.3329,640.8012,421.6738,646.4478,416.0272,646.7887,425.4159,649.7639" style="stroke:#000000;stroke-width:1;stroke-linejoin:miter;stroke-miterlimit:10;"/><path d="M383.9663,613.0338 C396.4673,624.1114 408.059,634.3833 421.6738,646.4478" fill="none" style="stroke:#000000;stroke-width:1;"/></g><g class="link" data-entity-1="ent0009" data-entity-2="ent0016" data-link-type="dependency" id="lnk21"><polygon fill="#000000" points="359,566.7604,363,557.7604,359,561.7604,355,557.7604,359,566.7604" style="stroke:#000000;stroke-width:1;stroke-linejoin:miter;stroke-miterlimit:10;"/><path d="M359,513.1479 C359,529.1862 359,545.7424 359,561.7604" fill="none" style="stroke:#000000;stroke-width:1;"/></g><g class="link" data-entity-1="ent0010" data-entity-2="ent0023" data-link-type="dependency" id="lnk26"><polygon fill="#000000" points="832.8687,383.6523,828.8529,374.6594,829.1515,380.3083,823.5025,380.6069,832.8687,383.6523" style="stroke:#000000;stroke-width:1;stroke-linejoin:miter;stroke-miterlimit:10;"/><path d="M182.6714,383.8398 C209.1169,369.0457 245.8943,351.202 281,343.4102 C333.934,331.6612 717.4499,326.5983 769,343.4102 C793.3558,351.3533 812.8422,365.6367 829.1515,380.3083" fill="none" style="stroke:#000000;stroke-width:1;"/></g><g class="link" data-entity-1="ent0010" data-entity-2="ent0024" data-link-type="dependency" id="lnk27"><polygon fill="#000000" points="530.554,383.6478,526.4821,374.6801,526.816,380.3271,521.169,380.661,530.554,383.6478" style="stroke:#000000;stroke-width:1;stroke-linejoin:miter;stroke-miterlimit:10;"/><path d="M182.6714,383.8398 C209.1169,369.0457 245.8943,351.202 281,343.4102 C321.1344,334.5021 426.8804,330.7696 466,343.4102 C490.5605,351.3463 510.298,365.6535 526.816,380.3271" fill="none" style="stroke:#000000;stroke-width:1;"/></g><g class="link" data-entity-1="ent0023" data-entity-2="ent0007" data-link-type="dependency" id="lnk28"><polygon fill="#000000" points="463.1017,307.7818,471.9964,312.0109,468.1001,307.9098,472.2012,304.0135,463.1017,307.7818" style="stroke:#000000;stroke-width:1;stroke-linejoin:miter;stroke-miterlimit:10;"/><path d="M827.5708,383.8219 C813.429,373.9745 795.6221,363.199 778,356.9102 C673.1356,319.4868 548.5733,309.9704 468.1001,307.9098" fill="none" style="stroke:#000000;stroke-width:1;"/></g><g class="link" data-entity-1="ent0024" data-entity-2="ent0008" data-link-type="dependency" id="lnk29"><polygon fill="#000000" points="463.3555,406.9102,472.3555,410.9102,468.3555,406.9102,472.3555,402.9102,463.3555,406.9102" style="stroke:#000000;stroke-width:1;stroke-linejoin:miter;stroke-miterlimit:10;"/><path d="M498.4094,406.9102 C486.7248,406.9102 480.0401,406.9102 468.3555,406.9102" fill="none" style="stroke:#000000;stroke-width:1;"/></g><g class="link" data-entity-1="ent0006" data-entity-2="ent0025" data-link-type="dependency" id="lnk30"><polygon fill="#000000" points="669.6395,383.7686,664.5333,375.3468,665.5342,380.9144,659.9666,381.9153,669.6395,383.7686" style="stroke:#000000;stroke-width:1;stroke-linejoin:miter;stroke-miterlimit:10;"/><path d="M293.0105,328.662 C296.0362,329.0982 299.037,329.5155 302,329.9102 C442.1613,348.5783 484.7823,312.4209 619,356.9102 C637.0772,362.9022 651.1687,370.9269 665.5342,380.9144" fill="none" style="stroke:#000000;stroke-width:1;"/></g><g class="link" data-entity-1="ent0003" data-entity-2="ent0006" data-link-type="dependency" id="lnk31"><polygon fill="#000000" points="181,283.9007,185,274.9007,181,278.9007,177,274.9007,181,283.9007" style="stroke:#000000;stroke-width:1;stroke-linejoin:miter;stroke-miterlimit:10;"/><path d="M181,212.0019 C181,232.6427 181,258.2865 181,278.9007" fill="none" style="stroke:#000000;stroke-width:1;"/><text fill="#000000" font-family="'sans-serif'" font-size="13" lengthAdjust="spacing" textLength="80.7104" x="183" y="244.4785">publish once</text></g><?plantuml-src VLN1Rjim3BtxAzXSUbdQhMXND8S1HRgjsM4haFNM2oFJiLPP4YGwRJ3itqV9TkDqwGw1HVA9v7kadMFm6g9hWw8PU5IFkAPugbofxNegPykdCQZJnfNYrfOfe6AzeV5vcg8d76VdLrVJYyltxyukpZzCppvUdXV7y0qt23wuibKCojd80UNk3D0OiPi6RHa10u5klA56Ab89gormQ6Cwva8M3PIq8UCy1O7Rv8yiEGJXh2901h43j_v4gjvGr6iBWJ0wEuCsag1eg2TFgLUvq1sIfoBaDj2keoVDjMiPt9Eb008jjnORhO2UcMpKpeBH5QcjCfGgCvqKHrmB0V1661P7Fk2wGJ2uJNbYGumMY_YehSU0ZV2fi3NynLd-Zd9jiaGRbnHqDHcXOesbUv9fG8KcqYYoaccjWsjjENT66XHXRPIGA5YmPcdhtkfAYq1v1lEU-tLGjMPIYMvHiFF03bQEsKbBEaX0k1NzAi3aXYfjTV9bdPQTnXFuNK0IoukibeVaS-4IzAfbQGSZZCn3w4K_mOnzCGGvJZETVXh5_XIxpWP2SvdXM_sWt7FhfKKVQyUfpd0-1B_34BjkkjCXp8qMZLdL7Mvd7S9-VYRL9kc-odeaU7eUrYtjVaBA_3TQKQVUu9GhVMj9ZRsQBzJ-YOmQJR6-z1v-LE6Gi8lXXSG4UKFYM_dr8-oFUoX9bbvvUVbTc2xiBralAX_ijVT6gvmNUifnaiVJ6w-Jz0lJVtESVR3TwBF_Hyk-vNp_pWLEbuUs4irHph5xWERX9CVG_vuMHai7yJNvoMBt-OEVzujSMvxx8649NO8S5tClVal63red-SJCopyC9JVL9Ntbx399g2CoB6kgz_yDoJM4t-xLom8D4FaBQ5T6npf_K_y2?></g></svg>