<svg xmlns="http://www.w3.org/2000/svg" xmlns:xlink="http://www.w3.org/1999/xlink" contentStyleType="text/css" data-diagram-type="DESCRIPTION" height="839px" preserveAspectRatio="none" style="width:919px;height:839px;" version="1.1" viewBox="0 0 919 839" width="919px" zoomAndPan="magnify"><?plantuml 1.2026.6?><defs/><g><g class="title" data-source-line="72"><text fill="#000000" font-family="'sans-serif'" font-size="22" font-weight="700" lengthAdjust="spacing" textLength="405.0557" x="255.9722" y="36.2695">Unified Java Command Architecture</text></g><!--cluster Definition and Startup--><g class="cluster" data-qualified-name="Definition and Startup" data-source-line="75" id="ent0001"><path d="M251.5,55.9102 L412.6113,55.9102 A3.75,3.75 0 0 1 415.1113,58.4102 L422.1113,78.3984 L452.5,78.3984 A2.5,2.5 0 0 1 455,80.8984 L455,280.9102 A2.5,2.5 0 0 1 452.5,283.4102 L251.5,283.4102 A2.5,2.5 0 0 1 249,280.9102 L249,58.4102 A2.5,2.5 0 0 1 251.5,55.9102" fill="#FFFFFF" style="stroke:#000000;stroke-width:1;"/><line style="stroke:#000000;stroke-width:1;" x1="249" x2="422.1113" y1="78.3984" y2="78.3984"/><text fill="#000000" font-family="'sans-serif'" font-size="14" font-weight="700" lengthAdjust="spacing" textLength="160.1113" x="253" y="71.4453">Definition and Startup</text></g><!--cluster Command Core--><g class="cluster" data-qualified-name="Command Core" data-source-line="81" id="ent0005"><path d="M21.5,328.9102 L133.3652,328.9102 A3.75,3.75 0 0 1 135.8652,331.4102 L142.8652,351.3984 L468.5,351.3984 A2.5,2.5 0 0 1 471,353.8984 L471,610.4102 A2.5,2.5 0 0 1 468.5,612.9102 L21.5,612.9102 A2.5,2.5 0 0 1 19,610.4102 L19,331.4102 A2.5,2.5 0 0 1 21.5,328.9102" fill="#FFFFFF" style="stroke:#000000;stroke-width:1;"/><line style="stroke:#000000;stroke-width:1;" x1="19" x2="142.8652" y1="351.3984" y2="351.3984"/><text fill="#000000" font-family="'sans-serif'" font-size="14" font-weight="700" lengthAdjust="spacing" textLength="110.8652" x="23" y="344.4453">Command Core</text></g><!--cluster Command Implementation--><g class="cluster" data-qualified-name="Command Implementation" data-source-line="93" id="ent0015"><path d="M25.5,631.9102 L217.373,631.9102 A3.75,3.75 0 0 1 219.873,634.4102 L226.873,654.3984 L424.5,654.3984 A2.5,2.5 0 0 1 427,656.8984 L427,829.4102 A2.5,2.5 0 0 1 424.5,831.9102 L25.5,831.9102 A2.5,2.5 0 0 1 23,829.4102 L23,634.4102 A2.5,2.5 0 0 1 25.5,631.9102" fill="#FFFFFF" style="stroke:#000000;stroke-width:1;"/><line style="stroke:#000000;stroke-width:1;" x1="23" x2="226.873" y1="654.3984" y2="654.3984"/><text fill="#000000" font-family="'sans-serif'" font-size="14" font-weight="700" lengthAdjust="spacing" textLength="190.873" x="27" y="647.4453">Command Implementation</text></g><!--cluster GUI Presentation--><g class="cluster" data-qualified-name="GUI Presentation" data-source-line="102" id="ent0022"><path d="M481.5,174.9102 L603.2363,174.9102 A3.75,3.75 0 0 1 605.7363,177.4102 L612.7363,197.3984 L908.5,197.3984 A2.5,2.5 0 0 1 911,199.8984 L911,426.4102 A2.5,2.5 0 0 1 908.5,428.9102 L481.5,428.9102 A2.5,2.5 0 0 1 479,426.4102 L479,177.4102 A2.5,2.5 0 0 1 481.5,174.9102" fill="#FFFFFF" style="stroke:#000000;stroke-width:1;"/><line style="stroke:#000000;stroke-width:1;" x1="479" x2="612.7363" y1="197.3984" y2="197.3984"/><text fill="#000000" font-family="'sans-serif'" font-size="14" font-weight="700" lengthAdjust="spacing" textLength="120.7363" x="483" y="190.4453">GUI Presentation</text></g><!--entity Contributor--><g class="entity" data-qualified-name="Definition and Startup.Contributor" data-source-line="76" id="ent0002"><rect fill="#FFFFFF" height="46.4883" rx="2.5" ry="2.5" style="stroke:#000000;stroke-width:1;" width="188.709" x="257.5" y="101.9102"/><rect fill="#FFFFFF" height="10" style="stroke:#000000;stroke-width:1;" width="15" x="426.209" y="106.9102"/><rect fill="#FFFFFF" height="2" style="stroke:#000000;stroke-width:1;" width="4" x="424.209" y="108.9102"/><rect fill="#FFFFFF" height="2" style="stroke:#000000;stroke-width:1;" width="4" x="424.209" y="112.9102"/><text fill="#000000" font-family="'sans-serif'" font-size="14" lengthAdjust="spacing" textLength="148.709" x="272.5" y="135.4453">CommandContributor</text></g><!--entity Installer--><g class="entity" data-qualified-name="Definition and Startup.Installer" data-source-line="77" id="ent0003"><rect fill="#FFFFFF" height="46.4883" rx="2.5" ry="2.5" style="stroke:#000000;stroke-width:1;" width="164.1064" x="270" y="229.4102"/><rect fill="#FFFFFF" height="10" style="stroke:#000000;stroke-width:1;" width="15" x="414.1064" y="234.4102"/><rect fill="#FFFFFF" height="2" style="stroke:#000000;stroke-width:1;" width="4" x="412.1064" y="236.4102"/><rect fill="#FFFFFF" height="2" style="stroke:#000000;stroke-width:1;" width="4" x="412.1064" y="240.4102"/><text fill="#000000" font-family="'sans-serif'" font-size="14" lengthAdjust="spacing" textLength="124.1064" x="285" y="262.9453">CommandInstaller</text></g><!--entity Snapshot--><g class="entity" data-qualified-name="Command Core.Snapshot" data-source-line="82" id="ent0006"><rect fill="#FFFFFF" height="46.4883" rx="2.5" ry="2.5" style="stroke:#000000;stroke-width:1;" width="223.8525" x="237" y="374.9102"/><rect fill="#FFFFFF" height="10" style="stroke:#000000;stroke-width:1;" width="15" x="440.8525" y="379.9102"/><rect fill="#FFFFFF" height="2" style="stroke:#000000;stroke-width:1;" width="4" x="438.8525" y="381.9102"/><rect fill="#FFFFFF" height="2" style="stroke:#000000;stroke-width:1;" width="4" x="438.8525" y="385.9102"/><text fill="#000000" font-family="'sans-serif'" font-size="14" lengthAdjust="spacing" textLength="183.8525" x="252" y="408.4453">CommandCatalogSnapshot</text></g><!--entity Parser--><g class="entity" data-qualified-name="Command Core.Parser" data-source-line="83" id="ent0007"><rect fill="#FFFFFF" height="46.4883" rx="2.5" ry="2.5" style="stroke:#000000;stroke-width:1;" width="151.5215" x="64" y="374.9102"/><rect fill="#FFFFFF" height="10" style="stroke:#000000;stroke-width:1;" width="15" x="195.5215" y="379.9102"/><rect fill="#FFFFFF" height="2" style="stroke:#000000;stroke-width:1;" width="4" x="193.5215" y="381.9102"/><rect fill="#FFFFFF" height="2" style="stroke:#000000;stroke-width:1;" width="4" x="193.5215" y="385.9102"/><text fill="#000000" font-family="'sans-serif'" font-size="14" lengthAdjust="spacing" textLength="111.5215" x="79" y="408.4453">CommandParser</text></g><!--entity Dispatcher--><g class="entity" data-qualified-name="Command Core.Dispatcher" data-source-line="84" id="ent0008"><rect fill="#FFFFFF" height="46.4883" rx="2.5" ry="2.5" style="stroke:#000000;stroke-width:1;" width="182.4951" x="27" y="475.9102"/><rect fill="#FFFFFF" height="10" style="stroke:#000000;stroke-width:1;" width="15" x="189.4951" y="480.9102"/><rect fill="#FFFFFF" height="2" style="stroke:#000000;stroke-width:1;" width="4" x="187.4951" y="482.9102"/><rect fill="#FFFFFF" height="2" style="stroke:#000000;stroke-width:1;" width="4" x="187.4951" y="486.9102"/><text fill="#000000" font-family="'sans-serif'" font-size="14" lengthAdjust="spacing" textLength="142.4951" x="42" y="509.4453">CommandDispatcher</text></g><!--entity Gate--><g class="entity" data-qualified-name="Command Core.Gate" data-source-line="85" id="ent0009"><rect fill="#FFFFFF" height="46.4883" rx="2.5" ry="2.5" style="stroke:#000000;stroke-width:1;" width="206.9473" x="27.5" y="558.9102"/><rect fill="#FFFFFF" height="10" style="stroke:#000000;stroke-width:1;" width="15" x="214.4473" y="563.9102"/><rect fill="#FFFFFF" height="2" style="stroke:#000000;stroke-width:1;" width="4" x="212.4473" y="565.9102"/><rect fill="#FFFFFF" height="2" style="stroke:#000000;stroke-width:1;" width="4" x="212.4473" y="569.9102"/><text fill="#000000" font-family="'sans-serif'" font-size="14" lengthAdjust="spacing" textLength="166.9473" x="42.5" y="592.4453">CommandExecutionGate</text></g><!--entity Completion--><g class="entity" data-qualified-name="Command Core.Completion" data-source-line="86" id="ent0010"><rect fill="#FFFFFF" height="46.4883" rx="2.5" ry="2.5" style="stroke:#000000;stroke-width:1;" width="235.5762" x="227" y="475.9102"/><rect fill="#FFFFFF" height="10" style="stroke:#000000;stroke-width:1;" width="15" x="442.5762" y="480.9102"/><rect fill="#FFFFFF" height="2" style="stroke:#000000;stroke-width:1;" width="4" x="440.5762" y="482.9102"/><rect fill="#FFFFFF" height="2" style="stroke:#000000;stroke-width:1;" width="4" x="440.5762" y="486.9102"/><text fill="#000000" font-family="'sans-serif'" font-size="14" lengthAdjust="spacing" textLength="195.5762" x="242" y="509.4453">CommandCompletionService</text></g><!--entity Handler--><g class="entity" data-qualified-name="Command Implementation.Handler" data-source-line="94" id="ent0016"><rect fill="#FFFFFF" height="46.4883" rx="2.5" ry="2.5" style="stroke:#000000;stroke-width:1;" width="162.7529" x="49.5" y="677.9102"/><rect fill="#FFFFFF" height="10" style="stroke:#000000;stroke-width:1;" width="15" x="192.2529" y="682.9102"/><rect fill="#FFFFFF" height="2" style="stroke:#000000;stroke-width:1;" width="4" x="190.2529" y="684.9102"/><rect fill="#FFFFFF" height="2" style="stroke:#000000;stroke-width:1;" width="4" x="190.2529" y="688.9102"/><text fill="#000000" font-family="'sans-serif'" font-size="14" lengthAdjust="spacing" textLength="122.7529" x="64.5" y="711.4453">CommandHandler</text></g><!--entity Services--><g class="entity" data-qualified-name="Command Implementation.Services" data-source-line="95" id="ent0017"><rect fill="#FFFFFF" height="62.9766" rx="2.5" ry="2.5" style="stroke:#000000;stroke-width:1;" width="182.3994" x="31" y="760.9102"/><rect fill="#FFFFFF" height="10" style="stroke:#000000;stroke-width:1;" width="15" x="193.3994" y="765.9102"/><rect fill="#FFFFFF" height="2" style="stroke:#000000;stroke-width:1;" width="4" x="191.3994" y="767.9102"/><rect fill="#FFFFFF" height="2" style="stroke:#000000;stroke-width:1;" width="4" x="191.3994" y="771.9102"/><text fill="#000000" font-family="'sans-serif'" font-size="14" lengthAdjust="spacing" textLength="142.3994" x="46" y="794.4453">Constructor-Injected</text><text fill="#000000" font-family="'sans-serif'" font-size="14" lengthAdjust="spacing" textLength="135.748" x="46" y="810.9336">Application Services</text></g><!--entity Ports--><g class="entity" data-qualified-name="Command Implementation.Ports" data-source-line="96" id="ent0018"><rect fill="#FFFFFF" height="62.9766" rx="2.5" ry="2.5" style="stroke:#000000;stroke-width:1;" width="186.8564" x="231.5" y="760.9102"/><rect fill="#FFFFFF" height="10" style="stroke:#000000;stroke-width:1;" width="15" x="398.3564" y="765.9102"/><rect fill="#FFFFFF" height="2" style="stroke:#000000;stroke-width:1;" width="4" x="396.3564" y="767.9102"/><rect fill="#FFFFFF" height="2" style="stroke:#000000;stroke-width:1;" width="4" x="396.3564" y="771.9102"/><text fill="#000000" font-family="'sans-serif'" font-size="14" lengthAdjust="spacing" textLength="142.6182" x="246.5" y="794.4453">CommandInteraction</text><text fill="#000000" font-family="'sans-serif'" font-size="14" lengthAdjust="spacing" textLength="146.8564" x="246.5" y="810.9336">and CommandOutput</text></g><!--entity GUI--><g class="entity" data-qualified-name="GUI Presentation.GUI" data-source-line="103" id="ent0023"><rect fill="#FFFFFF" height="46.4883" rx="2.5" ry="2.5" style="stroke:#000000;stroke-width:1;" width="122.0586" x="487" y="374.9102"/><rect fill="#FFFFFF" height="10" style="stroke:#000000;stroke-width:1;" width="15" x="589.0586" y="379.9102"/><rect fill="#FFFFFF" height="2" style="stroke:#000000;stroke-width:1;" width="4" x="587.0586" y="381.9102"/><rect fill="#FFFFFF" height="2" style="stroke:#000000;stroke-width:1;" width="4" x="587.0586" y="385.9102"/><text fill="#000000" font-family="'sans-serif'" font-size="14" lengthAdjust="spacing" textLength="82.0586" x="502" y="408.4453">GUI Adapter</text></g><!--entity ChatInput--><g class="entity" data-qualified-name="GUI Presentation.ChatInput" data-source-line="104" id="ent0024"><rect fill="#FFFFFF" height="46.4883" rx="2.5" ry="2.5" style="stroke:#000000;stroke-width:1;" width="111.2305" x="791.5" y="229.4102"/><rect fill="#FFFFFF" height="10" style="stroke:#000000;stroke-width:1;" width="15" x="882.7305" y="234.4102"/><rect fill="#FFFFFF" height="2" style="stroke:#000000;stroke-width:1;" width="4" x="880.7305" y="236.4102"/><rect fill="#FFFFFF" height="2" style="stroke:#000000;stroke-width:1;" width="4" x="880.7305" y="240.4102"/><text fill="#000000" font-family="'sans-serif'" font-size="14" lengthAdjust="spacing" textLength="71.2305" x="806.5" y="262.9453">Chat Input</text></g><!--entity Actions--><g class="entity" data-qualified-name="GUI Presentation.Actions" data-source-line="105" id="ent0025"><rect fill="#FFFFFF" height="62.9766" rx="2.5" ry="2.5" style="stroke:#000000;stroke-width:1;" width="159.6768" x="613" y="220.9102"/><rect fill="#FFFFFF" height="10" style="stroke:#000000;stroke-width:1;" width="15" x="752.6768" y="225.9102"/><rect fill="#FFFFFF" height="2" style="stroke:#000000;stroke-width:1;" width="4" x="750.6768" y="227.9102"/><rect fill="#FFFFFF" height="2" style="stroke:#000000;stroke-width:1;" width="4" x="750.6768" y="231.9102"/><text fill="#000000" font-family="'sans-serif'" font-size="14" lengthAdjust="spacing" textLength="119.6768" x="628" y="254.4453">Command Palette</text><text fill="#000000" font-family="'sans-serif'" font-size="14" lengthAdjust="spacing" textLength="81.2998" x="628" y="270.9336">and Buttons</text></g><!--entity Help--><g class="entity" data-qualified-name="GUI Presentation.Help" data-source-line="106" id="ent0026"><rect fill="#FFFFFF" height="46.4883" rx="2.5" ry="2.5" style="stroke:#000000;stroke-width:1;" width="107.1631" x="487.5" y="229.4102"/><rect fill="#FFFFFF" height="10" style="stroke:#000000;stroke-width:1;" width="15" x="574.6631" y="234.4102"/><rect fill="#FFFFFF" height="2" style="stroke:#000000;stroke-width:1;" width="4" x="572.6631" y="236.4102"/><rect fill="#FFFFFF" height="2" style="stroke:#000000;stroke-width:1;" width="4" x="572.6631" y="240.4102"/><text fill="#000000" font-family="'sans-serif'" font-size="14" lengthAdjust="spacing" textLength="67.1631" x="502.5" y="262.9453">Help View</text></g><g class="link" data-entity-1="ent0002" data-entity-2="ent0003" data-link-type="dependency" id="lnk4"><polygon fill="#000000" points="352,229.0614,356,220.0614,352,224.0614,348,220.0614,352,229.0614" style="stroke:#000000;stroke-width:1;stroke-linejoin:miter;stroke-miterlimit:10;"/><path d="M352,148.0581 C352,170.8575 352,201.1889 352,224.0614" fill="none" style="stroke:#000000;stroke-width:1;"/></g><g class="link" data-entity-1="ent0007" data-entity-2="ent0008" data-link-type="dependency" id="lnk11"><polygon fill="#000000" points="122.8966,475.8755,128.7537,467.9575,123.9813,470.9945,120.9442,466.222,122.8966,475.8755" style="stroke:#000000;stroke-width:1;stroke-linejoin:miter;stroke-miterlimit:10;"/><path d="M135.0079,421.3748 C131.3821,437.6908 127.5847,454.779 123.9813,470.9945" fill="none" style="stroke:#000000;stroke-width:1;"/></g><g class="link" data-entity-1="ent0006" data-entity-2="ent0008" data-link-type="dependency" id="lnk12"><polygon fill="#000000" points="169.3958,475.8834,179.2438,476.0147,173.9915,473.9138,176.0924,468.6615,169.3958,475.8834" style="stroke:#000000;stroke-width:1;stroke-linejoin:miter;stroke-miterlimit:10;"/><path d="M297.4466,421.0045 C259.284,437.3599 212.1166,457.5745 173.9915,473.9138" fill="none" style="stroke:#000000;stroke-width:1;"/></g><g class="link" data-entity-1="ent0008" data-entity-2="ent0009" data-link-type="dependency" id="lnk13"><polygon fill="#000000" points="127.452,558.8033,129.9753,549.2832,126.6597,553.8665,122.0763,550.5509,127.452,558.8033" style="stroke:#000000;stroke-width:1;stroke-linejoin:miter;stroke-miterlimit:10;"/><path d="M121.5523,522.0438 C123.3866,533.473 124.826,542.4411 126.6597,553.8665" fill="none" style="stroke:#000000;stroke-width:1;"/></g><g class="link" data-entity-1="ent0006" data-entity-2="ent0010" data-link-type="dependency" id="lnk14"><polygon fill="#000000" points="345.8903,475.8755,350.2504,467.0443,346.0921,470.8795,342.2569,466.7213,345.8903,475.8755" style="stroke:#000000;stroke-width:1;stroke-linejoin:miter;stroke-miterlimit:10;"/><path d="M348.0923,421.3748 C347.4331,437.6908 346.7473,454.664 346.0921,470.8795" fill="none" style="stroke:#000000;stroke-width:1;"/></g><g class="link" data-entity-1="ent0016" data-entity-2="ent0017" data-link-type="dependency" id="lnk19"><polygon fill="#000000" points="125.0817,760.7639,129.9622,752.2093,125.582,755.789,122.0023,751.4088,125.0817,760.7639" style="stroke:#000000;stroke-width:1;stroke-linejoin:miter;stroke-miterlimit:10;"/><path d="M128.7753,724.0338 C127.6613,735.1114 126.7952,743.7244 125.582,755.789" fill="none" style="stroke:#000000;stroke-width:1;"/></g><g class="link" data-entity-1="ent0016" data-entity-2="ent0018" data-link-type="dependency" id="lnk20"><polygon fill="#000000" points="258.5712,760.7639,252.0746,753.3616,254.0311,758.6693,248.7233,760.6258,258.5712,760.7639" style="stroke:#000000;stroke-width:1;stroke-linejoin:miter;stroke-miterlimit:10;"/><path d="M178.9551,724.0338 C202.9669,735.1114 227.88,746.6048 254.0311,758.6693" fill="none" style="stroke:#000000;stroke-width:1;"/></g><g class="link" data-entity-1="ent0009" data-entity-2="ent0016" data-link-type="dependency" id="lnk21"><polygon fill="#000000" points="131,677.6042,135,668.6042,131,672.6042,127,668.6042,131,677.6042" style="stroke:#000000;stroke-width:1;stroke-linejoin:miter;stroke-miterlimit:10;"/><path d="M131,604.917 C131,625.7023 131,651.7214 131,672.6042" fill="none" style="stroke:#000000;stroke-width:1;"/></g><g class="link" data-entity-1="ent0010" data-entity-2="ent0023" data-link-type="dependency" id="lnk27"><polygon fill="#000000" points="544.6539,420.9573,538.6498,428.7644,543.4782,425.8171,546.4255,430.6455,544.6539,420.9573" style="stroke:#000000;stroke-width:1;stroke-linejoin:miter;stroke-miterlimit:10;"/><path d="M463.4136,480.3781 C490.532,474.4122 514.4901,466.9232 525,457.9102 C535.849,448.6063 540.4348,438.3969 543.4782,425.8171" fill="none" style="stroke:#000000;stroke-width:1;"/></g><g class="link" data-entity-1="ent0024" data-entity-2="ent0023" data-link-type="dependency" id="lnk28"><polygon fill="#000000" points="594.1158,374.7776,603.9605,374.4897,598.6236,372.6142,600.499,367.2773,594.1158,374.7776" style="stroke:#000000;stroke-width:1;stroke-linejoin:miter;stroke-miterlimit:10;"/><path d="M800.9365,275.5175 C744.7489,302.4838 654.8349,345.6365 598.6236,372.6142" fill="none" style="stroke:#000000;stroke-width:1;"/></g><g class="link" data-entity-1="ent0025" data-entity-2="ent0023" data-link-type="dependency" id="lnk29"><polygon fill="#000000" points="570.5332,374.6101,579.7438,371.1224,574.087,371.093,574.1164,365.4362,570.5332,374.6101" style="stroke:#000000;stroke-width:1;stroke-linejoin:miter;stroke-miterlimit:10;"/><path d="M661.8939,284.1945 C634.4331,311.3712 598.611,346.8227 574.087,371.093" fill="none" style="stroke:#000000;stroke-width:1;"/></g><g class="link" data-entity-1="ent0023" data-entity-2="ent0007" data-link-type="dependency" id="lnk30"><polygon fill="#000000" points="159.9549,374.6448,169.0496,370.8651,163.3948,371.0162,163.2437,365.3613,159.9549,374.6448" style="stroke:#000000;stroke-width:1;stroke-linejoin:miter;stroke-miterlimit:10;"/><path d="M531.0192,374.8184 C517.753,358.7791 497.7846,338.6103 475,328.9102 C462.8418,323.734 263.6374,311.2068 233.5,321.9102 C204.1285,332.3416 180.713,352.7473 163.3948,371.0162" fill="none" style="stroke:#000000;stroke-width:1;"/><text fill="#000000" font-family="'sans-serif'" font-size="13" lengthAdjust="spacing" textLength="91.3999" x="235.5" y="316.4785">text command</text></g><g class="link" data-entity-1="ent0023" data-entity-2="ent0008" data-link-type="dependency" id="lnk31"><polygon fill="#000000" points="205.5558,475.8549,215.2397,477.6497,210.4184,474.6908,213.3773,469.8695,205.5558,475.8549" style="stroke:#000000;stroke-width:1;stroke-linejoin:miter;stroke-miterlimit:10;"/><path d="M499.5589,421.0252 C491.4851,424.0677 483.1003,426.8496 475,428.9102 C435.1397,439.0497 423.5801,432.2085 383,438.9102 C323.3592,448.7596 261.8293,462.3841 210.4184,474.6908" fill="none" style="stroke:#000000;stroke-width:1;"/><text fill="#000000" font-family="'sans-serif'" font-size="13" lengthAdjust="spacing" textLength="134.3735" x="385" y="453.4785">structured invocation</text></g><g class="link" data-entity-1="ent0006" data-entity-2="ent0026" data-link-type="dependency" id="lnk32"><polygon fill="#000000" points="511.4208,275.5175,501.8171,277.7015,507.4158,278.5109,506.6064,284.1095,511.4208,275.5175" style="stroke:#000000;stroke-width:1;stroke-linejoin:miter;stroke-miterlimit:10;"/><path d="M378.6128,374.7776 C414.7084,347.8 471.3354,305.4772 507.4158,278.5109" fill="none" style="stroke:#000000;stroke-width:1;"/></g><g class="link" data-entity-1="ent0003" data-entity-2="ent0006" data-link-type="dependency" id="lnk33"><polygon fill="#000000" points="349.4676,374.5412,353.6549,365.6268,349.5722,369.5423,345.6566,365.4596,349.4676,374.5412" style="stroke:#000000;stroke-width:1;stroke-linejoin:miter;stroke-miterlimit:10;"/><path d="M351.5378,275.5175 C350.9757,302.4052 350.1367,342.537 349.5722,369.5423" fill="none" style="stroke:#000000;stroke-width:1;"/><text fill="#000000" font-family="'sans-serif'" font-size="13" lengthAdjust="spacing" textLength="80.7104" x="353" y="316.4785">publish once</text></g><?plantuml-src VLN1KXin3BtlLvXSkB21f51A3fsXq49wQ9bXw8cBigjaNRosnvO3JAV_Njcx6qmQE6JMif-afoTRsHTM2c-2gt0cB5GFi49_M9bQwbN9Qqs7tbM7hQbvMsf21nN9DURhCfwEoS-EpyxAazEZW-d9yQISVZmzBlR5TrZ39i7I6NRJTOfvRkru7N0scKpBoQUZTx5L0qn4WMykJDk2hdtCD_bGJgRJmT4wKuUAH6Mq9mTCS2P0AROx3m4EXMojmfRBmbeidWMvuECoLQD1YHhNg8n5nt0Tzprn34OONQ404cmx2dRyNjQhkxcGNb23xAOu2xWL4aFHSsOWQRJmmIsXmXZd4hrSQU4GlD4p4Nnqmu4tVvdt0Xl9wnWvQi74RA233SQ2GY8yIAGNWOZPZ8izPj2Yi8ff5NlMmQe5eU3P1AwZHG8DXN_WKE2WvTAN41HzOzb_0BkDRa7xMtHoESfGle7QFFBj44jG7hEJ1T-UbJD1rnT66SVQiZyVSSa5IL8exhHSIjOo2TStKfoxgf645GM7HK762Z9YORW4fYGT7x1SHNyrnUWIbrBB967qlktQCH9_2X7LiAoSfY7u1TVY9El1TC2BpDo5dlVDJjYDmSWyJ5b-pix-5Y_CXe8kk5zlyG7sCwjR3TOtXcAUORqBVWFETsowrIxCfMIDgMewt8kr2_lr2QiGfRi2mWYFtzswnMSIaTp_jQomKs_OP9UUMbJZLSvDQV-TP4JZMP_w5JxBi4lO-V1sqmjwG-9h_lKjx9UlK1milbD-iSQLS_sRhnVMzvfdaP9LzpBxalqejQStjeFq5wQVWKRVwwxrQVzd87wToV_6E8hE0wrOPXOptnwWgJbnO-2VQn47m4qsHxPLI83p6YmpImJOtk8UnyTS3mIZcQoT5NAVqs3follI3PRaTvxAtjBb6fKLloG-9aYqqkiPkjerFX7QfCts-f3PJYmcITFTjfaWVA9Xw6NdsTsQYQwzF4tY-5wRhglRLornOs5Vtdpgp03X_yAmKD8tQUx_0m00?></g></svg>