<svg xmlns="http://www.w3.org/2000/svg" xmlns:xlink="http://www.w3.org/1999/xlink" contentStyleType="text/css" data-diagram-type="CLASS" height="904px" preserveAspectRatio="none" style="width:1630px;height:904px;" version="1.1" viewBox="0 0 1630 904" width="1630px" zoomAndPan="magnify"><?plantuml 1.2026.6?><defs/><g><g class="title" data-source-line="125"><text fill="#000000" font-family="'sans-serif'" font-size="22" font-weight="700" lengthAdjust="spacing" textLength="402.3057" x="613.0972" y="36.2695">Unified Java Command Class Model</text></g><!--class CommandContributor--><g class="entity" data-qualified-name="CommandContributor" data-source-line="127" id="ent0001"><rect fill="#FFFFFF" height="60.4883" rx="2.5" ry="2.5" style="stroke:#000000;stroke-width:1;" width="297.9609" x="655.5" y="224.9102"/><ellipse cx="726.376" cy="238.9102" fill="#FFFFFF" rx="9" ry="9" style="stroke:#000000;stroke-width:1;"/><path d="M722.8037,235.1753 L722.8037,233.0171 L730.1831,233.0171 L730.1831,235.1753 L727.7178,235.1753 L727.7178,243.252 L730.1831,243.252 L730.1831,245.4102 L722.8037,245.4102 L722.8037,243.252 L725.269,243.252 L725.269,235.1753 Z " fill="#000000"/><text fill="#000000" font-family="'sans-serif'" font-size="14" font-style="italic" lengthAdjust="spacing" textLength="148.709" x="743.876" y="244.2012">CommandContributor</text><line style="stroke:#000000;stroke-width:1;" x1="656.5" x2="952.4609" y1="252.9102" y2="252.9102"/><line style="stroke:#000000;stroke-width:1;" x1="656.5" x2="952.4609" y1="260.9102" y2="260.9102"/><text fill="#000000" font-family="'sans-serif'" font-size="14" lengthAdjust="spacing" textLength="285.9609" x="661.5" y="278.4453">+commands(): List&lt;CommandDefinition&gt;</text></g><!--class CommandDefinition--><g class="entity" data-qualified-name="CommandDefinition" data-source-line="131" id="ent0002"><rect fill="#FFFFFF" height="139.5137" rx="2.5" ry="2.5" style="stroke:#000000;stroke-width:1;" width="452.3438" x="567.5" y="439.9102"/><ellipse cx="721.6992" cy="460.4463" fill="#FFFFFF" rx="9" ry="9" style="stroke:#000000;stroke-width:1;"/><path d="M724.1724,466.5894 Q723.5913,466.8882 722.9521,467.0376 Q722.313,467.187 721.6074,467.187 Q719.1006,467.187 717.7808,465.5352 Q716.4609,463.8833 716.4609,460.7622 Q716.4609,457.6328 717.7808,455.981 Q719.1006,454.3291 721.6074,454.3291 Q722.313,454.3291 722.9604,454.4785 Q723.6079,454.6279 724.1724,454.9268 L724.1724,457.6494 Q723.5415,457.0684 722.948,456.7986 Q722.3545,456.5288 721.7236,456.5288 Q720.3789,456.5288 719.6941,457.5955 Q719.0093,458.6621 719.0093,460.7622 Q719.0093,462.854 719.6941,463.9207 Q720.3789,464.9873 721.7236,464.9873 Q722.3545,464.9873 722.948,464.7175 Q723.5415,464.4478 724.1724,463.8667 Z " fill="#000000"/><text fill="#000000" font-family="Verdana" font-size="12" font-style="italic" lengthAdjust="spacing" textLength="53.8711" x="780.4863" y="456.9746">&#171;record&#187;</text><text fill="#000000" font-family="'sans-serif'" font-size="14" lengthAdjust="spacing" textLength="136.4453" x="739.1992" y="473.0293">CommandDefinition</text><line style="stroke:#000000;stroke-width:1;" x1="568.5" x2="1018.8438" y1="480.9824" y2="480.9824"/><text fill="#000000" font-family="'sans-serif'" font-size="14" lengthAdjust="spacing" textLength="92.8184" x="573.5" y="498.5176">+String name</text><text fill="#000000" font-family="'sans-serif'" font-size="14" lengthAdjust="spacing" textLength="131.6055" x="573.5" y="515.0059">+String description</text><text fill="#000000" font-family="'sans-serif'" font-size="14" lengthAdjust="spacing" textLength="296.0713" x="573.5" y="531.4941">+CommandExecutionPolicy executionPolicy</text><text fill="#000000" font-family="'sans-serif'" font-size="14" lengthAdjust="spacing" textLength="440.3438" x="573.5" y="547.9824">+Optional&lt;CommandArgumentCompleter&gt; argumentCompleter</text><text fill="#000000" font-family="'sans-serif'" font-size="14" lengthAdjust="spacing" textLength="189.8066" x="573.5" y="564.4707">+CommandHandler handler</text><line style="stroke:#000000;stroke-width:1;" x1="568.5" x2="1018.8438" y1="571.4238" y2="571.4238"/></g><!--class CommandHandler--><g class="entity" data-qualified-name="CommandHandler" data-source-line="139" id="ent0003"><rect fill="#FFFFFF" height="60.4883" rx="2.5" ry="2.5" style="stroke:#000000;stroke-width:1;" width="532.7959" x="527" y="648.4102"/><ellipse cx="728.2715" cy="662.4102" fill="#FFFFFF" rx="9" ry="9" style="stroke:#000000;stroke-width:1;"/><path d="M724.6992,658.6753 L724.6992,656.5171 L732.0786,656.5171 L732.0786,658.6753 L729.6133,658.6753 L729.6133,666.752 L732.0786,666.752 L732.0786,668.9102 L724.6992,668.9102 L724.6992,666.752 L727.1646,666.752 L727.1646,658.6753 Z " fill="#000000"/><text fill="#000000" font-family="'sans-serif'" font-size="14" font-style="italic" lengthAdjust="spacing" textLength="122.7529" x="745.7715" y="667.7012">CommandHandler</text><line style="stroke:#000000;stroke-width:1;" x1="528" x2="1058.7959" y1="676.4102" y2="676.4102"/><line style="stroke:#000000;stroke-width:1;" x1="528" x2="1058.7959" y1="684.4102" y2="684.4102"/><text fill="#000000" font-family="'sans-serif'" font-size="14" lengthAdjust="spacing" textLength="520.7959" x="533" y="701.9453">+handle(invocation, context): CompletionStage&lt;CommandExecutionResult&gt;</text></g><!--class CommandArgumentCompleter--><g class="entity" data-qualified-name="CommandArgumentCompleter" data-source-line="143" id="ent0004"><rect fill="#FFFFFF" height="60.4883" rx="2.5" ry="2.5" style="stroke:#000000;stroke-width:1;" width="536.1934" x="1078.5" y="648.4102"/><ellipse cx="1238.8276" cy="662.4102" fill="#FFFFFF" rx="9" ry="9" style="stroke:#000000;stroke-width:1;"/><path d="M1235.2554,658.6753 L1235.2554,656.5171 L1242.6348,656.5171 L1242.6348,658.6753 L1240.1694,658.6753 L1240.1694,666.752 L1242.6348,666.752 L1242.6348,668.9102 L1235.2554,668.9102 L1235.2554,666.752 L1237.7207,666.752 L1237.7207,658.6753 Z " fill="#000000"/><text fill="#000000" font-family="'sans-serif'" font-size="14" font-style="italic" lengthAdjust="spacing" textLength="208.0381" x="1256.3276" y="667.7012">CommandArgumentCompleter</text><line style="stroke:#000000;stroke-width:1;" x1="1079.5" x2="1613.6934" y1="676.4102" y2="676.4102"/><line style="stroke:#000000;stroke-width:1;" x1="1079.5" x2="1613.6934" y1="684.4102" y2="684.4102"/><text fill="#000000" font-family="'sans-serif'" font-size="14" lengthAdjust="spacing" textLength="524.1934" x="1084.5" y="701.9453">+complete(prefix, context): CompletionStage&lt;List&lt;CommandCompletion&gt;&gt;</text></g><!--class CommandExecutionPolicy--><g class="entity" data-qualified-name="CommandExecutionPolicy" data-source-line="147" id="ent0005"><rect fill="#FFFFFF" height="123.0254" rx="2.5" ry="2.5" style="stroke:#000000;stroke-width:1;" width="265.2305" x="217" y="616.9102"/><ellipse cx="258.3755" cy="637.4463" fill="#FFFFFF" rx="9" ry="9" style="stroke:#000000;stroke-width:1;"/><path d="M260.8486,643.5894 Q260.2676,643.8882 259.6284,644.0376 Q258.9893,644.187 258.2837,644.187 Q255.7769,644.187 254.457,642.5352 Q253.1372,640.8833 253.1372,637.7622 Q253.1372,634.6328 254.457,632.981 Q255.7769,631.3291 258.2837,631.3291 Q258.9893,631.3291 259.6367,631.4785 Q260.2842,631.6279 260.8486,631.9268 L260.8486,634.6494 Q260.2178,634.0684 259.6243,633.7986 Q259.0308,633.5288 258.3999,633.5288 Q257.0552,633.5288 256.3704,634.5955 Q255.6855,635.6621 255.6855,637.7622 Q255.6855,639.854 256.3704,640.9207 Q257.0552,641.9873 258.3999,641.9873 Q259.0308,641.9873 259.6243,641.7175 Q260.2178,641.4478 260.8486,640.8667 Z " fill="#000000"/><text fill="#000000" font-family="Verdana" font-size="12" font-style="italic" lengthAdjust="spacing" textLength="53.8711" x="336.4297" y="633.9746">&#171;record&#187;</text><text fill="#000000" font-family="'sans-serif'" font-size="14" lengthAdjust="spacing" textLength="174.9795" x="275.8755" y="650.0293">CommandExecutionPolicy</text><line style="stroke:#000000;stroke-width:1;" x1="218" x2="481.2305" y1="657.9824" y2="657.9824"/><text fill="#000000" font-family="'sans-serif'" font-size="14" lengthAdjust="spacing" textLength="227.1719" x="223" y="675.5176">+CommandExecutionMode mode</text><text fill="#000000" font-family="'sans-serif'" font-size="14" lengthAdjust="spacing" textLength="253.2305" x="223" y="692.0059">+CommandConcurrency concurrency</text><text fill="#000000" font-family="'sans-serif'" font-size="14" lengthAdjust="spacing" textLength="176.75" x="223" y="708.4941">+boolean userCancellable</text><text fill="#000000" font-family="'sans-serif'" font-size="14" lengthAdjust="spacing" textLength="207.7373" x="223" y="724.9824">+Optional&lt;Duration&gt; timeout</text><line style="stroke:#000000;stroke-width:1;" x1="218" x2="481.2305" y1="731.9355" y2="731.9355"/></g><!--class CommandExecutionMode--><g class="entity" data-qualified-name="CommandExecutionMode" data-source-line="154" id="ent0006"><rect fill="#FFFFFF" height="126.4414" rx="2.5" ry="2.5" style="stroke:#000000;stroke-width:1;" width="201.332" x="11" y="776.9102"/><ellipse cx="24" cy="790.9102" fill="#FFFFFF" rx="9" ry="9" style="stroke:#000000;stroke-width:1;"/><path d="M27.6143,797.4102 L19.8945,797.4102 L19.8945,785.0171 L27.6143,785.0171 L27.6143,787.1753 L22.3433,787.1753 L22.3433,789.8481 L27.1162,789.8481 L27.1162,792.0063 L22.3433,792.0063 L22.3433,795.252 L27.6143,795.252 Z " fill="#000000"/><text fill="#000000" font-family="'sans-serif'" font-size="14" lengthAdjust="spacing" textLength="173.332" x="36" y="796.2012">CommandExecutionMode</text><line style="stroke:#000000;stroke-width:1;" x1="12" x2="211.332" y1="804.9102" y2="804.9102"/><text fill="#000000" font-family="'sans-serif'" font-size="14" lengthAdjust="spacing" textLength="76.3574" x="17" y="822.4453">IMMEDIATE</text><text fill="#000000" font-family="'sans-serif'" font-size="14" lengthAdjust="spacing" textLength="94.0625" x="17" y="838.9336">REQUIRE_IDLE</text><text fill="#000000" font-family="'sans-serif'" font-size="14" lengthAdjust="spacing" textLength="173.2363" x="17" y="855.4219">ABORT_AGENT_AND_RUN</text><text fill="#000000" font-family="'sans-serif'" font-size="14" lengthAdjust="spacing" textLength="151.8125" x="17" y="871.9102">RUNTIME_TRANSITION</text><text fill="#000000" font-family="'sans-serif'" font-size="14" lengthAdjust="spacing" textLength="80.0625" x="17" y="888.3984">SHUTDOWN</text><line style="stroke:#000000;stroke-width:1;" x1="12" x2="211.332" y1="895.3516" y2="895.3516"/></g><!--class CommandConcurrency--><g class="entity" data-qualified-name="CommandConcurrency" data-source-line="162" id="ent0007"><rect fill="#FFFFFF" height="76.9766" rx="2.5" ry="2.5" style="stroke:#000000;stroke-width:1;" width="182.9229" x="230" y="801.4102"/><ellipse cx="243" cy="815.4102" fill="#FFFFFF" rx="9" ry="9" style="stroke:#000000;stroke-width:1;"/><path d="M246.6143,821.9102 L238.8945,821.9102 L238.8945,809.5171 L246.6143,809.5171 L246.6143,811.6753 L241.3433,811.6753 L241.3433,814.3481 L246.1162,814.3481 L246.1162,816.5063 L241.3433,816.5063 L241.3433,819.752 L246.6143,819.752 Z " fill="#000000"/><text fill="#000000" font-family="'sans-serif'" font-size="14" lengthAdjust="spacing" textLength="154.9229" x="255" y="820.7012">CommandConcurrency</text><line style="stroke:#000000;stroke-width:1;" x1="231" x2="411.9229" y1="829.4102" y2="829.4102"/><text fill="#000000" font-family="'sans-serif'" font-size="14" lengthAdjust="spacing" textLength="54.4141" x="236" y="846.9453">SHARED</text><text fill="#000000" font-family="'sans-serif'" font-size="14" lengthAdjust="spacing" textLength="71.5176" x="236" y="863.4336">EXCLUSIVE</text><line style="stroke:#000000;stroke-width:1;" x1="231" x2="411.9229" y1="870.3867" y2="870.3867"/></g><g class="entity" data-qualified-name="GMN8" data-source-line="168" id="ent0009"><path d="M431.5,781.4102 L431.5,835.9102 L413.375,839.9102 L431.5,843.9102 L431.5,898.584 A0,0 0 0 0 431.5,898.584 L691.5146,898.584 A0,0 0 0 0 691.5146,898.584 L691.5146,791.4102 L681.5146,781.4102 L431.5,781.4102 A0,0 0 0 0 431.5,781.4102" fill="#FFFFFF" style="stroke:#000000;stroke-width:1;"/><path d="M681.5146,781.4102 L681.5146,791.4102 L691.5146,791.4102 L681.5146,781.4102" fill="#FFFFFF" style="stroke:#000000;stroke-width:1;"/><text fill="#000000" font-family="'sans-serif'" font-size="13" lengthAdjust="spacing" textLength="50.5273" x="437.5" y="798.9785">SHARED</text><text fill="#000000" font-family="'sans-serif'" font-size="13" lengthAdjust="spacing" textLength="160.2085" x="437.5" y="814.2891">Can overlap with SHARED</text><text fill="#000000" font-family="'sans-serif'" font-size="13" lengthAdjust="spacing" textLength="156.8315" x="437.5" y="829.5996">Conflicts with EXCLUSIVE</text><text fill="#000000" font-family="'sans-serif'" font-size="13" lengthAdjust="spacing" textLength="4.1133" x="437.5" y="844.9102">&#160;</text><text fill="#000000" font-family="'sans-serif'" font-size="13" lengthAdjust="spacing" textLength="66.4092" x="437.5" y="860.2207">EXCLUSIVE</text><text fill="#000000" font-family="'sans-serif'" font-size="13" lengthAdjust="spacing" textLength="239.0146" x="437.5" y="875.5313">Conflicts with SHARED and EXCLUSIVE</text><text fill="#000000" font-family="'sans-serif'" font-size="13" lengthAdjust="spacing" textLength="100.7944" x="437.5" y="890.8418">Only one holder</text></g><!--class CommandInvocation--><g class="entity" data-qualified-name="CommandInvocation" data-source-line="177" id="ent0011"><rect fill="#FFFFFF" height="106.5371" rx="2.5" ry="2.5" style="stroke:#000000;stroke-width:1;" width="167.6992" x="709.5" y="786.4102"/><ellipse cx="722.5" cy="806.9463" fill="#FFFFFF" rx="9" ry="9" style="stroke:#000000;stroke-width:1;"/><path d="M724.9731,813.0894 Q724.3921,813.3882 723.7529,813.5376 Q723.1138,813.687 722.4082,813.687 Q719.9014,813.687 718.5815,812.0352 Q717.2617,810.3833 717.2617,807.2622 Q717.2617,804.1328 718.5815,802.481 Q719.9014,800.8291 722.4082,800.8291 Q723.1138,800.8291 723.7612,800.9785 Q724.4087,801.1279 724.9731,801.4268 L724.9731,804.1494 Q724.3423,803.5684 723.7488,803.2986 Q723.1553,803.0288 722.5244,803.0288 Q721.1797,803.0288 720.4949,804.0955 Q719.8101,805.1621 719.8101,807.2622 Q719.8101,809.354 720.4949,810.4207 Q721.1797,811.4873 722.5244,811.4873 Q723.1553,811.4873 723.7488,811.2175 Q724.3423,810.9478 724.9731,810.3667 Z " fill="#000000"/><text fill="#000000" font-family="Verdana" font-size="12" font-style="italic" lengthAdjust="spacing" textLength="53.8711" x="777.4141" y="803.4746">&#171;record&#187;</text><text fill="#000000" font-family="'sans-serif'" font-size="14" lengthAdjust="spacing" textLength="139.6992" x="734.5" y="819.5293">CommandInvocation</text><line style="stroke:#000000;stroke-width:1;" x1="710.5" x2="876.1992" y1="827.4824" y2="827.4824"/><text fill="#000000" font-family="'sans-serif'" font-size="14" lengthAdjust="spacing" textLength="115.2334" x="715.5" y="845.0176">+String rawInput</text><text fill="#000000" font-family="'sans-serif'" font-size="14" lengthAdjust="spacing" textLength="92.8184" x="715.5" y="861.5059">+String name</text><text fill="#000000" font-family="'sans-serif'" font-size="14" lengthAdjust="spacing" textLength="128.3379" x="715.5" y="877.9941">+String arguments</text><line style="stroke:#000000;stroke-width:1;" x1="710.5" x2="876.1992" y1="884.9473" y2="884.9473"/></g><!--class CommandContext--><g class="entity" data-qualified-name="CommandContext" data-source-line="183" id="ent0012"><rect fill="#FFFFFF" height="123.0254" rx="2.5" ry="2.5" style="stroke:#000000;stroke-width:1;" width="261.6484" x="895.5" y="778.4102"/><ellipse cx="960.8286" cy="798.9463" fill="#FFFFFF" rx="9" ry="9" style="stroke:#000000;stroke-width:1;"/><path d="M963.3018,805.0894 Q962.7207,805.3882 962.0815,805.5376 Q961.4424,805.687 960.7368,805.687 Q958.23,805.687 956.9102,804.0352 Q955.5903,802.3833 955.5903,799.2622 Q955.5903,796.1328 956.9102,794.481 Q958.23,792.8291 960.7368,792.8291 Q961.4424,792.8291 962.0898,792.9785 Q962.7373,793.1279 963.3018,793.4268 L963.3018,796.1494 Q962.6709,795.5684 962.0774,795.2986 Q961.4839,795.0288 960.853,795.0288 Q959.5083,795.0288 958.8235,796.0955 Q958.1387,797.1621 958.1387,799.2622 Q958.1387,801.354 958.8235,802.4207 Q959.5083,803.4873 960.853,803.4873 Q961.4839,803.4873 962.0774,803.2175 Q962.6709,802.9478 963.3018,802.3667 Z " fill="#000000"/><text fill="#000000" font-family="Verdana" font-size="12" font-style="italic" lengthAdjust="spacing" textLength="53.8711" x="1013.1387" y="795.4746">&#171;record&#187;</text><text fill="#000000" font-family="'sans-serif'" font-size="14" lengthAdjust="spacing" textLength="123.4912" x="978.3286" y="811.5293">CommandContext</text><line style="stroke:#000000;stroke-width:1;" x1="896.5" x2="1156.1484" y1="819.4824" y2="819.4824"/><text fill="#000000" font-family="'sans-serif'" font-size="14" lengthAdjust="spacing" textLength="186.71" x="901.5" y="837.0176">+CommandSession session</text><text fill="#000000" font-family="'sans-serif'" font-size="14" lengthAdjust="spacing" textLength="231.1504" x="901.5" y="853.5059">+CommandInteraction interaction</text><text fill="#000000" font-family="'sans-serif'" font-size="14" lengthAdjust="spacing" textLength="178.0146" x="901.5" y="869.9941">+CommandOutput output</text><text fill="#000000" font-family="'sans-serif'" font-size="14" lengthAdjust="spacing" textLength="249.6484" x="901.5" y="886.4824">+CommandCancellation cancellation</text><line style="stroke:#000000;stroke-width:1;" x1="896.5" x2="1156.1484" y1="893.4355" y2="893.4355"/></g><!--class CommandExecutionResult--><g class="entity" data-qualified-name="CommandExecutionResult" data-source-line="190" id="ent0013"><rect fill="#FFFFFF" height="90.0488" rx="2.5" ry="2.5" style="stroke:#000000;stroke-width:1;" width="302.8896" x="1176" y="794.9102"/><ellipse cx="1234.7832" cy="815.4463" fill="#FFFFFF" rx="9" ry="9" style="stroke:#000000;stroke-width:1;"/><path d="M1237.2563,821.5894 Q1236.6753,821.8882 1236.0361,822.0376 Q1235.397,822.187 1234.6914,822.187 Q1232.1846,822.187 1230.8647,820.5352 Q1229.5449,818.8833 1229.5449,815.7622 Q1229.5449,812.6328 1230.8647,810.981 Q1232.1846,809.3291 1234.6914,809.3291 Q1235.397,809.3291 1236.0444,809.4785 Q1236.6919,809.6279 1237.2563,809.9268 L1237.2563,812.6494 Q1236.6255,812.0684 1236.032,811.7986 Q1235.4385,811.5288 1234.8076,811.5288 Q1233.4629,811.5288 1232.7781,812.5955 Q1232.0933,813.6621 1232.0933,815.7622 Q1232.0933,817.854 1232.7781,818.9207 Q1233.4629,819.9873 1234.8076,819.9873 Q1235.4385,819.9873 1236.032,819.7175 Q1236.6255,819.4478 1237.2563,818.8667 Z " fill="#000000"/><text fill="#000000" font-family="Verdana" font-size="12" font-style="italic" lengthAdjust="spacing" textLength="53.8711" x="1314.2593" y="811.9746">&#171;record&#187;</text><text fill="#000000" font-family="'sans-serif'" font-size="14" lengthAdjust="spacing" textLength="177.8232" x="1252.2832" y="828.0293">CommandExecutionResult</text><line style="stroke:#000000;stroke-width:1;" x1="1177" x2="1477.8896" y1="835.9824" y2="835.9824"/><text fill="#000000" font-family="'sans-serif'" font-size="14" lengthAdjust="spacing" textLength="205.8232" x="1182" y="853.5176">+CommandOutcome outcome</text><text fill="#000000" font-family="'sans-serif'" font-size="14" lengthAdjust="spacing" textLength="290.8896" x="1182" y="870.0059">+Set&lt;CommandRefreshHint&gt; refreshHints</text><line style="stroke:#000000;stroke-width:1;" x1="1177" x2="1477.8896" y1="876.959" y2="876.959"/></g><!--class CommandCatalogSnapshot--><g class="entity" data-qualified-name="CommandCatalogSnapshot" data-source-line="195" id="ent0014"><rect fill="#FFFFFF" height="57.0723" rx="2.5" ry="2.5" style="stroke:#000000;stroke-width:1;" width="211.8525" x="556.5" y="302.9102"/><ellipse cx="569.5" cy="323.4463" fill="#FFFFFF" rx="9" ry="9" style="stroke:#000000;stroke-width:1;"/><path d="M571.9731,329.5894 Q571.3921,329.8882 570.7529,330.0376 Q570.1138,330.187 569.4082,330.187 Q566.9014,330.187 565.5815,328.5352 Q564.2617,326.8833 564.2617,323.7622 Q564.2617,320.6328 565.5815,318.981 Q566.9014,317.3291 569.4082,317.3291 Q570.1138,317.3291 570.7612,317.4785 Q571.4087,317.6279 571.9731,317.9268 L571.9731,320.6494 Q571.3423,320.0684 570.7488,319.7986 Q570.1553,319.5288 569.5244,319.5288 Q568.1797,319.5288 567.4949,320.5955 Q566.8101,321.6621 566.8101,323.7622 Q566.8101,325.854 567.4949,326.9207 Q568.1797,327.9873 569.5244,327.9873 Q570.1553,327.9873 570.7488,327.7175 Q571.3423,327.4478 571.9731,326.8667 Z " fill="#000000"/><text fill="#000000" font-family="Verdana" font-size="12" font-style="italic" lengthAdjust="spacing" textLength="79.5645" x="633.644" y="319.9746">&#171;immutable&#187;</text><text fill="#000000" font-family="'sans-serif'" font-size="14" lengthAdjust="spacing" textLength="183.8525" x="581.5" y="336.0293">CommandCatalogSnapshot</text><line style="stroke:#000000;stroke-width:1;" x1="557.5" x2="767.3525" y1="343.9824" y2="343.9824"/><line style="stroke:#000000;stroke-width:1;" x1="557.5" x2="767.3525" y1="351.9824" y2="351.9824"/></g><!--class CommandInstaller--><g class="entity" data-qualified-name="CommandInstaller" data-source-line="196" id="ent0015"><rect fill="#FFFFFF" height="44" rx="2.5" ry="2.5" style="stroke:#000000;stroke-width:1;" width="152.1064" x="672.5" y="63.9102"/><ellipse cx="685.5" cy="77.9102" fill="#FFFFFF" rx="9" ry="9" style="stroke:#000000;stroke-width:1;"/><path d="M687.9731,84.0532 Q687.3921,84.3521 686.7529,84.5015 Q686.1138,84.6509 685.4082,84.6509 Q682.9014,84.6509 681.5815,82.999 Q680.2617,81.3472 680.2617,78.2261 Q680.2617,75.0967 681.5815,73.4448 Q682.9014,71.793 685.4082,71.793 Q686.1138,71.793 686.7612,71.9424 Q687.4087,72.0918 687.9731,72.3906 L687.9731,75.1133 Q687.3423,74.5322 686.7488,74.2625 Q686.1553,73.9927 685.5244,73.9927 Q684.1797,73.9927 683.4949,75.0593 Q682.8101,76.126 682.8101,78.2261 Q682.8101,80.3179 683.4949,81.3845 Q684.1797,82.4512 685.5244,82.4512 Q686.1553,82.4512 686.7488,82.1814 Q687.3423,81.9116 687.9731,81.3306 Z " fill="#000000"/><text fill="#000000" font-family="'sans-serif'" font-size="14" lengthAdjust="spacing" textLength="124.1064" x="697.5" y="83.2012">CommandInstaller</text><line style="stroke:#000000;stroke-width:1;" x1="673.5" x2="823.6064" y1="91.9102" y2="91.9102"/><line style="stroke:#000000;stroke-width:1;" x1="673.5" x2="823.6064" y1="99.9102" y2="99.9102"/></g><!--class CommandRegistry--><g class="entity" data-qualified-name="CommandRegistry" data-source-line="197" id="ent0016"><rect fill="#FFFFFF" height="44" rx="2.5" ry="2.5" style="stroke:#000000;stroke-width:1;" width="152.5029" x="564" y="162.9102"/><ellipse cx="577" cy="176.9102" fill="#FFFFFF" rx="9" ry="9" style="stroke:#000000;stroke-width:1;"/><path d="M573.4277,173.1753 L573.4277,171.0171 L580.8071,171.0171 L580.8071,173.1753 L578.3418,173.1753 L578.3418,181.252 L580.8071,181.252 L580.8071,183.4102 L573.4277,183.4102 L573.4277,181.252 L575.8931,181.252 L575.8931,173.1753 Z " fill="#000000"/><text fill="#000000" font-family="'sans-serif'" font-size="14" font-style="italic" lengthAdjust="spacing" textLength="124.5029" x="589" y="182.2012">CommandRegistry</text><line style="stroke:#000000;stroke-width:1;" x1="565" x2="715.5029" y1="190.9102" y2="190.9102"/><line style="stroke:#000000;stroke-width:1;" x1="565" x2="715.5029" y1="198.9102" y2="198.9102"/></g><!--class CommandDispatcher--><g class="entity" data-qualified-name="CommandDispatcher" data-source-line="198" id="ent0017"><rect fill="#FFFFFF" height="44" rx="2.5" ry="2.5" style="stroke:#000000;stroke-width:1;" width="170.4951" x="443.5" y="63.9102"/><ellipse cx="456.5" cy="77.9102" fill="#FFFFFF" rx="9" ry="9" style="stroke:#000000;stroke-width:1;"/><path d="M458.9731,84.0532 Q458.3921,84.3521 457.7529,84.5015 Q457.1138,84.6509 456.4082,84.6509 Q453.9014,84.6509 452.5815,82.999 Q451.2617,81.3472 451.2617,78.2261 Q451.2617,75.0967 452.5815,73.4448 Q453.9014,71.793 456.4082,71.793 Q457.1138,71.793 457.7612,71.9424 Q458.4087,72.0918 458.9731,72.3906 L458.9731,75.1133 Q458.3423,74.5322 457.7488,74.2625 Q457.1553,73.9927 456.5244,73.9927 Q455.1797,73.9927 454.4949,75.0593 Q453.8101,76.126 453.8101,78.2261 Q453.8101,80.3179 454.4949,81.3845 Q455.1797,82.4512 456.5244,82.4512 Q457.1553,82.4512 457.7488,82.1814 Q458.3423,81.9116 458.9731,81.3306 Z " fill="#000000"/><text fill="#000000" font-family="'sans-serif'" font-size="14" lengthAdjust="spacing" textLength="142.4951" x="468.5" y="83.2012">CommandDispatcher</text><line style="stroke:#000000;stroke-width:1;" x1="444.5" x2="612.9951" y1="91.9102" y2="91.9102"/><line style="stroke:#000000;stroke-width:1;" x1="444.5" x2="612.9951" y1="99.9102" y2="99.9102"/></g><!--class CommandExecutionGate--><g class="entity" data-qualified-name="CommandExecutionGate" data-source-line="199" id="ent0018"><rect fill="#FFFFFF" height="44" rx="2.5" ry="2.5" style="stroke:#000000;stroke-width:1;" width="194.9473" x="304" y="377.9102"/><ellipse cx="317" cy="391.9102" fill="#FFFFFF" rx="9" ry="9" style="stroke:#000000;stroke-width:1;"/><path d="M319.4731,398.0532 Q318.8921,398.3521 318.2529,398.5015 Q317.6138,398.6509 316.9082,398.6509 Q314.4014,398.6509 313.0815,396.999 Q311.7617,395.3472 311.7617,392.2261 Q311.7617,389.0967 313.0815,387.4448 Q314.4014,385.793 316.9082,385.793 Q317.6138,385.793 318.2612,385.9424 Q318.9087,386.0918 319.4731,386.3906 L319.4731,389.1133 Q318.8423,388.5322 318.2488,388.2625 Q317.6553,387.9927 317.0244,387.9927 Q315.6797,387.9927 314.9949,389.0593 Q314.3101,390.126 314.3101,392.2261 Q314.3101,394.3179 314.9949,395.3845 Q315.6797,396.4512 317.0244,396.4512 Q317.6553,396.4512 318.2488,396.1814 Q318.8423,395.9116 319.4731,395.3306 Z " fill="#000000"/><text fill="#000000" font-family="'sans-serif'" font-size="14" lengthAdjust="spacing" textLength="166.9473" x="329" y="397.2012">CommandExecutionGate</text><line style="stroke:#000000;stroke-width:1;" x1="305" x2="497.9473" y1="405.9102" y2="405.9102"/><line style="stroke:#000000;stroke-width:1;" x1="305" x2="497.9473" y1="413.9102" y2="413.9102"/></g><g class="link" data-entity-1="ent0001" data-entity-2="ent0002" data-link-type="dependency" id="lnk19"><polygon fill="#000000" points="796.5047,439.8029,800.8918,430.9852,796.7218,434.8076,792.8994,430.6377,796.5047,439.8029" style="stroke:#000000;stroke-width:1;stroke-linejoin:miter;stroke-miterlimit:10;"/><path d="M803.2382,284.9325 C801.6073,322.4432 798.932,383.9734 796.7218,434.8076" fill="none" style="stroke:#000000;stroke-width:1;"/><text fill="#000000" font-family="'sans-serif'" font-size="13" lengthAdjust="spacing" textLength="52.2095" x="804.5" y="336.4785">declares</text><text fill="#000000" font-family="'sans-serif'" font-size="13" lengthAdjust="spacing" textLength="22.7119" x="773.5047" y="436.3713">1..*</text><text fill="#000000" font-family="'sans-serif'" font-size="13" lengthAdjust="spacing" textLength="8.2202" x="794.2382" y="298.5008">1</text></g><g class="link" data-entity-1="ent0002" data-entity-2="ent0005" data-link-type="composition" id="lnk20"><polygon fill="#000000" points="609.3823,579.9543,602.3598,578.3157,598.1463,584.1678,605.1688,585.8064,609.3823,579.9543" style="stroke:#000000;stroke-width:1;stroke-linejoin:miter;stroke-miterlimit:10;"/><path d="M598.1463,584.1678 C555.4702,600.1713 522.1054,612.6831 482.142,627.6694" fill="none" style="stroke:#000000;stroke-width:1;"/><text fill="#000000" font-family="'sans-serif'" font-size="13" lengthAdjust="spacing" textLength="8.2202" x="483.142" y="624.2378">1</text><text fill="#000000" font-family="'sans-serif'" font-size="13" lengthAdjust="spacing" textLength="8.2202" x="600.3823" y="593.5227">1</text></g><g class="link" data-entity-1="ent0002" data-entity-2="ent0004" data-link-type="aggregation" id="lnk21"><polygon fill="none" points="1019.6228,578.9923,1024.2148,584.5523,1031.1133,582.452,1026.5213,576.892,1019.6228,578.9923" style="stroke:#000000;stroke-width:1;stroke-linejoin:miter;stroke-miterlimit:10;"/><path d="M1031.1133,582.452 C1111.5499,606.6702 1186.383,629.2013 1250.1102,648.3886" fill="none" style="stroke:#000000;stroke-width:1;"/><text fill="#000000" font-family="'sans-serif'" font-size="13" lengthAdjust="spacing" textLength="24.667" x="1225.1102" y="644.957">0..1</text><text fill="#000000" font-family="'sans-serif'" font-size="13" lengthAdjust="spacing" textLength="8.2202" x="1010.6228" y="592.5607">1</text></g><g class="link" data-entity-1="ent0002" data-entity-2="ent0003" data-link-type="aggregation" id="lnk22"><polygon fill="none" points="793.5,580.0747,789.5,586.0747,793.5,592.0747,797.5,586.0747,793.5,580.0747" style="stroke:#000000;stroke-width:1;stroke-linejoin:miter;stroke-miterlimit:10;"/><path d="M793.5,592.0747 C793.5,615.841 793.5,629.1847 793.5,648.052" fill="none" style="stroke:#000000;stroke-width:1;"/><text fill="#000000" font-family="'sans-serif'" font-size="13" lengthAdjust="spacing" textLength="8.2202" x="784.5" y="644.6203">1</text><text fill="#000000" font-family="'sans-serif'" font-size="13" lengthAdjust="spacing" textLength="8.2202" x="784.5" y="593.643">1</text></g><g class="link" data-entity-1="ent0005" data-entity-2="ent0006" data-link-type="composition" id="lnk23"><polygon fill="#000000" points="259.183,739.9377,251.972,739.9551,249.2146,746.6182,256.4257,746.6008,259.183,739.9377" style="stroke:#000000;stroke-width:1;stroke-linejoin:miter;stroke-miterlimit:10;"/><path d="M249.2146,746.6182 C231.199,758.6917 222.2192,764.7097 204.1273,776.8343" fill="none" style="stroke:#000000;stroke-width:1;"/></g><g class="link" data-entity-1="ent0005" data-entity-2="ent0007" data-link-type="composition" id="lnk24"><polygon fill="#000000" points="338.8345,740.1653,333.8573,745.3833,336.7597,751.9845,341.7369,746.7665,338.8345,740.1653" style="stroke:#000000;stroke-width:1;stroke-linejoin:miter;stroke-miterlimit:10;"/><path d="M336.7597,751.9845 C333.1433,772.585 331.2866,783.1617 328.0833,801.409" fill="none" style="stroke:#000000;stroke-width:1;"/></g><g class="link" data-entity-1="ent0015" data-entity-2="ent0001" data-link-type="dependency" id="lnk25"><polygon fill="#000000" points="797.5885,224.7197,799.2826,215.0176,796.374,219.8694,791.5222,216.9608,797.5885,224.7197" style="stroke:#000000;stroke-width:1;stroke-linejoin:miter;stroke-miterlimit:10;"/><path d="M759.6283,108.0728 C762.401,113.7771 765.2278,120.0057 767.5,125.9102 C780.2529,159.0486 789.8004,193.6166 796.374,219.8694" fill="none" style="stroke:#000000;stroke-width:1;stroke-dasharray:7,7;"/><text fill="#000000" font-family="'sans-serif'" font-size="13" lengthAdjust="spacing" textLength="47.5503" x="776.5" y="140.4785">collects</text></g><g class="link" data-entity-1="ent0015" data-entity-2="ent0016" data-link-type="dependency" id="lnk26"><polygon fill="#000000" points="654.0975,162.8168,662.5341,157.7352,656.9636,158.7199,655.979,153.1493,654.0975,162.8168" style="stroke:#000000;stroke-width:1;stroke-linejoin:miter;stroke-miterlimit:10;"/><path d="M709.6402,107.9414 C701.273,113.2779 692.7679,119.3715 685.5,125.9102 C673.4671,136.7357 665.1644,146.9976 656.9636,158.7199" fill="none" style="stroke:#000000;stroke-width:1;"/><text fill="#000000" font-family="'sans-serif'" font-size="13" lengthAdjust="spacing" textLength="78.7046" x="687.5" y="140.4785">installs once</text></g><g class="link" data-entity-1="ent0016" data-entity-2="ent0014" data-link-type="composition" id="lnk27"><polygon fill="#000000" points="643.2984,207.1841,640.1308,213.6623,644.8923,219.0778,648.0599,212.5996,643.2984,207.1841" style="stroke:#000000;stroke-width:1;stroke-linejoin:miter;stroke-miterlimit:10;"/><path d="M644.8923,219.0778 C647.5819,239.1468 650.2589,258.1651 654.5,284.9102 C655.4044,290.6136 656.4329,296.708 657.4442,302.5223" fill="none" style="stroke:#000000;stroke-width:1;"/><text fill="#000000" font-family="'sans-serif'" font-size="13" lengthAdjust="spacing" textLength="8.2202" x="648.4442" y="299.0907">1</text><text fill="#000000" font-family="'sans-serif'" font-size="13" lengthAdjust="spacing" textLength="8.2202" x="634.2984" y="220.7525">1</text></g><g class="link" data-entity-1="ent0014" data-entity-2="ent0002" data-link-type="composition" id="lnk28"><polygon fill="#000000" points="682.9688,359.9883,683.3327,367.1902,690.1206,369.6242,689.7567,362.4223,682.9688,359.9883" style="stroke:#000000;stroke-width:1;stroke-linejoin:miter;stroke-miterlimit:10;"/><path d="M690.1206,369.6242 C705.9519,390.9541 721.4339,411.8134 742.1013,439.6593" fill="none" style="stroke:#000000;stroke-width:1;"/><text fill="#000000" font-family="'sans-serif'" font-size="13" lengthAdjust="spacing" textLength="22.7119" x="719.1013" y="436.2276">1..*</text><text fill="#000000" font-family="'sans-serif'" font-size="13" lengthAdjust="spacing" textLength="8.2202" x="673.9688" y="373.5566">1</text></g><g class="link" data-entity-1="ent0017" data-entity-2="ent0016" data-link-type="dependency" id="lnk29"><polygon fill="#000000" points="616.2451,162.9037,612.0606,153.988,612.4655,159.6303,606.8232,160.0353,616.2451,162.9037" style="stroke:#000000;stroke-width:1;stroke-linejoin:miter;stroke-miterlimit:10;"/><path d="M552.8023,107.9577 C571.5885,124.2279 593.6913,143.3705 612.4655,159.6303" fill="none" style="stroke:#000000;stroke-width:1;"/></g><g class="link" data-entity-1="ent0017" data-entity-2="ent0018" data-link-type="dependency" id="lnk30"><polygon fill="#000000" points="410.1224,377.7276,417.2203,370.8998,412.0074,373.0966,409.8107,367.8837,410.1224,377.7276" style="stroke:#000000;stroke-width:1;stroke-linejoin:miter;stroke-miterlimit:10;"/><path d="M519.7708,108.3552 C496.5138,165.4904 435.1414,316.2636 412.0074,373.0966" fill="none" style="stroke:#000000;stroke-width:1;"/></g><g class="link" data-entity-1="ent0018" data-entity-2="ent0005" data-link-type="dependency" id="lnk31"><polygon fill="#000000" points="360.8871,616.8613,366.4816,608.7556,361.8113,611.9474,358.6195,607.277,360.8871,616.8613" style="stroke:#000000;stroke-width:1;stroke-linejoin:miter;stroke-miterlimit:10;"/><path d="M397.506,422.1475 C389.7649,463.3092 373.3881,550.3896 361.8113,611.9474" fill="none" style="stroke:#000000;stroke-width:1;"/></g><g class="link" data-entity-1="ent0017" data-entity-2="ent0003" data-link-type="dependency" id="lnk32"><polygon fill="#000000" points="666.8211,648.4068,659.6533,641.6524,662.1031,646.7512,657.0043,649.2011,666.8211,648.4068" style="stroke:#000000;stroke-width:1;stroke-linejoin:miter;stroke-miterlimit:10;"/><path d="M528.5,108.1031 C528.5,127.7542 528.5,157.8077 528.5,183.9102 C528.5,183.9102 528.5,183.9102 528.5,510.9102 C528.5,582.4955 593.9708,622.8424 662.1031,646.7512" fill="none" style="stroke:#000000;stroke-width:1;"/></g><g class="link" data-entity-1="ent0003" data-entity-2="ent0011" data-link-type="dependency" id="lnk33"><polygon fill="#000000" points="793.5,786.2868,797.5,777.2868,793.5,781.2868,789.5,777.2868,793.5,786.2868" style="stroke:#000000;stroke-width:1;stroke-linejoin:miter;stroke-miterlimit:10;"/><path d="M793.5,708.6649 C793.5,730.3391 793.5,755.4663 793.5,781.2868" fill="none" style="stroke:#000000;stroke-width:1;stroke-dasharray:7,7;"/></g><g class="link" data-entity-1="ent0003" data-entity-2="ent0012" data-link-type="dependency" id="lnk34"><polygon fill="#000000" points="937.998,778.3262,932.8309,769.9416,933.8721,775.5018,928.3119,776.543,937.998,778.3262" style="stroke:#000000;stroke-width:1;stroke-linejoin:miter;stroke-miterlimit:10;"/><path d="M835.9649,708.4795 C864.4483,727.9778 898.8876,751.5532 933.8721,775.5018" fill="none" style="stroke:#000000;stroke-width:1;stroke-dasharray:7,7;"/></g><g class="link" data-entity-1="ent0003" data-entity-2="ent0013" data-link-type="dependency" id="lnk35"><polygon fill="#000000" points="1218.0957,794.8977,1211.0456,788.0205,1213.4071,793.1609,1208.2667,795.5224,1218.0957,794.8977" style="stroke:#000000;stroke-width:1;stroke-linejoin:miter;stroke-miterlimit:10;"/><path d="M918.8395,708.4587 C991.7026,726.2665 1084.9526,750.6415 1166.5,776.9102 C1183.3207,782.3286 1196.2511,786.8058 1213.4071,793.1609" fill="none" style="stroke:#000000;stroke-width:1;stroke-dasharray:7,7;"/></g><?plantuml-src ZLRRSjis47tdLo1-YPkQiXqxwKJZqOmYiJ4xjjJeqlRD0q4h4MCGu02WBitqtxiWAP4cAKqUR13ONUpjx87UauGJerBDe4iIobxf6imrKqikrpv-ItjjDCC33TT6K1FvJCKnbKlJiQPxU-VVttZlV-wEM2tnc4iBcZBBDr3zzftKNNd_vOl_wUxkwkEd-rl_u-VVxl7wySA0ti2IB22Y6wvqrtdycd9XVIwFfuGfQRYnXgWLYS7I9RNqYgZ4SYMfG76S272RAx9L-dKbr9R03bYQds5MXACAPzmIdKhBOy1LWEbW44CmV2s91cgKxEAQQ32O6x4H7Au6yWVTK5AKoCLZNNvaosr4b0IoX1MNtBdBl4bLPe7n1piBc04AJRgm-mISt-n6gbd4BJ2RQdGMKRd6Kfk8QYoAkmXsJAG6wrZrpLAjGR8zuGOLYhmMm6XgWCpcOMRPJvByeZm-RX9gMGIwuxt3nB00YQ1SUkyIJTSn9OBkLMg9SUMLr3ElN2PKqzXbHbDXVyUKHnJDBgPKcYbelhgeQA6dfTeYBiYA2WCLoG9nizOgbSk14bWBB9p4M301Mz5Y247JjrRpHMeXn2Id_5yWDvxbLW2PIxxYM9AiPeEY4WDdGvuHNyBpCiYjA8E3UE1wv6v3dpyyGduzLD1S_j8bJmYdXq9pUEnTp_lFyx9GI4D67XuquBWiUxtYlYdUZmbBh4frZyF0DC-mcHqNDmK7FFwfi67x4f_vFbCT5uW-HDRNwpJ6GWqA5EeU0gPsLFNnY7y2D8dorMNJgCj19yyXrxpaSgCOpQV5WHjs5eiqECxLrEAuFzGpcO11PFHQtJH2BvkGxIznobPyTyvTjKUbhDTiKhsqZKxLzHncY2EcgdHG6QpAa6Kg2wK4K4bmmFI0IWP2q8M0jqqRfZehOOyuWi5fSe62JEDs_owqyFav68RzMO3Va-3xF9m4B-7moMtxNyUJsKl_Mp32_wFXosG-SahpqIny3bvca_ve6ix2iJkSFivdm_7Vexg_QaO_Cht-91ZYH_3Fu6a-3VyAd8LKI6-QhoFhwBLfMZN4t8dQW1OqoRclb2Yvmk8ZHsVdfOStxXfwkNr6M5MjiHJxZBSY9PO8PCWurKAjyU4HjYUdKzDjA1FinPc9FSoKQI1ha8Fp9AAcO79QpzUgA3oyWIZcvNTLPPnQZ8oeR7a3nG9YcJ6hR4v3Fv_5au6YAvmySBxSccSFn_6Qm0eVlUWH0-tX2tZSj5G4drwXrbD94nCfvv37SMhTDE1arhfZKDVnK8CT9h36uTRx6jaU7waJINwZ3W8j17znUq5yluThf_FXeeMykqZBU2VcvJM5plg3xsThEwMSC5BEwARJAUqQj7VEiZGhIDaxGMWkk3OE-GdzwY3N-q8wdLxRSzb5_aCv3cdJn5MvraJKvxaSVw0XLhswlAM-DHXv9z1LMhRtrMiWfot0yrflqTLssAfT0qRhrRMs7fxUIjbB1ZkZLB3G6OqQ3VmF?></g></svg>