<svg xmlns="http://www.w3.org/2000/svg" xmlns:xlink="http://www.w3.org/1999/xlink" contentStyleType="text/css" data-diagram-type="CLASS" height="904px" preserveAspectRatio="none" style="width:1575px;height:904px;" version="1.1" viewBox="0 0 1575 904" width="1575px" zoomAndPan="magnify"><?plantuml 1.2026.6?><defs/><g><g class="title" data-source-line="124"><text fill="#000000" font-family="'sans-serif'" font-size="22" font-weight="700" lengthAdjust="spacing" textLength="402.3057" x="585.5972" y="36.2695">Unified Java Command Class Model</text></g><!--class CommandContributor--><g class="entity" data-qualified-name="CommandContributor" data-source-line="126" id="ent0001"><rect fill="#FFFFFF" height="60.4883" rx="2.5" ry="2.5" style="stroke:#000000;stroke-width:1;" width="297.9609" x="600.5" y="224.9102"/><ellipse cx="671.376" cy="238.9102" fill="#FFFFFF" rx="9" ry="9" style="stroke:#000000;stroke-width:1;"/><path d="M667.8037,235.1753 L667.8037,233.0171 L675.1831,233.0171 L675.1831,235.1753 L672.7178,235.1753 L672.7178,243.252 L675.1831,243.252 L675.1831,245.4102 L667.8037,245.4102 L667.8037,243.252 L670.269,243.252 L670.269,235.1753 Z " fill="#000000"/><text fill="#000000" font-family="'sans-serif'" font-size="14" font-style="italic" lengthAdjust="spacing" textLength="148.709" x="688.876" y="244.2012">CommandContributor</text><line style="stroke:#000000;stroke-width:1;" x1="601.5" x2="897.4609" y1="252.9102" y2="252.9102"/><line style="stroke:#000000;stroke-width:1;" x1="601.5" x2="897.4609" y1="260.9102" y2="260.9102"/><text fill="#000000" font-family="'sans-serif'" font-size="14" lengthAdjust="spacing" textLength="285.9609" x="606.5" y="278.4453">+commands(): List&lt;CommandDefinition&gt;</text></g><!--class CommandDefinition--><g class="entity" data-qualified-name="CommandDefinition" data-source-line="130" id="ent0002"><rect fill="#FFFFFF" height="139.5137" rx="2.5" ry="2.5" style="stroke:#000000;stroke-width:1;" width="452.3438" x="512.5" y="439.9102"/><ellipse cx="666.6992" cy="460.4463" fill="#FFFFFF" rx="9" ry="9" style="stroke:#000000;stroke-width:1;"/><path d="M669.1724,466.5894 Q668.5913,466.8882 667.9521,467.0376 Q667.313,467.187 666.6074,467.187 Q664.1006,467.187 662.7808,465.5352 Q661.4609,463.8833 661.4609,460.7622 Q661.4609,457.6328 662.7808,455.981 Q664.1006,454.3291 666.6074,454.3291 Q667.313,454.3291 667.9604,454.4785 Q668.6079,454.6279 669.1724,454.9268 L669.1724,457.6494 Q668.5415,457.0684 667.948,456.7986 Q667.3545,456.5288 666.7236,456.5288 Q665.3789,456.5288 664.6941,457.5955 Q664.0093,458.6621 664.0093,460.7622 Q664.0093,462.854 664.6941,463.9207 Q665.3789,464.9873 666.7236,464.9873 Q667.3545,464.9873 667.948,464.7175 Q668.5415,464.4478 669.1724,463.8667 Z " fill="#000000"/><text fill="#000000" font-family="Verdana" font-size="12" font-style="italic" lengthAdjust="spacing" textLength="53.8711" x="725.4863" y="456.9746">&#171;record&#187;</text><text fill="#000000" font-family="'sans-serif'" font-size="14" lengthAdjust="spacing" textLength="136.4453" x="684.1992" y="473.0293">CommandDefinition</text><line style="stroke:#000000;stroke-width:1;" x1="513.5" x2="963.8438" y1="480.9824" y2="480.9824"/><text fill="#000000" font-family="'sans-serif'" font-size="14" lengthAdjust="spacing" textLength="92.8184" x="518.5" y="498.5176">+String name</text><text fill="#000000" font-family="'sans-serif'" font-size="14" lengthAdjust="spacing" textLength="131.6055" x="518.5" y="515.0059">+String description</text><text fill="#000000" font-family="'sans-serif'" font-size="14" lengthAdjust="spacing" textLength="296.0713" x="518.5" y="531.4941">+CommandExecutionPolicy executionPolicy</text><text fill="#000000" font-family="'sans-serif'" font-size="14" lengthAdjust="spacing" textLength="440.3438" x="518.5" y="547.9824">+Optional&lt;CommandArgumentCompleter&gt; argumentCompleter</text><text fill="#000000" font-family="'sans-serif'" font-size="14" lengthAdjust="spacing" textLength="189.8066" x="518.5" y="564.4707">+CommandHandler handler</text><line style="stroke:#000000;stroke-width:1;" x1="513.5" x2="963.8438" y1="571.4238" y2="571.4238"/></g><!--class CommandHandler--><g class="entity" data-qualified-name="CommandHandler" data-source-line="138" id="ent0003"><rect fill="#FFFFFF" height="60.4883" rx="2.5" ry="2.5" style="stroke:#000000;stroke-width:1;" width="532.7959" x="472" y="648.4102"/><ellipse cx="673.2715" cy="662.4102" fill="#FFFFFF" rx="9" ry="9" style="stroke:#000000;stroke-width:1;"/><path d="M669.6992,658.6753 L669.6992,656.5171 L677.0786,656.5171 L677.0786,658.6753 L674.6133,658.6753 L674.6133,666.752 L677.0786,666.752 L677.0786,668.9102 L669.6992,668.9102 L669.6992,666.752 L672.1646,666.752 L672.1646,658.6753 Z " fill="#000000"/><text fill="#000000" font-family="'sans-serif'" font-size="14" font-style="italic" lengthAdjust="spacing" textLength="122.7529" x="690.7715" y="667.7012">CommandHandler</text><line style="stroke:#000000;stroke-width:1;" x1="473" x2="1003.7959" y1="676.4102" y2="676.4102"/><line style="stroke:#000000;stroke-width:1;" x1="473" x2="1003.7959" y1="684.4102" y2="684.4102"/><text fill="#000000" font-family="'sans-serif'" font-size="14" lengthAdjust="spacing" textLength="520.7959" x="478" y="701.9453">+handle(invocation, context): CompletionStage&lt;CommandExecutionResult&gt;</text></g><!--class CommandArgumentCompleter--><g class="entity" data-qualified-name="CommandArgumentCompleter" data-source-line="142" id="ent0004"><rect fill="#FFFFFF" height="60.4883" rx="2.5" ry="2.5" style="stroke:#000000;stroke-width:1;" width="536.1934" x="1023.5" y="648.4102"/><ellipse cx="1183.8276" cy="662.4102" fill="#FFFFFF" rx="9" ry="9" style="stroke:#000000;stroke-width:1;"/><path d="M1180.2554,658.6753 L1180.2554,656.5171 L1187.6348,656.5171 L1187.6348,658.6753 L1185.1694,658.6753 L1185.1694,666.752 L1187.6348,666.752 L1187.6348,668.9102 L1180.2554,668.9102 L1180.2554,666.752 L1182.7207,666.752 L1182.7207,658.6753 Z " fill="#000000"/><text fill="#000000" font-family="'sans-serif'" font-size="14" font-style="italic" lengthAdjust="spacing" textLength="208.0381" x="1201.3276" y="667.7012">CommandArgumentCompleter</text><line style="stroke:#000000;stroke-width:1;" x1="1024.5" x2="1558.6934" y1="676.4102" y2="676.4102"/><line style="stroke:#000000;stroke-width:1;" x1="1024.5" x2="1558.6934" y1="684.4102" y2="684.4102"/><text fill="#000000" font-family="'sans-serif'" font-size="14" lengthAdjust="spacing" textLength="524.1934" x="1029.5" y="701.9453">+complete(prefix, context): CompletionStage&lt;List&lt;CommandCompletion&gt;&gt;</text></g><!--class CommandExecutionPolicy--><g class="entity" data-qualified-name="CommandExecutionPolicy" data-source-line="146" id="ent0005"><rect fill="#FFFFFF" height="123.0254" rx="2.5" ry="2.5" style="stroke:#000000;stroke-width:1;" width="265.2305" x="189" y="616.9102"/><ellipse cx="230.3755" cy="637.4463" fill="#FFFFFF" rx="9" ry="9" style="stroke:#000000;stroke-width:1;"/><path d="M232.8486,643.5894 Q232.2676,643.8882 231.6284,644.0376 Q230.9893,644.187 230.2837,644.187 Q227.7769,644.187 226.457,642.5352 Q225.1372,640.8833 225.1372,637.7622 Q225.1372,634.6328 226.457,632.981 Q227.7769,631.3291 230.2837,631.3291 Q230.9893,631.3291 231.6367,631.4785 Q232.2842,631.6279 232.8486,631.9268 L232.8486,634.6494 Q232.2178,634.0684 231.6243,633.7986 Q231.0308,633.5288 230.3999,633.5288 Q229.0552,633.5288 228.3704,634.5955 Q227.6855,635.6621 227.6855,637.7622 Q227.6855,639.854 228.3704,640.9207 Q229.0552,641.9873 230.3999,641.9873 Q231.0308,641.9873 231.6243,641.7175 Q232.2178,641.4478 232.8486,640.8667 Z " fill="#000000"/><text fill="#000000" font-family="Verdana" font-size="12" font-style="italic" lengthAdjust="spacing" textLength="53.8711" x="308.4297" y="633.9746">&#171;record&#187;</text><text fill="#000000" font-family="'sans-serif'" font-size="14" lengthAdjust="spacing" textLength="174.9795" x="247.8755" y="650.0293">CommandExecutionPolicy</text><line style="stroke:#000000;stroke-width:1;" x1="190" x2="453.2305" y1="657.9824" y2="657.9824"/><text fill="#000000" font-family="'sans-serif'" font-size="14" lengthAdjust="spacing" textLength="227.1719" x="195" y="675.5176">+CommandExecutionMode mode</text><text fill="#000000" font-family="'sans-serif'" font-size="14" lengthAdjust="spacing" textLength="253.2305" x="195" y="692.0059">+CommandConcurrency concurrency</text><text fill="#000000" font-family="'sans-serif'" font-size="14" lengthAdjust="spacing" textLength="176.75" x="195" y="708.4941">+boolean userCancellable</text><text fill="#000000" font-family="'sans-serif'" font-size="14" lengthAdjust="spacing" textLength="207.7373" x="195" y="724.9824">+Optional&lt;Duration&gt; timeout</text><line style="stroke:#000000;stroke-width:1;" x1="190" x2="453.2305" y1="731.9355" y2="731.9355"/></g><!--class CommandExecutionMode--><g class="entity" data-qualified-name="CommandExecutionMode" data-source-line="153" id="ent0006"><rect fill="#FFFFFF" height="126.4414" rx="2.5" ry="2.5" style="stroke:#000000;stroke-width:1;" width="201.332" x="11" y="776.9102"/><ellipse cx="24" cy="790.9102" fill="#FFFFFF" rx="9" ry="9" style="stroke:#000000;stroke-width:1;"/><path d="M27.6143,797.4102 L19.8945,797.4102 L19.8945,785.0171 L27.6143,785.0171 L27.6143,787.1753 L22.3433,787.1753 L22.3433,789.8481 L27.1162,789.8481 L27.1162,792.0063 L22.3433,792.0063 L22.3433,795.252 L27.6143,795.252 Z " fill="#000000"/><text fill="#000000" font-family="'sans-serif'" font-size="14" lengthAdjust="spacing" textLength="173.332" x="36" y="796.2012">CommandExecutionMode</text><line style="stroke:#000000;stroke-width:1;" x1="12" x2="211.332" y1="804.9102" y2="804.9102"/><text fill="#000000" font-family="'sans-serif'" font-size="14" lengthAdjust="spacing" textLength="76.3574" x="17" y="822.4453">IMMEDIATE</text><text fill="#000000" font-family="'sans-serif'" font-size="14" lengthAdjust="spacing" textLength="94.0625" x="17" y="838.9336">REQUIRE_IDLE</text><text fill="#000000" font-family="'sans-serif'" font-size="14" lengthAdjust="spacing" textLength="173.2363" x="17" y="855.4219">ABORT_AGENT_AND_RUN</text><text fill="#000000" font-family="'sans-serif'" font-size="14" lengthAdjust="spacing" textLength="151.8125" x="17" y="871.9102">RUNTIME_TRANSITION</text><text fill="#000000" font-family="'sans-serif'" font-size="14" lengthAdjust="spacing" textLength="80.0625" x="17" y="888.3984">SHUTDOWN</text><line style="stroke:#000000;stroke-width:1;" x1="12" x2="211.332" y1="895.3516" y2="895.3516"/></g><!--class CommandConcurrency--><g class="entity" data-qualified-name="CommandConcurrency" data-source-line="161" id="ent0007"><rect fill="#FFFFFF" height="76.9766" rx="2.5" ry="2.5" style="stroke:#000000;stroke-width:1;" width="182.9229" x="230" y="801.4102"/><ellipse cx="243" cy="815.4102" fill="#FFFFFF" rx="9" ry="9" style="stroke:#000000;stroke-width:1;"/><path d="M246.6143,821.9102 L238.8945,821.9102 L238.8945,809.5171 L246.6143,809.5171 L246.6143,811.6753 L241.3433,811.6753 L241.3433,814.3481 L246.1162,814.3481 L246.1162,816.5063 L241.3433,816.5063 L241.3433,819.752 L246.6143,819.752 Z " fill="#000000"/><text fill="#000000" font-family="'sans-serif'" font-size="14" lengthAdjust="spacing" textLength="154.9229" x="255" y="820.7012">CommandConcurrency</text><line style="stroke:#000000;stroke-width:1;" x1="231" x2="411.9229" y1="829.4102" y2="829.4102"/><text fill="#000000" font-family="'sans-serif'" font-size="14" lengthAdjust="spacing" textLength="54.4141" x="236" y="846.9453">SHARED</text><text fill="#000000" font-family="'sans-serif'" font-size="14" lengthAdjust="spacing" textLength="71.5176" x="236" y="863.4336">EXCLUSIVE</text><line style="stroke:#000000;stroke-width:1;" x1="231" x2="411.9229" y1="870.3867" y2="870.3867"/></g><!--class CommandInvocation--><g class="entity" data-qualified-name="CommandInvocation" data-source-line="166" id="ent0008"><rect fill="#FFFFFF" height="106.5371" rx="2.5" ry="2.5" style="stroke:#000000;stroke-width:1;" width="167.6992" x="431.5" y="786.4102"/><ellipse cx="444.5" cy="806.9463" fill="#FFFFFF" rx="9" ry="9" style="stroke:#000000;stroke-width:1;"/><path d="M446.9731,813.0894 Q446.3921,813.3882 445.7529,813.5376 Q445.1138,813.687 444.4082,813.687 Q441.9014,813.687 440.5815,812.0352 Q439.2617,810.3833 439.2617,807.2622 Q439.2617,804.1328 440.5815,802.481 Q441.9014,800.8291 444.4082,800.8291 Q445.1138,800.8291 445.7612,800.9785 Q446.4087,801.1279 446.9731,801.4268 L446.9731,804.1494 Q446.3423,803.5684 445.7488,803.2986 Q445.1553,803.0288 444.5244,803.0288 Q443.1797,803.0288 442.4949,804.0955 Q441.8101,805.1621 441.8101,807.2622 Q441.8101,809.354 442.4949,810.4207 Q443.1797,811.4873 444.5244,811.4873 Q445.1553,811.4873 445.7488,811.2175 Q446.3423,810.9478 446.9731,810.3667 Z " fill="#000000"/><text fill="#000000" font-family="Verdana" font-size="12" font-style="italic" lengthAdjust="spacing" textLength="53.8711" x="499.4141" y="803.4746">&#171;record&#187;</text><text fill="#000000" font-family="'sans-serif'" font-size="14" lengthAdjust="spacing" textLength="139.6992" x="456.5" y="819.5293">CommandInvocation</text><line style="stroke:#000000;stroke-width:1;" x1="432.5" x2="598.1992" y1="827.4824" y2="827.4824"/><text fill="#000000" font-family="'sans-serif'" font-size="14" lengthAdjust="spacing" textLength="115.2334" x="437.5" y="845.0176">+String rawInput</text><text fill="#000000" font-family="'sans-serif'" font-size="14" lengthAdjust="spacing" textLength="92.8184" x="437.5" y="861.5059">+String name</text><text fill="#000000" font-family="'sans-serif'" font-size="14" lengthAdjust="spacing" textLength="128.3379" x="437.5" y="877.9941">+String arguments</text><line style="stroke:#000000;stroke-width:1;" x1="432.5" x2="598.1992" y1="884.9473" y2="884.9473"/></g><!--class CommandContext--><g class="entity" data-qualified-name="CommandContext" data-source-line="172" id="ent0009"><rect fill="#FFFFFF" height="123.0254" rx="2.5" ry="2.5" style="stroke:#000000;stroke-width:1;" width="261.6484" x="617.5" y="778.4102"/><ellipse cx="682.8286" cy="798.9463" fill="#FFFFFF" rx="9" ry="9" style="stroke:#000000;stroke-width:1;"/><path d="M685.3018,805.0894 Q684.7207,805.3882 684.0815,805.5376 Q683.4424,805.687 682.7368,805.687 Q680.23,805.687 678.9102,804.0352 Q677.5903,802.3833 677.5903,799.2622 Q677.5903,796.1328 678.9102,794.481 Q680.23,792.8291 682.7368,792.8291 Q683.4424,792.8291 684.0898,792.9785 Q684.7373,793.1279 685.3018,793.4268 L685.3018,796.1494 Q684.6709,795.5684 684.0774,795.2986 Q683.4839,795.0288 682.853,795.0288 Q681.5083,795.0288 680.8235,796.0955 Q680.1387,797.1621 680.1387,799.2622 Q680.1387,801.354 680.8235,802.4207 Q681.5083,803.4873 682.853,803.4873 Q683.4839,803.4873 684.0774,803.2175 Q684.6709,802.9478 685.3018,802.3667 Z " fill="#000000"/><text fill="#000000" font-family="Verdana" font-size="12" font-style="italic" lengthAdjust="spacing" textLength="53.8711" x="735.1387" y="795.4746">&#171;record&#187;</text><text fill="#000000" font-family="'sans-serif'" font-size="14" lengthAdjust="spacing" textLength="123.4912" x="700.3286" y="811.5293">CommandContext</text><line style="stroke:#000000;stroke-width:1;" x1="618.5" x2="878.1484" y1="819.4824" y2="819.4824"/><text fill="#000000" font-family="'sans-serif'" font-size="14" lengthAdjust="spacing" textLength="186.71" x="623.5" y="837.0176">+CommandSession session</text><text fill="#000000" font-family="'sans-serif'" font-size="14" lengthAdjust="spacing" textLength="231.1504" x="623.5" y="853.5059">+CommandInteraction interaction</text><text fill="#000000" font-family="'sans-serif'" font-size="14" lengthAdjust="spacing" textLength="178.0146" x="623.5" y="869.9941">+CommandOutput output</text><text fill="#000000" font-family="'sans-serif'" font-size="14" lengthAdjust="spacing" textLength="249.6484" x="623.5" y="886.4824">+CommandCancellation cancellation</text><line style="stroke:#000000;stroke-width:1;" x1="618.5" x2="878.1484" y1="893.4355" y2="893.4355"/></g><!--class CommandExecutionResult--><g class="entity" data-qualified-name="CommandExecutionResult" data-source-line="179" id="ent0010"><rect fill="#FFFFFF" height="90.0488" rx="2.5" ry="2.5" style="stroke:#000000;stroke-width:1;" width="302.8896" x="898" y="794.9102"/><ellipse cx="956.7832" cy="815.4463" fill="#FFFFFF" rx="9" ry="9" style="stroke:#000000;stroke-width:1;"/><path d="M959.2563,821.5894 Q958.6753,821.8882 958.0361,822.0376 Q957.397,822.187 956.6914,822.187 Q954.1846,822.187 952.8647,820.5352 Q951.5449,818.8833 951.5449,815.7622 Q951.5449,812.6328 952.8647,810.981 Q954.1846,809.3291 956.6914,809.3291 Q957.397,809.3291 958.0444,809.4785 Q958.6919,809.6279 959.2563,809.9268 L959.2563,812.6494 Q958.6255,812.0684 958.032,811.7986 Q957.4385,811.5288 956.8076,811.5288 Q955.4629,811.5288 954.7781,812.5955 Q954.0933,813.6621 954.0933,815.7622 Q954.0933,817.854 954.7781,818.9207 Q955.4629,819.9873 956.8076,819.9873 Q957.4385,819.9873 958.032,819.7175 Q958.6255,819.4478 959.2563,818.8667 Z " fill="#000000"/><text fill="#000000" font-family="Verdana" font-size="12" font-style="italic" lengthAdjust="spacing" textLength="53.8711" x="1036.2593" y="811.9746">&#171;record&#187;</text><text fill="#000000" font-family="'sans-serif'" font-size="14" lengthAdjust="spacing" textLength="177.8232" x="974.2832" y="828.0293">CommandExecutionResult</text><line style="stroke:#000000;stroke-width:1;" x1="899" x2="1199.8896" y1="835.9824" y2="835.9824"/><text fill="#000000" font-family="'sans-serif'" font-size="14" lengthAdjust="spacing" textLength="205.8232" x="904" y="853.5176">+CommandOutcome outcome</text><text fill="#000000" font-family="'sans-serif'" font-size="14" lengthAdjust="spacing" textLength="290.8896" x="904" y="870.0059">+Set&lt;CommandRefreshHint&gt; refreshHints</text><line style="stroke:#000000;stroke-width:1;" x1="899" x2="1199.8896" y1="876.959" y2="876.959"/></g><!--class CommandCatalogSnapshot--><g class="entity" data-qualified-name="CommandCatalogSnapshot" data-source-line="184" id="ent0011"><rect fill="#FFFFFF" height="57.0723" rx="2.5" ry="2.5" style="stroke:#000000;stroke-width:1;" width="211.8525" x="501.5" y="302.9102"/><ellipse cx="514.5" cy="323.4463" fill="#FFFFFF" rx="9" ry="9" style="stroke:#000000;stroke-width:1;"/><path d="M516.9731,329.5894 Q516.3921,329.8882 515.7529,330.0376 Q515.1138,330.187 514.4082,330.187 Q511.9014,330.187 510.5815,328.5352 Q509.2617,326.8833 509.2617,323.7622 Q509.2617,320.6328 510.5815,318.981 Q511.9014,317.3291 514.4082,317.3291 Q515.1138,317.3291 515.7612,317.4785 Q516.4087,317.6279 516.9731,317.9268 L516.9731,320.6494 Q516.3423,320.0684 515.7488,319.7986 Q515.1553,319.5288 514.5244,319.5288 Q513.1797,319.5288 512.4949,320.5955 Q511.8101,321.6621 511.8101,323.7622 Q511.8101,325.854 512.4949,326.9207 Q513.1797,327.9873 514.5244,327.9873 Q515.1553,327.9873 515.7488,327.7175 Q516.3423,327.4478 516.9731,326.8667 Z " fill="#000000"/><text fill="#000000" font-family="Verdana" font-size="12" font-style="italic" lengthAdjust="spacing" textLength="79.5645" x="578.644" y="319.9746">&#171;immutable&#187;</text><text fill="#000000" font-family="'sans-serif'" font-size="14" lengthAdjust="spacing" textLength="183.8525" x="526.5" y="336.0293">CommandCatalogSnapshot</text><line style="stroke:#000000;stroke-width:1;" x1="502.5" x2="712.3525" y1="343.9824" y2="343.9824"/><line style="stroke:#000000;stroke-width:1;" x1="502.5" x2="712.3525" y1="351.9824" y2="351.9824"/></g><!--class CommandInstaller--><g class="entity" data-qualified-name="CommandInstaller" data-source-line="185" id="ent0012"><rect fill="#FFFFFF" height="44" rx="2.5" ry="2.5" style="stroke:#000000;stroke-width:1;" width="152.1064" x="617.5" y="63.9102"/><ellipse cx="630.5" cy="77.9102" fill="#FFFFFF" rx="9" ry="9" style="stroke:#000000;stroke-width:1;"/><path d="M632.9731,84.0532 Q632.3921,84.3521 631.7529,84.5015 Q631.1138,84.6509 630.4082,84.6509 Q627.9014,84.6509 626.5815,82.999 Q625.2617,81.3472 625.2617,78.2261 Q625.2617,75.0967 626.5815,73.4448 Q627.9014,71.793 630.4082,71.793 Q631.1138,71.793 631.7612,71.9424 Q632.4087,72.0918 632.9731,72.3906 L632.9731,75.1133 Q632.3423,74.5322 631.7488,74.2625 Q631.1553,73.9927 630.5244,73.9927 Q629.1797,73.9927 628.4949,75.0593 Q627.8101,76.126 627.8101,78.2261 Q627.8101,80.3179 628.4949,81.3845 Q629.1797,82.4512 630.5244,82.4512 Q631.1553,82.4512 631.7488,82.1814 Q632.3423,81.9116 632.9731,81.3306 Z " fill="#000000"/><text fill="#000000" font-family="'sans-serif'" font-size="14" lengthAdjust="spacing" textLength="124.1064" x="642.5" y="83.2012">CommandInstaller</text><line style="stroke:#000000;stroke-width:1;" x1="618.5" x2="768.6064" y1="91.9102" y2="91.9102"/><line style="stroke:#000000;stroke-width:1;" x1="618.5" x2="768.6064" y1="99.9102" y2="99.9102"/></g><!--class CommandRegistry--><g class="entity" data-qualified-name="CommandRegistry" data-source-line="186" id="ent0013"><rect fill="#FFFFFF" height="44" rx="2.5" ry="2.5" style="stroke:#000000;stroke-width:1;" width="152.5029" x="509" y="162.9102"/><ellipse cx="522" cy="176.9102" fill="#FFFFFF" rx="9" ry="9" style="stroke:#000000;stroke-width:1;"/><path d="M518.4277,173.1753 L518.4277,171.0171 L525.8071,171.0171 L525.8071,173.1753 L523.3418,173.1753 L523.3418,181.252 L525.8071,181.252 L525.8071,183.4102 L518.4277,183.4102 L518.4277,181.252 L520.8931,181.252 L520.8931,173.1753 Z " fill="#000000"/><text fill="#000000" font-family="'sans-serif'" font-size="14" font-style="italic" lengthAdjust="spacing" textLength="124.5029" x="534" y="182.2012">CommandRegistry</text><line style="stroke:#000000;stroke-width:1;" x1="510" x2="660.5029" y1="190.9102" y2="190.9102"/><line style="stroke:#000000;stroke-width:1;" x1="510" x2="660.5029" y1="198.9102" y2="198.9102"/></g><!--class CommandDispatcher--><g class="entity" data-qualified-name="CommandDispatcher" data-source-line="187" id="ent0014"><rect fill="#FFFFFF" height="44" rx="2.5" ry="2.5" style="stroke:#000000;stroke-width:1;" width="170.4951" x="388.5" y="63.9102"/><ellipse cx="401.5" cy="77.9102" fill="#FFFFFF" rx="9" ry="9" style="stroke:#000000;stroke-width:1;"/><path d="M403.9731,84.0532 Q403.3921,84.3521 402.7529,84.5015 Q402.1138,84.6509 401.4082,84.6509 Q398.9014,84.6509 397.5815,82.999 Q396.2617,81.3472 396.2617,78.2261 Q396.2617,75.0967 397.5815,73.4448 Q398.9014,71.793 401.4082,71.793 Q402.1138,71.793 402.7612,71.9424 Q403.4087,72.0918 403.9731,72.3906 L403.9731,75.1133 Q403.3423,74.5322 402.7488,74.2625 Q402.1553,73.9927 401.5244,73.9927 Q400.1797,73.9927 399.4949,75.0593 Q398.8101,76.126 398.8101,78.2261 Q398.8101,80.3179 399.4949,81.3845 Q400.1797,82.4512 401.5244,82.4512 Q402.1553,82.4512 402.7488,82.1814 Q403.3423,81.9116 403.9731,81.3306 Z " fill="#000000"/><text fill="#000000" font-family="'sans-serif'" font-size="14" lengthAdjust="spacing" textLength="142.4951" x="413.5" y="83.2012">CommandDispatcher</text><line style="stroke:#000000;stroke-width:1;" x1="389.5" x2="557.9951" y1="91.9102" y2="91.9102"/><line style="stroke:#000000;stroke-width:1;" x1="389.5" x2="557.9951" y1="99.9102" y2="99.9102"/></g><!--class CommandExecutionGate--><g class="entity" data-qualified-name="CommandExecutionGate" data-source-line="188" id="ent0015"><rect fill="#FFFFFF" height="44" rx="2.5" ry="2.5" style="stroke:#000000;stroke-width:1;" width="194.9473" x="249" y="377.9102"/><ellipse cx="262" cy="391.9102" fill="#FFFFFF" rx="9" ry="9" style="stroke:#000000;stroke-width:1;"/><path d="M264.4731,398.0532 Q263.8921,398.3521 263.2529,398.5015 Q262.6138,398.6509 261.9082,398.6509 Q259.4014,398.6509 258.0815,396.999 Q256.7617,395.3472 256.7617,392.2261 Q256.7617,389.0967 258.0815,387.4448 Q259.4014,385.793 261.9082,385.793 Q262.6138,385.793 263.2612,385.9424 Q263.9087,386.0918 264.4731,386.3906 L264.4731,389.1133 Q263.8423,388.5322 263.2488,388.2625 Q262.6553,387.9927 262.0244,387.9927 Q260.6797,387.9927 259.9949,389.0593 Q259.3101,390.126 259.3101,392.2261 Q259.3101,394.3179 259.9949,395.3845 Q260.6797,396.4512 262.0244,396.4512 Q262.6553,396.4512 263.2488,396.1814 Q263.8423,395.9116 264.4731,395.3306 Z " fill="#000000"/><text fill="#000000" font-family="'sans-serif'" font-size="14" lengthAdjust="spacing" textLength="166.9473" x="274" y="397.2012">CommandExecutionGate</text><line style="stroke:#000000;stroke-width:1;" x1="250" x2="442.9473" y1="405.9102" y2="405.9102"/><line style="stroke:#000000;stroke-width:1;" x1="250" x2="442.9473" y1="413.9102" y2="413.9102"/></g><g class="link" data-entity-1="ent0001" data-entity-2="ent0002" data-link-type="dependency" id="lnk16"><polygon fill="#000000" points="741.5047,439.8029,745.8918,430.9852,741.7218,434.8076,737.8994,430.6377,741.5047,439.8029" style="stroke:#000000;stroke-width:1;stroke-linejoin:miter;stroke-miterlimit:10;"/><path d="M748.2382,284.9325 C746.6073,322.4432 743.932,383.9734 741.7218,434.8076" fill="none" style="stroke:#000000;stroke-width:1;"/><text fill="#000000" font-family="'sans-serif'" font-size="13" lengthAdjust="spacing" textLength="52.2095" x="749.5" y="336.4785">declares</text><text fill="#000000" font-family="'sans-serif'" font-size="13" lengthAdjust="spacing" textLength="22.7119" x="718.5047" y="436.3713">1..*</text><text fill="#000000" font-family="'sans-serif'" font-size="13" lengthAdjust="spacing" textLength="8.2202" x="739.2382" y="298.5008">1</text></g><g class="link" data-entity-1="ent0002" data-entity-2="ent0005" data-link-type="composition" id="lnk17"><polygon fill="#000000" points="555.5005,580.0518,548.4594,578.4948,544.3142,584.3954,551.3552,585.9523,555.5005,580.0518" style="stroke:#000000;stroke-width:1;stroke-linejoin:miter;stroke-miterlimit:10;"/><path d="M544.3142,584.3954 C513.1998,596.4771 492.4579,604.7355 462.5,616.9102 C459.7855,618.0133 457.0439,619.1334 454.2826,620.2668" fill="none" style="stroke:#000000;stroke-width:1;"/><text fill="#000000" font-family="'sans-serif'" font-size="13" lengthAdjust="spacing" textLength="8.2202" x="455.2826" y="616.8352">1</text><text fill="#000000" font-family="'sans-serif'" font-size="13" lengthAdjust="spacing" textLength="8.2202" x="546.5005" y="593.6201">1</text></g><g class="link" data-entity-1="ent0002" data-entity-2="ent0004" data-link-type="aggregation" id="lnk18"><polygon fill="none" points="964.6228,578.9923,969.2148,584.5523,976.1133,582.452,971.5213,576.892,964.6228,578.9923" style="stroke:#000000;stroke-width:1;stroke-linejoin:miter;stroke-miterlimit:10;"/><path d="M976.1133,582.452 C1056.5499,606.6702 1131.383,629.2013 1195.1102,648.3886" fill="none" style="stroke:#000000;stroke-width:1;"/><text fill="#000000" font-family="'sans-serif'" font-size="13" lengthAdjust="spacing" textLength="24.667" x="1170.1102" y="644.957">0..1</text><text fill="#000000" font-family="'sans-serif'" font-size="13" lengthAdjust="spacing" textLength="8.2202" x="955.6228" y="592.5607">1</text></g><g class="link" data-entity-1="ent0002" data-entity-2="ent0003" data-link-type="aggregation" id="lnk19"><polygon fill="none" points="738.5,580.0747,734.5,586.0747,738.5,592.0747,742.5,586.0747,738.5,580.0747" style="stroke:#000000;stroke-width:1;stroke-linejoin:miter;stroke-miterlimit:10;"/><path d="M738.5,592.0747 C738.5,615.841 738.5,629.1847 738.5,648.052" fill="none" style="stroke:#000000;stroke-width:1;"/><text fill="#000000" font-family="'sans-serif'" font-size="13" lengthAdjust="spacing" textLength="8.2202" x="729.5" y="644.6203">1</text><text fill="#000000" font-family="'sans-serif'" font-size="13" lengthAdjust="spacing" textLength="8.2202" x="729.5" y="593.643">1</text></g><g class="link" data-entity-1="ent0005" data-entity-2="ent0006" data-link-type="composition" id="lnk20"><polygon fill="#000000" points="241.8086,739.9377,234.6111,740.3814,232.2524,747.1958,239.4499,746.7521,241.8086,739.9377" style="stroke:#000000;stroke-width:1;stroke-linejoin:miter;stroke-miterlimit:10;"/><path d="M232.2524,747.1958 C216.3563,759.2693 209.1934,764.7097 193.2299,776.8343" fill="none" style="stroke:#000000;stroke-width:1;"/></g><g class="link" data-entity-1="ent0005" data-entity-2="ent0007" data-link-type="composition" id="lnk21"><polygon fill="#000000" points="321.5,740.1653,317.5,746.1653,321.5,752.1653,325.5,746.1653,321.5,740.1653" style="stroke:#000000;stroke-width:1;stroke-linejoin:miter;stroke-miterlimit:10;"/><path d="M321.5,752.1653 C321.5,772.7658 321.5,783.1617 321.5,801.409" fill="none" style="stroke:#000000;stroke-width:1;"/></g><g class="link" data-entity-1="ent0012" data-entity-2="ent0001" data-link-type="dependency" id="lnk22"><polygon fill="#000000" points="742.5885,224.7197,744.2826,215.0176,741.374,219.8694,736.5222,216.9608,742.5885,224.7197" style="stroke:#000000;stroke-width:1;stroke-linejoin:miter;stroke-miterlimit:10;"/><path d="M704.6283,108.0728 C707.401,113.7771 710.2278,120.0057 712.5,125.9102 C725.2529,159.0486 734.8004,193.6166 741.374,219.8694" fill="none" style="stroke:#000000;stroke-width:1;stroke-dasharray:7,7;"/><text fill="#000000" font-family="'sans-serif'" font-size="13" lengthAdjust="spacing" textLength="47.5503" x="721.5" y="140.4785">collects</text></g><g class="link" data-entity-1="ent0012" data-entity-2="ent0013" data-link-type="dependency" id="lnk23"><polygon fill="#000000" points="599.0975,162.8168,607.5341,157.7352,601.9636,158.7199,600.979,153.1493,599.0975,162.8168" style="stroke:#000000;stroke-width:1;stroke-linejoin:miter;stroke-miterlimit:10;"/><path d="M654.6402,107.9414 C646.273,113.2779 637.7679,119.3715 630.5,125.9102 C618.4671,136.7357 610.1644,146.9976 601.9636,158.7199" fill="none" style="stroke:#000000;stroke-width:1;"/><text fill="#000000" font-family="'sans-serif'" font-size="13" lengthAdjust="spacing" textLength="78.7046" x="632.5" y="140.4785">installs once</text></g><g class="link" data-entity-1="ent0013" data-entity-2="ent0011" data-link-type="composition" id="lnk24"><polygon fill="#000000" points="588.2984,207.1841,585.1308,213.6623,589.8923,219.0778,593.0599,212.5996,588.2984,207.1841" style="stroke:#000000;stroke-width:1;stroke-linejoin:miter;stroke-miterlimit:10;"/><path d="M589.8923,219.0778 C592.5819,239.1468 595.2589,258.1651 599.5,284.9102 C600.4044,290.6136 601.4329,296.708 602.4442,302.5223" fill="none" style="stroke:#000000;stroke-width:1;"/><text fill="#000000" font-family="'sans-serif'" font-size="13" lengthAdjust="spacing" textLength="8.2202" x="593.4442" y="299.0907">1</text><text fill="#000000" font-family="'sans-serif'" font-size="13" lengthAdjust="spacing" textLength="8.2202" x="579.2984" y="220.7525">1</text></g><g class="link" data-entity-1="ent0011" data-entity-2="ent0002" data-link-type="composition" id="lnk25"><polygon fill="#000000" points="627.9688,359.9883,628.3327,367.1902,635.1206,369.6242,634.7567,362.4223,627.9688,359.9883" style="stroke:#000000;stroke-width:1;stroke-linejoin:miter;stroke-miterlimit:10;"/><path d="M635.1206,369.6242 C650.9519,390.9541 666.4339,411.8134 687.1013,439.6593" fill="none" style="stroke:#000000;stroke-width:1;"/><text fill="#000000" font-family="'sans-serif'" font-size="13" lengthAdjust="spacing" textLength="22.7119" x="664.1013" y="436.2276">1..*</text><text fill="#000000" font-family="'sans-serif'" font-size="13" lengthAdjust="spacing" textLength="8.2202" x="618.9688" y="373.5566">1</text></g><g class="link" data-entity-1="ent0014" data-entity-2="ent0013" data-link-type="dependency" id="lnk26"><polygon fill="#000000" points="561.2451,162.9037,557.0606,153.988,557.4655,159.6303,551.8232,160.0353,561.2451,162.9037" style="stroke:#000000;stroke-width:1;stroke-linejoin:miter;stroke-miterlimit:10;"/><path d="M497.8023,107.9577 C516.5885,124.2279 538.6913,143.3705 557.4655,159.6303" fill="none" style="stroke:#000000;stroke-width:1;"/></g><g class="link" data-entity-1="ent0014" data-entity-2="ent0015" data-link-type="dependency" id="lnk27"><polygon fill="#000000" points="355.1224,377.7276,362.2203,370.8998,357.0074,373.0966,354.8107,367.8837,355.1224,377.7276" style="stroke:#000000;stroke-width:1;stroke-linejoin:miter;stroke-miterlimit:10;"/><path d="M464.7708,108.3552 C441.5138,165.4904 380.1414,316.2636 357.0074,373.0966" fill="none" style="stroke:#000000;stroke-width:1;"/></g><g class="link" data-entity-1="ent0015" data-entity-2="ent0005" data-link-type="dependency" id="lnk28"><polygon fill="#000000" points="326.9746,616.8613,331.7688,608.258,327.4248,611.8816,323.8013,607.5376,326.9746,616.8613" style="stroke:#000000;stroke-width:1;stroke-linejoin:miter;stroke-miterlimit:10;"/><path d="M344.5798,422.1475 C340.8581,463.3092 332.9906,550.3238 327.4248,611.8816" fill="none" style="stroke:#000000;stroke-width:1;"/></g><g class="link" data-entity-1="ent0014" data-entity-2="ent0003" data-link-type="dependency" id="lnk29"><polygon fill="#000000" points="611.8211,648.4068,604.6533,641.6524,607.1031,646.7512,602.0043,649.2011,611.8211,648.4068" style="stroke:#000000;stroke-width:1;stroke-linejoin:miter;stroke-miterlimit:10;"/><path d="M473.5,108.1031 C473.5,127.7542 473.5,157.8077 473.5,183.9102 C473.5,183.9102 473.5,183.9102 473.5,510.9102 C473.5,582.4955 538.9708,622.8424 607.1031,646.7512" fill="none" style="stroke:#000000;stroke-width:1;"/></g><g class="link" data-entity-1="ent0003" data-entity-2="ent0008" data-link-type="dependency" id="lnk30"><polygon fill="#000000" points="589.2375,786.1697,598.8848,784.1873,593.3043,783.2609,594.2307,777.6804,589.2375,786.1697" style="stroke:#000000;stroke-width:1;stroke-linejoin:miter;stroke-miterlimit:10;"/><path d="M697.8577,708.4795 C667.5816,730.1343 629.471,757.3927 593.3043,783.2609" fill="none" style="stroke:#000000;stroke-width:1;stroke-dasharray:7,7;"/></g><g class="link" data-entity-1="ent0003" data-entity-2="ent0009" data-link-type="dependency" id="lnk31"><polygon fill="#000000" points="744.6891,778.1266,748.1181,768.8939,744.3763,773.1364,740.1338,769.3945,744.6891,778.1266" style="stroke:#000000;stroke-width:1;stroke-linejoin:miter;stroke-miterlimit:10;"/><path d="M740.3342,708.6649 C741.5521,728.0907 742.8829,749.3166 744.3763,773.1364" fill="none" style="stroke:#000000;stroke-width:1;stroke-dasharray:7,7;"/></g><g class="link" data-entity-1="ent0003" data-entity-2="ent0010" data-link-type="dependency" id="lnk32"><polygon fill="#000000" points="963.5662,794.838,957.3833,787.1717,959.1172,792.5563,953.7326,794.2901,963.5662,794.838" style="stroke:#000000;stroke-width:1;stroke-linejoin:miter;stroke-miterlimit:10;"/><path d="M795.1806,708.4795 C842.2221,732.6053 905.4166,765.0153 959.1172,792.5563" fill="none" style="stroke:#000000;stroke-width:1;stroke-dasharray:7,7;"/></g><?plantuml-src ZLPRRzis57xNhs3pqgoBdAH9EzG81BYsrcX8xDMojxq5D7ri4w58WQJiPCN--mubsL8asUX3mikvd-_ZaT-Jb1EZCisWJrBAdkaQp2LJIoxNFkwblJIQuOM6IoEesVXC9GcLIzEpfdzzuzzUUUz_paUYbdZDfGLDcULRgEzz9tKkRxzyyJ_Tt5ny_7HxxN_y_Dijkfyi3EWjBCa2DdJBbUwxY5ypBgpFvU6MC2KDDzOGjI89MBgabbuGbLgk91KeJb81xd11Tae_huJQ4NW1bXLtM1NXgC8PjqHdql84S1LWUfZ420nVIwA16YNxkAOQ3DP6x0Rshe7yGRUKb2ro-LXN7zbnko5A0bd2YalkmkNHfAggmFp35mjO0GfDjh2lAVIyT-WTiqW5vT9xbsgwJYWHz5LbbXXNewIUUUOofPecpZtDXFqTuuufcft5L9eOD5-TrRJCXYxL3i4XAoeCr2GB16-jLIQNGoKm8SnU6XHXcJKjXZmm0sirNsGM8gmovly2kV8ijmB8NF8LHx3oLWpBLWoT3Nb4a8NdvRYlA8EzUEWQvRnXp1yU8R_kMsZEV-cJ1yJqhjGS7HeOUFzvNfuAQSd8tPq6vEmo24f_CVh7WYLsfNv6HZBDSuBarwMdS4-AFnMouRKYIN7ELISbhVQP3VGwIx1Hmv8AEY2qULMFSOz_0ZJP5AkhfjMNlKvHGw5vpkLMCLfGrZ4CNYmsQNWWTspnpTqrAvc2GMO4dM5QgLSWvETpfFgAlvmALyUeaWLja9gjRI7Lr7ES8MuwrAL869Pfv2LwODK-Lrae9O1Aak7G65B9G0Yw4F0Mj56cynO6nBroV4qkKP1PqXtVfHOzFeQZQ30BSJyDly-ZQVWKZHxSSV1rCfqz3Rw5O_m_7ZrDvsEdD1_FeiVmQJOTZEDe5atSPNm_duqcVu-RyUeL_SZr1jDmX9lmd-73F8x-2bkjZ0v4ECftJNUHJB6w4szWprBJ2Z0iu3wAKGocc5R5MXT5-z6EObxjwogJp69cHENB6t1Bq79ZLZiS9rF1xgE9OYZaChXORYsgXmDXfx32MRwvnqG37Eo7GqT7y8iYr3gMD3KRvGBo9CciunTolO6EGLttibllRGfhV2xwjJ6-E8vQopPeqLtaDsh1ypf6vjdr6V7z0DTUxyDPnpZiuw13drYNrnOwwm--dw_TZ_I8aN96LxrUPTSQ9ASiAxDop7b7HeHBhkjL_eH-xLLvJLn8hnTqVO3wE55GpgnfcxWkDq14VLx8yNS7SjLhoZlwsw2HTuHTbMKthbwBELq9djPwowwkoqxj1Z4wNJTWtN_CQcsl9jW9fN8AdT1eZ87_0G00?></g></svg>