<svg xmlns="http://www.w3.org/2000/svg" xmlns:xlink="http://www.w3.org/1999/xlink" contentStyleType="text/css" data-diagram-type="ACTIVITY" height="492px" preserveAspectRatio="none" style="width:749px;height:492px;" version="1.1" viewBox="0 0 749 492" width="749px" zoomAndPan="magnify"><?plantuml 1.2026.6?><defs/><g><g class="title" data-source-line="254"><text fill="#000000" font-family="'sans-serif'" font-size="22" font-weight="700" lengthAdjust="spacing" textLength="244.4385" x="251.6055" y="36.2695">Unified Input Routing</text></g><ellipse cx="239.0908" cy="66.9102" fill="#FFFFFF" rx="10" ry="10" style="stroke:#000000;stroke-width:1;"/><rect fill="#FFFFFF" height="34.1328" rx="12.5" ry="12.5" style="stroke:#000000;stroke-width:1;" width="80.2285" x="198.9765" y="96.9102"/><text fill="#000000" font-family="'sans-serif'" font-size="12" lengthAdjust="spacing" textLength="60.2285" x="208.9765" y="118.5117">User input</text><polygon fill="#FFFFFF" points="180.3901,151.043,297.7914,151.043,309.7914,163.043,297.7914,175.043,180.3901,175.043,168.3901,163.043,180.3901,151.043" style="stroke:#000000;stroke-width:1;stroke-linejoin:miter;stroke-miterlimit:10;"/><text fill="#000000" font-family="'sans-serif'" font-size="11" lengthAdjust="spacing" textLength="117.4014" x="180.3901" y="167.2002">Registered command?</text><text fill="#000000" font-family="'sans-serif'" font-size="11" lengthAdjust="spacing" textLength="17.4829" x="150.9072" y="160.7227">yes</text><text fill="#000000" font-family="'sans-serif'" font-size="11" lengthAdjust="spacing" textLength="13.5835" x="309.7914" y="160.7227">no</text><rect fill="#FFFFFF" height="34.1328" rx="12.5" ry="12.5" style="stroke:#000000;stroke-width:1;" width="142.1387" x="22.7715" y="185.043"/><text fill="#000000" font-family="'sans-serif'" font-size="12" lengthAdjust="spacing" textLength="122.1387" x="32.7715" y="206.6445">CommandDispatcher</text><rect fill="#FFFFFF" height="34.1328" rx="12.5" ry="12.5" style="stroke:#000000;stroke-width:1;" width="165.6816" x="11" y="254.1758"/><text fill="#000000" font-family="'sans-serif'" font-size="12" lengthAdjust="spacing" textLength="145.6816" x="21" y="275.7773">Stop; do not send to LLM</text><ellipse cx="93.8408" cy="334.3086" fill="none" rx="11" ry="11" style="stroke:#000000;stroke-width:1;"/><ellipse cx="93.8408" cy="334.3086" fill="#FFFFFF" rx="6" ry="6" style="stroke:#000000;stroke-width:1;"/><polygon fill="#FFFFFF" points="350.3336,185.043,418.3478,185.043,430.3478,197.043,418.3478,209.043,350.3336,209.043,338.3336,197.043,350.3336,185.043" style="stroke:#000000;stroke-width:1;stroke-linejoin:miter;stroke-miterlimit:10;"/><text fill="#000000" font-family="'sans-serif'" font-size="11" lengthAdjust="spacing" textLength="68.0142" x="350.3336" y="201.2002">Starts with !?</text><text fill="#000000" font-family="'sans-serif'" font-size="11" lengthAdjust="spacing" textLength="17.4829" x="320.8507" y="194.7227">yes</text><text fill="#000000" font-family="'sans-serif'" font-size="11" lengthAdjust="spacing" textLength="13.5835" x="430.3478" y="194.7227">no</text><rect fill="#FFFFFF" height="34.1328" rx="12.5" ry="12.5" style="stroke:#000000;stroke-width:1;" width="117.9043" x="206.6816" y="219.043"/><text fill="#000000" font-family="'sans-serif'" font-size="12" lengthAdjust="spacing" textLength="97.9043" x="216.6816" y="240.6445">Bash input mode</text><ellipse cx="265.6338" cy="299.1758" fill="none" rx="11" ry="11" style="stroke:#000000;stroke-width:1;"/><ellipse cx="265.6338" cy="299.1758" fill="#FFFFFF" rx="6" ry="6" style="stroke:#000000;stroke-width:1;"/><polygon fill="#FFFFFF" points="460.675,219.043,545.4202,219.043,557.4202,231.043,545.4202,243.043,460.675,243.043,448.675,231.043,460.675,219.043" style="stroke:#000000;stroke-width:1;stroke-linejoin:miter;stroke-miterlimit:10;"/><text fill="#000000" font-family="'sans-serif'" font-size="11" lengthAdjust="spacing" textLength="84.7451" x="460.675" y="235.2002">Skill Command?</text><text fill="#000000" font-family="'sans-serif'" font-size="11" lengthAdjust="spacing" textLength="17.4829" x="431.1921" y="228.7227">yes</text><text fill="#000000" font-family="'sans-serif'" font-size="11" lengthAdjust="spacing" textLength="13.5835" x="557.4202" y="228.7227">no</text><rect fill="#FFFFFF" height="34.1328" rx="12.5" ry="12.5" style="stroke:#000000;stroke-width:1;" width="90.7227" x="354.5859" y="253.043"/><text fill="#000000" font-family="'sans-serif'" font-size="12" lengthAdjust="spacing" textLength="70.7227" x="364.5859" y="274.6445">Expand Skill</text><polygon fill="#FFFFFF" points="557.8779,253.043,654.418,253.043,666.418,265.043,654.418,277.043,557.8779,277.043,545.8779,265.043,557.8779,253.043" style="stroke:#000000;stroke-width:1;stroke-linejoin:miter;stroke-miterlimit:10;"/><text fill="#000000" font-family="'sans-serif'" font-size="11" lengthAdjust="spacing" textLength="96.54" x="557.8779" y="269.2002">Prompt Template?</text><text fill="#000000" font-family="'sans-serif'" font-size="11" lengthAdjust="spacing" textLength="17.4829" x="528.395" y="262.7227">yes</text><text fill="#000000" font-family="'sans-serif'" font-size="11" lengthAdjust="spacing" textLength="13.5835" x="666.418" y="262.7227">no</text><rect fill="#FFFFFF" height="34.1328" rx="12.5" ry="12.5" style="stroke:#000000;stroke-width:1;" width="121.1387" x="475.3086" y="287.043"/><text fill="#000000" font-family="'sans-serif'" font-size="12" lengthAdjust="spacing" textLength="101.1387" x="485.3086" y="308.6445">Expand Template</text><rect fill="#FFFFFF" height="34.1328" rx="12.5" ry="12.5" style="stroke:#000000;stroke-width:1;" width="116.4629" x="618.1865" y="287.043"/><text fill="#000000" font-family="'sans-serif'" font-size="12" lengthAdjust="spacing" textLength="96.4629" x="628.1865" y="308.6445">Ordinary Prompt</text><polygon fill="#FFFFFF" points="606.1479,327.1758,618.1479,339.1758,606.1479,351.1758,594.1479,339.1758,606.1479,327.1758" style="stroke:#000000;stroke-width:1;stroke-linejoin:miter;stroke-miterlimit:10;"/><polygon fill="#FFFFFF" points="503.0476,357.1758,515.0476,369.1758,503.0476,381.1758,491.0476,369.1758,503.0476,357.1758" style="stroke:#000000;stroke-width:1;stroke-linejoin:miter;stroke-miterlimit:10;"/><rect fill="#FFFFFF" height="34.1328" rx="12.5" ry="12.5" style="stroke:#000000;stroke-width:1;" width="54.3828" x="475.8562" y="401.1758"/><text fill="#000000" font-family="'sans-serif'" font-size="12" lengthAdjust="spacing" textLength="34.3828" x="485.8562" y="422.7773">Agent</text><ellipse cx="503.0476" cy="466.3086" fill="none" rx="11" ry="11" style="stroke:#000000;stroke-width:1;"/><ellipse cx="503.0476" cy="466.3086" fill="#FFFFFF" rx="6" ry="6" style="stroke:#000000;stroke-width:1;"/><line style="stroke:#000000;stroke-width:1;" x1="239.0908" x2="239.0908" y1="76.9102" y2="96.9102"/><polygon fill="#000000" points="235.0908,86.9102,239.0908,96.9102,243.0908,86.9102,239.0908,90.9102" style="stroke:#000000;stroke-width:1;stroke-linejoin:miter;stroke-miterlimit:10;"/><line style="stroke:#000000;stroke-width:1;" x1="93.8408" x2="93.8408" y1="219.1758" y2="254.1758"/><polygon fill="#000000" points="89.8408,244.1758,93.8408,254.1758,97.8408,244.1758,93.8408,248.1758" style="stroke:#000000;stroke-width:1;stroke-linejoin:miter;stroke-miterlimit:10;"/><line style="stroke:#000000;stroke-width:1;" x1="93.8408" x2="93.8408" y1="288.3086" y2="323.3086"/><polygon fill="#000000" points="89.8408,313.3086,93.8408,323.3086,97.8408,313.3086,93.8408,317.3086" style="stroke:#000000;stroke-width:1;stroke-linejoin:miter;stroke-miterlimit:10;"/><line style="stroke:#000000;stroke-width:1;" x1="265.6338" x2="265.6338" y1="253.1758" y2="288.1758"/><polygon fill="#000000" points="261.6338,278.1758,265.6338,288.1758,269.6338,278.1758,265.6338,282.1758" style="stroke:#000000;stroke-width:1;stroke-linejoin:miter;stroke-miterlimit:10;"/><line style="stroke:#000000;stroke-width:1;" x1="545.8779" x2="535.8779" y1="265.043" y2="265.043"/><line style="stroke:#000000;stroke-width:1;" x1="535.8779" x2="535.8779" y1="265.043" y2="287.043"/><polygon fill="#000000" points="531.8779,277.043,535.8779,287.043,539.8779,277.043,535.8779,281.043" style="stroke:#000000;stroke-width:1;stroke-linejoin:miter;stroke-miterlimit:10;"/><line style="stroke:#000000;stroke-width:1;" x1="666.418" x2="676.418" y1="265.043" y2="265.043"/><line style="stroke:#000000;stroke-width:1;" x1="676.418" x2="676.418" y1="265.043" y2="287.043"/><polygon fill="#000000" points="672.418,277.043,676.418,287.043,680.418,277.043,676.418,281.043" style="stroke:#000000;stroke-width:1;stroke-linejoin:miter;stroke-miterlimit:10;"/><line style="stroke:#000000;stroke-width:1;" x1="535.8779" x2="535.8779" y1="321.1758" y2="339.1758"/><line style="stroke:#000000;stroke-width:1;" x1="535.8779" x2="594.1479" y1="339.1758" y2="339.1758"/><polygon fill="#000000" points="584.1479,335.1758,594.1479,339.1758,584.1479,343.1758,588.1479,339.1758" style="stroke:#000000;stroke-width:1;stroke-linejoin:miter;stroke-miterlimit:10;"/><line style="stroke:#000000;stroke-width:1;" x1="676.418" x2="676.418" y1="321.1758" y2="339.1758"/><line style="stroke:#000000;stroke-width:1;" x1="676.418" x2="618.1479" y1="339.1758" y2="339.1758"/><polygon fill="#000000" points="628.1479,335.1758,618.1479,339.1758,628.1479,343.1758,624.1479,339.1758" style="stroke:#000000;stroke-width:1;stroke-linejoin:miter;stroke-miterlimit:10;"/><line style="stroke:#000000;stroke-width:1;" x1="448.675" x2="399.9473" y1="231.043" y2="231.043"/><line style="stroke:#000000;stroke-width:1;" x1="399.9473" x2="399.9473" y1="231.043" y2="253.043"/><polygon fill="#000000" points="395.9473,243.043,399.9473,253.043,403.9473,243.043,399.9473,247.043" style="stroke:#000000;stroke-width:1;stroke-linejoin:miter;stroke-miterlimit:10;"/><line style="stroke:#000000;stroke-width:1;" x1="557.4202" x2="606.1479" y1="231.043" y2="231.043"/><line style="stroke:#000000;stroke-width:1;" x1="606.1479" x2="606.1479" y1="231.043" y2="253.043"/><polygon fill="#000000" points="602.1479,243.043,606.1479,253.043,610.1479,243.043,606.1479,247.043" style="stroke:#000000;stroke-width:1;stroke-linejoin:miter;stroke-miterlimit:10;"/><line style="stroke:#000000;stroke-width:1;" x1="399.9473" x2="399.9473" y1="287.1758" y2="369.1758"/><line style="stroke:#000000;stroke-width:1;" x1="399.9473" x2="491.0476" y1="369.1758" y2="369.1758"/><polygon fill="#000000" points="481.0476,365.1758,491.0476,369.1758,481.0476,373.1758,485.0476,369.1758" style="stroke:#000000;stroke-width:1;stroke-linejoin:miter;stroke-miterlimit:10;"/><line style="stroke:#000000;stroke-width:1;" x1="606.1479" x2="606.1479" y1="351.1758" y2="369.1758"/><line style="stroke:#000000;stroke-width:1;" x1="606.1479" x2="515.0476" y1="369.1758" y2="369.1758"/><polygon fill="#000000" points="525.0476,365.1758,515.0476,369.1758,525.0476,373.1758,521.0476,369.1758" style="stroke:#000000;stroke-width:1;stroke-linejoin:miter;stroke-miterlimit:10;"/><line style="stroke:#000000;stroke-width:1;" x1="503.0476" x2="503.0476" y1="381.1758" y2="401.1758"/><polygon fill="#000000" points="499.0476,391.1758,503.0476,401.1758,507.0476,391.1758,503.0476,395.1758" style="stroke:#000000;stroke-width:1;stroke-linejoin:miter;stroke-miterlimit:10;"/><line style="stroke:#000000;stroke-width:1;" x1="503.0476" x2="503.0476" y1="435.3086" y2="455.3086"/><polygon fill="#000000" points="499.0476,445.3086,503.0476,455.3086,507.0476,445.3086,503.0476,449.3086" style="stroke:#000000;stroke-width:1;stroke-linejoin:miter;stroke-miterlimit:10;"/><line style="stroke:#000000;stroke-width:1;" x1="338.3336" x2="265.6338" y1="197.043" y2="197.043"/><line style="stroke:#000000;stroke-width:1;" x1="265.6338" x2="265.6338" y1="197.043" y2="219.043"/><polygon fill="#000000" points="261.6338,209.043,265.6338,219.043,269.6338,209.043,265.6338,213.043" style="stroke:#000000;stroke-width:1;stroke-linejoin:miter;stroke-miterlimit:10;"/><line style="stroke:#000000;stroke-width:1;" x1="430.3478" x2="503.0476" y1="197.043" y2="197.043"/><line style="stroke:#000000;stroke-width:1;" x1="503.0476" x2="503.0476" y1="197.043" y2="219.043"/><polygon fill="#000000" points="499.0476,209.043,503.0476,219.043,507.0476,209.043,503.0476,213.043" style="stroke:#000000;stroke-width:1;stroke-linejoin:miter;stroke-miterlimit:10;"/><line style="stroke:#000000;stroke-width:1;" x1="168.3901" x2="93.8408" y1="163.043" y2="163.043"/><line style="stroke:#000000;stroke-width:1;" x1="93.8408" x2="93.8408" y1="163.043" y2="185.043"/><polygon fill="#000000" points="89.8408,175.043,93.8408,185.043,97.8408,175.043,93.8408,179.043" style="stroke:#000000;stroke-width:1;stroke-linejoin:miter;stroke-miterlimit:10;"/><line style="stroke:#000000;stroke-width:1;" x1="309.7914" x2="384.3407" y1="163.043" y2="163.043"/><line style="stroke:#000000;stroke-width:1;" x1="384.3407" x2="384.3407" y1="163.043" y2="185.043"/><polygon fill="#000000" points="380.3407,175.043,384.3407,185.043,388.3407,175.043,384.3407,179.043" style="stroke:#000000;stroke-width:1;stroke-linejoin:miter;stroke-miterlimit:10;"/><line style="stroke:#000000;stroke-width:1;" x1="239.0908" x2="239.0908" y1="131.043" y2="151.043"/><polygon fill="#000000" points="235.0908,141.043,239.0908,151.043,243.0908,141.043,239.0908,145.043" style="stroke:#000000;stroke-width:1;stroke-linejoin:miter;stroke-miterlimit:10;"/><?plantuml-src RLDTRzim37pNhs3wqXJ81rgi660_36kw0GEwTMZM7y3Oj4t4bWI9JfP_FyfEkoJeYo7mJiSxYhu6pn1T7mhAm6EnnPhYid0bstgkPolB68fbvqejinKAM0ZlwFGyJ-X2OdPt_-bsVlVvzjvSm_CcKjXH2HjgSCSkPF3GSojpjb2uhaDRHWYzLRnoWU01OpE3zPRRTWQ_W-kym1_gV8j2Cr0skA2cC1p0ZsYZnLPjBhJR8qMkBGJ2wAm62JHqJ-62wqLPMbCJB0VODzoIKbMwIC3HpTnYHx09Q8k68knP6YNL74LRjivjUxym4sb8MNgLhPduW7M7qE91Uq3iID2YYLks7WDsK5A5VIlVdPLVIVngZJQkAN1rTSAA3PPkdvnKs4OwGJRw7hNwj-NAjIw0gBceaBwA4HPDyMgvOXto3-lLmSiOrPWe6CHahpe4u0JbXYkOlWnnAEY5O-WlDw29B4mF56yCGBOQwu-iVKG74V9KNOlpEPGEhDESf8yX3fwUVYOmAcP8ZSFKkgIHEgsJWUCG9vTDL32zzkWCqlBaGtLG0ZZLEggbhO3LnvO7lMz_VLgHWJYAdQkCEXThzP7IVwqtLdv4BWML-VosaQFmEzEMN9dpK_Or_KldEGTm-Fu3?></g></svg>