<svg xmlns="http://www.w3.org/2000/svg" xmlns:xlink="http://www.w3.org/1999/xlink" contentStyleType="text/css" data-diagram-type="ACTIVITY" height="492px" preserveAspectRatio="none" style="width:742px;height:492px;" version="1.1" viewBox="0 0 742 492" width="742px" zoomAndPan="magnify"><?plantuml 1.2026.6?><defs/><g><g class="title" data-source-line="265"><text fill="#000000" font-family="'sans-serif'" font-size="22" font-weight="700" lengthAdjust="spacing" textLength="244.4385" x="247.9639" y="36.2695">Unified Input Routing</text></g><ellipse cx="233.6284" cy="66.9102" fill="#FFFFFF" rx="10" ry="10" style="stroke:#000000;stroke-width:1;"/><rect fill="#FFFFFF" height="34.1328" rx="12.5" ry="12.5" style="stroke:#000000;stroke-width:1;" width="80.2285" x="193.5141" y="96.9102"/><text fill="#000000" font-family="'sans-serif'" font-size="12" lengthAdjust="spacing" textLength="60.2285" x="203.5141" y="118.5117">User input</text><polygon fill="#FFFFFF" points="174.9277,151.043,292.329,151.043,304.329,163.043,292.329,175.043,174.9277,175.043,162.9277,163.043,174.9277,151.043" style="stroke:#000000;stroke-width:1;stroke-linejoin:miter;stroke-miterlimit:10;"/><text fill="#000000" font-family="'sans-serif'" font-size="11" lengthAdjust="spacing" textLength="117.4014" x="174.9277" y="167.2002">Registered command?</text><text fill="#000000" font-family="'sans-serif'" font-size="11" lengthAdjust="spacing" textLength="17.4829" x="145.4448" y="160.7227">yes</text><text fill="#000000" font-family="'sans-serif'" font-size="11" lengthAdjust="spacing" textLength="13.5835" x="304.329" y="160.7227">no</text><rect fill="#FFFFFF" height="34.1328" rx="12.5" ry="12.5" style="stroke:#000000;stroke-width:1;" width="142.1387" x="19.1299" y="185.043"/><text fill="#000000" font-family="'sans-serif'" font-size="12" lengthAdjust="spacing" textLength="122.1387" x="29.1299" y="206.6445">CommandDispatcher</text><rect fill="#FFFFFF" height="48.2656" rx="12.5" ry="12.5" style="stroke:#000000;stroke-width:1;" width="158.3984" x="11" y="254.1758"/><text fill="#000000" font-family="'sans-serif'" font-size="12" lengthAdjust="spacing" textLength="136.8281" x="21" y="275.7773">Return command result</text><text fill="#000000" font-family="'sans-serif'" font-size="12" lengthAdjust="spacing" textLength="138.3984" x="21" y="289.9102">and finish input routing</text><ellipse cx="90.1992" cy="348.4414" fill="none" rx="11" ry="11" style="stroke:#000000;stroke-width:1;"/><ellipse cx="90.1992" cy="348.4414" fill="#FFFFFF" rx="6" ry="6" style="stroke:#000000;stroke-width:1;"/><polygon fill="#FFFFFF" points="343.0504,185.043,411.0646,185.043,423.0646,197.043,411.0646,209.043,343.0504,209.043,331.0504,197.043,343.0504,185.043" style="stroke:#000000;stroke-width:1;stroke-linejoin:miter;stroke-miterlimit:10;"/><text fill="#000000" font-family="'sans-serif'" font-size="11" lengthAdjust="spacing" textLength="68.0142" x="343.0504" y="201.2002">Starts with !?</text><text fill="#000000" font-family="'sans-serif'" font-size="11" lengthAdjust="spacing" textLength="17.4829" x="313.5675" y="194.7227">yes</text><text fill="#000000" font-family="'sans-serif'" font-size="11" lengthAdjust="spacing" textLength="13.5835" x="423.0646" y="194.7227">no</text><rect fill="#FFFFFF" height="34.1328" rx="12.5" ry="12.5" style="stroke:#000000;stroke-width:1;" width="117.9043" x="199.3984" y="219.043"/><text fill="#000000" font-family="'sans-serif'" font-size="12" lengthAdjust="spacing" textLength="97.9043" x="209.3984" y="240.6445">Bash input mode</text><ellipse cx="258.3506" cy="299.1758" fill="none" rx="11" ry="11" style="stroke:#000000;stroke-width:1;"/><ellipse cx="258.3506" cy="299.1758" fill="#FFFFFF" rx="6" ry="6" style="stroke:#000000;stroke-width:1;"/><polygon fill="#FFFFFF" points="453.3918,219.043,538.137,219.043,550.137,231.043,538.137,243.043,453.3918,243.043,441.3918,231.043,453.3918,219.043" style="stroke:#000000;stroke-width:1;stroke-linejoin:miter;stroke-miterlimit:10;"/><text fill="#000000" font-family="'sans-serif'" font-size="11" lengthAdjust="spacing" textLength="84.7451" x="453.3918" y="235.2002">Skill Command?</text><text fill="#000000" font-family="'sans-serif'" font-size="11" lengthAdjust="spacing" textLength="17.4829" x="423.9089" y="228.7227">yes</text><text fill="#000000" font-family="'sans-serif'" font-size="11" lengthAdjust="spacing" textLength="13.5835" x="550.137" y="228.7227">no</text><rect fill="#FFFFFF" height="34.1328" rx="12.5" ry="12.5" style="stroke:#000000;stroke-width:1;" width="90.7227" x="347.3027" y="253.043"/><text fill="#000000" font-family="'sans-serif'" font-size="12" lengthAdjust="spacing" textLength="70.7227" x="357.3027" y="274.6445">Expand Skill</text><polygon fill="#FFFFFF" points="550.5947,253.043,647.1348,253.043,659.1348,265.043,647.1348,277.043,550.5947,277.043,538.5947,265.043,550.5947,253.043" style="stroke:#000000;stroke-width:1;stroke-linejoin:miter;stroke-miterlimit:10;"/><text fill="#000000" font-family="'sans-serif'" font-size="11" lengthAdjust="spacing" textLength="96.54" x="550.5947" y="269.2002">Prompt Template?</text><text fill="#000000" font-family="'sans-serif'" font-size="11" lengthAdjust="spacing" textLength="17.4829" x="521.1118" y="262.7227">yes</text><text fill="#000000" font-family="'sans-serif'" font-size="11" lengthAdjust="spacing" textLength="13.5835" x="659.1348" y="262.7227">no</text><rect fill="#FFFFFF" height="34.1328" rx="12.5" ry="12.5" style="stroke:#000000;stroke-width:1;" width="121.1387" x="468.0254" y="287.043"/><text fill="#000000" font-family="'sans-serif'" font-size="12" lengthAdjust="spacing" textLength="101.1387" x="478.0254" y="308.6445">Expand Template</text><rect fill="#FFFFFF" height="34.1328" rx="12.5" ry="12.5" style="stroke:#000000;stroke-width:1;" width="116.4629" x="610.9033" y="287.043"/><text fill="#000000" font-family="'sans-serif'" font-size="12" lengthAdjust="spacing" textLength="96.4629" x="620.9033" y="308.6445">Ordinary Prompt</text><polygon fill="#FFFFFF" points="598.8647,327.1758,610.8647,339.1758,598.8647,351.1758,586.8647,339.1758,598.8647,327.1758" style="stroke:#000000;stroke-width:1;stroke-linejoin:miter;stroke-miterlimit:10;"/><polygon fill="#FFFFFF" points="495.7644,357.1758,507.7644,369.1758,495.7644,381.1758,483.7644,369.1758,495.7644,357.1758" style="stroke:#000000;stroke-width:1;stroke-linejoin:miter;stroke-miterlimit:10;"/><rect fill="#FFFFFF" height="34.1328" rx="12.5" ry="12.5" style="stroke:#000000;stroke-width:1;" width="54.3828" x="468.573" y="401.1758"/><text fill="#000000" font-family="'sans-serif'" font-size="12" lengthAdjust="spacing" textLength="34.3828" x="478.573" y="422.7773">Agent</text><ellipse cx="495.7644" cy="466.3086" fill="none" rx="11" ry="11" style="stroke:#000000;stroke-width:1;"/><ellipse cx="495.7644" cy="466.3086" fill="#FFFFFF" rx="6" ry="6" style="stroke:#000000;stroke-width:1;"/><line style="stroke:#000000;stroke-width:1;" x1="233.6284" x2="233.6284" y1="76.9102" y2="96.9102"/><polygon fill="#000000" points="229.6284,86.9102,233.6284,96.9102,237.6284,86.9102,233.6284,90.9102" style="stroke:#000000;stroke-width:1;stroke-linejoin:miter;stroke-miterlimit:10;"/><line style="stroke:#000000;stroke-width:1;" x1="90.1992" x2="90.1992" y1="219.1758" y2="254.1758"/><polygon fill="#000000" points="86.1992,244.1758,90.1992,254.1758,94.1992,244.1758,90.1992,248.1758" style="stroke:#000000;stroke-width:1;stroke-linejoin:miter;stroke-miterlimit:10;"/><line style="stroke:#000000;stroke-width:1;" x1="90.1992" x2="90.1992" y1="302.4414" y2="337.4414"/><polygon fill="#000000" points="86.1992,327.4414,90.1992,337.4414,94.1992,327.4414,90.1992,331.4414" style="stroke:#000000;stroke-width:1;stroke-linejoin:miter;stroke-miterlimit:10;"/><line style="stroke:#000000;stroke-width:1;" x1="258.3506" x2="258.3506" y1="253.1758" y2="288.1758"/><polygon fill="#000000" points="254.3506,278.1758,258.3506,288.1758,262.3506,278.1758,258.3506,282.1758" style="stroke:#000000;stroke-width:1;stroke-linejoin:miter;stroke-miterlimit:10;"/><line style="stroke:#000000;stroke-width:1;" x1="538.5947" x2="528.5947" y1="265.043" y2="265.043"/><line style="stroke:#000000;stroke-width:1;" x1="528.5947" x2="528.5947" y1="265.043" y2="287.043"/><polygon fill="#000000" points="524.5947,277.043,528.5947,287.043,532.5947,277.043,528.5947,281.043" style="stroke:#000000;stroke-width:1;stroke-linejoin:miter;stroke-miterlimit:10;"/><line style="stroke:#000000;stroke-width:1;" x1="659.1348" x2="669.1348" y1="265.043" y2="265.043"/><line style="stroke:#000000;stroke-width:1;" x1="669.1348" x2="669.1348" y1="265.043" y2="287.043"/><polygon fill="#000000" points="665.1348,277.043,669.1348,287.043,673.1348,277.043,669.1348,281.043" style="stroke:#000000;stroke-width:1;stroke-linejoin:miter;stroke-miterlimit:10;"/><line style="stroke:#000000;stroke-width:1;" x1="528.5947" x2="528.5947" y1="321.1758" y2="339.1758"/><line style="stroke:#000000;stroke-width:1;" x1="528.5947" x2="586.8647" y1="339.1758" y2="339.1758"/><polygon fill="#000000" points="576.8647,335.1758,586.8647,339.1758,576.8647,343.1758,580.8647,339.1758" style="stroke:#000000;stroke-width:1;stroke-linejoin:miter;stroke-miterlimit:10;"/><line style="stroke:#000000;stroke-width:1;" x1="669.1348" x2="669.1348" y1="321.1758" y2="339.1758"/><line style="stroke:#000000;stroke-width:1;" x1="669.1348" x2="610.8647" y1="339.1758" y2="339.1758"/><polygon fill="#000000" points="620.8647,335.1758,610.8647,339.1758,620.8647,343.1758,616.8647,339.1758" style="stroke:#000000;stroke-width:1;stroke-linejoin:miter;stroke-miterlimit:10;"/><line style="stroke:#000000;stroke-width:1;" x1="441.3918" x2="392.6641" y1="231.043" y2="231.043"/><line style="stroke:#000000;stroke-width:1;" x1="392.6641" x2="392.6641" y1="231.043" y2="253.043"/><polygon fill="#000000" points="388.6641,243.043,392.6641,253.043,396.6641,243.043,392.6641,247.043" style="stroke:#000000;stroke-width:1;stroke-linejoin:miter;stroke-miterlimit:10;"/><line style="stroke:#000000;stroke-width:1;" x1="550.137" x2="598.8647" y1="231.043" y2="231.043"/><line style="stroke:#000000;stroke-width:1;" x1="598.8647" x2="598.8647" y1="231.043" y2="253.043"/><polygon fill="#000000" points="594.8647,243.043,598.8647,253.043,602.8647,243.043,598.8647,247.043" style="stroke:#000000;stroke-width:1;stroke-linejoin:miter;stroke-miterlimit:10;"/><line style="stroke:#000000;stroke-width:1;" x1="392.6641" x2="392.6641" y1="287.1758" y2="369.1758"/><line style="stroke:#000000;stroke-width:1;" x1="392.6641" x2="483.7644" y1="369.1758" y2="369.1758"/><polygon fill="#000000" points="473.7644,365.1758,483.7644,369.1758,473.7644,373.1758,477.7644,369.1758" style="stroke:#000000;stroke-width:1;stroke-linejoin:miter;stroke-miterlimit:10;"/><line style="stroke:#000000;stroke-width:1;" x1="598.8647" x2="598.8647" y1="351.1758" y2="369.1758"/><line style="stroke:#000000;stroke-width:1;" x1="598.8647" x2="507.7644" y1="369.1758" y2="369.1758"/><polygon fill="#000000" points="517.7644,365.1758,507.7644,369.1758,517.7644,373.1758,513.7644,369.1758" style="stroke:#000000;stroke-width:1;stroke-linejoin:miter;stroke-miterlimit:10;"/><line style="stroke:#000000;stroke-width:1;" x1="495.7644" x2="495.7644" y1="381.1758" y2="401.1758"/><polygon fill="#000000" points="491.7644,391.1758,495.7644,401.1758,499.7644,391.1758,495.7644,395.1758" style="stroke:#000000;stroke-width:1;stroke-linejoin:miter;stroke-miterlimit:10;"/><line style="stroke:#000000;stroke-width:1;" x1="495.7644" x2="495.7644" y1="435.3086" y2="455.3086"/><polygon fill="#000000" points="491.7644,445.3086,495.7644,455.3086,499.7644,445.3086,495.7644,449.3086" style="stroke:#000000;stroke-width:1;stroke-linejoin:miter;stroke-miterlimit:10;"/><line style="stroke:#000000;stroke-width:1;" x1="331.0504" x2="258.3506" y1="197.043" y2="197.043"/><line style="stroke:#000000;stroke-width:1;" x1="258.3506" x2="258.3506" y1="197.043" y2="219.043"/><polygon fill="#000000" points="254.3506,209.043,258.3506,219.043,262.3506,209.043,258.3506,213.043" style="stroke:#000000;stroke-width:1;stroke-linejoin:miter;stroke-miterlimit:10;"/><line style="stroke:#000000;stroke-width:1;" x1="423.0646" x2="495.7644" y1="197.043" y2="197.043"/><line style="stroke:#000000;stroke-width:1;" x1="495.7644" x2="495.7644" y1="197.043" y2="219.043"/><polygon fill="#000000" points="491.7644,209.043,495.7644,219.043,499.7644,209.043,495.7644,213.043" style="stroke:#000000;stroke-width:1;stroke-linejoin:miter;stroke-miterlimit:10;"/><line style="stroke:#000000;stroke-width:1;" x1="162.9277" x2="90.1992" y1="163.043" y2="163.043"/><line style="stroke:#000000;stroke-width:1;" x1="90.1992" x2="90.1992" y1="163.043" y2="185.043"/><polygon fill="#000000" points="86.1992,175.043,90.1992,185.043,94.1992,175.043,90.1992,179.043" style="stroke:#000000;stroke-width:1;stroke-linejoin:miter;stroke-miterlimit:10;"/><line style="stroke:#000000;stroke-width:1;" x1="304.329" x2="377.0575" y1="163.043" y2="163.043"/><line style="stroke:#000000;stroke-width:1;" x1="377.0575" x2="377.0575" y1="163.043" y2="185.043"/><polygon fill="#000000" points="373.0575,175.043,377.0575,185.043,381.0575,175.043,377.0575,179.043" style="stroke:#000000;stroke-width:1;stroke-linejoin:miter;stroke-miterlimit:10;"/><line style="stroke:#000000;stroke-width:1;" x1="233.6284" x2="233.6284" y1="131.043" y2="151.043"/><polygon fill="#000000" points="229.6284,141.043,233.6284,151.043,237.6284,141.043,233.6284,145.043" style="stroke:#000000;stroke-width:1;stroke-linejoin:miter;stroke-miterlimit:10;"/><?plantuml-src RLDDRzim3BthLp2zD0NoWHOh1ZY7OKqtO9TrQDRRBenDsqHiIf3aPFdtesodIu9U387lwV4zYhu5nn1ivtFAm66-muh2ChS5IpNNiyHbyFcojOMMMI9vp2FlwVmyJ-WYXkpXyTFz_E7p_QEvXPTj8B-d0hPKuvwjp-2fuoREMI2tROjI1F2TA5vQJ_24ePx1PiTDCuDVthOkmczgNOEHPg1ii5vDeJ-26z1QYutQN6YtPmfS2NZ2O4M3UEgxft3UTb5PMbCJ78zmgBaXfQfqde3HpLom9TXwbBoc00UEjP8g3b5RDjRkEhSmarYJilGgYvauZrMBqE1HUq1eAQAW2JiMXnvRAAZ4hedVhSIVIVncWn8svBcyEME56WjxI4vAR0AT8LjzZqhzIx6sZVKGrLnGI5_5H8wQuasuP1to3t7gu7M8Qao8wAF9tdG8m0bQ6IvX-jh78QyNnj1Vxa0J2KoF5EuCGBOUwi-iVQ8EmgzIzPLYvz_VJSSIDDOVIUUIXKCzT3dDEjq9qJf3cWUcOfDqCh19liRPJgvxQv-q1ADKsgbLN-sL0CwrHhMqBB3-E4clz-slInvxuY1sgJBeN6tRHqh_jKwirOXS2ohpvRIeW_0xKmekpUKf-vf-iSkSFTX__m40?></g></svg>