<svg xmlns="http://www.w3.org/2000/svg" xmlns:xlink="http://www.w3.org/1999/xlink" contentStyleType="text/css" data-diagram-type="ACTIVITY" height="470px" preserveAspectRatio="none" style="width:594px;height:470px;" version="1.1" viewBox="0 0 594 470" width="594px" zoomAndPan="magnify"><?plantuml 1.2026.6?><defs/><g><g class="title" data-source-line="275"><text fill="#000000" font-family="'sans-serif'" font-size="22" font-weight="700" lengthAdjust="spacing" textLength="258.167" x="167.1475" y="36.2695">Java GUI Input Routing</text></g><ellipse cx="219.0297" cy="66.9102" fill="#FFFFFF" rx="10" ry="10" style="stroke:#000000;stroke-width:1;"/><rect fill="#FFFFFF" height="34.1328" rx="12.5" ry="12.5" style="stroke:#000000;stroke-width:1;" width="101.4629" x="168.2982" y="96.9102"/><text fill="#000000" font-family="'sans-serif'" font-size="12" lengthAdjust="spacing" textLength="81.4629" x="178.2982" y="118.5117">GUI text input</text><polygon fill="#FFFFFF" points="160.329,151.043,277.7303,151.043,289.7303,163.043,277.7303,175.043,160.329,175.043,148.329,163.043,160.329,151.043" style="stroke:#000000;stroke-width:1;stroke-linejoin:miter;stroke-miterlimit:10;"/><text fill="#000000" font-family="'sans-serif'" font-size="11" lengthAdjust="spacing" textLength="117.4014" x="160.329" y="167.2002">Registered command?</text><text fill="#000000" font-family="'sans-serif'" font-size="11" lengthAdjust="spacing" textLength="17.4829" x="130.8461" y="160.7227">yes</text><text fill="#000000" font-family="'sans-serif'" font-size="11" lengthAdjust="spacing" textLength="13.5835" x="289.7303" y="160.7227">no</text><rect fill="#FFFFFF" height="34.1328" rx="12.5" ry="12.5" style="stroke:#000000;stroke-width:1;" width="142.1387" x="19.1299" y="185.043"/><text fill="#000000" font-family="'sans-serif'" font-size="12" lengthAdjust="spacing" textLength="122.1387" x="29.1299" y="206.6445">CommandDispatcher</text><rect fill="#FFFFFF" height="48.2656" rx="12.5" ry="12.5" style="stroke:#000000;stroke-width:1;" width="158.3984" x="11" y="254.1758"/><text fill="#000000" font-family="'sans-serif'" font-size="12" lengthAdjust="spacing" textLength="136.8281" x="21" y="275.7773">Return command result</text><text fill="#000000" font-family="'sans-serif'" font-size="12" lengthAdjust="spacing" textLength="138.3984" x="21" y="289.9102">and finish input routing</text><ellipse cx="90.1992" cy="348.4414" fill="none" rx="11" ry="11" style="stroke:#000000;stroke-width:1;"/><ellipse cx="90.1992" cy="348.4414" fill="#FFFFFF" rx="6" ry="6" style="stroke:#000000;stroke-width:1;"/><polygon fill="#FFFFFF" points="305.4875,185.043,390.2327,185.043,402.2327,197.043,390.2327,209.043,305.4875,209.043,293.4875,197.043,305.4875,185.043" style="stroke:#000000;stroke-width:1;stroke-linejoin:miter;stroke-miterlimit:10;"/><text fill="#000000" font-family="'sans-serif'" font-size="11" lengthAdjust="spacing" textLength="84.7451" x="305.4875" y="201.2002">Skill Command?</text><text fill="#000000" font-family="'sans-serif'" font-size="11" lengthAdjust="spacing" textLength="17.4829" x="276.0046" y="194.7227">yes</text><text fill="#000000" font-family="'sans-serif'" font-size="11" lengthAdjust="spacing" textLength="13.5835" x="402.2327" y="194.7227">no</text><rect fill="#FFFFFF" height="34.1328" rx="12.5" ry="12.5" style="stroke:#000000;stroke-width:1;" width="90.7227" x="199.3984" y="219.043"/><text fill="#000000" font-family="'sans-serif'" font-size="12" lengthAdjust="spacing" textLength="70.7227" x="209.3984" y="240.6445">Expand Skill</text><polygon fill="#FFFFFF" points="402.6904,219.043,499.2305,219.043,511.2305,231.043,499.2305,243.043,402.6904,243.043,390.6904,231.043,402.6904,219.043" style="stroke:#000000;stroke-width:1;stroke-linejoin:miter;stroke-miterlimit:10;"/><text fill="#000000" font-family="'sans-serif'" font-size="11" lengthAdjust="spacing" textLength="96.54" x="402.6904" y="235.2002">Prompt Template?</text><text fill="#000000" font-family="'sans-serif'" font-size="11" lengthAdjust="spacing" textLength="17.4829" x="373.2075" y="228.7227">yes</text><text fill="#000000" font-family="'sans-serif'" font-size="11" lengthAdjust="spacing" textLength="13.5835" x="511.2305" y="228.7227">no</text><rect fill="#FFFFFF" height="34.1328" rx="12.5" ry="12.5" style="stroke:#000000;stroke-width:1;" width="121.1387" x="320.1211" y="253.043"/><text fill="#000000" font-family="'sans-serif'" font-size="12" lengthAdjust="spacing" textLength="101.1387" x="330.1211" y="274.6445">Expand Template</text><rect fill="#FFFFFF" height="34.1328" rx="12.5" ry="12.5" style="stroke:#000000;stroke-width:1;" width="116.4629" x="462.999" y="253.043"/><text fill="#000000" font-family="'sans-serif'" font-size="12" lengthAdjust="spacing" textLength="96.4629" x="472.999" y="274.6445">Ordinary Prompt</text><polygon fill="#FFFFFF" points="450.9604,293.1758,462.9604,305.1758,450.9604,317.1758,438.9604,305.1758,450.9604,293.1758" style="stroke:#000000;stroke-width:1;stroke-linejoin:miter;stroke-miterlimit:10;"/><polygon fill="#FFFFFF" points="347.8601,323.1758,359.8601,335.1758,347.8601,347.1758,335.8601,335.1758,347.8601,323.1758" style="stroke:#000000;stroke-width:1;stroke-linejoin:miter;stroke-miterlimit:10;"/><rect fill="#FFFFFF" height="34.1328" rx="12.5" ry="12.5" style="stroke:#000000;stroke-width:1;" width="54.3828" x="320.6687" y="379.4414"/><text fill="#000000" font-family="'sans-serif'" font-size="12" lengthAdjust="spacing" textLength="34.3828" x="330.6687" y="401.043">Agent</text><ellipse cx="347.8601" cy="444.5742" fill="none" rx="11" ry="11" style="stroke:#000000;stroke-width:1;"/><ellipse cx="347.8601" cy="444.5742" fill="#FFFFFF" rx="6" ry="6" style="stroke:#000000;stroke-width:1;"/><line style="stroke:#000000;stroke-width:1;" x1="219.0297" x2="219.0297" y1="76.9102" y2="96.9102"/><polygon fill="#000000" points="215.0297,86.9102,219.0297,96.9102,223.0297,86.9102,219.0297,90.9102" style="stroke:#000000;stroke-width:1;stroke-linejoin:miter;stroke-miterlimit:10;"/><line style="stroke:#000000;stroke-width:1;" x1="90.1992" x2="90.1992" y1="219.1758" y2="254.1758"/><polygon fill="#000000" points="86.1992,244.1758,90.1992,254.1758,94.1992,244.1758,90.1992,248.1758" style="stroke:#000000;stroke-width:1;stroke-linejoin:miter;stroke-miterlimit:10;"/><line style="stroke:#000000;stroke-width:1;" x1="90.1992" x2="90.1992" y1="302.4414" y2="337.4414"/><polygon fill="#000000" points="86.1992,327.4414,90.1992,337.4414,94.1992,327.4414,90.1992,331.4414" style="stroke:#000000;stroke-width:1;stroke-linejoin:miter;stroke-miterlimit:10;"/><line style="stroke:#000000;stroke-width:1;" x1="390.6904" x2="380.6904" y1="231.043" y2="231.043"/><line style="stroke:#000000;stroke-width:1;" x1="380.6904" x2="380.6904" y1="231.043" y2="253.043"/><polygon fill="#000000" points="376.6904,243.043,380.6904,253.043,384.6904,243.043,380.6904,247.043" style="stroke:#000000;stroke-width:1;stroke-linejoin:miter;stroke-miterlimit:10;"/><line style="stroke:#000000;stroke-width:1;" x1="511.2305" x2="521.2305" y1="231.043" y2="231.043"/><line style="stroke:#000000;stroke-width:1;" x1="521.2305" x2="521.2305" y1="231.043" y2="253.043"/><polygon fill="#000000" points="517.2305,243.043,521.2305,253.043,525.2305,243.043,521.2305,247.043" style="stroke:#000000;stroke-width:1;stroke-linejoin:miter;stroke-miterlimit:10;"/><line style="stroke:#000000;stroke-width:1;" x1="380.6904" x2="380.6904" y1="287.1758" y2="305.1758"/><line style="stroke:#000000;stroke-width:1;" x1="380.6904" x2="438.9604" y1="305.1758" y2="305.1758"/><polygon fill="#000000" points="428.9604,301.1758,438.9604,305.1758,428.9604,309.1758,432.9604,305.1758" style="stroke:#000000;stroke-width:1;stroke-linejoin:miter;stroke-miterlimit:10;"/><line style="stroke:#000000;stroke-width:1;" x1="521.2305" x2="521.2305" y1="287.1758" y2="305.1758"/><line style="stroke:#000000;stroke-width:1;" x1="521.2305" x2="462.9604" y1="305.1758" y2="305.1758"/><polygon fill="#000000" points="472.9604,301.1758,462.9604,305.1758,472.9604,309.1758,468.9604,305.1758" style="stroke:#000000;stroke-width:1;stroke-linejoin:miter;stroke-miterlimit:10;"/><line style="stroke:#000000;stroke-width:1;" x1="293.4875" x2="244.7598" y1="197.043" y2="197.043"/><line style="stroke:#000000;stroke-width:1;" x1="244.7598" x2="244.7598" y1="197.043" y2="219.043"/><polygon fill="#000000" points="240.7598,209.043,244.7598,219.043,248.7598,209.043,244.7598,213.043" style="stroke:#000000;stroke-width:1;stroke-linejoin:miter;stroke-miterlimit:10;"/><line style="stroke:#000000;stroke-width:1;" x1="402.2327" x2="450.9604" y1="197.043" y2="197.043"/><line style="stroke:#000000;stroke-width:1;" x1="450.9604" x2="450.9604" y1="197.043" y2="219.043"/><polygon fill="#000000" points="446.9604,209.043,450.9604,219.043,454.9604,209.043,450.9604,213.043" style="stroke:#000000;stroke-width:1;stroke-linejoin:miter;stroke-miterlimit:10;"/><line style="stroke:#000000;stroke-width:1;" x1="244.7598" x2="244.7598" y1="253.1758" y2="335.1758"/><line style="stroke:#000000;stroke-width:1;" x1="244.7598" x2="335.8601" y1="335.1758" y2="335.1758"/><polygon fill="#000000" points="325.8601,331.1758,335.8601,335.1758,325.8601,339.1758,329.8601,335.1758" style="stroke:#000000;stroke-width:1;stroke-linejoin:miter;stroke-miterlimit:10;"/><line style="stroke:#000000;stroke-width:1;" x1="450.9604" x2="450.9604" y1="317.1758" y2="335.1758"/><line style="stroke:#000000;stroke-width:1;" x1="450.9604" x2="359.8601" y1="335.1758" y2="335.1758"/><polygon fill="#000000" points="369.8601,331.1758,359.8601,335.1758,369.8601,339.1758,365.8601,335.1758" style="stroke:#000000;stroke-width:1;stroke-linejoin:miter;stroke-miterlimit:10;"/><line style="stroke:#000000;stroke-width:1;" x1="347.8601" x2="347.8601" y1="347.1758" y2="379.4414"/><polygon fill="#000000" points="343.8601,369.4414,347.8601,379.4414,351.8601,369.4414,347.8601,373.4414" style="stroke:#000000;stroke-width:1;stroke-linejoin:miter;stroke-miterlimit:10;"/><line style="stroke:#000000;stroke-width:1;" x1="347.8601" x2="347.8601" y1="413.5742" y2="433.5742"/><polygon fill="#000000" points="343.8601,423.5742,347.8601,433.5742,351.8601,423.5742,347.8601,427.5742" style="stroke:#000000;stroke-width:1;stroke-linejoin:miter;stroke-miterlimit:10;"/><line style="stroke:#000000;stroke-width:1;" x1="148.329" x2="90.1992" y1="163.043" y2="163.043"/><line style="stroke:#000000;stroke-width:1;" x1="90.1992" x2="90.1992" y1="163.043" y2="185.043"/><polygon fill="#000000" points="86.1992,175.043,90.1992,185.043,94.1992,175.043,90.1992,179.043" style="stroke:#000000;stroke-width:1;stroke-linejoin:miter;stroke-miterlimit:10;"/><line style="stroke:#000000;stroke-width:1;" x1="289.7303" x2="347.8601" y1="163.043" y2="163.043"/><line style="stroke:#000000;stroke-width:1;" x1="347.8601" x2="347.8601" y1="163.043" y2="185.043"/><polygon fill="#000000" points="343.8601,175.043,347.8601,185.043,351.8601,175.043,347.8601,179.043" style="stroke:#000000;stroke-width:1;stroke-linejoin:miter;stroke-miterlimit:10;"/><line style="stroke:#000000;stroke-width:1;" x1="219.0297" x2="219.0297" y1="131.043" y2="151.043"/><polygon fill="#000000" points="215.0297,141.043,219.0297,151.043,223.0297,141.043,219.0297,145.043" style="stroke:#000000;stroke-width:1;stroke-linejoin:miter;stroke-miterlimit:10;"/><?plantuml-src dPF1Rjim38RlVWgsbwR0d3HPlRNkOUZIRSWEQv6qjrqOcxQ5o98cqKdpzgESfatHOS1s2AnGvFz_9EqJS0g2xNn1EJWiLbXJ61MsLAPEvMnu57mnQcqfOMMOF1QirdHuJkFja4C-oSx7wUJZE4jE_aNMkoB-Kjuw2b4dEqkpz_-diKV9pY_IBBiKaU-uncUPoblXDcLVUUtSSDrHFXvFql75sLzpUxRHfiUx_92Epoua_NOPoA-fX2Krk5RMvn7v_c4ck3vGWCyO6d2UAlKe_pQDqXGpvdTJmA8Wnm74ZtrNSET5fy_tzAkZmCCzZ_Esb0GePTHUsevit11yUvYbrkWjC4gOeS40niAY8QsXG8TBfHLl0Kq9fQLuoJkmrrpHw8Q2gerOOx0c1syxxWs0wP75JG9r9AjLaBKBQM7RLeJ3ErYibDRoP6gTHYOvHaVhPK_ejn6_ZOr6r65o9EIj346ZCicHyrYt21gtOWYX9KQ3ILWf8vpOGaaLTfg_oY9-e9GTBz241NbL7HzaXGPBkv6t0YhKWGvkblBMrC9kogdLrWDxgPShUNSILYpRw2SS6vqP9mXpuH2X90aoL4xovn6eU7sLg0e6ypTJ-7GQ5s9WiALmcW3aqrtyHeaP5mtvgnYTaspPx8jaca5w-sdYkL96oKfwbtxw0X5h0bkNa3G50sEZT0Je9mxJFtkBpvT75pNxj2XoMBzJkEjt0lTFAtkhyQAopxdguw-b9Ejsl-QTv5EMALMLl3ppw_YrllGJmxy1?></g></svg>