<svg xmlns="http://www.w3.org/2000/svg" xmlns:xlink="http://www.w3.org/1999/xlink" contentStyleType="text/css" data-diagram-type="ACTIVITY" height="416px" preserveAspectRatio="none" style="width:446px;height:416px;" version="1.1" viewBox="0 0 446 416" width="446px" zoomAndPan="magnify"><?plantuml 1.2026.6?><defs/><g><g class="title" data-source-line="275"><text fill="#000000" font-family="'sans-serif'" font-size="22" font-weight="700" lengthAdjust="spacing" textLength="258.167" x="93.2847" y="36.2695">Java GUI Input Routing</text></g><ellipse cx="199.6658" cy="66.9102" fill="#FFFFFF" rx="10" ry="10" style="stroke:#000000;stroke-width:1;"/><rect fill="#FFFFFF" height="34.1328" rx="12.5" ry="12.5" style="stroke:#000000;stroke-width:1;" width="101.4629" x="148.9343" y="96.9102"/><text fill="#000000" font-family="'sans-serif'" font-size="12" lengthAdjust="spacing" textLength="81.4629" x="158.9343" y="118.5117">GUI text input</text><polygon fill="#FFFFFF" points="140.9651,151.043,258.3665,151.043,270.3665,163.043,258.3665,175.043,140.9651,175.043,128.9651,163.043,140.9651,151.043" style="stroke:#000000;stroke-width:1;stroke-linejoin:miter;stroke-miterlimit:10;"/><text fill="#000000" font-family="'sans-serif'" font-size="11" lengthAdjust="spacing" textLength="117.4014" x="140.9651" y="167.2002">Registered command?</text><text fill="#000000" font-family="'sans-serif'" font-size="11" lengthAdjust="spacing" textLength="17.4829" x="111.4822" y="160.7227">yes</text><text fill="#000000" font-family="'sans-serif'" font-size="11" lengthAdjust="spacing" textLength="13.5835" x="270.3665" y="160.7227">no</text><rect fill="#FFFFFF" height="34.1328" rx="12.5" ry="12.5" style="stroke:#000000;stroke-width:1;" width="142.1387" x="19.1299" y="185.043"/><text fill="#000000" font-family="'sans-serif'" font-size="12" lengthAdjust="spacing" textLength="122.1387" x="29.1299" y="206.6445">CommandDispatcher</text><rect fill="#FFFFFF" height="48.2656" rx="12.5" ry="12.5" style="stroke:#000000;stroke-width:1;" width="158.3984" x="11" y="254.1758"/><text fill="#000000" font-family="'sans-serif'" font-size="12" lengthAdjust="spacing" textLength="136.8281" x="21" y="275.7773">Return command result</text><text fill="#000000" font-family="'sans-serif'" font-size="12" lengthAdjust="spacing" textLength="138.3984" x="21" y="289.9102">and finish input routing</text><ellipse cx="90.1992" cy="348.4414" fill="none" rx="11" ry="11" style="stroke:#000000;stroke-width:1;"/><ellipse cx="90.1992" cy="348.4414" fill="#FFFFFF" rx="6" ry="6" style="stroke:#000000;stroke-width:1;"/><polygon fill="#FFFFFF" points="266.7598,185.043,351.5049,185.043,363.5049,197.043,351.5049,209.043,266.7598,209.043,254.7598,197.043,266.7598,185.043" style="stroke:#000000;stroke-width:1;stroke-linejoin:miter;stroke-miterlimit:10;"/><text fill="#000000" font-family="'sans-serif'" font-size="11" lengthAdjust="spacing" textLength="84.7451" x="266.7598" y="201.2002">Skill Command?</text><text fill="#000000" font-family="'sans-serif'" font-size="11" lengthAdjust="spacing" textLength="17.4829" x="237.2769" y="194.7227">yes</text><text fill="#000000" font-family="'sans-serif'" font-size="11" lengthAdjust="spacing" textLength="13.5835" x="363.5049" y="194.7227">no</text><rect fill="#FFFFFF" height="34.1328" rx="12.5" ry="12.5" style="stroke:#000000;stroke-width:1;" width="90.7227" x="199.3984" y="219.043"/><text fill="#000000" font-family="'sans-serif'" font-size="12" lengthAdjust="spacing" textLength="70.7227" x="209.3984" y="240.6445">Expand Skill</text><rect fill="#FFFFFF" height="34.1328" rx="12.5" ry="12.5" style="stroke:#000000;stroke-width:1;" width="116.4629" x="315.2734" y="219.043"/><text fill="#000000" font-family="'sans-serif'" font-size="12" lengthAdjust="spacing" textLength="96.4629" x="325.2734" y="240.6445">Ordinary Prompt</text><polygon fill="#FFFFFF" points="309.1323,259.1758,321.1323,271.1758,309.1323,283.1758,297.1323,271.1758,309.1323,259.1758" style="stroke:#000000;stroke-width:1;stroke-linejoin:miter;stroke-miterlimit:10;"/><rect fill="#FFFFFF" height="34.1328" rx="12.5" ry="12.5" style="stroke:#000000;stroke-width:1;" width="54.3828" x="281.9409" y="318.1758"/><text fill="#000000" font-family="'sans-serif'" font-size="12" lengthAdjust="spacing" textLength="34.3828" x="291.9409" y="339.7773">Agent</text><ellipse cx="309.1323" cy="390.4414" fill="none" rx="11" ry="11" style="stroke:#000000;stroke-width:1;"/><ellipse cx="309.1323" cy="390.4414" fill="#FFFFFF" rx="6" ry="6" style="stroke:#000000;stroke-width:1;"/><line style="stroke:#000000;stroke-width:1;" x1="199.6658" x2="199.6658" y1="76.9102" y2="96.9102"/><polygon fill="#000000" points="195.6658,86.9102,199.6658,96.9102,203.6658,86.9102,199.6658,90.9102" style="stroke:#000000;stroke-width:1;stroke-linejoin:miter;stroke-miterlimit:10;"/><line style="stroke:#000000;stroke-width:1;" x1="90.1992" x2="90.1992" y1="219.1758" y2="254.1758"/><polygon fill="#000000" points="86.1992,244.1758,90.1992,254.1758,94.1992,244.1758,90.1992,248.1758" style="stroke:#000000;stroke-width:1;stroke-linejoin:miter;stroke-miterlimit:10;"/><line style="stroke:#000000;stroke-width:1;" x1="90.1992" x2="90.1992" y1="302.4414" y2="337.4414"/><polygon fill="#000000" points="86.1992,327.4414,90.1992,337.4414,94.1992,327.4414,90.1992,331.4414" style="stroke:#000000;stroke-width:1;stroke-linejoin:miter;stroke-miterlimit:10;"/><line style="stroke:#000000;stroke-width:1;" x1="254.7598" x2="244.7598" y1="197.043" y2="197.043"/><line style="stroke:#000000;stroke-width:1;" x1="244.7598" x2="244.7598" y1="197.043" y2="219.043"/><polygon fill="#000000" points="240.7598,209.043,244.7598,219.043,248.7598,209.043,244.7598,213.043" style="stroke:#000000;stroke-width:1;stroke-linejoin:miter;stroke-miterlimit:10;"/><line style="stroke:#000000;stroke-width:1;" x1="363.5049" x2="373.5049" y1="197.043" y2="197.043"/><line style="stroke:#000000;stroke-width:1;" x1="373.5049" x2="373.5049" y1="197.043" y2="219.043"/><polygon fill="#000000" points="369.5049,209.043,373.5049,219.043,377.5049,209.043,373.5049,213.043" style="stroke:#000000;stroke-width:1;stroke-linejoin:miter;stroke-miterlimit:10;"/><line style="stroke:#000000;stroke-width:1;" x1="244.7598" x2="244.7598" y1="253.1758" y2="271.1758"/><line style="stroke:#000000;stroke-width:1;" x1="244.7598" x2="297.1323" y1="271.1758" y2="271.1758"/><polygon fill="#000000" points="287.1323,267.1758,297.1323,271.1758,287.1323,275.1758,291.1323,271.1758" style="stroke:#000000;stroke-width:1;stroke-linejoin:miter;stroke-miterlimit:10;"/><line style="stroke:#000000;stroke-width:1;" x1="373.5049" x2="373.5049" y1="253.1758" y2="271.1758"/><line style="stroke:#000000;stroke-width:1;" x1="373.5049" x2="321.1323" y1="271.1758" y2="271.1758"/><polygon fill="#000000" points="331.1323,267.1758,321.1323,271.1758,331.1323,275.1758,327.1323,271.1758" style="stroke:#000000;stroke-width:1;stroke-linejoin:miter;stroke-miterlimit:10;"/><line style="stroke:#000000;stroke-width:1;" x1="309.1323" x2="309.1323" y1="283.1758" y2="318.1758"/><polygon fill="#000000" points="305.1323,308.1758,309.1323,318.1758,313.1323,308.1758,309.1323,312.1758" style="stroke:#000000;stroke-width:1;stroke-linejoin:miter;stroke-miterlimit:10;"/><line style="stroke:#000000;stroke-width:1;" x1="309.1323" x2="309.1323" y1="352.3086" y2="379.4414"/><polygon fill="#000000" points="305.1323,369.4414,309.1323,379.4414,313.1323,369.4414,309.1323,373.4414" style="stroke:#000000;stroke-width:1;stroke-linejoin:miter;stroke-miterlimit:10;"/><line style="stroke:#000000;stroke-width:1;" x1="128.9651" x2="90.1992" y1="163.043" y2="163.043"/><line style="stroke:#000000;stroke-width:1;" x1="90.1992" x2="90.1992" y1="163.043" y2="185.043"/><polygon fill="#000000" points="86.1992,175.043,90.1992,185.043,94.1992,175.043,90.1992,179.043" style="stroke:#000000;stroke-width:1;stroke-linejoin:miter;stroke-miterlimit:10;"/><line style="stroke:#000000;stroke-width:1;" x1="270.3665" x2="309.1323" y1="163.043" y2="163.043"/><line style="stroke:#000000;stroke-width:1;" x1="309.1323" x2="309.1323" y1="163.043" y2="185.043"/><polygon fill="#000000" points="305.1323,175.043,309.1323,185.043,313.1323,175.043,309.1323,179.043" style="stroke:#000000;stroke-width:1;stroke-linejoin:miter;stroke-miterlimit:10;"/><line style="stroke:#000000;stroke-width:1;" x1="199.6658" x2="199.6658" y1="131.043" y2="151.043"/><polygon fill="#000000" points="195.6658,141.043,199.6658,151.043,203.6658,141.043,199.6658,145.043" style="stroke:#000000;stroke-width:1;stroke-linejoin:miter;stroke-miterlimit:10;"/><?plantuml-src dLHDJzj04BtxLmnS0AbE22Kjc4D5GwdeeQ04RhrCxB6zYhsxtLadvDypOp1DFrIfFLXUp-URDszz0Du0koxab877V8KLyJXtXR5LAcSRnnpoSUiACHiRAM0UpPfspwbwHv6pa-df93rvFvac1_zIDlXSdpHkFR7McHwdqxV_LsE0CZqzIwVJSodo1TVuMgOCJd3Rei-yz7wqxYYRJ4xIoTdnNsDxREDD3-_yNJevFfFmsoLJM5C1IwfnRLp85FBzmut03KmC7v5hy85AyoXVczeqf17pknbWdfEF3D8lXYwFNP0wVNoWxnrn70ruV725140XL0SPMx75ck3pmqtgRBE5Y6AEK2E3TR2egMaWHuzBqvYu1RG558xK6P-1_OnB6rqHcyfAQsHdCmYkYtq3YFGOfPiOAaLM6PQr2zBSjQqKvZUmM9ccaRUsSK6MWs6hc5kTJl6DaZs1syha3HgRxFc0LOlGu5Qw0BSKqMB2AsC57BPGK8bT4w-5_QyeQViBjBoWOChzdIYkiN0RaGAKs33jU9OYbKe0ssBc6XSW1iaNbmWcYIRA2dfQTReRwmN2N718eIHXOJ8csUlSHjqNYIdXSFxRw1-ET0iM3hV4Hmb0DdksNnbf5lEQmeLQvoIhjKEIKCWospUhvz9O8tlek_IK2mZDuUXyGZ8K75gdfHL0JpFC_jnR-dnwz5gp3zCYk_dYlXqsSzTlvgAt7hny3ML5ZO50RxQDnbbiH5oTvSvx5o8LevUa1xkoRcE16vLHprIWLdRBlmhWUROXxxfJbGykP2PHI2SmTsw0Sgz_5MTvIBklQIi27kGRJMw4OCKf91X-0Q2A3PeYDzQKolob_Y9-yAdc9m00?></g></svg>