<svg xmlns="http://www.w3.org/2000/svg" xmlns:xlink="http://www.w3.org/1999/xlink" contentStyleType="text/css" data-diagram-type="DESCRIPTION" height="175px" preserveAspectRatio="none" style="width:1379px;height:175px;" version="1.1" viewBox="0 0 1379 175" width="1379px" zoomAndPan="magnify"><?plantuml 1.2026.6?><defs/><g><g class="title" data-source-line="366"><text fill="#000000" font-family="'sans-serif'" font-size="22" font-weight="700" lengthAdjust="spacing" textLength="400.7158" x="488.1421" y="36.2695">Unified Command Completion Flow</text></g><!--entity Catalog--><g class="entity" data-qualified-name="Catalog" data-source-line="369" id="ent0001"><rect fill="#FFFFFF" height="36.4883" rx="2.5" ry="2.5" style="stroke:#000000;stroke-width:1;" width="203.8525" x="11" y="78.3238"/><text fill="#000000" font-family="'sans-serif'" font-size="14" lengthAdjust="spacing" textLength="183.8525" x="21" y="101.8589">CommandCatalogSnapshot</text></g><!--entity NameFilter--><g class="entity" data-qualified-name="NameFilter" data-source-line="370" id="ent0002"><rect fill="#FFFFFF" height="36.4883" rx="2.5" ry="2.5" style="stroke:#000000;stroke-width:1;" width="171.8262" x="824" y="57.3238"/><text fill="#000000" font-family="'sans-serif'" font-size="14" lengthAdjust="spacing" textLength="151.8262" x="834" y="80.8589">Command Name Filter</text></g><!--entity Resolved--><g class="entity" data-qualified-name="Resolved" data-source-line="371" id="ent0003"><rect fill="#FFFFFF" height="36.4883" rx="2.5" ry="2.5" style="stroke:#000000;stroke-width:1;" width="154.3809" x="354" y="108.3238"/><text fill="#000000" font-family="'sans-serif'" font-size="14" lengthAdjust="spacing" textLength="134.3809" x="364" y="131.8589">Resolved Command</text></g><!--entity Completer--><g class="entity" data-qualified-name="Completer" data-source-line="372" id="ent0004"><rect fill="#FFFFFF" height="36.4883" rx="2.5" ry="2.5" style="stroke:#000000;stroke-width:1;" width="228.0381" x="545" y="108.3238"/><text fill="#000000" font-family="'sans-serif'" font-size="14" lengthAdjust="spacing" textLength="208.0381" x="555" y="131.8589">CommandArgumentCompleter</text></g><!--entity VersionCheck--><g class="entity" data-qualified-name="VersionCheck" data-source-line="373" id="ent0005"><rect fill="#FFFFFF" height="36.4883" rx="2.5" ry="2.5" style="stroke:#000000;stroke-width:1;" width="200.127" x="810" y="111.3238"/><text fill="#000000" font-family="'sans-serif'" font-size="14" lengthAdjust="spacing" textLength="180.127" x="820" y="134.8589">Completion Version Check</text></g><!--entity TUI--><g class="entity" data-qualified-name="TUI" data-source-line="374" id="ent0006"><rect fill="#FFFFFF" height="36.4883" rx="2.5" ry="2.5" style="stroke:#000000;stroke-width:1;" width="129.3477" x="1213" y="39.3238"/><text fill="#000000" font-family="'sans-serif'" font-size="14" lengthAdjust="spacing" textLength="109.3477" x="1223" y="62.8589">TUI Suggestions</text></g><!--entity App--><g class="entity" data-qualified-name="App" data-source-line="375" id="ent0007"><rect fill="#FFFFFF" height="36.4883" rx="2.5" ry="2.5" style="stroke:#000000;stroke-width:1;" width="171.3887" x="1192" y="111.3238"/><text fill="#000000" font-family="'sans-serif'" font-size="14" lengthAdjust="spacing" textLength="151.3887" x="1202" y="134.8589">App Command Palette</text></g><g class="link" data-entity-1="ent0001" data-entity-2="ent0002" data-link-type="dependency" id="lnk8"><polygon fill="#000000" points="823.8728,76.4434,814.8157,72.5744,818.8733,76.5159,814.9318,80.5735,823.8728,76.4434" style="stroke:#000000;stroke-width:1;stroke-linejoin:miter;stroke-miterlimit:10;"/><path d="M215.2667,91.0234 C221.2661,90.7698 227.2117,90.5339 233,90.3238 C445.4827,82.6112 690.6893,78.376 818.8733,76.5159" fill="none" style="stroke:#000000;stroke-width:1;"/></g><g class="link" data-entity-1="ent0002" data-entity-2="ent0006" data-link-type="dependency" id="lnk9"><polygon fill="#000000" points="1212.8413,56.547,1203.8555,52.5151,1207.8413,56.5293,1203.8271,60.515,1212.8413,56.547" style="stroke:#000000;stroke-width:1;stroke-linejoin:miter;stroke-miterlimit:10;"/><path d="M996.2118,64.0921 C1006.8989,62.9888 1017.6926,62.0216 1028,61.3238 C1090.7445,57.0762 1157.5933,56.3509 1207.8413,56.5293" fill="none" style="stroke:#000000;stroke-width:1;"/><text fill="#000000" font-family="'sans-serif'" font-size="13" lengthAdjust="spacing" textLength="142.6255" x="1030" y="52.8921">command-name stage</text></g><g class="link" data-entity-1="ent0002" data-entity-2="ent0007" data-link-type="dependency" id="lnk10"><polygon fill="#000000" points="1211.1859,111.2806,1203.3793,105.2759,1206.3261,110.1045,1201.4975,113.0514,1211.1859,111.2806" style="stroke:#000000;stroke-width:1;stroke-linejoin:miter;stroke-miterlimit:10;"/><path d="M996.0178,83.0548 C1059.548,89.0809 1140.8922,97.3935 1174,103.3238 C1186.1076,105.4925 1194.0389,107.1309 1206.3261,110.1045" fill="none" style="stroke:#000000;stroke-width:1;"/><text fill="#000000" font-family="'sans-serif'" font-size="13" lengthAdjust="spacing" textLength="142.6255" x="1030" y="82.8921">command-name stage</text></g><g class="link" data-entity-1="ent0001" data-entity-2="ent0003" data-link-type="dependency" id="lnk11"><polygon fill="#000000" points="353.7186,120.1475,345.0841,115.4099,348.736,119.73,344.4159,123.3819,353.7186,120.1475" style="stroke:#000000;stroke-width:1;stroke-linejoin:miter;stroke-miterlimit:10;"/><path d="M215.2589,107.544 C221.2603,108.1598 227.2085,108.7576 233,109.3238 C272.803,113.2148 312.1944,116.6674 348.736,119.73" fill="none" style="stroke:#000000;stroke-width:1;"/><text fill="#000000" font-family="'sans-serif'" font-size="13" lengthAdjust="spacing" textLength="99.1123" x="235" y="104.8921">argument stage</text></g><g class="link" data-entity-1="ent0003" data-entity-2="ent0004" data-link-type="dependency" id="lnk12"><polygon fill="#000000" points="544.7698,126.3238,535.7698,122.3238,539.7698,126.3238,535.7698,130.3238,544.7698,126.3238" style="stroke:#000000;stroke-width:1;stroke-linejoin:miter;stroke-miterlimit:10;"/><path d="M508.1982,126.3238 C519.9876,126.3238 527.3768,126.3238 539.7698,126.3238" fill="none" style="stroke:#000000;stroke-width:1;"/></g><g class="link" data-entity-1="ent0004" data-entity-2="ent0005" data-link-type="dependency" id="lnk13"><polygon fill="#000000" points="809.7844,128.1284,800.8332,124.0203,804.7847,128.0682,800.7368,132.0197,809.7844,128.1284" style="stroke:#000000;stroke-width:1;stroke-linejoin:miter;stroke-miterlimit:10;"/><path d="M773.2067,127.6877 C785.4114,127.8348 792.7624,127.9233 804.7847,128.0682" fill="none" style="stroke:#000000;stroke-width:1;"/></g><g class="link" data-entity-1="ent0005" data-entity-2="ent0006" data-link-type="dependency" id="lnk14"><polygon fill="#000000" points="1233.8047,75.4799,1223.9685,75.9788,1229.3444,77.7394,1227.5838,83.1153,1233.8047,75.4799" style="stroke:#000000;stroke-width:1;stroke-linejoin:miter;stroke-miterlimit:10;"/><path d="M1010.2299,137.1354 C1072.4759,140.3354 1146.0526,140.4973 1174,126.3238 C1185.8915,120.293 1181.8739,110.9979 1192,102.3238 C1204.3703,91.7273 1215.1923,84.9088 1229.3444,77.7394" fill="none" style="stroke:#000000;stroke-width:1;"/><text fill="#000000" font-family="'sans-serif'" font-size="13" lengthAdjust="spacing" textLength="132.8057" x="1035" y="121.8921">latest request results</text></g><g class="link" data-entity-1="ent0005" data-entity-2="ent0007" data-link-type="dependency" id="lnk15"><polygon fill="#000000" points="1233.9235,147.371,1224.0933,146.7654,1229.2382,149.1169,1226.8867,154.2619,1233.9235,147.371" style="stroke:#000000;stroke-width:1;stroke-linejoin:miter;stroke-miterlimit:10;"/><path d="M959.8107,147.3809 C980.5285,154.1349 1005.1336,160.9769 1028,164.3238 C1092.2048,173.7213 1109.9874,174.9515 1174,164.3238 C1194.2196,160.9668 1211.1178,155.8693 1229.2382,149.1169" fill="none" style="stroke:#000000;stroke-width:1;"/><text fill="#000000" font-family="'sans-serif'" font-size="13" lengthAdjust="spacing" textLength="132.8057" x="1035" y="159.8921">latest request results</text></g><?plantuml-src RLDDRzim3BtxLx2vzEHaXmr3VHZG9GYm7TPXQNTdRDeM8akQIAVhln_bE8tMvYI9VEHx_D0j10FinrXJ1G7h0tR4gzetndMbtfsiEDQhmJTgDaueOYtcIFczJDwbSFNnxgxyzFb3SGiFUwPuf0RsrEFH-5WbdW43mzVHM2cDWu446nG4JUMXzaEm9COxs3m-CA1h04MmxeaX4LZ0s8s3AignJ04Z2jcNfT9kY4td81AoTnLynoF2thY6mOS4n-j9b7xjXq4fDzGQPoPZ4a1_WsVbzuwWLgdMTmcCra9jZMRXPN4ZFGq4mQ9nnKs8s0q85b_yAC2fHeS57unBEWTegCNHojOx-O4QjjYXunr5qouo5FVO-6ST0RHecJBFNaVKHJ-wPksjZo1HuzMbMWenOWcUd6cDTdwkA9tdEhVMFnU5fLPI5T5qlK1Z8jN9MwGJNQSfvj3rgUATqx7rNW0PPbE6NPnvfdAsEbkAYmHDxzCpH_yYzlPuaJT1pyRt4kxdQSr5K9n4d1zlP9pB_4sHqxdkgJvC1BDbCkH1Zq_VO3Tskl8fa2UisdB8VGYlhVo9oY0qmTHU57Cxe2o_vFLUhfCdiLHftrAIqgK-iUZVUejBL5TnESrh0wlBAfzGhvu4k_Jeqhfa_wyJ-IDJQlK_iUWl-ZEUJjQDvVVeazxhw7y0?></g></svg>