<svg xmlns="http://www.w3.org/2000/svg" xmlns:xlink="http://www.w3.org/1999/xlink" contentStyleType="text/css" data-diagram-type="DESCRIPTION" height="175px" preserveAspectRatio="none" style="width:1378px;height:175px;" version="1.1" viewBox="0 0 1378 175" width="1378px" zoomAndPan="magnify"><?plantuml 1.2026.6?><defs/><g><g class="title" data-source-line="384"><text fill="#000000" font-family="'sans-serif'" font-size="22" font-weight="700" lengthAdjust="spacing" textLength="400.7158" x="487.6421" y="36.2695">Unified Command Completion Flow</text></g><!--entity Catalog--><g class="entity" data-qualified-name="Catalog" data-source-line="387" id="ent0001"><rect fill="#FFFFFF" height="36.4883" rx="2.5" ry="2.5" style="stroke:#000000;stroke-width:1;" width="203.8525" x="11" y="78.3028"/><text fill="#000000" font-family="'sans-serif'" font-size="14" lengthAdjust="spacing" textLength="183.8525" x="21" y="101.838">CommandCatalogSnapshot</text></g><!--entity NameFilter--><g class="entity" data-qualified-name="NameFilter" data-source-line="388" id="ent0002"><rect fill="#FFFFFF" height="36.4883" rx="2.5" ry="2.5" style="stroke:#000000;stroke-width:1;" width="171.8262" x="824" y="57.3028"/><text fill="#000000" font-family="'sans-serif'" font-size="14" lengthAdjust="spacing" textLength="151.8262" x="834" y="80.838">Command Name Filter</text></g><!--entity Resolved--><g class="entity" data-qualified-name="Resolved" data-source-line="389" id="ent0003"><rect fill="#FFFFFF" height="36.4883" rx="2.5" ry="2.5" style="stroke:#000000;stroke-width:1;" width="154.3809" x="354" y="108.3028"/><text fill="#000000" font-family="'sans-serif'" font-size="14" lengthAdjust="spacing" textLength="134.3809" x="364" y="131.838">Resolved Command</text></g><!--entity Completer--><g class="entity" data-qualified-name="Completer" data-source-line="390" id="ent0004"><rect fill="#FFFFFF" height="36.4883" rx="2.5" ry="2.5" style="stroke:#000000;stroke-width:1;" width="228.0381" x="545" y="108.3028"/><text fill="#000000" font-family="'sans-serif'" font-size="14" lengthAdjust="spacing" textLength="208.0381" x="555" y="131.838">CommandArgumentCompleter</text></g><!--entity VersionCheck--><g class="entity" data-qualified-name="VersionCheck" data-source-line="391" id="ent0005"><rect fill="#FFFFFF" height="36.4883" rx="2.5" ry="2.5" style="stroke:#000000;stroke-width:1;" width="200.127" x="810" y="111.3028"/><text fill="#000000" font-family="'sans-serif'" font-size="14" lengthAdjust="spacing" textLength="180.127" x="820" y="134.838">Completion Version Check</text></g><!--entity Suggestions--><g class="entity" data-qualified-name="Suggestions" data-source-line="392" id="ent0006"><rect fill="#FFFFFF" height="36.4883" rx="2.5" ry="2.5" style="stroke:#000000;stroke-width:1;" width="170.1855" x="1192" y="39.3028"/><text fill="#000000" font-family="'sans-serif'" font-size="14" lengthAdjust="spacing" textLength="150.1855" x="1202" y="62.838">GUI Slash Suggestions</text></g><!--entity Palette--><g class="entity" data-qualified-name="Palette" data-source-line="393" id="ent0007"><rect fill="#FFFFFF" height="36.4883" rx="2.5" ry="2.5" style="stroke:#000000;stroke-width:1;" width="167.957" x="1193" y="111.3028"/><text fill="#000000" font-family="'sans-serif'" font-size="14" lengthAdjust="spacing" textLength="147.957" x="1203" y="134.838">GUI Command Palette</text></g><g class="link" data-entity-1="ent0001" data-entity-2="ent0002" data-link-type="dependency" id="lnk8"><polygon fill="#000000" points="823.8728,76.4224,814.8157,72.5534,818.8733,76.495,814.9318,80.5526,823.8728,76.4224" style="stroke:#000000;stroke-width:1;stroke-linejoin:miter;stroke-miterlimit:10;"/><path d="M215.2667,91.0024 C221.2661,90.7488 227.2117,90.5129 233,90.3028 C445.4827,82.5902 690.6893,78.355 818.8733,76.495" fill="none" style="stroke:#000000;stroke-width:1;"/></g><g class="link" data-entity-1="ent0002" data-entity-2="ent0006" data-link-type="dependency" id="lnk9"><polygon fill="#000000" points="1191.8267,56.5123,1182.8195,52.5286,1186.8267,56.5213,1182.8339,60.5285,1191.8267,56.5123" style="stroke:#000000;stroke-width:1;stroke-linejoin:miter;stroke-miterlimit:10;"/><path d="M996.2119,64.0715 C1006.8989,62.9681 1017.6926,62.0008 1028,61.3028 C1082.4553,57.6155 1138.7821,56.6079 1186.8267,56.5213" fill="none" style="stroke:#000000;stroke-width:1;"/><text fill="#000000" font-family="'sans-serif'" font-size="13" lengthAdjust="spacing" textLength="142.6255" x="1030" y="52.8712">command-name stage</text></g><g class="link" data-entity-1="ent0002" data-entity-2="ent0007" data-link-type="dependency" id="lnk10"><polygon fill="#000000" points="1211.0083,111.2549,1203.2081,105.2417,1206.1498,110.0736,1201.318,113.0152,1211.0083,111.2549" style="stroke:#000000;stroke-width:1;stroke-linejoin:miter;stroke-miterlimit:10;"/><path d="M996.0197,83.0232 C1059.5509,89.0434 1140.8956,97.3532 1174,103.3028 C1186.0509,105.4686 1193.9221,107.1004 1206.1498,110.0736" fill="none" style="stroke:#000000;stroke-width:1;"/><text fill="#000000" font-family="'sans-serif'" font-size="13" lengthAdjust="spacing" textLength="142.6255" x="1030" y="82.8712">command-name stage</text></g><g class="link" data-entity-1="ent0001" data-entity-2="ent0003" data-link-type="dependency" id="lnk11"><polygon fill="#000000" points="353.7186,120.1266,345.0841,115.3889,348.736,119.709,344.4159,123.3609,353.7186,120.1266" style="stroke:#000000;stroke-width:1;stroke-linejoin:miter;stroke-miterlimit:10;"/><path d="M215.2589,107.523 C221.2603,108.1388 227.2085,108.7367 233,109.3028 C272.803,113.1938 312.1944,116.6464 348.736,119.709" fill="none" style="stroke:#000000;stroke-width:1;"/><text fill="#000000" font-family="'sans-serif'" font-size="13" lengthAdjust="spacing" textLength="99.1123" x="235" y="104.8712">argument stage</text></g><g class="link" data-entity-1="ent0003" data-entity-2="ent0004" data-link-type="dependency" id="lnk12"><polygon fill="#000000" points="544.7698,126.3028,535.7698,122.3028,539.7698,126.3028,535.7698,130.3028,544.7698,126.3028" style="stroke:#000000;stroke-width:1;stroke-linejoin:miter;stroke-miterlimit:10;"/><path d="M508.1982,126.3028 C519.9876,126.3028 527.3768,126.3028 539.7698,126.3028" fill="none" style="stroke:#000000;stroke-width:1;"/></g><g class="link" data-entity-1="ent0004" data-entity-2="ent0005" data-link-type="dependency" id="lnk13"><polygon fill="#000000" points="809.7844,128.1074,800.8332,123.9993,804.7847,128.0472,800.7368,131.9987,809.7844,128.1074" style="stroke:#000000;stroke-width:1;stroke-linejoin:miter;stroke-miterlimit:10;"/><path d="M773.2067,127.6667 C785.4114,127.8138 792.7624,127.9024 804.7847,128.0472" fill="none" style="stroke:#000000;stroke-width:1;"/></g><g class="link" data-entity-1="ent0005" data-entity-2="ent0006" data-link-type="dependency" id="lnk14"><polygon fill="#000000" points="1233.561,75.4973,1223.7261,76.0217,1229.1065,77.7684,1227.3598,83.1488,1233.561,75.4973" style="stroke:#000000;stroke-width:1;stroke-linejoin:miter;stroke-miterlimit:10;"/><path d="M1010.2299,137.1144 C1072.4759,140.3144 1146.0526,140.4763 1174,126.3028 C1185.8915,120.272 1181.8846,110.9894 1192,102.3028 C1204.3003,91.74 1215.0385,84.9408 1229.1065,77.7684" fill="none" style="stroke:#000000;stroke-width:1;"/><text fill="#000000" font-family="'sans-serif'" font-size="13" lengthAdjust="spacing" textLength="132.8057" x="1035" y="121.8712">latest request results</text></g><g class="link" data-entity-1="ent0005" data-entity-2="ent0007" data-link-type="dependency" id="lnk15"><polygon fill="#000000" points="1233.6389,147.3496,1223.8077,146.76,1228.9565,149.1031,1226.6133,154.2519,1233.6389,147.3496" style="stroke:#000000;stroke-width:1;stroke-linejoin:miter;stroke-miterlimit:10;"/><path d="M959.8107,147.36 C980.5285,154.1139 1005.1336,160.9559 1028,164.3028 C1092.2048,173.7004 1109.9953,174.9785 1174,164.3028 C1194.1287,160.9454 1210.9257,155.8554 1228.9565,149.1031" fill="none" style="stroke:#000000;stroke-width:1;"/><text fill="#000000" font-family="'sans-serif'" font-size="13" lengthAdjust="spacing" textLength="132.8057" x="1035" y="159.8712">latest request results</text></g><?plantuml-src RLF1Rjim3BtxAzXSUdAo31s6-Z2WIv1XEwp3ikxEsBGjH9OyKNRMln_bsB6MvYIHV2JV8wLxQ1MmxLnE6RIO7x4YNkMsKAPAvMxyYbs-QcmXRcKyESozwYc-fo6wz9mzF3wc7pw-I-xX-S3aUYhWG3Nsoheiz6cmPVZSAUrJPQ0XZmLw12bb8RTDgyahQs3xwva1JG7eFUOrCOG66j1LNIECOYnJYmuzwTUbjFs6FLxKbCuAHrCC0fxQTjbtbAtNxzFrGw2u9LQL0KV8rcJdr8Co1ODjGscytL2eRcpJ2BqjbSgemHd8qj_Mid2rXY0NMTfM0OnQmvUNhw54I89UqOcNoPslgI5eDIgJtBKEgmP1uwljF72OZC64Zye4TGqKL6Ad_Ku4VKT9M-pHy9wSAXSHYciix4aM1oLgfYXoaCLMpdQcs5Xj7NWd-H8IRObNNXEy65KgsTUeBPoJufssfoJHLFgWnwcgzb0eHtc89k54Kqc9CNLprhutikpQUa26qHLX5rEVGSvENWIvHO06-sp6w9_4LlSplG4wETzIU1htDeeWDv2OZ2iQaypVv3YScvhouz1Wz0oEE2ciSw-HQzXtbNoNaCv3HcHV9qo2Vw3qypJ0ntkIZ0E2DFqKJs2-3f6eEcJJWqfDc21x-QlN-B7yRMpSyZBUR7xoPzGb4c3p1EV11lz_SugD6wor_5Nsykl-TEUJvLtpswoP--sCVm00?></g></svg>