<svg xmlns="http://www.w3.org/2000/svg" xmlns:xlink="http://www.w3.org/1999/xlink" contentStyleType="text/css" data-diagram-type="DESCRIPTION" height="373px" preserveAspectRatio="none" style="width:1180px;height:373px;" version="1.1" viewBox="0 0 1180 373" width="1180px" zoomAndPan="magnify"><?plantuml 1.2026.6?><defs/><g><g class="title" data-source-line="396"><text fill="#000000" font-family="'sans-serif'" font-size="22" font-weight="700" lengthAdjust="spacing" textLength="460.9258" x="358.5371" y="36.2695">Client-Independent Command Execution</text></g><!--entity TUI--><g class="entity" data-qualified-name="TUI" data-source-line="399" id="ent0001"><rect fill="#FFFFFF" height="46.4883" rx="2.5" ry="2.5" style="stroke:#000000;stroke-width:1;" width="120.7939" x="11" y="325.9102"/><rect fill="#FFFFFF" height="10" style="stroke:#000000;stroke-width:1;" width="15" x="111.7939" y="330.9102"/><rect fill="#FFFFFF" height="2" style="stroke:#000000;stroke-width:1;" width="4" x="109.7939" y="332.9102"/><rect fill="#FFFFFF" height="2" style="stroke:#000000;stroke-width:1;" width="4" x="109.7939" y="336.9102"/><text fill="#000000" font-family="'sans-serif'" font-size="14" lengthAdjust="spacing" textLength="80.7939" x="26" y="359.4453">TUI Adapter</text></g><!--entity App--><g class="entity" data-qualified-name="App" data-source-line="400" id="ent0002"><rect fill="#FFFFFF" height="46.4883" rx="2.5" ry="2.5" style="stroke:#000000;stroke-width:1;" width="125.4902" x="1039" y="285.9102"/><rect fill="#FFFFFF" height="10" style="stroke:#000000;stroke-width:1;" width="15" x="1144.4902" y="290.9102"/><rect fill="#FFFFFF" height="2" style="stroke:#000000;stroke-width:1;" width="4" x="1142.4902" y="292.9102"/><rect fill="#FFFFFF" height="2" style="stroke:#000000;stroke-width:1;" width="4" x="1142.4902" y="296.9102"/><text fill="#000000" font-family="'sans-serif'" font-size="14" lengthAdjust="spacing" textLength="85.4902" x="1054" y="319.4453">App Adapter</text></g><!--entity Dispatcher--><g class="entity" data-qualified-name="Dispatcher" data-source-line="401" id="ent0003"><rect fill="#FFFFFF" height="46.4883" rx="2.5" ry="2.5" style="stroke:#000000;stroke-width:1;" width="182.4951" x="169" y="293.9102"/><rect fill="#FFFFFF" height="10" style="stroke:#000000;stroke-width:1;" width="15" x="331.4951" y="298.9102"/><rect fill="#FFFFFF" height="2" style="stroke:#000000;stroke-width:1;" width="4" x="329.4951" y="300.9102"/><rect fill="#FFFFFF" height="2" style="stroke:#000000;stroke-width:1;" width="4" x="329.4951" y="304.9102"/><text fill="#000000" font-family="'sans-serif'" font-size="14" lengthAdjust="spacing" textLength="142.4951" x="184" y="327.4453">CommandDispatcher</text></g><!--entity Handler--><g class="entity" data-qualified-name="Handler" data-source-line="402" id="ent0004"><rect fill="#FFFFFF" height="46.4883" rx="2.5" ry="2.5" style="stroke:#000000;stroke-width:1;" width="162.7529" x="486" y="191.9102"/><rect fill="#FFFFFF" height="10" style="stroke:#000000;stroke-width:1;" width="15" x="628.7529" y="196.9102"/><rect fill="#FFFFFF" height="2" style="stroke:#000000;stroke-width:1;" width="4" x="626.7529" y="198.9102"/><rect fill="#FFFFFF" height="2" style="stroke:#000000;stroke-width:1;" width="4" x="626.7529" y="202.9102"/><text fill="#000000" font-family="'sans-serif'" font-size="14" lengthAdjust="spacing" textLength="122.7529" x="501" y="225.4453">CommandHandler</text></g><!--entity Interaction--><g class="entity" data-qualified-name="Interaction" data-source-line="403" id="ent0005"><rect fill="#FFFFFF" height="46.4883" rx="2.5" ry="2.5" style="stroke:#000000;stroke-width:1;" width="182.6182" x="703.5" y="63.9102"/><rect fill="#FFFFFF" height="10" style="stroke:#000000;stroke-width:1;" width="15" x="866.1182" y="68.9102"/><rect fill="#FFFFFF" height="2" style="stroke:#000000;stroke-width:1;" width="4" x="864.1182" y="70.9102"/><rect fill="#FFFFFF" height="2" style="stroke:#000000;stroke-width:1;" width="4" x="864.1182" y="74.9102"/><text fill="#000000" font-family="'sans-serif'" font-size="14" lengthAdjust="spacing" textLength="142.6182" x="718.5" y="97.4453">CommandInteraction</text></g><!--entity Output--><g class="entity" data-qualified-name="Output" data-source-line="404" id="ent0006"><rect fill="#FFFFFF" height="46.4883" rx="2.5" ry="2.5" style="stroke:#000000;stroke-width:1;" width="157.1953" x="716.5" y="127.9102"/><rect fill="#FFFFFF" height="10" style="stroke:#000000;stroke-width:1;" width="15" x="853.6953" y="132.9102"/><rect fill="#FFFFFF" height="2" style="stroke:#000000;stroke-width:1;" width="4" x="851.6953" y="134.9102"/><rect fill="#FFFFFF" height="2" style="stroke:#000000;stroke-width:1;" width="4" x="851.6953" y="138.9102"/><text fill="#000000" font-family="'sans-serif'" font-size="14" lengthAdjust="spacing" textLength="117.1953" x="731.5" y="161.4453">CommandOutput</text></g><!--entity Result--><g class="entity" data-qualified-name="Result" data-source-line="405" id="ent0007"><rect fill="#FFFFFF" height="46.4883" rx="2.5" ry="2.5" style="stroke:#000000;stroke-width:1;" width="217.8232" x="686" y="255.9102"/><rect fill="#FFFFFF" height="10" style="stroke:#000000;stroke-width:1;" width="15" x="883.8232" y="260.9102"/><rect fill="#FFFFFF" height="2" style="stroke:#000000;stroke-width:1;" width="4" x="881.8232" y="262.9102"/><rect fill="#FFFFFF" height="2" style="stroke:#000000;stroke-width:1;" width="4" x="881.8232" y="266.9102"/><text fill="#000000" font-family="'sans-serif'" font-size="14" lengthAdjust="spacing" textLength="177.8232" x="701" y="289.4453">CommandExecutionResult</text></g><!--entity Services--><g class="entity" data-qualified-name="Services" data-source-line="406" id="ent0008"><rect fill="#FFFFFF" height="46.4883" rx="2.5" ry="2.5" style="stroke:#000000;stroke-width:1;" width="175.748" x="707" y="191.9102"/><rect fill="#FFFFFF" height="10" style="stroke:#000000;stroke-width:1;" width="15" x="862.748" y="196.9102"/><rect fill="#FFFFFF" height="2" style="stroke:#000000;stroke-width:1;" width="4" x="860.748" y="198.9102"/><rect fill="#FFFFFF" height="2" style="stroke:#000000;stroke-width:1;" width="4" x="860.748" y="202.9102"/><text fill="#000000" font-family="'sans-serif'" font-size="14" lengthAdjust="spacing" textLength="135.748" x="722" y="225.4453">Application Services</text></g><g class="link" data-entity-1="ent0001" data-entity-2="ent0003" data-link-type="dependency" id="lnk9"><polygon fill="#000000" points="168.7739,332.3913,159.227,329.9709,163.8459,333.2369,160.5799,337.8557,168.7739,332.3913" style="stroke:#000000;stroke-width:1;stroke-linejoin:miter;stroke-miterlimit:10;"/><path d="M132.0225,338.6972 C143.7488,336.6852 151.3695,335.3776 163.8459,333.2369" fill="none" style="stroke:#000000;stroke-width:1;"/></g><g class="link" data-entity-1="ent0002" data-entity-2="ent0003" data-link-type="dependency" id="lnk10"><polygon fill="#000000" points="351.2487,316.0921,360.2847,320.01,356.2485,316.0466,360.2119,312.0103,351.2487,316.0921" style="stroke:#000000;stroke-width:1;stroke-linejoin:miter;stroke-miterlimit:10;"/><path d="M1038.9887,309.5496 C1000.2527,309.949 949.202,310.4692 904,310.9102 C706.8309,312.8335 480.6515,314.9134 356.2485,316.0466" fill="none" style="stroke:#000000;stroke-width:1;"/></g><g class="link" data-entity-1="ent0003" data-entity-2="ent0004" data-link-type="dependency" id="lnk11"><polygon fill="#000000" points="497.5459,237.9325,487.7424,236.9886,492.8032,239.5159,490.2759,244.5768,497.5459,237.9325" style="stroke:#000000;stroke-width:1;stroke-linejoin:miter;stroke-miterlimit:10;"/><path d="M329.9411,293.8922 C380.0087,277.1757 442.7326,256.2335 492.8032,239.5159" fill="none" style="stroke:#000000;stroke-width:1;"/></g><g class="link" data-entity-1="ent0004" data-entity-2="ent0005" data-link-type="dependency" id="lnk12"><polygon fill="#000000" points="705.3126,110.0102,695.4695,109.6732,700.6767,111.8833,698.4666,117.0906,705.3126,110.0102" style="stroke:#000000;stroke-width:1;stroke-linejoin:miter;stroke-miterlimit:10;"/><path d="M591.224,191.6194 C613.5314,169.9735 649.4422,138.2477 686,118.9102 C692.1367,115.6641 694.0123,114.5762 700.6767,111.8833" fill="none" style="stroke:#000000;stroke-width:1;"/></g><g class="link" data-entity-1="ent0004" data-entity-2="ent0006" data-link-type="dependency" id="lnk13"><polygon fill="#000000" points="716.4314,172.9252,706.6813,171.5344,711.6214,174.2903,708.8655,179.2305,716.4314,172.9252" style="stroke:#000000;stroke-width:1;stroke-linejoin:miter;stroke-miterlimit:10;"/><path d="M649.2737,191.9855 C671.1369,185.7804 689.9387,180.4442 711.6214,174.2903" fill="none" style="stroke:#000000;stroke-width:1;"/></g><g class="link" data-entity-1="ent0004" data-entity-2="ent0008" data-link-type="dependency" id="lnk14"><polygon fill="#000000" points="706.9217,214.9102,697.9217,210.9102,701.9217,214.9102,697.9217,218.9102,706.9217,214.9102" style="stroke:#000000;stroke-width:1;stroke-linejoin:miter;stroke-miterlimit:10;"/><path d="M649.2737,214.9102 C667.9775,214.9102 682.961,214.9102 701.9217,214.9102" fill="none" style="stroke:#000000;stroke-width:1;"/></g><g class="link" data-entity-1="ent0004" data-entity-2="ent0007" data-link-type="dependency" id="lnk15"><polygon fill="#000000" points="712.6528,255.8227,705.0869,249.5174,707.8428,254.4576,702.9026,257.2135,712.6528,255.8227" style="stroke:#000000;stroke-width:1;stroke-linejoin:miter;stroke-miterlimit:10;"/><path d="M649.2737,237.8349 C669.8731,243.6812 687.2149,248.6031 707.8428,254.4576" fill="none" style="stroke:#000000;stroke-width:1;"/></g><g class="link" data-entity-1="ent0007" data-entity-2="ent0001" data-link-type="dependency" id="lnk16"><polygon fill="#000000" points="132.0141,350.2307,140.9463,354.3799,137.0134,350.3139,141.0794,346.381,132.0141,350.2307" style="stroke:#000000;stroke-width:1;stroke-linejoin:miter;stroke-miterlimit:10;"/><path d="M686.9132,301.971 C623.5268,314.8631 541.4996,330.2356 468,339.9102 C416.2924,346.7163 403.1152,346.9087 351,348.9102 C275.5077,351.8094 193.4191,351.2528 137.0134,350.3139" fill="none" style="stroke:#000000;stroke-width:1;"/><text fill="#000000" font-family="'sans-serif'" font-size="13" lengthAdjust="spacing" textLength="95.1069" x="371" y="335.4785">generic refresh</text></g><g class="link" data-entity-1="ent0007" data-entity-2="ent0002" data-link-type="dependency" id="lnk17"><polygon fill="#000000" points="1038.7194,302.8234,1030.155,297.9602,1033.7435,302.3332,1029.3706,305.9217,1038.7194,302.8234" style="stroke:#000000;stroke-width:1;stroke-linejoin:miter;stroke-miterlimit:10;"/><path d="M904.2127,289.5715 C949.3412,294.0177 995.1418,298.53 1033.7435,302.3332" fill="none" style="stroke:#000000;stroke-width:1;"/><text fill="#000000" font-family="'sans-serif'" font-size="13" lengthAdjust="spacing" textLength="95.1069" x="924" y="288.4785">generic refresh</text></g><?plantuml-src PLFBRjj03BphAnXVSebiD4XRm8S0WTEYxg45clO3c1KbBIBjBhYKq_vzILbs5l59V0p5cQ5q3Sb3ZXCxsa92zu8TvOsBZGzThN6GJMQt6MEZPH-469tu0vLnRTsrvEtjnxiFzUsdptVLDNp70mAowxsGaua9N8-XqosxE8uO6j2q6OWpZ5CM2570nP259pT7Zaa8Vl_PGsHuI4bhOuf16UMrll-Hiky2C66EOGjkyDQ1tAEjMbOyKuy7h_EllHy8iC4aAWpEv6EuWJX9ckG6R82fPSgzFaD3hD1rTIKzZGHfG1-ggyJOZGW3_jCno2C91gpoYmy96KTegCLfaAyno0_KiTKJXloahsfN1KfPDl7LcBGuP2ewptg2ZkCKcbqSbBYmpcjBnLNYHKNiPgNrNWacOndaxEYNl-Gc4rLL0xK24e5zrmiqdcbMMvrDX9LP-s2E4Ay0irbTjitoigrvqLvMFdeb9wudDiXRTedyThosmPRm4hD_EulXYlGI-tE-ci6EqINYxCOlodeIWnwZToe7xt1UgMSwU4TvbdjAgifygklxKfrvywvKE66TayQJRAkLUihw8g0idRUNnONz8iSgHcqB-fVg1-PE7sy9CA8NWFy0?></g></svg>