<svg xmlns="http://www.w3.org/2000/svg" xmlns:xlink="http://www.w3.org/1999/xlink" contentStyleType="text/css" data-diagram-type="DESCRIPTION" height="373px" preserveAspectRatio="none" style="width:1226px;height:373px;" version="1.1" viewBox="0 0 1226 373" width="1226px" zoomAndPan="magnify"><?plantuml 1.2026.6?><defs/><g><g class="title" data-source-line="396"><text fill="#000000" font-family="'sans-serif'" font-size="22" font-weight="700" lengthAdjust="spacing" textLength="460.9258" x="381.5371" y="36.2695">Client-Independent Command Execution</text></g><!--entity TUI--><g class="entity" data-qualified-name="TUI" data-source-line="399" id="ent0001"><rect fill="#FFFFFF" height="46.4883" rx="2.5" ry="2.5" style="stroke:#000000;stroke-width:1;" width="120.7939" x="11" y="325.9102"/><rect fill="#FFFFFF" height="10" style="stroke:#000000;stroke-width:1;" width="15" x="111.7939" y="330.9102"/><rect fill="#FFFFFF" height="2" style="stroke:#000000;stroke-width:1;" width="4" x="109.7939" y="332.9102"/><rect fill="#FFFFFF" height="2" style="stroke:#000000;stroke-width:1;" width="4" x="109.7939" y="336.9102"/><text fill="#000000" font-family="'sans-serif'" font-size="14" lengthAdjust="spacing" textLength="80.7939" x="26" y="359.4453">TUI Adapter</text></g><!--entity App--><g class="entity" data-qualified-name="App" data-source-line="400" id="ent0002"><rect fill="#FFFFFF" height="46.4883" rx="2.5" ry="2.5" style="stroke:#000000;stroke-width:1;" width="125.4902" x="1085" y="285.9102"/><rect fill="#FFFFFF" height="10" style="stroke:#000000;stroke-width:1;" width="15" x="1190.4902" y="290.9102"/><rect fill="#FFFFFF" height="2" style="stroke:#000000;stroke-width:1;" width="4" x="1188.4902" y="292.9102"/><rect fill="#FFFFFF" height="2" style="stroke:#000000;stroke-width:1;" width="4" x="1188.4902" y="296.9102"/><text fill="#000000" font-family="'sans-serif'" font-size="14" lengthAdjust="spacing" textLength="85.4902" x="1100" y="319.4453">App Adapter</text></g><!--entity Dispatcher--><g class="entity" data-qualified-name="Dispatcher" data-source-line="401" id="ent0003"><rect fill="#FFFFFF" height="46.4883" rx="2.5" ry="2.5" style="stroke:#000000;stroke-width:1;" width="182.4951" x="169" y="293.9102"/><rect fill="#FFFFFF" height="10" style="stroke:#000000;stroke-width:1;" width="15" x="331.4951" y="298.9102"/><rect fill="#FFFFFF" height="2" style="stroke:#000000;stroke-width:1;" width="4" x="329.4951" y="300.9102"/><rect fill="#FFFFFF" height="2" style="stroke:#000000;stroke-width:1;" width="4" x="329.4951" y="304.9102"/><text fill="#000000" font-family="'sans-serif'" font-size="14" lengthAdjust="spacing" textLength="142.4951" x="184" y="327.4453">CommandDispatcher</text></g><!--entity Handler--><g class="entity" data-qualified-name="Handler" data-source-line="402" id="ent0004"><rect fill="#FFFFFF" height="46.4883" rx="2.5" ry="2.5" style="stroke:#000000;stroke-width:1;" width="162.7529" x="509" y="191.9102"/><rect fill="#FFFFFF" height="10" style="stroke:#000000;stroke-width:1;" width="15" x="651.7529" y="196.9102"/><rect fill="#FFFFFF" height="2" style="stroke:#000000;stroke-width:1;" width="4" x="649.7529" y="198.9102"/><rect fill="#FFFFFF" height="2" style="stroke:#000000;stroke-width:1;" width="4" x="649.7529" y="202.9102"/><text fill="#000000" font-family="'sans-serif'" font-size="14" lengthAdjust="spacing" textLength="122.7529" x="524" y="225.4453">CommandHandler</text></g><!--entity Interaction--><g class="entity" data-qualified-name="Interaction" data-source-line="403" id="ent0005"><rect fill="#FFFFFF" height="46.4883" rx="2.5" ry="2.5" style="stroke:#000000;stroke-width:1;" width="182.6182" x="726.5" y="63.9102"/><rect fill="#FFFFFF" height="10" style="stroke:#000000;stroke-width:1;" width="15" x="889.1182" y="68.9102"/><rect fill="#FFFFFF" height="2" style="stroke:#000000;stroke-width:1;" width="4" x="887.1182" y="70.9102"/><rect fill="#FFFFFF" height="2" style="stroke:#000000;stroke-width:1;" width="4" x="887.1182" y="74.9102"/><text fill="#000000" font-family="'sans-serif'" font-size="14" lengthAdjust="spacing" textLength="142.6182" x="741.5" y="97.4453">CommandInteraction</text></g><!--entity Output--><g class="entity" data-qualified-name="Output" data-source-line="404" id="ent0006"><rect fill="#FFFFFF" height="46.4883" rx="2.5" ry="2.5" style="stroke:#000000;stroke-width:1;" width="157.1953" x="739.5" y="127.9102"/><rect fill="#FFFFFF" height="10" style="stroke:#000000;stroke-width:1;" width="15" x="876.6953" y="132.9102"/><rect fill="#FFFFFF" height="2" style="stroke:#000000;stroke-width:1;" width="4" x="874.6953" y="134.9102"/><rect fill="#FFFFFF" height="2" style="stroke:#000000;stroke-width:1;" width="4" x="874.6953" y="138.9102"/><text fill="#000000" font-family="'sans-serif'" font-size="14" lengthAdjust="spacing" textLength="117.1953" x="754.5" y="161.4453">CommandOutput</text></g><!--entity Result--><g class="entity" data-qualified-name="Result" data-source-line="405" id="ent0007"><rect fill="#FFFFFF" height="46.4883" rx="2.5" ry="2.5" style="stroke:#000000;stroke-width:1;" width="217.8232" x="709" y="255.9102"/><rect fill="#FFFFFF" height="10" style="stroke:#000000;stroke-width:1;" width="15" x="906.8232" y="260.9102"/><rect fill="#FFFFFF" height="2" style="stroke:#000000;stroke-width:1;" width="4" x="904.8232" y="262.9102"/><rect fill="#FFFFFF" height="2" style="stroke:#000000;stroke-width:1;" width="4" x="904.8232" y="266.9102"/><text fill="#000000" font-family="'sans-serif'" font-size="14" lengthAdjust="spacing" textLength="177.8232" x="724" y="289.4453">CommandExecutionResult</text></g><!--entity Services--><g class="entity" data-qualified-name="Services" data-source-line="406" id="ent0008"><rect fill="#FFFFFF" height="46.4883" rx="2.5" ry="2.5" style="stroke:#000000;stroke-width:1;" width="175.748" x="730" y="191.9102"/><rect fill="#FFFFFF" height="10" style="stroke:#000000;stroke-width:1;" width="15" x="885.748" y="196.9102"/><rect fill="#FFFFFF" height="2" style="stroke:#000000;stroke-width:1;" width="4" x="883.748" y="198.9102"/><rect fill="#FFFFFF" height="2" style="stroke:#000000;stroke-width:1;" width="4" x="883.748" y="202.9102"/><text fill="#000000" font-family="'sans-serif'" font-size="14" lengthAdjust="spacing" textLength="135.748" x="745" y="225.4453">Application Services</text></g><g class="link" data-entity-1="ent0001" data-entity-2="ent0003" data-link-type="dependency" id="lnk9"><polygon fill="#000000" points="168.7739,332.3913,159.227,329.9709,163.8459,333.2369,160.5799,337.8557,168.7739,332.3913" style="stroke:#000000;stroke-width:1;stroke-linejoin:miter;stroke-miterlimit:10;"/><path d="M132.0225,338.6972 C143.7488,336.6852 151.3695,335.3776 163.8459,333.2369" fill="none" style="stroke:#000000;stroke-width:1;"/></g><g class="link" data-entity-1="ent0002" data-entity-2="ent0003" data-link-type="dependency" id="lnk10"><polygon fill="#000000" points="351.2178,316.1003,360.2534,320.0193,356.2176,316.0554,360.1815,312.0196,351.2178,316.1003" style="stroke:#000000;stroke-width:1;stroke-linejoin:miter;stroke-miterlimit:10;"/><path d="M1084.5285,309.4765 C1040.5624,309.8779 980.1602,310.4285 927,310.9102 C721.0431,312.7762 484.2595,314.9054 356.2176,316.0554" fill="none" style="stroke:#000000;stroke-width:1;"/></g><g class="link" data-entity-1="ent0003" data-entity-2="ent0004" data-link-type="dependency" id="lnk11"><polygon fill="#000000" points="515.3546,237.9325,505.5732,236.7812,510.5795,239.4152,507.9455,244.4214,515.3546,237.9325" style="stroke:#000000;stroke-width:1;stroke-linejoin:miter;stroke-miterlimit:10;"/><path d="M335.1314,293.8922 C388.9684,277.1757 456.7392,256.1327 510.5795,239.4152" fill="none" style="stroke:#000000;stroke-width:1;"/></g><g class="link" data-entity-1="ent0004" data-entity-2="ent0005" data-link-type="dependency" id="lnk12"><polygon fill="#000000" points="728.3126,110.0102,718.4695,109.6732,723.6767,111.8833,721.4666,117.0906,728.3126,110.0102" style="stroke:#000000;stroke-width:1;stroke-linejoin:miter;stroke-miterlimit:10;"/><path d="M614.224,191.6194 C636.5314,169.9735 672.4422,138.2477 709,118.9102 C715.1367,115.6641 717.0123,114.5762 723.6767,111.8833" fill="none" style="stroke:#000000;stroke-width:1;"/></g><g class="link" data-entity-1="ent0004" data-entity-2="ent0006" data-link-type="dependency" id="lnk13"><polygon fill="#000000" points="739.4314,172.9252,729.6813,171.5344,734.6214,174.2903,731.8655,179.2305,739.4314,172.9252" style="stroke:#000000;stroke-width:1;stroke-linejoin:miter;stroke-miterlimit:10;"/><path d="M672.2737,191.9855 C694.1369,185.7804 712.9387,180.4442 734.6214,174.2903" fill="none" style="stroke:#000000;stroke-width:1;"/></g><g class="link" data-entity-1="ent0004" data-entity-2="ent0008" data-link-type="dependency" id="lnk14"><polygon fill="#000000" points="729.9217,214.9102,720.9217,210.9102,724.9217,214.9102,720.9217,218.9102,729.9217,214.9102" style="stroke:#000000;stroke-width:1;stroke-linejoin:miter;stroke-miterlimit:10;"/><path d="M672.2737,214.9102 C690.9775,214.9102 705.961,214.9102 724.9217,214.9102" fill="none" style="stroke:#000000;stroke-width:1;"/></g><g class="link" data-entity-1="ent0004" data-entity-2="ent0007" data-link-type="dependency" id="lnk15"><polygon fill="#000000" points="735.6528,255.8227,728.0869,249.5174,730.8428,254.4576,725.9026,257.2135,735.6528,255.8227" style="stroke:#000000;stroke-width:1;stroke-linejoin:miter;stroke-miterlimit:10;"/><path d="M672.2737,237.8349 C692.8731,243.6812 710.2149,248.6031 730.8428,254.4576" fill="none" style="stroke:#000000;stroke-width:1;"/></g><g class="link" data-entity-1="ent0007" data-entity-2="ent0001" data-link-type="dependency" id="lnk16"><polygon fill="#000000" points="132.0064,350.0145,140.9499,354.1394,137.006,350.0841,141.0613,346.1402,132.0064,350.0145" style="stroke:#000000;stroke-width:1;stroke-linejoin:miter;stroke-miterlimit:10;"/><path d="M711.7977,301.9354 C648.1794,315.0235 565.2732,330.6085 491,339.9102 C429.1326,347.6582 413.3185,346.9091 351,348.9102 C275.491,351.3347 193.4062,350.8692 137.006,350.0841" fill="none" style="stroke:#000000;stroke-width:1;"/><text fill="#000000" font-family="'sans-serif'" font-size="13" lengthAdjust="spacing" textLength="118.3013" x="371" y="335.4785">apply refresh hints</text></g><g class="link" data-entity-1="ent0007" data-entity-2="ent0002" data-link-type="dependency" id="lnk17"><polygon fill="#000000" points="1084.8081,303.259,1076.2105,298.4547,1079.8289,302.8029,1075.4807,306.4213,1084.8081,303.259" style="stroke:#000000;stroke-width:1;stroke-linejoin:miter;stroke-miterlimit:10;"/><path d="M927.1434,288.8164 C979.498,293.6123 1035.479,298.7403 1079.8289,302.8029" fill="none" style="stroke:#000000;stroke-width:1;"/><text fill="#000000" font-family="'sans-serif'" font-size="13" lengthAdjust="spacing" textLength="118.3013" x="947" y="287.4785">apply refresh hints</text></g><?plantuml-src RLBBRjj03BphAnXVSebiD4XRm8S2WTEYxg45clO3c1KjBIBjBhYKq_nzILbH5d5EucEud1dg4fA774Tsj8M4xX5RoXiN6n_QMkCWcynkCyH6opu8CJhnHohZshfhoTlhZpSVwkjFds-gI_Y1HmHartaX9oCJk0v3grjsSHWmDA1fqnDd6COi4AA0Yo4BZswA79CG_FcxXyXmcvBMXXI3CifhVV-Eicy3C66EOGkkzzQ1tA6jcbSyK8T7h_DFdUy9iC4aAWmMyZ5SGHmbZN85Di1qOCgTVaD3hD1rTI4T3GIfHn-gYyJO3WWzFkiOv8440rRvqOU4Z0CqTC2nbsyno4_KiTKzXdolJnrM1KfPDl79c1omprHq7lG4BSSnDBlOAt5XdTUMYgl4YuhOJKhhlH9CnZB8ukZNV-H64rLLFHq490BxjXDeFDEajbfCX9LPUskE4Ay0irbTjitoigrvqPvNtdab9wuZDiXhTexyVhgsmURm7BD_FOlXYlGS-skwci5EqJbYSUCtPJs9GK_H6vMzTpYjr3CTlQCyoNr9gifygkilfJhpvasfSC8wBnfVP5kjr5FMPm5bQTbU5cVsinoh6BKje6fuNdxTJd_kN8ACxBkW_m00?></g></svg>