<svg xmlns="http://www.w3.org/2000/svg" xmlns:xlink="http://www.w3.org/1999/xlink" contentStyleType="text/css" data-diagram-type="DESCRIPTION" height="303px" preserveAspectRatio="none" style="width:920px;height:303px;" version="1.1" viewBox="0 0 920 303" width="920px" zoomAndPan="magnify"><?plantuml 1.2026.6?><defs/><g><g class="title" data-source-line="415"><text fill="#000000" font-family="'sans-serif'" font-size="22" font-weight="700" lengthAdjust="spacing" textLength="349.3252" x="284.3374" y="36.2695">Agent UI Command Interaction</text></g><!--entity GUI--><g class="entity" data-qualified-name="GUI" data-source-line="418" id="ent0001"><rect fill="#FFFFFF" height="46.4883" rx="2.5" ry="2.5" style="stroke:#000000;stroke-width:1;" width="98.2764" x="11" y="229.9102"/><rect fill="#FFFFFF" height="10" style="stroke:#000000;stroke-width:1;" width="15" x="89.2764" y="234.9102"/><rect fill="#FFFFFF" height="2" style="stroke:#000000;stroke-width:1;" width="4" x="87.2764" y="236.9102"/><rect fill="#FFFFFF" height="2" style="stroke:#000000;stroke-width:1;" width="4" x="87.2764" y="240.9102"/><text fill="#000000" font-family="'sans-serif'" font-size="14" lengthAdjust="spacing" textLength="58.2764" x="26" y="263.4453">Agent UI</text></g><!--entity Dispatcher--><g class="entity" data-qualified-name="Dispatcher" data-source-line="419" id="ent0002"><rect fill="#FFFFFF" height="46.4883" rx="2.5" ry="2.5" style="stroke:#000000;stroke-width:1;" width="182.4951" x="146" y="196.9102"/><rect fill="#FFFFFF" height="10" style="stroke:#000000;stroke-width:1;" width="15" x="308.4951" y="201.9102"/><rect fill="#FFFFFF" height="2" style="stroke:#000000;stroke-width:1;" width="4" x="306.4951" y="203.9102"/><rect fill="#FFFFFF" height="2" style="stroke:#000000;stroke-width:1;" width="4" x="306.4951" y="207.9102"/><text fill="#000000" font-family="'sans-serif'" font-size="14" lengthAdjust="spacing" textLength="142.4951" x="161" y="230.4453">CommandDispatcher</text></g><!--entity Handler--><g class="entity" data-qualified-name="Handler" data-source-line="420" id="ent0003"><rect fill="#FFFFFF" height="46.4883" rx="2.5" ry="2.5" style="stroke:#000000;stroke-width:1;" width="162.7529" x="486" y="191.9102"/><rect fill="#FFFFFF" height="10" style="stroke:#000000;stroke-width:1;" width="15" x="628.7529" y="196.9102"/><rect fill="#FFFFFF" height="2" style="stroke:#000000;stroke-width:1;" width="4" x="626.7529" y="198.9102"/><rect fill="#FFFFFF" height="2" style="stroke:#000000;stroke-width:1;" width="4" x="626.7529" y="202.9102"/><text fill="#000000" font-family="'sans-serif'" font-size="14" lengthAdjust="spacing" textLength="122.7529" x="501" y="225.4453">CommandHandler</text></g><!--entity Interaction--><g class="entity" data-qualified-name="Interaction" data-source-line="421" id="ent0004"><rect fill="#FFFFFF" height="46.4883" rx="2.5" ry="2.5" style="stroke:#000000;stroke-width:1;" width="182.6182" x="703.5" y="127.9102"/><rect fill="#FFFFFF" height="10" style="stroke:#000000;stroke-width:1;" width="15" x="866.1182" y="132.9102"/><rect fill="#FFFFFF" height="2" style="stroke:#000000;stroke-width:1;" width="4" x="864.1182" y="134.9102"/><rect fill="#FFFFFF" height="2" style="stroke:#000000;stroke-width:1;" width="4" x="864.1182" y="138.9102"/><text fill="#000000" font-family="'sans-serif'" font-size="14" lengthAdjust="spacing" textLength="142.6182" x="718.5" y="161.4453">CommandInteraction</text></g><!--entity Output--><g class="entity" data-qualified-name="Output" data-source-line="422" id="ent0005"><rect fill="#FFFFFF" height="46.4883" rx="2.5" ry="2.5" style="stroke:#000000;stroke-width:1;" width="157.1953" x="716.5" y="191.9102"/><rect fill="#FFFFFF" height="10" style="stroke:#000000;stroke-width:1;" width="15" x="853.6953" y="196.9102"/><rect fill="#FFFFFF" height="2" style="stroke:#000000;stroke-width:1;" width="4" x="851.6953" y="198.9102"/><rect fill="#FFFFFF" height="2" style="stroke:#000000;stroke-width:1;" width="4" x="851.6953" y="202.9102"/><text fill="#000000" font-family="'sans-serif'" font-size="14" lengthAdjust="spacing" textLength="117.1953" x="731.5" y="225.4453">CommandOutput</text></g><!--entity Result--><g class="entity" data-qualified-name="Result" data-source-line="423" id="ent0006"><rect fill="#FFFFFF" height="46.4883" rx="2.5" ry="2.5" style="stroke:#000000;stroke-width:1;" width="217.8232" x="686" y="255.9102"/><rect fill="#FFFFFF" height="10" style="stroke:#000000;stroke-width:1;" width="15" x="883.8232" y="260.9102"/><rect fill="#FFFFFF" height="2" style="stroke:#000000;stroke-width:1;" width="4" x="881.8232" y="262.9102"/><rect fill="#FFFFFF" height="2" style="stroke:#000000;stroke-width:1;" width="4" x="881.8232" y="266.9102"/><text fill="#000000" font-family="'sans-serif'" font-size="14" lengthAdjust="spacing" textLength="177.8232" x="701" y="289.4453">CommandExecutionResult</text></g><!--entity Services--><g class="entity" data-qualified-name="Services" data-source-line="424" id="ent0007"><rect fill="#FFFFFF" height="46.4883" rx="2.5" ry="2.5" style="stroke:#000000;stroke-width:1;" width="175.748" x="707" y="63.9102"/><rect fill="#FFFFFF" height="10" style="stroke:#000000;stroke-width:1;" width="15" x="862.748" y="68.9102"/><rect fill="#FFFFFF" height="2" style="stroke:#000000;stroke-width:1;" width="4" x="860.748" y="70.9102"/><rect fill="#FFFFFF" height="2" style="stroke:#000000;stroke-width:1;" width="4" x="860.748" y="74.9102"/><text fill="#000000" font-family="'sans-serif'" font-size="14" lengthAdjust="spacing" textLength="135.748" x="722" y="97.4453">Application Services</text></g><g class="link" data-entity-1="ent0001" data-entity-2="ent0002" data-link-type="dependency" id="lnk8"><polygon fill="#000000" points="145.9038,236.8997,136.3185,234.6367,140.9904,237.8262,137.8009,242.4982,145.9038,236.8997" style="stroke:#000000;stroke-width:1;stroke-linejoin:miter;stroke-miterlimit:10;"/><path d="M109.2828,243.8054 C120.715,241.6496 128.3599,240.208 140.9904,237.8262" fill="none" style="stroke:#000000;stroke-width:1;"/></g><g class="link" data-entity-1="ent0002" data-entity-2="ent0003" data-link-type="dependency" id="lnk9"><polygon fill="#000000" points="485.7557,216.1391,476.6959,212.2766,480.7563,216.2152,476.8176,220.2756,485.7557,216.1391" style="stroke:#000000;stroke-width:1;stroke-linejoin:miter;stroke-miterlimit:10;"/><path d="M328.1986,218.5373 C377.4879,217.7871 433.0301,216.9417 480.7563,216.2152" fill="none" style="stroke:#000000;stroke-width:1;"/></g><g class="link" data-entity-1="ent0003" data-entity-2="ent0004" data-link-type="dependency" id="lnk10"><polygon fill="#000000" points="712.6528,173.9976,702.9026,172.6069,707.8428,175.3628,705.0869,180.3029,712.6528,173.9976" style="stroke:#000000;stroke-width:1;stroke-linejoin:miter;stroke-miterlimit:10;"/><path d="M649.2737,191.9855 C669.8731,186.1391 687.2149,181.2172 707.8428,175.3628" fill="none" style="stroke:#000000;stroke-width:1;"/></g><g class="link" data-entity-1="ent0003" data-entity-2="ent0005" data-link-type="dependency" id="lnk11"><polygon fill="#000000" points="716.4314,214.9102,707.4314,210.9102,711.4314,214.9102,707.4314,218.9102,716.4314,214.9102" style="stroke:#000000;stroke-width:1;stroke-linejoin:miter;stroke-miterlimit:10;"/><path d="M649.2737,214.9102 C671.1369,214.9102 689.7488,214.9102 711.4314,214.9102" fill="none" style="stroke:#000000;stroke-width:1;"/></g><g class="link" data-entity-1="ent0003" data-entity-2="ent0007" data-link-type="dependency" id="lnk12"><polygon fill="#000000" points="706.7228,109.4453,696.8818,109.05,702.0759,111.2909,699.8349,116.485,706.7228,109.4453" style="stroke:#000000;stroke-width:1;stroke-linejoin:miter;stroke-miterlimit:10;"/><path d="M591.224,191.6194 C613.5314,169.9735 649.4422,138.2477 686,118.9102 C692.5688,115.4355 694.9203,114.133 702.0759,111.2909" fill="none" style="stroke:#000000;stroke-width:1;"/></g><g class="link" data-entity-1="ent0003" data-entity-2="ent0006" data-link-type="dependency" id="lnk13"><polygon fill="#000000" points="712.6528,255.8227,705.0869,249.5174,707.8428,254.4576,702.9026,257.2135,712.6528,255.8227" style="stroke:#000000;stroke-width:1;stroke-linejoin:miter;stroke-miterlimit:10;"/><path d="M649.2737,237.8349 C669.8731,243.6812 687.2149,248.6031 707.8428,254.4576" fill="none" style="stroke:#000000;stroke-width:1;"/></g><g class="link" data-entity-1="ent0006" data-entity-2="ent0001" data-link-type="dependency" id="lnk14"><polygon fill="#000000" points="109.0942,254.6161,117.9467,258.9326,114.091,254.7933,118.2303,250.9376,109.0942,254.6161" style="stroke:#000000;stroke-width:1;stroke-linejoin:miter;stroke-miterlimit:10;"/><path d="M685.7941,275.072 C523.9269,269.3305 230.3441,258.9169 114.091,254.7933" fill="none" style="stroke:#000000;stroke-width:1;"/><text fill="#000000" font-family="'sans-serif'" font-size="13" lengthAdjust="spacing" textLength="118.3013" x="348" y="258.4785">apply refresh hints</text></g><?plantuml-src PLDDRzim3BtxLx2vz58dIv1z88S1HRkFxh012xgT6PcsXTYIG57f-kz79N6c8JVgyP5yZxHl8LY8Fh6X3GGqU-meBenlhEjgZPqi8fl5w1k5hHDYD68FLCPrpiubRbPlryjwzUxzkhg5RtZ0I-EMlT9TS-nr7yBya6YpNA_gvOSt4nVPz5R8I682qwFhjF31ZoEw1lJP3CGHnXG5d1SmtaNXP0H-9Rg3txJRUhCdkOCT-vT8V0UUGLNlnOTQsOBM4MlT6BnJNt6kanyfsiu14qRlDh0d2fbndBcZ7WzMcrZNK53rMfITZF3b-KbB563T4cGk9oTsLDqOS6S7AvQq_utqf60OT7Hr4nYx4M70Lvy4uaY23gkujouWuwXQMqo3V5Qftr7BPbjqSQipsbd1YZqs_YNFRN68L6HsUhsEVNBDWnzKjh3MQqfbLs9b8BZFzmGLFwtrQJgYTrKrK2iW7jXslK1ZcKw9oyPWDZMO0SQyXI9tRlbeTQIONZUjb7-lQ-RNqqapxHnUSmfzcLVAlUB-I19qhqexHTUCJt_8f5pyaw8kEbDFqNyMGnYimUD8NVx16ef7kzEZglBvw_fZwQwmdJEJeSbZnahn9NvMMqANKILubdhMdf6iOmEeWb_rSsoPOW-z_fVnBm00?></g></svg>