<svg xmlns="http://www.w3.org/2000/svg" xmlns:xlink="http://www.w3.org/1999/xlink" contentStyleType="text/css" data-diagram-type="DESCRIPTION" height="303px" preserveAspectRatio="none" style="width:944px;height:303px;" version="1.1" viewBox="0 0 944 303" width="944px" zoomAndPan="magnify"><?plantuml 1.2026.6?><defs/><g><g class="title" data-source-line="415"><text fill="#000000" font-family="'sans-serif'" font-size="22" font-weight="700" lengthAdjust="spacing" textLength="293.4551" x="324.2725" y="36.2695">GUI Command Adaptation</text></g><!--entity GUI--><g class="entity" data-qualified-name="GUI" data-source-line="418" id="ent0001"><rect fill="#FFFFFF" height="46.4883" rx="2.5" ry="2.5" style="stroke:#000000;stroke-width:1;" width="122.0586" x="11" y="229.9102"/><rect fill="#FFFFFF" height="10" style="stroke:#000000;stroke-width:1;" width="15" x="113.0586" y="234.9102"/><rect fill="#FFFFFF" height="2" style="stroke:#000000;stroke-width:1;" width="4" x="111.0586" y="236.9102"/><rect fill="#FFFFFF" height="2" style="stroke:#000000;stroke-width:1;" width="4" x="111.0586" y="240.9102"/><text fill="#000000" font-family="'sans-serif'" font-size="14" lengthAdjust="spacing" textLength="82.0586" x="26" y="263.4453">GUI Adapter</text></g><!--entity Dispatcher--><g class="entity" data-qualified-name="Dispatcher" data-source-line="419" id="ent0002"><rect fill="#FFFFFF" height="46.4883" rx="2.5" ry="2.5" style="stroke:#000000;stroke-width:1;" width="182.4951" x="170" y="196.9102"/><rect fill="#FFFFFF" height="10" style="stroke:#000000;stroke-width:1;" width="15" x="332.4951" y="201.9102"/><rect fill="#FFFFFF" height="2" style="stroke:#000000;stroke-width:1;" width="4" x="330.4951" y="203.9102"/><rect fill="#FFFFFF" height="2" style="stroke:#000000;stroke-width:1;" width="4" x="330.4951" y="207.9102"/><text fill="#000000" font-family="'sans-serif'" font-size="14" lengthAdjust="spacing" textLength="142.4951" x="185" y="230.4453">CommandDispatcher</text></g><!--entity Handler--><g class="entity" data-qualified-name="Handler" data-source-line="420" id="ent0003"><rect fill="#FFFFFF" height="46.4883" rx="2.5" ry="2.5" style="stroke:#000000;stroke-width:1;" width="162.7529" x="510" y="191.9102"/><rect fill="#FFFFFF" height="10" style="stroke:#000000;stroke-width:1;" width="15" x="652.7529" y="196.9102"/><rect fill="#FFFFFF" height="2" style="stroke:#000000;stroke-width:1;" width="4" x="650.7529" y="198.9102"/><rect fill="#FFFFFF" height="2" style="stroke:#000000;stroke-width:1;" width="4" x="650.7529" y="202.9102"/><text fill="#000000" font-family="'sans-serif'" font-size="14" lengthAdjust="spacing" textLength="122.7529" x="525" y="225.4453">CommandHandler</text></g><!--entity Interaction--><g class="entity" data-qualified-name="Interaction" data-source-line="421" id="ent0004"><rect fill="#FFFFFF" height="46.4883" rx="2.5" ry="2.5" style="stroke:#000000;stroke-width:1;" width="182.6182" x="727.5" y="127.9102"/><rect fill="#FFFFFF" height="10" style="stroke:#000000;stroke-width:1;" width="15" x="890.1182" y="132.9102"/><rect fill="#FFFFFF" height="2" style="stroke:#000000;stroke-width:1;" width="4" x="888.1182" y="134.9102"/><rect fill="#FFFFFF" height="2" style="stroke:#000000;stroke-width:1;" width="4" x="888.1182" y="138.9102"/><text fill="#000000" font-family="'sans-serif'" font-size="14" lengthAdjust="spacing" textLength="142.6182" x="742.5" y="161.4453">CommandInteraction</text></g><!--entity Output--><g class="entity" data-qualified-name="Output" data-source-line="422" id="ent0005"><rect fill="#FFFFFF" height="46.4883" rx="2.5" ry="2.5" style="stroke:#000000;stroke-width:1;" width="157.1953" x="740.5" y="191.9102"/><rect fill="#FFFFFF" height="10" style="stroke:#000000;stroke-width:1;" width="15" x="877.6953" y="196.9102"/><rect fill="#FFFFFF" height="2" style="stroke:#000000;stroke-width:1;" width="4" x="875.6953" y="198.9102"/><rect fill="#FFFFFF" height="2" style="stroke:#000000;stroke-width:1;" width="4" x="875.6953" y="202.9102"/><text fill="#000000" font-family="'sans-serif'" font-size="14" lengthAdjust="spacing" textLength="117.1953" x="755.5" y="225.4453">CommandOutput</text></g><!--entity Result--><g class="entity" data-qualified-name="Result" data-source-line="423" id="ent0006"><rect fill="#FFFFFF" height="46.4883" rx="2.5" ry="2.5" style="stroke:#000000;stroke-width:1;" width="217.8232" x="710" y="255.9102"/><rect fill="#FFFFFF" height="10" style="stroke:#000000;stroke-width:1;" width="15" x="907.8232" y="260.9102"/><rect fill="#FFFFFF" height="2" style="stroke:#000000;stroke-width:1;" width="4" x="905.8232" y="262.9102"/><rect fill="#FFFFFF" height="2" style="stroke:#000000;stroke-width:1;" width="4" x="905.8232" y="266.9102"/><text fill="#000000" font-family="'sans-serif'" font-size="14" lengthAdjust="spacing" textLength="177.8232" x="725" y="289.4453">CommandExecutionResult</text></g><!--entity Services--><g class="entity" data-qualified-name="Services" data-source-line="424" id="ent0007"><rect fill="#FFFFFF" height="46.4883" rx="2.5" ry="2.5" style="stroke:#000000;stroke-width:1;" width="175.748" x="731" y="63.9102"/><rect fill="#FFFFFF" height="10" style="stroke:#000000;stroke-width:1;" width="15" x="886.748" y="68.9102"/><rect fill="#FFFFFF" height="2" style="stroke:#000000;stroke-width:1;" width="4" x="884.748" y="70.9102"/><rect fill="#FFFFFF" height="2" style="stroke:#000000;stroke-width:1;" width="4" x="884.748" y="74.9102"/><text fill="#000000" font-family="'sans-serif'" font-size="14" lengthAdjust="spacing" textLength="135.748" x="746" y="97.4453">Application Services</text></g><g class="link" data-entity-1="ent0001" data-entity-2="ent0002" data-link-type="dependency" id="lnk8"><polygon fill="#000000" points="169.9619,235.7992,160.4037,233.4242,165.038,236.6682,161.794,241.3024,169.9619,235.7992" style="stroke:#000000;stroke-width:1;stroke-linejoin:miter;stroke-miterlimit:10;"/><path d="M133.1973,242.2871 C144.942,240.2145 152.5691,238.8685 165.038,236.6682" fill="none" style="stroke:#000000;stroke-width:1;"/></g><g class="link" data-entity-1="ent0002" data-entity-2="ent0003" data-link-type="dependency" id="lnk9"><polygon fill="#000000" points="509.7557,216.1391,500.6959,212.2766,504.7563,216.2152,500.8176,220.2756,509.7557,216.1391" style="stroke:#000000;stroke-width:1;stroke-linejoin:miter;stroke-miterlimit:10;"/><path d="M352.1986,218.5373 C401.4879,217.7871 457.0301,216.9417 504.7563,216.2152" fill="none" style="stroke:#000000;stroke-width:1;"/></g><g class="link" data-entity-1="ent0003" data-entity-2="ent0004" data-link-type="dependency" id="lnk10"><polygon fill="#000000" points="736.6528,173.9976,726.9026,172.6069,731.8428,175.3628,729.0869,180.3029,736.6528,173.9976" style="stroke:#000000;stroke-width:1;stroke-linejoin:miter;stroke-miterlimit:10;"/><path d="M673.2737,191.9855 C693.8731,186.1391 711.2149,181.2172 731.8428,175.3628" fill="none" style="stroke:#000000;stroke-width:1;"/></g><g class="link" data-entity-1="ent0003" data-entity-2="ent0005" data-link-type="dependency" id="lnk11"><polygon fill="#000000" points="740.4314,214.9102,731.4314,210.9102,735.4314,214.9102,731.4314,218.9102,740.4314,214.9102" style="stroke:#000000;stroke-width:1;stroke-linejoin:miter;stroke-miterlimit:10;"/><path d="M673.2737,214.9102 C695.1369,214.9102 713.7488,214.9102 735.4314,214.9102" fill="none" style="stroke:#000000;stroke-width:1;"/></g><g class="link" data-entity-1="ent0003" data-entity-2="ent0007" data-link-type="dependency" id="lnk12"><polygon fill="#000000" points="730.7228,109.4453,720.8818,109.05,726.0759,111.2909,723.8349,116.485,730.7228,109.4453" style="stroke:#000000;stroke-width:1;stroke-linejoin:miter;stroke-miterlimit:10;"/><path d="M615.224,191.6194 C637.5314,169.9735 673.4422,138.2477 710,118.9102 C716.5688,115.4355 718.9203,114.133 726.0759,111.2909" fill="none" style="stroke:#000000;stroke-width:1;"/></g><g class="link" data-entity-1="ent0003" data-entity-2="ent0006" data-link-type="dependency" id="lnk13"><polygon fill="#000000" points="736.6528,255.8227,729.0869,249.5174,731.8428,254.4576,726.9026,257.2135,736.6528,255.8227" style="stroke:#000000;stroke-width:1;stroke-linejoin:miter;stroke-miterlimit:10;"/><path d="M673.2737,237.8349 C693.8731,243.6812 711.2149,248.6031 731.8428,254.4576" fill="none" style="stroke:#000000;stroke-width:1;"/></g><g class="link" data-entity-1="ent0006" data-entity-2="ent0001" data-link-type="dependency" id="lnk14"><polygon fill="#000000" points="133.0209,255.0048,141.8759,259.3163,138.0179,255.1792,142.155,251.3212,133.0209,255.0048" style="stroke:#000000;stroke-width:1;stroke-linejoin:miter;stroke-miterlimit:10;"/><path d="M709.9566,275.1395 C550.8031,269.5852 263.6462,259.5636 138.0179,255.1792" fill="none" style="stroke:#000000;stroke-width:1;"/><text fill="#000000" font-family="'sans-serif'" font-size="13" lengthAdjust="spacing" textLength="118.3013" x="372" y="258.4785">apply refresh hints</text></g><?plantuml-src PLFBZjim3BpxAxYvx2LEcY1z88S2Yzq-jeSMQD3spCYqBSIM18hATl--bFEeWDmeSeOSZgHx21QYJsne2m7D0JkAI-CRwxfQOoVBo6Ov-aRJrWan6h57AkCwLnSIj-ktcrMzVlT-Kzt3DppYjN7BNk6kcNezXB0u9jgkDkjwzU7D1OjiUYja9361wT5rIdpquuYk0Jqs0t64CKK1vmMCTr4u6O7VYURmX_OxRmuaSzYpVud4S_0CgleWFjIA5hIEM7bZy4xtYWkT_4JHTWwOC7gtXGDHo8XfvfvwF5fjObr3GTKhAMyomfTVpqhH1AjBaB6SdDXHTMF0lHsiMDB-TzAJ9iEWewkxmDYD20E--YGGHn9qMCM3TG4PHzNQOXhaiqhzZagRxT35dSvePmKgzjZubpotnI5IKTdhxNNiasiU_Q2oXPMl9PLTYPM19jqNHnyQ389YlQkgWLe1yS2swmKQoteBkN3r2cQPEb68Pu0njohAvwPFLkU9wTLcXVm_tIA_dkupmyxXBURvyiAyoxZYU8lzaIIegGexHRU8Jt_9f4p-IL5Tpj1JL6wfJtEmPd85rFcZDHIdTI-7gif6rFN7ShjYxLovB7JPCUTAyMN-hBPCNKULoRFKi_QSoJgsW2huLTzYonHxwFLJndy0?></g></svg>