<svg xmlns="http://www.w3.org/2000/svg" xmlns:xlink="http://www.w3.org/1999/xlink" contentStyleType="text/css" data-diagram-type="DESCRIPTION" height="701px" preserveAspectRatio="none" style="width:2129px;height:701px;background:#FFFFFF;" version="1.1" viewBox="0 0 2129 701" width="2129px" zoomAndPan="magnify"><?plantuml 1.2026.6?><defs/><g><g class="title" data-source-line="611"><text fill="#000000" font-family="Helvetica" font-size="22" font-weight="700" lengthAdjust="spacing" textLength="580.6045" x="773.2789" y="31.9404">Agent Runtime and CampusMate Attachment Boundary</text></g><!--entity Client--><g class="entity" data-qualified-name="Client" data-source-line="613" id="ent0001"><ellipse cx="176.2078" cy="131" fill="#FFFFFF" rx="8" ry="8" style="stroke:#000000;stroke-width:1;"/><path d="M176.2078,139 L176.2078,166 M163.2078,147 L189.2078,147 M176.2078,166 L163.2078,181 M176.2078,166 L189.2078,181" fill="none" style="stroke:#000000;stroke-width:1;"/><text fill="#000000" font-family="Helvetica" font-size="14" lengthAdjust="spacing" textLength="54.4756" x="148.97" y="193.7803">Agent UI</text></g><!--entity PublicApi--><g class="entity" data-qualified-name="PublicApi" data-source-line="614" id="ent0002"><rect fill="#F7F8FA" height="58" rx="2.5" ry="2.5" style="stroke:#B8BCC4;stroke-width:1;" width="264.8818" x="338.39" y="130.5"/><rect fill="#F7F8FA" height="10" style="stroke:#B8BCC4;stroke-width:1;" width="15" x="583.2718" y="135.5"/><rect fill="#F7F8FA" height="2" style="stroke:#B8BCC4;stroke-width:1;" width="4" x="581.2718" y="137.5"/><rect fill="#F7F8FA" height="2" style="stroke:#B8BCC4;stroke-width:1;" width="4" x="581.2718" y="141.5"/><text fill="#000000" font-family="Helvetica" font-size="14" lengthAdjust="spacing" textLength="224.8818" x="353.39" y="161.2803">CampusMate public Attachment API</text><text fill="#000000" font-family="Helvetica" font-size="14" lengthAdjust="spacing" textLength="86.3926" x="353.39" y="175.2803">chat_id scope</text></g><!--entity ChatStore--><g class="entity" data-qualified-name="ChatStore" data-source-line="615" id="ent0003"><path d="M893.01,141 C893.01,131 968.3855,131 968.3855,131 C968.3855,131 1043.761,131 1043.761,141 L1043.761,178 C1043.761,188 968.3855,188 968.3855,188 C968.3855,188 893.01,188 893.01,178 L893.01,141" fill="#EAF5FB" style="stroke:#B8BCC4;stroke-width:1;"/><path d="M893.01,141 C893.01,151 968.3855,151 968.3855,151 C968.3855,151 1043.761,151 1043.761,141" fill="none" style="stroke:#B8BCC4;stroke-width:1;"/><text fill="#000000" font-family="Helvetica" font-size="14" lengthAdjust="spacing" textLength="101.9375" x="903.01" y="165.7803">Mate Chat Store</text><text fill="#000000" font-family="Helvetica" font-size="14" lengthAdjust="spacing" textLength="130.751" x="903.01" y="179.7803">chat_id to session_id</text></g><!--entity AttachmentService--><g class="entity" data-qualified-name="AttachmentService" data-source-line="616" id="ent0004"><rect fill="#F7F8FA" height="58" rx="2.5" ry="2.5" style="stroke:#B8BCC4;stroke-width:1;" width="248.5303" x="844.12" y="236.5"/><rect fill="#F7F8FA" height="10" style="stroke:#B8BCC4;stroke-width:1;" width="15" x="1072.6503" y="241.5"/><rect fill="#F7F8FA" height="2" style="stroke:#B8BCC4;stroke-width:1;" width="4" x="1070.6503" y="243.5"/><rect fill="#F7F8FA" height="2" style="stroke:#B8BCC4;stroke-width:1;" width="4" x="1070.6503" y="247.5"/><text fill="#000000" font-family="Helvetica" font-size="14" lengthAdjust="spacing" textLength="208.5303" x="859.12" y="267.2803">CampusMate Attachment Service</text><text fill="#000000" font-family="Helvetica" font-size="14" lengthAdjust="spacing" textLength="51.3721" x="859.12" y="281.2803">any Pod</text></g><!--entity AttachmentDb--><g class="entity" data-qualified-name="AttachmentDb" data-source-line="617" id="ent0005"><path d="M1327.8,64 C1327.8,54 1447.5305,54 1447.5305,54 C1447.5305,54 1567.2609,54 1567.2609,64 L1567.2609,101 C1567.2609,111 1447.5305,111 1447.5305,111 C1447.5305,111 1327.8,111 1327.8,101 L1327.8,64" fill="#EAF5FB" style="stroke:#B8BCC4;stroke-width:1;"/><path d="M1327.8,64 C1327.8,74 1447.5305,74 1447.5305,74 C1447.5305,74 1567.2609,74 1567.2609,64" fill="none" style="stroke:#B8BCC4;stroke-width:1;"/><text fill="#000000" font-family="Helvetica" font-size="14" lengthAdjust="spacing" textLength="205.4678" x="1337.8" y="88.7803">Shared openGauss t_attachment</text><text fill="#000000" font-family="Helvetica" font-size="14" lengthAdjust="spacing" textLength="219.4609" x="1337.8" y="102.7803">id, session, status, created, deleted</text></g><!--entity AttachmentDetail--><g class="entity" data-qualified-name="AttachmentDetail" data-source-line="618" id="ent0006"><path d="M1749.79,247 C1749.79,237 1905.3305,237 1905.3305,237 C1905.3305,237 2060.8711,237 2060.8711,247 L2060.8711,284 C2060.8711,294 1905.3305,294 1905.3305,294 C1905.3305,294 1749.79,294 1749.79,284 L1749.79,247" fill="#EAF5FB" style="stroke:#B8BCC4;stroke-width:1;"/><path d="M1749.79,247 C1749.79,257 1905.3305,257 1905.3305,257 C1905.3305,257 2060.8711,257 2060.8711,247" fill="none" style="stroke:#B8BCC4;stroke-width:1;"/><text fill="#000000" font-family="Helvetica" font-size="14" lengthAdjust="spacing" textLength="291.0811" x="1759.79" y="271.7803">Shared openGauss t_attachment_active_detail</text><text fill="#000000" font-family="Helvetica" font-size="14" lengthAdjust="spacing" textLength="266.9229" x="1759.79" y="285.7803">validation, reference, cleanup, worker state</text></g><!--entity Obs--><g class="entity" data-qualified-name="Obs" data-source-line="619" id="ent0007"><path d="M1325.5781,345.9211 C1331.3053,337.15 1337.46,337.2788 1344.3954,344.4996 C1348.2015,335.1745 1354.3082,334.9397 1360.5406,342.1272 C1365.0683,333.1189 1374.2722,331.6099 1380.2238,340.5672 C1384.0843,332.3029 1392.0409,331.4585 1396.7169,339.755 C1399.4546,330.8688 1406.637,329.1518 1413.1736,335.706 C1418.3604,327.289 1427.0664,325.4897 1433.1256,334.7196 C1437.5565,327.1116 1442.6872,326.5673 1447.5532,334.3106 C1454.4238,326.4546 1460.043,325.7922 1465.3693,335.8468 C1472.0152,326.9991 1479.9705,325.6864 1485.6505,336.8269 C1490.0878,330.5267 1496.3614,329.3222 1500.3086,337.3291 C1505.8371,329.504 1514.7091,329.4953 1518.094,339.4708 C1526.5155,332.5335 1533.0134,332.0775 1538.3095,343.007 C1542.0396,334.4091 1550.3069,333.2249 1555.0152,342.0702 C1562.758,334.8018 1568.5735,337.8413 1571.7823,346.7651 C1583.1047,349.7373 1582.8774,359.2432 1576.1342,366.2502 C1584.7047,374.0859 1583.0917,383.0468 1571.5641,386.3019 C1568.1727,393.9036 1561.2689,396.4569 1555.2362,389.2055 C1549.954,399.4409 1543.1284,400.0054 1536.5204,390.46 C1532.5043,398.4989 1525.0516,399.5255 1520.0739,391.4409 C1514.0879,400.2955 1507.4822,398.1592 1502.3188,390.5535 C1498.4301,398.5454 1492.6471,401.556 1485.488,394.1217 C1479.8248,404.2184 1471.8182,403.5395 1466.2529,394.0257 C1462.6873,401.6935 1456.3081,403.5373 1450.7852,396.0193 C1443.2357,404.6147 1436.6026,403.0457 1430.5977,394.2285 C1425.0119,402.8893 1418.1371,402.5528 1412.6211,394.155 C1406.6458,401.5388 1399.3584,399.4718 1396.668,390.8756 C1389.8993,399.509 1383.0536,397.7281 1377.643,389.3562 C1373.103,398.6551 1364.7595,399.0604 1359.6923,389.868 C1353.1434,396.4551 1347.6738,394.8885 1344.0763,386.7403 C1339.5548,396.105 1333.5678,396.9531 1327.1078,388.5964 C1315.6643,382.2586 1315.0488,374.899 1324.5925,366.2038 C1315.7134,358.8728 1314.636,352.2891 1325.5781,345.9211" fill="#FFFFFF" style="stroke:#000000;stroke-width:1;"/><text fill="#000000" font-family="Helvetica" font-size="14" lengthAdjust="spacing" textLength="77.0273" x="1331.38" y="361.2803">Private OBS</text><text fill="#000000" font-family="Helvetica" font-size="14" lengthAdjust="spacing" textLength="232.292" x="1331.38" y="375.2803">immutable body; key = attachment_id</text></g><!--entity RuntimeA--><g class="entity" data-qualified-name="RuntimeA" data-source-line="620" id="ent0008"><rect fill="#F7F8FA" height="44" rx="2.5" ry="2.5" style="stroke:#B8BCC4;stroke-width:1;" width="166.0684" x="387.8" y="308.5"/><rect fill="#F7F8FA" height="10" style="stroke:#B8BCC4;stroke-width:1;" width="15" x="533.8684" y="313.5"/><rect fill="#F7F8FA" height="2" style="stroke:#B8BCC4;stroke-width:1;" width="4" x="531.8684" y="315.5"/><rect fill="#F7F8FA" height="2" style="stroke:#B8BCC4;stroke-width:1;" width="4" x="531.8684" y="319.5"/><text fill="#000000" font-family="Helvetica" font-size="14" lengthAdjust="spacing" textLength="126.0684" x="402.8" y="339.2803">agent-service Pod A</text></g><!--entity RuntimeB--><g class="entity" data-qualified-name="RuntimeB" data-source-line="621" id="ent0009"><rect fill="#F7F8FA" height="44" rx="2.5" ry="2.5" style="stroke:#B8BCC4;stroke-width:1;" width="166.0684" x="387.8" y="472.5"/><rect fill="#F7F8FA" height="10" style="stroke:#B8BCC4;stroke-width:1;" width="15" x="533.8684" y="477.5"/><rect fill="#F7F8FA" height="2" style="stroke:#B8BCC4;stroke-width:1;" width="4" x="531.8684" y="479.5"/><rect fill="#F7F8FA" height="2" style="stroke:#B8BCC4;stroke-width:1;" width="4" x="531.8684" y="483.5"/><text fill="#000000" font-family="Helvetica" font-size="14" lengthAdjust="spacing" textLength="126.0684" x="402.8" y="503.2803">agent-service Pod B</text></g><!--entity RuntimeStore--><g class="entity" data-qualified-name="RuntimeStore" data-source-line="622" id="ent0010"><path d="M836.98,476 C836.98,466 968.3897,466 968.3897,466 C968.3897,466 1099.7993,466 1099.7993,476 L1099.7993,513 C1099.7993,523 968.3897,523 968.3897,523 C968.3897,523 836.98,523 836.98,513 L836.98,476" fill="#EAF5FB" style="stroke:#B8BCC4;stroke-width:1;"/><path d="M836.98,476 C836.98,486 968.3897,486 968.3897,486 C968.3897,486 1099.7993,486 1099.7993,476" fill="none" style="stroke:#B8BCC4;stroke-width:1;"/><text fill="#000000" font-family="Helvetica" font-size="14" lengthAdjust="spacing" textLength="135.3994" x="846.98" y="500.7803">RuntimeSessionStore</text><text fill="#000000" font-family="Helvetica" font-size="14" lengthAdjust="spacing" textLength="242.8193" x="846.98" y="514.7803">AttachmentContent metadata snapshot</text></g><!--entity Assembler--><g class="entity" data-qualified-name="Assembler" data-source-line="623" id="ent0011"><rect fill="#F7F8FA" height="58" rx="2.5" ry="2.5" style="stroke:#B8BCC4;stroke-width:1;" width="180.8682" x="877.95" y="629.5"/><rect fill="#F7F8FA" height="10" style="stroke:#B8BCC4;stroke-width:1;" width="15" x="1038.8182" y="634.5"/><rect fill="#F7F8FA" height="2" style="stroke:#B8BCC4;stroke-width:1;" width="4" x="1036.8182" y="636.5"/><rect fill="#F7F8FA" height="2" style="stroke:#B8BCC4;stroke-width:1;" width="4" x="1036.8182" y="640.5"/><text fill="#000000" font-family="Helvetica" font-size="14" lengthAdjust="spacing" textLength="140.8477" x="892.95" y="660.2803">Model input assembler</text><text fill="#000000" font-family="Helvetica" font-size="14" lengthAdjust="spacing" textLength="140.8682" x="892.95" y="674.2803">bounded stream buffer</text></g><g class="entity" data-qualified-name="GMN31" data-source-line="646" id="ent0032"><path d="M738.23,330 L738.23,431 A0,0 0 0 0 738.23,431 L1198.5513,431 A0,0 0 0 0 1198.5513,431 L1198.5513,340 L1188.5513,330 L972.16,330 L968.16,294.82 L964.16,330 L738.23,330 A0,0 0 0 0 738.23,330" fill="#FFFFFF" style="stroke:#000000;stroke-width:1;"/><path d="M1188.5513,330 L1188.5513,340 L1198.5513,340 L1188.5513,330" fill="#FFFFFF" style="stroke:#000000;stroke-width:1;"/><text fill="#000000" font-family="Helvetica" font-size="13" lengthAdjust="spacing" textLength="392.355" x="744.23" y="345.0103">Batch resolve is all-or-nothing and marks accepted rows referenced.</text><text fill="#000000" font-family="Helvetica" font-size="13" lengthAdjust="spacing" textLength="334.5278" x="744.23" y="358.0103">The first reference time is preserved and expiry is cleared.</text><text fill="#000000" font-family="Helvetica" font-size="13" lengthAdjust="spacing" textLength="372.125" x="744.23" y="371.0103">No separate storage locator, OBS URL, or credential is returned.</text><text fill="#000000" font-family="Helvetica" font-size="13" lengthAdjust="spacing" textLength="377.2031" x="744.23" y="384.0103">Knowing an attachment ID does not authorize direct OBS access.</text><text fill="#000000" font-family="Helvetica" font-size="13" lengthAdjust="spacing" textLength="439.3213" x="744.23" y="397.0103">OBJECT_KEY_CONFLICT is quarantined from ordinary delete and cleanup;</text><text fill="#000000" font-family="Helvetica" font-size="13" lengthAdjust="spacing" textLength="410.4458" x="744.23" y="410.0103">only audited reconciliation may remove an object after ownership proof.</text><text fill="#000000" font-family="Helvetica" font-size="13" lengthAdjust="spacing" textLength="382.9478" x="744.23" y="423.0103">No content_version, reservation, or complex retention claim exists.</text></g><g class="entity" data-qualified-name="GMN34" data-source-line="656" id="ent0035"><path d="M291.96,224 L291.96,273 A0,0 0 0 0 291.96,273 L649.7095,273 A0,0 0 0 0 649.7095,273 L649.7095,234 L639.7095,224 L475.16,224 L471.16,188.64 L467.16,224 L291.96,224 A0,0 0 0 0 291.96,224" fill="#FFFFFF" style="stroke:#000000;stroke-width:1;"/><path d="M639.7095,224 L639.7095,234 L649.7095,234 L639.7095,224" fill="#FFFFFF" style="stroke:#000000;stroke-width:1;"/><text fill="#000000" font-family="Helvetica" font-size="13" lengthAdjust="spacing" textLength="251.4878" x="297.96" y="239.0103">Public requests and responses use chat_id.</text><text fill="#000000" font-family="Helvetica" font-size="13" lengthAdjust="spacing" textLength="219.6797" x="297.96" y="252.0103">session_id is never exposed to the UI.</text><text fill="#000000" font-family="Helvetica" font-size="13" lengthAdjust="spacing" textLength="336.7495" x="297.96" y="265.0103">The attachment tables never store chat_id or the mapping.</text></g><g class="entity" data-qualified-name="GMN37" data-source-line="662" id="ent0038"><path d="M1258.55,146 L1258.55,195 A0,0 0 0 0 1258.55,195 L1636.5104,195 A0,0 0 0 0 1636.5104,195 L1636.5104,156 L1626.5104,146 L1451.16,146 L1447.16,111.31 L1443.16,146 L1258.55,146 A0,0 0 0 0 1258.55,146" fill="#FFFFFF" style="stroke:#000000;stroke-width:1;"/><path d="M1626.5104,146 L1626.5104,156 L1636.5104,156 L1626.5104,146" fill="#FFFFFF" style="stroke:#000000;stroke-width:1;"/><text fill="#000000" font-family="Helvetica" font-size="13" lengthAdjust="spacing" textLength="356.9604" x="1264.55" y="161.0103">The permanent row retains exactly attachment_id, session_id,</text><text fill="#000000" font-family="Helvetica" font-size="13" lengthAdjust="spacing" textLength="278.9731" x="1264.55" y="174.0103">status, created_at, and deleted_at after deletion.</text><text fill="#000000" font-family="Helvetica" font-size="13" lengthAdjust="spacing" textLength="154.6416" x="1264.55" y="187.0103">Table name: t_attachment.</text></g><g class="entity" data-qualified-name="GMN40" data-source-line="668" id="ent0041"><path d="M1696.51,329.5 L1696.51,417.5 A0,0 0 0 0 1696.51,417.5 L2114.1623,417.5 A0,0 0 0 0 2114.1623,417.5 L2114.1623,339.5 L2104.1623,329.5 L1909.16,329.5 L1905.16,294.44 L1901.16,329.5 L1696.51,329.5 A0,0 0 0 0 1696.51,329.5" fill="#FFFFFF" style="stroke:#000000;stroke-width:1;"/><path d="M2104.1623,329.5 L2104.1623,339.5 L2114.1623,339.5 L2104.1623,329.5" fill="#FFFFFF" style="stroke:#000000;stroke-width:1;"/><text fill="#000000" font-family="Helvetica" font-size="13" lengthAdjust="spacing" textLength="357.7222" x="1702.51" y="344.5103">MIME, expected and actual size, and sha256 validate content.</text><text fill="#000000" font-family="Helvetica" font-size="13" lengthAdjust="spacing" textLength="385.9185" x="1702.51" y="357.5103">referenced_at and expires_at drive reference and 24-hour cleanup.</text><text fill="#000000" font-family="Helvetica" font-size="13" lengthAdjust="spacing" textLength="396.6523" x="1702.51" y="370.5103">error, attempt, next-at, lease, and row-version fields recover workers.</text><text fill="#000000" font-family="Helvetica" font-size="13" lengthAdjust="spacing" textLength="337.4478" x="1702.51" y="383.5103">After OBS deletion, one DB transaction removes this detail</text><text fill="#000000" font-family="Helvetica" font-size="13" lengthAdjust="spacing" textLength="334.5659" x="1702.51" y="396.5103">and leaves the permanent row as a DELETED tombstone.</text><text fill="#000000" font-family="Helvetica" font-size="13" lengthAdjust="spacing" textLength="234.1396" x="1702.51" y="409.5103">Table name: t_attachment_active_detail.</text></g><g class="entity" data-qualified-name="GMN43" data-source-line="677" id="ent0044"><path d="M263.44,388 L263.44,437 A0,0 0 0 0 263.44,437 L678.2232,437 A0,0 0 0 0 678.2232,437 L678.2232,398 L668.2232,388 L475.16,388 L471.16,352.91 L467.16,388 L263.44,388 A0,0 0 0 0 263.44,388" fill="#FFFFFF" style="stroke:#000000;stroke-width:1;"/><path d="M668.2232,388 L668.2232,398 L678.2232,398 L668.2232,388" fill="#FFFFFF" style="stroke:#000000;stroke-width:1;"/><text fill="#000000" font-family="Helvetica" font-size="13" lengthAdjust="spacing" textLength="393.7832" x="269.44" y="403.0103">Runtime never reads OBS directly and never writes attachment files.</text><text fill="#000000" font-family="Helvetica" font-size="13" lengthAdjust="spacing" textLength="362.7559" x="269.44" y="416.0103">Local memory is a bounded stream buffer, not durable storage.</text><text fill="#000000" font-family="Helvetica" font-size="13" lengthAdjust="spacing" textLength="307.1123" x="269.44" y="429.0103">Runtime uses session_id and never receives chat_id.</text></g><g class="entity" data-qualified-name="GMN46" data-source-line="683" id="ent0047"><path d="M796.03,558.5 L796.03,594.5 A0,0 0 0 0 796.03,594.5 L1140.7478,594.5 A0,0 0 0 0 1140.7478,594.5 L1140.7478,568.5 L1130.7478,558.5 L972.16,558.5 L968.16,523.18 L964.16,558.5 L796.03,558.5 A0,0 0 0 0 796.03,558.5" fill="#FFFFFF" style="stroke:#000000;stroke-width:1;"/><path d="M1130.7478,558.5 L1130.7478,568.5 L1140.7478,568.5 L1130.7478,558.5" fill="#FFFFFF" style="stroke:#000000;stroke-width:1;"/><text fill="#000000" font-family="Helvetica" font-size="13" lengthAdjust="spacing" textLength="264.4941" x="802.03" y="573.5103">The database stores projected metadata only.</text><text fill="#000000" font-family="Helvetica" font-size="13" lengthAdjust="spacing" textLength="323.7178" x="802.03" y="586.5103">Attachment bodies remain authoritative in CampusMate.</text></g><!--link Client to PublicApi--><g class="link" data-entity-1="ent0001" data-entity-2="ent0002" data-link-type="dependency" data-source-line="625" id="lnk12"><path d="M203.92,159.5 C235.01,159.5 282.69,159.5 333.08,159.5" fill="none" id="Client-to-PublicApi" style="stroke:#3D8DFF;stroke-width:1;"/><polygon fill="#3D8DFF" points="338.08,159.5,329.08,155.5,333.08,159.5,329.08,163.5,338.08,159.5" style="stroke:#3D8DFF;stroke-width:1;stroke-linejoin:miter;stroke-miterlimit:10;"/><text fill="#000000" font-family="Helvetica" font-size="13" lengthAdjust="spacing" textLength="142.3081" x="70.189" y="170.5103">POST, GET, or DELETE</text><text fill="#000000" font-family="Helvetica" font-size="13" lengthAdjust="spacing" textLength="258.686" x="12" y="183.5103">/mate-service/v1/chats/{chat_id}/attachments</text></g><!--link PublicApi to ChatStore--><g class="link" data-entity-1="ent0002" data-entity-2="ent0003" data-link-type="dependency" data-source-line="626" id="lnk13"><path d="M603.52,159.5 C695.92,159.5 810.88,159.5 887.52,159.5" fill="none" id="PublicApi-to-ChatStore" style="stroke:#3D8DFF;stroke-width:1;"/><polygon fill="#3D8DFF" points="892.52,159.5,883.52,155.5,887.52,159.5,883.52,163.5,892.52,159.5" style="stroke:#3D8DFF;stroke-width:1;stroke-linejoin:miter;stroke-miterlimit:10;"/><text fill="#000000" font-family="Helvetica" font-size="13" lengthAdjust="spacing" textLength="116.3652" x="629.1814" y="142.5103">authenticate chat_id</text><text fill="#000000" font-family="Helvetica" font-size="13" lengthAdjust="spacing" textLength="120.688" x="627.02" y="155.5103">and resolve mapping</text></g><!--link ChatStore to PublicApi--><g class="link" data-entity-1="ent0003" data-entity-2="ent0002" data-link-type="dependency" data-source-line="627" id="lnk14"><path d="M892.55,145.25 C815.97,145.25 701.12,145.25 608.73,145.25" fill="none" id="ChatStore-to-PublicApi" style="stroke:#3D8DFF;stroke-width:1;"/><polygon fill="#3D8DFF" points="603.73,145.25,612.73,149.25,608.73,145.25,612.73,141.25,603.73,145.25" style="stroke:#3D8DFF;stroke-width:1;stroke-linejoin:miter;stroke-miterlimit:10;"/><text fill="#000000" font-family="Helvetica" font-size="13" lengthAdjust="spacing" textLength="125.7471" x="749.14" y="156.2603">authorized session_id</text><text fill="#000000" font-family="Helvetica" font-size="13" lengthAdjust="spacing" textLength="70.0972" x="776.965" y="169.2603">internal only</text></g><!--link PublicApi to AttachmentService--><g class="link" data-entity-1="ent0002" data-entity-2="ent0004" data-link-type="dependency" data-source-line="628" id="lnk15"><path d="M603.69,173.75 C719.2,173.75 868.16,173.75 868.16,173.75 C868.16,173.75 868.16,204.37 868.16,231.22" fill="none" id="PublicApi-to-AttachmentService" style="stroke:#3D8DFF;stroke-width:1;"/><polygon fill="#3D8DFF" points="868.16,236.22,872.16,227.22,868.16,231.22,864.16,227.22,868.16,236.22" style="stroke:#3D8DFF;stroke-width:1;stroke-linejoin:miter;stroke-miterlimit:10;"/><text fill="#000000" font-family="Helvetica" font-size="13" lengthAdjust="spacing" textLength="126.4707" x="640.16" y="184.7603">operate by session_id</text><text fill="#000000" font-family="Helvetica" font-size="13" lengthAdjust="spacing" textLength="106.9644" x="649.9132" y="197.7603">and attachment_id</text></g><!--link AttachmentService to AttachmentDb--><g class="link" data-entity-1="ent0004" data-entity-2="ent0005" data-link-type="dependency" data-source-line="629" id="lnk16"><path d="M1076.16,236.07 C1076.16,186.57 1076.16,92 1076.16,92 C1076.16,92 1213.97,92 1322.47,92" fill="none" id="AttachmentService-to-AttachmentDb" style="stroke:#3D8DFF;stroke-width:1;"/><polygon fill="#3D8DFF" points="1327.47,92,1318.47,88,1322.47,92,1318.47,96,1327.47,92" style="stroke:#3D8DFF;stroke-width:1;stroke-linejoin:miter;stroke-miterlimit:10;"/><text fill="#000000" font-family="Helvetica" font-size="13" lengthAdjust="spacing" textLength="187.9033" x="941.78" y="103.0103">create identity and update status</text></g><!--link AttachmentService to AttachmentDb--><g class="link" data-entity-1="ent0004" data-entity-2="ent0005" data-link-type="dependency" data-source-line="637" id="lnk24"><path d="M1060.16,236.26 C1060.16,182.41 1060.16,73 1060.16,73 C1060.16,73 1208.61,73 1322.35,73" fill="none" id="AttachmentService-to-AttachmentDb-1" style="stroke:#3D8DFF;stroke-width:1;"/><polygon fill="#3D8DFF" points="1327.35,73,1318.35,69,1322.35,73,1318.35,77,1327.35,73" style="stroke:#3D8DFF;stroke-width:1;stroke-linejoin:miter;stroke-miterlimit:10;"/><text fill="#000000" font-family="Helvetica" font-size="13" lengthAdjust="spacing" textLength="194.397" x="917.12" y="84.0103">authorize session and read status</text></g><!--link AttachmentService to AttachmentDetail--><g class="link" data-entity-1="ent0004" data-entity-2="ent0006" data-link-type="dependency" data-source-line="630" id="lnk17"><path d="M1092.81,259.8 C1262.18,259.8 1560.27,259.8 1744.56,259.8" fill="none" id="AttachmentService-to-AttachmentDetail" style="stroke:#3D8DFF;stroke-width:1;"/><polygon fill="#3D8DFF" points="1749.56,259.8,1740.56,255.8,1744.56,259.8,1740.56,263.8,1749.56,259.8" style="stroke:#3D8DFF;stroke-width:1;stroke-linejoin:miter;stroke-miterlimit:10;"/><text fill="#000000" font-family="Helvetica" font-size="13" lengthAdjust="spacing" textLength="177.0679" x="1422.18" y="270.8103">create and update active detail</text></g><!--link AttachmentService to AttachmentDetail--><g class="link" data-entity-1="ent0004" data-entity-2="ent0006" data-link-type="dependency" data-source-line="638" id="lnk25"><path d="M1092.81,248.4 C1262.18,248.4 1560.27,248.4 1744.56,248.4" fill="none" id="AttachmentService-to-AttachmentDetail-1" style="stroke:#3D8DFF;stroke-width:1;"/><polygon fill="#3D8DFF" points="1749.56,248.4,1740.56,244.4,1744.56,248.4,1740.56,252.4,1749.56,248.4" style="stroke:#3D8DFF;stroke-width:1;stroke-linejoin:miter;stroke-miterlimit:10;"/><text fill="#000000" font-family="Helvetica" font-size="13" lengthAdjust="spacing" textLength="237.7261" x="1183.18" y="259.4103">read MIME, size, sha256, reference state</text></g><!--link AttachmentDb to AttachmentDetail--><g class="link" data-entity-1="ent0005" data-entity-2="ent0006" data-link-type="association" data-source-line="631" id="lnk18"><path d="M1567.47,82.5 C1703.06,82.5 1905.16,82.5 1905.16,82.5 C1905.16,82.5 1905.16,184.9 1905.16,236.5" fill="none" id="AttachmentDb-AttachmentDetail" style="stroke:#3D8DFF;stroke-width:1;"/><text fill="#000000" font-family="Helvetica" font-size="13" lengthAdjust="spacing" textLength="147.4116" x="1665.31" y="93.5103">one detail until DELETED</text></g><!--link AttachmentService to Obs--><g class="link" data-entity-1="ent0004" data-entity-2="ent0007" data-link-type="dependency" data-source-line="632" id="lnk19"><path d="M1092.97,282.6 C1221.76,282.6 1404.16,282.6 1404.16,282.6 C1404.16,282.6 1404.16,306.85 1404.16,330.39" fill="none" id="AttachmentService-to-Obs" style="stroke:#3D8DFF;stroke-width:1;"/><polygon fill="#3D8DFF" points="1404.16,335.39,1408.16,326.39,1404.16,330.39,1400.16,326.39,1404.16,335.39" style="stroke:#3D8DFF;stroke-width:1;stroke-linejoin:miter;stroke-miterlimit:10;"/><text fill="#000000" font-family="Helvetica" font-size="13" lengthAdjust="spacing" textLength="242.8232" x="1275.96" y="293.6103">put, open, stat, or delete by attachment_id</text></g><!--link AttachmentService to Obs--><g class="link" data-entity-1="ent0004" data-entity-2="ent0007" data-link-type="dependency" data-source-line="639" id="lnk26"><path d="M1092.94,271.2 C1247.57,271.2 1491.16,271.2 1491.16,271.2 C1491.16,271.2 1491.16,302.87 1491.16,330.24" fill="none" id="AttachmentService-to-Obs-1" style="stroke:#3D8DFF;stroke-width:1;"/><polygon fill="#3D8DFF" points="1491.16,335.24,1495.16,326.24,1491.16,330.24,1487.16,326.24,1491.16,335.24" style="stroke:#3D8DFF;stroke-width:1;stroke-linejoin:miter;stroke-miterlimit:10;"/><text fill="#000000" font-family="Helvetica" font-size="13" lengthAdjust="spacing" textLength="224.0151" x="1099.07" y="282.2103">read immutable body by attachment_id</text></g><!--link RuntimeA to AttachmentService--><g class="link" data-entity-1="ent0008" data-entity-2="ent0004" data-link-type="dependency" data-source-line="633" id="lnk20"><path d="M443.16,308.25 C443.16,293.67 443.16,277.3 443.16,277.3 C443.16,277.3 683.6,277.3 838.92,277.3" fill="none" id="RuntimeA-to-AttachmentService" style="stroke:#3D8DFF;stroke-width:1;"/><polygon fill="#3D8DFF" points="843.92,277.3,834.92,273.3,838.92,277.3,834.92,281.3,843.92,277.3" style="stroke:#3D8DFF;stroke-width:1;stroke-linejoin:miter;stroke-miterlimit:10;"/><text fill="#000000" font-family="Helvetica" font-size="13" lengthAdjust="spacing" textLength="201.5889" x="426.06" y="288.3103">POST internal attachments:resolve</text></g><!--link RuntimeA to AttachmentService--><g class="link" data-entity-1="ent0008" data-entity-2="ent0004" data-link-type="dependency" data-source-line="635" id="lnk22"><path d="M498.16,308.05 C498.16,295.2 498.16,281.6 498.16,281.6 C498.16,281.6 699.61,281.6 838.92,281.6" fill="none" id="RuntimeA-to-AttachmentService-1" style="stroke:#3D8DFF;stroke-width:1;"/><polygon fill="#3D8DFF" points="843.92,281.6,834.92,277.6,838.92,281.6,834.92,285.6,843.92,281.6" style="stroke:#3D8DFF;stroke-width:1;stroke-linejoin:miter;stroke-miterlimit:10;"/><text fill="#000000" font-family="Helvetica" font-size="13" lengthAdjust="spacing" textLength="162.5698" x="658.81" y="292.6103">GET internal content stream</text></g><!--link RuntimeB to AttachmentService--><g class="link" data-entity-1="ent0009" data-entity-2="ent0004" data-link-type="dependency" data-source-line="634" id="lnk21"><path d="M554.35,490.1 C620.61,490.1 702.16,490.1 702.16,490.1 C702.16,490.1 702.16,285.9 702.16,285.9 C702.16,285.9 769.56,285.9 838.85,285.9" fill="none" id="RuntimeB-to-AttachmentService" style="stroke:#3D8DFF;stroke-width:1;"/><polygon fill="#3D8DFF" points="843.85,285.9,834.85,281.9,838.85,285.9,834.85,289.9,843.85,285.9" style="stroke:#3D8DFF;stroke-width:1;stroke-linejoin:miter;stroke-miterlimit:10;"/><text fill="#000000" font-family="Helvetica" font-size="13" lengthAdjust="spacing" textLength="177.0107" x="524.16" y="387.0703">same ID after routing or restart</text></g><!--link RuntimeB to AttachmentService--><g class="link" data-entity-1="ent0009" data-entity-2="ent0004" data-link-type="dependency" data-source-line="636" id="lnk23"><path d="M554.23,498.9 C624.67,498.9 714.16,498.9 714.16,498.9 C714.16,498.9 714.16,290.2 714.16,290.2 C714.16,290.2 774.47,290.2 838.88,290.2" fill="none" id="RuntimeB-to-AttachmentService-1" style="stroke:#3D8DFF;stroke-width:1;"/><polygon fill="#3D8DFF" points="843.88,290.2,834.88,286.2,838.88,290.2,834.88,294.2,843.88,290.2" style="stroke:#3D8DFF;stroke-width:1;stroke-linejoin:miter;stroke-miterlimit:10;"/><text fill="#000000" font-family="Helvetica" font-size="13" lengthAdjust="spacing" textLength="162.5698" x="551.16" y="420.6603">GET internal content stream</text></g><!--link RuntimeA to RuntimeStore--><g class="link" data-entity-1="ent0008" data-entity-2="ent0010" data-link-type="dependency" data-source-line="640" id="lnk27"><path d="M554.08,337.5 C628.59,337.5 726.16,337.5 726.16,337.5 C726.16,337.5 726.16,481.3 726.16,481.3 C726.16,481.3 774.83,481.3 831.64,481.3" fill="none" id="RuntimeA-to-RuntimeStore" style="stroke:#3D8DFF;stroke-width:1;"/><polygon fill="#3D8DFF" points="836.64,481.3,827.64,477.3,831.64,481.3,827.64,485.3,836.64,481.3" style="stroke:#3D8DFF;stroke-width:1;stroke-linejoin:miter;stroke-miterlimit:10;"/><text fill="#000000" font-family="Helvetica" font-size="13" lengthAdjust="spacing" textLength="213.1416" x="512.16" y="374.6103">persist id, name, MIME, size, sha256</text></g><!--link RuntimeB to RuntimeStore--><g class="link" data-entity-1="ent0009" data-entity-2="ent0010" data-link-type="dependency" data-source-line="641" id="lnk28"><path d="M554.11,507.7 C631.16,507.7 741.96,507.7 831.56,507.7" fill="none" id="RuntimeB-to-RuntimeStore" style="stroke:#3D8DFF;stroke-width:1;"/><polygon fill="#3D8DFF" points="836.56,507.7,827.56,503.7,831.56,507.7,827.56,511.7,836.56,507.7" style="stroke:#3D8DFF;stroke-width:1;stroke-linejoin:miter;stroke-miterlimit:10;"/><text fill="#000000" font-family="Helvetica" font-size="13" lengthAdjust="spacing" textLength="153.918" x="541.34" y="518.7103">restore the same snapshot</text></g><!--link RuntimeA to Assembler--><g class="link" data-entity-1="ent0008" data-entity-2="ent0011" data-link-type="dependency" data-source-line="642" id="lnk29"><path d="M554.07,345 C616.11,345 690.16,345 690.16,345 C690.16,345 690.16,648.83 690.16,648.83 C690.16,648.83 791.48,648.83 872.67,648.83" fill="none" id="RuntimeA-to-Assembler" style="stroke:#3D8DFF;stroke-width:1;"/><polygon fill="#3D8DFF" points="877.67,648.83,868.67,644.83,872.67,648.83,868.67,652.83,877.67,648.83" style="stroke:#3D8DFF;stroke-width:1;stroke-linejoin:miter;stroke-miterlimit:10;"/><text fill="#000000" font-family="Helvetica" font-size="13" lengthAdjust="spacing" textLength="171.2471" x="518.16" y="533.6303">verify sha256 while streaming</text></g><!--link RuntimeB to Assembler--><g class="link" data-entity-1="ent0009" data-entity-2="ent0011" data-link-type="dependency" data-source-line="643" id="lnk30"><path d="M471.16,516.85 C471.16,563.75 471.16,668.17 471.16,668.17 C471.16,668.17 729,668.17 872.48,668.17" fill="none" id="RuntimeB-to-Assembler" style="stroke:#3D8DFF;stroke-width:1;"/><polygon fill="#3D8DFF" points="877.48,668.17,868.48,664.17,872.48,668.17,868.48,672.17,877.48,668.17" style="stroke:#3D8DFF;stroke-width:1;stroke-linejoin:miter;stroke-miterlimit:10;"/><text fill="#000000" font-family="Helvetica" font-size="13" lengthAdjust="spacing" textLength="171.2471" x="426.66" y="679.1803">verify sha256 while streaming</text></g><?plantuml-src bLXRK-Cu6dtFhz0o3_CImuI69j2rMvNh33jDGpNqmrPHHIcsGjJOaaUIGsUtzh_l-IGvjWE4tXSgHDBvRkUxvLTsgokJ2hRWLkHIYGjMogJGIhDK5uLqRFbR9XR3B1kAyu-3WHYUBquNwSdWv3JbvyVfRn-u-2Yo4o5wlxu9bNpdQrxZ3PPd_FJa-CFnu5naItvoEZZFXcU3y-KWJOTyC1oAxEnuUFO1UDSBAynQP6mXLdmjjRbWIaYt4cOhWycYp4KXbBCC1sp2YxAoLzm9nftZwOgEc7NQy4TefYkLSRDXTgMV5GEGE8ISEsuU1MvvzIzOwZ4AO2GDHaAgo5GSVPsDfbUpmo9x-R1jRb9m1P4coOnS2vKKLUvaWcy0PIhbPD62wkWgKYUrsg8dMkKRnaswaWv7bO6WbfLach2i50O2wRtCy5Uw3NEwME1KuPGhY03iMh3Iw5HOAzKZouJZChTCAlY36_XPbqBzpYjh-_w9B8hAyKLEZikay3TBc4DohyUtXtjr5328RZ6z-8xls9FOC6cP-055S9c2bIA8yAkoqglMEE51PfyOA1YU9lIqu6L9IgSwhme566cTtQz1MIrocRPzQtJbO4Pb8Nl5IKoVFQya5FNHZY5cSAZErxZeD4nsmYYU8oxmcbPumvP65zu0NhcLDj9nhx-FnmIux9Q2ib-vm8HQ8ZIoZQW5Tr0fQk4ZaMgSUI8RmGlom-ZcCiGr4i2BAA0ZyRn0P3FkEBEAb-1wyDHKMFceWCkjLXS8Y2Xh7tcjjyo1bop-OLy3JmDz6YzwIbXoNDuEcWLomQKNa7dMyDHeQzcDpYWvuVp7LSsqQ3Zq-XiS2HbbZgUzN2mTUTt8nvLZcJGn6UoJL2Ktl81lqgT7GtayqRasf8KJhVDCB3bIRGw7VU70_KF0Xqwcl7K7EcJwcRouvBbjlwQIuZQbODeWigs3aJ7wEKZyvSDqE9tFMuUeRAMcv1jhamaJhus7uydavDLhEpRyCZ-R3-UZjXK87fMu_O3RMxjuiz7yT3xkzH1DX654LEi4irK_HarSnx4wzdf8KS0SX8VVBWyOjsoII_pNsnh13beeaKOjCF3pNiKaOpP5PV4eD_xYg9IzMdbsi9CtpJCGeScwe0HE_AKtz6WfS1iOTg-usX05_VlcF1wtrBZTgO7CFJJalbTKAw8s-82Khr0bKt3T2Pna8XVui2DaklXP_8TGdXz2JRvNQvvBFFN2Z5YYKQbKG5ukkAfAL2rjdj06IG-nAzH3zD9SLnaxk6dgDMne5_JD9r-J_zwjknuCZRVju6wjWY_Po5-Bb1hjlpjktnst71A_kWrEZR5lx9Z4clUYcBNnNf3XIYCKAALbvN3DYWBMcdlbEp_L7Lz0sQ9QmgV1SVMbNYzGd2N9FngUiWjsStrxrsU_p_07MJ6TVPxTpUxLKRjb7Aq7HyHQU_IVIDx_7hKgOw-18_0jYm5EBOJARaf1Yc-9izcs_iVErsjUxIeOsz2_VLsjymNHhli9zOOT5Lua0c30J4DQB3OTc6xrnrUzbu-xaDC5q49gD4s5OAeo2pCBPS_xC9x83LGB8Gup8Ljw7Sb9yXe4s15lCo9E7iCuVKC9902Z0SBrVRw6XFVX3ubEFkhwfCw5DxrBB6fQV8iS5p7GDSJuJGXB3UroolWIA7wOeHu6fO3Wk77lAm4IDpfqXuhtnUzx_5EKsFAqvXSBFEVP_qq9_-Zgycg6q02mJptz-FHZgrY6shWtlXwaMnFV2MoxwX11XB6OGndr1eNWz5zHgUlN7G0A77sYOT97jwvnEw6iQnIUh8MHoqq4ZqFOTYpS2U9FF-ifJQJM3ai3qyjN-YHZuyvKYb6UvtcYJOAdA-8XnRBWvWa7QIfAT4DGzDas4SaEWN87IvVIm6bDfFnS0i0Iu67X8opnevJ6xmpKzKnu_eL60ff-ukf3qswkKJorwVjjuzlNppvFKJDyvG5L9Uc0gLi5Y3zLcFsuQW-rIAjCOwg5DIsUXWdK0vDHrXB0zVYViydTmv-pVprChh_CFrzExaZ6NnNKWaI82Hi2PZUfQDkCDSCFyg61Vm9CM0ggJ7fF2IHKAdFfUpxykA5fMllnlzwWGjfZSGNhLhAaLKulerDYEZwiYP5XQ21NnWc2_A5fKVv1dY2tG4QAYRlOBb82oX49Nb2XcTXO_0oCloeGryRqjUYzjhjMaLQjXGdUKGAgKKor5Nwo8yf_kwmfyNAz20z2UjG38UoWPx4Zxb6wCu852Ss635QI6x1lDEje9-VxBTtxP4btsdkWLa2cnw4F_yVO-2_mpblbQmfLXOlEfFTpMeV6nc8zWTj0W9WNKBYYVTJN6By1XfoE8wEekK1ADBddbQopIbZwr_yoqKf3EZu-ILQwCZLF2KDWzK5omG9HbB1SYHyk8HVWYeqgmAL9f1woM-IPzOoc28P9rIVEo3k9agbsLDytvkcOEQIEvNxPYyIdbH6yoMfFa1X830UxuSGSn-kMtlpmiIyCtO5xJr2sGoxRhb21cjGzRB36Luayp3ZXyDb8-gMXHUibAgxtmcUKgnnJRQ53TUFirU6qxqjHLXblGAnrXoqj_6y6hIHhX4CR8SbHssnypxemHeT4sGxezKzBHdyFxDjEubIwV40Ry-8lHF4dWEuF8_YYsT4QPVu7?></g></svg>