<svg xmlns="http://www.w3.org/2000/svg" xmlns:xlink="http://www.w3.org/1999/xlink" contentStyleType="text/css" data-diagram-type="DESCRIPTION" height="677px" preserveAspectRatio="none" style="width:287px;height:677px;" version="1.1" viewBox="0 0 287 677" width="287px" zoomAndPan="magnify"><?plantuml 1.2026.6?><defs/><g><g class="title" data-source-line="40"><text fill="#000000" font-family="'sans-serif'" font-size="22" font-weight="700" lengthAdjust="spacing" textLength="255.8252" x="15" y="36.2695">pi Skill Discovery Flow</text></g><!--entity A--><g class="entity" data-qualified-name="A" data-source-line="42" id="ent0001"><rect fill="#FFFFFF" height="36.4883" rx="2.5" ry="2.5" style="stroke:#000000;stroke-width:1;" width="224.1963" x="29.4126" y="63.9102"/><text fill="#000000" font-family="'sans-serif'" font-size="14" lengthAdjust="spacing" textLength="204.1963" x="39.4126" y="87.4453">DefaultResourceLoader.reload</text></g><!--entity B--><g class="entity" data-qualified-name="B" data-source-line="43" id="ent0002"><rect fill="#FFFFFF" height="36.4883" rx="2.5" ry="2.5" style="stroke:#000000;stroke-width:1;" width="186.3389" x="48.4126" y="135.9102"/><text fill="#000000" font-family="'sans-serif'" font-size="14" lengthAdjust="spacing" textLength="166.3389" x="58.4126" y="159.4453">PackageManager.resolve</text></g><!--entity C--><g class="entity" data-qualified-name="C" data-source-line="44" id="ent0003"><rect fill="#FFFFFF" height="36.4883" rx="2.5" ry="2.5" style="stroke:#000000;stroke-width:1;" width="179.1133" x="51.9126" y="207.9102"/><text fill="#000000" font-family="'sans-serif'" font-size="14" lengthAdjust="spacing" textLength="159.1133" x="61.9126" y="231.4453">Enabled Skill Resources</text></g><!--entity D--><g class="entity" data-qualified-name="D" data-source-line="45" id="ent0004"><rect fill="#FFFFFF" height="36.4883" rx="2.5" ry="2.5" style="stroke:#000000;stroke-width:1;" width="84.1895" x="99.4126" y="279.9102"/><text fill="#000000" font-family="'sans-serif'" font-size="14" lengthAdjust="spacing" textLength="64.1895" x="109.4126" y="303.4453">loadSkills</text></g><!--entity E--><g class="entity" data-qualified-name="E" data-source-line="46" id="ent0005"><rect fill="#FFFFFF" height="36.4883" rx="2.5" ry="2.5" style="stroke:#000000;stroke-width:1;" width="204.5703" x="38.9126" y="351.9102"/><text fill="#000000" font-family="'sans-serif'" font-size="14" lengthAdjust="spacing" textLength="184.5703" x="48.9126" y="375.4453">Read SKILL.md Frontmatter</text></g><!--entity F--><g class="entity" data-qualified-name="F" data-source-line="47" id="ent0006"><rect fill="#FFFFFF" height="36.4883" rx="2.5" ry="2.5" style="stroke:#000000;stroke-width:1;" width="171.8672" x="55.4126" y="423.9102"/><text fill="#000000" font-family="'sans-serif'" font-size="14" lengthAdjust="spacing" textLength="151.8672" x="65.4126" y="447.4453">Validate and Diagnose</text></g><!--entity G--><g class="entity" data-qualified-name="G" data-source-line="48" id="ent0007"><rect fill="#FFFFFF" height="36.4883" rx="2.5" ry="2.5" style="stroke:#000000;stroke-width:1;" width="177.042" x="52.9126" y="495.9102"/><text fill="#000000" font-family="'sans-serif'" font-size="14" lengthAdjust="spacing" textLength="157.042" x="62.9126" y="519.4453">Canonical Path Dedupe</text></g><!--entity H--><g class="entity" data-qualified-name="H" data-source-line="49" id="ent0008"><rect fill="#FFFFFF" height="36.4883" rx="2.5" ry="2.5" style="stroke:#000000;stroke-width:1;" width="192.6348" x="44.9126" y="567.9102"/><text fill="#000000" font-family="'sans-serif'" font-size="14" lengthAdjust="spacing" textLength="172.6348" x="54.9126" y="591.4453">Name Collision First Wins</text></g><!--entity I--><g class="entity" data-qualified-name="I" data-source-line="50" id="ent0009"><rect fill="#FFFFFF" height="36.4883" rx="2.5" ry="2.5" style="stroke:#000000;stroke-width:1;" width="167.3418" x="57.9126" y="639.9102"/><text fill="#000000" font-family="'sans-serif'" font-size="14" lengthAdjust="spacing" textLength="147.3418" x="67.9126" y="663.4453">ResourceLoader Skills</text></g><g class="link" data-entity-1="ent0001" data-entity-2="ent0002" data-link-type="dependency" id="lnk10"><polygon fill="#000000" points="141.4126,135.8058,145.4126,126.8058,141.4126,130.8058,137.4126,126.8058,141.4126,135.8058" style="stroke:#000000;stroke-width:1;stroke-linejoin:miter;stroke-miterlimit:10;"/><path d="M141.4126,100.2135 C141.4126,111.0639 141.4126,119.9934 141.4126,130.8058" fill="none" style="stroke:#000000;stroke-width:1;"/></g><g class="link" data-entity-1="ent0002" data-entity-2="ent0003" data-link-type="dependency" id="lnk11"><polygon fill="#000000" points="141.4126,207.8058,145.4126,198.8058,141.4126,202.8058,137.4126,198.8058,141.4126,207.8058" style="stroke:#000000;stroke-width:1;stroke-linejoin:miter;stroke-miterlimit:10;"/><path d="M141.4126,172.2135 C141.4126,183.0639 141.4126,191.9934 141.4126,202.8058" fill="none" style="stroke:#000000;stroke-width:1;"/></g><g class="link" data-entity-1="ent0003" data-entity-2="ent0004" data-link-type="dependency" id="lnk12"><polygon fill="#000000" points="141.4126,279.8058,145.4126,270.8058,141.4126,274.8058,137.4126,270.8058,141.4126,279.8058" style="stroke:#000000;stroke-width:1;stroke-linejoin:miter;stroke-miterlimit:10;"/><path d="M141.4126,244.2135 C141.4126,255.0639 141.4126,263.9934 141.4126,274.8058" fill="none" style="stroke:#000000;stroke-width:1;"/></g><g class="link" data-entity-1="ent0004" data-entity-2="ent0005" data-link-type="dependency" id="lnk13"><polygon fill="#000000" points="141.4126,351.8058,145.4126,342.8058,141.4126,346.8058,137.4126,342.8058,141.4126,351.8058" style="stroke:#000000;stroke-width:1;stroke-linejoin:miter;stroke-miterlimit:10;"/><path d="M141.4126,316.2135 C141.4126,327.0639 141.4126,335.9934 141.4126,346.8058" fill="none" style="stroke:#000000;stroke-width:1;"/></g><g class="link" data-entity-1="ent0005" data-entity-2="ent0006" data-link-type="dependency" id="lnk14"><polygon fill="#000000" points="141.4126,423.8058,145.4126,414.8058,141.4126,418.8058,137.4126,414.8058,141.4126,423.8058" style="stroke:#000000;stroke-width:1;stroke-linejoin:miter;stroke-miterlimit:10;"/><path d="M141.4126,388.2135 C141.4126,399.0639 141.4126,407.9934 141.4126,418.8058" fill="none" style="stroke:#000000;stroke-width:1;"/></g><g class="link" data-entity-1="ent0006" data-entity-2="ent0007" data-link-type="dependency" id="lnk15"><polygon fill="#000000" points="141.4126,495.8058,145.4126,486.8058,141.4126,490.8058,137.4126,486.8058,141.4126,495.8058" style="stroke:#000000;stroke-width:1;stroke-linejoin:miter;stroke-miterlimit:10;"/><path d="M141.4126,460.2135 C141.4126,471.0639 141.4126,479.9934 141.4126,490.8058" fill="none" style="stroke:#000000;stroke-width:1;"/></g><g class="link" data-entity-1="ent0007" data-entity-2="ent0008" data-link-type="dependency" id="lnk16"><polygon fill="#000000" points="141.4126,567.8058,145.4126,558.8058,141.4126,562.8058,137.4126,558.8058,141.4126,567.8058" style="stroke:#000000;stroke-width:1;stroke-linejoin:miter;stroke-miterlimit:10;"/><path d="M141.4126,532.2135 C141.4126,543.0639 141.4126,551.9934 141.4126,562.8058" fill="none" style="stroke:#000000;stroke-width:1;"/></g><g class="link" data-entity-1="ent0008" data-entity-2="ent0009" data-link-type="dependency" id="lnk17"><polygon fill="#000000" points="141.4126,639.8058,145.4126,630.8058,141.4126,634.8058,137.4126,630.8058,141.4126,639.8058" style="stroke:#000000;stroke-width:1;stroke-linejoin:miter;stroke-miterlimit:10;"/><path d="M141.4126,604.2135 C141.4126,615.0639 141.4126,623.9934 141.4126,634.8058" fill="none" style="stroke:#000000;stroke-width:1;"/></g><?plantuml-src bP9FR-8m4CNl_XHJBhrWA2HbinnMQWa1jEmV5MdtF2H3iEhOaMse-krtub0fU-nf4iylRyRlvHvQ1TvUN4bBQB5ynPhyjBILChNaPnEctfLyu6Zgg0UbjbYHcmI_J994fhE7yU8XaOjvAku_8UTVbTQ-Kvaj4fdC7yT9zaMcsU9JAhUsRD1mYKlDibJEicmyJnUFSfvcNrdmrz6Jkr85HphZLLct139ur7pI3_A0Zi0wlXXLOxYYLXM6xh54OuqgKSiMmnaggYwjvlVOH5E1mORay1XEolaWtvJn4t4NpjGGj1gL4NUjmxf1qFXkBm5yGu7t5co5QT5Xm-edlEXGM1D-iYoC3cZyWPmwZGQKFsDbMRw64sfFWywHxQYTlPXgPRLr41n_potsJ0GLD7NM7Zhd8LU-j5Toxr1e-oQ4evANgHd9-oLURddl-xWTTRa3UdWQiBzx_t_SxE_-4NsbZdeUKAFrpUn-z8Uo7tNWQW1s8oBZkqu-b7WXddxuljll9qq5XMEB6Wo1N1HP3z4_j_HYFBd2sbXF4Ik6sEeZMRu59vjt4VROPeZ58DXEhRoo1eekNFZBuKPq-_-EGylws_ROJeWdaF8Rs_8SwqgiOir57kjQh6CjH17hHcnYtOfjhBj_?></g></svg>