<svg xmlns="http://www.w3.org/2000/svg" xmlns:xlink="http://www.w3.org/1999/xlink" contentStyleType="text/css" data-diagram-type="DESCRIPTION" height="717px" preserveAspectRatio="none" style="width:244px;height:717px;" version="1.1" viewBox="0 0 244 717" width="244px" zoomAndPan="magnify"><?plantuml 1.2026.6?><defs/><g><g class="title" data-source-line="40"><text fill="#000000" font-family="'PingFang SC'" font-size="22" font-weight="700" lengthAdjust="spacing" textLength="167.591" x="37.2045" y="38.32">pi Skill &#21457;&#29616;&#38142;&#36335;</text></g><!--entity A--><g class="entity" data-qualified-name="A" data-source-line="42" id="ent0001"><rect fill="#FFFFFF" height="39.6" rx="2.5" ry="2.5" style="stroke:#000000;stroke-width:1;" width="217.3847" x="11" y="68.8"/><text fill="#000000" font-family="'PingFang SC'" font-size="14" lengthAdjust="spacing" textLength="197.3847" x="21" y="93.64">DefaultResourceLoader.reload</text></g><!--entity B--><g class="entity" data-qualified-name="B" data-source-line="43" id="ent0002"><rect fill="#FFFFFF" height="39.6" rx="2.5" ry="2.5" style="stroke:#000000;stroke-width:1;" width="182.5569" x="28" y="144.8"/><text fill="#000000" font-family="'PingFang SC'" font-size="14" lengthAdjust="spacing" textLength="162.5569" x="38" y="169.64">PackageManager.resolve</text></g><!--entity C--><g class="entity" data-qualified-name="C" data-source-line="44" id="ent0003"><rect fill="#FFFFFF" height="39.6" rx="2.5" ry="2.5" style="stroke:#000000;stroke-width:1;" width="175.963" x="31.5" y="220.8"/><text fill="#000000" font-family="'PingFang SC'" font-size="14" lengthAdjust="spacing" textLength="155.963" x="41.5" y="245.64">Enabled Skill Resources</text></g><!--entity D--><g class="entity" data-qualified-name="D" data-source-line="45" id="ent0004"><rect fill="#FFFFFF" height="39.6" rx="2.5" ry="2.5" style="stroke:#000000;stroke-width:1;" width="81.1507" x="79" y="296.8"/><text fill="#000000" font-family="'PingFang SC'" font-size="14" lengthAdjust="spacing" textLength="61.1507" x="89" y="321.64">loadSkills</text></g><!--entity E--><g class="entity" data-qualified-name="E" data-source-line="46" id="ent0005"><rect fill="#FFFFFF" height="39.6" rx="2.5" ry="2.5" style="stroke:#000000;stroke-width:1;" width="201.7481" x="18.5" y="372.8"/><text fill="#000000" font-family="'PingFang SC'" font-size="14" lengthAdjust="spacing" textLength="181.7481" x="28.5" y="397.64">Read SKILL.md Frontmatter</text></g><!--entity F--><g class="entity" data-qualified-name="F" data-source-line="47" id="ent0006"><rect fill="#FFFFFF" height="39.6" rx="2.5" ry="2.5" style="stroke:#000000;stroke-width:1;" width="166.2245" x="36.5" y="448.8"/><text fill="#000000" font-family="'PingFang SC'" font-size="14" lengthAdjust="spacing" textLength="146.2245" x="46.5" y="473.64">Validate and Diagnose</text></g><!--entity G--><g class="entity" data-qualified-name="G" data-source-line="48" id="ent0007"><rect fill="#FFFFFF" height="39.6" rx="2.5" ry="2.5" style="stroke:#000000;stroke-width:1;" width="172.9823" x="33" y="524.8"/><text fill="#000000" font-family="'PingFang SC'" font-size="14" lengthAdjust="spacing" textLength="152.9823" x="43" y="549.64">Canonical Path Dedupe</text></g><!--entity H--><g class="entity" data-qualified-name="H" data-source-line="49" id="ent0008"><rect fill="#FFFFFF" height="39.6" rx="2.5" ry="2.5" style="stroke:#000000;stroke-width:1;" width="187.4514" x="26" y="600.8"/><text fill="#000000" font-family="'PingFang SC'" font-size="14" lengthAdjust="spacing" textLength="167.4514" x="36" y="625.64">Name Collision First Wins</text></g><!--entity I--><g class="entity" data-qualified-name="I" data-source-line="50" id="ent0009"><rect fill="#FFFFFF" height="39.6" rx="2.5" ry="2.5" style="stroke:#000000;stroke-width:1;" width="164.6005" x="37" y="676.8"/><text fill="#000000" font-family="'PingFang SC'" font-size="14" lengthAdjust="spacing" textLength="144.6005" x="47" y="701.64">ResourceLoader Skills</text></g><g class="link" data-entity-1="ent0001" data-entity-2="ent0002" data-link-type="dependency" id="lnk10"><polygon fill="#000000" points="119.5,144.5505,123.5,135.5505,119.5,139.5505,115.5,135.5505,119.5,144.5505" style="stroke:#000000;stroke-width:1;stroke-linejoin:miter;stroke-miterlimit:10;"/><path d="M119.5,108.8568 C119.5,119.8197 119.5,128.5555 119.5,139.5505" fill="none" style="stroke:#000000;stroke-width:1;"/></g><g class="link" data-entity-1="ent0002" data-entity-2="ent0003" data-link-type="dependency" id="lnk11"><polygon fill="#000000" points="119.5,220.5505,123.5,211.5505,119.5,215.5505,115.5,211.5505,119.5,220.5505" style="stroke:#000000;stroke-width:1;stroke-linejoin:miter;stroke-miterlimit:10;"/><path d="M119.5,184.8568 C119.5,195.8197 119.5,204.5555 119.5,215.5505" fill="none" style="stroke:#000000;stroke-width:1;"/></g><g class="link" data-entity-1="ent0003" data-entity-2="ent0004" data-link-type="dependency" id="lnk12"><polygon fill="#000000" points="119.5,296.5505,123.5,287.5505,119.5,291.5505,115.5,287.5505,119.5,296.5505" style="stroke:#000000;stroke-width:1;stroke-linejoin:miter;stroke-miterlimit:10;"/><path d="M119.5,260.8568 C119.5,271.8197 119.5,280.5555 119.5,291.5505" fill="none" style="stroke:#000000;stroke-width:1;"/></g><g class="link" data-entity-1="ent0004" data-entity-2="ent0005" data-link-type="dependency" id="lnk13"><polygon fill="#000000" points="119.5,372.5505,123.5,363.5505,119.5,367.5505,115.5,363.5505,119.5,372.5505" style="stroke:#000000;stroke-width:1;stroke-linejoin:miter;stroke-miterlimit:10;"/><path d="M119.5,336.8568 C119.5,347.8197 119.5,356.5555 119.5,367.5505" fill="none" style="stroke:#000000;stroke-width:1;"/></g><g class="link" data-entity-1="ent0005" data-entity-2="ent0006" data-link-type="dependency" id="lnk14"><polygon fill="#000000" points="119.5,448.5505,123.5,439.5505,119.5,443.5505,115.5,439.5505,119.5,448.5505" style="stroke:#000000;stroke-width:1;stroke-linejoin:miter;stroke-miterlimit:10;"/><path d="M119.5,412.8568 C119.5,423.8197 119.5,432.5555 119.5,443.5505" fill="none" style="stroke:#000000;stroke-width:1;"/></g><g class="link" data-entity-1="ent0006" data-entity-2="ent0007" data-link-type="dependency" id="lnk15"><polygon fill="#000000" points="119.5,524.5505,123.5,515.5505,119.5,519.5505,115.5,515.5505,119.5,524.5505" style="stroke:#000000;stroke-width:1;stroke-linejoin:miter;stroke-miterlimit:10;"/><path d="M119.5,488.8568 C119.5,499.8197 119.5,508.5555 119.5,519.5505" fill="none" style="stroke:#000000;stroke-width:1;"/></g><g class="link" data-entity-1="ent0007" data-entity-2="ent0008" data-link-type="dependency" id="lnk16"><polygon fill="#000000" points="119.5,600.5505,123.5,591.5505,119.5,595.5505,115.5,591.5505,119.5,600.5505" style="stroke:#000000;stroke-width:1;stroke-linejoin:miter;stroke-miterlimit:10;"/><path d="M119.5,564.8568 C119.5,575.8197 119.5,584.5555 119.5,595.5505" fill="none" style="stroke:#000000;stroke-width:1;"/></g><g class="link" data-entity-1="ent0008" data-entity-2="ent0009" data-link-type="dependency" id="lnk17"><polygon fill="#000000" points="119.5,676.5505,123.5,667.5505,119.5,671.5505,115.5,667.5505,119.5,676.5505" style="stroke:#000000;stroke-width:1;stroke-linejoin:miter;stroke-miterlimit:10;"/><path d="M119.5,640.8568 C119.5,651.8197 119.5,660.5555 119.5,671.5505" fill="none" style="stroke:#000000;stroke-width:1;"/></g><?plantuml-src bPB1ZjCm48RlVehPNlPIjzicMq8FIBj9qrOKM6qbE4yJDxNMiIFRBU8bM24U16xSU1i4l0KJfok5uvx6yNpwP_p_kOH6WZD7MuWvD5WyO2NSk32br1Mdi_PZPmkwi69iHGToPR0KTkJTF8eY7a-kXhEhYC-cCRjyXfnxa4gvLcKoYtWqlHv6oGiU9xDdgPpRl4PD9ImrIM8-IPBXD9vTyscSl2J1Tpidx4cKi1C7F4bZvo0qxXJTT8CSe1LWB3rCb4CueP8b-lPOe3PQ5gXuW_u0fIYFZQBlq4HTWiPQyFurxALrdd-KsetOXJ-8Ma2ZK6fsqLYiQWI5dypHWwk5fxqPMQ4Rj5YJ-XwFokT6-xSa2uCxUdEEke9jEkXnxe2beG4Lx54vqUlio93AcgCkKwEC1MzHEsgHQynBhqHhxhRr7duzVldz-VlVhp___FZ6c1K5BLCHa7LBt9_ptdHnMz7c3kZWfiVUTVw_ETlV_YFg95hgjaSD5cUpky5FocxGWcaFR4S4nhMTh2znBsZwzlLwindL9UIMBAhHUs63oAAFlZ-d5-B995RQE16ml8-bJydIAoZPh8smmvPzB0H1PYhffD6Gj-721meteAl_T-nRrhssmzQCtG3dhyYMsr1JbeQQiIpK1Lk4chCyr2LRXhfYgr3N_m00?></g></svg>