<svg xmlns="http://www.w3.org/2000/svg" xmlns:xlink="http://www.w3.org/1999/xlink" contentStyleType="text/css" data-diagram-type="DESCRIPTION" height="557px" preserveAspectRatio="none" style="width:485px;height:557px;" version="1.1" viewBox="0 0 485 557" width="485px" zoomAndPan="magnify"><?plantuml 1.2026.6?><defs/><g><g class="title" data-source-line="132"><text fill="#000000" font-family="'sans-serif'" font-size="22" font-weight="700" lengthAdjust="spacing" textLength="453.1484" x="15" y="36.2695">Java Skill Command Target Architecture</text></g><!--entity PM--><g class="entity" data-qualified-name="PM" data-source-line="134" id="ent0001"><rect fill="#FFFFFF" height="36.4883" rx="2.5" ry="2.5" style="stroke:#000000;stroke-width:1;" width="225.2285" x="155.3242" y="63.9102"/><text fill="#000000" font-family="'sans-serif'" font-size="14" lengthAdjust="spacing" textLength="205.2285" x="165.3242" y="87.4453">Package and Settings Resolver</text></g><!--entity RL--><g class="entity" data-qualified-name="RL" data-source-line="135" id="ent0002"><rect fill="#FFFFFF" height="36.4883" rx="2.5" ry="2.5" style="stroke:#000000;stroke-width:1;" width="177.0488" x="179.3242" y="136.9102"/><text fill="#000000" font-family="'sans-serif'" font-size="14" lengthAdjust="spacing" textLength="157.0488" x="189.3242" y="160.4453">DefaultResourceLoader</text></g><!--entity LS--><g class="entity" data-qualified-name="LS" data-source-line="136" id="ent0003"><rect fill="#FFFFFF" height="36.4883" rx="2.5" ry="2.5" style="stroke:#000000;stroke-width:1;" width="93.999" x="220.8242" y="209.9102"/><text fill="#000000" font-family="'sans-serif'" font-size="14" lengthAdjust="spacing" textLength="73.999" x="230.8242" y="233.4453">SkillLoader</text></g><!--entity LR--><g class="entity" data-qualified-name="LR" data-source-line="137" id="ent0004"><rect fill="#FFFFFF" height="36.4883" rx="2.5" ry="2.5" style="stroke:#000000;stroke-width:1;" width="199.1494" x="168.3242" y="282.9102"/><text fill="#000000" font-family="'sans-serif'" font-size="14" lengthAdjust="spacing" textLength="179.1494" x="178.3242" y="306.4453">Immutable SkillLoadResult</text></g><!--entity GUI--><g class="entity" data-qualified-name="GUI" data-source-line="138" id="ent0005"><rect fill="#FFFFFF" height="36.4883" rx="2.5" ry="2.5" style="stroke:#000000;stroke-width:1;" width="78.2764" x="84.8242" y="446.9102"/><text fill="#000000" font-family="'sans-serif'" font-size="14" lengthAdjust="spacing" textLength="58.2764" x="94.8242" y="470.4453">Agent UI</text></g><!--entity CS--><g class="entity" data-qualified-name="CS" data-source-line="139" id="ent0006"><rect fill="#FFFFFF" height="36.4883" rx="2.5" ry="2.5" style="stroke:#000000;stroke-width:1;" width="215.5762" x="49.8242" y="355.9102"/><text fill="#000000" font-family="'sans-serif'" font-size="14" lengthAdjust="spacing" textLength="195.5762" x="59.8242" y="379.4453">CommandCompletionService</text></g><!--entity AS--><g class="entity" data-qualified-name="AS" data-source-line="140" id="ent0007"><rect fill="#FFFFFF" height="36.4883" rx="2.5" ry="2.5" style="stroke:#000000;stroke-width:1;" width="111.0615" x="284.3242" y="355.9102"/><text fill="#000000" font-family="'sans-serif'" font-size="14" lengthAdjust="spacing" textLength="91.0615" x="294.3242" y="379.4453">AgentSession</text></g><!--entity SE--><g class="entity" data-qualified-name="SE" data-source-line="141" id="ent0008"><rect fill="#FFFFFF" height="36.4883" rx="2.5" ry="2.5" style="stroke:#000000;stroke-width:1;" width="181.2666" x="249.3242" y="446.9102"/><text fill="#000000" font-family="'sans-serif'" font-size="14" lengthAdjust="spacing" textLength="161.2666" x="259.3242" y="470.4453">SkillCommandExpander</text></g><!--entity AG--><g class="entity" data-qualified-name="AG" data-source-line="142" id="ent0009"><rect fill="#FFFFFF" height="36.4883" rx="2.5" ry="2.5" style="stroke:#000000;stroke-width:1;" width="60.1133" x="309.8242" y="519.9102"/><text fill="#000000" font-family="'sans-serif'" font-size="14" lengthAdjust="spacing" textLength="40.1133" x="319.8242" y="543.4453">Agent</text></g><g class="link" data-entity-1="ent0001" data-entity-2="ent0002" data-link-type="dependency" id="lnk10"><polygon fill="#000000" points="267.8242,136.8813,271.8242,127.8813,267.8242,131.8813,263.8242,127.8813,267.8242,136.8813" style="stroke:#000000;stroke-width:1;stroke-linejoin:miter;stroke-miterlimit:10;"/><path d="M267.8242,100.0973 C267.8242,111.2602 267.8242,120.75 267.8242,131.8813" fill="none" style="stroke:#000000;stroke-width:1;"/></g><g class="link" data-entity-1="ent0002" data-entity-2="ent0003" data-link-type="dependency" id="lnk11"><polygon fill="#000000" points="267.8242,209.8813,271.8242,200.8813,267.8242,204.8813,263.8242,200.8813,267.8242,209.8813" style="stroke:#000000;stroke-width:1;stroke-linejoin:miter;stroke-miterlimit:10;"/><path d="M267.8242,173.0973 C267.8242,184.2602 267.8242,193.75 267.8242,204.8813" fill="none" style="stroke:#000000;stroke-width:1;"/></g><g class="link" data-entity-1="ent0003" data-entity-2="ent0004" data-link-type="dependency" id="lnk12"><polygon fill="#000000" points="267.8242,282.8813,271.8242,273.8813,267.8242,277.8813,263.8242,273.8813,267.8242,282.8813" style="stroke:#000000;stroke-width:1;stroke-linejoin:miter;stroke-miterlimit:10;"/><path d="M267.8242,246.0973 C267.8242,257.2602 267.8242,266.75 267.8242,277.8813" fill="none" style="stroke:#000000;stroke-width:1;"/></g><g class="link" data-entity-1="ent0004" data-entity-2="ent0006" data-link-type="dependency" id="lnk13"><polygon fill="#000000" points="184.3382,355.7966,194.0691,354.2766,188.5391,353.0851,189.7307,347.5551,184.3382,355.7966" style="stroke:#000000;stroke-width:1;stroke-linejoin:miter;stroke-miterlimit:10;"/><path d="M241.4765,318.9164 C224.1883,330.0752 205.8608,341.9047 188.5391,353.0851" fill="none" style="stroke:#000000;stroke-width:1;"/></g><g class="link" data-entity-1="ent0005" data-entity-2="ent0006" data-link-type="dependency" id="lnk14"><polygon fill="#000000" points="177.203,392.074,180.2625,401.4356,180.5526,395.7862,186.202,396.0762,177.203,392.074" style="stroke:#000000;stroke-width:1;stroke-linejoin:miter;stroke-miterlimit:10;"/><path d="M162.9928,450.8593 C172.802,445.6277 182.1406,438.4963 187.8242,428.9102 C195.0439,416.7331 190.1919,406.4688 180.5526,395.7862" fill="none" style="stroke:#000000;stroke-width:1;"/><text fill="#000000" font-family="'sans-serif'" font-size="13" lengthAdjust="spacing" textLength="35.604" x="192.8242" y="424.4785">query</text></g><g class="link" data-entity-1="ent0006" data-entity-2="ent0005" data-link-type="dependency" id="lnk15"><polygon fill="#000000" points="110.168,446.8267,108.6958,437.0884,107.4772,442.6125,101.9532,441.3938,110.168,446.8267" style="stroke:#000000;stroke-width:1;stroke-linejoin:miter;stroke-miterlimit:10;"/><path d="M120.4634,392.0105 C113.7833,396.8197 107.7189,402.7446 103.8242,409.9102 C97.4268,421.6803 100.5155,431.7097 107.4772,442.6125" fill="none" style="stroke:#000000;stroke-width:1;"/><text fill="#000000" font-family="'sans-serif'" font-size="13" lengthAdjust="spacing" textLength="76.0767" x="105.8242" y="424.4785">suggestions</text></g><g class="link" data-entity-1="ent0004" data-entity-2="ent0007" data-link-type="dependency" id="lnk16"><polygon fill="#000000" points="322.5555,355.8813,318.9558,346.7139,318.9954,352.3706,313.3386,352.4101,322.5555,355.8813" style="stroke:#000000;stroke-width:1;stroke-linejoin:miter;stroke-miterlimit:10;"/><path d="M285.2534,319.0973 C296.5736,330.2602 307.7073,341.2393 318.9954,352.3706" fill="none" style="stroke:#000000;stroke-width:1;"/></g><g class="link" data-entity-1="ent0007" data-entity-2="ent0008" data-link-type="dependency" id="lnk17"><polygon fill="#000000" points="339.8242,446.8027,343.8242,437.8027,339.8242,441.8027,335.8242,437.8027,339.8242,446.8027" style="stroke:#000000;stroke-width:1;stroke-linejoin:miter;stroke-miterlimit:10;"/><path d="M339.8242,392.0703 C339.8242,407.8301 339.8242,426.0595 339.8242,441.8027" fill="none" style="stroke:#000000;stroke-width:1;"/></g><g class="link" data-entity-1="ent0008" data-entity-2="ent0009" data-link-type="dependency" id="lnk18"><polygon fill="#000000" points="339.8242,519.8813,343.8242,510.8813,339.8242,514.8813,335.8242,510.8813,339.8242,519.8813" style="stroke:#000000;stroke-width:1;stroke-linejoin:miter;stroke-miterlimit:10;"/><path d="M339.8242,483.0973 C339.8242,494.2602 339.8242,503.75 339.8242,514.8813" fill="none" style="stroke:#000000;stroke-width:1;"/></g><?plantuml-src ZLDDSzf03BtxLoXSSi5yXj3neJCCeGmTfyFOpGyGjZ0xsBlkxjef_xxQDH0tfzparPFUUvBy2BK0engTKGGrPcSio8mpbGjPX1nBEpOwumTDOqqTC2mLvgH7raJp-Jnycaw6pvDv-3nx2Xw_rgvIEJyBQKbZPaLB_JXqMTTyiLY4Y-NagqszHlyP6Z96AEcQJAVBUJYTpPVSvYUsU6zqr8evPUvhLtKzQXjYz2oSVflSiBLMUPDPo9GqLYEBZ63xjWDXm9u8b2mlO54NP1bAXgdHCY-OHXynen7tUI4Z2WcQq2WPTJ3TahDqe1EsGcbuFucIe37i1qHLDHOF_EqLCBmfhHbwsanLTKcEOGWeS-OdM3d3QUSNw6-DqaSrsjCeU62L5NELB3rug3KM5KA95zLOC1LPb1YOiv0rQgmWfoCosG-Uoo_aia7ApLBIuZZeeSm9S_Nkf1wnDDJB77WrXLQDpDUgP5iyCMaunG83A-pDKdeMPGbhLLNEm-zkV2kTdOIbp3QQWa1pWBBWYi6-sxVtcvArJ6mWuKiiMz83G0Fxrnx-fVEGN4yrzfVgK4dSGta97xauxJFkxXkumnA_1SyM9tsidpwyxNoALzJBNGskxplZIROY8uTSzmd_so0dL-bdfTTM6xVTg-Hqyxc3Bzq6mVuLml2xyvl4Fc9tSTf5IH0dFc81xg2w42Buqv2-1EiEvZ8Htt31lvaJRcvLh6pLGPW-tNHlsty0?></g></svg>