<svg xmlns="http://www.w3.org/2000/svg" xmlns:xlink="http://www.w3.org/1999/xlink" contentStyleType="text/css" data-diagram-type="DESCRIPTION" height="533px" preserveAspectRatio="none" style="width:485px;height:533px;" version="1.1" viewBox="0 0 485 533" width="485px" zoomAndPan="magnify"><?plantuml 1.2026.6?><defs/><g><g class="title" data-source-line="123"><text fill="#000000" font-family="'sans-serif'" font-size="22" font-weight="700" lengthAdjust="spacing" textLength="453.1484" x="15" y="36.2695">Java Skill Command Target Architecture</text></g><!--entity PM--><g class="entity" data-qualified-name="PM" data-source-line="125" id="ent0001"><rect fill="#FFFFFF" height="36.4883" rx="2.5" ry="2.5" style="stroke:#000000;stroke-width:1;" width="225.2285" x="152.8242" y="63.9102"/><text fill="#000000" font-family="'sans-serif'" font-size="14" lengthAdjust="spacing" textLength="205.2285" x="162.8242" y="87.4453">Package and Settings Resolver</text></g><!--entity RL--><g class="entity" data-qualified-name="RL" data-source-line="126" id="ent0002"><rect fill="#FFFFFF" height="36.4883" rx="2.5" ry="2.5" style="stroke:#000000;stroke-width:1;" width="177.0488" x="176.8242" y="135.9102"/><text fill="#000000" font-family="'sans-serif'" font-size="14" lengthAdjust="spacing" textLength="157.0488" x="186.8242" y="159.4453">DefaultResourceLoader</text></g><!--entity LS--><g class="entity" data-qualified-name="LS" data-source-line="127" id="ent0003"><rect fill="#FFFFFF" height="36.4883" rx="2.5" ry="2.5" style="stroke:#000000;stroke-width:1;" width="93.999" x="218.3242" y="207.9102"/><text fill="#000000" font-family="'sans-serif'" font-size="14" lengthAdjust="spacing" textLength="73.999" x="228.3242" y="231.4453">SkillLoader</text></g><!--entity LR--><g class="entity" data-qualified-name="LR" data-source-line="128" id="ent0004"><rect fill="#FFFFFF" height="36.4883" rx="2.5" ry="2.5" style="stroke:#000000;stroke-width:1;" width="199.1494" x="165.8242" y="279.9102"/><text fill="#000000" font-family="'sans-serif'" font-size="14" lengthAdjust="spacing" textLength="179.1494" x="175.8242" y="303.4453">Immutable SkillLoadResult</text></g><!--entity IM--><g class="entity" data-qualified-name="IM" data-source-line="129" id="ent0005"><rect fill="#FFFFFF" height="36.4883" rx="2.5" ry="2.5" style="stroke:#000000;stroke-width:1;" width="127.9873" x="121.3242" y="351.9102"/><text fill="#000000" font-family="'sans-serif'" font-size="14" lengthAdjust="spacing" textLength="107.9873" x="131.3242" y="375.4453">InteractiveMode</text></g><!--entity AP--><g class="entity" data-qualified-name="AP" data-source-line="130" id="ent0006"><rect fill="#FFFFFF" height="36.4883" rx="2.5" ry="2.5" style="stroke:#000000;stroke-width:1;" width="239.9326" x="20.3242" y="423.9102"/><text fill="#000000" font-family="'sans-serif'" font-size="14" lengthAdjust="spacing" textLength="219.9326" x="30.3242" y="447.4453">CombinedAutocompleteProvider</text></g><!--entity AS--><g class="entity" data-qualified-name="AS" data-source-line="131" id="ent0007"><rect fill="#FFFFFF" height="36.4883" rx="2.5" ry="2.5" style="stroke:#000000;stroke-width:1;" width="111.0615" x="290.8242" y="351.9102"/><text fill="#000000" font-family="'sans-serif'" font-size="14" lengthAdjust="spacing" textLength="91.0615" x="300.8242" y="375.4453">AgentSession</text></g><!--entity SE--><g class="entity" data-qualified-name="SE" data-source-line="132" id="ent0008"><rect fill="#FFFFFF" height="36.4883" rx="2.5" ry="2.5" style="stroke:#000000;stroke-width:1;" width="181.2666" x="278.8242" y="423.9102"/><text fill="#000000" font-family="'sans-serif'" font-size="14" lengthAdjust="spacing" textLength="161.2666" x="288.8242" y="447.4453">SkillCommandExpander</text></g><!--entity AG--><g class="entity" data-qualified-name="AG" data-source-line="133" id="ent0009"><rect fill="#FFFFFF" height="36.4883" rx="2.5" ry="2.5" style="stroke:#000000;stroke-width:1;" width="60.1133" x="339.3242" y="495.9102"/><text fill="#000000" font-family="'sans-serif'" font-size="14" lengthAdjust="spacing" textLength="40.1133" x="349.3242" y="519.4453">Agent</text></g><g class="link" data-entity-1="ent0001" data-entity-2="ent0002" data-link-type="dependency" id="lnk10"><polygon fill="#000000" points="265.3242,135.8058,269.3242,126.8058,265.3242,130.8058,261.3242,126.8058,265.3242,135.8058" style="stroke:#000000;stroke-width:1;stroke-linejoin:miter;stroke-miterlimit:10;"/><path d="M265.3242,100.2135 C265.3242,111.0639 265.3242,119.9934 265.3242,130.8058" fill="none" style="stroke:#000000;stroke-width:1;"/></g><g class="link" data-entity-1="ent0002" data-entity-2="ent0003" data-link-type="dependency" id="lnk11"><polygon fill="#000000" points="265.3242,207.8058,269.3242,198.8058,265.3242,202.8058,261.3242,198.8058,265.3242,207.8058" style="stroke:#000000;stroke-width:1;stroke-linejoin:miter;stroke-miterlimit:10;"/><path d="M265.3242,172.2135 C265.3242,183.0639 265.3242,191.9934 265.3242,202.8058" fill="none" style="stroke:#000000;stroke-width:1;"/></g><g class="link" data-entity-1="ent0003" data-entity-2="ent0004" data-link-type="dependency" id="lnk12"><polygon fill="#000000" points="265.3242,279.8058,269.3242,270.8058,265.3242,274.8058,261.3242,270.8058,265.3242,279.8058" style="stroke:#000000;stroke-width:1;stroke-linejoin:miter;stroke-miterlimit:10;"/><path d="M265.3242,244.2135 C265.3242,255.0639 265.3242,263.9934 265.3242,274.8058" fill="none" style="stroke:#000000;stroke-width:1;"/></g><g class="link" data-entity-1="ent0004" data-entity-2="ent0005" data-link-type="dependency" id="lnk13"><polygon fill="#000000" points="204.872,351.8058,214.2792,348.8896,208.6349,348.5133,209.0112,342.869,204.872,351.8058" style="stroke:#000000;stroke-width:1;stroke-linejoin:miter;stroke-miterlimit:10;"/><path d="M245.5489,316.2135 C233.1485,327.0639 220.9919,337.7009 208.6349,348.5133" fill="none" style="stroke:#000000;stroke-width:1;"/></g><g class="link" data-entity-1="ent0005" data-entity-2="ent0006" data-link-type="dependency" id="lnk14"><polygon fill="#000000" points="151.3199,423.8058,159.5514,418.3982,154.0236,419.5999,152.822,414.0722,151.3199,423.8058" style="stroke:#000000;stroke-width:1;stroke-linejoin:miter;stroke-miterlimit:10;"/><path d="M174.2006,388.2135 C167.2254,399.0639 160.9745,408.7875 154.0236,419.5999" fill="none" style="stroke:#000000;stroke-width:1;"/></g><g class="link" data-entity-1="ent0004" data-entity-2="ent0007" data-link-type="dependency" id="lnk15"><polygon fill="#000000" points="326.5321,351.8058,322.338,342.8946,322.749,348.5365,317.1071,348.9475,326.5321,351.8058" style="stroke:#000000;stroke-width:1;stroke-linejoin:miter;stroke-miterlimit:10;"/><path d="M285.3467,316.2135 C297.9021,327.0639 310.2375,337.7241 322.749,348.5365" fill="none" style="stroke:#000000;stroke-width:1;"/></g><g class="link" data-entity-1="ent0007" data-entity-2="ent0008" data-link-type="dependency" id="lnk16"><polygon fill="#000000" points="363.7042,423.8058,364.695,414.0069,362.1435,419.0557,357.0947,416.5041,363.7042,423.8058" style="stroke:#000000;stroke-width:1;stroke-linejoin:miter;stroke-miterlimit:10;"/><path d="M352.0096,388.2135 C355.5747,399.0639 358.5908,408.2433 362.1435,419.0557" fill="none" style="stroke:#000000;stroke-width:1;"/></g><g class="link" data-entity-1="ent0008" data-entity-2="ent0009" data-link-type="dependency" id="lnk17"><polygon fill="#000000" points="369.3242,495.8058,373.3242,486.8058,369.3242,490.8058,365.3242,486.8058,369.3242,495.8058" style="stroke:#000000;stroke-width:1;stroke-linejoin:miter;stroke-miterlimit:10;"/><path d="M369.3242,460.2135 C369.3242,471.0639 369.3242,479.9934 369.3242,490.8058" fill="none" style="stroke:#000000;stroke-width:1;"/></g><?plantuml-src ZLB1Rjim3BtxAzHSUfcRf6uQe8S2HfiM6PmXiFS3ZCtOGcJ9a6Xt-_jHijjwFVL6aO-Fxr6y5fqKplIsn0VHGNc16jsoD9NKTSonfgMp9ISiBYsEm5WPgD3Ua7j8aYI-Mwz-tA-I-FxsBhh-7brhAavBJMYX93dWF8vzrPDlDfjuirrzbpHe3C_OeNFIQ4-oNc-JU7sRR9dc6PsijR08pcYcOaDe1_Jq9snWaCQAjqOg5BrZRY7RjYSuyVid3C1zhbVa1EXA68qYzREASPJ0Fnte47L0pKrqHGssJAr0wkYgir2t81JyDJq9roA1XiXTfEx0GYigF0DplnXDlu3R5WMJ5MZbUJ53kGOgy-QLdK4vd5LEl9NQcbvNJqQn2xBSpoKM696aTmV5HIebdapRUW-_mTP88hLb8mbBwYr6aUK0TCqTY-Euwk2tG28Ux4JEHw06j0i1JXmFC_ppw26VhYGBH-9HUJP31GcVjQoOJzn_BFm3beUbXsbPFiFkFm_cmFVYw_kv6ZPvaXghj2TJchPJI7YqPf3JuFGu0__taxvOV5KyxMpdVtbYA7PV6KBhQnGT3oAE7xtlF0iHkyoACSgZB0yHgzsFE9OovNXkEkAOlDYDkTT_?></g></svg>