<svg xmlns="http://www.w3.org/2000/svg" xmlns:xlink="http://www.w3.org/1999/xlink" contentStyleType="text/css" data-diagram-type="DESCRIPTION" height="557px" preserveAspectRatio="none" style="width:498px;height:557px;" version="1.1" viewBox="0 0 498 557" width="498px" zoomAndPan="magnify"><?plantuml 1.2026.6?><defs/><g><g class="title" data-source-line="132"><text fill="#000000" font-family="'sans-serif'" font-size="22" font-weight="700" lengthAdjust="spacing" textLength="453.1484" x="21.4258" y="36.2695">Java Skill Command Target Architecture</text></g><!--entity PM--><g class="entity" data-qualified-name="PM" data-source-line="134" id="ent0001"><rect fill="#FFFFFF" height="36.4883" rx="2.5" ry="2.5" style="stroke:#000000;stroke-width:1;" width="225.2285" x="207" y="63.9102"/><text fill="#000000" font-family="'sans-serif'" font-size="14" lengthAdjust="spacing" textLength="205.2285" x="217" y="87.4453">Package and Settings Resolver</text></g><!--entity RL--><g class="entity" data-qualified-name="RL" data-source-line="135" id="ent0002"><rect fill="#FFFFFF" height="36.4883" rx="2.5" ry="2.5" style="stroke:#000000;stroke-width:1;" width="177.0488" x="231" y="136.9102"/><text fill="#000000" font-family="'sans-serif'" font-size="14" lengthAdjust="spacing" textLength="157.0488" x="241" y="160.4453">DefaultResourceLoader</text></g><!--entity LS--><g class="entity" data-qualified-name="LS" data-source-line="136" id="ent0003"><rect fill="#FFFFFF" height="36.4883" rx="2.5" ry="2.5" style="stroke:#000000;stroke-width:1;" width="93.999" x="272.5" y="209.9102"/><text fill="#000000" font-family="'sans-serif'" font-size="14" lengthAdjust="spacing" textLength="73.999" x="282.5" y="233.4453">SkillLoader</text></g><!--entity LR--><g class="entity" data-qualified-name="LR" data-source-line="137" id="ent0004"><rect fill="#FFFFFF" height="36.4883" rx="2.5" ry="2.5" style="stroke:#000000;stroke-width:1;" width="199.1494" x="220" y="282.9102"/><text fill="#000000" font-family="'sans-serif'" font-size="14" lengthAdjust="spacing" textLength="179.1494" x="230" y="306.4453">Immutable SkillLoadResult</text></g><!--entity GUI--><g class="entity" data-qualified-name="GUI" data-source-line="138" id="ent0005"><rect fill="#FFFFFF" height="36.4883" rx="2.5" ry="2.5" style="stroke:#000000;stroke-width:1;" width="244.875" x="11" y="446.9102"/><text fill="#000000" font-family="'sans-serif'" font-size="14" lengthAdjust="spacing" textLength="224.875" x="21" y="470.4453">GuiCommandCompletionAdapter</text></g><!--entity CS--><g class="entity" data-qualified-name="CS" data-source-line="139" id="ent0006"><rect fill="#FFFFFF" height="36.4883" rx="2.5" ry="2.5" style="stroke:#000000;stroke-width:1;" width="215.5762" x="101.5" y="355.9102"/><text fill="#000000" font-family="'sans-serif'" font-size="14" lengthAdjust="spacing" textLength="195.5762" x="111.5" y="379.4453">CommandCompletionService</text></g><!--entity AS--><g class="entity" data-qualified-name="AS" data-source-line="140" id="ent0007"><rect fill="#FFFFFF" height="36.4883" rx="2.5" ry="2.5" style="stroke:#000000;stroke-width:1;" width="111.0615" x="336" y="355.9102"/><text fill="#000000" font-family="'sans-serif'" font-size="14" lengthAdjust="spacing" textLength="91.0615" x="346" y="379.4453">AgentSession</text></g><!--entity SE--><g class="entity" data-qualified-name="SE" data-source-line="141" id="ent0008"><rect fill="#FFFFFF" height="36.4883" rx="2.5" ry="2.5" style="stroke:#000000;stroke-width:1;" width="181.2666" x="301" y="446.9102"/><text fill="#000000" font-family="'sans-serif'" font-size="14" lengthAdjust="spacing" textLength="161.2666" x="311" y="470.4453">SkillCommandExpander</text></g><!--entity AG--><g class="entity" data-qualified-name="AG" data-source-line="142" id="ent0009"><rect fill="#FFFFFF" height="36.4883" rx="2.5" ry="2.5" style="stroke:#000000;stroke-width:1;" width="60.1133" x="361.5" y="519.9102"/><text fill="#000000" font-family="'sans-serif'" font-size="14" lengthAdjust="spacing" textLength="40.1133" x="371.5" y="543.4453">Agent</text></g><g class="link" data-entity-1="ent0001" data-entity-2="ent0002" data-link-type="dependency" id="lnk10"><polygon fill="#000000" points="319.5,136.8813,323.5,127.8813,319.5,131.8813,315.5,127.8813,319.5,136.8813" style="stroke:#000000;stroke-width:1;stroke-linejoin:miter;stroke-miterlimit:10;"/><path d="M319.5,100.0973 C319.5,111.2602 319.5,120.75 319.5,131.8813" fill="none" style="stroke:#000000;stroke-width:1;"/></g><g class="link" data-entity-1="ent0002" data-entity-2="ent0003" data-link-type="dependency" id="lnk11"><polygon fill="#000000" points="319.5,209.8813,323.5,200.8813,319.5,204.8813,315.5,200.8813,319.5,209.8813" style="stroke:#000000;stroke-width:1;stroke-linejoin:miter;stroke-miterlimit:10;"/><path d="M319.5,173.0973 C319.5,184.2602 319.5,193.75 319.5,204.8813" fill="none" style="stroke:#000000;stroke-width:1;"/></g><g class="link" data-entity-1="ent0003" data-entity-2="ent0004" data-link-type="dependency" id="lnk12"><polygon fill="#000000" points="319.5,282.8813,323.5,273.8813,319.5,277.8813,315.5,273.8813,319.5,282.8813" style="stroke:#000000;stroke-width:1;stroke-linejoin:miter;stroke-miterlimit:10;"/><path d="M319.5,246.0973 C319.5,257.2602 319.5,266.75 319.5,277.8813" fill="none" style="stroke:#000000;stroke-width:1;"/></g><g class="link" data-entity-1="ent0004" data-entity-2="ent0006" data-link-type="dependency" id="lnk13"><polygon fill="#000000" points="236.014,355.7966,245.7449,354.2766,240.2149,353.0851,241.4065,347.5551,236.014,355.7966" style="stroke:#000000;stroke-width:1;stroke-linejoin:miter;stroke-miterlimit:10;"/><path d="M293.1523,318.9164 C275.864,330.0752 257.5366,341.9047 240.2149,353.0851" fill="none" style="stroke:#000000;stroke-width:1;"/></g><g class="link" data-entity-1="ent0005" data-entity-2="ent0006" data-link-type="dependency" id="lnk14"><polygon fill="#000000" points="210.82,391.974,206.8378,400.9819,210.8299,396.974,214.8378,400.9661,210.82,391.974" style="stroke:#000000;stroke-width:1;stroke-linejoin:miter;stroke-miterlimit:10;"/><path d="M181.1526,446.8849 C188.9834,442.1627 196.2447,436.2518 201.5,428.9102 C209.1127,418.2753 210.8525,408.4144 210.8299,396.974" fill="none" style="stroke:#000000;stroke-width:1;"/><text fill="#000000" font-family="'sans-serif'" font-size="13" lengthAdjust="spacing" textLength="35.604" x="211.5" y="424.4785">query</text></g><g class="link" data-entity-1="ent0006" data-entity-2="ent0005" data-link-type="dependency" id="lnk15"><polygon fill="#000000" points="121.2733,446.6547,120.3397,436.8502,118.8186,442.2987,113.3701,440.7777,121.2733,446.6547" style="stroke:#000000;stroke-width:1;stroke-linejoin:miter;stroke-miterlimit:10;"/><path d="M137.3955,391.9647 C129.5969,396.5843 122.6412,402.4536 117.5,409.9102 C109.9516,420.858 112.4843,431.058 118.8186,442.2987" fill="none" style="stroke:#000000;stroke-width:1;"/><text fill="#000000" font-family="'sans-serif'" font-size="13" lengthAdjust="spacing" textLength="76.0767" x="119.5" y="424.4785">suggestions</text></g><g class="link" data-entity-1="ent0004" data-entity-2="ent0007" data-link-type="dependency" id="lnk16"><polygon fill="#000000" points="374.2313,355.8813,370.6316,346.7139,370.6711,352.3706,365.0144,352.4101,374.2313,355.8813" style="stroke:#000000;stroke-width:1;stroke-linejoin:miter;stroke-miterlimit:10;"/><path d="M336.9292,319.0973 C348.2494,330.2602 359.383,341.2393 370.6711,352.3706" fill="none" style="stroke:#000000;stroke-width:1;"/></g><g class="link" data-entity-1="ent0007" data-entity-2="ent0008" data-link-type="dependency" id="lnk17"><polygon fill="#000000" points="391.5,446.8027,395.5,437.8027,391.5,441.8027,387.5,437.8027,391.5,446.8027" style="stroke:#000000;stroke-width:1;stroke-linejoin:miter;stroke-miterlimit:10;"/><path d="M391.5,392.0703 C391.5,407.8301 391.5,426.0595 391.5,441.8027" fill="none" style="stroke:#000000;stroke-width:1;"/></g><g class="link" data-entity-1="ent0008" data-entity-2="ent0009" data-link-type="dependency" id="lnk18"><polygon fill="#000000" points="391.5,519.8813,395.5,510.8813,391.5,514.8813,387.5,510.8813,391.5,519.8813" style="stroke:#000000;stroke-width:1;stroke-linejoin:miter;stroke-miterlimit:10;"/><path d="M391.5,483.0973 C391.5,494.2602 391.5,503.75 391.5,514.8813" fill="none" style="stroke:#000000;stroke-width:1;"/></g><?plantuml-src ZLFDSfim4Bxp51jVSZ7-8uuxFdJ6uxYUT4Z70-q3h64D6eD49K6Qj-zAs0vDBxajsa_VpwwuXqQ0KQtEQ0qDPcSio4mpbGjPX5nBEpKwumDDKqqzCAmKvgGdrgoZA0eVvhFnuomA7nSFmVtdw6gLyx6GbZHcLdGqh4FNTUJBvJ9ShcQV9VKU_MTeo1YXf2EPprTHE5z4AwRvZXtUY4vQiQRC_TrDqqowbXYz2ETVPbTierNUPXOo9OtLo2RNiF_r3CA0BGcKhDx0eYx8CfGCIwDbNJ2jFc564-Pv8YCA2PhGABdkOReZ5-b89NP2QNWjHKNG6iu3egvRYqV-zWuOtbRMZBrifkgc8gSm1fGvwnDiNE2qpmlqfq7fgmPjEGdks6NDMXLR3-uQZKMDKE6RQYsOcYnA3CnPo0Orrf3J2Ldi6y_b1_ArKSfaAMbn6WrGfiHSlJgh9wmC3Jf7NasXLIlphQeu5azC6cwnmS0AUusKdaLLmLRLjSlmin_VHcUbi9JPLbCGQ2vG5dnZTEZtxVEcP2qB6qZu9LOTwH6WWSFB0F_KPqWkJpNsBzMXadY0yXRUUt4wL7o-RU06I_mMl5gS3B3xLbnoR6-hsUJOs9wNTpO0_uVaqNOY8uVS3Xtyir9kRjAFrYzKExVkIuPqzv71Nzq7mU45ml2h6q0I-uhZncbV9K6S-8eDk1VMbx26totfjs3RmrndpO-wuF_E6JVNM-niqqDOFjtrP_k_?></g></svg>