<svg xmlns="http://www.w3.org/2000/svg" xmlns:xlink="http://www.w3.org/1999/xlink" contentStyleType="text/css" data-diagram-type="DESCRIPTION" height="666px" preserveAspectRatio="none" style="width:485px;height:666px;" version="1.1" viewBox="0 0 485 666" width="485px" zoomAndPan="magnify"><?plantuml 1.2026.6?><defs/><g><g class="title" data-source-line="133"><text fill="#000000" font-family="'sans-serif'" font-size="22" font-weight="700" lengthAdjust="spacing" textLength="453.1484" x="15" y="36.2695">Java Skill Command Target Architecture</text></g><!--entity PM--><g class="entity" data-qualified-name="PM" data-source-line="135" id="ent0001"><rect fill="#FFFFFF" height="36.4883" rx="2.5" ry="2.5" style="stroke:#000000;stroke-width:1;" width="225.2285" x="243.8242" y="63.9102"/><text fill="#000000" font-family="'sans-serif'" font-size="14" lengthAdjust="spacing" textLength="205.2285" x="253.8242" y="87.4453">Package and Settings Resolver</text></g><!--entity RL--><g class="entity" data-qualified-name="RL" data-source-line="136" id="ent0002"><rect fill="#FFFFFF" height="36.4883" rx="2.5" ry="2.5" style="stroke:#000000;stroke-width:1;" width="177.0488" x="267.8242" y="136.9102"/><text fill="#000000" font-family="'sans-serif'" font-size="14" lengthAdjust="spacing" textLength="157.0488" x="277.8242" y="160.4453">DefaultResourceLoader</text></g><!--entity LS--><g class="entity" data-qualified-name="LS" data-source-line="137" id="ent0003"><rect fill="#FFFFFF" height="36.4883" rx="2.5" ry="2.5" style="stroke:#000000;stroke-width:1;" width="93.999" x="309.3242" y="209.9102"/><text fill="#000000" font-family="'sans-serif'" font-size="14" lengthAdjust="spacing" textLength="73.999" x="319.3242" y="233.4453">SkillLoader</text></g><!--entity LR--><g class="entity" data-qualified-name="LR" data-source-line="138" id="ent0004"><rect fill="#FFFFFF" height="36.4883" rx="2.5" ry="2.5" style="stroke:#000000;stroke-width:1;" width="199.1494" x="256.8242" y="282.9102"/><text fill="#000000" font-family="'sans-serif'" font-size="14" lengthAdjust="spacing" textLength="179.1494" x="266.8242" y="306.4453">Immutable SkillLoadResult</text></g><!--entity GUI--><g class="entity" data-qualified-name="GUI" data-source-line="139" id="ent0005"><rect fill="#FFFFFF" height="36.4883" rx="2.5" ry="2.5" style="stroke:#000000;stroke-width:1;" width="78.2764" x="175.3242" y="446.9102"/><text fill="#000000" font-family="'sans-serif'" font-size="14" lengthAdjust="spacing" textLength="58.2764" x="185.3242" y="470.4453">Agent UI</text></g><!--entity CS--><g class="entity" data-qualified-name="CS" data-source-line="140" id="ent0006"><rect fill="#FFFFFF" height="36.4883" rx="2.5" ry="2.5" style="stroke:#000000;stroke-width:1;" width="215.5762" x="152.3242" y="355.9102"/><text fill="#000000" font-family="'sans-serif'" font-size="14" lengthAdjust="spacing" textLength="195.5762" x="162.3242" y="379.4453">CommandCompletionService</text></g><!--entity AR--><g class="entity" data-qualified-name="AR" data-source-line="141" id="ent0007"><rect fill="#FFFFFF" height="36.4883" rx="2.5" ry="2.5" style="stroke:#000000;stroke-width:1;" width="120.9258" x="153.8242" y="537.9102"/><text fill="#000000" font-family="'sans-serif'" font-size="14" lengthAdjust="spacing" textLength="100.9258" x="163.8242" y="561.4453">Agent Runtime</text></g><!--entity SI--><g class="entity" data-qualified-name="SI" data-source-line="142" id="ent0008"><rect fill="#FFFFFF" height="36.4883" rx="2.5" ry="2.5" style="stroke:#000000;stroke-width:1;" width="117.9043" x="89.3242" y="628.9102"/><text fill="#000000" font-family="'sans-serif'" font-size="14" lengthAdjust="spacing" textLength="97.9043" x="99.3242" y="652.4453">SkillInvocation</text></g><!--entity SM--><g class="entity" data-qualified-name="SM" data-source-line="143" id="ent0009"><rect fill="#FFFFFF" height="36.4883" rx="2.5" ry="2.5" style="stroke:#000000;stroke-width:1;" width="117.8975" x="269.3242" y="628.9102"/><text fill="#000000" font-family="'sans-serif'" font-size="14" lengthAdjust="spacing" textLength="97.8975" x="279.3242" y="652.4453">Skills Manager</text></g><!--entity AG--><g class="entity" data-qualified-name="AG" data-source-line="144" id="ent0010"><rect fill="#FFFFFF" height="36.4883" rx="2.5" ry="2.5" style="stroke:#000000;stroke-width:1;" width="60.1133" x="11.3242" y="628.9102"/><text fill="#000000" font-family="'sans-serif'" font-size="14" lengthAdjust="spacing" textLength="40.1133" x="21.3242" y="652.4453">Agent</text></g><g class="link" data-entity-1="ent0001" data-entity-2="ent0002" data-link-type="dependency" id="lnk11"><polygon fill="#000000" points="356.3242,136.8813,360.3242,127.8813,356.3242,131.8813,352.3242,127.8813,356.3242,136.8813" style="stroke:#000000;stroke-width:1;stroke-linejoin:miter;stroke-miterlimit:10;"/><path d="M356.3242,100.0973 C356.3242,111.2602 356.3242,120.75 356.3242,131.8813" fill="none" style="stroke:#000000;stroke-width:1;"/></g><g class="link" data-entity-1="ent0002" data-entity-2="ent0003" data-link-type="dependency" id="lnk12"><polygon fill="#000000" points="356.3242,209.8813,360.3242,200.8813,356.3242,204.8813,352.3242,200.8813,356.3242,209.8813" style="stroke:#000000;stroke-width:1;stroke-linejoin:miter;stroke-miterlimit:10;"/><path d="M356.3242,173.0973 C356.3242,184.2602 356.3242,193.75 356.3242,204.8813" fill="none" style="stroke:#000000;stroke-width:1;"/></g><g class="link" data-entity-1="ent0003" data-entity-2="ent0004" data-link-type="dependency" id="lnk13"><polygon fill="#000000" points="356.3242,282.8813,360.3242,273.8813,356.3242,277.8813,352.3242,273.8813,356.3242,282.8813" style="stroke:#000000;stroke-width:1;stroke-linejoin:miter;stroke-miterlimit:10;"/><path d="M356.3242,246.0973 C356.3242,257.2602 356.3242,266.75 356.3242,277.8813" fill="none" style="stroke:#000000;stroke-width:1;"/></g><g class="link" data-entity-1="ent0004" data-entity-2="ent0006" data-link-type="dependency" id="lnk14"><polygon fill="#000000" points="283.3491,355.8813,292.9637,353.7457,287.3691,352.9082,288.2066,347.3137,283.3491,355.8813" style="stroke:#000000;stroke-width:1;stroke-linejoin:miter;stroke-miterlimit:10;"/><path d="M333.0853,319.0973 C317.9917,330.2602 302.42,341.7769 287.3691,352.9082" fill="none" style="stroke:#000000;stroke-width:1;"/></g><g class="link" data-entity-1="ent0005" data-entity-2="ent0006" data-link-type="dependency" id="lnk15"><polygon fill="#000000" points="226.1881,392.0872,216.6024,394.3489,222.2074,395.1128,221.4434,400.7179,226.1881,392.0872" style="stroke:#000000;stroke-width:1;stroke-linejoin:miter;stroke-miterlimit:10;"/><path d="M208.5011,446.4199 C205.8755,435.3549 204.5068,421.0834 210.3242,409.9102 C213.9942,402.8614 215.8247,399.9643 222.2074,395.1128" fill="none" style="stroke:#000000;stroke-width:1;"/><text fill="#000000" font-family="'sans-serif'" font-size="13" lengthAdjust="spacing" textLength="35.604" x="212.3242" y="424.4785">query</text></g><g class="link" data-entity-1="ent0006" data-entity-2="ent0005" data-link-type="dependency" id="lnk16"><polygon fill="#000000" points="235.4998,446.7178,244.6974,443.196,239.0406,443.1875,239.0491,437.5307,235.4998,446.7178" style="stroke:#000000;stroke-width:1;stroke-linejoin:miter;stroke-miterlimit:10;"/><path d="M259.3461,392.319 C258.1231,403.3515 255.3938,417.6174 249.3242,428.9102 C245.8255,435.4197 244.2684,437.9753 239.0406,443.1875" fill="none" style="stroke:#000000;stroke-width:1;"/><text fill="#000000" font-family="'sans-serif'" font-size="13" lengthAdjust="spacing" textLength="76.0767" x="258.3242" y="424.4785">suggestions</text></g><g class="link" data-entity-1="ent0005" data-entity-2="ent0007" data-link-type="dependency" id="lnk17"><polygon fill="#000000" points="214.3242,537.8027,218.3242,528.8027,214.3242,532.8027,210.3242,528.8027,214.3242,537.8027" style="stroke:#000000;stroke-width:1;stroke-linejoin:miter;stroke-miterlimit:10;"/><path d="M214.3242,483.0703 C214.3242,498.8301 214.3242,517.0595 214.3242,532.8027" fill="none" style="stroke:#000000;stroke-width:1;"/><text fill="#000000" font-family="'sans-serif'" font-size="13" lengthAdjust="spacing" textLength="43.6338" x="216.3242" y="515.4785">submit</text></g><g class="link" data-entity-1="ent0007" data-entity-2="ent0008" data-link-type="dependency" id="lnk18"><polygon fill="#000000" points="144.4003,628.6146,147.1077,619.1451,143.7038,623.6633,139.1857,620.2595,144.4003,628.6146" style="stroke:#000000;stroke-width:1;stroke-linejoin:miter;stroke-miterlimit:10;"/><path d="M167.6622,573.9852 C160.3789,578.6879 153.7957,584.579 149.3242,591.9102 C142.684,602.7971 142.1203,612.4056 143.7038,623.6633" fill="none" style="stroke:#000000;stroke-width:1;stroke-dasharray:7,7;"/><text fill="#000000" font-family="'sans-serif'" font-size="13" lengthAdjust="spacing" textLength="45.1318" x="151.3242" y="606.4785">creates</text></g><g class="link" data-entity-1="ent0007" data-entity-2="ent0009" data-link-type="dependency" id="lnk19"><polygon fill="#000000" points="325.1111,628.7963,326.747,619.0843,323.8675,623.9534,318.9984,621.0739,325.1111,628.7963" style="stroke:#000000;stroke-width:1;stroke-linejoin:miter;stroke-miterlimit:10;"/><path d="M274.9454,571.8364 C286.395,576.7818 297.5229,583.312 306.3242,591.9102 C316.462,601.8139 320.8476,612.1925 323.8675,623.9534" fill="none" style="stroke:#000000;stroke-width:1;"/><text fill="#000000" font-family="'sans-serif'" font-size="13" lengthAdjust="spacing" textLength="49.2896" x="321.3242" y="606.4785">execute</text></g><g class="link" data-entity-1="ent0004" data-entity-2="ent0009" data-link-type="dependency" id="lnk20"><polygon fill="#000000" points="357.6327,628.7295,367.2453,626.5855,361.6501,625.7529,362.4828,620.1576,357.6327,628.7295" style="stroke:#000000;stroke-width:1;stroke-linejoin:miter;stroke-miterlimit:10;"/><path d="M372.5938,319.09 C383.668,332.6189 396.3242,352.5371 396.3242,372.9102 C396.3242,372.9102 396.3242,372.9102 396.3242,556.9102 C396.3242,582.5034 391.7667,590.5008 376.3242,610.9102 C371.2214,617.6542 368.4802,620.6923 361.6501,625.7529" fill="none" style="stroke:#000000;stroke-width:1;"/></g><g class="link" data-entity-1="ent0009" data-entity-2="ent0007" data-link-type="dependency" id="lnk21"><polygon fill="#000000" points="210.6143,573.9795,205.4973,582.3947,209.9755,578.9385,213.4317,583.4168,210.6143,573.9795" style="stroke:#000000;stroke-width:1;stroke-linejoin:miter;stroke-miterlimit:10;"/><path d="M269.2927,640.6803 C249.7622,635.8748 229.8437,627.0272 217.3242,610.9102 C209.3179,600.6031 208.4827,590.5279 209.9755,578.9385" fill="none" style="stroke:#000000;stroke-width:1;"/><text fill="#000000" font-family="'sans-serif'" font-size="13" lengthAdjust="spacing" textLength="81.5928" x="219.3242" y="606.4785">effectiveText</text></g><g class="link" data-entity-1="ent0007" data-entity-2="ent0010" data-link-type="dependency" id="lnk22"><polygon fill="#000000" points="71.4145,628.9114,81.2232,628.0232,75.7818,626.4769,77.328,621.0355,71.4145,628.9114" style="stroke:#000000;stroke-width:1;stroke-linejoin:miter;stroke-miterlimit:10;"/><path d="M177.2333,573.9423 C165.3712,579.5254 152.2313,585.8532 140.3242,591.9102 C116.941,603.8048 95.2797,615.608 75.7818,626.4769" fill="none" style="stroke:#000000;stroke-width:1;"/></g><?plantuml-src ZLJ1Rjim3BtxAzXSUfdJf6dQ8OS2GOeL6PAXiDiFK6J65cfBdYYxxT-FafpKsowz98puzDuZHUOIMWLaEYjn1QsGhw94kfAcKBfCETRkYgpa0ujN5YCmhOqeq4uThHQBHNepdtsxdItIs-kRvF9hT8qf-5XfXrP8fteSnwdFUlBbSfakxsPV9GqUmy-Ka4WPxKdcyxj5EhzUt37DJz6BCz7H6jRKHRYxRjjfto6ZhzFvzza9srfJTDA1D9gS5Mno1OylMr04ha8mklu09so9Zg58B2qSwm9rzYWaJayy4PC6lB2oKWwbwoo2h8GksSpQsuQiqquro3LQhe1LcqReWe0_87zLTKsm5vfBj83lA3l78FRL1Qu10ahtHWORvFKVa5IfmQ8WerVHfktHj_I0bUYLiV1MgHg1a7NveYvFoc1D5tvphvg1FWhx8isRHakLQgV91NV3-wwvHSb5QqNP2AZ51ry7Qj2nwOHUbVO23HHu55tjVd3_Vmc-Dic5fXojEav6AAf4OTw2kgW9Hva3Zq39rdInCJNRvvVHn2bkOUAKur92qwFVpL3AStoczQZxIM8vu0VW6vEdE5Unr-XysGGPJtpTevs087ZQZ_0FiOPiM8bTs0YFodOZLB3mcTlbOyLjqtHE7COmfcFIeBRBnjWu7o_RaE897EM60lchhT4_37UoLn8zSfF_Jp8CMM1QP_-QtPwdn-VpiT3axn4C1Fcu9v7VqpucoTCUqlJUjoFRXOYBt-Knof9T5YBsvzSfXh22tntQZsGJOJwpubKgUTl3E9-nwoma3ero2SVJwJqxvIF9KyuxuSyyBD_psR0e9qKsdEy_IV1unF2dyuplxdHl_VW7?></g></svg>