<svg xmlns="http://www.w3.org/2000/svg" xmlns:xlink="http://www.w3.org/1999/xlink" contentStyleType="text/css" data-diagram-type="DESCRIPTION" height="565px" preserveAspectRatio="none" style="width:449px;height:565px;" version="1.1" viewBox="0 0 449 565" width="449px" zoomAndPan="magnify"><?plantuml 1.2026.6?><defs/><g><g class="title" data-source-line="123"><text fill="#000000" font-family="'PingFang SC'" font-size="22" font-weight="700" lengthAdjust="spacing" textLength="312.7111" x="67.1445" y="38.32">Java Skill Command &#30446;&#26631;&#26550;&#26500;</text></g><!--entity PM--><g class="entity" data-qualified-name="PM" data-source-line="125" id="ent0001"><rect fill="#FFFFFF" height="39.6" rx="2.5" ry="2.5" style="stroke:#000000;stroke-width:1;" width="222.5522" x="134.5" y="68.8"/><text fill="#000000" font-family="'PingFang SC'" font-size="14" lengthAdjust="spacing" textLength="202.5522" x="144.5" y="93.64">Package and Settings Resolver</text></g><!--entity RL--><g class="entity" data-qualified-name="RL" data-source-line="126" id="ent0002"><rect fill="#FFFFFF" height="39.6" rx="2.5" ry="2.5" style="stroke:#000000;stroke-width:1;" width="173.2217" x="159.5" y="144.8"/><text fill="#000000" font-family="'PingFang SC'" font-size="14" lengthAdjust="spacing" textLength="153.2217" x="169.5" y="169.64">DefaultResourceLoader</text></g><!--entity LS--><g class="entity" data-qualified-name="LS" data-source-line="127" id="ent0003"><rect fill="#FFFFFF" height="39.6" rx="2.5" ry="2.5" style="stroke:#000000;stroke-width:1;" width="91.8957" x="200" y="220.8"/><text fill="#000000" font-family="'PingFang SC'" font-size="14" lengthAdjust="spacing" textLength="71.8957" x="210" y="245.64">SkillLoader</text></g><!--entity LR--><g class="entity" data-qualified-name="LR" data-source-line="128" id="ent0004"><rect fill="#FFFFFF" height="39.6" rx="2.5" ry="2.5" style="stroke:#000000;stroke-width:1;" width="191.3728" x="150.5" y="296.8"/><text fill="#000000" font-family="'PingFang SC'" font-size="14" lengthAdjust="spacing" textLength="171.3728" x="160.5" y="321.64">Immutable SkillLoadResult</text></g><!--entity IM--><g class="entity" data-qualified-name="IM" data-source-line="129" id="ent0005"><rect fill="#FFFFFF" height="39.6" rx="2.5" ry="2.5" style="stroke:#000000;stroke-width:1;" width="124.1951" x="106" y="372.8"/><text fill="#000000" font-family="'PingFang SC'" font-size="14" lengthAdjust="spacing" textLength="104.1951" x="116" y="397.64">InteractiveMode</text></g><!--entity AP--><g class="entity" data-qualified-name="AP" data-source-line="130" id="ent0006"><rect fill="#FFFFFF" height="39.6" rx="2.5" ry="2.5" style="stroke:#000000;stroke-width:1;" width="229.9862" x="11" y="448.8"/><text fill="#000000" font-family="'PingFang SC'" font-size="14" lengthAdjust="spacing" textLength="209.9862" x="21" y="473.64">CombinedAutocompleteProvider</text></g><!--entity AS--><g class="entity" data-qualified-name="AS" data-source-line="131" id="ent0007"><rect fill="#FFFFFF" height="39.6" rx="2.5" ry="2.5" style="stroke:#000000;stroke-width:1;" width="108.5319" x="269.5" y="372.8"/><text fill="#000000" font-family="'PingFang SC'" font-size="14" lengthAdjust="spacing" textLength="88.5319" x="279.5" y="397.64">AgentSession</text></g><!--entity SE--><g class="entity" data-qualified-name="SE" data-source-line="132" id="ent0008"><rect fill="#FFFFFF" height="39.6" rx="2.5" ry="2.5" style="stroke:#000000;stroke-width:1;" width="173.8251" x="259" y="448.8"/><text fill="#000000" font-family="'PingFang SC'" font-size="14" lengthAdjust="spacing" textLength="153.8251" x="269" y="473.64">SkillCommandExpander</text></g><!--entity AG--><g class="entity" data-qualified-name="AG" data-source-line="133" id="ent0009"><rect fill="#FFFFFF" height="39.6" rx="2.5" ry="2.5" style="stroke:#000000;stroke-width:1;" width="58.066" x="317" y="524.8"/><text fill="#000000" font-family="'PingFang SC'" font-size="14" lengthAdjust="spacing" textLength="38.066" x="327" y="549.64">Agent</text></g><g class="link" data-entity-1="ent0001" data-entity-2="ent0002" data-link-type="dependency" id="lnk10"><polygon fill="#000000" points="246,144.5505,250,135.5505,246,139.5505,242,135.5505,246,144.5505" style="stroke:#000000;stroke-width:1;stroke-linejoin:miter;stroke-miterlimit:10;"/><path d="M246,108.8568 C246,119.8197 246,128.5555 246,139.5505" fill="none" style="stroke:#000000;stroke-width:1;"/></g><g class="link" data-entity-1="ent0002" data-entity-2="ent0003" data-link-type="dependency" id="lnk11"><polygon fill="#000000" points="246,220.5505,250,211.5505,246,215.5505,242,211.5505,246,220.5505" style="stroke:#000000;stroke-width:1;stroke-linejoin:miter;stroke-miterlimit:10;"/><path d="M246,184.8568 C246,195.8197 246,204.5555 246,215.5505" fill="none" style="stroke:#000000;stroke-width:1;"/></g><g class="link" data-entity-1="ent0003" data-entity-2="ent0004" data-link-type="dependency" id="lnk12"><polygon fill="#000000" points="246,296.5505,250,287.5505,246,291.5505,242,287.5505,246,296.5505" style="stroke:#000000;stroke-width:1;stroke-linejoin:miter;stroke-miterlimit:10;"/><path d="M246,260.8568 C246,271.8197 246,280.5555 246,291.5505" fill="none" style="stroke:#000000;stroke-width:1;"/></g><g class="link" data-entity-1="ent0004" data-entity-2="ent0005" data-link-type="dependency" id="lnk13"><polygon fill="#000000" points="188.29,372.5505,197.5722,369.2581,191.9173,369.1092,192.0661,363.4543,188.29,372.5505" style="stroke:#000000;stroke-width:1;stroke-linejoin:miter;stroke-miterlimit:10;"/><path d="M225.9131,336.8568 C214.3576,347.8197 203.5067,358.1142 191.9173,369.1092" fill="none" style="stroke:#000000;stroke-width:1;"/></g><g class="link" data-entity-1="ent0005" data-entity-2="ent0006" data-link-type="dependency" id="lnk14"><polygon fill="#000000" points="136.9254,448.5505,144.8466,442.6978,139.3934,444.2021,137.8891,438.749,136.9254,448.5505" style="stroke:#000000;stroke-width:1;stroke-linejoin:miter;stroke-miterlimit:10;"/><path d="M157.184,412.8568 C150.9618,423.8197 145.6338,433.207 139.3934,444.2021" fill="none" style="stroke:#000000;stroke-width:1;"/></g><g class="link" data-entity-1="ent0004" data-entity-2="ent0007" data-link-type="dependency" id="lnk15"><polygon fill="#000000" points="303.71,372.5505,299.9339,363.4543,300.0827,369.1092,294.4278,369.2581,303.71,372.5505" style="stroke:#000000;stroke-width:1;stroke-linejoin:miter;stroke-miterlimit:10;"/><path d="M266.0869,336.8568 C277.6424,347.8197 288.4933,358.1142 300.0827,369.1092" fill="none" style="stroke:#000000;stroke-width:1;"/></g><g class="link" data-entity-1="ent0007" data-entity-2="ent0008" data-link-type="dependency" id="lnk16"><polygon fill="#000000" points="340.2772,448.5505,341.5466,438.7838,338.8523,443.7579,333.8783,441.0636,340.2772,448.5505" style="stroke:#000000;stroke-width:1;stroke-linejoin:miter;stroke-miterlimit:10;"/><path d="M329.6655,412.8568 C332.9248,423.8197 335.5835,432.7628 338.8523,443.7579" fill="none" style="stroke:#000000;stroke-width:1;"/></g><g class="link" data-entity-1="ent0008" data-entity-2="ent0009" data-link-type="dependency" id="lnk17"><polygon fill="#000000" points="346,524.5505,350,515.5505,346,519.5505,342,515.5505,346,524.5505" style="stroke:#000000;stroke-width:1;stroke-linejoin:miter;stroke-miterlimit:10;"/><path d="M346,488.8568 C346,499.8197 346,508.5555 346,519.5505" fill="none" style="stroke:#000000;stroke-width:1;"/></g><?plantuml-src ZL9BRjim4Dth58mtsPIn7SKna4K0mt425t8XI2SOInE9C4KA9AMa-m8zH86W9-YoHtAlqI7b9cfMsGrd7jzdo7FM2cPrPmgyOIqK1wZGJWjT2bLngfMRMbDGm-3Ku03aKaE9viBPcpYE-TLyzkbw5lFhowle_6DqZIwfBPH30uKJFOvhxgUUVB5OyCLozb7Iu34SkKLhXLQUP3vVndn-6I-9vWwjg1Gp25Oheg90Q7hqz7kieHVQiATQI6IT9MuccgPpiAVpP-Y1xjbEEij0bKmhP2klbGzI39zRKA5gmTKNqPchiI5g2K95Pws1gW4cuQlk7BCDEb0GsODGBHXeM8cFGDptMhalGDScAUdV0td8rvCHpjPGwYVlxH6anT5aJtkfZEvKkTQISZX3TcX45YCdtByC-K58oTQwQNoAFpz-7Nz-FxxyFhvyYoA31Tcgf9SVjXoYvkWSALgMqVlB7is4WMNfReI_6-ndfm-IXF_XKLaoGWNjjrcIZnMthxj-XMLXtq4joKROxTjVsT5NyVFjs0sbsmk5vQfpkj1DAz5XQdGlJiAhT0J-xn7zC7_l-BIiZN_W4qE-USyGhZv4KRfZdD_wt5aIAagPv4ELHKaMAdAx7N1avTGZtTM08_9yC_GU_W80?></g></svg>