<svg xmlns="http://www.w3.org/2000/svg" xmlns:xlink="http://www.w3.org/1999/xlink" contentStyleType="text/css" data-diagram-type="ACTIVITY" height="394px" preserveAspectRatio="none" style="width:402px;height:394px;" version="1.1" viewBox="0 0 402 394" width="402px" zoomAndPan="magnify"><?plantuml 1.2026.6?><defs/><g><g class="title" data-source-line="199"><text fill="#000000" font-family="'sans-serif'" font-size="22" font-weight="700" lengthAdjust="spacing" textLength="356.3613" x="22.2998" y="36.2695">Skill Command Routing Priority</text></g><ellipse cx="166.8342" cy="66.9102" fill="#FFFFFF" rx="10" ry="10" style="stroke:#000000;stroke-width:1;"/><rect fill="#FFFFFF" height="34.1328" rx="12.5" ry="12.5" style="stroke:#000000;stroke-width:1;" width="80.2168" x="126.7258" y="96.9102"/><text fill="#000000" font-family="'sans-serif'" font-size="12" lengthAdjust="spacing" textLength="60.2168" x="136.7258" y="118.5117">User Input</text><polygon fill="#FFFFFF" points="107.1453,151.043,226.5232,151.043,238.5232,163.043,226.5232,175.043,107.1453,175.043,95.1453,163.043,107.1453,151.043" style="stroke:#000000;stroke-width:1;stroke-linejoin:miter;stroke-miterlimit:10;"/><text fill="#000000" font-family="'sans-serif'" font-size="11" lengthAdjust="spacing" textLength="119.3779" x="107.1453" y="167.2002">Registered Command?</text><text fill="#000000" font-family="'sans-serif'" font-size="11" lengthAdjust="spacing" textLength="45.9712" x="49.1741" y="160.7227">matched</text><text fill="#000000" font-family="'sans-serif'" font-size="11" lengthAdjust="spacing" textLength="67.1494" x="238.5232" y="160.7227">not matched</text><rect fill="#FFFFFF" height="34.1328" rx="12.5" ry="12.5" style="stroke:#000000;stroke-width:1;" width="114.623" x="11" y="185.043"/><text fill="#000000" font-family="'sans-serif'" font-size="12" lengthAdjust="spacing" textLength="94.623" x="21" y="206.6445">Execute Handler</text><ellipse cx="68.3115" cy="265.1758" fill="none" rx="11" ry="11" style="stroke:#000000;stroke-width:1;"/><ellipse cx="68.3115" cy="265.1758" fill="#FFFFFF" rx="6" ry="6" style="stroke:#000000;stroke-width:1;"/><polygon fill="#FFFFFF" points="222.9844,185.043,307.7295,185.043,319.7295,197.043,307.7295,209.043,222.9844,209.043,210.9844,197.043,222.9844,185.043" style="stroke:#000000;stroke-width:1;stroke-linejoin:miter;stroke-miterlimit:10;"/><text fill="#000000" font-family="'sans-serif'" font-size="11" lengthAdjust="spacing" textLength="84.7451" x="222.9844" y="201.2002">Skill Command?</text><text fill="#000000" font-family="'sans-serif'" font-size="11" lengthAdjust="spacing" textLength="45.9712" x="165.0132" y="194.7227">matched</text><text fill="#000000" font-family="'sans-serif'" font-size="11" lengthAdjust="spacing" textLength="67.1494" x="319.7295" y="194.7227">not matched</text><rect fill="#FFFFFF" height="34.1328" rx="12.5" ry="12.5" style="stroke:#000000;stroke-width:1;" width="90.7227" x="155.623" y="219.043"/><text fill="#000000" font-family="'sans-serif'" font-size="12" lengthAdjust="spacing" textLength="70.7227" x="165.623" y="240.6445">Expand Skill</text><rect fill="#FFFFFF" height="34.1328" rx="12.5" ry="12.5" style="stroke:#000000;stroke-width:1;" width="116.4629" x="271.498" y="219.043"/><text fill="#000000" font-family="'sans-serif'" font-size="12" lengthAdjust="spacing" textLength="96.4629" x="281.498" y="240.6445">Ordinary Prompt</text><polygon fill="#FFFFFF" points="265.3569,259.1758,277.3569,271.1758,265.3569,283.1758,253.3569,271.1758,265.3569,259.1758" style="stroke:#000000;stroke-width:1;stroke-linejoin:miter;stroke-miterlimit:10;"/><rect fill="#FFFFFF" height="34.1328" rx="12.5" ry="12.5" style="stroke:#000000;stroke-width:1;" width="54.3828" x="238.1655" y="303.1758"/><text fill="#000000" font-family="'sans-serif'" font-size="12" lengthAdjust="spacing" textLength="34.3828" x="248.1655" y="324.7773">Agent</text><ellipse cx="265.3569" cy="368.3086" fill="none" rx="11" ry="11" style="stroke:#000000;stroke-width:1;"/><ellipse cx="265.3569" cy="368.3086" fill="#FFFFFF" rx="6" ry="6" style="stroke:#000000;stroke-width:1;"/><line style="stroke:#000000;stroke-width:1;" x1="166.8342" x2="166.8342" y1="76.9102" y2="96.9102"/><polygon fill="#000000" points="162.8342,86.9102,166.8342,96.9102,170.8342,86.9102,166.8342,90.9102" style="stroke:#000000;stroke-width:1;stroke-linejoin:miter;stroke-miterlimit:10;"/><line style="stroke:#000000;stroke-width:1;" x1="68.3115" x2="68.3115" y1="219.1758" y2="254.1758"/><polygon fill="#000000" points="64.3115,244.1758,68.3115,254.1758,72.3115,244.1758,68.3115,248.1758" style="stroke:#000000;stroke-width:1;stroke-linejoin:miter;stroke-miterlimit:10;"/><line style="stroke:#000000;stroke-width:1;" x1="210.9844" x2="200.9844" y1="197.043" y2="197.043"/><line style="stroke:#000000;stroke-width:1;" x1="200.9844" x2="200.9844" y1="197.043" y2="219.043"/><polygon fill="#000000" points="196.9844,209.043,200.9844,219.043,204.9844,209.043,200.9844,213.043" style="stroke:#000000;stroke-width:1;stroke-linejoin:miter;stroke-miterlimit:10;"/><line style="stroke:#000000;stroke-width:1;" x1="319.7295" x2="329.7295" y1="197.043" y2="197.043"/><line style="stroke:#000000;stroke-width:1;" x1="329.7295" x2="329.7295" y1="197.043" y2="219.043"/><polygon fill="#000000" points="325.7295,209.043,329.7295,219.043,333.7295,209.043,329.7295,213.043" style="stroke:#000000;stroke-width:1;stroke-linejoin:miter;stroke-miterlimit:10;"/><line style="stroke:#000000;stroke-width:1;" x1="200.9844" x2="200.9844" y1="253.1758" y2="271.1758"/><line style="stroke:#000000;stroke-width:1;" x1="200.9844" x2="253.3569" y1="271.1758" y2="271.1758"/><polygon fill="#000000" points="243.3569,267.1758,253.3569,271.1758,243.3569,275.1758,247.3569,271.1758" style="stroke:#000000;stroke-width:1;stroke-linejoin:miter;stroke-miterlimit:10;"/><line style="stroke:#000000;stroke-width:1;" x1="329.7295" x2="329.7295" y1="253.1758" y2="271.1758"/><line style="stroke:#000000;stroke-width:1;" x1="329.7295" x2="277.3569" y1="271.1758" y2="271.1758"/><polygon fill="#000000" points="287.3569,267.1758,277.3569,271.1758,287.3569,275.1758,283.3569,271.1758" style="stroke:#000000;stroke-width:1;stroke-linejoin:miter;stroke-miterlimit:10;"/><line style="stroke:#000000;stroke-width:1;" x1="265.3569" x2="265.3569" y1="283.1758" y2="303.1758"/><polygon fill="#000000" points="261.3569,293.1758,265.3569,303.1758,269.3569,293.1758,265.3569,297.1758" style="stroke:#000000;stroke-width:1;stroke-linejoin:miter;stroke-miterlimit:10;"/><line style="stroke:#000000;stroke-width:1;" x1="265.3569" x2="265.3569" y1="337.3086" y2="357.3086"/><polygon fill="#000000" points="261.3569,347.3086,265.3569,357.3086,269.3569,347.3086,265.3569,351.3086" style="stroke:#000000;stroke-width:1;stroke-linejoin:miter;stroke-miterlimit:10;"/><line style="stroke:#000000;stroke-width:1;" x1="95.1453" x2="68.3115" y1="163.043" y2="163.043"/><line style="stroke:#000000;stroke-width:1;" x1="68.3115" x2="68.3115" y1="163.043" y2="185.043"/><polygon fill="#000000" points="64.3115,175.043,68.3115,185.043,72.3115,175.043,68.3115,179.043" style="stroke:#000000;stroke-width:1;stroke-linejoin:miter;stroke-miterlimit:10;"/><line style="stroke:#000000;stroke-width:1;" x1="238.5232" x2="265.3569" y1="163.043" y2="163.043"/><line style="stroke:#000000;stroke-width:1;" x1="265.3569" x2="265.3569" y1="163.043" y2="185.043"/><polygon fill="#000000" points="261.3569,175.043,265.3569,185.043,269.3569,175.043,265.3569,179.043" style="stroke:#000000;stroke-width:1;stroke-linejoin:miter;stroke-miterlimit:10;"/><line style="stroke:#000000;stroke-width:1;" x1="166.8342" x2="166.8342" y1="131.043" y2="151.043"/><polygon fill="#000000" points="162.8342,141.043,166.8342,151.043,170.8342,141.043,166.8342,145.043" style="stroke:#000000;stroke-width:1;stroke-linejoin:miter;stroke-miterlimit:10;"/><?plantuml-src RLBBRXin3BplLp2vs07YLt98OH-A8ctQNDeWhZ-0MN5t1MibGQGQxz-NSjUDY-OcaPpXSCW9H0iSSgff3H7hFRR4YpeOwzkPlhqiEDKQIBGuVcTCp3RukV1wjLpUpbRBcm_NgzMTlcvkxwe9V2QshOT4oC4hQIAcz8iqq5eMIcHcTUXxz4PpDYGhmpL8Hnxe44jqkxVEmGirsXH2KYcO1gqDVHJejCAfk7brePYU83gqlhg82TiUmU4GiW3t9EYnuhtr4HFsOAZ1xEGXUFcE2hlSekSj9TjSdbLnXoQyAZqqw9ZECY_gJPj2zkO-k910ak8rfPPKOiNHAFj-7ErPPHIUft74gcB19DLwfsx0euzPDfLjOFhyrvOJzkFL7pkcFKhTaRcg0DPV3bHd8VXMvgUqqHXBY1MfJ9Zw871MNNZ_aVCUvP7qpV32-2wPrlquBU7fk8JDCJePVwSU3Ee6M2zgYHu8EZT0zfnZ34d8p4VGpkzzUFN03ha3eOFePVIwG_vlrxQuTC8zPCdAFwQGcOGXgrwMbEkIC_1rzmXOb-vyWltiQ00Je0obwn9RsuXITAeZbaS1kYnA1KBUsARu_QaS-vlB9VmR?></g></svg>