<svg xmlns="http://www.w3.org/2000/svg" xmlns:xlink="http://www.w3.org/1999/xlink" contentStyleType="text/css" data-diagram-type="ACTIVITY" height="458px" preserveAspectRatio="none" style="width:550px;height:458px;" version="1.1" viewBox="0 0 550 458" width="550px" zoomAndPan="magnify"><?plantuml 1.2026.6?><defs/><g><g class="title" data-source-line="181"><text fill="#000000" font-family="'sans-serif'" font-size="22" font-weight="700" lengthAdjust="spacing" textLength="356.3613" x="96.1626" y="36.2695">Skill Command Routing Priority</text></g><ellipse cx="186.1981" cy="66.9102" fill="#FFFFFF" rx="10" ry="10" style="stroke:#000000;stroke-width:1;"/><rect fill="#FFFFFF" height="34.1328" rx="12.5" ry="12.5" style="stroke:#000000;stroke-width:1;" width="80.2168" x="146.0897" y="96.9102"/><text fill="#000000" font-family="'sans-serif'" font-size="12" lengthAdjust="spacing" textLength="60.2168" x="156.0897" y="118.5117">User Input</text><polygon fill="#FFFFFF" points="102.7716,151.043,269.6246,151.043,281.6246,163.043,269.6246,175.043,102.7716,175.043,90.7716,163.043,102.7716,151.043" style="stroke:#000000;stroke-width:1;stroke-linejoin:miter;stroke-miterlimit:10;"/><text fill="#000000" font-family="'sans-serif'" font-size="11" lengthAdjust="spacing" textLength="166.853" x="102.7716" y="167.2002">Builtin or Extension Command?</text><text fill="#000000" font-family="'sans-serif'" font-size="11" lengthAdjust="spacing" textLength="45.9712" x="44.8004" y="160.7227">matched</text><text fill="#000000" font-family="'sans-serif'" font-size="11" lengthAdjust="spacing" textLength="67.1494" x="281.6246" y="160.7227">not matched</text><rect fill="#FFFFFF" height="34.1328" rx="12.5" ry="12.5" style="stroke:#000000;stroke-width:1;" width="114.623" x="11" y="185.043"/><text fill="#000000" font-family="'sans-serif'" font-size="12" lengthAdjust="spacing" textLength="94.623" x="21" y="206.6445">Execute Handler</text><ellipse cx="68.3115" cy="265.1758" fill="none" rx="11" ry="11" style="stroke:#000000;stroke-width:1;"/><ellipse cx="68.3115" cy="265.1758" fill="#FFFFFF" rx="6" ry="6" style="stroke:#000000;stroke-width:1;"/><polygon fill="#FFFFFF" points="261.7122,185.043,346.4573,185.043,358.4573,197.043,346.4573,209.043,261.7122,209.043,249.7122,197.043,261.7122,185.043" style="stroke:#000000;stroke-width:1;stroke-linejoin:miter;stroke-miterlimit:10;"/><text fill="#000000" font-family="'sans-serif'" font-size="11" lengthAdjust="spacing" textLength="84.7451" x="261.7122" y="201.2002">Skill Command?</text><text fill="#000000" font-family="'sans-serif'" font-size="11" lengthAdjust="spacing" textLength="45.9712" x="203.741" y="194.7227">matched</text><text fill="#000000" font-family="'sans-serif'" font-size="11" lengthAdjust="spacing" textLength="67.1494" x="358.4573" y="194.7227">not matched</text><rect fill="#FFFFFF" height="34.1328" rx="12.5" ry="12.5" style="stroke:#000000;stroke-width:1;" width="90.7227" x="155.623" y="219.043"/><text fill="#000000" font-family="'sans-serif'" font-size="12" lengthAdjust="spacing" textLength="70.7227" x="165.623" y="240.6445">Expand Skill</text><polygon fill="#FFFFFF" points="358.915,219.043,455.4551,219.043,467.4551,231.043,455.4551,243.043,358.915,243.043,346.915,231.043,358.915,219.043" style="stroke:#000000;stroke-width:1;stroke-linejoin:miter;stroke-miterlimit:10;"/><text fill="#000000" font-family="'sans-serif'" font-size="11" lengthAdjust="spacing" textLength="96.54" x="358.915" y="235.2002">Prompt Template?</text><text fill="#000000" font-family="'sans-serif'" font-size="11" lengthAdjust="spacing" textLength="45.9712" x="300.9438" y="228.7227">matched</text><text fill="#000000" font-family="'sans-serif'" font-size="11" lengthAdjust="spacing" textLength="67.1494" x="467.4551" y="228.7227">not matched</text><rect fill="#FFFFFF" height="34.1328" rx="12.5" ry="12.5" style="stroke:#000000;stroke-width:1;" width="121.1387" x="276.3457" y="253.043"/><text fill="#000000" font-family="'sans-serif'" font-size="12" lengthAdjust="spacing" textLength="101.1387" x="286.3457" y="274.6445">Expand Template</text><rect fill="#FFFFFF" height="34.1328" rx="12.5" ry="12.5" style="stroke:#000000;stroke-width:1;" width="116.4629" x="419.2236" y="253.043"/><text fill="#000000" font-family="'sans-serif'" font-size="12" lengthAdjust="spacing" textLength="96.4629" x="429.2236" y="274.6445">Ordinary Prompt</text><polygon fill="#FFFFFF" points="407.1851,293.1758,419.1851,305.1758,407.1851,317.1758,395.1851,305.1758,407.1851,293.1758" style="stroke:#000000;stroke-width:1;stroke-linejoin:miter;stroke-miterlimit:10;"/><polygon fill="#FFFFFF" points="304.0847,323.1758,316.0847,335.1758,304.0847,347.1758,292.0847,335.1758,304.0847,323.1758" style="stroke:#000000;stroke-width:1;stroke-linejoin:miter;stroke-miterlimit:10;"/><rect fill="#FFFFFF" height="34.1328" rx="12.5" ry="12.5" style="stroke:#000000;stroke-width:1;" width="54.3828" x="276.8933" y="367.1758"/><text fill="#000000" font-family="'sans-serif'" font-size="12" lengthAdjust="spacing" textLength="34.3828" x="286.8933" y="388.7773">Agent</text><ellipse cx="304.0847" cy="432.3086" fill="none" rx="11" ry="11" style="stroke:#000000;stroke-width:1;"/><ellipse cx="304.0847" cy="432.3086" fill="#FFFFFF" rx="6" ry="6" style="stroke:#000000;stroke-width:1;"/><line style="stroke:#000000;stroke-width:1;" x1="186.1981" x2="186.1981" y1="76.9102" y2="96.9102"/><polygon fill="#000000" points="182.1981,86.9102,186.1981,96.9102,190.1981,86.9102,186.1981,90.9102" style="stroke:#000000;stroke-width:1;stroke-linejoin:miter;stroke-miterlimit:10;"/><line style="stroke:#000000;stroke-width:1;" x1="68.3115" x2="68.3115" y1="219.1758" y2="254.1758"/><polygon fill="#000000" points="64.3115,244.1758,68.3115,254.1758,72.3115,244.1758,68.3115,248.1758" style="stroke:#000000;stroke-width:1;stroke-linejoin:miter;stroke-miterlimit:10;"/><line style="stroke:#000000;stroke-width:1;" x1="346.915" x2="336.915" y1="231.043" y2="231.043"/><line style="stroke:#000000;stroke-width:1;" x1="336.915" x2="336.915" y1="231.043" y2="253.043"/><polygon fill="#000000" points="332.915,243.043,336.915,253.043,340.915,243.043,336.915,247.043" style="stroke:#000000;stroke-width:1;stroke-linejoin:miter;stroke-miterlimit:10;"/><line style="stroke:#000000;stroke-width:1;" x1="467.4551" x2="477.4551" y1="231.043" y2="231.043"/><line style="stroke:#000000;stroke-width:1;" x1="477.4551" x2="477.4551" y1="231.043" y2="253.043"/><polygon fill="#000000" points="473.4551,243.043,477.4551,253.043,481.4551,243.043,477.4551,247.043" style="stroke:#000000;stroke-width:1;stroke-linejoin:miter;stroke-miterlimit:10;"/><line style="stroke:#000000;stroke-width:1;" x1="336.915" x2="336.915" y1="287.1758" y2="305.1758"/><line style="stroke:#000000;stroke-width:1;" x1="336.915" x2="395.1851" y1="305.1758" y2="305.1758"/><polygon fill="#000000" points="385.1851,301.1758,395.1851,305.1758,385.1851,309.1758,389.1851,305.1758" style="stroke:#000000;stroke-width:1;stroke-linejoin:miter;stroke-miterlimit:10;"/><line style="stroke:#000000;stroke-width:1;" x1="477.4551" x2="477.4551" y1="287.1758" y2="305.1758"/><line style="stroke:#000000;stroke-width:1;" x1="477.4551" x2="419.1851" y1="305.1758" y2="305.1758"/><polygon fill="#000000" points="429.1851,301.1758,419.1851,305.1758,429.1851,309.1758,425.1851,305.1758" style="stroke:#000000;stroke-width:1;stroke-linejoin:miter;stroke-miterlimit:10;"/><line style="stroke:#000000;stroke-width:1;" x1="249.7122" x2="200.9844" y1="197.043" y2="197.043"/><line style="stroke:#000000;stroke-width:1;" x1="200.9844" x2="200.9844" y1="197.043" y2="219.043"/><polygon fill="#000000" points="196.9844,209.043,200.9844,219.043,204.9844,209.043,200.9844,213.043" style="stroke:#000000;stroke-width:1;stroke-linejoin:miter;stroke-miterlimit:10;"/><line style="stroke:#000000;stroke-width:1;" x1="358.4573" x2="407.1851" y1="197.043" y2="197.043"/><line style="stroke:#000000;stroke-width:1;" x1="407.1851" x2="407.1851" y1="197.043" y2="219.043"/><polygon fill="#000000" points="403.1851,209.043,407.1851,219.043,411.1851,209.043,407.1851,213.043" style="stroke:#000000;stroke-width:1;stroke-linejoin:miter;stroke-miterlimit:10;"/><line style="stroke:#000000;stroke-width:1;" x1="200.9844" x2="200.9844" y1="253.1758" y2="335.1758"/><line style="stroke:#000000;stroke-width:1;" x1="200.9844" x2="292.0847" y1="335.1758" y2="335.1758"/><polygon fill="#000000" points="282.0847,331.1758,292.0847,335.1758,282.0847,339.1758,286.0847,335.1758" style="stroke:#000000;stroke-width:1;stroke-linejoin:miter;stroke-miterlimit:10;"/><line style="stroke:#000000;stroke-width:1;" x1="407.1851" x2="407.1851" y1="317.1758" y2="335.1758"/><line style="stroke:#000000;stroke-width:1;" x1="407.1851" x2="316.0847" y1="335.1758" y2="335.1758"/><polygon fill="#000000" points="326.0847,331.1758,316.0847,335.1758,326.0847,339.1758,322.0847,335.1758" style="stroke:#000000;stroke-width:1;stroke-linejoin:miter;stroke-miterlimit:10;"/><line style="stroke:#000000;stroke-width:1;" x1="304.0847" x2="304.0847" y1="347.1758" y2="367.1758"/><polygon fill="#000000" points="300.0847,357.1758,304.0847,367.1758,308.0847,357.1758,304.0847,361.1758" style="stroke:#000000;stroke-width:1;stroke-linejoin:miter;stroke-miterlimit:10;"/><line style="stroke:#000000;stroke-width:1;" x1="304.0847" x2="304.0847" y1="401.3086" y2="421.3086"/><polygon fill="#000000" points="300.0847,411.3086,304.0847,421.3086,308.0847,411.3086,304.0847,415.3086" style="stroke:#000000;stroke-width:1;stroke-linejoin:miter;stroke-miterlimit:10;"/><line style="stroke:#000000;stroke-width:1;" x1="90.7716" x2="68.3115" y1="163.043" y2="163.043"/><line style="stroke:#000000;stroke-width:1;" x1="68.3115" x2="68.3115" y1="163.043" y2="185.043"/><polygon fill="#000000" points="64.3115,175.043,68.3115,185.043,72.3115,175.043,68.3115,179.043" style="stroke:#000000;stroke-width:1;stroke-linejoin:miter;stroke-miterlimit:10;"/><line style="stroke:#000000;stroke-width:1;" x1="281.6246" x2="304.0847" y1="163.043" y2="163.043"/><line style="stroke:#000000;stroke-width:1;" x1="304.0847" x2="304.0847" y1="163.043" y2="185.043"/><polygon fill="#000000" points="300.0847,175.043,304.0847,185.043,308.0847,175.043,304.0847,179.043" style="stroke:#000000;stroke-width:1;stroke-linejoin:miter;stroke-miterlimit:10;"/><line style="stroke:#000000;stroke-width:1;" x1="186.1981" x2="186.1981" y1="131.043" y2="151.043"/><polygon fill="#000000" points="182.1981,141.043,186.1981,151.043,190.1981,141.043,186.1981,145.043" style="stroke:#000000;stroke-width:1;stroke-linejoin:miter;stroke-miterlimit:10;"/><?plantuml-src TPBFRjim3CRlUWgsbwP0t2JjeODp6BQkGtVPYcLx0DQc7I7w1ufkcxSVbJf8McGdovy-_aH-qWKa2paEt50D2PiDzfHdJMnjw2jT1vbbRbHWckr-gqmvsnYk9DUB-VocMiolFqqNYrjTNT_ScWluHjds0PWmnw1GfapyJ42lGg6KLatq7aEhMpQobUqKP4r13Qcegurr3fweqpFXaQDF0d_89uT2eAAM5MqAMOXu2gMcYyx5bsf8L-PCMPv0xJQOiyJOUmI7spW8P4-20KtUs92GqKDB7GvEliSWFr7BpbSOyehOTkT7hhp6Dhve9D2XotIqywIHzHo7qDv5fxq9QxrkQL96h3WQnxaRH_wjRHJEupYwCLcGnTH_DIJu4T8WIsCxc7mTh5CdAFD-7zoUyldoBR29HsdMr5uQWFh-bPf14tfGWoDUgfOb9aFQC4n253XobnFUDNOAkOCUhgGGJyBUS1zkwZJmWDpxbZlzFror_s9zYiZRyIMCzj3QpXo-zPVoD0yZ5_aV?></g></svg>