<svg xmlns="http://www.w3.org/2000/svg" xmlns:xlink="http://www.w3.org/1999/xlink" contentStyleType="text/css" data-diagram-type="ACTIVITY" height="471px" preserveAspectRatio="none" style="width:538px;height:471px;" version="1.1" viewBox="0 0 538 471" width="538px" zoomAndPan="magnify"><?plantuml 1.2026.6?><defs/><g><g class="title" data-source-line="181"><text fill="#000000" font-family="'PingFang SC'" font-size="22" font-weight="700" lengthAdjust="spacing" textLength="278.1758" x="129.3475" y="38.32">Skill Command &#36335;&#30001;&#20248;&#20808;&#32423;</text></g><ellipse cx="182.201" cy="71.8" fill="#FFFFFF" rx="10" ry="10" style="stroke:#000000;stroke-width:1;"/><rect fill="#FFFFFF" height="36.8" rx="12.5" ry="12.5" style="stroke:#000000;stroke-width:1;" width="77.2868" x="143.5576" y="101.8"/><text fill="#000000" font-family="'PingFang SC'" font-size="12" lengthAdjust="spacing" textLength="57.2868" x="153.5576" y="124.52">User Input</text><polygon fill="#FFFFFF" points="101.5456,158.6,262.8564,158.6,274.8564,170.6,262.8564,182.6,101.5456,182.6,89.5456,170.6,101.5456,158.6" style="stroke:#000000;stroke-width:1;stroke-linejoin:miter;stroke-miterlimit:10;"/><text fill="#000000" font-family="'PingFang SC'" font-size="11" lengthAdjust="spacing" textLength="161.3108" x="101.5456" y="174.56">Builtin or Extension Command?</text><text fill="#000000" font-family="'PingFang SC'" font-size="11" lengthAdjust="spacing" textLength="44.1903" x="45.3553" y="166.86">matched</text><text fill="#000000" font-family="'PingFang SC'" font-size="11" lengthAdjust="spacing" textLength="64.3764" x="274.8564" y="166.86">not matched</text><rect fill="#FFFFFF" height="36.8" rx="12.5" ry="12.5" style="stroke:#000000;stroke-width:1;" width="111.6597" x="11" y="192.6"/><text fill="#000000" font-family="'PingFang SC'" font-size="12" lengthAdjust="spacing" textLength="91.6597" x="21" y="215.32">Execute Handler</text><ellipse cx="66.8298" cy="275.4" fill="none" rx="11" ry="11" style="stroke:#000000;stroke-width:1;"/><ellipse cx="66.8298" cy="275.4" fill="#FFFFFF" rx="6" ry="6" style="stroke:#000000;stroke-width:1;"/><polygon fill="#FFFFFF" points="256.2896,192.6,338.8546,192.6,350.8546,204.6,338.8546,216.6,256.2896,216.6,244.2896,204.6,256.2896,192.6" style="stroke:#000000;stroke-width:1;stroke-linejoin:miter;stroke-miterlimit:10;"/><text fill="#000000" font-family="'PingFang SC'" font-size="11" lengthAdjust="spacing" textLength="82.565" x="256.2896" y="208.56">Skill Command?</text><text fill="#000000" font-family="'PingFang SC'" font-size="11" lengthAdjust="spacing" textLength="44.1903" x="200.0993" y="200.86">matched</text><text fill="#000000" font-family="'PingFang SC'" font-size="11" lengthAdjust="spacing" textLength="64.3764" x="350.8546" y="200.86">not matched</text><rect fill="#FFFFFF" height="36.8" rx="12.5" ry="12.5" style="stroke:#000000;stroke-width:1;" width="87.9885" x="152.6597" y="226.6"/><text fill="#000000" font-family="'PingFang SC'" font-size="12" lengthAdjust="spacing" textLength="67.9885" x="162.6597" y="249.32">Expand Skill</text><polygon fill="#FFFFFF" points="351.2206,226.6,445.7602,226.6,457.7602,238.6,445.7602,250.6,351.2206,250.6,339.2206,238.6,351.2206,226.6" style="stroke:#000000;stroke-width:1;stroke-linejoin:miter;stroke-miterlimit:10;"/><text fill="#000000" font-family="'PingFang SC'" font-size="11" lengthAdjust="spacing" textLength="94.5396" x="351.2206" y="242.56">Prompt Template?</text><text fill="#000000" font-family="'PingFang SC'" font-size="11" lengthAdjust="spacing" textLength="44.1903" x="295.0302" y="234.86">matched</text><text fill="#000000" font-family="'PingFang SC'" font-size="11" lengthAdjust="spacing" textLength="64.3764" x="457.7602" y="234.86">not matched</text><rect fill="#FFFFFF" height="36.8" rx="12.5" ry="12.5" style="stroke:#000000;stroke-width:1;" width="117.1449" x="270.6481" y="260.6"/><text fill="#000000" font-family="'PingFang SC'" font-size="12" lengthAdjust="spacing" textLength="97.1449" x="280.6481" y="283.32">Expand Template</text><rect fill="#FFFFFF" height="36.8" rx="12.5" ry="12.5" style="stroke:#000000;stroke-width:1;" width="112.2213" x="411.6495" y="260.6"/><text fill="#000000" font-family="'PingFang SC'" font-size="12" lengthAdjust="spacing" textLength="92.2213" x="421.6495" y="283.32">Ordinary Prompt</text><polygon fill="#FFFFFF" points="398.4904,303.4,410.4904,315.4,398.4904,327.4,386.4904,315.4,398.4904,303.4" style="stroke:#000000;stroke-width:1;stroke-linejoin:miter;stroke-miterlimit:10;"/><polygon fill="#FFFFFF" points="297.5721,333.4,309.5721,345.4,297.5721,357.4,285.5721,345.4,297.5721,333.4" style="stroke:#000000;stroke-width:1;stroke-linejoin:miter;stroke-miterlimit:10;"/><rect fill="#FFFFFF" height="36.8" rx="12.5" ry="12.5" style="stroke:#000000;stroke-width:1;" width="52.628" x="271.2581" y="377.4"/><text fill="#000000" font-family="'PingFang SC'" font-size="12" lengthAdjust="spacing" textLength="32.628" x="281.2581" y="400.12">Agent</text><ellipse cx="297.5721" cy="445.2" fill="none" rx="11" ry="11" style="stroke:#000000;stroke-width:1;"/><ellipse cx="297.5721" cy="445.2" fill="#FFFFFF" rx="6" ry="6" style="stroke:#000000;stroke-width:1;"/><line style="stroke:#000000;stroke-width:1;" x1="182.201" x2="182.201" y1="81.8" y2="101.8"/><polygon fill="#000000" points="178.201,91.8,182.201,101.8,186.201,91.8,182.201,95.8" style="stroke:#000000;stroke-width:1;stroke-linejoin:miter;stroke-miterlimit:10;"/><line style="stroke:#000000;stroke-width:1;" x1="66.8298" x2="66.8298" y1="229.4" y2="264.4"/><polygon fill="#000000" points="62.8298,254.4,66.8298,264.4,70.8298,254.4,66.8298,258.4" style="stroke:#000000;stroke-width:1;stroke-linejoin:miter;stroke-miterlimit:10;"/><line style="stroke:#000000;stroke-width:1;" x1="339.2206" x2="329.2206" y1="238.6" y2="238.6"/><line style="stroke:#000000;stroke-width:1;" x1="329.2206" x2="329.2206" y1="238.6" y2="260.6"/><polygon fill="#000000" points="325.2206,250.6,329.2206,260.6,333.2206,250.6,329.2206,254.6" style="stroke:#000000;stroke-width:1;stroke-linejoin:miter;stroke-miterlimit:10;"/><line style="stroke:#000000;stroke-width:1;" x1="457.7602" x2="467.7602" y1="238.6" y2="238.6"/><line style="stroke:#000000;stroke-width:1;" x1="467.7602" x2="467.7602" y1="238.6" y2="260.6"/><polygon fill="#000000" points="463.7602,250.6,467.7602,260.6,471.7602,250.6,467.7602,254.6" style="stroke:#000000;stroke-width:1;stroke-linejoin:miter;stroke-miterlimit:10;"/><line style="stroke:#000000;stroke-width:1;" x1="329.2206" x2="329.2206" y1="297.4" y2="315.4"/><line style="stroke:#000000;stroke-width:1;" x1="329.2206" x2="386.4904" y1="315.4" y2="315.4"/><polygon fill="#000000" points="376.4904,311.4,386.4904,315.4,376.4904,319.4,380.4904,315.4" style="stroke:#000000;stroke-width:1;stroke-linejoin:miter;stroke-miterlimit:10;"/><line style="stroke:#000000;stroke-width:1;" x1="467.7602" x2="467.7602" y1="297.4" y2="315.4"/><line style="stroke:#000000;stroke-width:1;" x1="467.7602" x2="410.4904" y1="315.4" y2="315.4"/><polygon fill="#000000" points="420.4904,311.4,410.4904,315.4,420.4904,319.4,416.4904,315.4" style="stroke:#000000;stroke-width:1;stroke-linejoin:miter;stroke-miterlimit:10;"/><line style="stroke:#000000;stroke-width:1;" x1="244.2896" x2="196.6539" y1="204.6" y2="204.6"/><line style="stroke:#000000;stroke-width:1;" x1="196.6539" x2="196.6539" y1="204.6" y2="226.6"/><polygon fill="#000000" points="192.6539,216.6,196.6539,226.6,200.6539,216.6,196.6539,220.6" style="stroke:#000000;stroke-width:1;stroke-linejoin:miter;stroke-miterlimit:10;"/><line style="stroke:#000000;stroke-width:1;" x1="350.8546" x2="398.4904" y1="204.6" y2="204.6"/><line style="stroke:#000000;stroke-width:1;" x1="398.4904" x2="398.4904" y1="204.6" y2="226.6"/><polygon fill="#000000" points="394.4904,216.6,398.4904,226.6,402.4904,216.6,398.4904,220.6" style="stroke:#000000;stroke-width:1;stroke-linejoin:miter;stroke-miterlimit:10;"/><line style="stroke:#000000;stroke-width:1;" x1="196.6539" x2="196.6539" y1="263.4" y2="345.4"/><line style="stroke:#000000;stroke-width:1;" x1="196.6539" x2="285.5721" y1="345.4" y2="345.4"/><polygon fill="#000000" points="275.5721,341.4,285.5721,345.4,275.5721,349.4,279.5721,345.4" style="stroke:#000000;stroke-width:1;stroke-linejoin:miter;stroke-miterlimit:10;"/><line style="stroke:#000000;stroke-width:1;" x1="398.4904" x2="398.4904" y1="327.4" y2="345.4"/><line style="stroke:#000000;stroke-width:1;" x1="398.4904" x2="309.5721" y1="345.4" y2="345.4"/><polygon fill="#000000" points="319.5721,341.4,309.5721,345.4,319.5721,349.4,315.5721,345.4" style="stroke:#000000;stroke-width:1;stroke-linejoin:miter;stroke-miterlimit:10;"/><line style="stroke:#000000;stroke-width:1;" x1="297.5721" x2="297.5721" y1="357.4" y2="377.4"/><polygon fill="#000000" points="293.5721,367.4,297.5721,377.4,301.5721,367.4,297.5721,371.4" style="stroke:#000000;stroke-width:1;stroke-linejoin:miter;stroke-miterlimit:10;"/><line style="stroke:#000000;stroke-width:1;" x1="297.5721" x2="297.5721" y1="414.2" y2="434.2"/><polygon fill="#000000" points="293.5721,424.2,297.5721,434.2,301.5721,424.2,297.5721,428.2" style="stroke:#000000;stroke-width:1;stroke-linejoin:miter;stroke-miterlimit:10;"/><line style="stroke:#000000;stroke-width:1;" x1="89.5456" x2="66.8298" y1="170.6" y2="170.6"/><line style="stroke:#000000;stroke-width:1;" x1="66.8298" x2="66.8298" y1="170.6" y2="192.6"/><polygon fill="#000000" points="62.8298,182.6,66.8298,192.6,70.8298,182.6,66.8298,186.6" style="stroke:#000000;stroke-width:1;stroke-linejoin:miter;stroke-miterlimit:10;"/><line style="stroke:#000000;stroke-width:1;" x1="274.8564" x2="297.5721" y1="170.6" y2="170.6"/><line style="stroke:#000000;stroke-width:1;" x1="297.5721" x2="297.5721" y1="170.6" y2="192.6"/><polygon fill="#000000" points="293.5721,182.6,297.5721,192.6,301.5721,182.6,297.5721,186.6" style="stroke:#000000;stroke-width:1;stroke-linejoin:miter;stroke-miterlimit:10;"/><line style="stroke:#000000;stroke-width:1;" x1="182.201" x2="182.201" y1="138.6" y2="158.6"/><polygon fill="#000000" points="178.201,148.6,182.201,158.6,186.201,148.6,182.201,152.6" style="stroke:#000000;stroke-width:1;stroke-linejoin:miter;stroke-miterlimit:10;"/><?plantuml-src TPB1RXD138RlynHkBqsbR9EqXwBD0K5e1HUeL7W0TzUx6MN6CvhnqkO1a7W03hm1HzGJ4k9nGEKnyAQ94b0uxUpltz_O7Xz1j913boeg8MArm9Rog0grvRRGCyiefqg5HAFLRv4fPnluH78v6O_FYiduzCbmCZdNq-dPkJc25vHjov08Ss259igKtXFGdH3tgKKLl4UkDMH3ih8SWio9rH1xzNfXdOCRQlHEk4h1Hu6tvAD38L1Hqtfj25c8qX3wd2Ou5swBBfwO0sLv0hLRDWSnOUiH72v39v0z2JAQlB0SCQ67cXhid5m6bjUeQOTNslWbSWlNiyCTNvvZ7Mur1WswJ3kH6nrQcqB7zImuhKuISjQGpig85KVhXcRhfdz_-_hmwVxdZy-_Fdny-Fx5c2oOn9JlT4hmYcCdKsCR63plh1FBeCYBpUGsaAV7ZnCRU9HgJlMn0IWlxgZgT4GlrU0eJLNB4g8XhHS670HstFqDVzMr3xc2Rj-a9-w5FUB-UQhzm2rouvkkzFzmrVucwIvYMgvNOMtdsZPc-osVzRkvRRcN_m00?></g></svg>