<svg xmlns="http://www.w3.org/2000/svg" xmlns:xlink="http://www.w3.org/1999/xlink" contentStyleType="text/css" data-diagram-type="CLASS" height="457px" preserveAspectRatio="none" style="width:681px;height:457px;" version="1.1" viewBox="0 0 681 457" width="681px" zoomAndPan="magnify"><?plantuml 1.2026.6?><defs/><g><g class="title" data-source-line="319"><text fill="#000000" font-family="'PingFang SC'" font-size="22" font-weight="700" lengthAdjust="spacing" textLength="290.7111" x="194.1445" y="38.32">Java Skill Command &#31867;&#20851;&#31995;</text></g><!--class ResourceLoader--><g class="entity" data-qualified-name="ResourceLoader" data-source-line="321" id="ent0001"><rect fill="#FFFFFF" height="84.8" rx="2.5" ry="2.5" style="stroke:#000000;stroke-width:1;" width="191.7266" x="267" y="169.8"/><ellipse cx="305.9343" cy="184.6" fill="#FFFFFF" rx="9" ry="9" style="stroke:#000000;stroke-width:1;"/><path d="M302.362,180.8651 L302.362,178.7069 L309.7414,178.7069 L309.7414,180.8651 L307.2761,180.8651 L307.2761,188.9418 L309.7414,188.9418 L309.7414,191.1 L302.362,191.1 L302.362,188.9418 L304.8273,188.9418 L304.8273,180.8651 Z " fill="#000000"/><text fill="#000000" font-family="'PingFang SC'" font-size="14" font-style="italic" lengthAdjust="spacing" textLength="106.3581" x="323.4343" y="189.64">ResourceLoader</text><line style="stroke:#000000;stroke-width:1;" x1="268" x2="457.7266" y1="199.4" y2="199.4"/><line style="stroke:#000000;stroke-width:1;" x1="268" x2="457.7266" y1="207.4" y2="207.4"/><text fill="#000000" font-family="'PingFang SC'" font-size="14" lengthAdjust="spacing" textLength="179.7266" x="273" y="226.24">+getSkills(): SkillLoadResult</text><text fill="#000000" font-family="'PingFang SC'" font-size="14" lengthAdjust="spacing" textLength="57.7711" x="273" y="245.84">+reload()</text></g><!--class DefaultResourceLoader--><g class="entity" data-qualified-name="DefaultResourceLoader" data-source-line="325" id="ent0002"><rect fill="#FFFFFF" height="65.2" rx="2.5" ry="2.5" style="stroke:#000000;stroke-width:1;" width="181.2217" x="272.5" y="290.8"/><ellipse cx="285.5" cy="305.6" fill="#FFFFFF" rx="9" ry="9" style="stroke:#000000;stroke-width:1;"/><path d="M287.9731,311.7431 Q287.3921,312.0419 286.7529,312.1913 Q286.1138,312.3407 285.4082,312.3407 Q282.9014,312.3407 281.5815,310.6889 Q280.2617,309.037 280.2617,305.9159 Q280.2617,302.7865 281.5815,301.1347 Q282.9014,299.4828 285.4082,299.4828 Q286.1138,299.4828 286.7612,299.6322 Q287.4087,299.7816 287.9731,300.0805 L287.9731,302.8031 Q287.3423,302.2221 286.7488,301.9523 Q286.1553,301.6825 285.5244,301.6825 Q284.1797,301.6825 283.4949,302.7492 Q282.8101,303.8158 282.8101,305.9159 Q282.8101,308.0077 283.4949,309.0744 Q284.1797,310.141 285.5244,310.141 Q286.1553,310.141 286.7488,309.8712 Q287.3423,309.6015 287.9731,309.0204 Z " fill="#000000"/><text fill="#000000" font-family="'PingFang SC'" font-size="14" lengthAdjust="spacing" textLength="153.2217" x="297.5" y="310.64">DefaultResourceLoader</text><line style="stroke:#000000;stroke-width:1;" x1="273.5" x2="452.7217" y1="320.4" y2="320.4"/><text fill="#000000" font-family="'PingFang SC'" font-size="14" lengthAdjust="spacing" textLength="148.0376" x="278.5" y="339.24">-skills: SkillLoadResult</text><line style="stroke:#000000;stroke-width:1;" x1="273.5" x2="452.7217" y1="348" y2="348"/></g><!--class SkillLoader--><g class="entity" data-qualified-name="SkillLoader" data-source-line="328" id="ent0003"><rect fill="#FFFFFF" height="65.2" rx="2.5" ry="2.5" style="stroke:#000000;stroke-width:1;" width="228.3814" x="249" y="391.8"/><ellipse cx="323.4929" cy="406.6" fill="#FFFFFF" rx="9" ry="9" style="stroke:#000000;stroke-width:1;"/><path d="M325.966,412.7431 Q325.385,413.0419 324.7458,413.1913 Q324.1066,413.3407 323.4011,413.3407 Q320.8942,413.3407 319.5744,411.6889 Q318.2546,410.037 318.2546,406.9159 Q318.2546,403.7865 319.5744,402.1347 Q320.8942,400.4828 323.4011,400.4828 Q324.1066,400.4828 324.7541,400.6322 Q325.4016,400.7816 325.966,401.0805 L325.966,403.8031 Q325.3352,403.2221 324.7417,402.9523 Q324.1482,402.6825 323.5173,402.6825 Q322.1726,402.6825 321.4878,403.7492 Q320.8029,404.8158 320.8029,406.9159 Q320.8029,409.0077 321.4878,410.0744 Q322.1726,411.141 323.5173,411.141 Q324.1482,411.141 324.7417,410.8712 Q325.3352,410.6015 325.966,410.0204 Z " fill="#000000"/><text fill="#000000" font-family="'PingFang SC'" font-size="14" lengthAdjust="spacing" textLength="71.8957" x="340.9929" y="411.64">SkillLoader</text><line style="stroke:#000000;stroke-width:1;" x1="250" x2="476.3814" y1="421.4" y2="421.4"/><line style="stroke:#000000;stroke-width:1;" x1="250" x2="476.3814" y1="429.4" y2="429.4"/><text fill="#000000" font-family="'PingFang SC'" font-size="14" lengthAdjust="spacing" textLength="216.3814" x="255" y="448.24">+load(resources): SkillLoadResult</text></g><!--class SkillCommandExpander--><g class="entity" data-qualified-name="SkillCommandExpander" data-source-line="331" id="ent0004"><rect fill="#FFFFFF" height="65.2" rx="2.5" ry="2.5" style="stroke:#000000;stroke-width:1;" width="188.3596" x="477" y="179.8"/><ellipse cx="492.9405" cy="194.6" fill="#FFFFFF" rx="9" ry="9" style="stroke:#000000;stroke-width:1;"/><path d="M495.4136,200.7431 Q494.8326,201.0419 494.1934,201.1913 Q493.5543,201.3407 492.8487,201.3407 Q490.3419,201.3407 489.022,199.6889 Q487.7022,198.037 487.7022,194.9159 Q487.7022,191.7865 489.022,190.1347 Q490.3419,188.4828 492.8487,188.4828 Q493.5543,188.4828 494.2017,188.6322 Q494.8492,188.7816 495.4136,189.0805 L495.4136,191.8031 Q494.7828,191.2221 494.1893,190.9523 Q493.5958,190.6825 492.9649,190.6825 Q491.6202,190.6825 490.9354,191.7492 Q490.2506,192.8158 490.2506,194.9159 Q490.2506,197.0077 490.9354,198.0744 Q491.6202,199.141 492.9649,199.141 Q493.5958,199.141 494.1893,198.8712 Q494.7828,198.6015 495.4136,198.0204 Z " fill="#000000"/><text fill="#000000" font-family="'PingFang SC'" font-size="14" lengthAdjust="spacing" textLength="153.8251" x="505.5939" y="199.64">SkillCommandExpander</text><line style="stroke:#000000;stroke-width:1;" x1="478" x2="664.3596" y1="209.4" y2="209.4"/><line style="stroke:#000000;stroke-width:1;" x1="478" x2="664.3596" y1="217.4" y2="217.4"/><text fill="#000000" font-family="'PingFang SC'" font-size="14" lengthAdjust="spacing" textLength="176.3596" x="483" y="236.24">+expand(text, skills): String</text></g><!--class CombinedAutocompleteProvider--><g class="entity" data-qualified-name="CombinedAutocompleteProvider" data-source-line="334" id="ent0005"><rect fill="#FFFFFF" height="65.2" rx="2.5" ry="2.5" style="stroke:#000000;stroke-width:1;" width="237.9862" x="11" y="179.8"/><ellipse cx="24" cy="194.6" fill="#FFFFFF" rx="9" ry="9" style="stroke:#000000;stroke-width:1;"/><path d="M26.4731,200.7431 Q25.8921,201.0419 25.2529,201.1913 Q24.6138,201.3407 23.9082,201.3407 Q21.4014,201.3407 20.0815,199.6889 Q18.7617,198.037 18.7617,194.9159 Q18.7617,191.7865 20.0815,190.1347 Q21.4014,188.4828 23.9082,188.4828 Q24.6138,188.4828 25.2612,188.6322 Q25.9087,188.7816 26.4731,189.0805 L26.4731,191.8031 Q25.8423,191.2221 25.2488,190.9523 Q24.6553,190.6825 24.0244,190.6825 Q22.6797,190.6825 21.9949,191.7492 Q21.3101,192.8158 21.3101,194.9159 Q21.3101,197.0077 21.9949,198.0744 Q22.6797,199.141 24.0244,199.141 Q24.6553,199.141 25.2488,198.8712 Q25.8423,198.6015 26.4731,198.0204 Z " fill="#000000"/><text fill="#000000" font-family="'PingFang SC'" font-size="14" lengthAdjust="spacing" textLength="209.9862" x="36" y="199.64">CombinedAutocompleteProvider</text><line style="stroke:#000000;stroke-width:1;" x1="12" x2="247.9862" y1="209.4" y2="209.4"/><line style="stroke:#000000;stroke-width:1;" x1="12" x2="247.9862" y1="217.4" y2="217.4"/><text fill="#000000" font-family="'PingFang SC'" font-size="14" lengthAdjust="spacing" textLength="187.4798" x="17" y="236.24">+getSuggestions(prefix): List</text></g><!--class InteractiveMode--><g class="entity" data-qualified-name="InteractiveMode" data-source-line="337" id="ent0006"><rect fill="#FFFFFF" height="65.2" rx="2.5" ry="2.5" style="stroke:#000000;stroke-width:1;" width="214.394" x="24" y="68.8"/><ellipse cx="75.3494" cy="83.6" fill="#FFFFFF" rx="9" ry="9" style="stroke:#000000;stroke-width:1;"/><path d="M77.8226,89.7431 Q77.2415,90.0419 76.6024,90.1913 Q75.9632,90.3407 75.2576,90.3407 Q72.7508,90.3407 71.431,88.6889 Q70.1112,87.037 70.1112,83.9159 Q70.1112,80.7865 71.431,79.1347 Q72.7508,77.4828 75.2576,77.4828 Q75.9632,77.4828 76.6107,77.6322 Q77.2581,77.7816 77.8226,78.0805 L77.8226,80.8031 Q77.1917,80.2221 76.5982,79.9523 Q76.0047,79.6825 75.3739,79.6825 Q74.0291,79.6825 73.3443,80.7492 Q72.6595,81.8158 72.6595,83.9159 Q72.6595,86.0077 73.3443,87.0744 Q74.0291,88.141 75.3739,88.141 Q76.0047,88.141 76.5982,87.8712 Q77.1917,87.6015 77.8226,87.0204 Z " fill="#000000"/><text fill="#000000" font-family="'PingFang SC'" font-size="14" lengthAdjust="spacing" textLength="104.1951" x="92.8494" y="88.64">InteractiveMode</text><line style="stroke:#000000;stroke-width:1;" x1="25" x2="237.394" y1="98.4" y2="98.4"/><line style="stroke:#000000;stroke-width:1;" x1="25" x2="237.394" y1="106.4" y2="106.4"/><text fill="#000000" font-family="'PingFang SC'" font-size="14" lengthAdjust="spacing" textLength="202.394" x="30" y="125.24">+createAutocompleteProvider()</text></g><!--class AgentSession--><g class="entity" data-qualified-name="AgentSession" data-source-line="340" id="ent0007"><rect fill="#FFFFFF" height="65.2" rx="2.5" ry="2.5" style="stroke:#000000;stroke-width:1;" width="210.4782" x="362" y="68.8"/><ellipse cx="419.2231" cy="83.6" fill="#FFFFFF" rx="9" ry="9" style="stroke:#000000;stroke-width:1;"/><path d="M421.6963,89.7431 Q421.1152,90.0419 420.4761,90.1913 Q419.8369,90.3407 419.1313,90.3407 Q416.6245,90.3407 415.3047,88.6889 Q413.9849,87.037 413.9849,83.9159 Q413.9849,80.7865 415.3047,79.1347 Q416.6245,77.4828 419.1313,77.4828 Q419.8369,77.4828 420.4844,77.6322 Q421.1318,77.7816 421.6963,78.0805 L421.6963,80.8031 Q421.0654,80.2221 420.4719,79.9523 Q419.8784,79.6825 419.2476,79.6825 Q417.9028,79.6825 417.218,80.7492 Q416.5332,81.8158 416.5332,83.9159 Q416.5332,86.0077 417.218,87.0744 Q417.9028,88.141 419.2476,88.141 Q419.8784,88.141 420.4719,87.8712 Q421.0654,87.6015 421.6963,87.0204 Z " fill="#000000"/><text fill="#000000" font-family="'PingFang SC'" font-size="14" lengthAdjust="spacing" textLength="88.5319" x="436.7231" y="88.64">AgentSession</text><line style="stroke:#000000;stroke-width:1;" x1="363" x2="571.4782" y1="98.4" y2="98.4"/><line style="stroke:#000000;stroke-width:1;" x1="363" x2="571.4782" y1="106.4" y2="106.4"/><text fill="#000000" font-family="'PingFang SC'" font-size="14" lengthAdjust="spacing" textLength="198.4782" x="368" y="125.24">-expandUserInput(text): String</text></g><g class="link" data-entity-1="ent0001" data-entity-2="ent0002" data-link-type="extension" id="lnk8"><polygon fill="none" points="363,254.8192,357,272.8192,369,272.8192,363,254.8192" style="stroke:#000000;stroke-width:1;stroke-linejoin:miter;stroke-miterlimit:10;"/><path d="M363,272.8192 C363,284.7314 363,279.5221 363,290.7304" fill="none" style="stroke:#000000;stroke-width:1;stroke-dasharray:7,7;"/></g><g class="link" data-entity-1="ent0002" data-entity-2="ent0003" data-link-type="dependency" id="lnk9"><polygon fill="#000000" points="363,391.6642,367,382.6642,363,386.6642,359,382.6642,363,391.6642" style="stroke:#000000;stroke-width:1;stroke-linejoin:miter;stroke-miterlimit:10;"/><path d="M363,355.8964 C363,367.3272 363,375.2301 363,386.6642" fill="none" style="stroke:#000000;stroke-width:1;"/></g><g class="link" data-entity-1="ent0007" data-entity-2="ent0001" data-link-type="dependency" id="lnk10"><polygon fill="#000000" points="402.6958,169.6957,411.8027,165.9455,406.1474,166.0782,406.0146,160.4229,402.6958,169.6957" style="stroke:#000000;stroke-width:1;stroke-linejoin:miter;stroke-miterlimit:10;"/><path d="M436.9189,133.8273 C426.2406,145.019 417.5044,154.1752 406.1474,166.0782" fill="none" style="stroke:#000000;stroke-width:1;"/></g><g class="link" data-entity-1="ent0007" data-entity-2="ent0004" data-link-type="dependency" id="lnk11"><polygon fill="#000000" points="540.6262,179.4659,537.3074,170.1931,537.1746,175.8484,531.5193,175.7156,540.6262,179.4659" style="stroke:#000000;stroke-width:1;stroke-linejoin:miter;stroke-miterlimit:10;"/><path d="M497.0811,133.8273 C510.759,148.1627 523.4617,161.4762 537.1746,175.8484" fill="none" style="stroke:#000000;stroke-width:1;"/></g><g class="link" data-entity-1="ent0006" data-entity-2="ent0001" data-link-type="dependency" id="lnk12"><polygon fill="#000000" points="274.4478,169.6957,268.003,162.2483,269.9224,167.5696,264.6011,169.489,274.4478,169.6957" style="stroke:#000000;stroke-width:1;stroke-linejoin:miter;stroke-miterlimit:10;"/><path d="M198.104,133.8273 C221.9249,145.019 244.5875,155.6665 269.9224,167.5696" fill="none" style="stroke:#000000;stroke-width:1;"/></g><g class="link" data-entity-1="ent0006" data-entity-2="ent0005" data-link-type="dependency" id="lnk13"><polygon fill="#000000" points="130.2921,179.4659,134.3745,170.503,130.3379,174.4661,126.3748,170.4296,130.2921,179.4659" style="stroke:#000000;stroke-width:1;stroke-linejoin:miter;stroke-miterlimit:10;"/><path d="M130.7108,133.8273 C130.5792,148.1627 130.4698,160.094 130.3379,174.4661" fill="none" style="stroke:#000000;stroke-width:1;"/></g><?plantuml-src bPBFRXf13CRlynHEBW6r2o6f4WbLbH1j9AgqYeBw06RNB2DcPrOpNWBzS-m3LJdcUQgyHZtB1X6oQjKBOiVsp_RdxmHA3S5LFgKXb9WkCQVGJrscRPx8Vylzu5DvyDJtj4rCZCECV8_3yEBqFBauUwDE_WDJVoQ1Gj3EHiXWS7cU3CxEBmNpdeBEBNZ2uEmGQ5rArm2y8FY8AmHTb8OA0I1BDSnSPJFq6xZJl70LIs6k0vENlZ1TQcDWWJOpv0De2rE3OJ5sHI5ljtMct_JKaT0BWjAWjkgez9WN20OtaHSAOhIembBR4ZqMaD4SAyDNpl9dbBBZ6-brXR7V-7WlBommStTnZZcQG7kHcUYJ-pZvs1ddWJtQ827PQYyhbLd3YDdhMSKqIPsTwgy4fuercqQDxORDGl3uw-7tp_l7-mUbj1KDvfWIt3P7kwvl1jyKm2l8YUlIqEaEjv0ObbHPh4xm56_SwQeVgfv3xb9ltK9B8DIebw2dsjtxhdyDVx9JwFwZjDdlmxgKtns3wiyEqvfVDoD44CVJx-gbTAOjPQEANUgYTvXkl5lfvrfKkTWr6Yfqn6zplHRIjRXZnvb4FJ5blQ9FBgEcD1MRChMnzvGRHRjFjsvl1DkE_YMGdzYoudg7_TdLWSnll_TwxHTGxNT9adVxggjdCyJW0UL5l4rtTIX22wWjvMyt-0C0?></g></svg>