<svg xmlns="http://www.w3.org/2000/svg" xmlns:xlink="http://www.w3.org/1999/xlink" contentStyleType="text/css" data-diagram-type="CLASS" height="733px" preserveAspectRatio="none" style="width:565px;height:733px;" version="1.1" viewBox="0 0 565 733" width="565px" zoomAndPan="magnify"><?plantuml 1.2026.6?><defs/><g><g class="title" data-source-line="285"><text fill="#000000" font-family="'sans-serif'" font-size="22" font-weight="700" lengthAdjust="spacing" textLength="453.8574" x="54.5713" y="36.2695">Java Skill Command Class Relationships</text></g><!--class ResourceLoader--><g class="entity" data-qualified-name="ResourceLoader" data-source-line="287" id="ent0001"><rect fill="#FFFFFF" height="76.9766" rx="2.5" ry="2.5" style="stroke:#000000;stroke-width:1;" width="200.0908" x="111" y="460.9102"/><ellipse cx="153.3394" cy="474.9102" fill="#FFFFFF" rx="9" ry="9" style="stroke:#000000;stroke-width:1;"/><path d="M149.7671,471.1753 L149.7671,469.0171 L157.1465,469.0171 L157.1465,471.1753 L154.6812,471.1753 L154.6812,479.252 L157.1465,479.252 L157.1465,481.4102 L149.7671,481.4102 L149.7671,479.252 L152.2324,479.252 L152.2324,471.1753 Z " fill="#000000"/><text fill="#000000" font-family="'sans-serif'" font-size="14" font-style="italic" lengthAdjust="spacing" textLength="107.9121" x="170.8394" y="480.2012">ResourceLoader</text><line style="stroke:#000000;stroke-width:1;" x1="112" x2="310.0908" y1="488.9102" y2="488.9102"/><line style="stroke:#000000;stroke-width:1;" x1="112" x2="310.0908" y1="496.9102" y2="496.9102"/><text fill="#000000" font-family="'sans-serif'" font-size="14" lengthAdjust="spacing" textLength="188.0908" x="117" y="514.4453">+getSkills(): SkillLoadResult</text><text fill="#000000" font-family="'sans-serif'" font-size="14" lengthAdjust="spacing" textLength="62.9521" x="117" y="530.9336">+reload()</text></g><!--class DefaultResourceLoader--><g class="entity" data-qualified-name="DefaultResourceLoader" data-source-line="291" id="ent0002"><rect fill="#FFFFFF" height="60.4883" rx="2.5" ry="2.5" style="stroke:#000000;stroke-width:1;" width="185.0488" x="118.5" y="574.9102"/><ellipse cx="131.5" cy="588.9102" fill="#FFFFFF" rx="9" ry="9" style="stroke:#000000;stroke-width:1;"/><path d="M133.9731,595.0532 Q133.3921,595.3521 132.7529,595.5015 Q132.1138,595.6509 131.4082,595.6509 Q128.9014,595.6509 127.5815,593.999 Q126.2617,592.3472 126.2617,589.2261 Q126.2617,586.0967 127.5815,584.4448 Q128.9014,582.793 131.4082,582.793 Q132.1138,582.793 132.7612,582.9424 Q133.4087,583.0918 133.9731,583.3906 L133.9731,586.1133 Q133.3423,585.5322 132.7488,585.2625 Q132.1553,584.9927 131.5244,584.9927 Q130.1797,584.9927 129.4949,586.0593 Q128.8101,587.126 128.8101,589.2261 Q128.8101,591.3179 129.4949,592.3845 Q130.1797,593.4512 131.5244,593.4512 Q132.1553,593.4512 132.7488,593.1814 Q133.3423,592.9116 133.9731,592.3306 Z " fill="#000000"/><text fill="#000000" font-family="'sans-serif'" font-size="14" lengthAdjust="spacing" textLength="157.0488" x="143.5" y="594.2012">DefaultResourceLoader</text><line style="stroke:#000000;stroke-width:1;" x1="119.5" x2="302.5488" y1="602.9102" y2="602.9102"/><text fill="#000000" font-family="'sans-serif'" font-size="14" lengthAdjust="spacing" textLength="153.7881" x="124.5" y="620.4453">-skills: SkillLoadResult</text><line style="stroke:#000000;stroke-width:1;" x1="119.5" x2="302.5488" y1="627.3984" y2="627.3984"/></g><!--class SkillLoader--><g class="entity" data-qualified-name="SkillLoader" data-source-line="294" id="ent0003"><rect fill="#FFFFFF" height="60.4883" rx="2.5" ry="2.5" style="stroke:#000000;stroke-width:1;" width="238.3037" x="92" y="671.9102"/><ellipse cx="170.4023" cy="685.9102" fill="#FFFFFF" rx="9" ry="9" style="stroke:#000000;stroke-width:1;"/><path d="M172.8755,692.0532 Q172.2944,692.3521 171.6553,692.5015 Q171.0161,692.6509 170.3105,692.6509 Q167.8037,692.6509 166.4839,690.999 Q165.1641,689.3472 165.1641,686.2261 Q165.1641,683.0967 166.4839,681.4448 Q167.8037,679.793 170.3105,679.793 Q171.0161,679.793 171.6636,679.9424 Q172.311,680.0918 172.8755,680.3906 L172.8755,683.1133 Q172.2446,682.5322 171.6511,682.2625 Q171.0576,681.9927 170.4268,681.9927 Q169.082,681.9927 168.3972,683.0593 Q167.7124,684.126 167.7124,686.2261 Q167.7124,688.3179 168.3972,689.3845 Q169.082,690.4512 170.4268,690.4512 Q171.0576,690.4512 171.6511,690.1814 Q172.2446,689.9116 172.8755,689.3306 Z " fill="#000000"/><text fill="#000000" font-family="'sans-serif'" font-size="14" lengthAdjust="spacing" textLength="73.999" x="187.9023" y="691.2012">SkillLoader</text><line style="stroke:#000000;stroke-width:1;" x1="93" x2="329.3037" y1="699.9102" y2="699.9102"/><line style="stroke:#000000;stroke-width:1;" x1="93" x2="329.3037" y1="707.9102" y2="707.9102"/><text fill="#000000" font-family="'sans-serif'" font-size="14" lengthAdjust="spacing" textLength="226.3037" x="98" y="725.4453">+load(resources): SkillLoadResult</text></g><!--class SkillInvocation--><g class="entity" data-qualified-name="SkillInvocation" data-source-line="297" id="ent0004"><rect fill="#FFFFFF" height="93.4648" rx="2.5" ry="2.5" style="stroke:#000000;stroke-width:1;" width="154.0508" x="173" y="330.9102"/><ellipse cx="198.6659" cy="344.9102" fill="#FFFFFF" rx="9" ry="9" style="stroke:#000000;stroke-width:1;"/><path d="M201.1391,351.0532 Q200.558,351.3521 199.9188,351.5015 Q199.2797,351.6509 198.5741,351.6509 Q196.0673,351.6509 194.7475,349.999 Q193.4276,348.3472 193.4276,345.2261 Q193.4276,342.0967 194.7475,340.4448 Q196.0673,338.793 198.5741,338.793 Q199.2797,338.793 199.9271,338.9424 Q200.5746,339.0918 201.1391,339.3906 L201.1391,342.1133 Q200.5082,341.5322 199.9147,341.2625 Q199.3212,340.9927 198.6903,340.9927 Q197.3456,340.9927 196.6608,342.0593 Q195.976,343.126 195.976,345.2261 Q195.976,347.3179 196.6608,348.3845 Q197.3456,349.4512 198.6903,349.4512 Q199.3212,349.4512 199.9147,349.1814 Q200.5082,348.9116 201.1391,348.3306 Z " fill="#000000"/><text fill="#000000" font-family="'sans-serif'" font-size="14" lengthAdjust="spacing" textLength="97.9043" x="213.4806" y="350.2012">SkillInvocation</text><line style="stroke:#000000;stroke-width:1;" x1="174" x2="326.0508" y1="358.9102" y2="358.9102"/><text fill="#000000" font-family="'sans-serif'" font-size="14" lengthAdjust="spacing" textLength="97.248" x="179" y="376.4453">+name: String</text><text fill="#000000" font-family="'sans-serif'" font-size="14" lengthAdjust="spacing" textLength="132.7676" x="179" y="392.9336">+arguments: String</text><text fill="#000000" font-family="'sans-serif'" font-size="14" lengthAdjust="spacing" textLength="142.0508" x="179" y="409.4219">+originalText: String</text><line style="stroke:#000000;stroke-width:1;" x1="174" x2="326.0508" y1="416.375" y2="416.375"/></g><!--class SkillsManager--><g class="entity" data-qualified-name="SkillsManager" data-source-line="302" id="ent0005"><rect fill="#FFFFFF" height="60.4883" rx="2.5" ry="2.5" style="stroke:#000000;stroke-width:1;" width="204.1992" x="345" y="347.4102"/><ellipse cx="394.4009" cy="361.4102" fill="#FFFFFF" rx="9" ry="9" style="stroke:#000000;stroke-width:1;"/><path d="M396.874,367.5532 Q396.293,367.8521 395.6538,368.0015 Q395.0146,368.1509 394.3091,368.1509 Q391.8022,368.1509 390.4824,366.499 Q389.1626,364.8472 389.1626,361.7261 Q389.1626,358.5967 390.4824,356.9448 Q391.8022,355.293 394.3091,355.293 Q395.0146,355.293 395.6621,355.4424 Q396.3096,355.5918 396.874,355.8906 L396.874,358.6133 Q396.2432,358.0322 395.6497,357.7625 Q395.0562,357.4927 394.4253,357.4927 Q393.0806,357.4927 392.3958,358.5593 Q391.7109,359.626 391.7109,361.7261 Q391.7109,363.8179 392.3958,364.8845 Q393.0806,365.9512 394.4253,365.9512 Q395.0562,365.9512 395.6497,365.6814 Q396.2432,365.4116 396.874,364.8306 Z " fill="#000000"/><text fill="#000000" font-family="'sans-serif'" font-size="14" lengthAdjust="spacing" textLength="97.8975" x="411.9009" y="366.7012">Skills Manager</text><line style="stroke:#000000;stroke-width:1;" x1="346" x2="548.1992" y1="375.4102" y2="375.4102"/><line style="stroke:#000000;stroke-width:1;" x1="346" x2="548.1992" y1="383.4102" y2="383.4102"/><text fill="#000000" font-family="'sans-serif'" font-size="14" lengthAdjust="spacing" textLength="192.1992" x="351" y="400.9453">+execute(invocation): String</text></g><!--class CommandCompletionService--><g class="entity" data-qualified-name="CommandCompletionService" data-source-line="305" id="ent0006"><rect fill="#FFFFFF" height="60.4883" rx="2.5" ry="2.5" style="stroke:#000000;stroke-width:1;" width="223.5762" x="11" y="252.9102"/><ellipse cx="24" cy="266.9102" fill="#FFFFFF" rx="9" ry="9" style="stroke:#000000;stroke-width:1;"/><path d="M26.4731,273.0532 Q25.8921,273.3521 25.2529,273.5015 Q24.6138,273.6509 23.9082,273.6509 Q21.4014,273.6509 20.0815,271.999 Q18.7617,270.3472 18.7617,267.2261 Q18.7617,264.0967 20.0815,262.4448 Q21.4014,260.793 23.9082,260.793 Q24.6138,260.793 25.2612,260.9424 Q25.9087,261.0918 26.4731,261.3906 L26.4731,264.1133 Q25.8423,263.5322 25.2488,263.2625 Q24.6553,262.9927 24.0244,262.9927 Q22.6797,262.9927 21.9949,264.0593 Q21.3101,265.126 21.3101,267.2261 Q21.3101,269.3179 21.9949,270.3845 Q22.6797,271.4512 24.0244,271.4512 Q24.6553,271.4512 25.2488,271.1814 Q25.8423,270.9116 26.4731,270.3306 Z " fill="#000000"/><text fill="#000000" font-family="'sans-serif'" font-size="14" lengthAdjust="spacing" textLength="195.5762" x="36" y="272.2012">CommandCompletionService</text><line style="stroke:#000000;stroke-width:1;" x1="12" x2="233.5762" y1="280.9102" y2="280.9102"/><line style="stroke:#000000;stroke-width:1;" x1="12" x2="233.5762" y1="288.9102" y2="288.9102"/><text fill="#000000" font-family="'sans-serif'" font-size="14" lengthAdjust="spacing" textLength="197.1963" x="17" y="306.4453">+getSuggestions(prefix): List</text></g><!--class AgentUI--><g class="entity" data-qualified-name="AgentUI" data-source-line="308" id="ent0007"><rect fill="#FFFFFF" height="57.0723" rx="2.5" ry="2.5" style="stroke:#000000;stroke-width:1;" width="161.8887" x="92" y="63.9102"/><ellipse cx="105" cy="84.4463" fill="#FFFFFF" rx="9" ry="9" style="stroke:#000000;stroke-width:1;"/><path d="M107.4731,90.5894 Q106.8921,90.8882 106.2529,91.0376 Q105.6138,91.187 104.9082,91.187 Q102.4014,91.187 101.0815,89.5352 Q99.7617,87.8833 99.7617,84.7622 Q99.7617,81.6328 101.0815,79.981 Q102.4014,78.3291 104.9082,78.3291 Q105.6138,78.3291 106.2612,78.4785 Q106.9087,78.6279 107.4731,78.9268 L107.4731,81.6494 Q106.8423,81.0684 106.2488,80.7986 Q105.6553,80.5288 105.0244,80.5288 Q103.6797,80.5288 102.9949,81.5955 Q102.3101,82.6621 102.3101,84.7622 Q102.3101,86.854 102.9949,87.9207 Q103.6797,88.9873 105.0244,88.9873 Q105.6553,88.9873 106.2488,88.7175 Q106.8423,88.4478 107.4731,87.8667 Z " fill="#000000"/><text fill="#000000" font-family="Verdana" font-size="12" font-style="italic" lengthAdjust="spacing" textLength="137.8887" x="115" y="80.9746">&#171;frontend component&#187;</text><text fill="#000000" font-family="'sans-serif'" font-size="14" lengthAdjust="spacing" textLength="58.2764" x="154.8062" y="97.0293">Agent UI</text><line style="stroke:#000000;stroke-width:1;" x1="93" x2="252.8887" y1="104.9824" y2="104.9824"/><line style="stroke:#000000;stroke-width:1;" x1="93" x2="252.8887" y1="112.9824" y2="112.9824"/></g><!--class AgentRuntime--><g class="entity" data-qualified-name="AgentRuntime" data-source-line="309" id="ent0008"><rect fill="#FFFFFF" height="76.9766" rx="2.5" ry="2.5" style="stroke:#000000;stroke-width:1;" width="297.5576" x="151" y="157.9102"/><ellipse cx="245.5659" cy="171.9102" fill="#FFFFFF" rx="9" ry="9" style="stroke:#000000;stroke-width:1;"/><path d="M248.0391,178.0532 Q247.458,178.3521 246.8188,178.5015 Q246.1797,178.6509 245.4741,178.6509 Q242.9673,178.6509 241.6475,176.999 Q240.3276,175.3472 240.3276,172.2261 Q240.3276,169.0967 241.6475,167.4448 Q242.9673,165.793 245.4741,165.793 Q246.1797,165.793 246.8271,165.9424 Q247.4746,166.0918 248.0391,166.3906 L248.0391,169.1133 Q247.4082,168.5322 246.8147,168.2625 Q246.2212,167.9927 245.5903,167.9927 Q244.2456,167.9927 243.5608,169.0593 Q242.876,170.126 242.876,172.2261 Q242.876,174.3179 243.5608,175.3845 Q244.2456,176.4512 245.5903,176.4512 Q246.2212,176.4512 246.8147,176.1814 Q247.4082,175.9116 248.0391,175.3306 Z " fill="#000000"/><text fill="#000000" font-family="'sans-serif'" font-size="14" lengthAdjust="spacing" textLength="100.9258" x="263.0659" y="177.2012">Agent Runtime</text><line style="stroke:#000000;stroke-width:1;" x1="152" x2="447.5576" y1="185.9102" y2="185.9102"/><line style="stroke:#000000;stroke-width:1;" x1="152" x2="447.5576" y1="193.9102" y2="193.9102"/><text fill="#000000" font-family="'sans-serif'" font-size="14" lengthAdjust="spacing" textLength="285.5576" x="157" y="211.4453">-parseSkillCommand(text): SkillInvocation</text><text fill="#000000" font-family="'sans-serif'" font-size="14" lengthAdjust="spacing" textLength="207.0742" x="157" y="227.9336">-resolveUserInput(text): String</text></g><g class="link" data-entity-1="ent0001" data-entity-2="ent0002" data-link-type="extension" id="lnk9"><polygon fill="none" points="211,538.0688,205,556.0688,217,556.0688,211,538.0688" style="stroke:#000000;stroke-width:1;stroke-linejoin:miter;stroke-miterlimit:10;"/><path d="M211,556.0688 C211,568.2067 211,563.464 211,574.8807" fill="none" style="stroke:#000000;stroke-width:1;stroke-dasharray:7,7;"/></g><g class="link" data-entity-1="ent0002" data-entity-2="ent0003" data-link-type="dependency" id="lnk10"><polygon fill="#000000" points="211,671.7412,215,662.7412,211,666.7412,207,662.7412,211,671.7412" style="stroke:#000000;stroke-width:1;stroke-linejoin:miter;stroke-miterlimit:10;"/><path d="M211,634.9295 C211,646.6066 211,655.0491 211,666.7412" fill="none" style="stroke:#000000;stroke-width:1;"/></g><g class="link" data-entity-1="ent0008" data-entity-2="ent0004" data-link-type="dependency" id="lnk11"><polygon fill="#000000" points="262.7748,330.6762,269.0486,323.0842,264.12,325.8606,261.3436,320.9319,262.7748,330.6762" style="stroke:#000000;stroke-width:1;stroke-linejoin:miter;stroke-miterlimit:10;"/><path d="M289.5184,234.9344 C281.7294,262.819 272.4082,296.1887 264.12,325.8606" fill="none" style="stroke:#000000;stroke-width:1;stroke-dasharray:7,7;"/><text fill="#000000" font-family="'sans-serif'" font-size="13" lengthAdjust="spacing" textLength="45.1318" x="285" y="287.9785">creates</text></g><g class="link" data-entity-1="ent0008" data-entity-2="ent0005" data-link-type="dependency" id="lnk12"><polygon fill="#000000" points="423.0073,347.1946,420.3867,337.7008,419.8341,343.3306,414.2043,342.778,423.0073,347.1946" style="stroke:#000000;stroke-width:1;stroke-linejoin:miter;stroke-miterlimit:10;"/><path d="M330.816,234.9344 C358.2619,268.3549 394.6861,312.7082 419.8341,343.3306" fill="none" style="stroke:#000000;stroke-width:1;"/></g><g class="link" data-entity-1="ent0005" data-entity-2="ent0001" data-link-type="dependency" id="lnk13"><polygon fill="#000000" points="285.0193,460.7732,294.8548,460.2595,289.4762,458.507,291.2288,453.1285,285.0193,460.7732" style="stroke:#000000;stroke-width:1;stroke-linejoin:miter;stroke-miterlimit:10;"/><path d="M389.871,407.4588 C358.3589,423.4819 323.3283,441.2941 289.4762,458.507" fill="none" style="stroke:#000000;stroke-width:1;"/></g><g class="link" data-entity-1="ent0006" data-entity-2="ent0001" data-link-type="dependency" id="lnk14"><polygon fill="#000000" points="184.4829,460.8848,183.0156,451.1459,181.7942,456.6693,176.2707,455.4479,184.4829,460.8848" style="stroke:#000000;stroke-width:1;stroke-linejoin:miter;stroke-miterlimit:10;"/><path d="M129.0651,313.1682 C135.6334,342.0881 147.4384,387.2045 164,423.9102 C169.6606,436.4558 174.4613,445.1727 181.7942,456.6693" fill="none" style="stroke:#000000;stroke-width:1;"/></g><g class="link" data-entity-1="ent0007" data-entity-2="ent0006" data-link-type="dependency" id="lnk15"><polygon fill="#000000" points="125.0152,252.8015,129.8205,244.2045,125.4719,247.8224,121.8539,243.4738,125.0152,252.8015" style="stroke:#000000;stroke-width:1;stroke-linejoin:miter;stroke-miterlimit:10;"/><path d="M157.5522,120.9345 C151.8762,132.1081 145.8923,145.3289 142,157.9102 C132.216,189.5354 127.8089,222.3414 125.4719,247.8224" fill="none" style="stroke:#000000;stroke-width:1;"/></g><g class="link" data-entity-1="ent0007" data-entity-2="ent0008" data-link-type="dependency" id="lnk16"><polygon fill="#000000" points="253.2059,157.8275,248.6936,149.0731,249.3075,154.6965,243.6841,155.3104,253.2059,157.8275" style="stroke:#000000;stroke-width:1;stroke-linejoin:miter;stroke-miterlimit:10;"/><path d="M207.368,121.0128 C221.4724,132.3407 234.1265,142.5039 249.3075,154.6965" fill="none" style="stroke:#000000;stroke-width:1;"/></g><?plantuml-src bLJRJjj047ttLmnv8L5bGm215A58YAfLAje70Xyms1DdnNhNsba7qik_TtOT9p44LNrACfSpP-QSpJ7K2jWsBgS9r9W_Oqbyajj2cJALxyQViCibuEZ4KLkOQei5kSppvFBqFBqykqYE_mCc_aoPc9Kr0MGylZfFnsVdLmBp3LUu1LeuQpoP8lRUr7MsQaYgpzBnnMbNwz6Lv5Dhz1hGvKlbAVUD8yYNQ4e1kGdZuBunNbKITOIU6ERFIkkPMTaSlT00D4KRO_YEHYWwe5VAcr2hV2RJFXEhqe3qipKJoTPo3mQ_f9R8rySPgAhMLCcy5lJ9DgP0juONvPUsyQ0CUzHQZj8E0-5OQ78omqGa3fqvtDggaimzbOgzMsV9aII5VQrHcUIeTbXM21hN0PGhya8vuMTbQdHOGK4BRBJ_8jVxWT8scAFXEJcr6EnLyH8B-nAuB50pxMMUHC3I1VAtLbi7tac_f6InlQfS8_EDzquzoPbckJLpzPFWDF7AwyrHsYqtwy1jw81xql4yl5Gr9uaIYTq2Sv94A_nTj1VyIW0-WOZRwZ8SJLgua9PIMJ0ME0fs78wIFqba94B5xG-WfS0HwZrGrxkDR-T7yCxvFFf7wvwZsdOZzvSUEP8fOq3isWI7S2zgdIgLGVr0htwRw907VMCE03VJkBDgEsjZsA7QaXYzmzf88H_Yr50YjbWfEVxksaqfRpSAD1IBBzIheDo93tTysYVrE8jCuW_n_lLrzrmX5tHh93oTzbisht3NrptBLXtn5LFSR4DpwEKUtSrtjut5GHEzeaScDpDruxUrtSB96mTS_ywom-P83bicJQVxXaXwZBDi-axoIVVtqY_TudHw9NtrGluDeGzbEb3R2H1I7_NrYlR9_GK0?></g></svg>