<svg xmlns="http://www.w3.org/2000/svg" xmlns:xlink="http://www.w3.org/1999/xlink" contentStyleType="text/css" data-diagram-type="CLASS" height="526px" preserveAspectRatio="none" style="width:505px;height:526px;" version="1.1" viewBox="0 0 505 526" width="505px" zoomAndPan="magnify"><?plantuml 1.2026.6?><defs/><g><g class="title" data-source-line="334"><text fill="#000000" font-family="'sans-serif'" font-size="22" font-weight="700" lengthAdjust="spacing" textLength="453.8574" x="24.5713" y="36.2695">Java Skill Command Class Relationships</text></g><!--class ResourceLoader--><g class="entity" data-qualified-name="ResourceLoader" data-source-line="336" id="ent0001"><rect fill="#FFFFFF" height="76.9766" rx="2.5" ry="2.5" style="stroke:#000000;stroke-width:1;" width="200.0908" x="48.5" y="255.9102"/><ellipse cx="90.8394" cy="269.9102" fill="#FFFFFF" rx="9" ry="9" style="stroke:#000000;stroke-width:1;"/><path d="M87.2671,266.1753 L87.2671,264.0171 L94.6465,264.0171 L94.6465,266.1753 L92.1812,266.1753 L92.1812,274.252 L94.6465,274.252 L94.6465,276.4102 L87.2671,276.4102 L87.2671,274.252 L89.7324,274.252 L89.7324,266.1753 Z " fill="#000000"/><text fill="#000000" font-family="'sans-serif'" font-size="14" font-style="italic" lengthAdjust="spacing" textLength="107.9121" x="108.3394" y="275.2012">ResourceLoader</text><line style="stroke:#000000;stroke-width:1;" x1="49.5" x2="247.5908" y1="283.9102" y2="283.9102"/><line style="stroke:#000000;stroke-width:1;" x1="49.5" x2="247.5908" y1="291.9102" y2="291.9102"/><text fill="#000000" font-family="'sans-serif'" font-size="14" lengthAdjust="spacing" textLength="188.0908" x="54.5" y="309.4453">+getSkills(): SkillLoadResult</text><text fill="#000000" font-family="'sans-serif'" font-size="14" lengthAdjust="spacing" textLength="62.9521" x="54.5" y="325.9336">+reload()</text></g><!--class DefaultResourceLoader--><g class="entity" data-qualified-name="DefaultResourceLoader" data-source-line="340" id="ent0002"><rect fill="#FFFFFF" height="60.4883" rx="2.5" ry="2.5" style="stroke:#000000;stroke-width:1;" width="185.0488" x="56" y="368.9102"/><ellipse cx="69" cy="382.9102" fill="#FFFFFF" rx="9" ry="9" style="stroke:#000000;stroke-width:1;"/><path d="M71.4731,389.0532 Q70.8921,389.3521 70.2529,389.5015 Q69.6138,389.6509 68.9082,389.6509 Q66.4014,389.6509 65.0815,387.999 Q63.7617,386.3472 63.7617,383.2261 Q63.7617,380.0967 65.0815,378.4448 Q66.4014,376.793 68.9082,376.793 Q69.6138,376.793 70.2612,376.9424 Q70.9087,377.0918 71.4731,377.3906 L71.4731,380.1133 Q70.8423,379.5322 70.2488,379.2625 Q69.6553,378.9927 69.0244,378.9927 Q67.6797,378.9927 66.9949,380.0593 Q66.3101,381.126 66.3101,383.2261 Q66.3101,385.3179 66.9949,386.3845 Q67.6797,387.4512 69.0244,387.4512 Q69.6553,387.4512 70.2488,387.1814 Q70.8423,386.9116 71.4731,386.3306 Z " fill="#000000"/><text fill="#000000" font-family="'sans-serif'" font-size="14" lengthAdjust="spacing" textLength="157.0488" x="81" y="388.2012">DefaultResourceLoader</text><line style="stroke:#000000;stroke-width:1;" x1="57" x2="240.0488" y1="396.9102" y2="396.9102"/><text fill="#000000" font-family="'sans-serif'" font-size="14" lengthAdjust="spacing" textLength="153.7881" x="62" y="414.4453">-skills: SkillLoadResult</text><line style="stroke:#000000;stroke-width:1;" x1="57" x2="240.0488" y1="421.3984" y2="421.3984"/></g><!--class SkillLoader--><g class="entity" data-qualified-name="SkillLoader" data-source-line="343" id="ent0003"><rect fill="#FFFFFF" height="60.4883" rx="2.5" ry="2.5" style="stroke:#000000;stroke-width:1;" width="238.3037" x="29.5" y="464.9102"/><ellipse cx="107.9023" cy="478.9102" fill="#FFFFFF" rx="9" ry="9" style="stroke:#000000;stroke-width:1;"/><path d="M110.3755,485.0532 Q109.7944,485.3521 109.1553,485.5015 Q108.5161,485.6509 107.8105,485.6509 Q105.3037,485.6509 103.9839,483.999 Q102.6641,482.3472 102.6641,479.2261 Q102.6641,476.0967 103.9839,474.4448 Q105.3037,472.793 107.8105,472.793 Q108.5161,472.793 109.1636,472.9424 Q109.811,473.0918 110.3755,473.3906 L110.3755,476.1133 Q109.7446,475.5322 109.1511,475.2625 Q108.5576,474.9927 107.9268,474.9927 Q106.582,474.9927 105.8972,476.0593 Q105.2124,477.126 105.2124,479.2261 Q105.2124,481.3179 105.8972,482.3845 Q106.582,483.4512 107.9268,483.4512 Q108.5576,483.4512 109.1511,483.1814 Q109.7446,482.9116 110.3755,482.3306 Z " fill="#000000"/><text fill="#000000" font-family="'sans-serif'" font-size="14" lengthAdjust="spacing" textLength="73.999" x="125.4023" y="484.2012">SkillLoader</text><line style="stroke:#000000;stroke-width:1;" x1="30.5" x2="266.8037" y1="492.9102" y2="492.9102"/><line style="stroke:#000000;stroke-width:1;" x1="30.5" x2="266.8037" y1="500.9102" y2="500.9102"/><text fill="#000000" font-family="'sans-serif'" font-size="14" lengthAdjust="spacing" textLength="226.3037" x="35.5" y="518.4453">+load(resources): SkillLoadResult</text></g><!--class SkillCommandExpander--><g class="entity" data-qualified-name="SkillCommandExpander" data-source-line="346" id="ent0004"><rect fill="#FFFFFF" height="60.4883" rx="2.5" ry="2.5" style="stroke:#000000;stroke-width:1;" width="201.8066" x="277.5" y="264.4102"/><ellipse cx="296.143" cy="278.4102" fill="#FFFFFF" rx="9" ry="9" style="stroke:#000000;stroke-width:1;"/><path d="M298.6162,284.5532 Q298.0351,284.8521 297.3959,285.0015 Q296.7568,285.1509 296.0512,285.1509 Q293.5444,285.1509 292.2246,283.499 Q290.9047,281.8472 290.9047,278.7261 Q290.9047,275.5967 292.2246,273.9448 Q293.5444,272.293 296.0512,272.293 Q296.7568,272.293 297.4042,272.4424 Q298.0517,272.5918 298.6162,272.8906 L298.6162,275.6133 Q297.9853,275.0322 297.3918,274.7625 Q296.7983,274.4927 296.1674,274.4927 Q294.8227,274.4927 294.1379,275.5593 Q293.4531,276.626 293.4531,278.7261 Q293.4531,280.8179 294.1379,281.8845 Q294.8227,282.9512 296.1674,282.9512 Q296.7983,282.9512 297.3918,282.6814 Q297.9853,282.4116 298.6162,281.8306 Z " fill="#000000"/><text fill="#000000" font-family="'sans-serif'" font-size="14" lengthAdjust="spacing" textLength="161.2666" x="309.397" y="283.7012">SkillCommandExpander</text><line style="stroke:#000000;stroke-width:1;" x1="278.5" x2="478.3066" y1="292.4102" y2="292.4102"/><line style="stroke:#000000;stroke-width:1;" x1="278.5" x2="478.3066" y1="300.4102" y2="300.4102"/><text fill="#000000" font-family="'sans-serif'" font-size="14" lengthAdjust="spacing" textLength="189.8066" x="283.5" y="317.9453">+expand(text, skills): String</text></g><!--class CommandCompletionService--><g class="entity" data-qualified-name="CommandCompletionService" data-source-line="349" id="ent0005"><rect fill="#FFFFFF" height="60.4883" rx="2.5" ry="2.5" style="stroke:#000000;stroke-width:1;" width="223.5762" x="25.5" y="159.9102"/><ellipse cx="38.5" cy="173.9102" fill="#FFFFFF" rx="9" ry="9" style="stroke:#000000;stroke-width:1;"/><path d="M40.9731,180.0532 Q40.3921,180.3521 39.7529,180.5015 Q39.1138,180.6509 38.4082,180.6509 Q35.9014,180.6509 34.5815,178.999 Q33.2617,177.3472 33.2617,174.2261 Q33.2617,171.0967 34.5815,169.4448 Q35.9014,167.793 38.4082,167.793 Q39.1138,167.793 39.7612,167.9424 Q40.4087,168.0918 40.9731,168.3906 L40.9731,171.1133 Q40.3423,170.5322 39.7488,170.2625 Q39.1553,169.9927 38.5244,169.9927 Q37.1797,169.9927 36.4949,171.0593 Q35.8101,172.126 35.8101,174.2261 Q35.8101,176.3179 36.4949,177.3845 Q37.1797,178.4512 38.5244,178.4512 Q39.1553,178.4512 39.7488,178.1814 Q40.3423,177.9116 40.9731,177.3306 Z " fill="#000000"/><text fill="#000000" font-family="'sans-serif'" font-size="14" lengthAdjust="spacing" textLength="195.5762" x="50.5" y="179.2012">CommandCompletionService</text><line style="stroke:#000000;stroke-width:1;" x1="26.5" x2="248.0762" y1="187.9102" y2="187.9102"/><line style="stroke:#000000;stroke-width:1;" x1="26.5" x2="248.0762" y1="195.9102" y2="195.9102"/><text fill="#000000" font-family="'sans-serif'" font-size="14" lengthAdjust="spacing" textLength="197.1963" x="31.5" y="213.4453">+getSuggestions(prefix): List</text></g><!--class GuiCommandCompletionAdapter--><g class="entity" data-qualified-name="GuiCommandCompletionAdapter" data-source-line="352" id="ent0006"><rect fill="#FFFFFF" height="60.4883" rx="2.5" ry="2.5" style="stroke:#000000;stroke-width:1;" width="252.875" x="11" y="63.9102"/><ellipse cx="24" cy="77.9102" fill="#FFFFFF" rx="9" ry="9" style="stroke:#000000;stroke-width:1;"/><path d="M26.4731,84.0532 Q25.8921,84.3521 25.2529,84.5015 Q24.6138,84.6509 23.9082,84.6509 Q21.4014,84.6509 20.0815,82.999 Q18.7617,81.3472 18.7617,78.2261 Q18.7617,75.0967 20.0815,73.4448 Q21.4014,71.793 23.9082,71.793 Q24.6138,71.793 25.2612,71.9424 Q25.9087,72.0918 26.4731,72.3906 L26.4731,75.1133 Q25.8423,74.5322 25.2488,74.2625 Q24.6553,73.9927 24.0244,73.9927 Q22.6797,73.9927 21.9949,75.0593 Q21.3101,76.126 21.3101,78.2261 Q21.3101,80.3179 21.9949,81.3845 Q22.6797,82.4512 24.0244,82.4512 Q24.6553,82.4512 25.2488,82.1814 Q25.8423,81.9116 26.4731,81.3306 Z " fill="#000000"/><text fill="#000000" font-family="'sans-serif'" font-size="14" lengthAdjust="spacing" textLength="224.875" x="36" y="83.2012">GuiCommandCompletionAdapter</text><line style="stroke:#000000;stroke-width:1;" x1="12" x2="262.875" y1="91.9102" y2="91.9102"/><line style="stroke:#000000;stroke-width:1;" x1="12" x2="262.875" y1="99.9102" y2="99.9102"/><text fill="#000000" font-family="'sans-serif'" font-size="14" lengthAdjust="spacing" textLength="197.1963" x="17" y="117.4453">+getSuggestions(prefix): List</text></g><!--class AgentSession--><g class="entity" data-qualified-name="AgentSession" data-source-line="355" id="ent0007"><rect fill="#FFFFFF" height="60.4883" rx="2.5" ry="2.5" style="stroke:#000000;stroke-width:1;" width="221.1455" x="268" y="159.9102"/><ellipse cx="329.292" cy="173.9102" fill="#FFFFFF" rx="9" ry="9" style="stroke:#000000;stroke-width:1;"/><path d="M331.7651,180.0532 Q331.1841,180.3521 330.5449,180.5015 Q329.9058,180.6509 329.2002,180.6509 Q326.6934,180.6509 325.3735,178.999 Q324.0537,177.3472 324.0537,174.2261 Q324.0537,171.0967 325.3735,169.4448 Q326.6934,167.793 329.2002,167.793 Q329.9058,167.793 330.5532,167.9424 Q331.2007,168.0918 331.7651,168.3906 L331.7651,171.1133 Q331.1343,170.5322 330.5408,170.2625 Q329.9473,169.9927 329.3164,169.9927 Q327.9717,169.9927 327.2869,171.0593 Q326.6021,172.126 326.6021,174.2261 Q326.6021,176.3179 327.2869,177.3845 Q327.9717,178.4512 329.3164,178.4512 Q329.9473,178.4512 330.5408,178.1814 Q331.1343,177.9116 331.7651,177.3306 Z " fill="#000000"/><text fill="#000000" font-family="'sans-serif'" font-size="14" lengthAdjust="spacing" textLength="91.0615" x="346.792" y="179.2012">AgentSession</text><line style="stroke:#000000;stroke-width:1;" x1="269" x2="488.1455" y1="187.9102" y2="187.9102"/><line style="stroke:#000000;stroke-width:1;" x1="269" x2="488.1455" y1="195.9102" y2="195.9102"/><text fill="#000000" font-family="'sans-serif'" font-size="14" lengthAdjust="spacing" textLength="209.1455" x="274" y="213.4453">-expandUserInput(text): String</text></g><g class="link" data-entity-1="ent0001" data-entity-2="ent0002" data-link-type="extension" id="lnk8"><polygon fill="none" points="148.5,332.9953,142.5,350.9953,154.5,350.9953,148.5,332.9953" style="stroke:#000000;stroke-width:1;stroke-linejoin:miter;stroke-miterlimit:10;"/><path d="M148.5,350.9953 C148.5,362.7653 148.5,357.5726 148.5,368.6771" fill="none" style="stroke:#000000;stroke-width:1;stroke-dasharray:7,7;"/></g><g class="link" data-entity-1="ent0002" data-entity-2="ent0003" data-link-type="dependency" id="lnk9"><polygon fill="#000000" points="148.5,464.7013,152.5,455.7013,148.5,459.7013,144.5,455.7013,148.5,464.7013" style="stroke:#000000;stroke-width:1;stroke-linejoin:miter;stroke-miterlimit:10;"/><path d="M148.5,429.1371 C148.5,440.4549 148.5,448.3852 148.5,459.7013" fill="none" style="stroke:#000000;stroke-width:1;"/></g><g class="link" data-entity-1="ent0007" data-entity-2="ent0001" data-link-type="dependency" id="lnk10"><polygon fill="#000000" points="232.8986,255.7977,242.7475,255.7878,237.4656,253.7624,239.491,248.4806,232.8986,255.7977" style="stroke:#000000;stroke-width:1;stroke-linejoin:miter;stroke-miterlimit:10;"/><path d="M313.2064,220.0084 C288.2384,231.1354 263.9665,241.9523 237.4656,253.7624" fill="none" style="stroke:#000000;stroke-width:1;"/></g><g class="link" data-entity-1="ent0007" data-entity-2="ent0004" data-link-type="dependency" id="lnk11"><polygon fill="#000000" points="378.5,264.2392,382.5,255.2392,378.5,259.2392,374.5,255.2392,378.5,264.2392" style="stroke:#000000;stroke-width:1;stroke-linejoin:miter;stroke-miterlimit:10;"/><path d="M378.5,220.0084 C378.5,233.858 378.5,245.3802 378.5,259.2392" fill="none" style="stroke:#000000;stroke-width:1;"/></g><g class="link" data-entity-1="ent0005" data-entity-2="ent0001" data-link-type="dependency" id="lnk12"><polygon fill="#000000" points="144.4635,255.7977,147.4804,246.4223,143.93,250.8263,139.526,247.2759,144.4635,255.7977" style="stroke:#000000;stroke-width:1;stroke-linejoin:miter;stroke-miterlimit:10;"/><path d="M140.6227,220.0084 C141.8169,231.1354 142.6626,239.0161 143.93,250.8263" fill="none" style="stroke:#000000;stroke-width:1;"/></g><g class="link" data-entity-1="ent0006" data-entity-2="ent0005" data-link-type="dependency" id="lnk13"><polygon fill="#000000" points="137.5,159.7013,141.5,150.7013,137.5,154.7013,133.5,150.7013,137.5,159.7013" style="stroke:#000000;stroke-width:1;stroke-linejoin:miter;stroke-miterlimit:10;"/><path d="M137.5,124.1371 C137.5,135.4549 137.5,143.3852 137.5,154.7013" fill="none" style="stroke:#000000;stroke-width:1;"/></g><?plantuml-src bPFRJXj138RlvoaCDmIr6nA2G8ggIX5j4HNYWeW7S7QTpOZPcT5u5f8UthsUsP064efwioVRt_Z_xJq2hu5T6qeQWyVo0MlYaz9LsjQ5FDjumg6K3u5E0dM9XN5OKUX77fyFHiNvwPaw-WzCVYsOcBMp2J8SNeoAuUdeGZ3VyH4te7bmDfAjSkt4-_vZIv9zMWpF1fBxXLZN5W8XEpi6Mdhfa24kgCDStL-3RhoXHWx4AAV1pBMsmh229nqNhesWBKSqHjg4wOCs1XPeAqE19P99d2fBk7HD8v4xgZN7iEgh0mas1DwWjkh01wmR18Eh1EM68bfK_A2jnu0DL3J7riHlekSMfUnmYfQd5FJyS2kB5rYvfzJB70tJLcGcbjOXDN_fZ0iGWzHBI8HjPPK6cISn1Zrh8rsNpaxr3uA1YZgQjIcTohKSk4mLS4ScsyCBxLafBQQ7EPOaWMuKDtdWy5C1V82QOePmxtZSuL9OKaLWJWYK5gHth7wht94CAglVGok0CseNz5ox-RuvFyEVTv6FtobTA_swz7BTC2Y_zY8juyTr2maapjbwKxykbPliKF971lQenPQ_FhIrx7cshYVBDzTBeTp8XcmOLwtUmKmgzF65dUzY9kcVcNQ_pDguJi8zKxYslerPoxO6zShkJx_w_VsJKFldKnIVjzrNBtf8mLUKdVW-_zMRfkuX_ikybFuMwmy0?></g></svg>