<svg xmlns="http://www.w3.org/2000/svg" xmlns:xlink="http://www.w3.org/1999/xlink" contentStyleType="text/css" data-diagram-type="CLASS" height="430px" preserveAspectRatio="none" style="width:713px;height:430px;" version="1.1" viewBox="0 0 713 430" width="713px" zoomAndPan="magnify"><?plantuml 1.2026.6?><defs/><g><g class="title" data-source-line="319"><text fill="#000000" font-family="'sans-serif'" font-size="22" font-weight="700" lengthAdjust="spacing" textLength="453.8574" x="128.5713" y="36.2695">Java Skill Command Class Relationships</text></g><!--class ResourceLoader--><g class="entity" data-qualified-name="ResourceLoader" data-source-line="321" id="ent0001"><rect fill="#FFFFFF" height="76.9766" rx="2.5" ry="2.5" style="stroke:#000000;stroke-width:1;" width="200.0908" x="277" y="159.9102"/><ellipse cx="319.3394" cy="173.9102" fill="#FFFFFF" rx="9" ry="9" style="stroke:#000000;stroke-width:1;"/><path d="M315.7671,170.1753 L315.7671,168.0171 L323.1465,168.0171 L323.1465,170.1753 L320.6812,170.1753 L320.6812,178.252 L323.1465,178.252 L323.1465,180.4102 L315.7671,180.4102 L315.7671,178.252 L318.2324,178.252 L318.2324,170.1753 Z " fill="#000000"/><text fill="#000000" font-family="'sans-serif'" font-size="14" font-style="italic" lengthAdjust="spacing" textLength="107.9121" x="336.8394" y="179.2012">ResourceLoader</text><line style="stroke:#000000;stroke-width:1;" x1="278" x2="476.0908" y1="187.9102" y2="187.9102"/><line style="stroke:#000000;stroke-width:1;" x1="278" x2="476.0908" y1="195.9102" y2="195.9102"/><text fill="#000000" font-family="'sans-serif'" font-size="14" lengthAdjust="spacing" textLength="188.0908" x="283" y="213.4453">+getSkills(): SkillLoadResult</text><text fill="#000000" font-family="'sans-serif'" font-size="14" lengthAdjust="spacing" textLength="62.9521" x="283" y="229.9336">+reload()</text></g><!--class DefaultResourceLoader--><g class="entity" data-qualified-name="DefaultResourceLoader" data-source-line="325" id="ent0002"><rect fill="#FFFFFF" height="60.4883" rx="2.5" ry="2.5" style="stroke:#000000;stroke-width:1;" width="185.0488" x="284.5" y="272.9102"/><ellipse cx="297.5" cy="286.9102" fill="#FFFFFF" rx="9" ry="9" style="stroke:#000000;stroke-width:1;"/><path d="M299.9731,293.0532 Q299.3921,293.3521 298.7529,293.5015 Q298.1138,293.6509 297.4082,293.6509 Q294.9014,293.6509 293.5815,291.999 Q292.2617,290.3472 292.2617,287.2261 Q292.2617,284.0967 293.5815,282.4448 Q294.9014,280.793 297.4082,280.793 Q298.1138,280.793 298.7612,280.9424 Q299.4087,281.0918 299.9731,281.3906 L299.9731,284.1133 Q299.3423,283.5322 298.7488,283.2625 Q298.1553,282.9927 297.5244,282.9927 Q296.1797,282.9927 295.4949,284.0593 Q294.8101,285.126 294.8101,287.2261 Q294.8101,289.3179 295.4949,290.3845 Q296.1797,291.4512 297.5244,291.4512 Q298.1553,291.4512 298.7488,291.1814 Q299.3423,290.9116 299.9731,290.3306 Z " fill="#000000"/><text fill="#000000" font-family="'sans-serif'" font-size="14" lengthAdjust="spacing" textLength="157.0488" x="309.5" y="292.2012">DefaultResourceLoader</text><line style="stroke:#000000;stroke-width:1;" x1="285.5" x2="468.5488" y1="300.9102" y2="300.9102"/><text fill="#000000" font-family="'sans-serif'" font-size="14" lengthAdjust="spacing" textLength="153.7881" x="290.5" y="318.4453">-skills: SkillLoadResult</text><line style="stroke:#000000;stroke-width:1;" x1="285.5" x2="468.5488" y1="325.3984" y2="325.3984"/></g><!--class SkillLoader--><g class="entity" data-qualified-name="SkillLoader" data-source-line="328" id="ent0003"><rect fill="#FFFFFF" height="60.4883" rx="2.5" ry="2.5" style="stroke:#000000;stroke-width:1;" width="238.3037" x="258" y="368.9102"/><ellipse cx="336.4023" cy="382.9102" fill="#FFFFFF" rx="9" ry="9" style="stroke:#000000;stroke-width:1;"/><path d="M338.8755,389.0532 Q338.2944,389.3521 337.6553,389.5015 Q337.0161,389.6509 336.3105,389.6509 Q333.8037,389.6509 332.4839,387.999 Q331.1641,386.3472 331.1641,383.2261 Q331.1641,380.0967 332.4839,378.4448 Q333.8037,376.793 336.3105,376.793 Q337.0161,376.793 337.6636,376.9424 Q338.311,377.0918 338.8755,377.3906 L338.8755,380.1133 Q338.2446,379.5322 337.6511,379.2625 Q337.0576,378.9927 336.4268,378.9927 Q335.082,378.9927 334.3972,380.0593 Q333.7124,381.126 333.7124,383.2261 Q333.7124,385.3179 334.3972,386.3845 Q335.082,387.4512 336.4268,387.4512 Q337.0576,387.4512 337.6511,387.1814 Q338.2446,386.9116 338.8755,386.3306 Z " fill="#000000"/><text fill="#000000" font-family="'sans-serif'" font-size="14" lengthAdjust="spacing" textLength="73.999" x="353.9023" y="388.2012">SkillLoader</text><line style="stroke:#000000;stroke-width:1;" x1="259" x2="495.3037" y1="396.9102" y2="396.9102"/><line style="stroke:#000000;stroke-width:1;" x1="259" x2="495.3037" y1="404.9102" y2="404.9102"/><text fill="#000000" font-family="'sans-serif'" font-size="14" lengthAdjust="spacing" textLength="226.3037" x="264" y="422.4453">+load(resources): SkillLoadResult</text></g><!--class SkillCommandExpander--><g class="entity" data-qualified-name="SkillCommandExpander" data-source-line="331" id="ent0004"><rect fill="#FFFFFF" height="60.4883" rx="2.5" ry="2.5" style="stroke:#000000;stroke-width:1;" width="201.8066" x="495" y="168.4102"/><ellipse cx="513.643" cy="182.4102" fill="#FFFFFF" rx="9" ry="9" style="stroke:#000000;stroke-width:1;"/><path d="M516.1162,188.5532 Q515.5351,188.8521 514.8959,189.0015 Q514.2568,189.1509 513.5512,189.1509 Q511.0444,189.1509 509.7246,187.499 Q508.4047,185.8472 508.4047,182.7261 Q508.4047,179.5967 509.7246,177.9448 Q511.0444,176.293 513.5512,176.293 Q514.2568,176.293 514.9042,176.4424 Q515.5517,176.5918 516.1162,176.8906 L516.1162,179.6133 Q515.4853,179.0322 514.8918,178.7625 Q514.2983,178.4927 513.6674,178.4927 Q512.3227,178.4927 511.6379,179.5593 Q510.9531,180.626 510.9531,182.7261 Q510.9531,184.8179 511.6379,185.8845 Q512.3227,186.9512 513.6674,186.9512 Q514.2983,186.9512 514.8918,186.6814 Q515.4853,186.4116 516.1162,185.8306 Z " fill="#000000"/><text fill="#000000" font-family="'sans-serif'" font-size="14" lengthAdjust="spacing" textLength="161.2666" x="526.897" y="187.7012">SkillCommandExpander</text><line style="stroke:#000000;stroke-width:1;" x1="496" x2="695.8066" y1="196.4102" y2="196.4102"/><line style="stroke:#000000;stroke-width:1;" x1="496" x2="695.8066" y1="204.4102" y2="204.4102"/><text fill="#000000" font-family="'sans-serif'" font-size="14" lengthAdjust="spacing" textLength="189.8066" x="501" y="221.9453">+expand(text, skills): String</text></g><!--class CombinedAutocompleteProvider--><g class="entity" data-qualified-name="CombinedAutocompleteProvider" data-source-line="334" id="ent0005"><rect fill="#FFFFFF" height="60.4883" rx="2.5" ry="2.5" style="stroke:#000000;stroke-width:1;" width="247.9326" x="11" y="168.4102"/><ellipse cx="24" cy="182.4102" fill="#FFFFFF" rx="9" ry="9" style="stroke:#000000;stroke-width:1;"/><path d="M26.4731,188.5532 Q25.8921,188.8521 25.2529,189.0015 Q24.6138,189.1509 23.9082,189.1509 Q21.4014,189.1509 20.0815,187.499 Q18.7617,185.8472 18.7617,182.7261 Q18.7617,179.5967 20.0815,177.9448 Q21.4014,176.293 23.9082,176.293 Q24.6138,176.293 25.2612,176.4424 Q25.9087,176.5918 26.4731,176.8906 L26.4731,179.6133 Q25.8423,179.0322 25.2488,178.7625 Q24.6553,178.4927 24.0244,178.4927 Q22.6797,178.4927 21.9949,179.5593 Q21.3101,180.626 21.3101,182.7261 Q21.3101,184.8179 21.9949,185.8845 Q22.6797,186.9512 24.0244,186.9512 Q24.6553,186.9512 25.2488,186.6814 Q25.8423,186.4116 26.4731,185.8306 Z " fill="#000000"/><text fill="#000000" font-family="'sans-serif'" font-size="14" lengthAdjust="spacing" textLength="219.9326" x="36" y="187.7012">CombinedAutocompleteProvider</text><line style="stroke:#000000;stroke-width:1;" x1="12" x2="257.9326" y1="196.4102" y2="196.4102"/><line style="stroke:#000000;stroke-width:1;" x1="12" x2="257.9326" y1="204.4102" y2="204.4102"/><text fill="#000000" font-family="'sans-serif'" font-size="14" lengthAdjust="spacing" textLength="197.1963" x="17" y="221.9453">+getSuggestions(prefix): List</text></g><!--class InteractiveMode--><g class="entity" data-qualified-name="InteractiveMode" data-source-line="337" id="ent0006"><rect fill="#FFFFFF" height="60.4883" rx="2.5" ry="2.5" style="stroke:#000000;stroke-width:1;" width="224.1191" x="23" y="63.9102"/><ellipse cx="77.3159" cy="77.9102" fill="#FFFFFF" rx="9" ry="9" style="stroke:#000000;stroke-width:1;"/><path d="M79.7891,84.0532 Q79.208,84.3521 78.5688,84.5015 Q77.9297,84.6509 77.2241,84.6509 Q74.7173,84.6509 73.3975,82.999 Q72.0776,81.3472 72.0776,78.2261 Q72.0776,75.0967 73.3975,73.4448 Q74.7173,71.793 77.2241,71.793 Q77.9297,71.793 78.5771,71.9424 Q79.2246,72.0918 79.7891,72.3906 L79.7891,75.1133 Q79.1582,74.5322 78.5647,74.2625 Q77.9712,73.9927 77.3403,73.9927 Q75.9956,73.9927 75.3108,75.0593 Q74.626,76.126 74.626,78.2261 Q74.626,80.3179 75.3108,81.3845 Q75.9956,82.4512 77.3403,82.4512 Q77.9712,82.4512 78.5647,82.1814 Q79.1582,81.9116 79.7891,81.3306 Z " fill="#000000"/><text fill="#000000" font-family="'sans-serif'" font-size="14" lengthAdjust="spacing" textLength="107.9873" x="94.8159" y="83.2012">InteractiveMode</text><line style="stroke:#000000;stroke-width:1;" x1="24" x2="246.1191" y1="91.9102" y2="91.9102"/><line style="stroke:#000000;stroke-width:1;" x1="24" x2="246.1191" y1="99.9102" y2="99.9102"/><text fill="#000000" font-family="'sans-serif'" font-size="14" lengthAdjust="spacing" textLength="212.1191" x="29" y="117.4453">+createAutocompleteProvider()</text></g><!--class AgentSession--><g class="entity" data-qualified-name="AgentSession" data-source-line="340" id="ent0007"><rect fill="#FFFFFF" height="60.4883" rx="2.5" ry="2.5" style="stroke:#000000;stroke-width:1;" width="221.1455" x="375.5" y="63.9102"/><ellipse cx="436.792" cy="77.9102" fill="#FFFFFF" rx="9" ry="9" style="stroke:#000000;stroke-width:1;"/><path d="M439.2651,84.0532 Q438.6841,84.3521 438.0449,84.5015 Q437.4058,84.6509 436.7002,84.6509 Q434.1934,84.6509 432.8735,82.999 Q431.5537,81.3472 431.5537,78.2261 Q431.5537,75.0967 432.8735,73.4448 Q434.1934,71.793 436.7002,71.793 Q437.4058,71.793 438.0532,71.9424 Q438.7007,72.0918 439.2651,72.3906 L439.2651,75.1133 Q438.6343,74.5322 438.0408,74.2625 Q437.4473,73.9927 436.8164,73.9927 Q435.4717,73.9927 434.7869,75.0593 Q434.1021,76.126 434.1021,78.2261 Q434.1021,80.3179 434.7869,81.3845 Q435.4717,82.4512 436.8164,82.4512 Q437.4473,82.4512 438.0408,82.1814 Q438.6343,81.9116 439.2651,81.3306 Z " fill="#000000"/><text fill="#000000" font-family="'sans-serif'" font-size="14" lengthAdjust="spacing" textLength="91.0615" x="454.292" y="83.2012">AgentSession</text><line style="stroke:#000000;stroke-width:1;" x1="376.5" x2="595.6455" y1="91.9102" y2="91.9102"/><line style="stroke:#000000;stroke-width:1;" x1="376.5" x2="595.6455" y1="99.9102" y2="99.9102"/><text fill="#000000" font-family="'sans-serif'" font-size="14" lengthAdjust="spacing" textLength="209.1455" x="381.5" y="117.4453">-expandUserInput(text): String</text></g><g class="link" data-entity-1="ent0001" data-entity-2="ent0002" data-link-type="extension" id="lnk8"><polygon fill="none" points="377,236.9953,371,254.9953,383,254.9953,377,236.9953" style="stroke:#000000;stroke-width:1;stroke-linejoin:miter;stroke-miterlimit:10;"/><path d="M377,254.9953 C377,266.7653 377,261.5726 377,272.6771" fill="none" style="stroke:#000000;stroke-width:1;stroke-dasharray:7,7;"/></g><g class="link" data-entity-1="ent0002" data-entity-2="ent0003" data-link-type="dependency" id="lnk9"><polygon fill="#000000" points="377,368.7013,381,359.7013,377,363.7013,373,359.7013,377,368.7013" style="stroke:#000000;stroke-width:1;stroke-linejoin:miter;stroke-miterlimit:10;"/><path d="M377,333.1371 C377,344.4549 377,352.3852 377,363.7013" fill="none" style="stroke:#000000;stroke-width:1;"/></g><g class="link" data-entity-1="ent0007" data-entity-2="ent0001" data-link-type="dependency" id="lnk10"><polygon fill="#000000" points="416.9976,159.7977,426.2943,156.5462,420.6401,156.3725,420.8139,150.7183,416.9976,159.7977" style="stroke:#000000;stroke-width:1;stroke-linejoin:miter;stroke-miterlimit:10;"/><path d="M455.0565,124.0084 C443.2239,135.1354 433.1992,144.5623 420.6401,156.3725" fill="none" style="stroke:#000000;stroke-width:1;"/></g><g class="link" data-entity-1="ent0007" data-entity-2="ent0004" data-link-type="dependency" id="lnk11"><polygon fill="#000000" points="564.6946,168.2392,560.837,159.1772,561.0365,164.8306,555.3832,165.0301,564.6946,168.2392" style="stroke:#000000;stroke-width:1;stroke-linejoin:miter;stroke-miterlimit:10;"/><path d="M517.2274,124.0084 C532.0904,137.858 546.1635,150.9716 561.0365,164.8306" fill="none" style="stroke:#000000;stroke-width:1;"/></g><g class="link" data-entity-1="ent0006" data-entity-2="ent0001" data-link-type="dependency" id="lnk12"><polygon fill="#000000" points="288.198,159.7977,281.4707,152.6044,283.5939,157.8477,278.3506,159.9708,288.198,159.7977" style="stroke:#000000;stroke-width:1;stroke-linejoin:miter;stroke-miterlimit:10;"/><path d="M203.7002,124.0084 C229.9709,135.1354 255.7104,146.0375 283.5939,157.8477" fill="none" style="stroke:#000000;stroke-width:1;"/></g><g class="link" data-entity-1="ent0006" data-entity-2="ent0005" data-link-type="dependency" id="lnk13"><polygon fill="#000000" points="135,168.2392,139,159.2392,135,163.2392,131,159.2392,135,168.2392" style="stroke:#000000;stroke-width:1;stroke-linejoin:miter;stroke-miterlimit:10;"/><path d="M135,124.0084 C135,137.858 135,149.3802 135,163.2392" fill="none" style="stroke:#000000;stroke-width:1;"/></g><?plantuml-src bP9lQnin3CRV-rEeVTEKxPAs6Is4CIZT1XdT60tx0CgTSZ7rsOUbIvFz-UwLdJIaxR6nDyVPqlEpz4Wdq5hWqCMI9j1YUOyryQWCbVLreVzUHXnBlOWqYhHDB5p0Yk9GU79vDYukBzwPa__0v6F1n6o3Jv3pywjnSNunlbBCHs9RUuY47Fm4QDtggmoo9FY2AmJRj8uQ1Q2e6kQXynN63JnOMOPEL5XR5ehwBipkhNEmH5yvYWpMmymXBsz2q-ZTNSwCcw4vKdf3q3gqtXor4Ui6mU4cyRWXGO-6xwrlCM835IsmS_8vUFc6AZkUeUUPlhWuFiZY9LRX8LMnGCTq49chEtLCTTy45o98LBs6jAU3h58hvMkHQEUTqBGCVcP_4fmPiU9sNcpxsxK3Dqa1T-IoCxoqBHjZlNgnm98qi1tFRPuT_380Rw0coH0Ud4wsk1JML6qm9qHAinwScZycLwJpoTttq0hWZ7eDUjBkx_VlP_ZJMl7fFwIxJZ-jM_tk6PIF0w6rlDsLa42ILc2lL-dSUggkEmbbI3iaz3s6bNtkHLVhscRx1hft2xjMqgrkoPupJNvYANP5NqD5EscfwohKnpvmxZgj_MoxzJl3jgN_O8fJttQIUpYitRom-VtluR1_0gP_BaNnuT1rywo657n1UHNlyzsyDA47r9Vojnay0W00?></g></svg>