<svg xmlns="http://www.w3.org/2000/svg" xmlns:xlink="http://www.w3.org/1999/xlink" contentStyleType="text/css" data-diagram-type="CLASS" height="523px" preserveAspectRatio="none" style="width:490px;height:523px;" version="1.1" viewBox="0 0 490 523" width="490px" zoomAndPan="magnify"><?plantuml 1.2026.6?><defs/><g><g class="title" data-source-line="334"><text fill="#000000" font-family="'sans-serif'" font-size="22" font-weight="700" lengthAdjust="spacing" textLength="453.8574" x="17.3213" y="36.2695">Java Skill Command Class Relationships</text></g><!--class ResourceLoader--><g class="entity" data-qualified-name="ResourceLoader" data-source-line="336" id="ent0001"><rect fill="#FFFFFF" height="76.9766" rx="2.5" ry="2.5" style="stroke:#000000;stroke-width:1;" width="200.0908" x="34" y="252.9102"/><ellipse cx="76.3394" cy="266.9102" fill="#FFFFFF" rx="9" ry="9" style="stroke:#000000;stroke-width:1;"/><path d="M72.7671,263.1753 L72.7671,261.0171 L80.1465,261.0171 L80.1465,263.1753 L77.6812,263.1753 L77.6812,271.252 L80.1465,271.252 L80.1465,273.4102 L72.7671,273.4102 L72.7671,271.252 L75.2324,271.252 L75.2324,263.1753 Z " fill="#000000"/><text fill="#000000" font-family="'sans-serif'" font-size="14" font-style="italic" lengthAdjust="spacing" textLength="107.9121" x="93.8394" y="272.2012">ResourceLoader</text><line style="stroke:#000000;stroke-width:1;" x1="35" x2="233.0908" y1="280.9102" y2="280.9102"/><line style="stroke:#000000;stroke-width:1;" x1="35" x2="233.0908" y1="288.9102" y2="288.9102"/><text fill="#000000" font-family="'sans-serif'" font-size="14" lengthAdjust="spacing" textLength="188.0908" x="40" y="306.4453">+getSkills(): SkillLoadResult</text><text fill="#000000" font-family="'sans-serif'" font-size="14" lengthAdjust="spacing" textLength="62.9521" x="40" y="322.9336">+reload()</text></g><!--class DefaultResourceLoader--><g class="entity" data-qualified-name="DefaultResourceLoader" data-source-line="340" id="ent0002"><rect fill="#FFFFFF" height="60.4883" rx="2.5" ry="2.5" style="stroke:#000000;stroke-width:1;" width="185.0488" x="41.5" y="365.9102"/><ellipse cx="54.5" cy="379.9102" fill="#FFFFFF" rx="9" ry="9" style="stroke:#000000;stroke-width:1;"/><path d="M56.9731,386.0532 Q56.3921,386.3521 55.7529,386.5015 Q55.1138,386.6509 54.4082,386.6509 Q51.9014,386.6509 50.5815,384.999 Q49.2617,383.3472 49.2617,380.2261 Q49.2617,377.0967 50.5815,375.4448 Q51.9014,373.793 54.4082,373.793 Q55.1138,373.793 55.7612,373.9424 Q56.4087,374.0918 56.9731,374.3906 L56.9731,377.1133 Q56.3423,376.5322 55.7488,376.2625 Q55.1553,375.9927 54.5244,375.9927 Q53.1797,375.9927 52.4949,377.0593 Q51.8101,378.126 51.8101,380.2261 Q51.8101,382.3179 52.4949,383.3845 Q53.1797,384.4512 54.5244,384.4512 Q55.1553,384.4512 55.7488,384.1814 Q56.3423,383.9116 56.9731,383.3306 Z " fill="#000000"/><text fill="#000000" font-family="'sans-serif'" font-size="14" lengthAdjust="spacing" textLength="157.0488" x="66.5" y="385.2012">DefaultResourceLoader</text><line style="stroke:#000000;stroke-width:1;" x1="42.5" x2="225.5488" y1="393.9102" y2="393.9102"/><text fill="#000000" font-family="'sans-serif'" font-size="14" lengthAdjust="spacing" textLength="153.7881" x="47.5" y="411.4453">-skills: SkillLoadResult</text><line style="stroke:#000000;stroke-width:1;" x1="42.5" x2="225.5488" y1="418.3984" y2="418.3984"/></g><!--class SkillLoader--><g class="entity" data-qualified-name="SkillLoader" data-source-line="343" id="ent0003"><rect fill="#FFFFFF" height="60.4883" rx="2.5" ry="2.5" style="stroke:#000000;stroke-width:1;" width="238.3037" x="15" y="461.9102"/><ellipse cx="93.4023" cy="475.9102" fill="#FFFFFF" rx="9" ry="9" style="stroke:#000000;stroke-width:1;"/><path d="M95.8755,482.0532 Q95.2944,482.3521 94.6553,482.5015 Q94.0161,482.6509 93.3105,482.6509 Q90.8037,482.6509 89.4839,480.999 Q88.1641,479.3472 88.1641,476.2261 Q88.1641,473.0967 89.4839,471.4448 Q90.8037,469.793 93.3105,469.793 Q94.0161,469.793 94.6636,469.9424 Q95.311,470.0918 95.8755,470.3906 L95.8755,473.1133 Q95.2446,472.5322 94.6511,472.2625 Q94.0576,471.9927 93.4268,471.9927 Q92.082,471.9927 91.3972,473.0593 Q90.7124,474.126 90.7124,476.2261 Q90.7124,478.3179 91.3972,479.3845 Q92.082,480.4512 93.4268,480.4512 Q94.0576,480.4512 94.6511,480.1814 Q95.2446,479.9116 95.8755,479.3306 Z " fill="#000000"/><text fill="#000000" font-family="'sans-serif'" font-size="14" lengthAdjust="spacing" textLength="73.999" x="110.9023" y="481.2012">SkillLoader</text><line style="stroke:#000000;stroke-width:1;" x1="16" x2="252.3037" y1="489.9102" y2="489.9102"/><line style="stroke:#000000;stroke-width:1;" x1="16" x2="252.3037" y1="497.9102" y2="497.9102"/><text fill="#000000" font-family="'sans-serif'" font-size="14" lengthAdjust="spacing" textLength="226.3037" x="21" y="515.4453">+load(resources): SkillLoadResult</text></g><!--class SkillCommandExpander--><g class="entity" data-qualified-name="SkillCommandExpander" data-source-line="346" id="ent0004"><rect fill="#FFFFFF" height="60.4883" rx="2.5" ry="2.5" style="stroke:#000000;stroke-width:1;" width="201.8066" x="263" y="261.4102"/><ellipse cx="281.643" cy="275.4102" fill="#FFFFFF" rx="9" ry="9" style="stroke:#000000;stroke-width:1;"/><path d="M284.1162,281.5532 Q283.5351,281.8521 282.8959,282.0015 Q282.2568,282.1509 281.5512,282.1509 Q279.0444,282.1509 277.7246,280.499 Q276.4047,278.8472 276.4047,275.7261 Q276.4047,272.5967 277.7246,270.9448 Q279.0444,269.293 281.5512,269.293 Q282.2568,269.293 282.9042,269.4424 Q283.5517,269.5918 284.1162,269.8906 L284.1162,272.6133 Q283.4853,272.0322 282.8918,271.7625 Q282.2983,271.4927 281.6674,271.4927 Q280.3227,271.4927 279.6379,272.5593 Q278.9531,273.626 278.9531,275.7261 Q278.9531,277.8179 279.6379,278.8845 Q280.3227,279.9512 281.6674,279.9512 Q282.2983,279.9512 282.8918,279.6814 Q283.4853,279.4116 284.1162,278.8306 Z " fill="#000000"/><text fill="#000000" font-family="'sans-serif'" font-size="14" lengthAdjust="spacing" textLength="161.2666" x="294.897" y="280.7012">SkillCommandExpander</text><line style="stroke:#000000;stroke-width:1;" x1="264" x2="463.8066" y1="289.4102" y2="289.4102"/><line style="stroke:#000000;stroke-width:1;" x1="264" x2="463.8066" y1="297.4102" y2="297.4102"/><text fill="#000000" font-family="'sans-serif'" font-size="14" lengthAdjust="spacing" textLength="189.8066" x="269" y="314.9453">+expand(text, skills): String</text></g><!--class CommandCompletionService--><g class="entity" data-qualified-name="CommandCompletionService" data-source-line="349" id="ent0005"><rect fill="#FFFFFF" height="60.4883" rx="2.5" ry="2.5" style="stroke:#000000;stroke-width:1;" width="223.5762" x="11" y="156.9102"/><ellipse cx="24" cy="170.9102" fill="#FFFFFF" rx="9" ry="9" style="stroke:#000000;stroke-width:1;"/><path d="M26.4731,177.0532 Q25.8921,177.3521 25.2529,177.5015 Q24.6138,177.6509 23.9082,177.6509 Q21.4014,177.6509 20.0815,175.999 Q18.7617,174.3472 18.7617,171.2261 Q18.7617,168.0967 20.0815,166.4448 Q21.4014,164.793 23.9082,164.793 Q24.6138,164.793 25.2612,164.9424 Q25.9087,165.0918 26.4731,165.3906 L26.4731,168.1133 Q25.8423,167.5322 25.2488,167.2625 Q24.6553,166.9927 24.0244,166.9927 Q22.6797,166.9927 21.9949,168.0593 Q21.3101,169.126 21.3101,171.2261 Q21.3101,173.3179 21.9949,174.3845 Q22.6797,175.4512 24.0244,175.4512 Q24.6553,175.4512 25.2488,175.1814 Q25.8423,174.9116 26.4731,174.3306 Z " fill="#000000"/><text fill="#000000" font-family="'sans-serif'" font-size="14" lengthAdjust="spacing" textLength="195.5762" x="36" y="176.2012">CommandCompletionService</text><line style="stroke:#000000;stroke-width:1;" x1="12" x2="233.5762" y1="184.9102" y2="184.9102"/><line style="stroke:#000000;stroke-width:1;" x1="12" x2="233.5762" y1="192.9102" y2="192.9102"/><text fill="#000000" font-family="'sans-serif'" font-size="14" lengthAdjust="spacing" textLength="197.1963" x="17" y="210.4453">+getSuggestions(prefix): List</text></g><!--class AgentUI--><g class="entity" data-qualified-name="AgentUI" data-source-line="352" id="ent0006"><rect fill="#FFFFFF" height="57.0723" rx="2.5" ry="2.5" style="stroke:#000000;stroke-width:1;" width="161.8887" x="42" y="63.9102"/><ellipse cx="55" cy="84.4463" fill="#FFFFFF" rx="9" ry="9" style="stroke:#000000;stroke-width:1;"/><path d="M57.4731,90.5894 Q56.8921,90.8882 56.2529,91.0376 Q55.6138,91.187 54.9082,91.187 Q52.4014,91.187 51.0815,89.5352 Q49.7617,87.8833 49.7617,84.7622 Q49.7617,81.6328 51.0815,79.981 Q52.4014,78.3291 54.9082,78.3291 Q55.6138,78.3291 56.2612,78.4785 Q56.9087,78.6279 57.4731,78.9268 L57.4731,81.6494 Q56.8423,81.0684 56.2488,80.7986 Q55.6553,80.5288 55.0244,80.5288 Q53.6797,80.5288 52.9949,81.5955 Q52.3101,82.6621 52.3101,84.7622 Q52.3101,86.854 52.9949,87.9207 Q53.6797,88.9873 55.0244,88.9873 Q55.6553,88.9873 56.2488,88.7175 Q56.8423,88.4478 57.4731,87.8667 Z " fill="#000000"/><text fill="#000000" font-family="Verdana" font-size="12" font-style="italic" lengthAdjust="spacing" textLength="137.8887" x="65" y="80.9746">&#171;frontend component&#187;</text><text fill="#000000" font-family="'sans-serif'" font-size="14" lengthAdjust="spacing" textLength="58.2764" x="104.8062" y="97.0293">Agent UI</text><line style="stroke:#000000;stroke-width:1;" x1="43" x2="202.8887" y1="104.9824" y2="104.9824"/><line style="stroke:#000000;stroke-width:1;" x1="43" x2="202.8887" y1="112.9824" y2="112.9824"/></g><!--class AgentSession--><g class="entity" data-qualified-name="AgentSession" data-source-line="353" id="ent0007"><rect fill="#FFFFFF" height="60.4883" rx="2.5" ry="2.5" style="stroke:#000000;stroke-width:1;" width="221.1455" x="253.5" y="156.9102"/><ellipse cx="314.792" cy="170.9102" fill="#FFFFFF" rx="9" ry="9" style="stroke:#000000;stroke-width:1;"/><path d="M317.2651,177.0532 Q316.6841,177.3521 316.0449,177.5015 Q315.4058,177.6509 314.7002,177.6509 Q312.1934,177.6509 310.8735,175.999 Q309.5537,174.3472 309.5537,171.2261 Q309.5537,168.0967 310.8735,166.4448 Q312.1934,164.793 314.7002,164.793 Q315.4058,164.793 316.0532,164.9424 Q316.7007,165.0918 317.2651,165.3906 L317.2651,168.1133 Q316.6343,167.5322 316.0408,167.2625 Q315.4473,166.9927 314.8164,166.9927 Q313.4717,166.9927 312.7869,168.0593 Q312.1021,169.126 312.1021,171.2261 Q312.1021,173.3179 312.7869,174.3845 Q313.4717,175.4512 314.8164,175.4512 Q315.4473,175.4512 316.0408,175.1814 Q316.6343,174.9116 317.2651,174.3306 Z " fill="#000000"/><text fill="#000000" font-family="'sans-serif'" font-size="14" lengthAdjust="spacing" textLength="91.0615" x="332.292" y="176.2012">AgentSession</text><line style="stroke:#000000;stroke-width:1;" x1="254.5" x2="473.6455" y1="184.9102" y2="184.9102"/><line style="stroke:#000000;stroke-width:1;" x1="254.5" x2="473.6455" y1="192.9102" y2="192.9102"/><text fill="#000000" font-family="'sans-serif'" font-size="14" lengthAdjust="spacing" textLength="209.1455" x="259.5" y="210.4453">-expandUserInput(text): String</text></g><g class="link" data-entity-1="ent0001" data-entity-2="ent0002" data-link-type="extension" id="lnk8"><polygon fill="none" points="134,329.9953,128,347.9953,140,347.9953,134,329.9953" style="stroke:#000000;stroke-width:1;stroke-linejoin:miter;stroke-miterlimit:10;"/><path d="M134,347.9953 C134,359.7653 134,354.5726 134,365.6771" fill="none" style="stroke:#000000;stroke-width:1;stroke-dasharray:7,7;"/></g><g class="link" data-entity-1="ent0002" data-entity-2="ent0003" data-link-type="dependency" id="lnk9"><polygon fill="#000000" points="134,461.7013,138,452.7013,134,456.7013,130,452.7013,134,461.7013" style="stroke:#000000;stroke-width:1;stroke-linejoin:miter;stroke-miterlimit:10;"/><path d="M134,426.1371 C134,437.4549 134,445.3852 134,456.7013" fill="none" style="stroke:#000000;stroke-width:1;"/></g><g class="link" data-entity-1="ent0007" data-entity-2="ent0001" data-link-type="dependency" id="lnk10"><polygon fill="#000000" points="218.3986,252.7977,228.2475,252.7878,222.9656,250.7624,224.991,245.4806,218.3986,252.7977" style="stroke:#000000;stroke-width:1;stroke-linejoin:miter;stroke-miterlimit:10;"/><path d="M298.7064,217.0084 C273.7384,228.1354 249.4665,238.9523 222.9656,250.7624" fill="none" style="stroke:#000000;stroke-width:1;"/></g><g class="link" data-entity-1="ent0007" data-entity-2="ent0004" data-link-type="dependency" id="lnk11"><polygon fill="#000000" points="364,261.2392,368,252.2392,364,256.2392,360,252.2392,364,261.2392" style="stroke:#000000;stroke-width:1;stroke-linejoin:miter;stroke-miterlimit:10;"/><path d="M364,217.0084 C364,230.858 364,242.3802 364,256.2392" fill="none" style="stroke:#000000;stroke-width:1;"/></g><g class="link" data-entity-1="ent0005" data-entity-2="ent0001" data-link-type="dependency" id="lnk12"><polygon fill="#000000" points="129.9635,252.7977,132.9804,243.4223,129.43,247.8263,125.026,244.2759,129.9635,252.7977" style="stroke:#000000;stroke-width:1;stroke-linejoin:miter;stroke-miterlimit:10;"/><path d="M126.1227,217.0084 C127.3169,228.1354 128.1626,236.0161 129.43,247.8263" fill="none" style="stroke:#000000;stroke-width:1;"/></g><g class="link" data-entity-1="ent0006" data-entity-2="ent0005" data-link-type="dependency" id="lnk13"><polygon fill="#000000" points="123,156.7438,127,147.7438,123,151.7438,119,147.7438,123,156.7438" style="stroke:#000000;stroke-width:1;stroke-linejoin:miter;stroke-miterlimit:10;"/><path d="M123,120.9128 C123,132.2028 123,140.2869 123,151.7438" fill="none" style="stroke:#000000;stroke-width:1;"/></g><?plantuml-src bLFRRXen47ttLqnu2L6x44AKI0WX8NeHLPI7e7p0P7TOBBpsokDDI2__th5tGsb2LFK5iC-SupDdXbEeDR1hV4uJg37VOaayp5sXRPd9Rnk6x7Evy3Jqr1Pcnc51VX1uSdK-pgukBjNfVyYaOyR4h9sD8gFHzJWRNOolHUORFk9UQEsT3MIBn9tNzU2n8Qc-o4QNvrBxYLYN5ZmXEpi1sjNYa25ig9NvUhy4NTM6AdaGWxm63wwn1VfdUD9Xuve0sd90OyGchBRQ6DYWBGnv5YGfSMJci71L9SWTbPg3Vnwe4m4hWjgWjkgazbXM20QVeoXN5D2YugssDNgieA0rDYPyaNvkKMYz5LfUaTVhta4LRx1mJz7B6WtJ0V8WaPO-cbyuupm4Bto1fB63gjmWypm4hn-QGClSsPN-Jd2kWWwc2wNjici75f41TsHIFBpHDIkb9NI_nfm4Q4TnamOEFnJ01oWf917kdqrQkGXBgJIO2Zp51UcVgLygEP91fUwFg6N0IUgjq0jtVxz_Fuc_x2AV_OFQTVfvLyldNeFIiHze5pvs5gAG96VBFR-ZofViKCn71lQe9PO_EJIbx7cAhY_BjzOxKRcH3TbhzEPns-5-sGDaI0VPokdqPRKX5tLdvNeswoYfQDN-FRgGMhltJ7vfwoOatuT-rQjefpy7W-Efg-EpoBBPOTBgBmyHVANo1Z-MjNetmFSK9Pe8lSVx3G00?></g></svg>