<svg xmlns="http://www.w3.org/2000/svg" xmlns:xlink="http://www.w3.org/1999/xlink" contentStyleType="text/css" data-diagram-type="SEQUENCE" height="870px" preserveAspectRatio="none" style="width:1782px;height:870px;background:#FFFFFF;" version="1.1" viewBox="0 0 1782 870" width="1782px" zoomAndPan="magnify"><?plantuml 1.2026.6?><defs/><g><rect fill="#FFFFFF" height="312" style="stroke:#000000;stroke-width:1;" width="1135.3228" x="490.9014" y="271"/><rect fill="#FFFFFF" height="190" style="stroke:#000000;stroke-width:1;" width="1751.6167" x="15" y="597"/><rect fill="#FFFFFF" height="94" style="stroke:none;stroke-width:1;" width="1751.6167" x="15" y="693"/><g class="participant-lifeline" data-entity-uid="part1" data-qualified-name="Container" data-source-line="185" id="part1-lifeline"><g><title>Spring Container</title><rect fill="#000000" fill-opacity="0.00000" height="739" width="8" x="88.5308" y="65"/><line style="stroke:#B8BCC4;stroke-width:1;stroke-dasharray:5,5;" x1="92" x2="92" y1="65" y2="804"/></g></g><g class="participant-lifeline" data-entity-uid="part2" data-qualified-name="Plan" data-source-line="186" id="part2-lifeline"><g><title>Agent Deployment Plan</title><rect fill="#000000" fill-opacity="0.00000" height="739" width="8" x="242.606" y="65"/><line style="stroke:#B8BCC4;stroke-width:1;stroke-dasharray:5,5;" x1="246.0615" x2="246.0615" y1="65" y2="804"/></g></g><g class="participant-lifeline" data-entity-uid="part3" data-qualified-name="ConfigRepo" data-source-line="187" id="part3-lifeline"><g><title>Agent Config Repository</title><rect fill="#000000" fill-opacity="0.00000" height="739" width="8" x="408.0259" y="65"/><line style="stroke:#B8BCC4;stroke-width:1;stroke-dasharray:5,5;" x1="411.1504" x2="411.1504" y1="65" y2="804"/></g></g><g class="participant-lifeline" data-entity-uid="part4" data-qualified-name="Bootstrap" data-source-line="188" id="part4-lifeline"><g><title>Agent Runtime Bootstrap</title><rect fill="#000000" fill-opacity="0.00000" height="739" width="8" x="590.1113" y="65"/><line style="stroke:#B8BCC4;stroke-width:1;stroke-dasharray:5,5;" x1="593.9014" x2="593.9014" y1="65" y2="804"/></g></g><g class="participant-lifeline" data-entity-uid="part5" data-qualified-name="Assembler" data-source-line="189" id="part5-lifeline"><g><title>Runtime Assembler</title><rect fill="#000000" fill-opacity="0.00000" height="739" width="8" x="769.4448" y="65"/><line style="stroke:#B8BCC4;stroke-width:1;stroke-dasharray:5,5;" x1="773.3691" x2="773.3691" y1="65" y2="804"/></g></g><g class="participant-lifeline" data-entity-uid="part6" data-qualified-name="ModelManager" data-source-line="190" id="part6-lifeline"><g><title>Model Manager</title><rect fill="#000000" fill-opacity="0.00000" height="739" width="8" x="938.6919" y="65"/><line style="stroke:#B8BCC4;stroke-width:1;stroke-dasharray:5,5;" x1="942.0542" x2="942.0542" y1="65" y2="804"/></g></g><g class="participant-lifeline" data-entity-uid="part7" data-qualified-name="ToolManager" data-source-line="191" id="part7-lifeline"><g><title>Tool Manager</title><rect fill="#000000" fill-opacity="0.00000" height="739" width="8" x="1070.519" y="65"/><line style="stroke:#B8BCC4;stroke-width:1;stroke-dasharray:5,5;" x1="1074.3296" x2="1074.3296" y1="65" y2="804"/></g></g><g class="participant-lifeline" data-entity-uid="part8" data-qualified-name="SkillManager" data-source-line="192" id="part8-lifeline"><g><title>Skill Manager</title><rect fill="#000000" fill-opacity="0.00000" height="739" width="8" x="1196.1152" y="65"/><line style="stroke:#B8BCC4;stroke-width:1;stroke-dasharray:5,5;" x1="1199.7085" x2="1199.7085" y1="65" y2="804"/></g></g><g class="participant-lifeline" data-entity-uid="part9" data-qualified-name="Prompt" data-source-line="193" id="part9-lifeline"><g><title>Managed Prompt Builder</title><rect fill="#000000" fill-opacity="0.00000" height="739" width="8" x="1355.9526" y="65"/><line style="stroke:#B8BCC4;stroke-width:1;stroke-dasharray:5,5;" x1="1359.522" x2="1359.522" y1="65" y2="804"/></g></g><g class="participant-lifeline" data-entity-uid="part10" data-qualified-name="Registry" data-source-line="194" id="part10-lifeline"><g><title>Agent Runtime Registry</title><rect fill="#000000" fill-opacity="0.00000" height="739" width="8" x="1535.3037" y="65"/><line style="stroke:#B8BCC4;stroke-width:1;stroke-dasharray:5,5;" x1="1538.3833" x2="1538.3833" y1="65" y2="804"/></g></g><g class="participant-lifeline" data-entity-uid="part11" data-qualified-name="Readiness" data-source-line="195" id="part11-lifeline"><g><title>Readiness Gate</title><rect fill="#000000" fill-opacity="0.00000" height="739" width="8" x="1687.4204" y="65"/><line style="stroke:#B8BCC4;stroke-width:1;stroke-dasharray:5,5;" x1="1691.2241" x2="1691.2241" y1="65" y2="804"/></g></g><g class="participant participant-head" data-entity-uid="part1" data-qualified-name="Container" data-source-line="185" id="part1-head"><rect fill="#EAF5FB" height="24" rx="2.5" ry="2.5" style="stroke:#B8BCC4;stroke-width:1;" width="115.0615" x="35" y="35"/><text fill="#000000" font-family="Helvetica" font-size="14" lengthAdjust="spacing" textLength="105.0615" x="40" y="50.7803">Spring Container</text></g><g class="participant participant-tail" data-entity-uid="part1" data-qualified-name="Container" data-source-line="185" id="part1-tail"><rect fill="#EAF5FB" height="24" rx="2.5" ry="2.5" style="stroke:#B8BCC4;stroke-width:1;" width="115.0615" x="35" y="808"/><text fill="#000000" font-family="Helvetica" font-size="14" lengthAdjust="spacing" textLength="105.0615" x="40" y="823.7803">Spring Container</text></g><g class="participant participant-head" data-entity-uid="part2" data-qualified-name="Plan" data-source-line="186" id="part2-head"><text fill="#000000" font-family="Helvetica" font-size="14" lengthAdjust="spacing" textLength="147.0889" x="170.0615" y="61.7803">Agent Deployment Plan</text><path d="M228.606,15 C228.606,5 246.606,5 246.606,5 C246.606,5 264.606,5 264.606,15 L264.606,41 C264.606,51 246.606,51 246.606,51 C246.606,51 228.606,51 228.606,41 L228.606,15" fill="#FFFFFF" style="stroke:#000000;stroke-width:1;"/><path d="M228.606,15 C228.606,25 246.606,25 246.606,25 C246.606,25 264.606,25 264.606,15" fill="none" style="stroke:#000000;stroke-width:1;"/></g><g class="participant participant-tail" data-entity-uid="part2" data-qualified-name="Plan" data-source-line="186" id="part2-tail"><text fill="#000000" font-family="Helvetica" font-size="14" lengthAdjust="spacing" textLength="147.0889" x="170.0615" y="813.7803">Agent Deployment Plan</text><path d="M228.606,827 C228.606,817 246.606,817 246.606,817 C246.606,817 264.606,817 264.606,827 L264.606,853 C264.606,863 246.606,863 246.606,863 C246.606,863 228.606,863 228.606,853 L228.606,827" fill="#FFFFFF" style="stroke:#000000;stroke-width:1;"/><path d="M228.606,827 C228.606,837 246.606,837 246.606,837 C246.606,837 264.606,837 264.606,827" fill="none" style="stroke:#000000;stroke-width:1;"/></g><g class="participant participant-head" data-entity-uid="part3" data-qualified-name="ConfigRepo" data-source-line="187" id="part3-head"><text fill="#000000" font-family="Helvetica" font-size="14" lengthAdjust="spacing" textLength="151.751" x="333.1504" y="61.7803">Agent Config Repository</text><path d="M394.0259,15 C394.0259,5 412.0259,5 412.0259,5 C412.0259,5 430.0259,5 430.0259,15 L430.0259,41 C430.0259,51 412.0259,51 412.0259,51 C412.0259,51 394.0259,51 394.0259,41 L394.0259,15" fill="#FFFFFF" style="stroke:#000000;stroke-width:1;"/><path d="M394.0259,15 C394.0259,25 412.0259,25 412.0259,25 C412.0259,25 430.0259,25 430.0259,15" fill="none" style="stroke:#000000;stroke-width:1;"/></g><g class="participant participant-tail" data-entity-uid="part3" data-qualified-name="ConfigRepo" data-source-line="187" id="part3-tail"><text fill="#000000" font-family="Helvetica" font-size="14" lengthAdjust="spacing" textLength="151.751" x="333.1504" y="813.7803">Agent Config Repository</text><path d="M394.0259,827 C394.0259,817 412.0259,817 412.0259,817 C412.0259,817 430.0259,817 430.0259,827 L430.0259,853 C430.0259,863 412.0259,863 412.0259,863 C412.0259,863 394.0259,863 394.0259,853 L394.0259,827" fill="#FFFFFF" style="stroke:#000000;stroke-width:1;"/><path d="M394.0259,827 C394.0259,837 412.0259,837 412.0259,837 C412.0259,837 430.0259,837 430.0259,827" fill="none" style="stroke:#000000;stroke-width:1;"/></g><g class="participant participant-head" data-entity-uid="part4" data-qualified-name="Bootstrap" data-source-line="188" id="part4-head"><rect fill="#EAF5FB" height="24" rx="2.5" ry="2.5" style="stroke:#B8BCC4;stroke-width:1;" width="166.4199" x="510.9014" y="35"/><text fill="#000000" font-family="Helvetica" font-size="14" lengthAdjust="spacing" textLength="156.4199" x="515.9014" y="50.7803">Agent Runtime Bootstrap</text></g><g class="participant participant-tail" data-entity-uid="part4" data-qualified-name="Bootstrap" data-source-line="188" id="part4-tail"><rect fill="#EAF5FB" height="24" rx="2.5" ry="2.5" style="stroke:#B8BCC4;stroke-width:1;" width="166.4199" x="510.9014" y="808"/><text fill="#000000" font-family="Helvetica" font-size="14" lengthAdjust="spacing" textLength="156.4199" x="515.9014" y="823.7803">Agent Runtime Bootstrap</text></g><g class="participant participant-head" data-entity-uid="part5" data-qualified-name="Assembler" data-source-line="189" id="part5-head"><rect fill="#EAF5FB" height="24" rx="2.5" ry="2.5" style="stroke:#B8BCC4;stroke-width:1;" width="132.1514" x="707.3691" y="35"/><text fill="#000000" font-family="Helvetica" font-size="14" lengthAdjust="spacing" textLength="122.1514" x="712.3691" y="50.7803">Runtime Assembler</text></g><g class="participant participant-tail" data-entity-uid="part5" data-qualified-name="Assembler" data-source-line="189" id="part5-tail"><rect fill="#EAF5FB" height="24" rx="2.5" ry="2.5" style="stroke:#B8BCC4;stroke-width:1;" width="132.1514" x="707.3691" y="808"/><text fill="#000000" font-family="Helvetica" font-size="14" lengthAdjust="spacing" textLength="122.1514" x="712.3691" y="823.7803">Runtime Assembler</text></g><g class="participant participant-head" data-entity-uid="part6" data-qualified-name="ModelManager" data-source-line="190" id="part6-head"><rect fill="#EAF5FB" height="24" rx="2.5" ry="2.5" style="stroke:#B8BCC4;stroke-width:1;" width="107.2754" x="889.0542" y="35"/><text fill="#000000" font-family="Helvetica" font-size="14" lengthAdjust="spacing" textLength="97.2754" x="894.0542" y="50.7803">Model Manager</text></g><g class="participant participant-tail" data-entity-uid="part6" data-qualified-name="ModelManager" data-source-line="190" id="part6-tail"><rect fill="#EAF5FB" height="24" rx="2.5" ry="2.5" style="stroke:#B8BCC4;stroke-width:1;" width="107.2754" x="889.0542" y="808"/><text fill="#000000" font-family="Helvetica" font-size="14" lengthAdjust="spacing" textLength="97.2754" x="894.0542" y="823.7803">Model Manager</text></g><g class="participant participant-head" data-entity-uid="part7" data-qualified-name="ToolManager" data-source-line="191" id="part7-head"><rect fill="#EAF5FB" height="24" rx="2.5" ry="2.5" style="stroke:#B8BCC4;stroke-width:1;" width="96.3789" x="1026.3296" y="35"/><text fill="#000000" font-family="Helvetica" font-size="14" lengthAdjust="spacing" textLength="86.3789" x="1031.3296" y="50.7803">Tool Manager</text></g><g class="participant participant-tail" data-entity-uid="part7" data-qualified-name="ToolManager" data-source-line="191" id="part7-tail"><rect fill="#EAF5FB" height="24" rx="2.5" ry="2.5" style="stroke:#B8BCC4;stroke-width:1;" width="96.3789" x="1026.3296" y="808"/><text fill="#000000" font-family="Helvetica" font-size="14" lengthAdjust="spacing" textLength="86.3789" x="1031.3296" y="823.7803">Tool Manager</text></g><g class="participant participant-head" data-entity-uid="part8" data-qualified-name="SkillManager" data-source-line="192" id="part8-head"><rect fill="#EAF5FB" height="24" rx="2.5" ry="2.5" style="stroke:#B8BCC4;stroke-width:1;" width="94.8135" x="1152.7085" y="35"/><text fill="#000000" font-family="Helvetica" font-size="14" lengthAdjust="spacing" textLength="84.8135" x="1157.7085" y="50.7803">Skill Manager</text></g><g class="participant participant-tail" data-entity-uid="part8" data-qualified-name="SkillManager" data-source-line="192" id="part8-tail"><rect fill="#EAF5FB" height="24" rx="2.5" ry="2.5" style="stroke:#B8BCC4;stroke-width:1;" width="94.8135" x="1152.7085" y="808"/><text fill="#000000" font-family="Helvetica" font-size="14" lengthAdjust="spacing" textLength="84.8135" x="1157.7085" y="823.7803">Skill Manager</text></g><g class="participant participant-head" data-entity-uid="part9" data-qualified-name="Prompt" data-source-line="193" id="part9-head"><rect fill="#EAF5FB" height="24" rx="2.5" ry="2.5" style="stroke:#B8BCC4;stroke-width:1;" width="164.8613" x="1277.522" y="35"/><text fill="#000000" font-family="Helvetica" font-size="14" lengthAdjust="spacing" textLength="154.8613" x="1282.522" y="50.7803">Managed Prompt Builder</text></g><g class="participant participant-tail" data-entity-uid="part9" data-qualified-name="Prompt" data-source-line="193" id="part9-tail"><rect fill="#EAF5FB" height="24" rx="2.5" ry="2.5" style="stroke:#B8BCC4;stroke-width:1;" width="164.8613" x="1277.522" y="808"/><text fill="#000000" font-family="Helvetica" font-size="14" lengthAdjust="spacing" textLength="154.8613" x="1282.522" y="823.7803">Managed Prompt Builder</text></g><g class="participant participant-head" data-entity-uid="part10" data-qualified-name="Registry" data-source-line="194" id="part10-head"><text fill="#000000" font-family="Helvetica" font-size="14" lengthAdjust="spacing" textLength="147.8408" x="1462.3833" y="61.7803">Agent Runtime Registry</text><path d="M1521.3037,15 C1521.3037,5 1539.3037,5 1539.3037,5 C1539.3037,5 1557.3037,5 1557.3037,15 L1557.3037,41 C1557.3037,51 1539.3037,51 1539.3037,51 C1539.3037,51 1521.3037,51 1521.3037,41 L1521.3037,15" fill="#FFFFFF" style="stroke:#000000;stroke-width:1;"/><path d="M1521.3037,15 C1521.3037,25 1539.3037,25 1539.3037,25 C1539.3037,25 1557.3037,25 1557.3037,15" fill="none" style="stroke:#000000;stroke-width:1;"/></g><g class="participant participant-tail" data-entity-uid="part10" data-qualified-name="Registry" data-source-line="194" id="part10-tail"><text fill="#000000" font-family="Helvetica" font-size="14" lengthAdjust="spacing" textLength="147.8408" x="1462.3833" y="813.7803">Agent Runtime Registry</text><path d="M1521.3037,827 C1521.3037,817 1539.3037,817 1539.3037,817 C1539.3037,817 1557.3037,817 1557.3037,827 L1557.3037,853 C1557.3037,863 1539.3037,863 1539.3037,863 C1539.3037,863 1521.3037,863 1521.3037,853 L1521.3037,827" fill="#FFFFFF" style="stroke:#000000;stroke-width:1;"/><path d="M1521.3037,827 C1521.3037,837 1539.3037,837 1539.3037,837 C1539.3037,837 1557.3037,837 1557.3037,827" fill="none" style="stroke:#000000;stroke-width:1;"/></g><g class="participant participant-head" data-entity-uid="part11" data-qualified-name="Readiness" data-source-line="195" id="part11-head"><rect fill="#EAF5FB" height="24" rx="2.5" ry="2.5" style="stroke:#B8BCC4;stroke-width:1;" width="110.3926" x="1636.2241" y="35"/><text fill="#000000" font-family="Helvetica" font-size="14" lengthAdjust="spacing" textLength="100.3926" x="1641.2241" y="50.7803">Readiness Gate</text></g><g class="participant participant-tail" data-entity-uid="part11" data-qualified-name="Readiness" data-source-line="195" id="part11-tail"><rect fill="#EAF5FB" height="24" rx="2.5" ry="2.5" style="stroke:#B8BCC4;stroke-width:1;" width="110.3926" x="1636.2241" y="808"/><text fill="#000000" font-family="Helvetica" font-size="14" lengthAdjust="spacing" textLength="100.3926" x="1641.2241" y="823.7803">Readiness Gate</text></g><g class="message" data-entity-1="part1" data-entity-2="part4" data-source-line="197" id="msg1"><polygon fill="#3D8DFF" points="582.1113,90,592.1113,94,582.1113,98,586.1113,94" style="stroke:#3D8DFF;stroke-width:1;stroke-linejoin:miter;stroke-miterlimit:10;"/><line style="stroke:#3D8DFF;stroke-width:1;" x1="92.5308" x2="588.1113" y1="94" y2="94"/><text fill="#000000" font-family="Helvetica" font-size="13" lengthAdjust="spacing" textLength="25.2827" x="99.5308" y="89.0103">start</text></g><g class="message" data-entity-1="part4" data-entity-2="part11" data-source-line="198" id="msg2"><polygon fill="#3D8DFF" points="1679.4204,117,1689.4204,121,1679.4204,125,1683.4204,121" style="stroke:#3D8DFF;stroke-width:1;stroke-linejoin:miter;stroke-miterlimit:10;"/><line style="stroke:#3D8DFF;stroke-width:1;" x1="594.1113" x2="1685.4204" y1="121" y2="121"/><text fill="#000000" font-family="Helvetica" font-size="13" lengthAdjust="spacing" textLength="129.2827" x="601.1113" y="116.0103">REFUSING_TRAFFIC</text></g><g class="message" data-entity-1="part4" data-entity-2="part10" data-source-line="199" id="msg3"><polygon fill="#3D8DFF" points="1527.3037,144,1537.3037,148,1527.3037,152,1531.3037,148" style="stroke:#3D8DFF;stroke-width:1;stroke-linejoin:miter;stroke-miterlimit:10;"/><line style="stroke:#3D8DFF;stroke-width:1;" x1="594.1113" x2="1533.3037" y1="148" y2="148"/><text fill="#000000" font-family="Helvetica" font-size="13" lengthAdjust="spacing" textLength="147.3799" x="601.1113" y="143.0103">begin BOOTSTRAPPING</text></g><g class="message" data-entity-1="part4" data-entity-2="part2" data-source-line="200" id="msg4"><polygon fill="#3D8DFF" points="257.606,171,247.606,175,257.606,179,253.606,175" style="stroke:#3D8DFF;stroke-width:1;stroke-linejoin:miter;stroke-miterlimit:10;"/><line style="stroke:#3D8DFF;stroke-width:1;" x1="251.606" x2="593.1113" y1="175" y2="175"/><text fill="#000000" font-family="Helvetica" font-size="13" lengthAdjust="spacing" textLength="173.7925" x="263.606" y="170.0103">list required agent id + version</text></g><g class="message" data-entity-1="part2" data-entity-2="part4" data-source-line="201" id="msg5"><polygon fill="#3D8DFF" points="582.1113,198,592.1113,202,582.1113,206,586.1113,202" style="stroke:#3D8DFF;stroke-width:1;stroke-linejoin:miter;stroke-miterlimit:10;"/><line style="stroke:#3D8DFF;stroke-width:1;stroke-dasharray:2,2;" x1="246.606" x2="588.1113" y1="202" y2="202"/><text fill="#000000" font-family="Helvetica" font-size="13" lengthAdjust="spacing" textLength="140.2134" x="253.606" y="197.0103">pinned agent references</text></g><g class="message" data-entity-1="part4" data-entity-2="part3" data-source-line="202" id="msg6"><polygon fill="#3D8DFF" points="423.0259,225,413.0259,229,423.0259,233,419.0259,229" style="stroke:#3D8DFF;stroke-width:1;stroke-linejoin:miter;stroke-miterlimit:10;"/><line style="stroke:#3D8DFF;stroke-width:1;" x1="417.0259" x2="593.1113" y1="229" y2="229"/><text fill="#000000" font-family="Helvetica" font-size="13" lengthAdjust="spacing" textLength="137.3062" x="429.0259" y="224.0103">get exact configurations</text></g><g class="message" data-entity-1="part3" data-entity-2="part4" data-source-line="203" id="msg7"><polygon fill="#3D8DFF" points="582.1113,252,592.1113,256,582.1113,260,586.1113,256" style="stroke:#3D8DFF;stroke-width:1;stroke-linejoin:miter;stroke-miterlimit:10;"/><line style="stroke:#3D8DFF;stroke-width:1;stroke-dasharray:2,2;" x1="412.0259" x2="588.1113" y1="256" y2="256"/><text fill="#000000" font-family="Helvetica" font-size="13" lengthAdjust="spacing" textLength="152.4834" x="419.0259" y="251.0103">versioned AgentConfig set</text></g><path d="M490.9014,271 L563.3359,271 L563.3359,276 L553.3359,286 L490.9014,286 L490.9014,271" fill="#FFFFFF" style="stroke:#000000;stroke-width:1;"/><rect fill="none" height="312" style="stroke:#000000;stroke-width:1;" width="1135.3228" x="490.9014" y="271"/><text fill="#000000" font-family="Helvetica" font-size="13" font-weight="700" lengthAdjust="spacing" textLength="27.4346" x="505.9014" y="282.0103">loop</text><text fill="#000000" font-family="Helvetica" font-size="11" font-weight="700" lengthAdjust="spacing" textLength="148.5054" x="578.3359" y="281.4702">[each required AgentConfig]</text><g class="message" data-entity-1="part4" data-entity-2="part5" data-source-line="206" id="msg8"><polygon fill="#3D8DFF" points="761.4448,301,771.4448,305,761.4448,309,765.4448,305" style="stroke:#3D8DFF;stroke-width:1;stroke-linejoin:miter;stroke-miterlimit:10;"/><line style="stroke:#3D8DFF;stroke-width:1;" x1="594.1113" x2="767.4448" y1="305" y2="305"/><text fill="#000000" font-family="Helvetica" font-size="13" lengthAdjust="spacing" textLength="98.9854" x="601.1113" y="300.0103">assemble(config)</text></g><g class="message" data-entity-1="part5" data-entity-2="part6" data-source-line="207" id="msg9"><polygon fill="#3D8DFF" points="930.6919,328,940.6919,332,930.6919,336,934.6919,332" style="stroke:#3D8DFF;stroke-width:1;stroke-linejoin:miter;stroke-miterlimit:10;"/><line style="stroke:#3D8DFF;stroke-width:1;" x1="773.4448" x2="936.6919" y1="332" y2="332"/><text fill="#000000" font-family="Helvetica" font-size="13" lengthAdjust="spacing" textLength="133.6689" x="780.4448" y="327.0103">resolve model manifest</text></g><g class="message" data-entity-1="part6" data-entity-2="part5" data-source-line="208" id="msg10"><polygon fill="#3D8DFF" points="784.4448,355,774.4448,359,784.4448,363,780.4448,359" style="stroke:#3D8DFF;stroke-width:1;stroke-linejoin:miter;stroke-miterlimit:10;"/><line style="stroke:#3D8DFF;stroke-width:1;stroke-dasharray:2,2;" x1="778.4448" x2="941.6919" y1="359" y2="359"/><text fill="#000000" font-family="Helvetica" font-size="13" lengthAdjust="spacing" textLength="145.2471" x="790.4448" y="354.0103">pinned model descriptors</text></g><g class="message" data-entity-1="part5" data-entity-2="part7" data-source-line="209" id="msg11"><polygon fill="#3D8DFF" points="1062.519,382,1072.519,386,1062.519,390,1066.519,386" style="stroke:#3D8DFF;stroke-width:1;stroke-linejoin:miter;stroke-miterlimit:10;"/><line style="stroke:#3D8DFF;stroke-width:1;" x1="773.4448" x2="1068.519" y1="386" y2="386"/><text fill="#000000" font-family="Helvetica" font-size="13" lengthAdjust="spacing" textLength="97.5508" x="780.4448" y="381.0103">bind raw toolsets</text></g><g class="message" data-entity-1="part7" data-entity-2="part5" data-source-line="210" id="msg12"><polygon fill="#3D8DFF" points="784.4448,409,774.4448,413,784.4448,417,780.4448,413" style="stroke:#3D8DFF;stroke-width:1;stroke-linejoin:miter;stroke-miterlimit:10;"/><line style="stroke:#3D8DFF;stroke-width:1;stroke-dasharray:2,2;" x1="778.4448" x2="1073.519" y1="413" y2="413"/><text fill="#000000" font-family="Helvetica" font-size="13" lengthAdjust="spacing" textLength="116.3525" x="790.4448" y="408.0103">pinned tool manifest</text></g><g class="message" data-entity-1="part5" data-entity-2="part8" data-source-line="211" id="msg13"><polygon fill="#3D8DFF" points="1188.1152,436,1198.1152,440,1188.1152,444,1192.1152,440" style="stroke:#3D8DFF;stroke-width:1;stroke-linejoin:miter;stroke-miterlimit:10;"/><line style="stroke:#3D8DFF;stroke-width:1;" x1="773.4448" x2="1194.1152" y1="440" y2="440"/><text fill="#000000" font-family="Helvetica" font-size="13" lengthAdjust="spacing" textLength="99.6963" x="780.4448" y="435.0103">bind raw skill refs</text></g><g class="message" data-entity-1="part8" data-entity-2="part5" data-source-line="212" id="msg14"><polygon fill="#3D8DFF" points="784.4448,463,774.4448,467,784.4448,471,780.4448,467" style="stroke:#3D8DFF;stroke-width:1;stroke-linejoin:miter;stroke-miterlimit:10;"/><line style="stroke:#3D8DFF;stroke-width:1;stroke-dasharray:2,2;" x1="778.4448" x2="1199.1152" y1="467" y2="467"/><text fill="#000000" font-family="Helvetica" font-size="13" lengthAdjust="spacing" textLength="117.0571" x="790.4448" y="462.0103">pinned skill manifest</text></g><g class="message" data-entity-1="part5" data-entity-2="part9" data-source-line="213" id="msg15"><polygon fill="#3D8DFF" points="1347.9526,490,1357.9526,494,1347.9526,498,1351.9526,494" style="stroke:#3D8DFF;stroke-width:1;stroke-linejoin:miter;stroke-miterlimit:10;"/><line style="stroke:#3D8DFF;stroke-width:1;" x1="773.4448" x2="1353.9526" y1="494" y2="494"/><text fill="#000000" font-family="Helvetica" font-size="13" lengthAdjust="spacing" textLength="160.7354" x="780.4448" y="489.0103">compile static system + lists</text></g><g class="message" data-entity-1="part9" data-entity-2="part5" data-source-line="214" id="msg16"><polygon fill="#3D8DFF" points="784.4448,517,774.4448,521,784.4448,525,780.4448,521" style="stroke:#3D8DFF;stroke-width:1;stroke-linejoin:miter;stroke-miterlimit:10;"/><line style="stroke:#3D8DFF;stroke-width:1;stroke-dasharray:2,2;" x1="778.4448" x2="1358.9526" y1="521" y2="521"/><text fill="#000000" font-family="Helvetica" font-size="13" lengthAdjust="spacing" textLength="119.1963" x="790.4448" y="516.0103">static system prompt</text></g><g class="message" data-entity-1="part5" data-entity-2="part4" data-source-line="215" id="msg17"><polygon fill="#3D8DFF" points="605.1113,544,595.1113,548,605.1113,552,601.1113,548" style="stroke:#3D8DFF;stroke-width:1;stroke-linejoin:miter;stroke-miterlimit:10;"/><line style="stroke:#3D8DFF;stroke-width:1;stroke-dasharray:2,2;" x1="599.1113" x2="772.4448" y1="548" y2="548"/><text fill="#000000" font-family="Helvetica" font-size="13" lengthAdjust="spacing" textLength="155.3335" x="611.1113" y="543.0103">immutable runtime revision</text></g><g class="message" data-entity-1="part4" data-entity-2="part10" data-source-line="216" id="msg18"><polygon fill="#3D8DFF" points="1527.3037,571,1537.3037,575,1527.3037,579,1531.3037,575" style="stroke:#3D8DFF;stroke-width:1;stroke-linejoin:miter;stroke-miterlimit:10;"/><line style="stroke:#3D8DFF;stroke-width:1;" x1="594.1113" x2="1533.3037" y1="575" y2="575"/><text fill="#000000" font-family="Helvetica" font-size="13" lengthAdjust="spacing" textLength="208.0889" x="601.1113" y="570.0103">register instance with active revision</text></g><path d="M15,597 L75.1709,597 L75.1709,602 L65.1709,612 L15,612 L15,597" fill="#FFFFFF" style="stroke:#000000;stroke-width:1;"/><rect fill="none" height="190" style="stroke:#000000;stroke-width:1;" width="1751.6167" x="15" y="597"/><text fill="#000000" font-family="Helvetica" font-size="13" font-weight="700" lengthAdjust="spacing" textLength="15.1709" x="30" y="608.0103">alt</text><text fill="#000000" font-family="Helvetica" font-size="11" font-weight="700" lengthAdjust="spacing" textLength="172.3799" x="90.1709" y="607.4702">[all required runtimes registered]</text><g class="message" data-entity-1="part4" data-entity-2="part10" data-source-line="220" id="msg19"><polygon fill="#3D8DFF" points="1527.3037,627,1537.3037,631,1527.3037,635,1531.3037,631" style="stroke:#3D8DFF;stroke-width:1;stroke-linejoin:miter;stroke-miterlimit:10;"/><line style="stroke:#3D8DFF;stroke-width:1;" x1="594.1113" x2="1533.3037" y1="631" y2="631"/><text fill="#000000" font-family="Helvetica" font-size="13" lengthAdjust="spacing" textLength="205.2197" x="601.1113" y="626.0103">complete bootstrap and set READY</text></g><g class="message" data-entity-1="part4" data-entity-2="part11" data-source-line="221" id="msg20"><polygon fill="#3D8DFF" points="1679.4204,654,1689.4204,658,1679.4204,662,1683.4204,658" style="stroke:#3D8DFF;stroke-width:1;stroke-linejoin:miter;stroke-miterlimit:10;"/><line style="stroke:#3D8DFF;stroke-width:1;" x1="594.1113" x2="1685.4204" y1="658" y2="658"/><text fill="#000000" font-family="Helvetica" font-size="13" lengthAdjust="spacing" textLength="137.9536" x="601.1113" y="653.0103">ACCEPTING_TRAFFIC</text></g><g class="message" data-entity-1="part4" data-entity-2="part1" data-source-line="222" id="msg21"><polygon fill="#3D8DFF" points="103.5308,681,93.5308,685,103.5308,689,99.5308,685" style="stroke:#3D8DFF;stroke-width:1;stroke-linejoin:miter;stroke-miterlimit:10;"/><line style="stroke:#3D8DFF;stroke-width:1;stroke-dasharray:2,2;" x1="97.5308" x2="593.1113" y1="685" y2="685"/><text fill="#000000" font-family="Helvetica" font-size="13" lengthAdjust="spacing" textLength="96.1035" x="109.5308" y="680.0103">startup complete</text></g><line style="stroke:#000000;stroke-width:1;stroke-dasharray:2,2;" x1="15" x2="1766.6167" y1="694" y2="694"/><text fill="#000000" font-family="Helvetica" font-size="11" font-weight="700" lengthAdjust="spacing" textLength="141.8076" x="20" y="702.4702">[any required runtime fails]</text><g class="message" data-entity-1="part4" data-entity-2="part10" data-source-line="224" id="msg22"><polygon fill="#3D8DFF" points="1527.3037,721,1537.3037,725,1527.3037,729,1531.3037,725" style="stroke:#3D8DFF;stroke-width:1;stroke-linejoin:miter;stroke-miterlimit:10;"/><line style="stroke:#3D8DFF;stroke-width:1;" x1="594.1113" x2="1533.3037" y1="725" y2="725"/><text fill="#000000" font-family="Helvetica" font-size="13" lengthAdjust="spacing" textLength="66.4663" x="601.1113" y="720.0103">set FAILED</text></g><g class="message" data-entity-1="part4" data-entity-2="part11" data-source-line="225" id="msg23"><polygon fill="#3D8DFF" points="1679.4204,748,1689.4204,752,1679.4204,756,1683.4204,752" style="stroke:#3D8DFF;stroke-width:1;stroke-linejoin:miter;stroke-miterlimit:10;"/><line style="stroke:#3D8DFF;stroke-width:1;" x1="594.1113" x2="1685.4204" y1="752" y2="752"/><text fill="#000000" font-family="Helvetica" font-size="13" lengthAdjust="spacing" textLength="172.6309" x="601.1113" y="747.0103">remain REFUSING_TRAFFIC</text></g><g class="message" data-entity-1="part4" data-entity-2="part1" data-source-line="226" id="msg24"><polygon fill="#3D8DFF" points="103.5308,775,93.5308,779,103.5308,783,99.5308,779" style="stroke:#3D8DFF;stroke-width:1;stroke-linejoin:miter;stroke-miterlimit:10;"/><line style="stroke:#3D8DFF;stroke-width:1;stroke-dasharray:2,2;" x1="97.5308" x2="593.1113" y1="779" y2="779"/><text fill="#000000" font-family="Helvetica" font-size="13" lengthAdjust="spacing" textLength="59.9727" x="109.5308" y="774.0103">fail startup</text></g><?plantuml-src XLNBRjim4BphAxR9fKMHKriWqA60_50Q80_3TWyz5RIrjebG94jITlttNKgqJFgH7WnGovcTvNAM_k0sM2DemRZCx1kNcXbMmu8jtzP6DR8QAg4Cx3RSORHVuOermfLAkXT6_1yejkZuaaKOks6Lsd6vXXKJDcONngXTb_Zso-X-L9On3VyqA9SuOOOISisa6oXJeGc4mVrWEFpw7y99-RVZelnM3YwGdlYAVX8lIMJwc15kPjhuimpfoDGhD3V0xF4hgvXZ2sOHReer4dw4MgXzxPSJmMIBzeip8ALOyJLCKIlBdJBxGsAA-c1QHSUPDj9nQlj0AMUTORhbz5yfvG0khCLw8KBb_LSAVbOL2dXcagq3i8s4G8gTAvL2VU0YSlR6HGfj8nUnNR22YL6rTZ1ekAW2gGkTTV1mm2ckEPs_Q-3XuwGNo2gwBclXWJaCm13AilusuUxxiPivM4SviZxWTtjM3jDn-NFs-FBmUpujol9nU0hiwiXXGIi9WzVN-OoGambHKgYtHmw2u638djnG5rXxGbx1PzYYiLp9pCFWBgrGSobxjC4L6czkc-O_UYg7DJh0lspfODb66yCS9RVP4NIg4VH9fcrxyAr5bsL2AGt8bfjZuH4c0qZgwAsNK_-xvSUkYay4xNSzD3PVJicjedS6wjQaDPCqlDOH9uQrPKSIeJKTfqAxD5pJcDbJgSYyT5TSLc3O3Xn5wOWU7G6kQ7XmN5QIFtPy963RqQ0hyn8nvef6Xxycqar8JfTQQoxGEvVC3tPl7TRa8MykBnI6wqGYHUjksXA5r16yhXiQHT8nOGGDRdbhqfChFqw1QLUKYqkI8vF2ZhiDa1FvDkAZhBAC2GUixKumLP2nVHQihYlv7WXq28j-dr7JwJPfP8lHhtDcFzB5S3YUpEEPJh3TB7LFHNWT6jthPKYE8QdzMTtqHyY5lLwnBwqi7f_6etTgCrYJyFchyqw5NlPGfk_iFm00?></g></svg>