<svg xmlns="http://www.w3.org/2000/svg" xmlns:xlink="http://www.w3.org/1999/xlink" contentStyleType="text/css" data-diagram-type="STATE" height="1025px" preserveAspectRatio="none" style="width:1538px;height:1025px;background:#FFFFFF;" version="1.1" viewBox="0 0 1538 1025" width="1538px" zoomAndPan="magnify"><?plantuml 1.2026.6?><defs/><g><g class="entity" data-qualified-name="PREPARING" data-source-line="335" id="ent0001"><rect fill="#F2F2F2" height="50" rx="12.5" ry="12.5" style="stroke:#B8BCC4;stroke-width:1;" width="104.8271" x="1040.29" y="106"/><line style="stroke:#B8BCC4;stroke-width:1;" x1="1040.29" x2="1145.1171" y1="130" y2="130"/><text fill="#000000" font-family="Helvetica" font-size="14" lengthAdjust="spacing" textLength="84.8271" x="1050.29" y="121.7803">Preparing run</text></g><g class="entity" data-qualified-name="MODEL_STREAMING" data-source-line="336" id="ent0002"><rect fill="#F2F2F2" height="50" rx="12.5" ry="12.5" style="stroke:#B8BCC4;stroke-width:1;" width="123.4893" x="1030.96" y="231"/><line style="stroke:#B8BCC4;stroke-width:1;" x1="1030.96" x2="1154.4493" y1="255" y2="255"/><text fill="#000000" font-family="Helvetica" font-size="14" lengthAdjust="spacing" textLength="103.4893" x="1040.96" y="246.7803">Model streaming</text></g><g class="entity" data-qualified-name="DISPATCHING" data-source-line="337" id="ent0003"><rect fill="#F2F2F2" height="50" rx="12.5" ry="12.5" style="stroke:#B8BCC4;stroke-width:1;" width="125.0479" x="320.18" y="356"/><line style="stroke:#B8BCC4;stroke-width:1;" x1="320.18" x2="445.2279" y1="380" y2="380"/><text fill="#000000" font-family="Helvetica" font-size="14" lengthAdjust="spacing" textLength="105.0479" x="330.18" y="371.7803">Dispatching calls</text></g><g class="entity" data-qualified-name="INVOKING_TOOL" data-source-line="338" id="ent0004"><rect fill="#F2F2F2" height="50" rx="12.5" ry="12.5" style="stroke:#B8BCC4;stroke-width:1;" width="162.4131" x="464.49" y="516"/><line style="stroke:#B8BCC4;stroke-width:1;" x1="464.49" x2="626.9031" y1="540" y2="540"/><text fill="#000000" font-family="Helvetica" font-size="14" lengthAdjust="spacing" textLength="142.4131" x="474.49" y="531.7803">Invoking Tool Manager</text></g><g class="entity" data-qualified-name="WAITING_APPROVAL" data-source-line="339" id="ent0005"><rect fill="#F2F2F2" height="50" rx="12.5" ry="12.5" style="stroke:#B8BCC4;stroke-width:1;" width="144.5029" x="598.45" y="676"/><line style="stroke:#B8BCC4;stroke-width:1;" x1="598.45" x2="742.9529" y1="700" y2="700"/><text fill="#000000" font-family="Helvetica" font-size="14" lengthAdjust="spacing" textLength="124.5029" x="608.45" y="691.7803">Waiting for approval</text></g><g class="entity" data-qualified-name="RESUMING_TOOL" data-source-line="340" id="ent0006"><rect fill="#F2F2F2" height="50" rx="12.5" ry="12.5" style="stroke:#B8BCC4;stroke-width:1;" width="173.2959" x="546.05" y="836"/><line style="stroke:#B8BCC4;stroke-width:1;" x1="546.05" x2="719.3459" y1="860" y2="860"/><text fill="#000000" font-family="Helvetica" font-size="14" lengthAdjust="spacing" textLength="153.2959" x="556.05" y="851.7803">Resuming Tool Manager</text></g><g class="entity" data-qualified-name="ACTIVATING_SKILL" data-source-line="341" id="ent0007"><rect fill="#F2F2F2" height="50" rx="12.5" ry="12.5" style="stroke:#B8BCC4;stroke-width:1;" width="169.3994" x="12" y="756"/><line style="stroke:#B8BCC4;stroke-width:1;" x1="12" x2="181.3994" y1="780" y2="780"/><text fill="#000000" font-family="Helvetica" font-size="14" lengthAdjust="spacing" textLength="149.3994" x="22" y="771.7803">Activating Skill Manager</text></g><g class="entity" data-qualified-name="APPENDING_RESULTS" data-source-line="342" id="ent0008"><rect fill="#F2F2F2" height="50" rx="12.5" ry="12.5" style="stroke:#B8BCC4;stroke-width:1;" width="156.9717" x="348.21" y="961"/><line style="stroke:#B8BCC4;stroke-width:1;" x1="348.21" x2="505.1817" y1="985" y2="985"/><text fill="#000000" font-family="Helvetica" font-size="14" lengthAdjust="spacing" textLength="136.9717" x="358.21" y="976.7803">Appending call results</text></g><g class="entity" data-qualified-name="CHECKING_FOLLOWUP" data-source-line="343" id="ent0009"><rect fill="#F2F2F2" height="50" rx="12.5" ry="12.5" style="stroke:#B8BCC4;stroke-width:1;" width="138.2822" x="1164.56" y="356"/><line style="stroke:#B8BCC4;stroke-width:1;" x1="1164.56" x2="1302.8422" y1="380" y2="380"/><text fill="#000000" font-family="Helvetica" font-size="14" lengthAdjust="spacing" textLength="118.2822" x="1174.56" y="371.7803">Checking follow-up</text></g><g class="entity" data-qualified-name="COMPLETED" data-source-line="344" id="ent0010"><rect fill="#F2F2F2" height="50" rx="12.5" ry="12.5" style="stroke:#B8BCC4;stroke-width:1;" width="87.7031" x="1189.85" y="596"/><line style="stroke:#B8BCC4;stroke-width:1;" x1="1189.85" x2="1277.5531" y1="620" y2="620"/><text fill="#000000" font-family="Helvetica" font-size="14" lengthAdjust="spacing" textLength="67.7031" x="1199.85" y="611.7803">Completed</text></g><g class="entity" data-qualified-name="FAILED" data-source-line="345" id="ent0011"><rect fill="#F2F2F2" height="50" rx="12.5" ry="12.5" style="stroke:#B8BCC4;stroke-width:1;" width="58.1309" x="1393.63" y="436"/><line style="stroke:#B8BCC4;stroke-width:1;" x1="1393.63" x2="1451.7609" y1="460" y2="460"/><text fill="#000000" font-family="Helvetica" font-size="14" lengthAdjust="spacing" textLength="38.1309" x="1403.63" y="451.7803">Failed</text></g><g class="entity" data-qualified-name="CANCELLED" data-source-line="346" id="ent0012"><rect fill="#F2F2F2" height="50" rx="12.5" ry="12.5" style="stroke:#B8BCC4;stroke-width:1;" width="82.2617" x="1022.57" y="836"/><line style="stroke:#B8BCC4;stroke-width:1;" x1="1022.57" x2="1104.8317" y1="860" y2="860"/><text fill="#000000" font-family="Helvetica" font-size="14" lengthAdjust="spacing" textLength="62.2617" x="1032.57" y="851.7803">Cancelled</text></g><g class="start_entity" data-qualified-name=".start." data-source-line="348" id="ent0013"><ellipse cx="1092.7" cy="21" fill="#FFFFFF" rx="10" ry="10" style="stroke:#000000;stroke-width:1;"/></g><g class="end_entity" data-qualified-name=".end." data-source-line="367" id="ent0033"><ellipse cx="1233.7" cy="986" fill="none" rx="11" ry="11" style="stroke:#000000;stroke-width:1;"/><ellipse cx="1233.7" cy="986" fill="#FFFFFF" rx="6" ry="6" style="stroke:#000000;stroke-width:1;"/></g><!--link *start* to PREPARING--><g class="link" data-entity-1="ent0013" data-entity-2="ent0001" data-link-type="dependency" data-source-line="348" id="lnk14"><path d="M1092.7,31.21 C1092.7,47.53 1092.7,77.04 1092.7,100.63" fill="none" id="*start*-to-PREPARING" style="stroke:#3D8DFF;stroke-width:1;"/><polygon fill="#3D8DFF" points="1092.7,105.63,1096.7,96.63,1092.7,100.63,1088.7,96.63,1092.7,105.63" style="stroke:#3D8DFF;stroke-width:1;stroke-linejoin:miter;stroke-miterlimit:10;"/><text fill="#000000" font-family="Helvetica" font-size="13" lengthAdjust="spacing" textLength="88.1499" x="1093.7" y="72.0103">session prompt</text></g><!--link PREPARING to MODEL_STREAMING--><g class="link" data-entity-1="ent0001" data-entity-2="ent0002" data-link-type="dependency" data-source-line="349" id="lnk15"><path d="M1092.7,156.3 C1092.7,177.86 1092.7,204.2 1092.7,225.75" fill="none" id="PREPARING-to-MODEL_STREAMING" style="stroke:#3D8DFF;stroke-width:1;"/><polygon fill="#3D8DFF" points="1092.7,230.75,1096.7,221.75,1092.7,225.75,1088.7,221.75,1092.7,230.75" style="stroke:#3D8DFF;stroke-width:1;stroke-linejoin:miter;stroke-miterlimit:10;"/><text fill="#000000" font-family="Helvetica" font-size="13" lengthAdjust="spacing" textLength="128.6416" x="1093.7" y="197.0103">append user message</text></g><!--link MODEL_STREAMING to DISPATCHING--><g class="link" data-entity-1="ent0002" data-entity-2="ent0003" data-link-type="dependency" data-source-line="350" id="lnk16"><path d="M1030.62,267.75 C896.4,291.01 585.3466,344.8965 450.4466,368.2665" fill="none" id="MODEL_STREAMING-to-DISPATCHING" style="stroke:#3D8DFF;stroke-width:1;"/><polygon fill="#3D8DFF" points="445.52,369.12,455.0707,371.525,450.4466,368.2665,453.7051,363.6424,445.52,369.12" style="stroke:#3D8DFF;stroke-width:1;stroke-linejoin:miter;stroke-miterlimit:10;"/><text fill="#000000" font-family="Helvetica" font-size="13" lengthAdjust="spacing" textLength="91.0254" x="781.21" y="322.0103">tool or skill calls</text></g><!--link MODEL_STREAMING to CHECKING_FOLLOWUP--><g class="link" data-entity-1="ent0002" data-entity-2="ent0009" data-link-type="dependency" data-source-line="351" id="lnk17"><path d="M1097.1,281.48 C1100.78,295.91 1107.32,313.69 1118.7,326 C1131.13,339.44 1143.0688,347.6938 1159.6388,355.6138" fill="none" id="MODEL_STREAMING-to-CHECKING_FOLLOWUP" style="stroke:#3D8DFF;stroke-width:1;"/><polygon fill="#3D8DFF" points="1164.15,357.77,1157.7549,350.2799,1159.6388,355.6138,1154.3049,357.4978,1164.15,357.77" style="stroke:#3D8DFF;stroke-width:1;stroke-linejoin:miter;stroke-miterlimit:10;"/><text fill="#000000" font-family="Helvetica" font-size="13" lengthAdjust="spacing" textLength="142.3398" x="1119.7" y="322.0103">normal stop without calls</text></g><!--link CHECKING_FOLLOWUP to MODEL_STREAMING--><g class="link" data-entity-1="ent0009" data-entity-2="ent0002" data-link-type="dependency" data-source-line="365" id="lnk31"><path d="M1257.76,355.76 C1268.53,341.93 1276.78,324.68 1266.7,311 C1241.19,276.37 1198.6347,263.883 1159.7047,259.233" fill="none" id="CHECKING_FOLLOWUP-to-MODEL_STREAMING" style="stroke:#3D8DFF;stroke-width:1;"/><polygon fill="#3D8DFF" points="1154.74,258.64,1163.2021,263.6792,1159.7047,259.233,1164.1509,255.7357,1154.74,258.64" style="stroke:#3D8DFF;stroke-width:1;stroke-linejoin:miter;stroke-miterlimit:10;"/><text fill="#000000" font-family="Helvetica" font-size="13" lengthAdjust="spacing" textLength="99.0171" x="1272.26" y="322.0103">follow-up queued</text></g><!--link MODEL_STREAMING to FAILED--><g class="link" data-entity-1="ent0002" data-entity-2="ent0011" data-link-type="dependency" data-source-line="352" id="lnk18"><path d="M1154.62,261.06 C1229.16,267.21 1348.37,281.44 1380.7,311 C1415.91,343.19 1422.3703,397.3712 1423.1003,430.6412" fill="none" id="MODEL_STREAMING-to-FAILED" style="stroke:#3D8DFF;stroke-width:1;"/><polygon fill="#3D8DFF" points="1423.21,435.64,1427.0116,426.5544,1423.1003,430.6412,1419.0135,426.7299,1423.21,435.64" style="stroke:#3D8DFF;stroke-width:1;stroke-linejoin:miter;stroke-miterlimit:10;"/><text fill="#000000" font-family="Helvetica" font-size="13" lengthAdjust="spacing" textLength="129.3462" x="1393.49" y="322.0103">model manager failure</text></g><!--link MODEL_STREAMING to CANCELLED--><g class="link" data-entity-1="ent0002" data-entity-2="ent0012" data-link-type="dependency" data-source-line="353" id="lnk19"><path d="M1083.52,281.11 C1075.03,305.63 1063.7,344.9 1063.7,380 C1063.7,380 1063.7,380 1063.7,702 C1063.7,749.32 1063.7,799.61 1063.7,830.64" fill="none" id="MODEL_STREAMING-to-CANCELLED" style="stroke:#3D8DFF;stroke-width:1;"/><polygon fill="#3D8DFF" points="1063.7,835.64,1067.7,826.64,1063.7,830.64,1059.7,826.64,1063.7,835.64" style="stroke:#3D8DFF;stroke-width:1;stroke-linejoin:miter;stroke-miterlimit:10;"/><text fill="#000000" font-family="Helvetica" font-size="13" lengthAdjust="spacing" textLength="68.6563" x="1064.7" y="544.5103">cancellation</text></g><!--link DISPATCHING to INVOKING_TOOL--><g class="link" data-entity-1="ent0003" data-entity-2="ent0004" data-link-type="dependency" data-source-line="354" id="lnk20"><path d="M407.81,406.34 C438.44,436.03 486.3298,482.45 516.9698,512.15" fill="none" id="DISPATCHING-to-INVOKING_TOOL" style="stroke:#3D8DFF;stroke-width:1;"/><polygon fill="#3D8DFF" points="520.56,515.63,516.8817,506.4938,516.9698,512.15,511.3137,512.2381,520.56,515.63" style="stroke:#3D8DFF;stroke-width:1;stroke-linejoin:miter;stroke-miterlimit:10;"/><text fill="#000000" font-family="Helvetica" font-size="13" lengthAdjust="spacing" textLength="66.498" x="489.32" y="464.5103">tool binding</text></g><!--link DISPATCHING to ACTIVATING_SKILL--><g class="link" data-entity-1="ent0003" data-entity-2="ent0007" data-link-type="dependency" data-source-line="355" id="lnk21"><path d="M319.81,392.8 C285.27,400.83 242.84,414.25 209.7,436 C170.45,461.76 160.63,473.49 140.7,516 C102.33,597.83 96.9126,702.7102 96.5026,750.7802" fill="none" id="DISPATCHING-to-ACTIVATING_SKILL" style="stroke:#3D8DFF;stroke-width:1;"/><polygon fill="#3D8DFF" points="96.46,755.78,100.5366,746.8144,96.5026,750.7802,92.5369,746.7462,96.46,755.78" style="stroke:#3D8DFF;stroke-width:1;stroke-linejoin:miter;stroke-miterlimit:10;"/><text fill="#000000" font-family="Helvetica" font-size="13" lengthAdjust="spacing" textLength="67.2026" x="141.7" y="544.5103">skill binding</text></g><!--link DISPATCHING to APPENDING_RESULTS--><g class="link" data-entity-1="ent0003" data-entity-2="ent0008" data-link-type="dependency" data-source-line="356" id="lnk22"><path d="M336.59,406.45 C293.48,433.03 235.7,479.87 235.7,540 C235.7,540 235.7,540 235.7,862 C235.7,918.4 290.5438,948.6277 343.1538,965.6877" fill="none" id="DISPATCHING-to-APPENDING_RESULTS" style="stroke:#3D8DFF;stroke-width:1;"/><polygon fill="#3D8DFF" points="347.91,967.23,340.5827,960.6489,343.1538,965.6877,338.115,968.2588,347.91,967.23" style="stroke:#3D8DFF;stroke-width:1;stroke-linejoin:miter;stroke-miterlimit:10;"/><text fill="#000000" font-family="Helvetica" font-size="13" lengthAdjust="spacing" textLength="75.1563" x="236.7" y="704.5103">unknown call</text></g><!--link APPENDING_RESULTS to DISPATCHING--><g class="link" data-entity-1="ent0008" data-entity-2="ent0003" data-link-type="dependency" data-source-line="363" id="lnk29"><path d="M412.54,960.94 C399.67,936.78 382.7,898.06 382.7,862 C382.7,540 382.7,540 382.7,540 C382.7,492.68 382.7,442.39 382.7,411.36" fill="none" id="APPENDING_RESULTS-to-DISPATCHING" style="stroke:#3D8DFF;stroke-width:1;"/><polygon fill="#3D8DFF" points="382.7,406.36,378.7,415.36,382.7,411.36,386.7,415.36,382.7,406.36" style="stroke:#3D8DFF;stroke-width:1;stroke-linejoin:miter;stroke-miterlimit:10;"/><text fill="#000000" font-family="Helvetica" font-size="13" lengthAdjust="spacing" textLength="108.3799" x="383.7" y="704.5103">more calls in batch</text></g><!--link INVOKING_TOOL to WAITING_APPROVAL--><g class="link" data-entity-1="ent0004" data-entity-2="ent0005" data-link-type="dependency" data-source-line="357" id="lnk23"><path d="M564.96,566.34 C588.45,596.03 624.8175,642.009 648.3175,671.709" fill="none" id="INVOKING_TOOL-to-WAITING_APPROVAL" style="stroke:#3D8DFF;stroke-width:1;"/><polygon fill="#3D8DFF" points="651.42,675.63,648.9723,666.0901,648.3175,671.709,642.6987,671.0541,651.42,675.63" style="stroke:#3D8DFF;stroke-width:1;stroke-linejoin:miter;stroke-miterlimit:10;"/><text fill="#000000" font-family="Helvetica" font-size="13" lengthAdjust="spacing" textLength="104.0635" x="627.7" y="624.5103">ApprovalRequired</text></g><!--link INVOKING_TOOL to APPENDING_RESULTS--><g class="link" data-entity-1="ent0004" data-entity-2="ent0008" data-link-type="dependency" data-source-line="358" id="lnk24"><path d="M543.14,566.37 C538.59,602.73 526.98,672.59 500.7,726 C493.16,741.32 484.05,740.59 476.7,756 C443.52,825.61 432.4886,912.6584 428.7786,955.7784" fill="none" id="INVOKING_TOOL-to-APPENDING_RESULTS" style="stroke:#3D8DFF;stroke-width:1;"/><polygon fill="#3D8DFF" points="428.35,960.76,433.1068,952.136,428.7786,955.7784,425.1362,951.4502,428.35,960.76" style="stroke:#3D8DFF;stroke-width:1;stroke-linejoin:miter;stroke-miterlimit:10;"/><text fill="#000000" font-family="Helvetica" font-size="13" lengthAdjust="spacing" textLength="159.7134" x="477.7" y="784.5103">completed, denied, or failed</text></g><!--link WAITING_APPROVAL to RESUMING_TOOL--><g class="link" data-entity-1="ent0005" data-entity-2="ent0006" data-link-type="dependency" data-source-line="359" id="lnk25"><path d="M664.85,726.34 C657.7,756.03 646.8687,801.0685 639.7287,830.7685" fill="none" id="WAITING_APPROVAL-to-RESUMING_TOOL" style="stroke:#3D8DFF;stroke-width:1;"/><polygon fill="#3D8DFF" points="638.56,835.63,644.5529,827.8143,639.7287,830.7685,636.7745,825.9443,638.56,835.63" style="stroke:#3D8DFF;stroke-width:1;stroke-linejoin:miter;stroke-miterlimit:10;"/><text fill="#000000" font-family="Helvetica" font-size="13" lengthAdjust="spacing" textLength="130.0571" x="658.32" y="784.5103">user decision or expiry</text></g><!--link WAITING_APPROVAL to CANCELLED--><g class="link" data-entity-1="ent0005" data-entity-2="ent0012" data-link-type="dependency" data-source-line="360" id="lnk26"><path d="M731.24,726.34 C811.88,758.76 947.7809,813.3949 1017.4509,841.4049" fill="none" id="WAITING_APPROVAL-to-CANCELLED" style="stroke:#3D8DFF;stroke-width:1;"/><polygon fill="#3D8DFF" points="1022.09,843.27,1015.2317,836.2015,1017.4509,841.4049,1012.2475,843.6241,1022.09,843.27" style="stroke:#3D8DFF;stroke-width:1;stroke-linejoin:miter;stroke-miterlimit:10;"/><text fill="#000000" font-family="Helvetica" font-size="13" lengthAdjust="spacing" textLength="68.6563" x="926.36" y="784.5103">cancellation</text></g><!--link RESUMING_TOOL to APPENDING_RESULTS--><g class="link" data-entity-1="ent0006" data-entity-2="ent0008" data-link-type="dependency" data-source-line="361" id="lnk27"><path d="M592,886.3 C556,907.79 508.0328,936.4365 471.9628,957.9765" fill="none" id="RESUMING_TOOL-to-APPENDING_RESULTS" style="stroke:#3D8DFF;stroke-width:1;"/><polygon fill="#3D8DFF" points="467.67,960.54,477.4479,959.3599,471.9628,957.9765,473.3462,952.4914,467.67,960.54" style="stroke:#3D8DFF;stroke-width:1;stroke-linejoin:miter;stroke-miterlimit:10;"/><text fill="#000000" font-family="Helvetica" font-size="13" lengthAdjust="spacing" textLength="159.7134" x="543.03" y="927.0103">completed, denied, or failed</text></g><!--link ACTIVATING_SKILL to APPENDING_RESULTS--><g class="link" data-entity-1="ent0007" data-entity-2="ent0008" data-link-type="dependency" data-source-line="362" id="lnk28"><path d="M92.53,806.29 C90.01,829.05 89.98,862.95 106.7,886 C135.2,925.31 257.7882,954.5249 342.9882,970.7449" fill="none" id="ACTIVATING_SKILL-to-APPENDING_RESULTS" style="stroke:#3D8DFF;stroke-width:1;"/><polygon fill="#3D8DFF" points="347.9,971.68,339.8069,966.0674,342.9882,970.7449,338.3107,973.9263,347.9,971.68" style="stroke:#3D8DFF;stroke-width:1;stroke-linejoin:miter;stroke-miterlimit:10;"/><text fill="#000000" font-family="Helvetica" font-size="13" lengthAdjust="spacing" textLength="101.8926" x="107.7" y="864.5103">activated or failed</text></g><!--link APPENDING_RESULTS to MODEL_STREAMING--><g class="link" data-entity-1="ent0008" data-entity-2="ent0002" data-link-type="dependency" data-source-line="364" id="lnk30"><path d="M505.53,981.87 C646.62,974.11 927.7,947.87 927.7,862 C927.7,380 927.7,380 927.7,380 C927.7,326.58 979.3094,295.4207 1026.1294,277.2307" fill="none" id="APPENDING_RESULTS-to-MODEL_STREAMING" style="stroke:#3D8DFF;stroke-width:1;"/><polygon fill="#3D8DFF" points="1030.79,275.42,1020.9523,274.9508,1026.1294,277.2307,1023.8494,282.4077,1030.79,275.42" style="stroke:#3D8DFF;stroke-width:1;stroke-linejoin:miter;stroke-miterlimit:10;"/><text fill="#000000" font-family="Helvetica" font-size="13" lengthAdjust="spacing" textLength="111.2808" x="928.7" y="624.5103">call batch complete</text></g><!--link CHECKING_FOLLOWUP to COMPLETED--><g class="link" data-entity-1="ent0009" data-entity-2="ent0010" data-link-type="dependency" data-source-line="366" id="lnk32"><path d="M1233.7,406.13 C1233.7,451.75 1233.7,545.14 1233.7,590.81" fill="none" id="CHECKING_FOLLOWUP-to-COMPLETED" style="stroke:#3D8DFF;stroke-width:1;"/><polygon fill="#3D8DFF" points="1233.7,595.81,1237.7,586.81,1233.7,590.81,1229.7,586.81,1233.7,595.81" style="stroke:#3D8DFF;stroke-width:1;stroke-linejoin:miter;stroke-miterlimit:10;"/><text fill="#000000" font-family="Helvetica" font-size="13" lengthAdjust="spacing" textLength="70.0972" x="1234.7" y="464.5103">no follow-up</text></g><!--link COMPLETED to *end*--><g class="link" data-entity-1="ent0010" data-entity-2="ent0033" data-link-type="dependency" data-source-line="367" id="lnk34"><path d="M1233.7,646.38 C1233.7,718.07 1233.7,921.2 1233.7,969.78" fill="none" id="COMPLETED-to-*end*" style="stroke:#3D8DFF;stroke-width:1;"/><polygon fill="#3D8DFF" points="1233.7,974.78,1237.7,965.78,1233.7,969.78,1229.7,965.78,1233.7,974.78" style="stroke:#3D8DFF;stroke-width:1;stroke-linejoin:miter;stroke-miterlimit:10;"/></g><!--link FAILED to *end*--><g class="link" data-entity-1="ent0011" data-entity-2="ent0033" data-link-type="dependency" data-source-line="368" id="lnk35"><path d="M1416.64,486.46 C1409.53,517.36 1398.7,572.28 1398.7,620 C1398.7,620 1398.7,620 1398.7,862 C1398.7,939.18 1286.0892,972.5016 1249.3892,981.4016" fill="none" id="FAILED-to-*end*" style="stroke:#3D8DFF;stroke-width:1;"/><polygon fill="#3D8DFF" points="1244.53,982.58,1254.2192,984.3462,1249.3892,981.4016,1252.3338,976.5716,1244.53,982.58" style="stroke:#3D8DFF;stroke-width:1;stroke-linejoin:miter;stroke-miterlimit:10;"/></g><!--link CANCELLED to *end*--><g class="link" data-entity-1="ent0012" data-entity-2="ent0033" data-link-type="dependency" data-source-line="369" id="lnk36"><path d="M1097.29,886.3 C1137.35,915.29 1197.7589,958.9994 1220.9689,975.7894" fill="none" id="CANCELLED-to-*end*" style="stroke:#3D8DFF;stroke-width:1;"/><polygon fill="#3D8DFF" points="1225.02,978.72,1220.0724,970.2041,1220.9689,975.7894,1215.3835,976.6859,1225.02,978.72" style="stroke:#3D8DFF;stroke-width:1;stroke-linejoin:miter;stroke-miterlimit:10;"/></g><?plantuml-src dLHDSvim4BtpAzJarcakRGyP3fsH-MYOOCDWaXmodOm2crXZ8H4XxFRVLn86OunxwFZWiVUzNUtRj_j9RQ02L3D2kTDiAQ-991Lw9SNsNOgMbvvWGgBzXYeOnKju8orJeU1gHJJ_3jWE52t82DDiI2dsbB-ZDyAQCHjBAVPTukjl_gqVXcEQ8WeMGfOW3v35xSBplfz19a-y3h-QZ-FOABfA9MYqAIzRVeL8Wz8iI74MhNxsaAKeWUbi4aYbWHQqJFmWVbddMO2N8wXFcvgeOcFo5OInneBzQ9tYtBiR0IE-4rk3oeLWQ4auUGTfmT7gCRdNo9SyIU8U_aIeiXBf3aXTIx4ZpAAVS9GRC4xJB7d40o63fgrcysV1-c4vpOyBHNV4bbXlAJjbO2-F7h4jixwFuYEfhe6NVQj8wf9CTHthvmGhtp1CkJXVznnl0yMswuGniRzfQultxWBFDXqcSPmyFQG3NbGr0mLb1qkMQHpaWT-7GqBP8HRYA3u6FC8BO7tCmoilY4tOUVxy2ztS_3XEsKKDD0qL76bPgrevGyJY9eDsZVowQzGs856bcLecPmAonD7GNQJC5FJi6YkkTSOiwKm75t4XAsBi9sgqfseZMlMF19qABggiPwjkYdgpA6lb_3i7RLoTregcVI2uCtg_nPtuyj3HAxNpFyDE7UCU6h-8dzh5HItVSh7djbNdfBPbJ7tl8dnOYmm-MYgXd27Db2bwVttHnufJyoqwlNI6QH6Rv6H_tCu79HJKMaXpuNTDvPzvxYMjJtB-rrEdYbzAGhf5XtBCdSBE_Li92Pth4ENwxEiJTu5sjY_sDbZ6q85pPlDvwd0Zq4SBhNxfF6-u2cPPZYHd-D-YzE8xtNOCFuTnzF_y1G00?></g></svg>