<svg xmlns="http://www.w3.org/2000/svg" xmlns:xlink="http://www.w3.org/1999/xlink" contentStyleType="text/css" data-diagram-type="DESCRIPTION" height="684px" preserveAspectRatio="none" style="width:1563px;height:684px;background:#FFFFFF;" version="1.1" viewBox="0 0 1563 684" width="1563px" zoomAndPan="magnify"><?plantuml 1.2026.6?><defs/><g><g class="title" data-source-line="424"><text fill="#000000" font-family="Arial" font-size="14" font-weight="700" lengthAdjust="spacing" textLength="340.751" x="607.8641" y="23.1318">Managed Session Transport Dependency Inversion</text></g><!--cluster Adapters--><g class="cluster" data-qualified-name="Adapters" data-source-line="446" id="ent0001"><rect fill="none" height="113.85" rx="2.5" ry="2.5" style="stroke:#181818;stroke-width:1;" width="457" x="206.55" y="44.0986"/><text fill="#000000" font-family="Arial" font-size="13" font-weight="700" lengthAdjust="spacing" textLength="109.0908" x="380.5046" y="58.2925">Network adapters</text></g><!--cluster Ports--><g class="cluster" data-qualified-name="Ports" data-source-line="451" id="ent0004"><rect fill="none" height="149" rx="2.5" ry="2.5" style="stroke:#181818;stroke-width:1;" width="280" x="206.55" y="213.9486"/><text fill="#000000" font-family="Arial" font-size="13" font-weight="700" lengthAdjust="spacing" textLength="106.8882" x="293.1059" y="228.1425">Application ports</text></g><!--cluster Runtime--><g class="cluster" data-qualified-name="Runtime" data-source-line="456" id="ent0007"><rect fill="none" height="243.27" rx="2.5" ry="2.5" style="stroke:#181818;stroke-width:1;" width="639" x="285.55" y="426.9486"/><text fill="#000000" font-family="Arial" font-size="13" font-weight="700" lengthAdjust="spacing" textLength="107.6245" x="551.2377" y="441.1425">Managed runtime</text></g><!--entity WebSocketAdapter--><g class="entity" data-qualified-name="Adapters.WebSocketAdapter" data-source-line="447" id="ent0002"><rect fill="#F1F1F1" height="64.8462" rx="2.5" ry="2.5" style="stroke:#181818;stroke-width:0.5;" width="189.8062" x="222.65" y="77.0986"/><text fill="#000000" font-family="Arial" font-size="13" lengthAdjust="spacing" textLength="139.4644" x="232.65" y="99.2925">ChatWebSocketAdapter</text><text fill="#000000" font-family="Arial" font-size="13" lengthAdjust="spacing" textLength="161.1226" x="232.65" y="114.2412">Frame codec, trace context,</text><text fill="#000000" font-family="Arial" font-size="13" lengthAdjust="spacing" textLength="169.8062" x="232.65" y="129.1899">seq, flow control, close codes</text></g><!--entity FutureAdapter--><g class="entity" data-qualified-name="Adapters.FutureAdapter" data-source-line="448" id="ent0003"><rect fill="#F1F1F1" height="49.8975" rx="2.5" ry="2.5" style="stroke:#181818;stroke-width:0.5;" width="200.6416" x="447.23" y="84.5786"/><text fill="#000000" font-family="Arial" font-size="13" lengthAdjust="spacing" textLength="180.6416" x="457.23" y="106.7725">Future REST plus SSE adapter</text><text fill="#000000" font-family="Arial" font-size="13" lengthAdjust="spacing" textLength="125.7407" x="457.23" y="121.7212">not part of protocol v2</text></g><!--entity TransportFactory--><g class="entity" data-qualified-name="Ports.TransportFactory" data-source-line="452" id="ent0005"><ellipse cx="329.55" cy="296.9486" fill="#F1F1F1" rx="8" ry="8" style="stroke:#181818;stroke-width:0.5;"/><text fill="#000000" font-family="Arial" font-size="13" lengthAdjust="spacing" textLength="145.2217" x="256.9392" y="326.1425">SessionTransportFactory</text><text fill="#000000" font-family="Arial" font-size="13" lengthAdjust="spacing" textLength="107.6816" x="256.9392" y="341.0912">open(authContext)</text></g><!--entity TransportPort--><g class="entity" data-qualified-name="Ports.TransportPort" data-source-line="453" id="ent0006"><ellipse cx="453.55" cy="296.9486" fill="#F1F1F1" rx="8" ry="8" style="stroke:#181818;stroke-width:0.5;"/><text fill="#000000" font-family="Arial" font-size="13" lengthAdjust="spacing" textLength="101.8799" x="367.2028" y="326.1425">SessionTransport</text><text fill="#000000" font-family="Arial" font-size="13" lengthAdjust="spacing" textLength="172.6943" x="367.2028" y="341.0912">connect(command, metadata)</text><text fill="#000000" font-family="Arial" font-size="13" lengthAdjust="spacing" textLength="156.8062" x="367.2028" y="356.0399">request(request, metadata)</text><text fill="#000000" font-family="Arial" font-size="13" lengthAdjust="spacing" textLength="46.96" x="367.2028" y="370.9887">events()</text><text fill="#000000" font-family="Arial" font-size="13" lengthAdjust="spacing" textLength="39.0063" x="367.2028" y="385.9374">close()</text></g><!--entity ManagedTransport--><g class="entity" data-qualified-name="Runtime.ManagedTransport" data-source-line="457" id="ent0008"><rect fill="#F1F1F1" height="64.8462" rx="2.5" ry="2.5" style="stroke:#181818;stroke-width:0.5;" width="183.96" x="387.57" y="467.9486"/><text fill="#000000" font-family="Arial" font-size="13" lengthAdjust="spacing" textLength="156.0889" x="397.57" y="490.1425">ManagedSessionTransport</text><text fill="#000000" font-family="Arial" font-size="13" lengthAdjust="spacing" textLength="163.96" x="397.57" y="505.0912">state: NEW, CONNECTING,</text><text fill="#000000" font-family="Arial" font-size="13" lengthAdjust="spacing" textLength="143.019" x="397.57" y="520.0399">CONNECTED, CLOSED</text></g><!--entity Pool--><g class="entity" data-qualified-name="Runtime.Pool" data-source-line="458" id="ent0009"><rect fill="#F1F1F1" height="34.9487" rx="2.5" ry="2.5" style="stroke:#181818;stroke-width:0.5;" width="146.4771" x="704.32" y="611.2686"/><text fill="#000000" font-family="Arial" font-size="13" lengthAdjust="spacing" textLength="126.4771" x="714.32" y="633.4625">ManagedSessionPool</text></g><!--entity Hub--><g class="entity" data-qualified-name="Runtime.Hub" data-source-line="459" id="ent0010"><rect fill="#F1F1F1" height="34.9487" rx="2.5" ry="2.5" style="stroke:#181818;stroke-width:0.5;" width="121.9053" x="309.6" y="611.2686"/><text fill="#000000" font-family="Arial" font-size="13" lengthAdjust="spacing" textLength="101.9053" x="319.6" y="633.4625">ManagedRunHub</text></g><!--entity Managers--><g class="entity" data-qualified-name="Runtime.Managers" data-source-line="460" id="ent0011"><rect fill="#F1F1F1" height="34.9487" rx="2.5" ry="2.5" style="stroke:#181818;stroke-width:0.5;" width="171.0298" x="498.04" y="611.2686"/><text fill="#000000" font-family="Arial" font-size="13" lengthAdjust="spacing" textLength="151.0298" x="508.04" y="633.4625">Model and Tool Managers</text></g><g class="entity" data-qualified-name="GMN21" data-source-line="474" id="ent0022"><path d="M6,480.4286 L6,520.3261 L261.1079,520.3261 L261.1079,490.4286 L251.1079,480.4286 L6,480.4286" fill="#FEFFDD" style="stroke:#181818;stroke-width:0.5;"/><path d="M251.1079,480.4286 L251.1079,490.4286 L261.1079,490.4286 L251.1079,480.4286" fill="#FEFFDD" style="stroke:#181818;stroke-width:1;"/><text fill="#000000" font-family="Arial" font-size="13" lengthAdjust="spacing" textLength="234.1079" x="12" y="497.6225">The port contains no WebSocket, JSON,</text><text fill="#000000" font-family="Arial" font-size="13" lengthAdjust="spacing" textLength="208.8252" x="12" y="512.5712">Spring session, or close-code types.</text></g><g class="entity" data-qualified-name="GMN24" data-source-line="479" id="ent0025"><path d="M948.63,608.7986 L948.63,648.6961 L1548.4791,648.6961 L1548.4791,618.7986 L1538.4791,608.7986 L948.63,608.7986" fill="#FEFFDD" style="stroke:#181818;stroke-width:0.5;"/><path d="M1538.4791,608.7986 L1538.4791,618.7986 L1548.4791,618.7986 L1538.4791,608.7986" fill="#FEFFDD" style="stroke:#181818;stroke-width:1;"/><text fill="#000000" font-family="Arial" font-size="13" lengthAdjust="spacing" textLength="209.5425" x="954.63" y="625.9925">close removes the subscription only.</text><text fill="#000000" font-family="Arial" font-size="13" lengthAdjust="spacing" textLength="578.8491" x="954.63" y="640.9412">Pool retains the run reference; AgentSession and AgentLoop execute; Hub maintains recovery state.</text></g><!--link WebSocketAdapter to TransportFactory--><g class="link" data-entity-1="ent0002" data-entity-2="ent0005" data-link-type="dependency" data-source-line="463" id="lnk12"><path d="M222.24,117.6486 C148.57,126.6086 65.51,146.4786 106.55,189.9486 C117.17,201.1986 231.69,191.0886 245.55,197.9486 C286.52,218.2386 313.245,263.9764 323.345,283.5264" fill="none" id="WebSocketAdapter-to-TransportFactory" style="stroke:#475569;stroke-width:1;"/><polygon fill="#475569" points="325.64,287.9686,325.0629,278.1367,323.345,283.5264,317.9553,281.8086,325.64,287.9686" style="stroke:#475569;stroke-width:1;stroke-linejoin:miter;stroke-miterlimit:10;"/><text fill="#000000" font-family="Arial" font-size="13" lengthAdjust="spacing" textLength="134.4053" x="107.55" y="187.1425">immutable auth context</text></g><!--link TransportFactory to ManagedTransport--><g class="link" data-entity-1="ent0005" data-entity-2="ent0008" data-link-type="dependency" data-source-line="464" id="lnk13"><path d="M327.3,305.6886 C322.44,323.9586 312.8,370.6886 330.55,402.9486 C346,431.0286 369.1298,449.7515 396.3198,465.0115" fill="none" id="TransportFactory-to-ManagedTransport" style="stroke:#475569;stroke-width:1;"/><polygon fill="#475569" points="400.68,467.4586,394.7893,459.5656,396.3198,465.0115,390.8739,466.542,400.68,467.4586" style="stroke:#475569;stroke-width:1;stroke-linejoin:miter;stroke-miterlimit:10;"/><text fill="#000000" font-family="Arial" font-size="13" lengthAdjust="spacing" textLength="125.0234" x="331.55" y="400.1425">create per connection</text></g><!--link ManagedTransport to TransportPort--><g class="link" data-entity-1="ent0008" data-entity-2="ent0006" data-link-type="extension" data-source-line="465" id="lnk14"><path d="M475.47,467.7586 C469.34,420.2186 460.3803,350.881 456.9103,323.951" fill="none" id="ManagedTransport-to-TransportPort" style="stroke:#475569;stroke-width:1;stroke-dasharray:7,7;"/><polygon fill="none" points="454.61,306.0986,450.9595,324.7178,462.8611,323.1843,454.61,306.0986" style="stroke:#475569;stroke-width:1;stroke-linejoin:miter;stroke-miterlimit:10;"/></g><!--link WebSocketAdapter to TransportPort--><g class="link" data-entity-1="ent0002" data-entity-2="ent0006" data-link-type="dependency" data-source-line="466" id="lnk15"><path d="M288.16,142.4486 C277.16,158.2386 270.02,176.7086 282.55,189.9486 C293.64,201.6686 415.04,187.7586 427.55,197.9486 C455.13,220.3986 455.6727,263.4472 454.5427,282.7172" fill="none" id="WebSocketAdapter-to-TransportPort" style="stroke:#475569;stroke-width:1;"/><polygon fill="#475569" points="454.25,287.7086,458.77,278.9582,454.5427,282.7172,450.7837,278.4899,454.25,287.7086" style="stroke:#475569;stroke-width:1;stroke-linejoin:miter;stroke-miterlimit:10;"/><text fill="#000000" font-family="Arial" font-size="13" lengthAdjust="spacing" textLength="159.7197" x="283.55" y="187.1425">typed connect and requests</text></g><!--link TransportPort to WebSocketAdapter--><g class="link" data-entity-1="ent0006" data-entity-2="ent0002" data-link-type="dependency" data-source-line="467" id="lnk16"><path d="M455.86,287.6186 C461.19,266.4686 472.13,209.8086 447.55,173.9486 C442.6,166.7286 437.48,169.6686 429.55,165.9486 C413.65,158.4786 401.0734,152.4021 385.1934,144.5621" fill="none" id="TransportPort-to-WebSocketAdapter" style="stroke:#475569;stroke-width:1;"/><polygon fill="#475569" points="380.71,142.3486,387.0093,149.9195,385.1934,144.5621,390.5508,142.7462,380.71,142.3486" style="stroke:#475569;stroke-width:1;stroke-linejoin:miter;stroke-miterlimit:10;"/><text fill="#000000" font-family="Arial" font-size="13" lengthAdjust="spacing" textLength="189.3125" x="456.18" y="187.1425">Flow Publisher of SessionEvents</text></g><!--link ManagedTransport to Pool--><g class="link" data-entity-1="ent0008" data-entity-2="ent0009" data-link-type="dependency" data-source-line="468" id="lnk17"><path d="M571.98,531.8186 C573.18,532.1486 574.37,532.4786 575.55,532.7986 C637.85,549.5186 661.47,530.9386 717.55,562.7986 C738.24,574.5486 752.9664,591.8081 763.6664,606.8081" fill="none" id="ManagedTransport-to-Pool" style="stroke:#475569;stroke-width:1;"/><polygon fill="#475569" points="766.57,610.8786,764.5999,601.2288,763.6664,606.8081,758.0871,605.8746,766.57,610.8786" style="stroke:#475569;stroke-width:1;stroke-linejoin:miter;stroke-miterlimit:10;"/><text fill="#000000" font-family="Arial" font-size="13" lengthAdjust="spacing" textLength="113.439" x="739.71" y="575.9925">Session commands</text></g><!--link ManagedTransport to Hub--><g class="link" data-entity-1="ent0008" data-entity-2="ent0010" data-link-type="dependency" data-source-line="469" id="lnk18"><path d="M387.22,523.0886 C367.64,532.0986 349.35,544.8386 337.55,562.7986 C327.35,578.3386 336.3508,593.7626 348.7608,607.2226" fill="none" id="ManagedTransport-to-Hub" style="stroke:#475569;stroke-width:1;"/><polygon fill="#475569" points="352.15,610.8986,348.9902,601.5704,348.7608,607.2226,343.1086,606.9932,352.15,610.8986" style="stroke:#475569;stroke-width:1;stroke-linejoin:miter;stroke-miterlimit:10;"/><text fill="#000000" font-family="Arial" font-size="13" lengthAdjust="spacing" textLength="198.7197" x="338.55" y="575.9925">atomic snapshot and event stream</text></g><!--link ManagedTransport to Managers--><g class="link" data-entity-1="ent0008" data-entity-2="ent0011" data-link-type="dependency" data-source-line="470" id="lnk19"><path d="M517.42,533.0786 C527.17,542.1486 537.24,552.4086 545.55,562.7986 C557.64,577.8886 566.1748,592.7863 573.1448,606.4263" fill="none" id="ManagedTransport-to-Managers" style="stroke:#475569;stroke-width:1;"/><polygon fill="#475569" points="575.42,610.8786,574.8866,601.0442,573.1448,606.4263,567.7628,604.6845,575.42,610.8786" style="stroke:#475569;stroke-width:1;stroke-linejoin:miter;stroke-miterlimit:10;"/><text fill="#000000" font-family="Arial" font-size="13" lengthAdjust="spacing" textLength="151.0361" x="557.4" y="575.9925">propagated Trace Context</text></g><!--link FutureAdapter to TransportPort--><g class="link" data-entity-1="ent0003" data-entity-2="ent0006" data-link-type="dependency" data-source-line="471" id="lnk20"><path d="M643.3,134.9686 C672.83,147.5986 694.01,165.5786 678.55,189.9486 C627.79,269.9886 503.6246,290.1048 467.8446,294.3848" fill="none" id="FutureAdapter-to-TransportPort" style="stroke:#475569;stroke-width:1;stroke-dasharray:7,7;"/><polygon fill="#475569" points="462.88,294.9786,472.2914,297.8814,467.8446,294.3848,471.3412,289.938,462.88,294.9786" style="stroke:#475569;stroke-width:1;stroke-linejoin:miter;stroke-miterlimit:10;"/><text fill="#000000" font-family="Arial" font-size="13" lengthAdjust="spacing" textLength="108.4053" x="684.58" y="187.1425">future adapter only</text></g><!--link Ports to GMN21--><g class="link" data-entity-1="ent0004" data-entity-2="ent0022" data-link-type="association" data-source-line="474" id="lnk23"><path d="M206.4781,318.0415 C206.32,318.4346 206.16,318.8324 205.9981,319.2348 C205.6744,320.0396 205.3433,320.8629 205.005,321.7039 C199.5925,335.1605 192.355,353.1549 184.56,372.5361 C168.97,411.2986 151.15,455.6086 141.24,480.2586" fill="none" id="Ports-GMN21" style="stroke:#475569;stroke-width:1;stroke-dasharray:7,7;"/></g><!--link Runtime to GMN24--><g class="link" data-entity-1="ent0007" data-entity-2="ent0025" data-link-type="association" data-source-line="479" id="lnk26"><path d="M924.993,504.5888 C925.3258,504.7155 925.6677,504.8456 926.0185,504.9791 C931.632,507.1155 939.5441,510.1268 949.2181,513.8088 C968.5663,521.1727 994.9625,531.2193 1024.115,542.3149 C1082.42,564.5061 1151.75,590.8936 1197.77,608.4086" fill="none" id="Runtime-GMN24" style="stroke:#475569;stroke-width:1;stroke-dasharray:7,7;"/></g><?plantuml-src XLPjR-8u4FwUNp7gVJWg0MrfwROzQQKUXTtkxL5KaFg5Bquo0H-EdRKTMExblz_OJdZjifKgI3n-vfcPPsQmt0g4FvbaCqnXZCPm9M6YcJI5qXQUi42PeapMy2oNgDrn5FqAB_Iw9zWAOcPGS8aF45zUTUyxtJYvlinksTtrxNNMkR-CBp-atUokUtU7dQkRJYU-Qy8dPd75rZ3Iogf42LZU4EHObJeXd88b2s9ZBaowk30wkR3h0atR6cZKNZVycj1JKc9YMIpmwFJy96fjvP4hIZt1KTft0ToTMR2wCAWf5wqSxLob13bd6jFMbcU5zehVIZJsCvEfGDs4LoHKcGxaQToBbJd6UZE1sqyenLgnD64cH9LefECAuVVw2BK3UOdzbHHYdBCbL_fXMzIi568Dt1MSOEmS8V7EOVpq1smI1-b67EsV00PsC0-PC43vWaop75iIIm8KJOXB2nlsO2mN0jHA6dZ3UAoI1LfGyLzKQkESzKgj7Q4lRCbs7FRcp6xigxn3oZLTeu0ytEECxjL2JrIUanMu_qGeWniivsJ2z0nTc8RF986pl2YDZmU_5sHiG4ciOciPdcBTGDl-ASX_CLyRdZ11thnMoS2XFtbOe18PHUWBn6BJW8wFBYLX4ptB4qF5gBDjANCgtqdBQiwfXmkDZWcNCs1WSaRfUnmzjwF8BBWi62MRUZLPpBGgPTfJGcduPU3_TYn8oQbQEOoC2OCx9vGfqgvBdLsJDvTH9cTYrwHgiHyRf9YnKjY1adP8jOT7pPbu_tpC_qQukjuvVDHQhIhUDn-wtTlxAAeymjaGxKhf1R2K5QHlSmQCAbqzm3yHRFd3sPv8AgEf73WvabcAITDfF74Fqk9tsvnAWz-Qa0cryk-q8hq6kJZxuEqGST_deBGbQVwrFvv08Ke3ut6_PZkLKf5I6Cb5PLJ7UYXsF6wuMOF-jnFqOr48qfNJ4pYn1HuZzys7p8czpbmWPuUw7B34AhsUIaMQQh3IpdiXrdEFSMXt6cmgAs4tgdPg0ar62iwoywdKOGWsgi-zCrnISao3llbiDWwykr3s8gxt5BM6vJbwwzVm_R38bUanLsDf73x0iFz6o-DbEEpt9i_3JrJZwg7_HE-_lepxJnw-mja0dF8oKafKDL3YNKCY-xcClGrz7fYGb8Jl_0bThnnNKguVN3OEXGQjriUZYi43y3ml_Lu4LzzQpD6HfRj-62LT3xl33x3jt8gE3DljVpyULEmqmL60TmikhP73l0i2CT6-gRjyXFW00zUCep8MtCpf1JLELOI-rzGnKOVZwa9t3wR_3uofG6JBhCfv0aQominLOEfbIokACfI_VxUk5m5GFnVCRUdKvO3wf-gqQA-nAO_7ESh2qAZ612qRiOuYcXMqfPGbNYvgt-xHX5QqT-wgp3YjEQcsMMl2b_7Bi1cD2-r6kmdXDu56gU-xbfjY47voHBHZmFauybGrMXG6dyPSBJ7yE31bR1BD2p-97Cjsv3EjCN1nDcwRQSoGjdQ2l-rlOPTJ_-AhKWNjLanAIpQk03a1111QAEIGzEeRUClpVm00?></g></svg>