<svg xmlns="http://www.w3.org/2000/svg" xmlns:xlink="http://www.w3.org/1999/xlink" contentStyleType="text/css" data-diagram-type="CLASS" height="855px" preserveAspectRatio="none" style="width:1637px;height:855px;background:#FFFFFF;" version="1.1" viewBox="0 0 1637 855" width="1637px" zoomAndPan="magnify"><?plantuml 1.2026.6?><defs/><g><g class="title" data-source-line="236"><text fill="#000000" font-family="sans-serif" font-size="14" font-weight="700" lengthAdjust="spacing" textLength="388.8691" x="620.5654" y="23.5352">Anthropic Managed Agent Public Configuration Model</text></g><!--class ManagedAgent--><g class="entity" data-qualified-name="ManagedAgent" data-source-line="259" id="ent0001"><rect fill="#F7F9FC" height="221.5039" rx="4" ry="4" style="stroke:#53657D;stroke-width:0.5;" width="223.8662" x="835" y="49.4883"/><ellipse cx="882.4595" cy="69.7988" fill="#ADD1B2" rx="11" ry="11" style="stroke:#181818;stroke-width:1;"/><path d="M884.9326,75.9419 Q884.3516,76.2407 883.7124,76.3901 Q883.0732,76.5396 882.3677,76.5396 Q879.8608,76.5396 878.541,74.8877 Q877.2212,73.2358 877.2212,70.1147 Q877.2212,66.9854 878.541,65.3335 Q879.8608,63.6816 882.3677,63.6816 Q883.0732,63.6816 883.7207,63.8311 Q884.3682,63.9805 884.9326,64.2793 L884.9326,67.002 Q884.3018,66.4209 883.7083,66.1511 Q883.1147,65.8813 882.4839,65.8813 Q881.1392,65.8813 880.4543,66.948 Q879.7695,68.0146 879.7695,70.1147 Q879.7695,72.2065 880.4543,73.2732 Q881.1392,74.3398 882.4839,74.3398 Q883.1147,74.3398 883.7083,74.0701 Q884.3018,73.8003 884.9326,73.2192 Z " fill="#000000"/><text fill="#000000" font-family="sans-serif" font-size="12" font-style="italic" lengthAdjust="spacing" textLength="124.4473" x="900.9595" y="66.0898">&#171;public API resource&#187;</text><text fill="#000000" font-family="sans-serif" font-size="14" lengthAdjust="spacing" textLength="101.6641" x="912.3511" y="82.1563">ManagedAgent</text><line style="stroke:#53657D;stroke-width:0.5;" x1="836" x2="1057.8662" y1="90.1094" y2="90.1094"/><text fill="#000000" font-family="sans-serif" font-size="14" lengthAdjust="spacing" textLength="61.6875" x="841" y="107.6445">id: String</text><text fill="#000000" font-family="sans-serif" font-size="14" lengthAdjust="spacing" textLength="76.207" x="841" y="124.1328">type: agent</text><text fill="#000000" font-family="sans-serif" font-size="14" lengthAdjust="spacing" textLength="106.1211" x="841" y="140.6211">version: Integer</text><text fill="#000000" font-family="sans-serif" font-size="14" lengthAdjust="spacing" textLength="86.1191" x="841" y="157.1094">name: String</text><text fill="#000000" font-family="sans-serif" font-size="14" lengthAdjust="spacing" textLength="130.8125" x="841" y="173.5977">description: String?</text><text fill="#000000" font-family="sans-serif" font-size="14" lengthAdjust="spacing" textLength="102.4297" x="841" y="190.0859">system: String?</text><text fill="#000000" font-family="sans-serif" font-size="14" lengthAdjust="spacing" textLength="211.8662" x="841" y="206.5742">metadata: Map&lt;String, String&gt;</text><text fill="#000000" font-family="sans-serif" font-size="14" lengthAdjust="spacing" textLength="154.8613" x="841" y="223.0625">created_at: Timestamp</text><text fill="#000000" font-family="sans-serif" font-size="14" lengthAdjust="spacing" textLength="160.4736" x="841" y="239.5508">updated_at: Timestamp</text><text fill="#000000" font-family="sans-serif" font-size="14" lengthAdjust="spacing" textLength="167.7129" x="841" y="256.0391">archived_at: Timestamp?</text><line style="stroke:#53657D;stroke-width:0.5;" x1="836" x2="1057.8662" y1="262.9922" y2="262.9922"/></g><!--class ModelConfig--><g class="entity" data-qualified-name="ModelConfig" data-source-line="272" id="ent0002"><rect fill="#F7F9FC" height="80.9766" rx="4" ry="4" style="stroke:#53657D;stroke-width:0.5;" width="160.4355" x="353" y="334.4883"/><ellipse cx="386.9993" cy="350.4883" fill="#ADD1B2" rx="11" ry="11" style="stroke:#181818;stroke-width:1;"/><path d="M389.4725,356.6313 Q388.8914,356.9302 388.2522,357.0796 Q387.6131,357.229 386.9075,357.229 Q384.4007,357.229 383.0809,355.5771 Q381.761,353.9253 381.761,350.8042 Q381.761,347.6748 383.0809,346.0229 Q384.4007,344.3711 386.9075,344.3711 Q387.6131,344.3711 388.2605,344.5205 Q388.908,344.6699 389.4725,344.9688 L389.4725,347.6914 Q388.8416,347.1104 388.2481,346.8406 Q387.6546,346.5708 387.0237,346.5708 Q385.679,346.5708 384.9942,347.6375 Q384.3094,348.7041 384.3094,350.8042 Q384.3094,352.896 384.9942,353.9626 Q385.679,355.0293 387.0237,355.0293 Q387.6546,355.0293 388.2481,354.7595 Q388.8416,354.4897 389.4725,353.9087 Z " fill="#000000"/><text fill="#000000" font-family="sans-serif" font-size="14" lengthAdjust="spacing" textLength="86.2148" x="405.2214" y="355.7793">ModelConfig</text><line style="stroke:#53657D;stroke-width:0.5;" x1="354" x2="512.4355" y1="366.4883" y2="366.4883"/><text fill="#000000" font-family="sans-serif" font-size="14" lengthAdjust="spacing" textLength="61.6875" x="359" y="384.0234">id: String</text><text fill="#000000" font-family="sans-serif" font-size="14" lengthAdjust="spacing" textLength="148.4355" x="359" y="400.5117">speed: standard | fast</text><line style="stroke:#53657D;stroke-width:0.5;" x1="354" x2="512.4355" y1="407.4648" y2="407.4648"/></g><!--class ToolDefinition--><g class="entity" data-qualified-name="ToolDefinition" data-source-line="277" id="ent0003"><rect fill="#F7F9FC" height="73.1094" rx="4" ry="4" style="stroke:#53657D;stroke-width:0.5;" width="128.8857" x="754.5" y="338.4883"/><ellipse cx="769.5" cy="358.7988" fill="#A9DCDF" rx="11" ry="11" style="stroke:#181818;stroke-width:1;"/><path d="M769.3633,354.147 L768.2095,359.2188 L770.5254,359.2188 Z M767.8691,351.9058 L770.8657,351.9058 L774.2109,364.2988 L771.7622,364.2988 L770.9985,361.2358 L767.7197,361.2358 L766.9727,364.2988 L764.5239,364.2988 Z " fill="#000000"/><text fill="#000000" font-family="sans-serif" font-size="12" font-style="italic" lengthAdjust="spacing" textLength="89.8711" x="787.0073" y="355.0898">&#171;tagged union&#187;</text><text fill="#000000" font-family="sans-serif" font-size="14" font-style="italic" lengthAdjust="spacing" textLength="96.8857" x="783.5" y="371.1563">ToolDefinition</text><line style="stroke:#53657D;stroke-width:0.5;" x1="755.5" x2="882.3857" y1="379.1094" y2="379.1094"/><text fill="#000000" font-family="sans-serif" font-size="14" lengthAdjust="spacing" textLength="77.9912" x="760.5" y="396.6445">type: String</text><line style="stroke:#53657D;stroke-width:0.5;" x1="755.5" x2="882.3857" y1="403.5977" y2="403.5977"/></g><!--class AgentToolset--><g class="entity" data-qualified-name="AgentToolset" data-source-line="281" id="ent0004"><rect fill="#F7F9FC" height="97.4648" rx="4" ry="4" style="stroke:#53657D;stroke-width:0.5;" width="219.6826" x="224" y="486.9883"/><ellipse cx="284.3989" cy="502.9883" fill="#ADD1B2" rx="11" ry="11" style="stroke:#181818;stroke-width:1;"/><path d="M286.8721,509.1313 Q286.291,509.4302 285.6519,509.5796 Q285.0127,509.729 284.3071,509.729 Q281.8003,509.729 280.4805,508.0771 Q279.1606,506.4253 279.1606,503.3042 Q279.1606,500.1748 280.4805,498.5229 Q281.8003,496.8711 284.3071,496.8711 Q285.0127,496.8711 285.6602,497.0205 Q286.3076,497.1699 286.8721,497.4688 L286.8721,500.1914 Q286.2412,499.6104 285.6477,499.3406 Q285.0542,499.0708 284.4233,499.0708 Q283.0786,499.0708 282.3938,500.1375 Q281.709,501.2041 281.709,503.3042 Q281.709,505.396 282.3938,506.4626 Q283.0786,507.5293 284.4233,507.5293 Q285.0542,507.5293 285.6477,507.2595 Q286.2412,506.9897 286.8721,506.4087 Z " fill="#000000"/><text fill="#000000" font-family="sans-serif" font-size="14" lengthAdjust="spacing" textLength="90.3848" x="304.8989" y="508.2793">AgentToolset</text><line style="stroke:#53657D;stroke-width:0.5;" x1="225" x2="442.6826" y1="518.9883" y2="518.9883"/><text fill="#000000" font-family="sans-serif" font-size="14" lengthAdjust="spacing" textLength="207.6826" x="230" y="536.5234">type: agent_toolset_20260401</text><text fill="#000000" font-family="sans-serif" font-size="14" lengthAdjust="spacing" textLength="186.6074" x="230" y="553.0117">default_config: ToolConfig?</text><text fill="#000000" font-family="sans-serif" font-size="14" lengthAdjust="spacing" textLength="142.4814" x="230" y="569.5">configs: ToolConfig[]</text><line style="stroke:#53657D;stroke-width:0.5;" x1="225" x2="442.6826" y1="576.4531" y2="576.4531"/></g><!--class McpToolset--><g class="entity" data-qualified-name="McpToolset" data-source-line="287" id="ent0005"><rect fill="#F7F9FC" height="113.9531" rx="4" ry="4" style="stroke:#53657D;stroke-width:0.5;" width="198.6074" x="719.5" y="478.4883"/><ellipse cx="775.3975" cy="494.4883" fill="#ADD1B2" rx="11" ry="11" style="stroke:#181818;stroke-width:1;"/><path d="M777.8706,500.6313 Q777.2896,500.9302 776.6504,501.0796 Q776.0112,501.229 775.3057,501.229 Q772.7988,501.229 771.479,499.5771 Q770.1592,497.9253 770.1592,494.8042 Q770.1592,491.6748 771.479,490.0229 Q772.7988,488.3711 775.3057,488.3711 Q776.0112,488.3711 776.6587,488.5205 Q777.3062,488.6699 777.8706,488.9688 L777.8706,491.6914 Q777.2397,491.1104 776.6462,490.8406 Q776.0527,490.5708 775.4219,490.5708 Q774.0771,490.5708 773.3923,491.6375 Q772.7075,492.7041 772.7075,494.8042 Q772.7075,496.896 773.3923,497.9626 Q774.0771,499.0293 775.4219,499.0293 Q776.0527,499.0293 776.6462,498.7595 Q777.2397,498.4897 777.8706,497.9087 Z " fill="#000000"/><text fill="#000000" font-family="sans-serif" font-size="14" lengthAdjust="spacing" textLength="78.3125" x="795.8975" y="499.7793">McpToolset</text><line style="stroke:#53657D;stroke-width:0.5;" x1="720.5" x2="917.1074" y1="510.4883" y2="510.4883"/><text fill="#000000" font-family="sans-serif" font-size="14" lengthAdjust="spacing" textLength="120.7295" x="725.5" y="528.0234">type: mcp_toolset</text><text fill="#000000" font-family="sans-serif" font-size="14" lengthAdjust="spacing" textLength="170.6113" x="725.5" y="544.5117">mcp_server_name: String</text><text fill="#000000" font-family="sans-serif" font-size="14" lengthAdjust="spacing" textLength="186.6074" x="725.5" y="561">default_config: ToolConfig?</text><text fill="#000000" font-family="sans-serif" font-size="14" lengthAdjust="spacing" textLength="142.4814" x="725.5" y="577.4883">configs: ToolConfig[]</text><line style="stroke:#53657D;stroke-width:0.5;" x1="720.5" x2="917.1074" y1="584.4414" y2="584.4414"/></g><!--class CustomTool--><g class="entity" data-qualified-name="CustomTool" data-source-line="294" id="ent0006"><rect fill="#F7F9FC" height="113.9531" rx="4" ry="4" style="stroke:#53657D;stroke-width:0.5;" width="200.043" x="6" y="478.4883"/><ellipse cx="60.5132" cy="494.4883" fill="#ADD1B2" rx="11" ry="11" style="stroke:#181818;stroke-width:1;"/><path d="M62.9863,500.6313 Q62.4053,500.9302 61.7661,501.0796 Q61.127,501.229 60.4214,501.229 Q57.9146,501.229 56.5947,499.5771 Q55.2749,497.9253 55.2749,494.8042 Q55.2749,491.6748 56.5947,490.0229 Q57.9146,488.3711 60.4214,488.3711 Q61.127,488.3711 61.7744,488.5205 Q62.4219,488.6699 62.9863,488.9688 L62.9863,491.6914 Q62.3555,491.1104 61.762,490.8406 Q61.1685,490.5708 60.5376,490.5708 Q59.1929,490.5708 58.5081,491.6375 Q57.8232,492.7041 57.8232,494.8042 Q57.8232,496.896 58.5081,497.9626 Q59.1929,499.0293 60.5376,499.0293 Q61.1685,499.0293 61.762,498.7595 Q62.3555,498.4897 62.9863,497.9087 Z " fill="#000000"/><text fill="#000000" font-family="sans-serif" font-size="14" lengthAdjust="spacing" textLength="82.5166" x="81.0132" y="499.7793">CustomTool</text><line style="stroke:#53657D;stroke-width:0.5;" x1="7" x2="205.043" y1="510.4883" y2="510.4883"/><text fill="#000000" font-family="sans-serif" font-size="14" lengthAdjust="spacing" textLength="87.9238" x="12" y="528.0234">type: custom</text><text fill="#000000" font-family="sans-serif" font-size="14" lengthAdjust="spacing" textLength="86.1191" x="12" y="544.5117">name: String</text><text fill="#000000" font-family="sans-serif" font-size="14" lengthAdjust="spacing" textLength="124.9063" x="12" y="561">description: String</text><text fill="#000000" font-family="sans-serif" font-size="14" lengthAdjust="spacing" textLength="188.043" x="12" y="577.4883">input_schema: JSONSchema</text><line style="stroke:#53657D;stroke-width:0.5;" x1="7" x2="205.043" y1="584.4414" y2="584.4414"/></g><!--class ToolConfig--><g class="entity" data-qualified-name="ToolConfig" data-source-line="301" id="ent0007"><rect fill="#F7F9FC" height="97.4648" rx="4" ry="4" style="stroke:#53657D;stroke-width:0.5;" width="261.7305" x="541" y="647.4883"/><ellipse cx="630.1167" cy="663.4883" fill="#ADD1B2" rx="11" ry="11" style="stroke:#181818;stroke-width:1;"/><path d="M632.5898,669.6313 Q632.0088,669.9302 631.3696,670.0796 Q630.7305,670.229 630.0249,670.229 Q627.5181,670.229 626.1982,668.5771 Q624.8784,666.9253 624.8784,663.8042 Q624.8784,660.6748 626.1982,659.0229 Q627.5181,657.3711 630.0249,657.3711 Q630.7305,657.3711 631.3779,657.5205 Q632.0254,657.6699 632.5898,657.9688 L632.5898,660.6914 Q631.959,660.1104 631.3655,659.8406 Q630.772,659.5708 630.1411,659.5708 Q628.7964,659.5708 628.1116,660.6375 Q627.4268,661.7041 627.4268,663.8042 Q627.4268,665.896 628.1116,666.9626 Q628.7964,668.0293 630.1411,668.0293 Q630.772,668.0293 631.3655,667.7595 Q631.959,667.4897 632.5898,666.9087 Z " fill="#000000"/><text fill="#000000" font-family="sans-serif" font-size="14" lengthAdjust="spacing" textLength="74.9971" x="650.6167" y="668.7793">ToolConfig</text><line style="stroke:#53657D;stroke-width:0.5;" x1="542" x2="801.7305" y1="679.4883" y2="679.4883"/><text fill="#000000" font-family="sans-serif" font-size="14" lengthAdjust="spacing" textLength="92.0254" x="547" y="697.0234">name: String?</text><text fill="#000000" font-family="sans-serif" font-size="14" lengthAdjust="spacing" textLength="121.9736" x="547" y="713.5117">enabled: Boolean?</text><text fill="#000000" font-family="sans-serif" font-size="14" lengthAdjust="spacing" textLength="249.7305" x="547" y="730">permission_policy: PermissionPolicy?</text><line style="stroke:#53657D;stroke-width:0.5;" x1="542" x2="801.7305" y1="736.9531" y2="736.9531"/></g><!--class PermissionPolicy--><g class="entity" data-qualified-name="PermissionPolicy" data-source-line="307" id="ent0008"><rect fill="#F7F9FC" height="73.1094" rx="4" ry="4" style="stroke:#53657D;stroke-width:0.5;" width="225.8691" x="559" y="781.4883"/><ellipse cx="611.23" cy="801.7988" fill="#ADD1B2" rx="11" ry="11" style="stroke:#181818;stroke-width:1;"/><path d="M613.7031,807.9419 Q613.1221,808.2407 612.4829,808.3901 Q611.8438,808.5396 611.1382,808.5396 Q608.6313,808.5396 607.3115,806.8877 Q605.9917,805.2358 605.9917,802.1147 Q605.9917,798.9854 607.3115,797.3335 Q608.6313,795.6816 611.1382,795.6816 Q611.8438,795.6816 612.4912,795.8311 Q613.1387,795.9805 613.7031,796.2793 L613.7031,799.002 Q613.0723,798.4209 612.4788,798.1511 Q611.8853,797.8813 611.2544,797.8813 Q609.9097,797.8813 609.2249,798.948 Q608.54,800.0146 608.54,802.1147 Q608.54,804.2065 609.2249,805.2732 Q609.9097,806.3398 611.2544,806.3398 Q611.8853,806.3398 612.4788,806.0701 Q613.0723,805.8003 613.7031,805.2192 Z " fill="#000000"/><text fill="#000000" font-family="sans-serif" font-size="12" font-style="italic" lengthAdjust="spacing" textLength="89.8711" x="643.249" y="798.0898">&#171;tagged union&#187;</text><text fill="#000000" font-family="sans-serif" font-size="14" lengthAdjust="spacing" textLength="112.9092" x="631.73" y="814.1563">PermissionPolicy</text><line style="stroke:#53657D;stroke-width:0.5;" x1="560" x2="783.8691" y1="822.1094" y2="822.1094"/><text fill="#000000" font-family="sans-serif" font-size="14" lengthAdjust="spacing" textLength="213.8691" x="565" y="839.6445">type: always_allow | always_ask</text><line style="stroke:#53657D;stroke-width:0.5;" x1="560" x2="783.8691" y1="846.5977" y2="846.5977"/></g><!--class McpServer--><g class="entity" data-qualified-name="McpServer" data-source-line="311" id="ent0009"><rect fill="#F7F9FC" height="97.4648" rx="4" ry="4" style="stroke:#53657D;stroke-width:0.5;" width="101.8838" x="858" y="647.4883"/><ellipse cx="873" cy="663.4883" fill="#ADD1B2" rx="11" ry="11" style="stroke:#181818;stroke-width:1;"/><path d="M875.4731,669.6313 Q874.8921,669.9302 874.2529,670.0796 Q873.6138,670.229 872.9082,670.229 Q870.4014,670.229 869.0815,668.5771 Q867.7617,666.9253 867.7617,663.8042 Q867.7617,660.6748 869.0815,659.0229 Q870.4014,657.3711 872.9082,657.3711 Q873.6138,657.3711 874.2612,657.5205 Q874.9087,657.6699 875.4731,657.9688 L875.4731,660.6914 Q874.8423,660.1104 874.2488,659.8406 Q873.6553,659.5708 873.0244,659.5708 Q871.6797,659.5708 870.9949,660.6375 Q870.3101,661.7041 870.3101,663.8042 Q870.3101,665.896 870.9949,666.9626 Q871.6797,668.0293 873.0244,668.0293 Q873.6553,668.0293 874.2488,667.7595 Q874.8423,667.4897 875.4731,666.9087 Z " fill="#000000"/><text fill="#000000" font-family="sans-serif" font-size="14" lengthAdjust="spacing" textLength="69.8838" x="887" y="668.7793">McpServer</text><line style="stroke:#53657D;stroke-width:0.5;" x1="859" x2="958.8838" y1="679.4883" y2="679.4883"/><text fill="#000000" font-family="sans-serif" font-size="14" lengthAdjust="spacing" textLength="56.4854" x="864" y="697.0234">type: url</text><text fill="#000000" font-family="sans-serif" font-size="14" lengthAdjust="spacing" textLength="86.1191" x="864" y="713.5117">name: String</text><text fill="#000000" font-family="sans-serif" font-size="14" lengthAdjust="spacing" textLength="67.293" x="864" y="730">url: String</text><line style="stroke:#53657D;stroke-width:0.5;" x1="859" x2="958.8838" y1="736.9531" y2="736.9531"/></g><!--class SkillReference--><g class="entity" data-qualified-name="SkillReference" data-source-line="317" id="ent0010"><rect fill="#F7F9FC" height="97.4648" rx="4" ry="4" style="stroke:#53657D;stroke-width:0.5;" width="178.7148" x="975.5" y="326.4883"/><ellipse cx="1013.929" cy="342.4883" fill="#ADD1B2" rx="11" ry="11" style="stroke:#181818;stroke-width:1;"/><path d="M1016.4021,348.6313 Q1015.8211,348.9302 1015.1819,349.0796 Q1014.5428,349.229 1013.8372,349.229 Q1011.3304,349.229 1010.0105,347.5771 Q1008.6907,345.9253 1008.6907,342.8042 Q1008.6907,339.6748 1010.0105,338.0229 Q1011.3304,336.3711 1013.8372,336.3711 Q1014.5428,336.3711 1015.1902,336.5205 Q1015.8377,336.6699 1016.4021,336.9688 L1016.4021,339.6914 Q1015.7713,339.1104 1015.1778,338.8406 Q1014.5843,338.5708 1013.9534,338.5708 Q1012.6087,338.5708 1011.9239,339.6375 Q1011.2391,340.7041 1011.2391,342.8042 Q1011.2391,344.896 1011.9239,345.9626 Q1012.6087,347.0293 1013.9534,347.0293 Q1014.5843,347.0293 1015.1778,346.7595 Q1015.7713,346.4897 1016.4021,345.9087 Z " fill="#000000"/><text fill="#000000" font-family="sans-serif" font-size="14" lengthAdjust="spacing" textLength="94.6504" x="1033.1354" y="347.7793">SkillReference</text><line style="stroke:#53657D;stroke-width:0.5;" x1="976.5" x2="1153.2148" y1="358.4883" y2="358.4883"/><text fill="#000000" font-family="sans-serif" font-size="14" lengthAdjust="spacing" textLength="166.7148" x="981.5" y="376.0234">type: anthropic | custom</text><text fill="#000000" font-family="sans-serif" font-size="14" lengthAdjust="spacing" textLength="96.1475" x="981.5" y="392.5117">skill_id: String</text><text fill="#000000" font-family="sans-serif" font-size="14" lengthAdjust="spacing" textLength="103.9814" x="981.5" y="409">version: String?</text><line style="stroke:#53657D;stroke-width:0.5;" x1="976.5" x2="1153.2148" y1="415.9531" y2="415.9531"/></g><!--class MultiagentCoordinator--><g class="entity" data-qualified-name="MultiagentCoordinator" data-source-line="323" id="ent0011"><rect fill="#F7F9FC" height="80.9766" rx="4" ry="4" style="stroke:#53657D;stroke-width:0.5;" width="185.7197" x="1435" y="334.4883"/><ellipse cx="1450" cy="350.4883" fill="#ADD1B2" rx="11" ry="11" style="stroke:#181818;stroke-width:1;"/><path d="M1452.4731,356.6313 Q1451.8921,356.9302 1451.2529,357.0796 Q1450.6138,357.229 1449.9082,357.229 Q1447.4014,357.229 1446.0815,355.5771 Q1444.7617,353.9253 1444.7617,350.8042 Q1444.7617,347.6748 1446.0815,346.0229 Q1447.4014,344.3711 1449.9082,344.3711 Q1450.6138,344.3711 1451.2612,344.5205 Q1451.9087,344.6699 1452.4731,344.9688 L1452.4731,347.6914 Q1451.8423,347.1104 1451.2488,346.8406 Q1450.6553,346.5708 1450.0244,346.5708 Q1448.6797,346.5708 1447.9949,347.6375 Q1447.3101,348.7041 1447.3101,350.8042 Q1447.3101,352.896 1447.9949,353.9626 Q1448.6797,355.0293 1450.0244,355.0293 Q1450.6553,355.0293 1451.2488,354.7595 Q1451.8423,354.4897 1452.4731,353.9087 Z " fill="#000000"/><text fill="#000000" font-family="sans-serif" font-size="14" lengthAdjust="spacing" textLength="153.7197" x="1464" y="355.7793">MultiagentCoordinator</text><line style="stroke:#53657D;stroke-width:0.5;" x1="1436" x2="1619.7197" y1="366.4883" y2="366.4883"/><text fill="#000000" font-family="sans-serif" font-size="14" lengthAdjust="spacing" textLength="116.9629" x="1441" y="384.0234">type: coordinator</text><text fill="#000000" font-family="sans-serif" font-size="14" lengthAdjust="spacing" textLength="170.1875" x="1441" y="400.5117">agents: AgentReference[]</text><line style="stroke:#53657D;stroke-width:0.5;" x1="1436" x2="1619.7197" y1="407.4648" y2="407.4648"/></g><!--class AgentReference--><g class="entity" data-qualified-name="AgentReference" data-source-line="328" id="ent0012"><rect fill="#F7F9FC" height="106.0859" rx="4" ry="4" style="stroke:#53657D;stroke-width:0.5;" width="138.9004" x="1458.5" y="482.4883"/><ellipse cx="1473.5" cy="502.7988" fill="#ADD1B2" rx="11" ry="11" style="stroke:#181818;stroke-width:1;"/><path d="M1475.9731,508.9419 Q1475.3921,509.2407 1474.7529,509.3901 Q1474.1138,509.5396 1473.4082,509.5396 Q1470.9014,509.5396 1469.5815,507.8877 Q1468.2617,506.2358 1468.2617,503.1147 Q1468.2617,499.9854 1469.5815,498.3335 Q1470.9014,496.6816 1473.4082,496.6816 Q1474.1138,496.6816 1474.7612,496.8311 Q1475.4087,496.9805 1475.9731,497.2793 L1475.9731,500.002 Q1475.3423,499.4209 1474.7488,499.1511 Q1474.1553,498.8813 1473.5244,498.8813 Q1472.1797,498.8813 1471.4949,499.948 Q1470.8101,501.0146 1470.8101,503.1147 Q1470.8101,505.2065 1471.4949,506.2732 Q1472.1797,507.3398 1473.5244,507.3398 Q1474.1553,507.3398 1474.7488,507.0701 Q1475.3423,506.8003 1475.9731,506.2192 Z " fill="#000000"/><text fill="#000000" font-family="sans-serif" font-size="12" font-style="italic" lengthAdjust="spacing" textLength="89.8711" x="1496.0146" y="499.0898">&#171;tagged union&#187;</text><text fill="#000000" font-family="sans-serif" font-size="14" lengthAdjust="spacing" textLength="106.9004" x="1487.5" y="515.1563">AgentReference</text><line style="stroke:#53657D;stroke-width:0.5;" x1="1459.5" x2="1596.4004" y1="523.1094" y2="523.1094"/><text fill="#000000" font-family="sans-serif" font-size="14" lengthAdjust="spacing" textLength="114.4268" x="1464.5" y="540.6445">type: agent | self</text><text fill="#000000" font-family="sans-serif" font-size="14" lengthAdjust="spacing" textLength="67.5938" x="1464.5" y="557.1328">id: String?</text><text fill="#000000" font-family="sans-serif" font-size="14" lengthAdjust="spacing" textLength="112.0273" x="1464.5" y="573.6211">version: Integer?</text><line style="stroke:#53657D;stroke-width:0.5;" x1="1459.5" x2="1596.4004" y1="580.5742" y2="580.5742"/></g><g class="entity" data-qualified-name="GMN26" data-source-line="349" id="ent0027"><path d="M1077.5,136.4883 L1077.5,156.4883 L1059.2354,160.4883 L1077.5,164.4883 L1077.5,184.4199 A4,4 0 0 0 1081.5,188.4199 L1374.7998,188.4199 A4,4 0 0 0 1378.7998,184.4199 L1378.7998,142.4883 L1368.7998,132.4883 L1081.5,132.4883 A4,4 0 0 0 1077.5,136.4883" fill="#FEFFDD" style="stroke:#181818;stroke-width:0.5;"/><path d="M1368.7998,132.4883 L1368.7998,140.4883 A2,2 0 0 0 1370.7998,142.4883 L1378.7998,142.4883 L1368.7998,132.4883" fill="#FEFFDD" style="stroke:#181818;stroke-width:0.5;"/><text fill="#000000" font-family="sans-serif" font-size="13" lengthAdjust="spacing" textLength="210.5264" x="1083.5" y="150.0566">Create requires name and model.</text><text fill="#000000" font-family="sans-serif" font-size="13" lengthAdjust="spacing" textLength="228.4204" x="1083.5" y="165.3672">Update requires the current version.</text><text fill="#000000" font-family="sans-serif" font-size="13" lengthAdjust="spacing" textLength="280.2998" x="1083.5" y="180.6777">Configuration changes create a new version.</text></g><g class="entity" data-qualified-name="GMN29" data-source-line="355" id="ent0030"><path d="M462.5,511.4883 L462.5,531.4883 L444.4375,535.4883 L462.5,539.4883 L462.5,559.4199 A4,4 0 0 0 466.5,563.4199 L697.6499,563.4199 A4,4 0 0 0 701.6499,559.4199 L701.6499,517.4883 L691.6499,507.4883 L466.5,507.4883 A4,4 0 0 0 462.5,511.4883" fill="#FEFFDD" style="stroke:#181818;stroke-width:0.5;"/><path d="M691.6499,507.4883 L691.6499,515.4883 A2,2 0 0 0 693.6499,517.4883 L701.6499,517.4883 L691.6499,507.4883" fill="#FEFFDD" style="stroke:#181818;stroke-width:0.5;"/><text fill="#000000" font-family="sans-serif" font-size="13" lengthAdjust="spacing" textLength="96.751" x="468.5" y="525.0566">Built-in names:</text><text fill="#000000" font-family="sans-serif" font-size="13" lengthAdjust="spacing" textLength="142.0161" x="468.5" y="540.3672">bash, read, write, edit,</text><text fill="#000000" font-family="sans-serif" font-size="13" lengthAdjust="spacing" textLength="218.1499" x="468.5" y="555.6777">glob, grep, web_fetch, web_search</text></g><g class="entity" data-qualified-name="GMN32" data-source-line="361" id="ent0033"><path d="M531.5,358.4883 L531.5,391.1094 A4,4 0 0 0 535.5,395.1094 L732.4614,395.1094 A4,4 0 0 0 736.4614,391.1094 L736.4614,378.9883 L754.3166,374.9883 L736.4614,370.9883 L736.4614,364.4883 L726.4614,354.4883 L535.5,354.4883 A4,4 0 0 0 531.5,358.4883" fill="#FEFFDD" style="stroke:#181818;stroke-width:0.5;"/><path d="M726.4614,354.4883 L726.4614,362.4883 A2,2 0 0 0 728.4614,364.4883 L736.4614,364.4883 L726.4614,354.4883" fill="#FEFFDD" style="stroke:#181818;stroke-width:0.5;"/><text fill="#000000" font-family="sans-serif" font-size="13" lengthAdjust="spacing" textLength="183.9614" x="537.5" y="372.0566">Maximum 128 effective tools</text><text fill="#000000" font-family="sans-serif" font-size="13" lengthAdjust="spacing" textLength="117.3809" x="537.5" y="387.3672">across all toolsets.</text></g><g class="entity" data-qualified-name="GMN35" data-source-line="366" id="ent0036"><path d="M1173,358.4883 L1173,370.9883 L1154.8438,374.9883 L1173,378.9883 L1173,391.1094 A4,4 0 0 0 1177,395.1094 L1413.1963,395.1094 A4,4 0 0 0 1417.1963,391.1094 L1417.1963,364.4883 L1407.1963,354.4883 L1177,354.4883 A4,4 0 0 0 1173,358.4883" fill="#FEFFDD" style="stroke:#181818;stroke-width:0.5;"/><path d="M1407.1963,354.4883 L1407.1963,362.4883 A2,2 0 0 0 1409.1963,364.4883 L1417.1963,364.4883 L1407.1963,354.4883" fill="#FEFFDD" style="stroke:#181818;stroke-width:0.5;"/><text fill="#000000" font-family="sans-serif" font-size="13" lengthAdjust="spacing" textLength="223.1963" x="1179" y="372.0566">The session-wide limit is 500 skills</text><text fill="#000000" font-family="sans-serif" font-size="13" lengthAdjust="spacing" textLength="212.7925" x="1179" y="387.3672">across every agent in the session.</text></g><g class="link" data-entity-1="ent0001" data-entity-2="ent0002" data-link-type="composition" id="lnk13"><polygon fill="#53657D" points="834.9667,200.8108,827.9627,199.0951,823.685,204.9004,830.689,206.6162,834.9667,200.8108" style="stroke:#53657D;stroke-width:1;stroke-linejoin:miter;stroke-miterlimit:10;"/><path d="M823.685,204.9004 C737.0961,236.2887 626.1266,278.6976 522,326.4883 C516.5879,328.9722 511.0436,331.6343 505.4975,334.3832" fill="none" style="stroke:#53657D;stroke-width:1;"/><text fill="#000000" font-family="sans-serif" font-size="13" lengthAdjust="spacing" textLength="39.3047" x="604" y="304.0566">model</text><text fill="#000000" font-family="sans-serif" font-size="13" lengthAdjust="spacing" textLength="8.2202" x="496.4975" y="330.9516">1</text></g><g class="link" data-entity-1="ent0001" data-entity-2="ent0003" data-link-type="composition" id="lnk14"><polygon fill="#53657D" points="880.563,271.784,874.0408,274.8597,874.3713,282.0633,880.8936,278.9876,880.563,271.784" style="stroke:#53657D;stroke-width:1;stroke-linejoin:miter;stroke-miterlimit:10;"/><path d="M874.3713,282.0633 C859.8833,306.1156 851.7538,319.6118 840.5749,338.1705" fill="none" style="stroke:#53657D;stroke-width:1;"/><text fill="#000000" font-family="sans-serif" font-size="13" lengthAdjust="spacing" textLength="31.2178" x="870" y="304.0566">tools</text><text fill="#000000" font-family="sans-serif" font-size="13" lengthAdjust="spacing" textLength="22.7119" x="817.5749" y="334.7389">0..*</text></g><g class="link" data-entity-1="ent0003" data-entity-2="ent0004" data-link-type="extension" id="lnk15"><polygon fill="none" points="769.0305,411.6446,750.4395,415.4357,756.4324,425.8321,769.0305,411.6446" style="stroke:#53657D;stroke-width:1;stroke-linejoin:miter;stroke-miterlimit:10;"/><path d="M753.4359,420.6339 C745.6454,425.1247 753.0861,420.2734 745,423.4883 C622.2832,472.2775 578.6432,437.8241 453,478.4883 C445.2881,480.9842 437.4267,483.8648 429.6056,486.9753" fill="none" style="stroke:#53657D;stroke-width:1;"/></g><g class="link" data-entity-1="ent0003" data-entity-2="ent0005" data-link-type="extension" id="lnk16"><polygon fill="none" points="819,411.5588,813,429.5588,825,429.5588,819,411.5588" style="stroke:#53657D;stroke-width:1;stroke-linejoin:miter;stroke-miterlimit:10;"/><path d="M819,429.5588 C819,449.1822 819,456.0017 819,478.1931" fill="none" style="stroke:#53657D;stroke-width:1;"/></g><g class="link" data-entity-1="ent0003" data-entity-2="ent0006" data-link-type="extension" id="lnk17"><polygon fill="none" points="770.5451,411.7142,751.9331,415.401,757.8675,425.8308,770.5451,411.7142" style="stroke:#53657D;stroke-width:1;stroke-linejoin:miter;stroke-miterlimit:10;"/><path d="M754.9003,420.6159 C746.704,425.2795 753.6752,420.5487 745,423.4883 C653.3433,454.5461 624.2901,431.8064 528,441.4883 C388.6231,455.5025 348.9824,437.61 215,478.4883 C212.0494,479.3885 209.0834,480.3664 206.1131,481.4103" fill="none" style="stroke:#53657D;stroke-width:1;"/></g><g class="link" data-entity-1="ent0004" data-entity-2="ent0007" data-link-type="composition" id="lnk18"><polygon fill="#53657D" points="434.9469,584.0105,438.6763,590.1824,445.8078,589.1136,442.0784,582.9418,434.9469,584.0105" style="stroke:#53657D;stroke-width:1;stroke-linejoin:miter;stroke-miterlimit:10;"/><path d="M445.8078,589.1136 C451.9158,591.9835 447.1091,589.7236 453,592.4883 C491.2872,610.4569 533.3581,630.158 570.3043,647.4449" fill="none" style="stroke:#53657D;stroke-width:1;"/><text fill="#000000" font-family="sans-serif" font-size="13" lengthAdjust="spacing" textLength="66.6123" x="534" y="625.0566">configures</text><text fill="#000000" font-family="sans-serif" font-size="13" lengthAdjust="spacing" textLength="22.7119" x="547.3043" y="644.0132">0..*</text></g><g class="link" data-entity-1="ent0005" data-entity-2="ent0007" data-link-type="composition" id="lnk19"><polygon fill="#53657D" points="756.4973,592.5334,749.4146,593.8879,747.9407,600.9468,755.0235,599.5923,756.4973,592.5334" style="stroke:#53657D;stroke-width:1;stroke-linejoin:miter;stroke-miterlimit:10;"/><path d="M747.9407,600.9468 C741.9023,606.884 744.5297,604.5211 739,610.4883 C728.3105,622.0234 717.4224,635.0863 707.6169,647.4326" fill="none" style="stroke:#53657D;stroke-width:1;"/><text fill="#000000" font-family="sans-serif" font-size="13" lengthAdjust="spacing" textLength="66.6123" x="741" y="625.0566">configures</text><text fill="#000000" font-family="sans-serif" font-size="13" lengthAdjust="spacing" textLength="22.7119" x="684.6169" y="644.0009">0..*</text></g><g class="link" data-entity-1="ent0007" data-entity-2="ent0008" data-link-type="aggregation" id="lnk20"><polygon fill="none" points="672,744.7603,668,750.7603,672,756.7603,676,750.7603,672,744.7603" style="stroke:#53657D;stroke-width:1;stroke-linejoin:miter;stroke-miterlimit:10;"/><path d="M672,756.7603 C672,768.9172 672,769.7735 672,781.2167" fill="none" style="stroke:#53657D;stroke-width:1;"/><text fill="#000000" font-family="sans-serif" font-size="13" lengthAdjust="spacing" textLength="24.667" x="647" y="777.785">0..1</text></g><g class="link" data-entity-1="ent0001" data-entity-2="ent0009" data-link-type="composition" id="lnk21"><polygon fill="#53657D" points="953.5831,271.7979,949.7966,277.9348,954.0051,283.7904,957.7916,277.6535,953.5831,271.7979" style="stroke:#53657D;stroke-width:1;stroke-linejoin:miter;stroke-miterlimit:10;"/><path d="M954.0051,283.7904 C957.3663,379.3244 956.2873,508.7683 933,629.4883 C931.876,635.3152 930.303,641.3111 928.494,647.198" fill="none" style="stroke:#53657D;stroke-width:1;"/><text fill="#000000" font-family="sans-serif" font-size="13" lengthAdjust="spacing" textLength="78.584" x="956" y="456.0566">mcp_servers</text><text fill="#000000" font-family="sans-serif" font-size="13" lengthAdjust="spacing" textLength="32.8872" x="895.494" y="643.7663">0..20</text></g><g class="link" data-entity-1="ent0005" data-entity-2="ent0009" data-link-type="dependency" id="lnk22"><polygon fill="#53657D" points="857.8127,669.9062,852.5595,661.5754,853.6579,667.1246,848.1087,668.223,857.8127,669.9062" style="stroke:#53657D;stroke-width:1;stroke-linejoin:miter;stroke-miterlimit:10;"/><path d="M810.7141,592.5704 C811.0555,605.2471 813.2871,618.2649 819,629.4883 C827.5034,646.1938 838.3293,656.8618 853.6579,667.1246" fill="none" style="stroke:#53657D;stroke-width:1;"/><text fill="#000000" font-family="sans-serif" font-size="13" lengthAdjust="spacing" textLength="110.6016" x="821" y="625.0566">matches by name</text><text fill="#000000" font-family="sans-serif" font-size="13" lengthAdjust="spacing" textLength="8.2202" x="848.8127" y="666.4746">1</text></g><g class="link" data-entity-1="ent0001" data-entity-2="ent0010" data-link-type="composition" id="lnk23"><polygon fill="#53657D" points="1008.2466,271.784,1007.6624,278.9714,1014.0722,282.2751,1014.6564,275.0877,1008.2466,271.784" style="stroke:#53657D;stroke-width:1;stroke-linejoin:miter;stroke-miterlimit:10;"/><path d="M1014.0722,282.2751 C1024.7346,301.4765 1029.4735,310.0104 1038.5443,326.3457" fill="none" style="stroke:#53657D;stroke-width:1;"/><text fill="#000000" font-family="sans-serif" font-size="13" lengthAdjust="spacing" textLength="32.1255" x="1029" y="304.0566">skills</text><text fill="#000000" font-family="sans-serif" font-size="13" lengthAdjust="spacing" textLength="22.7119" x="1015.5443" y="322.914">0..*</text></g><g class="link" data-entity-1="ent0001" data-entity-2="ent0011" data-link-type="composition" id="lnk24"><polygon fill="#53657D" points="1059.2257,266.9954,1062.5724,273.3828,1069.7557,272.7502,1066.409,266.3628,1059.2257,266.9954" style="stroke:#53657D;stroke-width:1;stroke-linejoin:miter;stroke-miterlimit:10;"/><path d="M1069.7557,272.7502 C1215.0473,342.0629 1271.9354,279.8195 1426,326.4883 C1433.4782,328.7535 1441.1096,331.4706 1448.6639,334.4429" fill="none" style="stroke:#53657D;stroke-width:1;"/><text fill="#000000" font-family="sans-serif" font-size="13" lengthAdjust="spacing" textLength="68.0405" x="1331" y="304.0566">multiagent</text><text fill="#000000" font-family="sans-serif" font-size="13" lengthAdjust="spacing" textLength="24.667" x="1423.6639" y="331.0113">0..1</text></g><g class="link" data-entity-1="ent0011" data-entity-2="ent0012" data-link-type="composition" id="lnk25"><polygon fill="#53657D" points="1528,415.5757,1524,421.5757,1528,427.5757,1532,421.5757,1528,415.5757" style="stroke:#53657D;stroke-width:1;stroke-linejoin:miter;stroke-miterlimit:10;"/><path d="M1528,427.5757 C1528,447.748 1528,460.5398 1528,482.2566" fill="none" style="stroke:#53657D;stroke-width:1;"/><text fill="#000000" font-family="sans-serif" font-size="13" lengthAdjust="spacing" textLength="37.356" x="1530" y="456.0566">roster</text><text fill="#000000" font-family="sans-serif" font-size="13" lengthAdjust="spacing" textLength="32.8872" x="1495" y="478.825">1..20</text></g><?plantuml-src fLPBR-Cs4BxhLqpJGu65xJZfPdSh10aI1m5I8DsWJaz5OL3II2P2aIf9sNKt_UyTaefCsTvWaSqbrZmuhsyUFpIQLJK3mJQgjM1gj4oon78h4AwaNMhLy1pkYLXX0LSLIWiFRIQ8E5Eov5MhcULAmhqgK2HMDM0LPCfQLKF1DUQEcoJcYSk6QLP3nlAdIgjM5ZCbb8OVR_rV966Mh51hBYiecJ0OSRnQhhH43PyYkYJZ1XjuFus5cNponBE8c0jcp9MrccUjnRjSoJd_5o7Mkz9QhJlVpdx-SFRn9cBEdFwrqWNgrqNselnu-yljB4b-WhbgTOw0ArwWp34bqXYMrZOcFJvk1BEbqlM476qBdEIgFYvKRevH7jUX2cFcgc2E_R-nGTisRtt2AYNCMvNhl1bJ_YILMEctFa9f4z_XGYii3tbGEb-YiG6DzDxdpA1U4MOpNB8LLpe57orm0mmignoUM-cWgqgmIuJkRV3l1M6q8xYVFRnyc14mMK3U6eTkHmHA0DdChPaSjicaVy3JDHH8CNKDurxYriJlWyOIjGC5r6I3FBBv4h8DI5QZCt23XbUIn9XHCeMIeoWyq_Zd2cvopMik6LK4Laoqn2YL46hj8sn2ushycnZMgsWqZP86-q0cIU9xvANdGykVdtUwLmztJiT3-E82lYG0l4XXJWqbA_gmcmRJa4BwefWDTvxUIOiLQY8vRoDvwbjokR5UAb0lYMmsnc8TKznaAfXbAJdMd0VwgEDV43-df5Wi5iocyCWf8vRL3T7RfZX8PuGNljfbN2R_zV6xWHPct7wOfa6aRzAH1TC5FDEeCjOfiypuF8P90uzKsHiikUI-wEVdCVAw18QSTM_tzdtY7pjWV1ccTj41Pd4wFVqmVJyzyPai6RN38lSkfzvoSD-bBr1DJFxphoZOlDatHGt-OiWLWBu2Z1TxDVmEopFVJ8uNMGuTzareSPMHJMiNXlg_9dZyEl_yszp_tXhPclP6ubUTYoXP9bmzhqaEcNIq1dNDZKFleb64_4qA3ptfmLCYiEooNYiq4sksCGlcs_Av_pHFWtBCmyJOghLQx2U4YFl8cRkP-di_IYBB_K9_tgROJ-350DrzsxwaQEjOFt1dYfPWDscYmcsfhiVyb4u3b7k7ukeFEQzcpS-XPvgaeXnqu-M1EUCz7WomT-Cn79qS3RgQ4EwFbdt1wMJoxcYtTxi5akosz3DfnCrwK63RO0VPsov81ds_uqtlUDxTNcYIg7M_GJgYgqwQih8BtyCfEPqUHSXCeuamy68ylWYfZaNT9gDbrEsohwPy1xefTFV1GNbduo0UoLvFJmwB13o4c7P0cDAPITj79ubK5a7pQcdTZH3xaCpykl6hb8vSuwFo2zL3QfByuTVEbk_MRzvgxVplq3f9XXTqlcIo8j6moUX8aRZUoYAzxVpPzMg0lEkM2plcCjm4QP8ninovSw4OmLfpYoF0WjjHKWcLZQ3Is103iqM9L9_mqw1RZRls19RUt12yL9T_UDtMS7Bw2R0itRM_mgvFM4vvfCD4YFv--deOmy8dZvGkWnwHupNToI3ehB7kTZkRJbz0qHb0oj6ccmyKkjsgHkR-1m00?></g></svg>